<?xml version="1.0" encoding="UTF-8" standalone="no"?>
<!DOCTYPE svg PUBLIC "-//W3C//DTD SVG 1.1//EN"
 "http://www.w3.org/Graphics/SVG/1.1/DTD/svg11.dtd">
<!-- Generated by graphviz version 6.0.1 (0)
 -->
<!-- Title: Riemann_solver_exact Pages: 1 -->
<svg width="918pt" height="132pt"
 viewBox="0.00 0.00 918.00 131.50" xmlns="http://www.w3.org/2000/svg" xmlns:xlink="http://www.w3.org/1999/xlink">
<g id="graph0" class="graph" transform="scale(1 1) rotate(0) translate(4 127.5)">
<title>Riemann_solver_exact</title>
<polygon fill="white" stroke="none" points="-4,4 -4,-127.5 914,-127.5 914,4 -4,4"/>
<!-- Node1 -->
<g id="node1" class="node">
<title>Node1</title>
<g id="a_node1"><a xlink:title="EXACT RIEMANN SOLVER FOR Two&#45;Component γ&#45;Law Gas">
<polygon fill="#bfbfbf" stroke="black" points="782,-85 782,-104 910,-104 910,-85 782,-85"/>
<text text-anchor="middle" x="846" y="-92" font-family="Helvetica,sans-Serif" font-size="10.00">Riemann_solver_exact</text>
</a>
</g>
</g>
<!-- Node2 -->
<g id="node2" class="node">
<title>Node2</title>
<g id="a_node2"><a xlink:href="../../d9/dd5/linear__grp__solver___edir___g2_d_8c.html#acb16fb4ec6efd52b51f908f52934b384" target="_top" xlink:title="A Genuinely&#45;2D direct Eulerian GRP solver for unsteady compressible inviscid two&#45;component flow in tw...">
<polygon fill="white" stroke="black" points="400,-104 400,-123 555,-123 555,-104 400,-104"/>
<text text-anchor="middle" x="477.5" y="-111" font-family="Helvetica,sans-Serif" font-size="10.00">linear_GRP_solver_Edir_G2D</text>
</a>
</g>
</g>
<!-- Node1&#45;&gt;Node2 -->
<g id="edge1" class="edge">
<title>Node1&#45;&gt;Node2</title>
<path fill="none" stroke="midnightblue" d="M771.78,-98.3C709.06,-101.55 619.02,-106.22 555.28,-109.52"/>
<polygon fill="midnightblue" stroke="midnightblue" points="772.19,-101.78 782,-97.77 771.83,-94.79 772.19,-101.78"/>
</g>
<!-- Node3 -->
<g id="node3" class="node">
<title>Node3</title>
<g id="a_node3"><a xlink:href="../../db/dd1/linear__grp__solver___edir___q1_d_8c.html#accd0c08406f5ddb935beb15b9cf87865" target="_top" xlink:title="A Quasi&#45;1D direct Eulerian GRP solver for unsteady compressible inviscid two&#45;component flow in two sp...">
<polygon fill="white" stroke="black" points="591,-66 591,-85 746,-85 746,-66 591,-66"/>
<text text-anchor="middle" x="668.5" y="-73" font-family="Helvetica,sans-Serif" font-size="10.00">linear_GRP_solver_Edir_Q1D</text>
</a>
</g>
</g>
<!-- Node1&#45;&gt;Node3 -->
<g id="edge2" class="edge">
<title>Node1&#45;&gt;Node3</title>
<path fill="none" stroke="midnightblue" d="M771.55,-86.55C763.18,-85.64 754.64,-84.72 746.24,-83.81"/>
<polygon fill="midnightblue" stroke="midnightblue" points="771.32,-90.04 781.64,-87.64 772.08,-83.08 771.32,-90.04"/>
</g>
<!-- Node3&#45;&gt;Node2 -->
<g id="edge12" class="edge">
<title>Node3&#45;&gt;Node2</title>
<path fill="none" stroke="midnightblue" d="M609.76,-87.11C582.88,-92.51 551.3,-98.86 525.85,-103.98"/>
<polygon fill="midnightblue" stroke="midnightblue" points="610.69,-90.49 619.81,-85.09 609.31,-83.63 610.69,-90.49"/>
</g>
<!-- Node4 -->
<g id="node4" class="node">
<title>Node4</title>
<g id="a_node4"><a xlink:href="../../d5/d55/flux__solver_8c.html#a49938584f813ee4c3756f8aba45325de" target="_top" xlink:title="This function calculate Eulerian fluxes of 2&#45;D Euler equations by 2&#45;D GRP solver.">
<polygon fill="white" stroke="black" points="437.5,-28 437.5,-47 517.5,-47 517.5,-28 437.5,-28"/>
<text text-anchor="middle" x="477.5" y="-35" font-family="Helvetica,sans-Serif" font-size="10.00">GRP_2D_flux</text>
</a>
</g>
</g>
<!-- Node3&#45;&gt;Node4 -->
<g id="edge3" class="edge">
<title>Node3&#45;&gt;Node4</title>
<path fill="none" stroke="midnightblue" d="M609.91,-63.92C580,-57.91 544.24,-50.72 517.58,-45.36"/>
<polygon fill="midnightblue" stroke="midnightblue" points="609.31,-67.37 619.81,-65.91 610.69,-60.51 609.31,-67.37"/>
</g>
<!-- Node10 -->
<g id="node10" class="node">
<title>Node10</title>
<g id="a_node10"><a xlink:href="../../d5/d55/flux__solver_8c.html#a8741ed2c6d1a4b403640ac46174039d7" target="_top" xlink:title="This function calculate Eulerian fluxes of 2&#45;D Euler equations by Riemann solver.">
<polygon fill="white" stroke="black" points="419.5,-66 419.5,-85 535.5,-85 535.5,-66 419.5,-66"/>
<text text-anchor="middle" x="477.5" y="-73" font-family="Helvetica,sans-Serif" font-size="10.00">Riemann_exact_flux</text>
</a>
</g>
</g>
<!-- Node3&#45;&gt;Node10 -->
<g id="edge13" class="edge">
<title>Node3&#45;&gt;Node10</title>
<path fill="none" stroke="midnightblue" d="M580.9,-75.5C565.59,-75.5 550,-75.5 535.76,-75.5"/>
<polygon fill="midnightblue" stroke="midnightblue" points="580.9,-79 590.9,-75.5 580.9,-72 580.9,-79"/>
</g>
<!-- Node5 -->
<g id="node5" class="node">
<title>Node5</title>
<g id="a_node5"><a xlink:href="../../de/d35/flux__generator__x_8c.html#a99d3c20c9f68680b85415265ecd67b60" target="_top" xlink:title="This function calculate Eulerian fluxes of 2&#45;D Euler equations in x&#45;direction by 2&#45;D GRP solver.">
<polygon fill="white" stroke="black" points="265,-47 265,-66 364,-66 364,-47 265,-47"/>
<text text-anchor="middle" x="314.5" y="-54" font-family="Helvetica,sans-Serif" font-size="10.00">flux_generator_x</text>
</a>
</g>
</g>
<!-- Node4&#45;&gt;Node5 -->
<g id="edge4" class="edge">
<title>Node4&#45;&gt;Node5</title>
<path fill="none" stroke="midnightblue" d="M426.99,-43.34C407.06,-45.7 384.13,-48.4 364.27,-50.74"/>
<polygon fill="midnightblue" stroke="midnightblue" points="427.59,-46.8 437.11,-42.15 426.77,-39.84 427.59,-46.8"/>
</g>
<!-- Node9 -->
<g id="node9" class="node">
<title>Node9</title>
<g id="a_node9"><a xlink:href="../../de/db1/flux__generator__y_8c.html#a964701ac9bd65f6b19c3c731e983d562" target="_top" xlink:title="This function calculate Eulerian fluxes of 2&#45;D Euler equations in y&#45;direction by 2&#45;D GRP solver.">
<polygon fill="white" stroke="black" points="265,-9 265,-28 364,-28 364,-9 265,-9"/>
<text text-anchor="middle" x="314.5" y="-16" font-family="Helvetica,sans-Serif" font-size="10.00">flux_generator_y</text>
</a>
</g>
</g>
<!-- Node4&#45;&gt;Node9 -->
<g id="edge9" class="edge">
<title>Node4&#45;&gt;Node9</title>
<path fill="none" stroke="midnightblue" d="M426.99,-31.66C407.06,-29.3 384.13,-26.6 364.27,-24.26"/>
<polygon fill="midnightblue" stroke="midnightblue" points="426.77,-35.16 437.11,-32.85 427.59,-28.2 426.77,-35.16"/>
</g>
<!-- Node6 -->
<g id="node6" class="node">
<title>Node6</title>
<g id="a_node6"><a xlink:href="../../d1/d4b/grp__solver__2_d___e_u_l__source_8c.html#a30950ea8ff93f97618fb87759c6aae04" target="_top" xlink:title="This function use GRP scheme to solve 2&#45;D Euler equations of motion on Eulerian coordinate without di...">
<polygon fill="white" stroke="black" points="77,-50 77,-69 229,-69 229,-50 77,-50"/>
<text text-anchor="middle" x="153" y="-57" font-family="Helvetica,sans-Serif" font-size="10.00">GRP_solver_2D_EUL_source</text>
</a>
</g>
</g>
<!-- Node5&#45;&gt;Node6 -->
<g id="edge5" class="edge">
<title>Node5&#45;&gt;Node6</title>
<path fill="none" stroke="midnightblue" d="M254.51,-57.61C246.25,-57.76 237.67,-57.93 229.16,-58.09"/>
<polygon fill="midnightblue" stroke="midnightblue" points="254.85,-61.1 264.78,-57.42 254.71,-54.11 254.85,-61.1"/>
</g>
<!-- Node8 -->
<g id="node8" class="node">
<title>Node8</title>
<g id="a_node8"><a xlink:href="../../df/d07/grp__solver__2_d__split___e_u_l__source_8c.html#af66dc2722921b16ef5aa77be65cfc311" target="_top" xlink:title="This function use GRP scheme to solve 2&#45;D Euler equations of motion on Eulerian coordinate with dimen...">
<polygon fill="white" stroke="black" points="94.5,-0.5 94.5,-30.5 211.5,-30.5 211.5,-0.5 94.5,-0.5"/>
<text text-anchor="start" x="102.5" y="-18.5" font-family="Helvetica,sans-Serif" font-size="10.00">GRP_solver_2D_split</text>
<text text-anchor="middle" x="153" y="-7.5" font-family="Helvetica,sans-Serif" font-size="10.00">_EUL_source</text>
</a>
</g>
</g>
<!-- Node5&#45;&gt;Node8 -->
<g id="edge7" class="edge">
<title>Node5&#45;&gt;Node8</title>
<path fill="none" stroke="midnightblue" d="M266.69,-44.47C249.48,-40.04 229.78,-34.98 211.72,-30.34"/>
<polygon fill="midnightblue" stroke="midnightblue" points="265.95,-47.89 276.51,-46.99 267.69,-41.11 265.95,-47.89"/>
</g>
<!-- Node7 -->
<g id="node7" class="node">
<title>Node7</title>
<g id="a_node7"><a xlink:href="../../d2/d24/hydrocode_8c.html#a0ddf1224851353fc92bfbff6f499fa97" target="_top" xlink:title="This is the main function which constructs the main structure of the 2&#45;D Eulerian hydrocode.">
<polygon fill="white" stroke="black" points="0,-28 0,-47 41,-47 41,-28 0,-28"/>
<text text-anchor="middle" x="20.5" y="-35" font-family="Helvetica,sans-Serif" font-size="10.00">main</text>
</a>
</g>
</g>
<!-- Node6&#45;&gt;Node7 -->
<g id="edge6" class="edge">
<title>Node6&#45;&gt;Node7</title>
<path fill="none" stroke="midnightblue" d="M85.45,-48.28C69.23,-45.55 53.12,-42.83 41.13,-40.81"/>
<polygon fill="midnightblue" stroke="midnightblue" points="85.08,-51.77 95.52,-49.98 86.24,-44.86 85.08,-51.77"/>
</g>
<!-- Node8&#45;&gt;Node7 -->
<g id="edge8" class="edge">
<title>Node8&#45;&gt;Node7</title>
<path fill="none" stroke="midnightblue" d="M84.48,-26.88C68.56,-29.57 52.82,-32.22 41.05,-34.2"/>
<polygon fill="midnightblue" stroke="midnightblue" points="85.1,-30.33 94.38,-25.21 83.94,-23.42 85.1,-30.33"/>
</g>
<!-- Node9&#45;&gt;Node6 -->
<g id="edge10" class="edge">
<title>Node9&#45;&gt;Node6</title>
<path fill="none" stroke="midnightblue" d="M266.52,-30.58C242.44,-36.77 213.55,-44.19 191.07,-49.97"/>
<polygon fill="midnightblue" stroke="midnightblue" points="267.69,-33.89 276.51,-28.01 265.95,-27.11 267.69,-33.89"/>
</g>
<!-- Node9&#45;&gt;Node8 -->
<g id="edge11" class="edge">
<title>Node9&#45;&gt;Node8</title>
<path fill="none" stroke="midnightblue" d="M254.73,-17.39C240.68,-17.13 225.68,-16.85 211.67,-16.58"/>
<polygon fill="midnightblue" stroke="midnightblue" points="254.71,-20.89 264.78,-17.58 254.85,-13.9 254.71,-20.89"/>
</g>
</g>
</svg>
