<?xml version="1.0" encoding="UTF-8" standalone="no"?>
<!DOCTYPE svg PUBLIC "-//W3C//DTD SVG 1.1//EN"
 "http://www.w3.org/Graphics/SVG/1.1/DTD/svg11.dtd">
<!-- Generated by graphviz version 5.0.0 (0)
 -->
<!-- Title: minmod2 Pages: 1 -->
<svg width="319pt" height="66pt"
 viewBox="0.00 0.00 319.00 66.00" xmlns="http://www.w3.org/2000/svg" xmlns:xlink="http://www.w3.org/1999/xlink">
<g id="graph0" class="graph" transform="scale(1 1) rotate(0) translate(4 62)">
<title>minmod2</title>
<polygon fill="white" stroke="transparent" points="-4,4 -4,-62 315,-62 315,4 -4,4"/>
<!-- Node1 -->
<g id="node1" class="node">
<title>Node1</title>
<g id="a_node1"><a xlink:title="Minmod limiter function of two variables.">
<polygon fill="#bfbfbf" stroke="black" points="248,-19.5 248,-38.5 311,-38.5 311,-19.5 248,-19.5"/>
<text text-anchor="middle" x="279.5" y="-26.5" font-family="Helvetica,sans-Serif" font-size="10.00">minmod2</text>
</a>
</g>
</g>
<!-- Node2 -->
<g id="node2" class="node">
<title>Node2</title>
<g id="a_node2"><a xlink:href="../../d5/d10/_g_r_p__solver___e_u_l__source_8c.html#a9f209350a079455d88d4b7a5fc841b6a" target="_top" xlink:title="This function use GRP scheme to solve 1&#45;D Euler equations of motion on Eulerian coordinate.">
<polygon fill="white" stroke="black" points="77.5,-38.5 77.5,-57.5 211.5,-57.5 211.5,-38.5 77.5,-38.5"/>
<text text-anchor="middle" x="144.5" y="-45.5" font-family="Helvetica,sans-Serif" font-size="10.00">GRP_solver_EUL_source</text>
</a>
</g>
</g>
<!-- Node1&#45;&gt;Node2 -->
<g id="edge1" class="edge">
<title>Node1&#45;&gt;Node2</title>
<path fill="none" stroke="midnightblue" d="M237.85,-34.81C229.54,-35.99 220.59,-37.27 211.65,-38.55"/>
<polygon fill="midnightblue" stroke="midnightblue" points="238.58,-38.24 247.99,-33.36 237.59,-31.31 238.58,-38.24"/>
</g>
<!-- Node4 -->
<g id="node4" class="node">
<title>Node4</title>
<g id="a_node4"><a xlink:href="../../dd/dd7/_g_r_p__solver___l_a_g__source_8c.html#aa79b723d4064c233bc0519d6eb7206ae" target="_top" xlink:title="This function use GRP scheme to solve 1&#45;D Euler equations of motion on Lagrangian coordinate.">
<polygon fill="white" stroke="black" points="77,-0.5 77,-19.5 212,-19.5 212,-0.5 77,-0.5"/>
<text text-anchor="middle" x="144.5" y="-7.5" font-family="Helvetica,sans-Serif" font-size="10.00">GRP_solver_LAG_source</text>
</a>
</g>
</g>
<!-- Node1&#45;&gt;Node4 -->
<g id="edge3" class="edge">
<title>Node1&#45;&gt;Node4</title>
<path fill="none" stroke="midnightblue" d="M238,-23.21C229.81,-22.04 221,-20.79 212.19,-19.53"/>
<polygon fill="midnightblue" stroke="midnightblue" points="237.59,-26.69 247.99,-24.64 238.58,-19.76 237.59,-26.69"/>
</g>
<!-- Node3 -->
<g id="node3" class="node">
<title>Node3</title>
<g id="a_node3"><a xlink:href="../../d2/d24/hydrocode_8c.html#a0ddf1224851353fc92bfbff6f499fa97" target="_top" xlink:title="This is the main function which constructs the main structure of the Lagrangian/Eulerian hydrocode.">
<polygon fill="white" stroke="black" points="0,-19.5 0,-38.5 41,-38.5 41,-19.5 0,-19.5"/>
<text text-anchor="middle" x="20.5" y="-26.5" font-family="Helvetica,sans-Serif" font-size="10.00">main</text>
</a>
</g>
</g>
<!-- Node2&#45;&gt;Node3 -->
<g id="edge2" class="edge">
<title>Node2&#45;&gt;Node3</title>
<path fill="none" stroke="midnightblue" d="M72.11,-36.88C60.78,-35.12 49.95,-33.43 41.23,-32.07"/>
<polygon fill="midnightblue" stroke="midnightblue" points="71.72,-40.36 82.14,-38.44 72.8,-33.45 71.72,-40.36"/>
</g>
<!-- Node4&#45;&gt;Node3 -->
<g id="edge4" class="edge">
<title>Node4&#45;&gt;Node3</title>
<path fill="none" stroke="midnightblue" d="M72.11,-21.12C60.78,-22.88 49.95,-24.57 41.23,-25.93"/>
<polygon fill="midnightblue" stroke="midnightblue" points="72.8,-24.55 82.14,-19.56 71.72,-17.64 72.8,-24.55"/>
</g>
</g>
</svg>
