<?xml version="1.0" encoding="UTF-8" standalone="no"?>
<!DOCTYPE svg PUBLIC "-//W3C//DTD SVG 1.1//EN"
 "http://www.w3.org/Graphics/SVG/1.1/DTD/svg11.dtd">
<!-- Generated by graphviz version 5.0.0 (0)
 -->
<!-- Title: /home/leixin/Programs/HydroCODE/src/finite_volume/GRP_solver_2D_EUL_source.c Pages: 1 -->
<svg width="915pt" height="184pt"
 viewBox="0.00 0.00 914.50 184.00" xmlns="http://www.w3.org/2000/svg" xmlns:xlink="http://www.w3.org/1999/xlink">
<g id="graph0" class="graph" transform="scale(1 1) rotate(0) translate(4 180)">
<title>/home/leixin/Programs/HydroCODE/src/finite_volume/GRP_solver_2D_EUL_source.c</title>
<polygon fill="white" stroke="transparent" points="-4,4 -4,-180 910.5,-180 910.5,4 -4,4"/>
<!-- Node1 -->
<g id="node1" class="node">
<title>Node1</title>
<g id="a_node1"><a xlink:title="This is an Eulerian GRP scheme to solve 2&#45;D Euler equations without dimension splitting.">
<polygon fill="#bfbfbf" stroke="black" points="267,-123.5 267,-175.5 403,-175.5 403,-123.5 267,-123.5"/>
<text text-anchor="start" x="275" y="-163.5" font-family="Helvetica,sans-Serif" font-size="10.00">/home/leixin/Programs</text>
<text text-anchor="start" x="275" y="-152.5" font-family="Helvetica,sans-Serif" font-size="10.00">/HydroCODE/src/finite</text>
<text text-anchor="start" x="275" y="-141.5" font-family="Helvetica,sans-Serif" font-size="10.00">_volume/GRP_solver_2D</text>
<text text-anchor="middle" x="335" y="-130.5" font-family="Helvetica,sans-Serif" font-size="10.00">_EUL_source.c</text>
</a>
</g>
</g>
<!-- Node2 -->
<g id="node2" class="node">
<title>Node2</title>
<g id="a_node2"><a xlink:title=" ">
<polygon fill="white" stroke="#bfbfbf" points="0,-62 0,-81 50,-81 50,-62 0,-62"/>
<text text-anchor="middle" x="25" y="-69" font-family="Helvetica,sans-Serif" font-size="10.00">stdio.h</text>
</a>
</g>
</g>
<!-- Node1&#45;&gt;Node2 -->
<g id="edge1" class="edge">
<title>Node1&#45;&gt;Node2</title>
<path fill="none" stroke="midnightblue" d="M266.87,-136.93C210.43,-126.5 128.52,-109.36 59,-87 57.08,-86.38 55.11,-85.69 53.14,-84.97"/>
<polygon fill="midnightblue" stroke="midnightblue" points="54.06,-81.56 43.47,-81.11 51.46,-88.06 54.06,-81.56"/>
</g>
<!-- Node3 -->
<g id="node3" class="node">
<title>Node3</title>
<g id="a_node3"><a xlink:title=" ">
<polygon fill="white" stroke="#bfbfbf" points="68.5,-62 68.5,-81 119.5,-81 119.5,-62 68.5,-62"/>
<text text-anchor="middle" x="94" y="-69" font-family="Helvetica,sans-Serif" font-size="10.00">math.h</text>
</a>
</g>
</g>
<!-- Node1&#45;&gt;Node3 -->
<g id="edge2" class="edge">
<title>Node1&#45;&gt;Node3</title>
<path fill="none" stroke="midnightblue" d="M266.78,-130.35C226.11,-119.01 173.67,-103.46 128,-87 126.14,-86.33 124.24,-85.61 122.33,-84.87"/>
<polygon fill="midnightblue" stroke="midnightblue" points="123.49,-81.56 112.91,-81.02 120.84,-88.04 123.49,-81.56"/>
</g>
<!-- Node4 -->
<g id="node4" class="node">
<title>Node4</title>
<g id="a_node4"><a xlink:title=" ">
<polygon fill="white" stroke="#bfbfbf" points="137.5,-62 137.5,-81 190.5,-81 190.5,-62 137.5,-62"/>
<text text-anchor="middle" x="164" y="-69" font-family="Helvetica,sans-Serif" font-size="10.00">stdlib.h</text>
</a>
</g>
</g>
<!-- Node1&#45;&gt;Node4 -->
<g id="edge3" class="edge">
<title>Node1&#45;&gt;Node4</title>
<path fill="none" stroke="midnightblue" d="M278.53,-123.4C249.76,-110.62 216.01,-95.62 192.64,-85.23"/>
<polygon fill="midnightblue" stroke="midnightblue" points="193.86,-81.94 183.3,-81.08 191.02,-88.34 193.86,-81.94"/>
</g>
<!-- Node5 -->
<g id="node5" class="node">
<title>Node5</title>
<g id="a_node5"><a xlink:title=" ">
<polygon fill="white" stroke="#bfbfbf" points="209,-62 209,-81 257,-81 257,-62 209,-62"/>
<text text-anchor="middle" x="233" y="-69" font-family="Helvetica,sans-Serif" font-size="10.00">time.h</text>
</a>
</g>
</g>
<!-- Node1&#45;&gt;Node5 -->
<g id="edge4" class="edge">
<title>Node1&#45;&gt;Node5</title>
<path fill="none" stroke="midnightblue" d="M301.32,-123.4C285.32,-111.49 266.75,-97.65 253.01,-87.41"/>
<polygon fill="midnightblue" stroke="midnightblue" points="254.87,-84.43 244.76,-81.26 250.68,-90.04 254.87,-84.43"/>
</g>
<!-- Node6 -->
<g id="node6" class="node">
<title>Node6</title>
<g id="a_node6"><a xlink:title=" ">
<polygon fill="white" stroke="#bfbfbf" points="275,-62 275,-81 337,-81 337,-62 275,-62"/>
<text text-anchor="middle" x="306" y="-69" font-family="Helvetica,sans-Serif" font-size="10.00">stdbool.h</text>
</a>
</g>
</g>
<!-- Node1&#45;&gt;Node6 -->
<g id="edge5" class="edge">
<title>Node1&#45;&gt;Node6</title>
<path fill="none" stroke="midnightblue" d="M325.34,-123.19C321.28,-112.54 316.64,-100.38 312.92,-90.64"/>
<polygon fill="midnightblue" stroke="midnightblue" points="316.16,-89.3 309.32,-81.21 309.62,-91.8 316.16,-89.3"/>
</g>
<!-- Node7 -->
<g id="node7" class="node">
<title>Node7</title>
<g id="a_node7"><a xlink:href="../../da/d1e/var__struc_8h.html" target="_top" xlink:title="This file is the header file of some globally common variables and structural bodies.">
<polygon fill="white" stroke="black" points="453,-0.5 453,-19.5 571,-19.5 571,-0.5 453,-0.5"/>
<text text-anchor="middle" x="512" y="-7.5" font-family="Helvetica,sans-Serif" font-size="10.00">../include/var_struc.h</text>
</a>
</g>
</g>
<!-- Node1&#45;&gt;Node7 -->
<g id="edge6" class="edge">
<title>Node1&#45;&gt;Node7</title>
<path fill="none" stroke="midnightblue" d="M342.92,-123.21C350.61,-102.5 364.2,-73.8 385,-56 404.28,-39.5 430.03,-28.9 453.31,-22.17"/>
<polygon fill="midnightblue" stroke="midnightblue" points="454.37,-25.51 463.1,-19.51 452.53,-18.75 454.37,-25.51"/>
</g>
<!-- Node8 -->
<g id="node8" class="node">
<title>Node8</title>
<g id="a_node8"><a xlink:href="../../d8/d09/_riemann__solver_8h.html" target="_top" xlink:title="This file is the header file of several Riemann solvers and GRP solvers.">
<polygon fill="white" stroke="black" points="393.5,-56.5 393.5,-86.5 500.5,-86.5 500.5,-56.5 393.5,-56.5"/>
<text text-anchor="start" x="401.5" y="-74.5" font-family="Helvetica,sans-Serif" font-size="10.00">../include/Riemann</text>
<text text-anchor="middle" x="447" y="-63.5" font-family="Helvetica,sans-Serif" font-size="10.00">_solver.h</text>
</a>
</g>
</g>
<!-- Node1&#45;&gt;Node8 -->
<g id="edge7" class="edge">
<title>Node1&#45;&gt;Node8</title>
<path fill="none" stroke="midnightblue" d="M371.98,-123.4C386.86,-113.31 403.78,-101.83 417.77,-92.33"/>
<polygon fill="midnightblue" stroke="midnightblue" points="419.75,-95.22 426.06,-86.71 415.82,-89.43 419.75,-95.22"/>
</g>
<!-- Node9 -->
<g id="node9" class="node">
<title>Node9</title>
<g id="a_node9"><a xlink:href="../../dd/df5/flux__calc_8h.html" target="_top" xlink:title="This file is the header file of intermediate processes of finite volume scheme.">
<polygon fill="white" stroke="black" points="519,-62 519,-81 635,-81 635,-62 519,-62"/>
<text text-anchor="middle" x="577" y="-69" font-family="Helvetica,sans-Serif" font-size="10.00">../include/flux_calc.h</text>
</a>
</g>
</g>
<!-- Node1&#45;&gt;Node9 -->
<g id="edge9" class="edge">
<title>Node1&#45;&gt;Node9</title>
<path fill="none" stroke="midnightblue" d="M403.05,-127.13C447.52,-113.16 503.88,-95.46 540.18,-84.06"/>
<polygon fill="midnightblue" stroke="midnightblue" points="541.38,-87.36 549.87,-81.02 539.28,-80.68 541.38,-87.36"/>
</g>
<!-- Node10 -->
<g id="node10" class="node">
<title>Node10</title>
<g id="a_node10"><a xlink:href="../../d6/d6f/inter__process_8h.html" target="_top" xlink:title="This file is the header file of intermediate processes of finite volume scheme.">
<polygon fill="white" stroke="black" points="653,-62 653,-81 791,-81 791,-62 653,-62"/>
<text text-anchor="middle" x="722" y="-69" font-family="Helvetica,sans-Serif" font-size="10.00">../include/inter_process.h</text>
</a>
</g>
</g>
<!-- Node1&#45;&gt;Node10 -->
<g id="edge11" class="edge">
<title>Node1&#45;&gt;Node10</title>
<path fill="none" stroke="midnightblue" d="M403.3,-135.09C478.94,-120.23 599.32,-96.59 668.45,-83.02"/>
<polygon fill="midnightblue" stroke="midnightblue" points="669.54,-86.37 678.68,-81.01 668.2,-79.5 669.54,-86.37"/>
</g>
<!-- Node11 -->
<g id="node11" class="node">
<title>Node11</title>
<g id="a_node11"><a xlink:href="../../d5/da5/tools_8h.html" target="_top" xlink:title="This file is the header file of several independent tool functions.">
<polygon fill="white" stroke="black" points="809.5,-62 809.5,-81 906.5,-81 906.5,-62 809.5,-62"/>
<text text-anchor="middle" x="858" y="-69" font-family="Helvetica,sans-Serif" font-size="10.00">../include/tools.h</text>
</a>
</g>
</g>
<!-- Node1&#45;&gt;Node11 -->
<g id="edge13" class="edge">
<title>Node1&#45;&gt;Node11</title>
<path fill="none" stroke="midnightblue" d="M403.15,-141.93C494.12,-132.61 660.01,-113.67 800,-87 805.42,-85.97 811.08,-84.74 816.66,-83.44"/>
<polygon fill="midnightblue" stroke="midnightblue" points="817.64,-86.81 826.54,-81.06 815.99,-80 817.64,-86.81"/>
</g>
<!-- Node8&#45;&gt;Node7 -->
<g id="edge8" class="edge">
<title>Node8&#45;&gt;Node7</title>
<path fill="none" stroke="midnightblue" d="M462.4,-56.4C472.24,-47.4 484.99,-35.72 495.11,-26.47"/>
<polygon fill="midnightblue" stroke="midnightblue" points="497.53,-28.99 502.54,-19.66 492.8,-23.83 497.53,-28.99"/>
</g>
<!-- Node9&#45;&gt;Node7 -->
<g id="edge10" class="edge">
<title>Node9&#45;&gt;Node7</title>
<path fill="none" stroke="midnightblue" d="M567.69,-61.98C557.55,-52.7 541.14,-37.67 528.75,-26.33"/>
<polygon fill="midnightblue" stroke="midnightblue" points="531.04,-23.68 521.3,-19.51 526.31,-28.84 531.04,-23.68"/>
</g>
<!-- Node10&#45;&gt;Node7 -->
<g id="edge12" class="edge">
<title>Node10&#45;&gt;Node7</title>
<path fill="none" stroke="midnightblue" d="M691.91,-61.98C655.11,-51.55 592.69,-33.86 551.91,-22.31"/>
<polygon fill="midnightblue" stroke="midnightblue" points="552.61,-18.87 542.03,-19.51 550.7,-25.6 552.61,-18.87"/>
</g>
</g>
</svg>
