<?xml version="1.0" encoding="UTF-8" standalone="no"?>
<!DOCTYPE svg PUBLIC "-//W3C//DTD SVG 1.1//EN"
 "http://www.w3.org/Graphics/SVG/1.1/DTD/svg11.dtd">
<!-- Generated by graphviz version 6.0.1 (0)
 -->
<!-- Title: src~/finite_volume/grp_solver_radial_LAG_source.c Pages: 1 -->
<svg width="1236pt" height="229pt"
 viewBox="0.00 0.00 1236.00 229.00" xmlns="http://www.w3.org/2000/svg" xmlns:xlink="http://www.w3.org/1999/xlink">
<g id="graph0" class="graph" transform="scale(1 1) rotate(0) translate(4 225)">
<title>src~/finite_volume/grp_solver_radial_LAG_source.c</title>
<polygon fill="white" stroke="none" points="-4,4 -4,-225 1232,-225 1232,4 -4,4"/>
<!-- Node1 -->
<g id="node1" class="node">
<title>Node1</title>
<g id="a_node1"><a xlink:title="This is a Lagrangian GRP scheme to solve radial(cylindrically) symmetric compressible fluid flows.">
<polygon fill="#bfbfbf" stroke="black" points="419.5,-179.5 419.5,-220.5 548.5,-220.5 548.5,-179.5 419.5,-179.5"/>
<text text-anchor="start" x="427.5" y="-208.5" font-family="Helvetica,sans-Serif" font-size="10.00">src~/finite_volume</text>
<text text-anchor="start" x="427.5" y="-197.5" font-family="Helvetica,sans-Serif" font-size="10.00">/grp_solver_radial_LAG</text>
<text text-anchor="middle" x="484" y="-186.5" font-family="Helvetica,sans-Serif" font-size="10.00">_source.c</text>
</a>
</g>
</g>
<!-- Node2 -->
<g id="node2" class="node">
<title>Node2</title>
<g id="a_node2"><a xlink:title=" ">
<polygon fill="white" stroke="#bfbfbf" points="0,-118 0,-137 50,-137 50,-118 0,-118"/>
<text text-anchor="middle" x="25" y="-125" font-family="Helvetica,sans-Serif" font-size="10.00">stdio.h</text>
</a>
</g>
</g>
<!-- Node1&#45;&gt;Node2 -->
<g id="edge1" class="edge">
<title>Node1&#45;&gt;Node2</title>
<path fill="none" stroke="midnightblue" d="M419.2,-195.94C334.92,-190.72 183.73,-177.12 59,-143 56.7,-142.37 54.36,-141.62 52.02,-140.79"/>
<polygon fill="midnightblue" stroke="midnightblue" points="53.26,-137.52 42.67,-137.11 50.69,-144.03 53.26,-137.52"/>
</g>
<!-- Node3 -->
<g id="node3" class="node">
<title>Node3</title>
<g id="a_node3"><a xlink:title=" ">
<polygon fill="white" stroke="#bfbfbf" points="68.5,-118 68.5,-137 119.5,-137 119.5,-118 68.5,-118"/>
<text text-anchor="middle" x="94" y="-125" font-family="Helvetica,sans-Serif" font-size="10.00">math.h</text>
</a>
</g>
</g>
<!-- Node1&#45;&gt;Node3 -->
<g id="edge2" class="edge">
<title>Node1&#45;&gt;Node3</title>
<path fill="none" stroke="midnightblue" d="M419.3,-193.67C347.16,-186.61 227.53,-171.57 128,-143 125.71,-142.34 123.37,-141.57 121.04,-140.73"/>
<polygon fill="midnightblue" stroke="midnightblue" points="122.28,-137.46 111.7,-137.02 119.7,-143.97 122.28,-137.46"/>
</g>
<!-- Node4 -->
<g id="node4" class="node">
<title>Node4</title>
<g id="a_node4"><a xlink:title=" ">
<polygon fill="white" stroke="#bfbfbf" points="137.5,-118 137.5,-137 190.5,-137 190.5,-118 137.5,-118"/>
<text text-anchor="middle" x="164" y="-125" font-family="Helvetica,sans-Serif" font-size="10.00">string.h</text>
</a>
</g>
</g>
<!-- Node1&#45;&gt;Node4 -->
<g id="edge3" class="edge">
<title>Node1&#45;&gt;Node4</title>
<path fill="none" stroke="midnightblue" d="M419.44,-190.07C361.09,-181.11 273.22,-165.42 199,-143 196.72,-142.31 194.38,-141.52 192.04,-140.68"/>
<polygon fill="midnightblue" stroke="midnightblue" points="193.23,-137.39 182.64,-137.03 190.69,-143.91 193.23,-137.39"/>
</g>
<!-- Node5 -->
<g id="node5" class="node">
<title>Node5</title>
<g id="a_node5"><a xlink:title=" ">
<polygon fill="white" stroke="#bfbfbf" points="208.5,-118 208.5,-137 261.5,-137 261.5,-118 208.5,-118"/>
<text text-anchor="middle" x="235" y="-125" font-family="Helvetica,sans-Serif" font-size="10.00">stdlib.h</text>
</a>
</g>
</g>
<!-- Node1&#45;&gt;Node5 -->
<g id="edge4" class="edge">
<title>Node1&#45;&gt;Node5</title>
<path fill="none" stroke="midnightblue" d="M419.07,-184.18C376.55,-173.92 320,-159.24 271,-143 268.87,-142.29 266.68,-141.53 264.49,-140.72"/>
<polygon fill="midnightblue" stroke="midnightblue" points="265.61,-137.4 255.02,-137.08 263.09,-143.94 265.61,-137.4"/>
</g>
<!-- Node6 -->
<g id="node6" class="node">
<title>Node6</title>
<g id="a_node6"><a xlink:title=" ">
<polygon fill="white" stroke="#bfbfbf" points="280,-118 280,-137 328,-137 328,-118 280,-118"/>
<text text-anchor="middle" x="304" y="-125" font-family="Helvetica,sans-Serif" font-size="10.00">time.h</text>
</a>
</g>
</g>
<!-- Node1&#45;&gt;Node6 -->
<g id="edge5" class="edge">
<title>Node1&#45;&gt;Node6</title>
<path fill="none" stroke="midnightblue" d="M430.68,-179.42C402.66,-168.95 367.83,-155.64 337,-143 335.59,-142.42 334.15,-141.82 332.69,-141.21"/>
<polygon fill="midnightblue" stroke="midnightblue" points="333.7,-137.83 323.13,-137.1 330.93,-144.26 333.7,-137.83"/>
</g>
<!-- Node7 -->
<g id="node7" class="node">
<title>Node7</title>
<g id="a_node7"><a xlink:title=" ">
<polygon fill="white" stroke="#bfbfbf" points="346,-118 346,-137 408,-137 408,-118 346,-118"/>
<text text-anchor="middle" x="377" y="-125" font-family="Helvetica,sans-Serif" font-size="10.00">stdbool.h</text>
</a>
</g>
</g>
<!-- Node1&#45;&gt;Node7 -->
<g id="edge6" class="edge">
<title>Node1&#45;&gt;Node7</title>
<path fill="none" stroke="midnightblue" d="M454.19,-179.36C436.62,-167.78 414.77,-153.39 398.81,-142.87"/>
<polygon fill="midnightblue" stroke="midnightblue" points="400.44,-139.75 390.16,-137.17 396.59,-145.6 400.44,-139.75"/>
</g>
<!-- Node8 -->
<g id="node8" class="node">
<title>Node8</title>
<g id="a_node8"><a xlink:href="../../d9/d9a/mem_8h.html" target="_top" xlink:title="This file is a header file of source codes in the book &#39;C Interfaces and Implementations&#39;.">
<polygon fill="white" stroke="black" points="426.5,-118 426.5,-137 541.5,-137 541.5,-118 426.5,-118"/>
<text text-anchor="middle" x="484" y="-125" font-family="Helvetica,sans-Serif" font-size="10.00">../include_cii/mem.h</text>
</a>
</g>
</g>
<!-- Node1&#45;&gt;Node8 -->
<g id="edge7" class="edge">
<title>Node1&#45;&gt;Node8</title>
<path fill="none" stroke="midnightblue" d="M484,-179.36C484,-169.3 484,-157.1 484,-147.18"/>
<polygon fill="midnightblue" stroke="midnightblue" points="487.5,-147.17 484,-137.17 480.5,-147.17 487.5,-147.17"/>
</g>
<!-- Node11 -->
<g id="node11" class="node">
<title>Node11</title>
<g id="a_node11"><a xlink:href="../../da/d1e/var__struc_8h.html" target="_top" xlink:title="This file is the header file of some globally common variables and structural bodies.">
<polygon fill="white" stroke="black" points="961,-56.5 961,-75.5 1079,-75.5 1079,-56.5 961,-56.5"/>
<text text-anchor="middle" x="1020" y="-63.5" font-family="Helvetica,sans-Serif" font-size="10.00">../include/var_struc.h</text>
</a>
</g>
</g>
<!-- Node1&#45;&gt;Node11 -->
<g id="edge10" class="edge">
<title>Node1&#45;&gt;Node11</title>
<path fill="none" stroke="midnightblue" d="M506.95,-179.41C536.37,-154.38 584.2,-114.02 589,-112 652.51,-85.3 845.75,-73.77 950.59,-69.37"/>
<polygon fill="midnightblue" stroke="midnightblue" points="950.91,-72.86 960.76,-68.96 950.62,-65.87 950.91,-72.86"/>
</g>
<!-- Node12 -->
<g id="node12" class="node">
<title>Node12</title>
<g id="a_node12"><a xlink:href="../../d5/da5/tools_8h.html" target="_top" xlink:title="This file is the header file of several independent tool functions.">
<polygon fill="white" stroke="black" points="598.5,-118 598.5,-137 695.5,-137 695.5,-118 598.5,-118"/>
<text text-anchor="middle" x="647" y="-125" font-family="Helvetica,sans-Serif" font-size="10.00">../include/tools.h</text>
</a>
</g>
</g>
<!-- Node1&#45;&gt;Node12 -->
<g id="edge11" class="edge">
<title>Node1&#45;&gt;Node12</title>
<path fill="none" stroke="midnightblue" d="M529.4,-179.36C557.55,-167.19 592.9,-151.9 617.46,-141.28"/>
<polygon fill="midnightblue" stroke="midnightblue" points="619.16,-144.36 626.95,-137.17 616.38,-137.93 619.16,-144.36"/>
</g>
<!-- Node13 -->
<g id="node13" class="node">
<title>Node13</title>
<g id="a_node13"><a xlink:href="../../db/db8/file__io_8h.html" target="_top" xlink:title="This file is the header file that controls data input and output.">
<polygon fill="white" stroke="black" points="713.5,-118 713.5,-137 816.5,-137 816.5,-118 713.5,-118"/>
<text text-anchor="middle" x="765" y="-125" font-family="Helvetica,sans-Serif" font-size="10.00">../include/file_io.h</text>
</a>
</g>
</g>
<!-- Node1&#45;&gt;Node13 -->
<g id="edge12" class="edge">
<title>Node1&#45;&gt;Node13</title>
<path fill="none" stroke="midnightblue" d="M548.82,-182.74C601.67,-169.48 674.89,-151.11 721.09,-139.52"/>
<polygon fill="midnightblue" stroke="midnightblue" points="721.96,-142.91 730.81,-137.08 720.26,-136.12 721.96,-142.91"/>
</g>
<!-- Node14 -->
<g id="node14" class="node">
<title>Node14</title>
<g id="a_node14"><a xlink:href="../../d1/d2c/meshing_8h.html" target="_top" xlink:title="This file is the header file of unstructured grid processing program.">
<polygon fill="white" stroke="black" points="834.5,-118 834.5,-137 949.5,-137 949.5,-118 834.5,-118"/>
<text text-anchor="middle" x="892" y="-125" font-family="Helvetica,sans-Serif" font-size="10.00">../include/meshing.h</text>
</a>
</g>
</g>
<!-- Node1&#45;&gt;Node14 -->
<g id="edge13" class="edge">
<title>Node1&#45;&gt;Node14</title>
<path fill="none" stroke="midnightblue" d="M548.59,-189.38C617.3,-178.92 729.08,-161.24 825,-143 831.21,-141.82 837.74,-140.5 844.17,-139.16"/>
<polygon fill="midnightblue" stroke="midnightblue" points="845.1,-142.54 854.15,-137.04 843.65,-135.69 845.1,-142.54"/>
</g>
<!-- Node15 -->
<g id="node15" class="node">
<title>Node15</title>
<g id="a_node15"><a xlink:href="../../df/ded/riemann__solver_8h.html" target="_top" xlink:title="This file is the header file of several Riemann solvers and GRP solvers.">
<polygon fill="white" stroke="black" points="968,-112.5 968,-142.5 1072,-142.5 1072,-112.5 968,-112.5"/>
<text text-anchor="start" x="976" y="-130.5" font-family="Helvetica,sans-Serif" font-size="10.00">../include/riemann</text>
<text text-anchor="middle" x="1020" y="-119.5" font-family="Helvetica,sans-Serif" font-size="10.00">_solver.h</text>
</a>
</g>
</g>
<!-- Node1&#45;&gt;Node15 -->
<g id="edge14" class="edge">
<title>Node1&#45;&gt;Node15</title>
<path fill="none" stroke="midnightblue" d="M548.74,-193.67C640.31,-185.61 812.72,-168.49 958,-143 958.1,-142.98 958.2,-142.96 958.31,-142.95"/>
<polygon fill="midnightblue" stroke="midnightblue" points="958.82,-146.41 967.99,-141.11 957.51,-139.53 958.82,-146.41"/>
</g>
<!-- Node16 -->
<g id="node16" class="node">
<title>Node16</title>
<g id="a_node16"><a xlink:href="../../d6/d6f/inter__process_8h.html" target="_top" xlink:title="This file is the header file of intermediate processes of finite volume scheme.">
<polygon fill="white" stroke="black" points="1090,-118 1090,-137 1228,-137 1228,-118 1090,-118"/>
<text text-anchor="middle" x="1159" y="-125" font-family="Helvetica,sans-Serif" font-size="10.00">../include/inter_process.h</text>
</a>
</g>
</g>
<!-- Node1&#45;&gt;Node16 -->
<g id="edge16" class="edge">
<title>Node1&#45;&gt;Node16</title>
<path fill="none" stroke="midnightblue" d="M548.71,-194.85C658.52,-187.39 888.2,-169.91 1081,-143 1089.43,-141.82 1098.34,-140.37 1107,-138.84"/>
<polygon fill="midnightblue" stroke="midnightblue" points="1107.8,-142.25 1117.01,-137.02 1106.55,-135.37 1107.8,-142.25"/>
</g>
<!-- Node9 -->
<g id="node9" class="node">
<title>Node9</title>
<g id="a_node9"><a xlink:href="../../dc/d65/except_8h.html" target="_top" xlink:title="This file is a header file of source codes in the book &#39;C Interfaces and Implementations&#39;.">
<polygon fill="white" stroke="black" points="454.5,-56.5 454.5,-75.5 513.5,-75.5 513.5,-56.5 454.5,-56.5"/>
<text text-anchor="middle" x="484" y="-63.5" font-family="Helvetica,sans-Serif" font-size="10.00">except.h</text>
</a>
</g>
</g>
<!-- Node8&#45;&gt;Node9 -->
<g id="edge8" class="edge">
<title>Node8&#45;&gt;Node9</title>
<path fill="none" stroke="midnightblue" d="M484,-117.98C484,-109.58 484,-96.48 484,-85.66"/>
<polygon fill="midnightblue" stroke="midnightblue" points="487.5,-85.51 484,-75.51 480.5,-85.51 487.5,-85.51"/>
</g>
<!-- Node10 -->
<g id="node10" class="node">
<title>Node10</title>
<g id="a_node10"><a xlink:title=" ">
<polygon fill="white" stroke="#bfbfbf" points="454.5,-0.5 454.5,-19.5 513.5,-19.5 513.5,-0.5 454.5,-0.5"/>
<text text-anchor="middle" x="484" y="-7.5" font-family="Helvetica,sans-Serif" font-size="10.00">setjmp.h</text>
</a>
</g>
</g>
<!-- Node9&#45;&gt;Node10 -->
<g id="edge9" class="edge">
<title>Node9&#45;&gt;Node10</title>
<path fill="none" stroke="midnightblue" d="M484,-56.08C484,-49.01 484,-38.86 484,-29.99"/>
<polygon fill="midnightblue" stroke="midnightblue" points="487.5,-29.75 484,-19.75 480.5,-29.75 487.5,-29.75"/>
</g>
<!-- Node15&#45;&gt;Node11 -->
<g id="edge15" class="edge">
<title>Node15&#45;&gt;Node11</title>
<path fill="none" stroke="midnightblue" d="M1020,-112.4C1020,-104.47 1020,-94.46 1020,-85.86"/>
<polygon fill="midnightblue" stroke="midnightblue" points="1023.5,-85.66 1020,-75.66 1016.5,-85.66 1023.5,-85.66"/>
</g>
<!-- Node16&#45;&gt;Node11 -->
<g id="edge17" class="edge">
<title>Node16&#45;&gt;Node11</title>
<path fill="none" stroke="midnightblue" d="M1139.08,-117.98C1115.55,-107.9 1076.19,-91.05 1049.21,-79.5"/>
<polygon fill="midnightblue" stroke="midnightblue" points="1050.45,-76.23 1039.88,-75.51 1047.69,-82.66 1050.45,-76.23"/>
</g>
</g>
</svg>
