<?xml version="1.0" encoding="UTF-8" standalone="no"?>
<!DOCTYPE svg PUBLIC "-//W3C//DTD SVG 1.1//EN"
 "http://www.w3.org/Graphics/SVG/1.1/DTD/svg11.dtd">
<!-- Generated by graphviz version 6.0.1 (0)
 -->
<!-- Title: src~/include/tools.h Pages: 1 -->
<svg width="594pt" height="106pt"
 viewBox="0.00 0.00 594.00 106.00" xmlns="http://www.w3.org/2000/svg" xmlns:xlink="http://www.w3.org/1999/xlink">
<g id="graph0" class="graph" transform="scale(1 1) rotate(0) translate(4 102)">
<title>src~/include/tools.h</title>
<polygon fill="white" stroke="none" points="-4,4 -4,-102 590,-102 590,4 -4,4"/>
<!-- Node1 -->
<g id="node1" class="node">
<title>Node1</title>
<g id="a_node1"><a xlink:title="This file is the header file of several independent tool functions.">
<polygon fill="#bfbfbf" stroke="black" points="235,-78.5 235,-97.5 348,-97.5 348,-78.5 235,-78.5"/>
<text text-anchor="middle" x="291.5" y="-85.5" font-family="Helvetica,sans-Serif" font-size="10.00">src~/include/tools.h</text>
</a>
</g>
</g>
<!-- Node2 -->
<g id="node2" class="node">
<title>Node2</title>
<g id="a_node2"><a xlink:href="../../d4/de5/io__control_8c.html" target="_top" xlink:title="This is a set of common functions which control the input/output data.">
<polygon fill="white" stroke="black" points="0,-11.5 0,-30.5 131,-30.5 131,-11.5 0,-11.5"/>
<text text-anchor="middle" x="65.5" y="-18.5" font-family="Helvetica,sans-Serif" font-size="10.00">src~/file_io/io_control.c</text>
</a>
</g>
</g>
<!-- Node1&#45;&gt;Node2 -->
<g id="edge1" class="edge">
<title>Node1&#45;&gt;Node2</title>
<path fill="none" stroke="midnightblue" d="M251.83,-75.59C207.12,-62.73 135.45,-42.12 95.28,-30.56"/>
<polygon fill="midnightblue" stroke="midnightblue" points="250.91,-78.97 261.49,-78.37 252.85,-72.24 250.91,-78.97"/>
</g>
<!-- Node3 -->
<g id="node3" class="node">
<title>Node3</title>
<g id="a_node3"><a xlink:href="../../d5/d63/grp__solver__radial___l_a_g__source_8c.html" target="_top" xlink:title="This is a Lagrangian GRP scheme to solve radial(cylindrically) symmetric compressible fluid flows.">
<polygon fill="white" stroke="black" points="149,-0.5 149,-41.5 278,-41.5 278,-0.5 149,-0.5"/>
<text text-anchor="start" x="157" y="-29.5" font-family="Helvetica,sans-Serif" font-size="10.00">src~/finite_volume</text>
<text text-anchor="start" x="157" y="-18.5" font-family="Helvetica,sans-Serif" font-size="10.00">/grp_solver_radial_LAG</text>
<text text-anchor="middle" x="213.5" y="-7.5" font-family="Helvetica,sans-Serif" font-size="10.00">_source.c</text>
</a>
</g>
</g>
<!-- Node1&#45;&gt;Node3 -->
<g id="edge2" class="edge">
<title>Node1&#45;&gt;Node3</title>
<path fill="none" stroke="midnightblue" d="M273.05,-71.62C262.25,-62.63 248.51,-51.18 236.95,-41.54"/>
<polygon fill="midnightblue" stroke="midnightblue" points="271.06,-74.52 280.98,-78.23 275.54,-69.14 271.06,-74.52"/>
</g>
<!-- Node4 -->
<g id="node4" class="node">
<title>Node4</title>
<g id="a_node4"><a xlink:href="../../d6/df2/slope___v_i_p__limiter__radial_8c.html" target="_top" xlink:title="This is a function of the VIP/minmod slope limiter of the fluid velocity in radially symmetric case.">
<polygon fill="white" stroke="black" points="296.5,-6 296.5,-36 442.5,-36 442.5,-6 296.5,-6"/>
<text text-anchor="start" x="304.5" y="-24" font-family="Helvetica,sans-Serif" font-size="10.00">src~/inter_process</text>
<text text-anchor="middle" x="369.5" y="-13" font-family="Helvetica,sans-Serif" font-size="10.00">/slope_VIP_limiter_radial.c</text>
</a>
</g>
</g>
<!-- Node1&#45;&gt;Node4 -->
<g id="edge3" class="edge">
<title>Node1&#45;&gt;Node4</title>
<path fill="none" stroke="midnightblue" d="M309.82,-71.74C322.76,-60.95 339.98,-46.6 352.59,-36.09"/>
<polygon fill="midnightblue" stroke="midnightblue" points="307.46,-69.14 302.02,-78.23 311.94,-74.52 307.46,-69.14"/>
</g>
<!-- Node5 -->
<g id="node5" class="node">
<title>Node5</title>
<g id="a_node5"><a xlink:href="../../d9/d8f/slope__limiter__radial_8c.html" target="_top" xlink:title="This is a function of the minmod slope limiter in radially symmetric case.">
<polygon fill="white" stroke="black" points="461,-6 461,-36 586,-36 586,-6 461,-6"/>
<text text-anchor="start" x="469" y="-24" font-family="Helvetica,sans-Serif" font-size="10.00">src~/inter_process</text>
<text text-anchor="middle" x="523.5" y="-13" font-family="Helvetica,sans-Serif" font-size="10.00">/slope_limiter_radial.c</text>
</a>
</g>
</g>
<!-- Node1&#45;&gt;Node5 -->
<g id="edge4" class="edge">
<title>Node1&#45;&gt;Node5</title>
<path fill="none" stroke="midnightblue" d="M332.09,-75.63C371.42,-64.61 431.17,-47.87 473.43,-36.03"/>
<polygon fill="midnightblue" stroke="midnightblue" points="330.99,-72.3 322.31,-78.37 332.88,-79.04 330.99,-72.3"/>
</g>
</g>
</svg>
