<?xml version="1.0" encoding="UTF-8" standalone="no"?>
<!DOCTYPE svg PUBLIC "-//W3C//DTD SVG 1.1//EN"
 "http://www.w3.org/Graphics/SVG/1.1/DTD/svg11.dtd">
<!-- Generated by graphviz version 5.0.0 (0)
 -->
<!-- Title: /run/media/leixin/软件盘/雷昕整理后的重要文件/程序/My&#45;CFD/HydroCODE/src/file_io/_1D_file_out.c Pages: 1 -->
<svg width="594pt" height="117pt"
 viewBox="0.00 0.00 594.00 117.00" xmlns="http://www.w3.org/2000/svg" xmlns:xlink="http://www.w3.org/1999/xlink">
<g id="graph0" class="graph" transform="scale(1 1) rotate(0) translate(4 113)">
<title>/run/media/leixin/软件盘/雷昕整理后的重要文件/程序/My&#45;CFD/HydroCODE/src/file_io/_1D_file_out.c</title>
<polygon fill="white" stroke="transparent" points="-4,4 -4,-113 590,-113 590,4 -4,4"/>
<!-- Node1 -->
<g id="node1" class="node">
<title>Node1</title>
<g id="a_node1"><a xlink:title="This is a set of functions which control the readout of one&#45;dimensional data.">
<polygon fill="#bfbfbf" stroke="black" points="156.5,-56.5 156.5,-108.5 314.5,-108.5 314.5,-56.5 156.5,-56.5"/>
<text text-anchor="start" x="164.5" y="-96.5" font-family="Helvetica,sans-Serif" font-size="10.00">/run/media/leixin/软件盘</text>
<text text-anchor="start" x="164.5" y="-85.5" font-family="Helvetica,sans-Serif" font-size="10.00">/雷昕整理后的重要文件</text>
<text text-anchor="start" x="164.5" y="-74.5" font-family="Helvetica,sans-Serif" font-size="10.00">/程序/My&#45;CFD/HydroCODE/src</text>
<text text-anchor="middle" x="235.5" y="-63.5" font-family="Helvetica,sans-Serif" font-size="10.00">/file_io/_1D_file_out.c</text>
</a>
</g>
</g>
<!-- Node2 -->
<g id="node2" class="node">
<title>Node2</title>
<g id="a_node2"><a xlink:title=" ">
<polygon fill="white" stroke="#bfbfbf" points="0,-0.5 0,-19.5 51,-19.5 51,-0.5 0,-0.5"/>
<text text-anchor="middle" x="25.5" y="-7.5" font-family="Helvetica,sans-Serif" font-size="10.00">math.h</text>
</a>
</g>
</g>
<!-- Node1&#45;&gt;Node2 -->
<g id="edge1" class="edge">
<title>Node1&#45;&gt;Node2</title>
<path fill="none" stroke="midnightblue" d="M160.87,-56.45C126.64,-44.95 87.7,-31.88 60.4,-22.72"/>
<polygon fill="midnightblue" stroke="midnightblue" points="61.49,-19.39 50.9,-19.53 59.27,-26.03 61.49,-19.39"/>
</g>
<!-- Node3 -->
<g id="node3" class="node">
<title>Node3</title>
<g id="a_node3"><a xlink:title=" ">
<polygon fill="white" stroke="#bfbfbf" points="69,-0.5 69,-19.5 122,-19.5 122,-0.5 69,-0.5"/>
<text text-anchor="middle" x="95.5" y="-7.5" font-family="Helvetica,sans-Serif" font-size="10.00">string.h</text>
</a>
</g>
</g>
<!-- Node1&#45;&gt;Node3 -->
<g id="edge2" class="edge">
<title>Node1&#45;&gt;Node3</title>
<path fill="none" stroke="midnightblue" d="M185.75,-56.45C164.13,-45.56 139.69,-33.25 121.7,-24.2"/>
<polygon fill="midnightblue" stroke="midnightblue" points="122.94,-20.9 112.43,-19.53 119.79,-27.15 122.94,-20.9"/>
</g>
<!-- Node4 -->
<g id="node4" class="node">
<title>Node4</title>
<g id="a_node4"><a xlink:title=" ">
<polygon fill="white" stroke="#bfbfbf" points="140.5,-0.5 140.5,-19.5 190.5,-19.5 190.5,-0.5 140.5,-0.5"/>
<text text-anchor="middle" x="165.5" y="-7.5" font-family="Helvetica,sans-Serif" font-size="10.00">stdio.h</text>
</a>
</g>
</g>
<!-- Node1&#45;&gt;Node4 -->
<g id="edge3" class="edge">
<title>Node1&#45;&gt;Node4</title>
<path fill="none" stroke="midnightblue" d="M210.62,-56.45C200.88,-46.63 189.98,-35.66 181.34,-26.95"/>
<polygon fill="midnightblue" stroke="midnightblue" points="183.66,-24.33 174.13,-19.7 178.7,-29.26 183.66,-24.33"/>
</g>
<!-- Node5 -->
<g id="node5" class="node">
<title>Node5</title>
<g id="a_node5"><a xlink:title=" ">
<polygon fill="white" stroke="#bfbfbf" points="209,-0.5 209,-19.5 262,-19.5 262,-0.5 209,-0.5"/>
<text text-anchor="middle" x="235.5" y="-7.5" font-family="Helvetica,sans-Serif" font-size="10.00">stdlib.h</text>
</a>
</g>
</g>
<!-- Node1&#45;&gt;Node5 -->
<g id="edge4" class="edge">
<title>Node1&#45;&gt;Node5</title>
<path fill="none" stroke="midnightblue" d="M235.5,-56.45C235.5,-47.73 235.5,-38.1 235.5,-29.96"/>
<polygon fill="midnightblue" stroke="midnightblue" points="239,-29.7 235.5,-19.7 232,-29.7 239,-29.7"/>
</g>
<!-- Node6 -->
<g id="node6" class="node">
<title>Node6</title>
<g id="a_node6"><a xlink:title=" ">
<polygon fill="white" stroke="#bfbfbf" points="280.5,-0.5 280.5,-19.5 328.5,-19.5 328.5,-0.5 280.5,-0.5"/>
<text text-anchor="middle" x="304.5" y="-7.5" font-family="Helvetica,sans-Serif" font-size="10.00">time.h</text>
</a>
</g>
</g>
<!-- Node1&#45;&gt;Node6 -->
<g id="edge5" class="edge">
<title>Node1&#45;&gt;Node6</title>
<path fill="none" stroke="midnightblue" d="M260.02,-56.45C269.63,-46.63 280.37,-35.66 288.89,-26.95"/>
<polygon fill="midnightblue" stroke="midnightblue" points="291.5,-29.29 295.99,-19.7 286.49,-24.39 291.5,-29.29"/>
</g>
<!-- Node7 -->
<g id="node7" class="node">
<title>Node7</title>
<g id="a_node7"><a xlink:href="../../da/d1e/var__struc_8h.html" target="_top" xlink:title="This file is the header file of some globally common variables and structural bodies.">
<polygon fill="white" stroke="black" points="346.5,-0.5 346.5,-19.5 464.5,-19.5 464.5,-0.5 346.5,-0.5"/>
<text text-anchor="middle" x="405.5" y="-7.5" font-family="Helvetica,sans-Serif" font-size="10.00">../include/var_struc.h</text>
</a>
</g>
</g>
<!-- Node1&#45;&gt;Node7 -->
<g id="edge6" class="edge">
<title>Node1&#45;&gt;Node7</title>
<path fill="none" stroke="midnightblue" d="M295.91,-56.45C322.89,-45.26 353.49,-32.57 375.48,-23.45"/>
<polygon fill="midnightblue" stroke="midnightblue" points="377.04,-26.59 384.94,-19.53 374.36,-20.12 377.04,-26.59"/>
</g>
<!-- Node8 -->
<g id="node8" class="node">
<title>Node8</title>
<g id="a_node8"><a xlink:href="../../db/db8/file__io_8h.html" target="_top" xlink:title="This file is the header file that controls data input and output.">
<polygon fill="white" stroke="black" points="483,-0.5 483,-19.5 586,-19.5 586,-0.5 483,-0.5"/>
<text text-anchor="middle" x="534.5" y="-7.5" font-family="Helvetica,sans-Serif" font-size="10.00">../include/file_io.h</text>
</a>
</g>
</g>
<!-- Node1&#45;&gt;Node8 -->
<g id="edge7" class="edge">
<title>Node1&#45;&gt;Node8</title>
<path fill="none" stroke="midnightblue" d="M314.84,-62.79C370.17,-49.75 442.08,-32.79 488.27,-21.9"/>
<polygon fill="midnightblue" stroke="midnightblue" points="489.36,-25.24 498.29,-19.54 487.76,-18.43 489.36,-25.24"/>
</g>
</g>
</svg>
