<?xml version="1.0" encoding="UTF-8" standalone="no"?>
<!DOCTYPE svg PUBLIC "-//W3C//DTD SVG 1.1//EN"
 "http://www.w3.org/Graphics/SVG/1.1/DTD/svg11.dtd">
<!-- Generated by graphviz version 6.0.1 (0)
 -->
<!-- Title: flu_var_read Pages: 1 -->
<svg width="401pt" height="66pt"
 viewBox="0.00 0.00 401.00 66.00" xmlns="http://www.w3.org/2000/svg" xmlns:xlink="http://www.w3.org/1999/xlink">
<g id="graph0" class="graph" transform="scale(1 1) rotate(0) translate(4 62)">
<title>flu_var_read</title>
<polygon fill="white" stroke="none" points="-4,4 -4,-62 397,-62 397,4 -4,4"/>
<!-- Node1 -->
<g id="node1" class="node">
<title>Node1</title>
<g id="a_node1"><a xlink:title="This function reads the initial data file to generate the initial data.">
<polygon fill="#bfbfbf" stroke="black" points="316,-19.5 316,-38.5 393,-38.5 393,-19.5 316,-19.5"/>
<text text-anchor="middle" x="354.5" y="-26.5" font-family="Helvetica,sans-Serif" font-size="10.00">flu_var_read</text>
</a>
</g>
</g>
<!-- Node2 -->
<g id="node2" class="node">
<title>Node2</title>
<g id="a_node2"><a xlink:href="../../d9/d8a/file__2_d__in_8c.html#ac63cea838899cb993adfbfdd17d33f05" target="_top" xlink:title="This function count out and read in 2&#45;D data file with (line*column) data and initialize pointer to t...">
<polygon fill="white" stroke="black" points="199.5,-38.5 199.5,-57.5 270.5,-57.5 270.5,-38.5 199.5,-38.5"/>
<text text-anchor="middle" x="235" y="-45.5" font-family="Helvetica,sans-Serif" font-size="10.00">flu_var_init</text>
</a>
</g>
</g>
<!-- Node1&#45;&gt;Node2 -->
<g id="edge1" class="edge">
<title>Node1&#45;&gt;Node2</title>
<path fill="none" stroke="midnightblue" d="M305.88,-36.7C294.13,-38.6 281.76,-40.6 270.75,-42.38"/>
<polygon fill="midnightblue" stroke="midnightblue" points="306.69,-40.12 316,-35.06 305.57,-33.21 306.69,-40.12"/>
</g>
<!-- Node3 -->
<g id="node3" class="node">
<title>Node3</title>
<g id="a_node3"><a xlink:href="../../d4/de5/io__control_8c.html#afc5a75c19ae16af5227567eb1dde0ef1" target="_top" xlink:title="This function reads the time data file for plotting &#39;time_plot.dat&#39; and initialize tha array &#39;time_pl...">
<polygon fill="white" stroke="black" points="190,-0.5 190,-19.5 280,-19.5 280,-0.5 190,-0.5"/>
<text text-anchor="middle" x="235" y="-7.5" font-family="Helvetica,sans-Serif" font-size="10.00">time_plot_read</text>
</a>
</g>
</g>
<!-- Node1&#45;&gt;Node3 -->
<g id="edge2" class="edge">
<title>Node1&#45;&gt;Node3</title>
<path fill="none" stroke="midnightblue" d="M306.12,-21.34C297.53,-19.95 288.6,-18.51 280.11,-17.13"/>
<polygon fill="midnightblue" stroke="midnightblue" points="305.57,-24.79 316,-22.94 306.69,-17.88 305.57,-24.79"/>
</g>
<!-- Node4 -->
<g id="node4" class="node">
<title>Node4</title>
<g id="a_node4"><a xlink:href="../../d9/d8a/file__2_d__in_8c.html#a13555e5f4f916ffa5975ed5f22be2697" target="_top" xlink:title="This function reads the 2&#45;D initial data file of density/velocity/pressure.">
<polygon fill="white" stroke="black" points="77,-0.5 77,-19.5 154,-19.5 154,-0.5 77,-0.5"/>
<text text-anchor="middle" x="115.5" y="-7.5" font-family="Helvetica,sans-Serif" font-size="10.00">initialize_2D</text>
</a>
</g>
</g>
<!-- Node3&#45;&gt;Node4 -->
<g id="edge3" class="edge">
<title>Node3&#45;&gt;Node4</title>
<path fill="none" stroke="midnightblue" d="M179.87,-10C171.23,-10 162.45,-10 154.29,-10"/>
<polygon fill="midnightblue" stroke="midnightblue" points="179.91,-13.5 189.91,-10 179.91,-6.5 179.91,-13.5"/>
</g>
<!-- Node5 -->
<g id="node5" class="node">
<title>Node5</title>
<g id="a_node5"><a xlink:href="../../d2/d24/hydrocode_8c.html#a0ddf1224851353fc92bfbff6f499fa97" target="_top" xlink:title="This is the main function which constructs the main structure of the 2&#45;D Eulerian hydrocode.">
<polygon fill="white" stroke="black" points="0,-0.5 0,-19.5 41,-19.5 41,-0.5 0,-0.5"/>
<text text-anchor="middle" x="20.5" y="-7.5" font-family="Helvetica,sans-Serif" font-size="10.00">main</text>
</a>
</g>
</g>
<!-- Node4&#45;&gt;Node5 -->
<g id="edge4" class="edge">
<title>Node4&#45;&gt;Node5</title>
<path fill="none" stroke="midnightblue" d="M66.73,-10C57.65,-10 48.63,-10 41.06,-10"/>
<polygon fill="midnightblue" stroke="midnightblue" points="66.94,-13.5 76.94,-10 66.94,-6.5 66.94,-13.5"/>
</g>
</g>
</svg>
