<?xml version="1.0" encoding="UTF-8" standalone="no"?>
<!DOCTYPE svg PUBLIC "-//W3C//DTD SVG 1.1//EN"
 "http://www.w3.org/Graphics/SVG/1.1/DTD/svg11.dtd">
<!-- Generated by graphviz version 6.0.1 (0)
 -->
<!-- Title: src~/include/file_io.h Pages: 1 -->
<svg width="590pt" height="95pt"
 viewBox="0.00 0.00 590.00 95.00" xmlns="http://www.w3.org/2000/svg" xmlns:xlink="http://www.w3.org/1999/xlink">
<g id="graph0" class="graph" transform="scale(1 1) rotate(0) translate(4 91)">
<title>src~/include/file_io.h</title>
<polygon fill="white" stroke="none" points="-4,4 -4,-91 586,-91 586,4 -4,4"/>
<!-- Node1 -->
<g id="node1" class="node">
<title>Node1</title>
<g id="a_node1"><a xlink:title="This file is the header file that controls data input and output.">
<polygon fill="#bfbfbf" stroke="black" points="209.5,-67.5 209.5,-86.5 328.5,-86.5 328.5,-67.5 209.5,-67.5"/>
<text text-anchor="middle" x="269" y="-74.5" font-family="Helvetica,sans-Serif" font-size="10.00">src~/include/file_io.h</text>
</a>
</g>
</g>
<!-- Node2 -->
<g id="node2" class="node">
<title>Node2</title>
<g id="a_node2"><a xlink:href="../../d9/d89/file__1_d__in_8c.html" target="_top" xlink:title="This is a set of functions which control the read&#45;in of one&#45;dimensional data.">
<polygon fill="white" stroke="black" points="0,-6 0,-25 132,-25 132,-6 0,-6"/>
<text text-anchor="middle" x="66" y="-13" font-family="Helvetica,sans-Serif" font-size="10.00">src~/file_io/file_1D_in.c</text>
</a>
</g>
</g>
<!-- Node1&#45;&gt;Node2 -->
<g id="edge1" class="edge">
<title>Node1&#45;&gt;Node2</title>
<path fill="none" stroke="midnightblue" d="M230.11,-64.6C190.66,-53.04 130.51,-35.41 95.03,-25.01"/>
<polygon fill="midnightblue" stroke="midnightblue" points="229.33,-68.02 239.92,-67.48 231.3,-61.3 229.33,-68.02"/>
</g>
<!-- Node3 -->
<g id="node3" class="node">
<title>Node3</title>
<g id="a_node3"><a xlink:href="../../df/d38/file__1_d__out_8c.html" target="_top" xlink:title="This is a set of functions which control the readout of one&#45;dimensional data.">
<polygon fill="white" stroke="black" points="150,-0.5 150,-30.5 260,-30.5 260,-0.5 150,-0.5"/>
<text text-anchor="start" x="158" y="-18.5" font-family="Helvetica,sans-Serif" font-size="10.00">src~/file_io/file_1D</text>
<text text-anchor="middle" x="205" y="-7.5" font-family="Helvetica,sans-Serif" font-size="10.00">_out.c</text>
</a>
</g>
</g>
<!-- Node1&#45;&gt;Node3 -->
<g id="edge2" class="edge">
<title>Node1&#45;&gt;Node3</title>
<path fill="none" stroke="midnightblue" d="M252.48,-60.65C242.48,-51.35 229.82,-39.57 220.08,-30.52"/>
<polygon fill="midnightblue" stroke="midnightblue" points="250.12,-63.23 259.83,-67.48 254.89,-58.1 250.12,-63.23"/>
</g>
<!-- Node4 -->
<g id="node4" class="node">
<title>Node4</title>
<g id="a_node4"><a xlink:href="../../d4/d39/file__out__hdf5_8c.html" target="_top" xlink:title="This is a set of functions which control the readout of 1&#45;D and 2&#45;D data in HDF5 file format.">
<polygon fill="white" stroke="black" points="278,-0.5 278,-30.5 390,-30.5 390,-0.5 278,-0.5"/>
<text text-anchor="start" x="286" y="-18.5" font-family="Helvetica,sans-Serif" font-size="10.00">src~/file_io/file_out</text>
<text text-anchor="middle" x="334" y="-7.5" font-family="Helvetica,sans-Serif" font-size="10.00">_hdf5.c</text>
</a>
</g>
</g>
<!-- Node1&#45;&gt;Node4 -->
<g id="edge3" class="edge">
<title>Node1&#45;&gt;Node4</title>
<path fill="none" stroke="midnightblue" d="M285.77,-60.65C295.93,-51.35 308.8,-39.57 318.68,-30.52"/>
<polygon fill="midnightblue" stroke="midnightblue" points="283.33,-58.14 278.31,-67.48 288.05,-63.3 283.33,-58.14"/>
</g>
<!-- Node5 -->
<g id="node5" class="node">
<title>Node5</title>
<g id="a_node5"><a xlink:href="../../d2/d24/hydrocode_8c.html" target="_top" xlink:title="This is a C file of the main function.">
<polygon fill="white" stroke="black" points="408,-6 408,-25 582,-25 582,-6 408,-6"/>
<text text-anchor="middle" x="495" y="-13" font-family="Helvetica,sans-Serif" font-size="10.00">src~/hydrocode_1D/hydrocode.c</text>
</a>
</g>
</g>
<!-- Node1&#45;&gt;Node5 -->
<g id="edge4" class="edge">
<title>Node1&#45;&gt;Node5</title>
<path fill="none" stroke="midnightblue" d="M311.18,-64.9C355.07,-53.34 422.85,-35.5 462.68,-25.01"/>
<polygon fill="midnightblue" stroke="midnightblue" points="310.16,-61.54 301.38,-67.48 311.94,-68.31 310.16,-61.54"/>
</g>
</g>
</svg>
