<?xml version="1.0" encoding="UTF-8" standalone="no"?>
<!DOCTYPE svg PUBLIC "-//W3C//DTD SVG 1.1//EN"
 "http://www.w3.org/Graphics/SVG/1.1/DTD/svg11.dtd">
<!-- Generated by graphviz version 5.0.0 (0)
 -->
<!-- Title: src/Riemann_solver/Riemann_solver_exact_Ben.c Pages: 1 -->
<svg width="208pt" height="95pt"
 viewBox="0.00 0.00 207.50 95.00" xmlns="http://www.w3.org/2000/svg" xmlns:xlink="http://www.w3.org/1999/xlink">
<g id="graph0" class="graph" transform="scale(1 1) rotate(0) translate(4 91)">
<title>src/Riemann_solver/Riemann_solver_exact_Ben.c</title>
<polygon fill="white" stroke="transparent" points="-4,4 -4,-91 203.5,-91 203.5,4 -4,4"/>
<!-- Node1 -->
<g id="node1" class="node">
<title>Node1</title>
<g id="a_node1"><a xlink:title="This is an exact Riemann solver in Ben&#45;Artzi&#39;s book.">
<polygon fill="#bfbfbf" stroke="black" points="13,-56.5 13,-86.5 176,-86.5 176,-56.5 13,-56.5"/>
<text text-anchor="start" x="21" y="-74.5" font-family="Helvetica,sans-Serif" font-size="10.00">src/Riemann_solver</text>
<text text-anchor="middle" x="94.5" y="-63.5" font-family="Helvetica,sans-Serif" font-size="10.00">/Riemann_solver_exact_Ben.c</text>
</a>
</g>
</g>
<!-- Node2 -->
<g id="node2" class="node">
<title>Node2</title>
<g id="a_node2"><a xlink:title=" ">
<polygon fill="white" stroke="#bfbfbf" points="0,-0.5 0,-19.5 51,-19.5 51,-0.5 0,-0.5"/>
<text text-anchor="middle" x="25.5" y="-7.5" font-family="Helvetica,sans-Serif" font-size="10.00">math.h</text>
</a>
</g>
</g>
<!-- Node1&#45;&gt;Node2 -->
<g id="edge1" class="edge">
<title>Node1&#45;&gt;Node2</title>
<path fill="none" stroke="midnightblue" d="M78.15,-56.4C67.6,-47.31 53.9,-35.49 43.12,-26.19"/>
<polygon fill="midnightblue" stroke="midnightblue" points="45.4,-23.54 35.54,-19.66 40.83,-28.84 45.4,-23.54"/>
</g>
<!-- Node3 -->
<g id="node3" class="node">
<title>Node3</title>
<g id="a_node3"><a xlink:title=" ">
<polygon fill="white" stroke="#bfbfbf" points="69.5,-0.5 69.5,-19.5 119.5,-19.5 119.5,-0.5 69.5,-0.5"/>
<text text-anchor="middle" x="94.5" y="-7.5" font-family="Helvetica,sans-Serif" font-size="10.00">stdio.h</text>
</a>
</g>
</g>
<!-- Node1&#45;&gt;Node3 -->
<g id="edge2" class="edge">
<title>Node1&#45;&gt;Node3</title>
<path fill="none" stroke="midnightblue" d="M94.5,-56.4C94.5,-48.47 94.5,-38.46 94.5,-29.86"/>
<polygon fill="midnightblue" stroke="midnightblue" points="98,-29.66 94.5,-19.66 91,-29.66 98,-29.66"/>
</g>
<!-- Node4 -->
<g id="node4" class="node">
<title>Node4</title>
<g id="a_node4"><a xlink:title=" ">
<polygon fill="white" stroke="#bfbfbf" points="137.5,-0.5 137.5,-19.5 199.5,-19.5 199.5,-0.5 137.5,-0.5"/>
<text text-anchor="middle" x="168.5" y="-7.5" font-family="Helvetica,sans-Serif" font-size="10.00">stdbool.h</text>
</a>
</g>
</g>
<!-- Node1&#45;&gt;Node4 -->
<g id="edge3" class="edge">
<title>Node1&#45;&gt;Node4</title>
<path fill="none" stroke="midnightblue" d="M112.04,-56.4C123.34,-47.31 138.04,-35.49 149.61,-26.19"/>
<polygon fill="midnightblue" stroke="midnightblue" points="152.13,-28.65 157.73,-19.66 147.75,-23.2 152.13,-28.65"/>
</g>
</g>
</svg>
