<?xml version="1.0" encoding="UTF-8" standalone="no"?>
<!DOCTYPE svg PUBLIC "-//W3C//DTD SVG 1.1//EN"
 "http://www.w3.org/Graphics/SVG/1.1/DTD/svg11.dtd">
<!-- Generated by graphviz version 5.0.0 (0)
 -->
<!-- Title: GRP_solver_2D_split_EUL_source Pages: 1 -->
<svg width="576pt" height="180pt"
 viewBox="0.00 0.00 576.00 180.00" xmlns="http://www.w3.org/2000/svg" xmlns:xlink="http://www.w3.org/1999/xlink">
<g id="graph0" class="graph" transform="scale(1 1) rotate(0) translate(4 176)">
<title>GRP_solver_2D_split_EUL_source</title>
<polygon fill="white" stroke="transparent" points="-4,4 -4,-176 572,-176 572,4 -4,4"/>
<!-- Node1 -->
<g id="node1" class="node">
<title>Node1</title>
<g id="a_node1"><a xlink:title="This function use GRP scheme to solve 2&#45;D Euler equations of motion on Eulerian coordinate with dimen...">
<polygon fill="#bfbfbf" stroke="black" points="0,-71 0,-101 117,-101 117,-71 0,-71"/>
<text text-anchor="start" x="8" y="-89" font-family="Helvetica,sans-Serif" font-size="10.00">GRP_solver_2D_split</text>
<text text-anchor="middle" x="58.5" y="-78" font-family="Helvetica,sans-Serif" font-size="10.00">_EUL_source</text>
</a>
</g>
</g>
<!-- Node2 -->
<g id="node2" class="node">
<title>Node2</title>
<g id="a_node2"><a xlink:href="../../d8/d49/bound__cond__slope__limiter__x_8c.html#a93bebe7c69a9932a22ae8bfce51ab95c" target="_top" xlink:title="This function apply the minmod limiter to the slope in the x&#45;direction of two dimension.">
<polygon fill="white" stroke="black" points="153,-152.5 153,-171.5 308,-171.5 308,-152.5 153,-152.5"/>
<text text-anchor="middle" x="230.5" y="-159.5" font-family="Helvetica,sans-Serif" font-size="10.00">bound_cond_slope_limiter_x</text>
</a>
</g>
</g>
<!-- Node1&#45;&gt;Node2 -->
<g id="edge1" class="edge">
<title>Node1&#45;&gt;Node2</title>
<path fill="none" stroke="midnightblue" d="M80.05,-101.07C98.37,-113.86 126.33,-131.87 153,-143 158.88,-145.46 165.16,-147.65 171.49,-149.59"/>
<polygon fill="midnightblue" stroke="midnightblue" points="170.86,-153.05 181.44,-152.44 172.79,-146.32 170.86,-153.05"/>
</g>
<!-- Node6 -->
<g id="node6" class="node">
<title>Node6</title>
<g id="a_node6"><a xlink:href="../../d8/dbb/bound__cond__slope__limiter__y_8c.html#aaf0175f075a4b153d671c163bc8275b6" target="_top" xlink:title="This function apply the minmod limiter to the slope in the y&#45;direction of two dimension.">
<polygon fill="white" stroke="black" points="153,-114.5 153,-133.5 308,-133.5 308,-114.5 153,-114.5"/>
<text text-anchor="middle" x="230.5" y="-121.5" font-family="Helvetica,sans-Serif" font-size="10.00">bound_cond_slope_limiter_y</text>
</a>
</g>
</g>
<!-- Node1&#45;&gt;Node6 -->
<g id="edge5" class="edge">
<title>Node1&#45;&gt;Node6</title>
<path fill="none" stroke="midnightblue" d="M117.05,-98.87C136.41,-103.19 157.88,-107.99 176.84,-112.23"/>
<polygon fill="midnightblue" stroke="midnightblue" points="176.26,-115.69 186.79,-114.45 177.79,-108.86 176.26,-115.69"/>
</g>
<!-- Node8 -->
<g id="node8" class="node">
<title>Node8</title>
<g id="a_node8"><a xlink:href="../../d4/ddd/sys__pro_8c.html#aab058cac35713b52c083b9e54ffa45eb" target="_top" xlink:title="This function print a progress bar on one line of standard output.">
<polygon fill="white" stroke="black" points="203.5,-76.5 203.5,-95.5 257.5,-95.5 257.5,-76.5 203.5,-76.5"/>
<text text-anchor="middle" x="230.5" y="-83.5" font-family="Helvetica,sans-Serif" font-size="10.00">DispPro</text>
</a>
</g>
</g>
<!-- Node1&#45;&gt;Node8 -->
<g id="edge9" class="edge">
<title>Node1&#45;&gt;Node8</title>
<path fill="none" stroke="midnightblue" d="M117.05,-86C142.22,-86 170.98,-86 193.11,-86"/>
<polygon fill="midnightblue" stroke="midnightblue" points="193.4,-89.5 203.4,-86 193.4,-82.5 193.4,-89.5"/>
</g>
<!-- Node9 -->
<g id="node9" class="node">
<title>Node9</title>
<g id="a_node9"><a xlink:href="../../dd/df5/flux__calc_8h.html#a99d3c20c9f68680b85415265ecd67b60" target="_top" xlink:title=" ">
<polygon fill="white" stroke="black" points="181,-38.5 181,-57.5 280,-57.5 280,-38.5 181,-38.5"/>
<text text-anchor="middle" x="230.5" y="-45.5" font-family="Helvetica,sans-Serif" font-size="10.00">flux_generator_x</text>
</a>
</g>
</g>
<!-- Node1&#45;&gt;Node9 -->
<g id="edge10" class="edge">
<title>Node1&#45;&gt;Node9</title>
<path fill="none" stroke="midnightblue" d="M117.05,-73.13C136.41,-68.81 157.88,-64.01 176.84,-59.77"/>
<polygon fill="midnightblue" stroke="midnightblue" points="177.79,-63.14 186.79,-57.55 176.26,-56.31 177.79,-63.14"/>
</g>
<!-- Node10 -->
<g id="node10" class="node">
<title>Node10</title>
<g id="a_node10"><a xlink:href="../../dd/df5/flux__calc_8h.html#a964701ac9bd65f6b19c3c731e983d562" target="_top" xlink:title=" ">
<polygon fill="white" stroke="black" points="181,-0.5 181,-19.5 280,-19.5 280,-0.5 181,-0.5"/>
<text text-anchor="middle" x="230.5" y="-7.5" font-family="Helvetica,sans-Serif" font-size="10.00">flux_generator_y</text>
</a>
</g>
</g>
<!-- Node1&#45;&gt;Node10 -->
<g id="edge11" class="edge">
<title>Node1&#45;&gt;Node10</title>
<path fill="none" stroke="midnightblue" d="M80.05,-70.93C98.37,-58.14 126.33,-40.13 153,-29 158.88,-26.54 165.16,-24.35 171.49,-22.41"/>
<polygon fill="midnightblue" stroke="midnightblue" points="172.79,-25.68 181.44,-19.56 170.86,-18.95 172.79,-25.68"/>
</g>
<!-- Node3 -->
<g id="node3" class="node">
<title>Node3</title>
<g id="a_node3"><a xlink:href="../../d7/d36/slope__limiter__2_d__x_8c.html#a1305d8e7a55a4345482501a8a57ef353" target="_top" xlink:title="This function apply the minmod limiter to the slope in the x&#45;direction of two dimension.">
<polygon fill="white" stroke="black" points="344,-152.5 344,-171.5 469,-171.5 469,-152.5 344,-152.5"/>
<text text-anchor="middle" x="406.5" y="-159.5" font-family="Helvetica,sans-Serif" font-size="10.00">minmod_limiter_2D_x</text>
</a>
</g>
</g>
<!-- Node2&#45;&gt;Node3 -->
<g id="edge2" class="edge">
<title>Node2&#45;&gt;Node3</title>
<path fill="none" stroke="midnightblue" d="M308.07,-162C316.56,-162 325.19,-162 333.62,-162"/>
<polygon fill="midnightblue" stroke="midnightblue" points="333.78,-165.5 343.78,-162 333.78,-158.5 333.78,-165.5"/>
</g>
<!-- Node4 -->
<g id="node4" class="node">
<title>Node4</title>
<g id="a_node4"><a xlink:href="../../d5/da5/tools_8h.html#a56cac3298eeead8cf22c1e61eb5a5a88" target="_top" xlink:title="Minmod limiter function of two variables.">
<polygon fill="white" stroke="black" points="505,-152.5 505,-171.5 568,-171.5 568,-152.5 505,-152.5"/>
<text text-anchor="middle" x="536.5" y="-159.5" font-family="Helvetica,sans-Serif" font-size="10.00">minmod2</text>
</a>
</g>
</g>
<!-- Node3&#45;&gt;Node4 -->
<g id="edge3" class="edge">
<title>Node3&#45;&gt;Node4</title>
<path fill="none" stroke="midnightblue" d="M469.25,-162C477.87,-162 486.55,-162 494.66,-162"/>
<polygon fill="midnightblue" stroke="midnightblue" points="494.93,-165.5 504.93,-162 494.93,-158.5 494.93,-165.5"/>
</g>
<!-- Node5 -->
<g id="node5" class="node">
<title>Node5</title>
<g id="a_node5"><a xlink:href="../../d5/da5/tools_8h.html#a6dfba28e1af33b47f4656d3738996fe9" target="_top" xlink:title="Minmod limiter function of three variables.">
<polygon fill="white" stroke="black" points="505,-114.5 505,-133.5 568,-133.5 568,-114.5 505,-114.5"/>
<text text-anchor="middle" x="536.5" y="-121.5" font-family="Helvetica,sans-Serif" font-size="10.00">minmod3</text>
</a>
</g>
</g>
<!-- Node3&#45;&gt;Node5 -->
<g id="edge4" class="edge">
<title>Node3&#45;&gt;Node5</title>
<path fill="none" stroke="midnightblue" d="M439.8,-152.41C456.67,-147.4 477.48,-141.23 495.37,-135.91"/>
<polygon fill="midnightblue" stroke="midnightblue" points="496.38,-139.26 504.97,-133.06 494.39,-132.55 496.38,-139.26"/>
</g>
<!-- Node7 -->
<g id="node7" class="node">
<title>Node7</title>
<g id="a_node7"><a xlink:href="../../d2/d49/slope__limiter_8c.html#ae6551ab705937492c059ece48a3b2793" target="_top" xlink:title="This function apply the minmod limiter to the slope in one dimension.">
<polygon fill="white" stroke="black" points="359,-114.5 359,-133.5 454,-133.5 454,-114.5 359,-114.5"/>
<text text-anchor="middle" x="406.5" y="-121.5" font-family="Helvetica,sans-Serif" font-size="10.00">minmod_limiter</text>
</a>
</g>
</g>
<!-- Node6&#45;&gt;Node7 -->
<g id="edge6" class="edge">
<title>Node6&#45;&gt;Node7</title>
<path fill="none" stroke="midnightblue" d="M308.07,-124C321.74,-124 335.76,-124 348.75,-124"/>
<polygon fill="midnightblue" stroke="midnightblue" points="348.92,-127.5 358.92,-124 348.92,-120.5 348.92,-127.5"/>
</g>
<!-- Node7&#45;&gt;Node4 -->
<g id="edge7" class="edge">
<title>Node7&#45;&gt;Node4</title>
<path fill="none" stroke="midnightblue" d="M439.8,-133.59C456.67,-138.6 477.48,-144.77 495.37,-150.09"/>
<polygon fill="midnightblue" stroke="midnightblue" points="494.39,-153.45 504.97,-152.94 496.38,-146.74 494.39,-153.45"/>
</g>
<!-- Node7&#45;&gt;Node5 -->
<g id="edge8" class="edge">
<title>Node7&#45;&gt;Node5</title>
<path fill="none" stroke="midnightblue" d="M454.07,-124C467.38,-124 481.78,-124 494.72,-124"/>
<polygon fill="midnightblue" stroke="midnightblue" points="494.73,-127.5 504.73,-124 494.73,-120.5 494.73,-127.5"/>
</g>
</g>
</svg>
