<?xml version="1.0" encoding="UTF-8" standalone="no"?>
<!DOCTYPE svg PUBLIC "-//W3C//DTD SVG 1.1//EN"
 "http://www.w3.org/Graphics/SVG/1.1/DTD/svg11.dtd">
<!-- Generated by graphviz version 6.0.1 (0)
 -->
<!-- Title: src~/inter_process_cpp/VIPLimiter.cpp Pages: 1 -->
<svg width="417pt" height="95pt"
 viewBox="0.00 0.00 417.00 95.00" xmlns="http://www.w3.org/2000/svg" xmlns:xlink="http://www.w3.org/1999/xlink">
<g id="graph0" class="graph" transform="scale(1 1) rotate(0) translate(4 91)">
<title>src~/inter_process_cpp/VIPLimiter.cpp</title>
<polygon fill="white" stroke="none" points="-4,4 -4,-91 413,-91 413,4 -4,4"/>
<!-- Node1 -->
<g id="node1" class="node">
<title>Node1</title>
<g id="a_node1"><a xlink:title="The subroutin implements the VIP limiter for simulations of 2D flows on structured grids.">
<polygon fill="#bfbfbf" stroke="black" points="127.5,-56.5 127.5,-86.5 240.5,-86.5 240.5,-56.5 127.5,-56.5"/>
<text text-anchor="start" x="135.5" y="-74.5" font-family="Helvetica,sans-Serif" font-size="10.00">src~/inter_process</text>
<text text-anchor="middle" x="184" y="-63.5" font-family="Helvetica,sans-Serif" font-size="10.00">_cpp/VIPLimiter.cpp</text>
</a>
</g>
</g>
<!-- Node2 -->
<g id="node2" class="node">
<title>Node2</title>
<g id="a_node2"><a xlink:title=" ">
<polygon fill="white" stroke="#bfbfbf" points="0,-0.5 0,-19.5 60,-19.5 60,-0.5 0,-0.5"/>
<text text-anchor="middle" x="30" y="-7.5" font-family="Helvetica,sans-Serif" font-size="10.00">iostream</text>
</a>
</g>
</g>
<!-- Node1&#45;&gt;Node2 -->
<g id="edge1" class="edge">
<title>Node1&#45;&gt;Node2</title>
<path fill="none" stroke="midnightblue" d="M147.5,-56.4C121.43,-46.33 86.71,-32.91 61.78,-23.28"/>
<polygon fill="midnightblue" stroke="midnightblue" points="63,-20 52.41,-19.66 60.47,-26.53 63,-20"/>
</g>
<!-- Node3 -->
<g id="node3" class="node">
<title>Node3</title>
<g id="a_node3"><a xlink:title=" ">
<polygon fill="white" stroke="#bfbfbf" points="78,-0.5 78,-19.5 142,-19.5 142,-0.5 78,-0.5"/>
<text text-anchor="middle" x="110" y="-7.5" font-family="Helvetica,sans-Serif" font-size="10.00">algorithm</text>
</a>
</g>
</g>
<!-- Node1&#45;&gt;Node3 -->
<g id="edge2" class="edge">
<title>Node1&#45;&gt;Node3</title>
<path fill="none" stroke="midnightblue" d="M166.46,-56.4C155.16,-47.31 140.46,-35.49 128.89,-26.19"/>
<polygon fill="midnightblue" stroke="midnightblue" points="130.75,-23.2 120.77,-19.66 126.37,-28.65 130.75,-23.2"/>
</g>
<!-- Node4 -->
<g id="node4" class="node">
<title>Node4</title>
<g id="a_node4"><a xlink:title=" ">
<polygon fill="white" stroke="#bfbfbf" points="160.5,-0.5 160.5,-19.5 207.5,-19.5 207.5,-0.5 160.5,-0.5"/>
<text text-anchor="middle" x="184" y="-7.5" font-family="Helvetica,sans-Serif" font-size="10.00">vector</text>
</a>
</g>
</g>
<!-- Node1&#45;&gt;Node4 -->
<g id="edge3" class="edge">
<title>Node1&#45;&gt;Node4</title>
<path fill="none" stroke="midnightblue" d="M184,-56.4C184,-48.47 184,-38.46 184,-29.86"/>
<polygon fill="midnightblue" stroke="midnightblue" points="187.5,-29.66 184,-19.66 180.5,-29.66 187.5,-29.66"/>
</g>
<!-- Node5 -->
<g id="node5" class="node">
<title>Node5</title>
<g id="a_node5"><a xlink:title=" ">
<polygon fill="white" stroke="#bfbfbf" points="225.5,-0.5 225.5,-19.5 272.5,-19.5 272.5,-0.5 225.5,-0.5"/>
<text text-anchor="middle" x="249" y="-7.5" font-family="Helvetica,sans-Serif" font-size="10.00">cmath</text>
</a>
</g>
</g>
<!-- Node1&#45;&gt;Node5 -->
<g id="edge4" class="edge">
<title>Node1&#45;&gt;Node5</title>
<path fill="none" stroke="midnightblue" d="M199.4,-56.4C209.24,-47.4 221.99,-35.72 232.11,-26.47"/>
<polygon fill="midnightblue" stroke="midnightblue" points="234.53,-28.99 239.54,-19.66 229.8,-23.83 234.53,-28.99"/>
</g>
<!-- Node6 -->
<g id="node6" class="node">
<title>Node6</title>
<g id="a_node6"><a xlink:href="../../da/d1e/var__struc_8h.html" target="_top" xlink:title="This file is the header file of some globally common variables and structural bodies.">
<polygon fill="white" stroke="black" points="291,-0.5 291,-19.5 409,-19.5 409,-0.5 291,-0.5"/>
<text text-anchor="middle" x="350" y="-7.5" font-family="Helvetica,sans-Serif" font-size="10.00">../include/var_struc.h</text>
</a>
</g>
</g>
<!-- Node1&#45;&gt;Node6 -->
<g id="edge5" class="edge">
<title>Node1&#45;&gt;Node6</title>
<path fill="none" stroke="midnightblue" d="M223.34,-56.4C251.56,-46.28 289.21,-32.79 316.1,-23.15"/>
<polygon fill="midnightblue" stroke="midnightblue" points="317.61,-26.33 325.85,-19.66 315.25,-19.74 317.61,-26.33"/>
</g>
</g>
</svg>
