<?xml version="1.0" encoding="UTF-8" standalone="no"?>
<!DOCTYPE svg PUBLIC "-//W3C//DTD SVG 1.1//EN"
 "http://www.w3.org/Graphics/SVG/1.1/DTD/svg11.dtd">
<!-- Generated by graphviz version 6.0.1 (0)
 -->
<!-- Title: star_dire_check Pages: 1 -->
<svg width="349pt" height="116pt"
 viewBox="0.00 0.00 349.00 115.50" xmlns="http://www.w3.org/2000/svg" xmlns:xlink="http://www.w3.org/1999/xlink">
<g id="graph0" class="graph" transform="scale(1 1) rotate(0) translate(4 111.5)">
<title>star_dire_check</title>
<polygon fill="white" stroke="none" points="-4,4 -4,-111.5 345,-111.5 345,4 -4,4"/>
<!-- Node1 -->
<g id="node1" class="node">
<title>Node1</title>
<g id="a_node1"><a xlink:title="This function checks whether fluid variables of mid[] and dire[] are within the value range.">
<polygon fill="#bfbfbf" stroke="black" points="248,-38.5 248,-57.5 341,-57.5 341,-38.5 248,-38.5"/>
<text text-anchor="middle" x="294.5" y="-45.5" font-family="Helvetica,sans-Serif" font-size="10.00">star_dire_check</text>
</a>
</g>
</g>
<!-- Node2 -->
<g id="node2" class="node">
<title>Node2</title>
<g id="a_node2"><a xlink:href="../../d2/d7d/godunov__solver___e_u_l__source_8c.html#a73d1b94c809db33f336af9374200d7e1" target="_top" xlink:title="This function use Godunov scheme to solve 1&#45;D Euler equations of motion on Eulerian coordinate.">
<polygon fill="white" stroke="black" points="85,-77 85,-107 204,-107 204,-77 85,-77"/>
<text text-anchor="start" x="93" y="-95" font-family="Helvetica,sans-Serif" font-size="10.00">Godunov_solver_EUL</text>
<text text-anchor="middle" x="144.5" y="-84" font-family="Helvetica,sans-Serif" font-size="10.00">_source</text>
</a>
</g>
</g>
<!-- Node1&#45;&gt;Node2 -->
<g id="edge1" class="edge">
<title>Node1&#45;&gt;Node2</title>
<path fill="none" stroke="midnightblue" d="M251.61,-60.46C234.36,-65.58 214.24,-71.56 196.17,-76.93"/>
<polygon fill="midnightblue" stroke="midnightblue" points="252.8,-63.75 261.39,-57.55 250.8,-57.04 252.8,-63.75"/>
</g>
<!-- Node4 -->
<g id="node4" class="node">
<title>Node4</title>
<g id="a_node4"><a xlink:href="../../d6/d0b/grp__solver___e_u_l__source_8c.html#a17cb2f4df1a273ffe997d9ac064451cb" target="_top" xlink:title="This function use GRP scheme to solve 1&#45;D Euler equations of motion on Eulerian coordinate.">
<polygon fill="white" stroke="black" points="77.5,-38.5 77.5,-57.5 211.5,-57.5 211.5,-38.5 77.5,-38.5"/>
<text text-anchor="middle" x="144.5" y="-45.5" font-family="Helvetica,sans-Serif" font-size="10.00">GRP_solver_EUL_source</text>
</a>
</g>
</g>
<!-- Node1&#45;&gt;Node4 -->
<g id="edge3" class="edge">
<title>Node1&#45;&gt;Node4</title>
<path fill="none" stroke="midnightblue" d="M237.71,-48C229.2,-48 220.34,-48 211.64,-48"/>
<polygon fill="midnightblue" stroke="midnightblue" points="237.89,-51.5 247.89,-48 237.89,-44.5 237.89,-51.5"/>
</g>
<!-- Node5 -->
<g id="node5" class="node">
<title>Node5</title>
<g id="a_node5"><a xlink:href="../../d6/d4f/grp__solver___l_a_g__source_8c.html#a4c8dd56a6ed077100100c1bf9d789425" target="_top" xlink:title="This function use GRP scheme to solve 1&#45;D Euler equations of motion on Lagrangian coordinate.">
<polygon fill="white" stroke="black" points="77,-0.5 77,-19.5 212,-19.5 212,-0.5 77,-0.5"/>
<text text-anchor="middle" x="144.5" y="-7.5" font-family="Helvetica,sans-Serif" font-size="10.00">GRP_solver_LAG_source</text>
</a>
</g>
</g>
<!-- Node1&#45;&gt;Node5 -->
<g id="edge5" class="edge">
<title>Node1&#45;&gt;Node5</title>
<path fill="none" stroke="midnightblue" d="M246.33,-35.89C225.71,-30.6 201.89,-24.48 182.58,-19.52"/>
<polygon fill="midnightblue" stroke="midnightblue" points="245.6,-39.31 256.15,-38.41 247.34,-32.53 245.6,-39.31"/>
</g>
<!-- Node3 -->
<g id="node3" class="node">
<title>Node3</title>
<g id="a_node3"><a xlink:href="../../d2/d24/hydrocode_8c.html#a0ddf1224851353fc92bfbff6f499fa97" target="_top" xlink:title="This is the main function which constructs the main structure of the 1&#45;D Lagrangian/Eulerian hydrocod...">
<polygon fill="white" stroke="black" points="0,-38.5 0,-57.5 41,-57.5 41,-38.5 0,-38.5"/>
<text text-anchor="middle" x="20.5" y="-45.5" font-family="Helvetica,sans-Serif" font-size="10.00">main</text>
</a>
</g>
</g>
<!-- Node2&#45;&gt;Node3 -->
<g id="edge2" class="edge">
<title>Node2&#45;&gt;Node3</title>
<path fill="none" stroke="midnightblue" d="M92.01,-73.43C74.02,-66.94 54.89,-60.04 41.1,-55.07"/>
<polygon fill="midnightblue" stroke="midnightblue" points="91.26,-76.88 101.86,-76.98 93.64,-70.3 91.26,-76.88"/>
</g>
<!-- Node4&#45;&gt;Node3 -->
<g id="edge4" class="edge">
<title>Node4&#45;&gt;Node3</title>
<path fill="none" stroke="midnightblue" d="M67.05,-48C57.52,-48 48.52,-48 41.08,-48"/>
<polygon fill="midnightblue" stroke="midnightblue" points="67.14,-51.5 77.14,-48 67.14,-44.5 67.14,-51.5"/>
</g>
<!-- Node5&#45;&gt;Node3 -->
<g id="edge6" class="edge">
<title>Node5&#45;&gt;Node3</title>
<path fill="none" stroke="midnightblue" d="M99.26,-22.3C91.81,-24.47 84.17,-26.75 77,-29 65.05,-32.75 51.77,-37.28 41.2,-40.98"/>
<polygon fill="midnightblue" stroke="midnightblue" points="100.24,-25.65 108.88,-19.52 98.31,-18.93 100.24,-25.65"/>
</g>
</g>
</svg>
