<?xml version="1.0" encoding="UTF-8" standalone="no"?>
<!DOCTYPE svg PUBLIC "-//W3C//DTD SVG 1.1//EN"
 "http://www.w3.org/Graphics/SVG/1.1/DTD/svg11.dtd">
<!-- Generated by graphviz version 5.0.0 (0)
 -->
<!-- Title: src/include/var_struc.h Pages: 1 -->
<svg width="1313pt" height="151pt"
 viewBox="0.00 0.00 1312.50 151.00" xmlns="http://www.w3.org/2000/svg" xmlns:xlink="http://www.w3.org/1999/xlink">
<g id="graph0" class="graph" transform="scale(1 1) rotate(0) translate(4 147)">
<title>src/include/var_struc.h</title>
<polygon fill="white" stroke="transparent" points="-4,4 -4,-147 1308.5,-147 1308.5,4 -4,4"/>
<!-- Node1 -->
<g id="node1" class="node">
<title>Node1</title>
<g id="a_node1"><a xlink:title=" ">
<polygon fill="#bfbfbf" stroke="black" points="620.5,-123.5 620.5,-142.5 746.5,-142.5 746.5,-123.5 620.5,-123.5"/>
<text text-anchor="middle" x="683.5" y="-130.5" font-family="Helvetica,sans-Serif" font-size="10.00">src/include/var_struc.h</text>
</a>
</g>
</g>
<!-- Node2 -->
<g id="node2" class="node">
<title>Node2</title>
<g id="a_node2"><a xlink:href="../../dd/d92/__1_d__file__in_8c.html" target="_top" xlink:title="This is a set of functions which control the read&#45;in of one&#45;dimensional data.">
<polygon fill="white" stroke="black" points="0,-62 0,-81 129,-81 129,-62 0,-62"/>
<text text-anchor="middle" x="64.5" y="-69" font-family="Helvetica,sans-Serif" font-size="10.00">src/file_io/_1D_file_in.c</text>
</a>
</g>
</g>
<!-- Node1&#45;&gt;Node2 -->
<g id="edge1" class="edge">
<title>Node1&#45;&gt;Node2</title>
<path fill="none" stroke="midnightblue" d="M610.14,-128.54C505.22,-122.99 306.41,-110.31 138.5,-87 127.22,-85.43 115.06,-83.26 103.92,-81.07"/>
<polygon fill="midnightblue" stroke="midnightblue" points="610.14,-132.04 620.31,-129.07 610.51,-125.05 610.14,-132.04"/>
</g>
<!-- Node3 -->
<g id="node3" class="node">
<title>Node3</title>
<g id="a_node3"><a xlink:href="../../db/db6/__1_d__file__out_8c.html" target="_top" xlink:title="This is a set of functions which control the readout of one&#45;dimensional data.">
<polygon fill="white" stroke="black" points="147,-56.5 147,-86.5 254,-86.5 254,-56.5 147,-56.5"/>
<text text-anchor="start" x="155" y="-74.5" font-family="Helvetica,sans-Serif" font-size="10.00">src/file_io/_1D_file</text>
<text text-anchor="middle" x="200.5" y="-63.5" font-family="Helvetica,sans-Serif" font-size="10.00">_out.c</text>
</a>
</g>
</g>
<!-- Node1&#45;&gt;Node3 -->
<g id="edge2" class="edge">
<title>Node1&#45;&gt;Node3</title>
<path fill="none" stroke="midnightblue" d="M609.99,-126.8C525.86,-120.23 384.13,-107.27 263.5,-87 260.4,-86.48 257.23,-85.9 254.03,-85.28"/>
<polygon fill="midnightblue" stroke="midnightblue" points="609.97,-130.31 620.21,-127.59 610.51,-123.33 609.97,-130.31"/>
</g>
<!-- Node4 -->
<g id="node4" class="node">
<title>Node4</title>
<g id="a_node4"><a xlink:href="../../da/d8c/config__in_8c.html" target="_top" xlink:title="This is a set of functions which control the read&#45;in of configuration data.">
<polygon fill="white" stroke="black" points="272,-62 272,-81 391,-81 391,-62 272,-62"/>
<text text-anchor="middle" x="331.5" y="-69" font-family="Helvetica,sans-Serif" font-size="10.00">src/file_io/config_in.c</text>
</a>
</g>
</g>
<!-- Node1&#45;&gt;Node4 -->
<g id="edge3" class="edge">
<title>Node1&#45;&gt;Node4</title>
<path fill="none" stroke="midnightblue" d="M614.5,-122C557.1,-113.45 473.31,-100.43 400.5,-87 390.75,-85.2 380.26,-83.09 370.48,-81.04"/>
<polygon fill="midnightblue" stroke="midnightblue" points="614.14,-125.49 624.55,-123.49 615.17,-118.56 614.14,-125.49"/>
</g>
<!-- Node5 -->
<g id="node5" class="node">
<title>Node5</title>
<g id="a_node5"><a xlink:href="../../d4/de5/io__control_8c.html" target="_top" xlink:title="This is a set of common functions which control the input/output data.">
<polygon fill="white" stroke="black" points="409,-62 409,-81 532,-81 532,-62 409,-62"/>
<text text-anchor="middle" x="470.5" y="-69" font-family="Helvetica,sans-Serif" font-size="10.00">src/file_io/io_control.c</text>
</a>
</g>
</g>
<!-- Node1&#45;&gt;Node5 -->
<g id="edge4" class="edge">
<title>Node1&#45;&gt;Node5</title>
<path fill="none" stroke="midnightblue" d="M643.22,-120.75C601.84,-109.19 538.34,-91.45 500.96,-81.01"/>
<polygon fill="midnightblue" stroke="midnightblue" points="642.41,-124.16 652.98,-123.48 644.29,-117.41 642.41,-124.16"/>
</g>
<!-- Node6 -->
<g id="node6" class="node">
<title>Node6</title>
<g id="a_node6"><a xlink:href="../../d5/d10/_g_r_p__solver___e_u_l__source_8c.html" target="_top" xlink:title="This is an Eulerian GRP scheme to solve 1&#45;D Euler equations.">
<polygon fill="white" stroke="black" points="550,-56.5 550,-86.5 675,-86.5 675,-56.5 550,-56.5"/>
<text text-anchor="start" x="558" y="-74.5" font-family="Helvetica,sans-Serif" font-size="10.00">src/finite_volume/GRP</text>
<text text-anchor="middle" x="612.5" y="-63.5" font-family="Helvetica,sans-Serif" font-size="10.00">_solver_EUL_source.c</text>
</a>
</g>
</g>
<!-- Node1&#45;&gt;Node6 -->
<g id="edge5" class="edge">
<title>Node1&#45;&gt;Node6</title>
<path fill="none" stroke="midnightblue" d="M665.51,-116.92C654.36,-107.58 640.14,-95.66 629.23,-86.52"/>
<polygon fill="midnightblue" stroke="midnightblue" points="663.41,-119.73 673.33,-123.48 667.91,-114.37 663.41,-119.73"/>
</g>
<!-- Node7 -->
<g id="node7" class="node">
<title>Node7</title>
<g id="a_node7"><a xlink:href="../../dd/dd7/_g_r_p__solver___l_a_g__source_8c.html" target="_top" xlink:title="This is a Lagrangian GRP scheme to solve 1&#45;D Euler equations.">
<polygon fill="white" stroke="black" points="693,-56.5 693,-86.5 818,-86.5 818,-56.5 693,-56.5"/>
<text text-anchor="start" x="701" y="-74.5" font-family="Helvetica,sans-Serif" font-size="10.00">src/finite_volume/GRP</text>
<text text-anchor="middle" x="755.5" y="-63.5" font-family="Helvetica,sans-Serif" font-size="10.00">_solver_LAG_source.c</text>
</a>
</g>
</g>
<!-- Node1&#45;&gt;Node7 -->
<g id="edge6" class="edge">
<title>Node1&#45;&gt;Node7</title>
<path fill="none" stroke="midnightblue" d="M701.75,-116.92C713.05,-107.58 727.47,-95.66 738.53,-86.52"/>
<polygon fill="midnightblue" stroke="midnightblue" points="699.29,-114.41 693.82,-123.48 703.75,-119.8 699.29,-114.41"/>
</g>
<!-- Node8 -->
<g id="node8" class="node">
<title>Node8</title>
<g id="a_node8"><a xlink:href="../../de/dd9/_godunov__solver___e_u_l__source_8c.html" target="_top" xlink:title="This is an Eulerian Godunov scheme to solve 1&#45;D Euler equations.">
<polygon fill="white" stroke="black" points="836.5,-56.5 836.5,-86.5 984.5,-86.5 984.5,-56.5 836.5,-56.5"/>
<text text-anchor="start" x="844.5" y="-74.5" font-family="Helvetica,sans-Serif" font-size="10.00">src/finite_volume/Godunov</text>
<text text-anchor="middle" x="910.5" y="-63.5" font-family="Helvetica,sans-Serif" font-size="10.00">_solver_EUL_source.c</text>
</a>
</g>
</g>
<!-- Node1&#45;&gt;Node8 -->
<g id="edge7" class="edge">
<title>Node1&#45;&gt;Node8</title>
<path fill="none" stroke="midnightblue" d="M726,-120.86C763.07,-111.14 817.01,-97.01 857,-86.52"/>
<polygon fill="midnightblue" stroke="midnightblue" points="724.81,-117.55 716.02,-123.48 726.58,-124.33 724.81,-117.55"/>
</g>
<!-- Node9 -->
<g id="node9" class="node">
<title>Node9</title>
<g id="a_node9"><a xlink:href="../../dd/d30/_godunov__solver___l_a_g__source_8c.html" target="_top" xlink:title="This is a Lagrangian Godunov scheme to solve 1&#45;D Euler equations.">
<polygon fill="white" stroke="black" points="1002.5,-56.5 1002.5,-86.5 1150.5,-86.5 1150.5,-56.5 1002.5,-56.5"/>
<text text-anchor="start" x="1010.5" y="-74.5" font-family="Helvetica,sans-Serif" font-size="10.00">src/finite_volume/Godunov</text>
<text text-anchor="middle" x="1076.5" y="-63.5" font-family="Helvetica,sans-Serif" font-size="10.00">_solver_LAG_source.c</text>
</a>
</g>
</g>
<!-- Node1&#45;&gt;Node9 -->
<g id="edge8" class="edge">
<title>Node1&#45;&gt;Node9</title>
<path fill="none" stroke="midnightblue" d="M756.14,-122.06C819.02,-113.31 912.36,-99.97 993.5,-87 996.39,-86.54 999.33,-86.06 1002.31,-85.57"/>
<polygon fill="midnightblue" stroke="midnightblue" points="755.35,-118.63 745.93,-123.48 756.31,-125.57 755.35,-118.63"/>
</g>
<!-- Node10 -->
<g id="node10" class="node">
<title>Node10</title>
<g id="a_node10"><a xlink:href="../../d2/d24/hydrocode_8c.html" target="_top" xlink:title="This is a C file of the main function.">
<polygon fill="white" stroke="black" points="1143,-0.5 1143,-19.5 1290,-19.5 1290,-0.5 1143,-0.5"/>
<text text-anchor="middle" x="1216.5" y="-7.5" font-family="Helvetica,sans-Serif" font-size="10.00">src/hydrocode/hydrocode.c</text>
</a>
</g>
</g>
<!-- Node1&#45;&gt;Node10 -->
<g id="edge9" class="edge">
<title>Node1&#45;&gt;Node10</title>
<path fill="none" stroke="midnightblue" d="M756.82,-132.2C872.81,-131.35 1092.37,-124.62 1159.5,-87 1187.12,-71.52 1205.37,-36.51 1212.77,-19.97"/>
<polygon fill="midnightblue" stroke="midnightblue" points="756.58,-128.7 746.6,-132.26 756.62,-135.7 756.58,-128.7"/>
</g>
<!-- Node11 -->
<g id="node11" class="node">
<title>Node11</title>
<g id="a_node11"><a xlink:href="../../d8/da8/finite__volume_8h.html" target="_top" xlink:title="This file is the header file of Lagrangian/Eulerian hydrocode in finite volume framework.">
<polygon fill="white" stroke="black" points="1206.5,-56.5 1206.5,-86.5 1304.5,-86.5 1304.5,-56.5 1206.5,-56.5"/>
<text text-anchor="start" x="1214.5" y="-74.5" font-family="Helvetica,sans-Serif" font-size="10.00">src/include/finite</text>
<text text-anchor="middle" x="1255.5" y="-63.5" font-family="Helvetica,sans-Serif" font-size="10.00">_volume.h</text>
</a>
</g>
</g>
<!-- Node1&#45;&gt;Node11 -->
<g id="edge10" class="edge">
<title>Node1&#45;&gt;Node11</title>
<path fill="none" stroke="midnightblue" d="M756.75,-128.7C856,-123.52 1038.48,-111.41 1192.5,-87 1197.04,-86.28 1201.75,-85.42 1206.45,-84.48"/>
<polygon fill="midnightblue" stroke="midnightblue" points="756.34,-125.22 746.53,-129.23 756.7,-132.21 756.34,-125.22"/>
</g>
<!-- Node11&#45;&gt;Node10 -->
<g id="edge11" class="edge">
<title>Node11&#45;&gt;Node10</title>
<path fill="none" stroke="midnightblue" d="M1240.62,-47.8C1234.17,-37.96 1227.01,-27.03 1222.17,-19.66"/>
<polygon fill="midnightblue" stroke="midnightblue" points="1237.85,-49.95 1246.26,-56.4 1243.7,-46.12 1237.85,-49.95"/>
</g>
</g>
</svg>
