<?xml version="1.0" encoding="UTF-8" standalone="no"?>
<!DOCTYPE svg PUBLIC "-//W3C//DTD SVG 1.1//EN"
 "http://www.w3.org/Graphics/SVG/1.1/DTD/svg11.dtd">
<!-- Generated by graphviz version 5.0.0 (0)
 -->
<!-- Title: /home/leixin/Programs/HydroCODE/src/tools/str_num_common.c Pages: 1 -->
<svg width="199pt" height="106pt"
 viewBox="0.00 0.00 198.50 106.00" xmlns="http://www.w3.org/2000/svg" xmlns:xlink="http://www.w3.org/1999/xlink">
<g id="graph0" class="graph" transform="scale(1 1) rotate(0) translate(4 102)">
<title>/home/leixin/Programs/HydroCODE/src/tools/str_num_common.c</title>
<polygon fill="white" stroke="transparent" points="-4,4 -4,-102 194.5,-102 194.5,4 -4,4"/>
<!-- Node1 -->
<g id="node1" class="node">
<title>Node1</title>
<g id="a_node1"><a xlink:title="This is a set of common functions for string and number processing.">
<polygon fill="#bfbfbf" stroke="black" points="32,-56.5 32,-97.5 159,-97.5 159,-56.5 32,-56.5"/>
<text text-anchor="start" x="40" y="-85.5" font-family="Helvetica,sans-Serif" font-size="10.00">/home/leixin/Programs</text>
<text text-anchor="start" x="40" y="-74.5" font-family="Helvetica,sans-Serif" font-size="10.00">/HydroCODE/src/tools</text>
<text text-anchor="middle" x="95.5" y="-63.5" font-family="Helvetica,sans-Serif" font-size="10.00">/str_num_common.c</text>
</a>
</g>
</g>
<!-- Node2 -->
<g id="node2" class="node">
<title>Node2</title>
<g id="a_node2"><a xlink:title=" ">
<polygon fill="white" stroke="#bfbfbf" points="0,-0.5 0,-19.5 51,-19.5 51,-0.5 0,-0.5"/>
<text text-anchor="middle" x="25.5" y="-7.5" font-family="Helvetica,sans-Serif" font-size="10.00">math.h</text>
</a>
</g>
</g>
<!-- Node1&#45;&gt;Node2 -->
<g id="edge1" class="edge">
<title>Node1&#45;&gt;Node2</title>
<path fill="none" stroke="midnightblue" d="M74.5,-56.5C64.18,-46.92 51.91,-35.53 42.24,-26.54"/>
<polygon fill="midnightblue" stroke="midnightblue" points="44.53,-23.89 34.82,-19.65 39.76,-29.02 44.53,-23.89"/>
</g>
<!-- Node3 -->
<g id="node3" class="node">
<title>Node3</title>
<g id="a_node3"><a xlink:title=" ">
<polygon fill="white" stroke="#bfbfbf" points="69,-0.5 69,-19.5 122,-19.5 122,-0.5 69,-0.5"/>
<text text-anchor="middle" x="95.5" y="-7.5" font-family="Helvetica,sans-Serif" font-size="10.00">string.h</text>
</a>
</g>
</g>
<!-- Node1&#45;&gt;Node3 -->
<g id="edge2" class="edge">
<title>Node1&#45;&gt;Node3</title>
<path fill="none" stroke="midnightblue" d="M95.5,-56.5C95.5,-48.07 95.5,-38.24 95.5,-29.87"/>
<polygon fill="midnightblue" stroke="midnightblue" points="99,-29.65 95.5,-19.65 92,-29.65 99,-29.65"/>
</g>
<!-- Node4 -->
<g id="node4" class="node">
<title>Node4</title>
<g id="a_node4"><a xlink:title=" ">
<polygon fill="white" stroke="#bfbfbf" points="140.5,-0.5 140.5,-19.5 190.5,-19.5 190.5,-0.5 140.5,-0.5"/>
<text text-anchor="middle" x="165.5" y="-7.5" font-family="Helvetica,sans-Serif" font-size="10.00">stdio.h</text>
</a>
</g>
</g>
<!-- Node1&#45;&gt;Node4 -->
<g id="edge3" class="edge">
<title>Node1&#45;&gt;Node4</title>
<path fill="none" stroke="midnightblue" d="M116.5,-56.5C126.82,-46.92 139.09,-35.53 148.76,-26.54"/>
<polygon fill="midnightblue" stroke="midnightblue" points="151.24,-29.02 156.18,-19.65 146.47,-23.89 151.24,-29.02"/>
</g>
</g>
</svg>
