<?xml version="1.0" encoding="UTF-8" standalone="no"?>
<!DOCTYPE svg PUBLIC "-//W3C//DTD SVG 1.1//EN"
 "http://www.w3.org/Graphics/SVG/1.1/DTD/svg11.dtd">
<!-- Generated by graphviz version 5.0.0 (0)
 -->
<!-- Title: src/include/Riemann_solver.h Pages: 1 -->
<svg width="927pt" height="106pt"
 viewBox="0.00 0.00 927.00 106.00" xmlns="http://www.w3.org/2000/svg" xmlns:xlink="http://www.w3.org/1999/xlink">
<g id="graph0" class="graph" transform="scale(1 1) rotate(0) translate(4 102)">
<title>src/include/Riemann_solver.h</title>
<polygon fill="white" stroke="transparent" points="-4,4 -4,-102 923,-102 923,4 -4,4"/>
<!-- Node1 -->
<g id="node1" class="node">
<title>Node1</title>
<g id="a_node1"><a xlink:title="This file is the header file of several Riemann solvers and GRP solvers.">
<polygon fill="#bfbfbf" stroke="black" points="394,-67.5 394,-97.5 510,-97.5 510,-67.5 394,-67.5"/>
<text text-anchor="start" x="402" y="-85.5" font-family="Helvetica,sans-Serif" font-size="10.00">src/include/Riemann</text>
<text text-anchor="middle" x="452" y="-74.5" font-family="Helvetica,sans-Serif" font-size="10.00">_solver.h</text>
</a>
</g>
</g>
<!-- Node2 -->
<g id="node2" class="node">
<title>Node2</title>
<g id="a_node2"><a xlink:href="../../dc/d70/linear___g_r_p__solver___edir_8c.html" target="_top" xlink:title="This is a direct Eulerian GRP solver for compressible inviscid flow in Li&#39;s paper.">
<polygon fill="white" stroke="black" points="0,-0.5 0,-30.5 140,-30.5 140,-0.5 0,-0.5"/>
<text text-anchor="start" x="8" y="-18.5" font-family="Helvetica,sans-Serif" font-size="10.00">src/Riemann_solver</text>
<text text-anchor="middle" x="70" y="-7.5" font-family="Helvetica,sans-Serif" font-size="10.00">/linear_GRP_solver_Edir.c</text>
</a>
</g>
</g>
<!-- Node1&#45;&gt;Node2 -->
<g id="edge1" class="edge">
<title>Node1&#45;&gt;Node2</title>
<path fill="none" stroke="midnightblue" d="M383.9,-70.48C322.46,-60.45 229.61,-45.11 149,-31 146.12,-30.49 143.17,-29.98 140.2,-29.45"/>
<polygon fill="midnightblue" stroke="midnightblue" points="383.43,-73.95 393.86,-72.1 384.56,-67.04 383.43,-73.95"/>
</g>
<!-- Node3 -->
<g id="node3" class="node">
<title>Node3</title>
<g id="a_node3"><a xlink:href="../../de/d81/linear___g_r_p__solver___l_a_g_8c.html" target="_top" xlink:title="This is a Lagrangian GRP solver for compressible inviscid flow in Ben&#45;Artzi&#39;s book.">
<polygon fill="white" stroke="black" points="158,-0.5 158,-30.5 300,-30.5 300,-0.5 158,-0.5"/>
<text text-anchor="start" x="166" y="-18.5" font-family="Helvetica,sans-Serif" font-size="10.00">src/Riemann_solver</text>
<text text-anchor="middle" x="229" y="-7.5" font-family="Helvetica,sans-Serif" font-size="10.00">/linear_GRP_solver_LAG.c</text>
</a>
</g>
</g>
<!-- Node1&#45;&gt;Node3 -->
<g id="edge2" class="edge">
<title>Node1&#45;&gt;Node3</title>
<path fill="none" stroke="midnightblue" d="M393.95,-64.58C357.73,-54.02 311.65,-40.59 277.41,-30.61"/>
<polygon fill="midnightblue" stroke="midnightblue" points="393.31,-68.04 403.89,-67.48 395.27,-61.32 393.31,-68.04"/>
</g>
<!-- Node4 -->
<g id="node4" class="node">
<title>Node4</title>
<g id="a_node4"><a xlink:href="../../d5/d10/_g_r_p__solver___e_u_l__source_8c.html" target="_top" xlink:title="This is an Eulerian GRP scheme to solve 1&#45;D Euler equations.">
<polygon fill="white" stroke="black" points="318.5,-0.5 318.5,-30.5 443.5,-30.5 443.5,-0.5 318.5,-0.5"/>
<text text-anchor="start" x="326.5" y="-18.5" font-family="Helvetica,sans-Serif" font-size="10.00">src/finite_volume/GRP</text>
<text text-anchor="middle" x="381" y="-7.5" font-family="Helvetica,sans-Serif" font-size="10.00">_solver_EUL_source.c</text>
</a>
</g>
</g>
<!-- Node1&#45;&gt;Node4 -->
<g id="edge3" class="edge">
<title>Node1&#45;&gt;Node4</title>
<path fill="none" stroke="midnightblue" d="M429.17,-60.6C418.45,-50.78 405.95,-39.34 396.38,-30.58"/>
<polygon fill="midnightblue" stroke="midnightblue" points="426.85,-63.22 436.59,-67.4 431.58,-58.06 426.85,-63.22"/>
</g>
<!-- Node5 -->
<g id="node5" class="node">
<title>Node5</title>
<g id="a_node5"><a xlink:href="../../dd/dd7/_g_r_p__solver___l_a_g__source_8c.html" target="_top" xlink:title="This is a Lagrangian GRP scheme to solve 1&#45;D Euler equations.">
<polygon fill="white" stroke="black" points="461.5,-0.5 461.5,-30.5 586.5,-30.5 586.5,-0.5 461.5,-0.5"/>
<text text-anchor="start" x="469.5" y="-18.5" font-family="Helvetica,sans-Serif" font-size="10.00">src/finite_volume/GRP</text>
<text text-anchor="middle" x="524" y="-7.5" font-family="Helvetica,sans-Serif" font-size="10.00">_solver_LAG_source.c</text>
</a>
</g>
</g>
<!-- Node1&#45;&gt;Node5 -->
<g id="edge4" class="edge">
<title>Node1&#45;&gt;Node5</title>
<path fill="none" stroke="midnightblue" d="M475.15,-60.6C486.02,-50.78 498.7,-39.34 508.41,-30.58"/>
<polygon fill="midnightblue" stroke="midnightblue" points="472.7,-58.1 467.62,-67.4 477.39,-63.29 472.7,-58.1"/>
</g>
<!-- Node6 -->
<g id="node6" class="node">
<title>Node6</title>
<g id="a_node6"><a xlink:href="../../de/dd9/_godunov__solver___e_u_l__source_8c.html" target="_top" xlink:title="This is an Eulerian Godunov scheme to solve 1&#45;D Euler equations.">
<polygon fill="white" stroke="black" points="605,-0.5 605,-30.5 753,-30.5 753,-0.5 605,-0.5"/>
<text text-anchor="start" x="613" y="-18.5" font-family="Helvetica,sans-Serif" font-size="10.00">src/finite_volume/Godunov</text>
<text text-anchor="middle" x="679" y="-7.5" font-family="Helvetica,sans-Serif" font-size="10.00">_solver_EUL_source.c</text>
</a>
</g>
</g>
<!-- Node1&#45;&gt;Node6 -->
<g id="edge5" class="edge">
<title>Node1&#45;&gt;Node6</title>
<path fill="none" stroke="midnightblue" d="M510.62,-64.71C547.56,-54.14 594.71,-40.63 629.72,-30.61"/>
<polygon fill="midnightblue" stroke="midnightblue" points="509.63,-61.36 500.98,-67.48 511.55,-68.09 509.63,-61.36"/>
</g>
<!-- Node7 -->
<g id="node7" class="node">
<title>Node7</title>
<g id="a_node7"><a xlink:href="../../dd/d30/_godunov__solver___l_a_g__source_8c.html" target="_top" xlink:title="This is a Lagrangian Godunov scheme to solve 1&#45;D Euler equations.">
<polygon fill="white" stroke="black" points="771,-0.5 771,-30.5 919,-30.5 919,-0.5 771,-0.5"/>
<text text-anchor="start" x="779" y="-18.5" font-family="Helvetica,sans-Serif" font-size="10.00">src/finite_volume/Godunov</text>
<text text-anchor="middle" x="845" y="-7.5" font-family="Helvetica,sans-Serif" font-size="10.00">_solver_LAG_source.c</text>
</a>
</g>
</g>
<!-- Node1&#45;&gt;Node7 -->
<g id="edge6" class="edge">
<title>Node1&#45;&gt;Node7</title>
<path fill="none" stroke="midnightblue" d="M520.2,-70.62C583.04,-60.54 678.85,-45.03 762,-31 764.88,-30.51 767.83,-30.01 770.8,-29.51"/>
<polygon fill="midnightblue" stroke="midnightblue" points="519.34,-67.21 510.02,-72.25 520.45,-74.12 519.34,-67.21"/>
</g>
</g>
</svg>
