<?xml version="1.0" encoding="UTF-8" standalone="no"?>
<!DOCTYPE svg PUBLIC "-//W3C//DTD SVG 1.1//EN"
 "http://www.w3.org/Graphics/SVG/1.1/DTD/svg11.dtd">
<!-- Generated by graphviz version 5.0.0 (0)
 -->
<!-- Title: _2D_TEC_file_write Pages: 1 -->
<svg width="330pt" height="66pt"
 viewBox="0.00 0.00 330.00 66.00" xmlns="http://www.w3.org/2000/svg" xmlns:xlink="http://www.w3.org/1999/xlink">
<g id="graph0" class="graph" transform="scale(1 1) rotate(0) translate(4 62)">
<title>_2D_TEC_file_write</title>
<polygon fill="white" stroke="transparent" points="-4,4 -4,-62 326,-62 326,4 -4,4"/>
<!-- Node1 -->
<g id="node1" class="node">
<title>Node1</title>
<g id="a_node1"><a xlink:title="This function write the 2&#45;D solution into Tecplot output files.">
<polygon fill="#bfbfbf" stroke="black" points="0,-19.5 0,-38.5 110,-38.5 110,-19.5 0,-19.5"/>
<text text-anchor="middle" x="55" y="-26.5" font-family="Helvetica,sans-Serif" font-size="10.00">_2D_TEC_file_write</text>
</a>
</g>
</g>
<!-- Node2 -->
<g id="node2" class="node">
<title>Node2</title>
<g id="a_node2"><a xlink:href="../../d2/de0/config__handle_8c.html#a639a61ad0229b057258f8bc6edc4d050" target="_top" xlink:title=" ">
<polygon fill="white" stroke="black" points="146,-38.5 146,-57.5 223,-57.5 223,-38.5 146,-38.5"/>
<text text-anchor="middle" x="184.5" y="-45.5" font-family="Helvetica,sans-Serif" font-size="10.00">config_write</text>
</a>
</g>
</g>
<!-- Node1&#45;&gt;Node2 -->
<g id="edge1" class="edge">
<title>Node1&#45;&gt;Node2</title>
<path fill="none" stroke="midnightblue" d="M110.07,-37.06C118.66,-38.34 127.49,-39.65 135.91,-40.91"/>
<polygon fill="midnightblue" stroke="midnightblue" points="135.54,-44.39 145.95,-42.4 136.57,-37.47 135.54,-44.39"/>
</g>
<!-- Node3 -->
<g id="node3" class="node">
<title>Node3</title>
<g id="a_node3"><a xlink:href="../../d4/de5/io__control_8c.html#a7e039d23ca87a439fbe9c9d336447887" target="_top" xlink:title="This function produces folder path for data input or output.">
<polygon fill="white" stroke="black" points="147.5,-0.5 147.5,-19.5 221.5,-19.5 221.5,-0.5 147.5,-0.5"/>
<text text-anchor="middle" x="184.5" y="-7.5" font-family="Helvetica,sans-Serif" font-size="10.00">example_io</text>
</a>
</g>
</g>
<!-- Node1&#45;&gt;Node3 -->
<g id="edge2" class="edge">
<title>Node1&#45;&gt;Node3</title>
<path fill="none" stroke="midnightblue" d="M110.07,-20.94C119.15,-19.59 128.49,-18.2 137.34,-16.88"/>
<polygon fill="midnightblue" stroke="midnightblue" points="138.08,-20.31 147.46,-15.37 137.05,-13.38 138.08,-20.31"/>
</g>
<!-- Node4 -->
<g id="node4" class="node">
<title>Node4</title>
<g id="a_node4"><a xlink:href="../../d4/ddd/sys__pro_8c.html#a40a5faeb19b1fd9aec2c5c10a87faeb4" target="_top" xlink:title="This is a function that recursively creates folders.">
<polygon fill="white" stroke="black" points="259,-0.5 259,-19.5 322,-19.5 322,-0.5 259,-0.5"/>
<text text-anchor="middle" x="290.5" y="-7.5" font-family="Helvetica,sans-Serif" font-size="10.00">CreateDir</text>
</a>
</g>
</g>
<!-- Node3&#45;&gt;Node4 -->
<g id="edge3" class="edge">
<title>Node3&#45;&gt;Node4</title>
<path fill="none" stroke="midnightblue" d="M221.58,-10C230.27,-10 239.61,-10 248.5,-10"/>
<polygon fill="midnightblue" stroke="midnightblue" points="248.67,-13.5 258.67,-10 248.67,-6.5 248.67,-13.5"/>
</g>
</g>
</svg>
