<?xml version="1.0" encoding="UTF-8" standalone="no"?>
<!DOCTYPE svg PUBLIC "-//W3C//DTD SVG 1.1//EN"
 "http://www.w3.org/Graphics/SVG/1.1/DTD/svg11.dtd">
<!-- Generated by graphviz version 6.0.1 (0)
 -->
<!-- Title: GRP_solver_2D_split_EUL_source Pages: 1 -->
<svg width="832pt" height="218pt"
 viewBox="0.00 0.00 832.00 218.00" xmlns="http://www.w3.org/2000/svg" xmlns:xlink="http://www.w3.org/1999/xlink">
<g id="graph0" class="graph" transform="scale(1 1) rotate(0) translate(4 214)">
<title>GRP_solver_2D_split_EUL_source</title>
<polygon fill="white" stroke="none" points="-4,4 -4,-214 828,-214 828,4 -4,4"/>
<!-- Node1 -->
<g id="node1" class="node">
<title>Node1</title>
<g id="a_node1"><a xlink:title="This function use GRP scheme to solve 2&#45;D Euler equations of motion on Eulerian coordinate with dimen...">
<polygon fill="#bfbfbf" stroke="black" points="0,-90 0,-120 117,-120 117,-90 0,-90"/>
<text text-anchor="start" x="8" y="-108" font-family="Helvetica,sans-Serif" font-size="10.00">GRP_solver_2D_split</text>
<text text-anchor="middle" x="58.5" y="-97" font-family="Helvetica,sans-Serif" font-size="10.00">_EUL_source</text>
</a>
</g>
</g>
<!-- Node2 -->
<g id="node2" class="node">
<title>Node2</title>
<g id="a_node2"><a xlink:href="../../d8/d49/bound__cond__slope__limiter__x_8c.html#a93bebe7c69a9932a22ae8bfce51ab95c" target="_top" xlink:title="This function apply the minmod limiter to the slope in the x&#45;direction of two dimension.">
<polygon fill="white" stroke="black" points="153,-152.5 153,-171.5 308,-171.5 308,-152.5 153,-152.5"/>
<text text-anchor="middle" x="230.5" y="-159.5" font-family="Helvetica,sans-Serif" font-size="10.00">bound_cond_slope_limiter_x</text>
</a>
</g>
</g>
<!-- Node1&#45;&gt;Node2 -->
<g id="edge1" class="edge">
<title>Node1&#45;&gt;Node2</title>
<path fill="none" stroke="midnightblue" d="M93.26,-120.08C110.85,-127.59 132.84,-136.44 153,-143 160.5,-145.44 168.51,-147.75 176.4,-149.86"/>
<polygon fill="midnightblue" stroke="midnightblue" points="175.75,-153.3 186.31,-152.41 177.5,-146.52 175.75,-153.3"/>
</g>
<!-- Node6 -->
<g id="node6" class="node">
<title>Node6</title>
<g id="a_node6"><a xlink:href="../../d8/dbb/bound__cond__slope__limiter__y_8c.html#aaf0175f075a4b153d671c163bc8275b6" target="_top" xlink:title="This function apply the minmod limiter to the slope in the y&#45;direction of two dimension.">
<polygon fill="white" stroke="black" points="153,-190.5 153,-209.5 308,-209.5 308,-190.5 153,-190.5"/>
<text text-anchor="middle" x="230.5" y="-197.5" font-family="Helvetica,sans-Serif" font-size="10.00">bound_cond_slope_limiter_y</text>
</a>
</g>
</g>
<!-- Node1&#45;&gt;Node6 -->
<g id="edge5" class="edge">
<title>Node1&#45;&gt;Node6</title>
<path fill="none" stroke="midnightblue" d="M73.9,-120.2C91.12,-137.48 121.56,-165.3 153,-181 157.82,-183.41 162.97,-185.52 168.23,-187.38"/>
<polygon fill="midnightblue" stroke="midnightblue" points="167.18,-190.72 177.77,-190.45 169.32,-184.06 167.18,-190.72"/>
</g>
<!-- Node8 -->
<g id="node8" class="node">
<title>Node8</title>
<g id="a_node8"><a xlink:href="../../d4/ddd/sys__pro_8c.html#aab058cac35713b52c083b9e54ffa45eb" target="_top" xlink:title="This function print a progress bar on one line of standard output.">
<polygon fill="white" stroke="black" points="203.5,-114.5 203.5,-133.5 257.5,-133.5 257.5,-114.5 203.5,-114.5"/>
<text text-anchor="middle" x="230.5" y="-121.5" font-family="Helvetica,sans-Serif" font-size="10.00">DispPro</text>
</a>
</g>
</g>
<!-- Node1&#45;&gt;Node8 -->
<g id="edge9" class="edge">
<title>Node1&#45;&gt;Node8</title>
<path fill="none" stroke="midnightblue" d="M117.05,-111.43C142.33,-114.26 171.24,-117.49 193.42,-119.97"/>
<polygon fill="midnightblue" stroke="midnightblue" points="193.08,-123.45 203.4,-121.08 193.85,-116.49 193.08,-123.45"/>
</g>
<!-- Node9 -->
<g id="node9" class="node">
<title>Node9</title>
<g id="a_node9"><a xlink:href="../../d7/d20/file__2_d__out_8c.html#ad420018a322081934dd8f2853f5a535d" target="_top" xlink:title="This function write the 2&#45;D solution into Tecplot output files with point data.">
<polygon fill="white" stroke="black" points="160.5,-76.5 160.5,-95.5 300.5,-95.5 300.5,-76.5 160.5,-76.5"/>
<text text-anchor="middle" x="230.5" y="-83.5" font-family="Helvetica,sans-Serif" font-size="10.00">file_2D_write_POINT_TEC</text>
</a>
</g>
</g>
<!-- Node1&#45;&gt;Node9 -->
<g id="edge10" class="edge">
<title>Node1&#45;&gt;Node9</title>
<path fill="none" stroke="midnightblue" d="M117.05,-98.57C127.67,-97.38 138.93,-96.12 150.07,-94.88"/>
<polygon fill="midnightblue" stroke="midnightblue" points="150.68,-98.33 160.23,-93.74 149.91,-91.37 150.68,-98.33"/>
</g>
<!-- Node12 -->
<g id="node12" class="node">
<title>Node12</title>
<g id="a_node12"><a xlink:href="../../de/d35/flux__generator__x_8c.html#a99d3c20c9f68680b85415265ecd67b60" target="_top" xlink:title="This function calculate Eulerian fluxes of 2&#45;D Euler equations in x&#45;direction by 2&#45;D GRP solver.">
<polygon fill="white" stroke="black" points="181,-38.5 181,-57.5 280,-57.5 280,-38.5 181,-38.5"/>
<text text-anchor="middle" x="230.5" y="-45.5" font-family="Helvetica,sans-Serif" font-size="10.00">flux_generator_x</text>
</a>
</g>
</g>
<!-- Node1&#45;&gt;Node12 -->
<g id="edge13" class="edge">
<title>Node1&#45;&gt;Node12</title>
<path fill="none" stroke="midnightblue" d="M93.26,-89.92C110.85,-82.41 132.84,-73.56 153,-67 160.5,-64.56 168.51,-62.25 176.4,-60.14"/>
<polygon fill="midnightblue" stroke="midnightblue" points="177.5,-63.48 186.31,-57.59 175.75,-56.7 177.5,-63.48"/>
</g>
<!-- Node18 -->
<g id="node18" class="node">
<title>Node18</title>
<g id="a_node18"><a xlink:href="../../de/db1/flux__generator__y_8c.html#a964701ac9bd65f6b19c3c731e983d562" target="_top" xlink:title="This function calculate Eulerian fluxes of 2&#45;D Euler equations in y&#45;direction by 2&#45;D GRP solver.">
<polygon fill="white" stroke="black" points="181,-0.5 181,-19.5 280,-19.5 280,-0.5 181,-0.5"/>
<text text-anchor="middle" x="230.5" y="-7.5" font-family="Helvetica,sans-Serif" font-size="10.00">flux_generator_y</text>
</a>
</g>
</g>
<!-- Node1&#45;&gt;Node18 -->
<g id="edge19" class="edge">
<title>Node1&#45;&gt;Node18</title>
<path fill="none" stroke="midnightblue" d="M73.9,-89.8C91.12,-72.52 121.56,-44.7 153,-29 158.62,-26.19 164.69,-23.78 170.87,-21.71"/>
<polygon fill="midnightblue" stroke="midnightblue" points="172.06,-25.01 180.6,-18.74 170.02,-18.31 172.06,-25.01"/>
</g>
<!-- Node3 -->
<g id="node3" class="node">
<title>Node3</title>
<g id="a_node3"><a xlink:href="../../d7/d36/slope__limiter__2_d__x_8c.html#a28623a6705c28efd5d34c57409c54678" target="_top" xlink:title="This function apply the minmod limiter to the slope in the x&#45;direction of two dimension.">
<polygon fill="white" stroke="black" points="344,-152.5 344,-171.5 469,-171.5 469,-152.5 344,-152.5"/>
<text text-anchor="middle" x="406.5" y="-159.5" font-family="Helvetica,sans-Serif" font-size="10.00">minmod_limiter_2D_x</text>
</a>
</g>
</g>
<!-- Node2&#45;&gt;Node3 -->
<g id="edge2" class="edge">
<title>Node2&#45;&gt;Node3</title>
<path fill="none" stroke="midnightblue" d="M308.07,-162C316.56,-162 325.19,-162 333.62,-162"/>
<polygon fill="midnightblue" stroke="midnightblue" points="333.78,-165.5 343.78,-162 333.78,-158.5 333.78,-165.5"/>
</g>
<!-- Node4 -->
<g id="node4" class="node">
<title>Node4</title>
<g id="a_node4"><a xlink:href="../../d5/da5/tools_8h.html#a56cac3298eeead8cf22c1e61eb5a5a88" target="_top" xlink:title="Minmod limiter function of two variables.">
<polygon fill="white" stroke="black" points="551,-152.5 551,-171.5 614,-171.5 614,-152.5 551,-152.5"/>
<text text-anchor="middle" x="582.5" y="-159.5" font-family="Helvetica,sans-Serif" font-size="10.00">minmod2</text>
</a>
</g>
</g>
<!-- Node3&#45;&gt;Node4 -->
<g id="edge3" class="edge">
<title>Node3&#45;&gt;Node4</title>
<path fill="none" stroke="midnightblue" d="M469.34,-162C492.9,-162 519.16,-162 540.34,-162"/>
<polygon fill="midnightblue" stroke="midnightblue" points="540.61,-165.5 550.61,-162 540.61,-158.5 540.61,-165.5"/>
</g>
<!-- Node5 -->
<g id="node5" class="node">
<title>Node5</title>
<g id="a_node5"><a xlink:href="../../d5/da5/tools_8h.html#a6dfba28e1af33b47f4656d3738996fe9" target="_top" xlink:title="Minmod limiter function of three variables.">
<polygon fill="white" stroke="black" points="551,-190.5 551,-209.5 614,-209.5 614,-190.5 551,-190.5"/>
<text text-anchor="middle" x="582.5" y="-197.5" font-family="Helvetica,sans-Serif" font-size="10.00">minmod3</text>
</a>
</g>
</g>
<!-- Node3&#45;&gt;Node5 -->
<g id="edge4" class="edge">
<title>Node3&#45;&gt;Node5</title>
<path fill="none" stroke="midnightblue" d="M451.41,-171.59C478.9,-177.59 514.08,-185.28 540.92,-191.14"/>
<polygon fill="midnightblue" stroke="midnightblue" points="540.25,-194.57 550.77,-193.29 541.74,-187.74 540.25,-194.57"/>
</g>
<!-- Node7 -->
<g id="node7" class="node">
<title>Node7</title>
<g id="a_node7"><a xlink:href="../../d2/d49/slope__limiter_8c.html#aa63cbccebc0f88cf7397d2e594a861ae" target="_top" xlink:title="This function apply the minmod limiter to the slope in one dimension.">
<polygon fill="white" stroke="black" points="359,-190.5 359,-209.5 454,-209.5 454,-190.5 359,-190.5"/>
<text text-anchor="middle" x="406.5" y="-197.5" font-family="Helvetica,sans-Serif" font-size="10.00">minmod_limiter</text>
</a>
</g>
</g>
<!-- Node6&#45;&gt;Node7 -->
<g id="edge6" class="edge">
<title>Node6&#45;&gt;Node7</title>
<path fill="none" stroke="midnightblue" d="M308.07,-200C321.74,-200 335.76,-200 348.75,-200"/>
<polygon fill="midnightblue" stroke="midnightblue" points="348.92,-203.5 358.92,-200 348.92,-196.5 348.92,-203.5"/>
</g>
<!-- Node7&#45;&gt;Node4 -->
<g id="edge7" class="edge">
<title>Node7&#45;&gt;Node4</title>
<path fill="none" stroke="midnightblue" d="M451.41,-190.41C478.9,-184.41 514.08,-176.72 540.92,-170.86"/>
<polygon fill="midnightblue" stroke="midnightblue" points="541.74,-174.26 550.77,-168.71 540.25,-167.43 541.74,-174.26"/>
</g>
<!-- Node7&#45;&gt;Node5 -->
<g id="edge8" class="edge">
<title>Node7&#45;&gt;Node5</title>
<path fill="none" stroke="midnightblue" d="M454.13,-200C481.11,-200 514.76,-200 540.69,-200"/>
<polygon fill="midnightblue" stroke="midnightblue" points="540.93,-203.5 550.93,-200 540.93,-196.5 540.93,-203.5"/>
</g>
<!-- Node10 -->
<g id="node10" class="node">
<title>Node10</title>
<g id="a_node10"><a xlink:href="../../d4/de5/io__control_8c.html#a7e039d23ca87a439fbe9c9d336447887" target="_top" xlink:title="This function produces folder path for data input or output.">
<polygon fill="white" stroke="black" points="369.5,-76.5 369.5,-95.5 443.5,-95.5 443.5,-76.5 369.5,-76.5"/>
<text text-anchor="middle" x="406.5" y="-83.5" font-family="Helvetica,sans-Serif" font-size="10.00">example_io</text>
</a>
</g>
</g>
<!-- Node9&#45;&gt;Node10 -->
<g id="edge11" class="edge">
<title>Node9&#45;&gt;Node10</title>
<path fill="none" stroke="midnightblue" d="M300.52,-86C320.19,-86 341.14,-86 359.11,-86"/>
<polygon fill="midnightblue" stroke="midnightblue" points="359.32,-89.5 369.32,-86 359.32,-82.5 359.32,-89.5"/>
</g>
<!-- Node11 -->
<g id="node11" class="node">
<title>Node11</title>
<g id="a_node11"><a xlink:href="../../d4/ddd/sys__pro_8c.html#a40a5faeb19b1fd9aec2c5c10a87faeb4" target="_top" xlink:title="This is a function that recursively creates folders.">
<polygon fill="white" stroke="black" points="551,-76.5 551,-95.5 614,-95.5 614,-76.5 551,-76.5"/>
<text text-anchor="middle" x="582.5" y="-83.5" font-family="Helvetica,sans-Serif" font-size="10.00">CreateDir</text>
</a>
</g>
</g>
<!-- Node10&#45;&gt;Node11 -->
<g id="edge12" class="edge">
<title>Node10&#45;&gt;Node11</title>
<path fill="none" stroke="midnightblue" d="M443.55,-86C471.75,-86 510.96,-86 540.37,-86"/>
<polygon fill="midnightblue" stroke="midnightblue" points="540.73,-89.5 550.73,-86 540.73,-82.5 540.73,-89.5"/>
</g>
<!-- Node13 -->
<g id="node13" class="node">
<title>Node13</title>
<g id="a_node13"><a xlink:href="../../d5/d55/flux__solver_8c.html#a49938584f813ee4c3756f8aba45325de" target="_top" xlink:title="This function calculate Eulerian fluxes of 2&#45;D Euler equations by 2&#45;D GRP solver.">
<polygon fill="white" stroke="black" points="366.5,-0.5 366.5,-19.5 446.5,-19.5 446.5,-0.5 366.5,-0.5"/>
<text text-anchor="middle" x="406.5" y="-7.5" font-family="Helvetica,sans-Serif" font-size="10.00">GRP_2D_flux</text>
</a>
</g>
</g>
<!-- Node12&#45;&gt;Node13 -->
<g id="edge14" class="edge">
<title>Node12&#45;&gt;Node13</title>
<path fill="none" stroke="midnightblue" d="M275.41,-38.41C300.12,-33.01 331.03,-26.26 356.52,-20.7"/>
<polygon fill="midnightblue" stroke="midnightblue" points="357.33,-24.1 366.36,-18.55 355.84,-17.26 357.33,-24.1"/>
</g>
<!-- Node17 -->
<g id="node17" class="node">
<title>Node17</title>
<g id="a_node17"><a xlink:href="../../d7/d5a/fluid__var__check_8c.html#a29ead600b8eb62cb272068d83dadcc46" target="_top" xlink:title="This function checks whether interfacial fluid variables are within the value range.">
<polygon fill="white" stroke="black" points="370,-38.5 370,-57.5 443,-57.5 443,-38.5 370,-38.5"/>
<text text-anchor="middle" x="406.5" y="-45.5" font-family="Helvetica,sans-Serif" font-size="10.00">ifvar_check</text>
</a>
</g>
</g>
<!-- Node12&#45;&gt;Node17 -->
<g id="edge18" class="edge">
<title>Node12&#45;&gt;Node17</title>
<path fill="none" stroke="midnightblue" d="M280.43,-48C305.32,-48 335.39,-48 359.81,-48"/>
<polygon fill="midnightblue" stroke="midnightblue" points="359.89,-51.5 369.89,-48 359.89,-44.5 359.89,-51.5"/>
</g>
<!-- Node14 -->
<g id="node14" class="node">
<title>Node14</title>
<g id="a_node14"><a xlink:href="../../db/dd1/linear__grp__solver___edir___q1_d_8c.html#accd0c08406f5ddb935beb15b9cf87865" target="_top" xlink:title="A Quasi&#45;1D direct Eulerian GRP solver for unsteady compressible inviscid two&#45;component flow in two sp...">
<polygon fill="white" stroke="black" points="505,-0.5 505,-19.5 660,-19.5 660,-0.5 505,-0.5"/>
<text text-anchor="middle" x="582.5" y="-7.5" font-family="Helvetica,sans-Serif" font-size="10.00">linear_GRP_solver_Edir_Q1D</text>
</a>
</g>
</g>
<!-- Node13&#45;&gt;Node14 -->
<g id="edge15" class="edge">
<title>Node13&#45;&gt;Node14</title>
<path fill="none" stroke="midnightblue" d="M446.55,-10C460.82,-10 477.6,-10 494.38,-10"/>
<polygon fill="midnightblue" stroke="midnightblue" points="494.81,-13.5 504.81,-10 494.81,-6.5 494.81,-13.5"/>
</g>
<!-- Node16 -->
<g id="node16" class="node">
<title>Node16</title>
<g id="a_node16"><a xlink:href="../../d7/d5a/fluid__var__check_8c.html#a0177056576942ce464bb53db4dcb5138" target="_top" xlink:title="This function checks whether fluid variables of mid[] and dire[] are within the value range.">
<polygon fill="white" stroke="black" points="536,-38.5 536,-57.5 629,-57.5 629,-38.5 536,-38.5"/>
<text text-anchor="middle" x="582.5" y="-45.5" font-family="Helvetica,sans-Serif" font-size="10.00">star_dire_check</text>
</a>
</g>
</g>
<!-- Node13&#45;&gt;Node16 -->
<g id="edge17" class="edge">
<title>Node13&#45;&gt;Node16</title>
<path fill="none" stroke="midnightblue" d="M446.55,-18.53C470.63,-23.79 501.83,-30.6 528.17,-36.35"/>
<polygon fill="midnightblue" stroke="midnightblue" points="527.48,-39.78 538,-38.5 528.97,-32.95 527.48,-39.78"/>
</g>
<!-- Node15 -->
<g id="node15" class="node">
<title>Node15</title>
<g id="a_node15"><a xlink:href="../../d0/d08/riemann__solver__exact___ben_8c.html#a3ad58b11c355d45ee406da49161edbd4" target="_top" xlink:title="EXACT RIEMANN SOLVER FOR Two&#45;Component γ&#45;Law Gas">
<polygon fill="white" stroke="black" points="696,-0.5 696,-19.5 824,-19.5 824,-0.5 696,-0.5"/>
<text text-anchor="middle" x="760" y="-7.5" font-family="Helvetica,sans-Serif" font-size="10.00">Riemann_solver_exact</text>
</a>
</g>
</g>
<!-- Node14&#45;&gt;Node15 -->
<g id="edge16" class="edge">
<title>Node14&#45;&gt;Node15</title>
<path fill="none" stroke="midnightblue" d="M660.22,-10C668.68,-10 677.28,-10 685.69,-10"/>
<polygon fill="midnightblue" stroke="midnightblue" points="685.85,-13.5 695.85,-10 685.85,-6.5 685.85,-13.5"/>
</g>
<!-- Node18&#45;&gt;Node13 -->
<g id="edge20" class="edge">
<title>Node18&#45;&gt;Node13</title>
<path fill="none" stroke="midnightblue" d="M280.43,-10C304.07,-10 332.39,-10 356.09,-10"/>
<polygon fill="midnightblue" stroke="midnightblue" points="356.28,-13.5 366.28,-10 356.28,-6.5 356.28,-13.5"/>
</g>
<!-- Node18&#45;&gt;Node17 -->
<g id="edge21" class="edge">
<title>Node18&#45;&gt;Node17</title>
<path fill="none" stroke="midnightblue" d="M275.41,-19.59C301.18,-25.22 333.71,-32.32 359.79,-38.02"/>
<polygon fill="midnightblue" stroke="midnightblue" points="359.29,-41.49 369.8,-40.2 360.78,-34.65 359.29,-41.49"/>
</g>
</g>
</svg>
