<?xml version="1.0" encoding="UTF-8" standalone="no"?>
<!DOCTYPE svg PUBLIC "-//W3C//DTD SVG 1.1//EN"
 "http://www.w3.org/Graphics/SVG/1.1/DTD/svg11.dtd">
<!-- Generated by graphviz version 5.0.0 (0)
 -->
<!-- Title: config_check Pages: 1 -->
<svg width="392pt" height="28pt"
 viewBox="0.00 0.00 392.00 28.00" xmlns="http://www.w3.org/2000/svg" xmlns:xlink="http://www.w3.org/1999/xlink">
<g id="graph0" class="graph" transform="scale(1 1) rotate(0) translate(4 24)">
<title>config_check</title>
<polygon fill="white" stroke="transparent" points="-4,4 -4,-24 388,-24 388,4 -4,4"/>
<!-- Node1 -->
<g id="node1" class="node">
<title>Node1</title>
<g id="a_node1"><a xlink:title="This function check whether the configuration data is reasonable and set the default.">
<polygon fill="#bfbfbf" stroke="black" points="304,-0.5 304,-19.5 384,-19.5 384,-0.5 304,-0.5"/>
<text text-anchor="middle" x="344" y="-7.5" font-family="Helvetica,sans-Serif" font-size="10.00">config_check</text>
</a>
</g>
</g>
<!-- Node2 -->
<g id="node2" class="node">
<title>Node2</title>
<g id="a_node2"><a xlink:href="../../da/d8c/config__in_8c.html#a4b15e37e2922cce20bf5cc8bb6e80c9a" target="_top" xlink:title="This function controls configuration data reading and validation.">
<polygon fill="white" stroke="black" points="196,-0.5 196,-19.5 268,-19.5 268,-0.5 196,-0.5"/>
<text text-anchor="middle" x="232" y="-7.5" font-family="Helvetica,sans-Serif" font-size="10.00">configurate</text>
</a>
</g>
</g>
<!-- Node1&#45;&gt;Node2 -->
<g id="edge1" class="edge">
<title>Node1&#45;&gt;Node2</title>
<path fill="none" stroke="midnightblue" d="M293.64,-10C285.1,-10 276.37,-10 268.3,-10"/>
<polygon fill="midnightblue" stroke="midnightblue" points="293.91,-13.5 303.91,-10 293.91,-6.5 293.91,-13.5"/>
</g>
<!-- Node3 -->
<g id="node3" class="node">
<title>Node3</title>
<g id="a_node3"><a xlink:href="../../dd/d92/__1_d__file__in_8c.html#a1f8819303b1d8d11879aed890bc0f29e" target="_top" xlink:title="This function reads the 1D initial data file of velocity/pressure/density.">
<polygon fill="white" stroke="black" points="77,-0.5 77,-19.5 160,-19.5 160,-0.5 77,-0.5"/>
<text text-anchor="middle" x="118.5" y="-7.5" font-family="Helvetica,sans-Serif" font-size="10.00">_1D_initialize</text>
</a>
</g>
</g>
<!-- Node2&#45;&gt;Node3 -->
<g id="edge2" class="edge">
<title>Node2&#45;&gt;Node3</title>
<path fill="none" stroke="midnightblue" d="M185.71,-10C177.33,-10 168.63,-10 160.39,-10"/>
<polygon fill="midnightblue" stroke="midnightblue" points="185.72,-13.5 195.72,-10 185.72,-6.5 185.72,-13.5"/>
</g>
<!-- Node4 -->
<g id="node4" class="node">
<title>Node4</title>
<g id="a_node4"><a xlink:href="../../d2/d24/hydrocode_8c.html#a0ddf1224851353fc92bfbff6f499fa97" target="_top" xlink:title="This is the main function which constructs the main structure of the Lagrangian/Eulerian hydrocode.">
<polygon fill="white" stroke="black" points="0,-0.5 0,-19.5 41,-19.5 41,-0.5 0,-0.5"/>
<text text-anchor="middle" x="20.5" y="-7.5" font-family="Helvetica,sans-Serif" font-size="10.00">main</text>
</a>
</g>
</g>
<!-- Node3&#45;&gt;Node4 -->
<g id="edge3" class="edge">
<title>Node3&#45;&gt;Node4</title>
<path fill="none" stroke="midnightblue" d="M66.56,-10C57.5,-10 48.58,-10 41.09,-10"/>
<polygon fill="midnightblue" stroke="midnightblue" points="66.79,-13.5 76.79,-10 66.79,-6.5 66.79,-13.5"/>
</g>
</g>
</svg>
