<?xml version="1.0" encoding="UTF-8" standalone="no"?>
<!DOCTYPE svg PUBLIC "-//W3C//DTD SVG 1.1//EN"
 "http://www.w3.org/Graphics/SVG/1.1/DTD/svg11.dtd">
<!-- Generated by graphviz version 6.0.1 (0)
 -->
<!-- Title: src~/src_cii/except.c Pages: 1 -->
<svg width="344pt" height="140pt"
 viewBox="0.00 0.00 343.50 140.00" xmlns="http://www.w3.org/2000/svg" xmlns:xlink="http://www.w3.org/1999/xlink">
<g id="graph0" class="graph" transform="scale(1 1) rotate(0) translate(4 136)">
<title>src~/src_cii/except.c</title>
<polygon fill="white" stroke="none" points="-4,4 -4,-136 339.5,-136 339.5,4 -4,4"/>
<!-- Node1 -->
<g id="node1" class="node">
<title>Node1</title>
<g id="a_node1"><a xlink:title="This file is the source codes in the book &#39;C Interfaces and Implementations&#39;.">
<polygon fill="#bfbfbf" stroke="black" points="73,-112.5 73,-131.5 190,-131.5 190,-112.5 73,-112.5"/>
<text text-anchor="middle" x="131.5" y="-119.5" font-family="Helvetica,sans-Serif" font-size="10.00">src~/src_cii/except.c</text>
</a>
</g>
</g>
<!-- Node2 -->
<g id="node2" class="node">
<title>Node2</title>
<g id="a_node2"><a xlink:title=" ">
<polygon fill="white" stroke="#bfbfbf" points="0,-56.5 0,-75.5 53,-75.5 53,-56.5 0,-56.5"/>
<text text-anchor="middle" x="26.5" y="-63.5" font-family="Helvetica,sans-Serif" font-size="10.00">stdlib.h</text>
</a>
</g>
</g>
<!-- Node1&#45;&gt;Node2 -->
<g id="edge1" class="edge">
<title>Node1&#45;&gt;Node2</title>
<path fill="none" stroke="midnightblue" d="M114.63,-112.32C97.79,-103.66 71.69,-90.24 52.26,-80.25"/>
<polygon fill="midnightblue" stroke="midnightblue" points="53.82,-77.12 43.33,-75.65 50.62,-83.34 53.82,-77.12"/>
</g>
<!-- Node3 -->
<g id="node3" class="node">
<title>Node3</title>
<g id="a_node3"><a xlink:title=" ">
<polygon fill="white" stroke="#bfbfbf" points="71.5,-56.5 71.5,-75.5 121.5,-75.5 121.5,-56.5 71.5,-56.5"/>
<text text-anchor="middle" x="96.5" y="-63.5" font-family="Helvetica,sans-Serif" font-size="10.00">stdio.h</text>
</a>
</g>
</g>
<!-- Node1&#45;&gt;Node3 -->
<g id="edge2" class="edge">
<title>Node1&#45;&gt;Node3</title>
<path fill="none" stroke="midnightblue" d="M125.72,-112.08C120.83,-104.53 113.67,-93.49 107.67,-84.23"/>
<polygon fill="midnightblue" stroke="midnightblue" points="110.55,-82.24 102.17,-75.75 104.67,-86.05 110.55,-82.24"/>
</g>
<!-- Node4 -->
<g id="node4" class="node">
<title>Node4</title>
<g id="a_node4"><a xlink:title=" ">
<polygon fill="white" stroke="#bfbfbf" points="139.5,-56.5 139.5,-75.5 195.5,-75.5 195.5,-56.5 139.5,-56.5"/>
<text text-anchor="middle" x="167.5" y="-63.5" font-family="Helvetica,sans-Serif" font-size="10.00">assert.h</text>
</a>
</g>
</g>
<!-- Node1&#45;&gt;Node4 -->
<g id="edge3" class="edge">
<title>Node1&#45;&gt;Node4</title>
<path fill="none" stroke="midnightblue" d="M137.44,-112.08C142.48,-104.53 149.84,-93.49 156.01,-84.23"/>
<polygon fill="midnightblue" stroke="midnightblue" points="159.03,-86.01 161.67,-75.75 153.21,-82.13 159.03,-86.01"/>
</g>
<!-- Node5 -->
<g id="node5" class="node">
<title>Node5</title>
<g id="a_node5"><a xlink:href="../../dc/d65/except_8h.html" target="_top" xlink:title="This file is a header file of source codes in the book &#39;C Interfaces and Implementations&#39;.">
<polygon fill="white" stroke="black" points="213.5,-56.5 213.5,-75.5 335.5,-75.5 335.5,-56.5 213.5,-56.5"/>
<text text-anchor="middle" x="274.5" y="-63.5" font-family="Helvetica,sans-Serif" font-size="10.00">../include_cii/except.h</text>
</a>
</g>
</g>
<!-- Node1&#45;&gt;Node5 -->
<g id="edge4" class="edge">
<title>Node1&#45;&gt;Node5</title>
<path fill="none" stroke="midnightblue" d="M154.16,-112.44C177.9,-103.48 215.41,-89.31 242.24,-79.18"/>
<polygon fill="midnightblue" stroke="midnightblue" points="243.83,-82.32 251.95,-75.52 241.36,-75.77 243.83,-82.32"/>
</g>
<!-- Node6 -->
<g id="node6" class="node">
<title>Node6</title>
<g id="a_node6"><a xlink:title=" ">
<polygon fill="white" stroke="#bfbfbf" points="245,-0.5 245,-19.5 304,-19.5 304,-0.5 245,-0.5"/>
<text text-anchor="middle" x="274.5" y="-7.5" font-family="Helvetica,sans-Serif" font-size="10.00">setjmp.h</text>
</a>
</g>
</g>
<!-- Node5&#45;&gt;Node6 -->
<g id="edge5" class="edge">
<title>Node5&#45;&gt;Node6</title>
<path fill="none" stroke="midnightblue" d="M274.5,-56.08C274.5,-49.01 274.5,-38.86 274.5,-29.99"/>
<polygon fill="midnightblue" stroke="midnightblue" points="278,-29.75 274.5,-19.75 271,-29.75 278,-29.75"/>
</g>
</g>
</svg>
