<?xml version="1.0" encoding="UTF-8" standalone="no"?>
<!DOCTYPE svg PUBLIC "-//W3C//DTD SVG 1.1//EN"
 "http://www.w3.org/Graphics/SVG/1.1/DTD/svg11.dtd">
<!-- Generated by graphviz version 6.0.1 (0)
 -->
<!-- Title: src~/src_cii Pages: 1 -->
<svg width="108pt" height="167pt"
 viewBox="0.00 0.00 108.00 167.00" xmlns="http://www.w3.org/2000/svg" xmlns:xlink="http://www.w3.org/1999/xlink">
<g id="graph0" class="graph" transform="scale(1 1) rotate(0) translate(4 163)">
<title>src~/src_cii</title>
<polygon fill="white" stroke="none" points="-4,4 -4,-163 104,-163 104,4 -4,4"/>
<g id="clust1" class="cluster">
<title>clusterdir_6771aafbf413a5638c4e561417caddb9</title>
<g id="a_clust1"><a xlink:href="dir_6771aafbf413a5638c4e561417caddb9.html" target="_top" xlink:title="src~">
<polygon fill="#edf0f7" stroke="#404040" stroke-dasharray="5,2" points="8,-8 8,-151 92,-151 92,-8 8,-8"/>
<text text-anchor="middle" x="50" y="-139" font-family="Helvetica,sans-Serif" font-size="10.00">src~</text>
</a>
</g>
</g>
<!-- dir_9d9130b3691fae8de17759ed0feecb0a -->
<g id="node1" class="node">
<title>dir_9d9130b3691fae8de17759ed0feecb0a</title>
<g id="a_node1"><a xlink:href="dir_9d9130b3691fae8de17759ed0feecb0a.html" target="_top" xlink:title="include_cii">
<polygon fill="#a2b4d6" stroke="#404040" points="84,-52 16,-52 16,-16 84,-16 84,-52"/>
<text text-anchor="middle" x="50" y="-31.5" font-family="Helvetica,sans-Serif" font-size="10.00">include_cii</text>
</a>
</g>
</g>
<!-- dir_b5d802adad3896fde70ce442bbd182b6 -->
<g id="node2" class="node">
<title>dir_b5d802adad3896fde70ce442bbd182b6</title>
<g id="a_node2"><a xlink:href="dir_b5d802adad3896fde70ce442bbd182b6.html" target="_top" xlink:title="src_cii">
<polygon fill="#edf0f7" stroke="#404040" stroke-width="2" points="77,-124 23,-124 23,-88 77,-88 77,-124"/>
<text text-anchor="middle" x="50" y="-103.5" font-family="Helvetica,sans-Serif" font-size="10.00">src_cii</text>
</a>
</g>
</g>
<!-- dir_b5d802adad3896fde70ce442bbd182b6&#45;&gt;dir_9d9130b3691fae8de17759ed0feecb0a -->
<g id="edge1" class="edge">
<title>dir_b5d802adad3896fde70ce442bbd182b6&#45;&gt;dir_9d9130b3691fae8de17759ed0feecb0a</title>
<path fill="none" stroke="black" d="M50,-87.7C50,-79.98 50,-70.71 50,-62.11"/>
<polygon fill="black" stroke="black" points="53.5,-62.1 50,-52.1 46.5,-62.1 53.5,-62.1"/>
<g id="a_edge1&#45;headlabel"><a xlink:href="dir_000010_000004.html" target="_top" xlink:title="3">
<text text-anchor="middle" x="56.34" y="-63.2" font-family="Helvetica,sans-Serif" font-size="10.00">3</text>
</a>
</g>
</g>
</g>
</svg>
