<?xml version="1.0" encoding="UTF-8" standalone="no"?>
<!DOCTYPE svg PUBLIC "-//W3C//DTD SVG 1.1//EN"
 "http://www.w3.org/Graphics/SVG/1.1/DTD/svg11.dtd">
<!-- Generated by graphviz version 6.0.1 (0)
 -->
<!-- Title: src~/meshing Pages: 1 -->
<svg width="180pt" height="167pt"
 viewBox="0.00 0.00 180.00 167.00" xmlns="http://www.w3.org/2000/svg" xmlns:xlink="http://www.w3.org/1999/xlink">
<g id="graph0" class="graph" transform="scale(1 1) rotate(0) translate(4 163)">
<title>src~/meshing</title>
<polygon fill="white" stroke="none" points="-4,4 -4,-163 176,-163 176,4 -4,4"/>
<g id="clust1" class="cluster">
<title>clusterdir_6771aafbf413a5638c4e561417caddb9</title>
<g id="a_clust1"><a xlink:href="dir_6771aafbf413a5638c4e561417caddb9.html" target="_top" xlink:title="src~">
<polygon fill="#edf0f7" stroke="#404040" stroke-dasharray="5,2" points="8,-8 8,-151 164,-151 164,-8 8,-8"/>
<text text-anchor="middle" x="86" y="-139" font-family="Helvetica,sans-Serif" font-size="10.00">src~</text>
</a>
</g>
</g>
<!-- dir_0aa4ecdbc965570bd87fb4da401df2c8 -->
<g id="node1" class="node">
<title>dir_0aa4ecdbc965570bd87fb4da401df2c8</title>
<g id="a_node1"><a xlink:href="dir_0aa4ecdbc965570bd87fb4da401df2c8.html" target="_top" xlink:title="include">
<polygon fill="#a2b4d6" stroke="#404040" points="70,-52 16,-52 16,-16 70,-16 70,-52"/>
<text text-anchor="middle" x="43" y="-31.5" font-family="Helvetica,sans-Serif" font-size="10.00">include</text>
</a>
</g>
</g>
<!-- dir_9d9130b3691fae8de17759ed0feecb0a -->
<g id="node2" class="node">
<title>dir_9d9130b3691fae8de17759ed0feecb0a</title>
<g id="a_node2"><a xlink:href="dir_9d9130b3691fae8de17759ed0feecb0a.html" target="_top" xlink:title="include_cii">
<polygon fill="#a2b4d6" stroke="#404040" points="156,-52 88,-52 88,-16 156,-16 156,-52"/>
<text text-anchor="middle" x="122" y="-31.5" font-family="Helvetica,sans-Serif" font-size="10.00">include_cii</text>
</a>
</g>
</g>
<!-- dir_2630618ef3a05b190a35bccf01576d8f -->
<g id="node3" class="node">
<title>dir_2630618ef3a05b190a35bccf01576d8f</title>
<g id="a_node3"><a xlink:href="dir_2630618ef3a05b190a35bccf01576d8f.html" target="_top" xlink:title="meshing">
<polygon fill="#edf0f7" stroke="#404040" stroke-width="2" points="113.5,-124 54.5,-124 54.5,-88 113.5,-88 113.5,-124"/>
<text text-anchor="middle" x="84" y="-103.5" font-family="Helvetica,sans-Serif" font-size="10.00">meshing</text>
</a>
</g>
</g>
<!-- dir_2630618ef3a05b190a35bccf01576d8f&#45;&gt;dir_0aa4ecdbc965570bd87fb4da401df2c8 -->
<g id="edge1" class="edge">
<title>dir_2630618ef3a05b190a35bccf01576d8f&#45;&gt;dir_0aa4ecdbc965570bd87fb4da401df2c8</title>
<path fill="none" stroke="black" d="M73.87,-87.7C69.15,-79.64 63.44,-69.89 58.22,-60.98"/>
<polygon fill="black" stroke="black" points="61.09,-58.96 53.02,-52.1 55.05,-62.5 61.09,-58.96"/>
<g id="a_edge1&#45;headlabel"><a xlink:href="dir_000008_000003.html" target="_top" xlink:title="1">
<text text-anchor="middle" x="65.36" y="-58.13" font-family="Helvetica,sans-Serif" font-size="10.00">1</text>
</a>
</g>
</g>
<!-- dir_2630618ef3a05b190a35bccf01576d8f&#45;&gt;dir_9d9130b3691fae8de17759ed0feecb0a -->
<g id="edge2" class="edge">
<title>dir_2630618ef3a05b190a35bccf01576d8f&#45;&gt;dir_9d9130b3691fae8de17759ed0feecb0a</title>
<path fill="none" stroke="black" d="M93.39,-87.7C97.76,-79.64 103.06,-69.89 107.9,-60.98"/>
<polygon fill="black" stroke="black" points="111.02,-62.56 112.71,-52.1 104.87,-59.22 111.02,-62.56"/>
<g id="a_edge2&#45;headlabel"><a xlink:href="dir_000008_000004.html" target="_top" xlink:title="1">
<text text-anchor="middle" x="111.8" y="-64.58" font-family="Helvetica,sans-Serif" font-size="10.00">1</text>
</a>
</g>
</g>
</g>
</svg>
