<?xml version="1.0" encoding="UTF-8" standalone="no"?>
<!DOCTYPE svg PUBLIC "-//W3C//DTD SVG 1.1//EN"
 "http://www.w3.org/Graphics/SVG/1.1/DTD/svg11.dtd">
<!-- Generated by graphviz version 6.0.1 (0)
 -->
<!-- Title: src~/inter_process Pages: 1 -->
<svg width="186pt" height="167pt"
 viewBox="0.00 0.00 186.00 167.00" xmlns="http://www.w3.org/2000/svg" xmlns:xlink="http://www.w3.org/1999/xlink">
<g id="graph0" class="graph" transform="scale(1 1) rotate(0) translate(4 163)">
<title>src~/inter_process</title>
<polygon fill="white" stroke="none" points="-4,4 -4,-163 182,-163 182,4 -4,4"/>
<g id="clust1" class="cluster">
<title>clusterdir_6771aafbf413a5638c4e561417caddb9</title>
<g id="a_clust1"><a xlink:href="dir_6771aafbf413a5638c4e561417caddb9.html" target="_top" xlink:title="src~">
<polygon fill="#edf0f7" stroke="#404040" stroke-dasharray="5,2" points="8,-8 8,-151 170,-151 170,-8 8,-8"/>
<text text-anchor="middle" x="89" y="-139" font-family="Helvetica,sans-Serif" font-size="10.00">src~</text>
</a>
</g>
</g>
<!-- dir_0aa4ecdbc965570bd87fb4da401df2c8 -->
<g id="node1" class="node">
<title>dir_0aa4ecdbc965570bd87fb4da401df2c8</title>
<g id="a_node1"><a xlink:href="dir_0aa4ecdbc965570bd87fb4da401df2c8.html" target="_top" xlink:title="include">
<polygon fill="#a2b4d6" stroke="#404040" points="70,-52 16,-52 16,-16 70,-16 70,-52"/>
<text text-anchor="middle" x="43" y="-31.5" font-family="Helvetica,sans-Serif" font-size="10.00">include</text>
</a>
</g>
</g>
<!-- dir_3a9b6b5ead3c70f7fbae7782afb6916f -->
<g id="node2" class="node">
<title>dir_3a9b6b5ead3c70f7fbae7782afb6916f</title>
<g id="a_node2"><a xlink:href="dir_3a9b6b5ead3c70f7fbae7782afb6916f.html" target="_top" xlink:title="include_cpp">
<polygon fill="#a2b4d6" stroke="#404040" points="162,-52 88,-52 88,-16 162,-16 162,-52"/>
<text text-anchor="middle" x="125" y="-31.5" font-family="Helvetica,sans-Serif" font-size="10.00">include_cpp</text>
</a>
</g>
</g>
<!-- dir_e8ef67cf99a2ba2267792f6cc6c44256 -->
<g id="node3" class="node">
<title>dir_e8ef67cf99a2ba2267792f6cc6c44256</title>
<g id="a_node3"><a xlink:href="dir_e8ef67cf99a2ba2267792f6cc6c44256.html" target="_top" xlink:title="inter_process">
<polygon fill="#edf0f7" stroke="#404040" stroke-width="2" points="130,-124 48,-124 48,-88 130,-88 130,-124"/>
<text text-anchor="middle" x="89" y="-103.5" font-family="Helvetica,sans-Serif" font-size="10.00">inter_process</text>
</a>
</g>
</g>
<!-- dir_e8ef67cf99a2ba2267792f6cc6c44256&#45;&gt;dir_0aa4ecdbc965570bd87fb4da401df2c8 -->
<g id="edge1" class="edge">
<title>dir_e8ef67cf99a2ba2267792f6cc6c44256&#45;&gt;dir_0aa4ecdbc965570bd87fb4da401df2c8</title>
<path fill="none" stroke="black" d="M77.63,-87.7C72.28,-79.56 65.8,-69.69 59.89,-60.7"/>
<polygon fill="black" stroke="black" points="62.66,-58.54 54.24,-52.1 56.81,-62.38 62.66,-58.54"/>
<g id="a_edge1&#45;headlabel"><a xlink:href="dir_000006_000003.html" target="_top" xlink:title="5">
<text text-anchor="middle" x="67" y="-57.48" font-family="Helvetica,sans-Serif" font-size="10.00">5</text>
</a>
</g>
</g>
<!-- dir_e8ef67cf99a2ba2267792f6cc6c44256&#45;&gt;dir_3a9b6b5ead3c70f7fbae7782afb6916f -->
<g id="edge2" class="edge">
<title>dir_e8ef67cf99a2ba2267792f6cc6c44256&#45;&gt;dir_3a9b6b5ead3c70f7fbae7782afb6916f</title>
<path fill="none" stroke="black" d="M97.9,-87.7C102,-79.73 106.95,-70.1 111.49,-61.26"/>
<polygon fill="black" stroke="black" points="114.74,-62.6 116.2,-52.1 108.52,-59.4 114.74,-62.6"/>
<g id="a_edge2&#45;headlabel"><a xlink:href="dir_000006_000005.html" target="_top" xlink:title="1">
<text text-anchor="middle" x="115.62" y="-64.59" font-family="Helvetica,sans-Serif" font-size="10.00">1</text>
</a>
</g>
</g>
</g>
</svg>
