<?xml version="1.0" encoding="UTF-8" standalone="no"?>
<!DOCTYPE svg PUBLIC "-//W3C//DTD SVG 1.1//EN"
 "http://www.w3.org/Graphics/SVG/1.1/DTD/svg11.dtd">
<!-- Generated by graphviz version 5.0.0 (0)
 -->
<!-- Title: CreateDir Pages: 1 -->
<svg width="380pt" height="66pt"
 viewBox="0.00 0.00 380.00 66.00" xmlns="http://www.w3.org/2000/svg" xmlns:xlink="http://www.w3.org/1999/xlink">
<g id="graph0" class="graph" transform="scale(1 1) rotate(0) translate(4 62)">
<title>CreateDir</title>
<polygon fill="white" stroke="transparent" points="-4,4 -4,-62 376,-62 376,4 -4,4"/>
<!-- Node1 -->
<g id="node1" class="node">
<title>Node1</title>
<g id="a_node1"><a xlink:title="This is a function that recursively creates folders.">
<polygon fill="#bfbfbf" stroke="black" points="309,-19.5 309,-38.5 372,-38.5 372,-19.5 309,-19.5"/>
<text text-anchor="middle" x="340.5" y="-26.5" font-family="Helvetica,sans-Serif" font-size="10.00">CreateDir</text>
</a>
</g>
</g>
<!-- Node2 -->
<g id="node2" class="node">
<title>Node2</title>
<g id="a_node2"><a xlink:href="../../d4/de5/io__control_8c.html#a7e039d23ca87a439fbe9c9d336447887" target="_top" xlink:title="This function produces folder path for data input or output.">
<polygon fill="white" stroke="black" points="199,-19.5 199,-38.5 273,-38.5 273,-19.5 199,-19.5"/>
<text text-anchor="middle" x="236" y="-26.5" font-family="Helvetica,sans-Serif" font-size="10.00">example_io</text>
</a>
</g>
</g>
<!-- Node1&#45;&gt;Node2 -->
<g id="edge1" class="edge">
<title>Node1&#45;&gt;Node2</title>
<path fill="none" stroke="midnightblue" d="M298.7,-29C290.26,-29 281.41,-29 273.14,-29"/>
<polygon fill="midnightblue" stroke="midnightblue" points="298.75,-32.5 308.75,-29 298.75,-25.5 298.75,-32.5"/>
</g>
<!-- Node3 -->
<g id="node3" class="node">
<title>Node3</title>
<g id="a_node3"><a xlink:href="../../db/db6/__1_d__file__out_8c.html#a7659fc899bf51ebd9d29facdc992bad6" target="_top" xlink:title="This function write the solution into output files.">
<polygon fill="white" stroke="black" points="77,-38.5 77,-57.5 163,-57.5 163,-38.5 77,-38.5"/>
<text text-anchor="middle" x="120" y="-45.5" font-family="Helvetica,sans-Serif" font-size="10.00">_1D_file_write</text>
</a>
</g>
</g>
<!-- Node2&#45;&gt;Node3 -->
<g id="edge2" class="edge">
<title>Node2&#45;&gt;Node3</title>
<path fill="none" stroke="midnightblue" d="M188.82,-36.7C180.35,-38.11 171.55,-39.57 163.21,-40.97"/>
<polygon fill="midnightblue" stroke="midnightblue" points="189.64,-40.11 198.93,-35.01 188.49,-33.2 189.64,-40.11"/>
</g>
<!-- Node5 -->
<g id="node5" class="node">
<title>Node5</title>
<g id="a_node5"><a xlink:href="../../dd/d92/__1_d__file__in_8c.html#a1f8819303b1d8d11879aed890bc0f29e" target="_top" xlink:title="This function reads the 1D initial data file of velocity/pressure/density.">
<polygon fill="white" stroke="black" points="78.5,-0.5 78.5,-19.5 161.5,-19.5 161.5,-0.5 78.5,-0.5"/>
<text text-anchor="middle" x="120" y="-7.5" font-family="Helvetica,sans-Serif" font-size="10.00">_1D_initialize</text>
</a>
</g>
</g>
<!-- Node2&#45;&gt;Node5 -->
<g id="edge4" class="edge">
<title>Node2&#45;&gt;Node5</title>
<path fill="none" stroke="midnightblue" d="M188.93,-21.32C179.88,-19.81 170.45,-18.24 161.59,-16.77"/>
<polygon fill="midnightblue" stroke="midnightblue" points="188.49,-24.8 198.93,-22.99 189.64,-17.89 188.49,-24.8"/>
</g>
<!-- Node4 -->
<g id="node4" class="node">
<title>Node4</title>
<g id="a_node4"><a xlink:href="../../d2/d24/hydrocode_8c.html#a0ddf1224851353fc92bfbff6f499fa97" target="_top" xlink:title="This is the main function which constructs the main structure of the Lagrangian/Eulerian hydrocode.">
<polygon fill="white" stroke="black" points="0,-19.5 0,-38.5 41,-38.5 41,-19.5 0,-19.5"/>
<text text-anchor="middle" x="20.5" y="-26.5" font-family="Helvetica,sans-Serif" font-size="10.00">main</text>
</a>
</g>
</g>
<!-- Node3&#45;&gt;Node4 -->
<g id="edge3" class="edge">
<title>Node3&#45;&gt;Node4</title>
<path fill="none" stroke="midnightblue" d="M66.82,-37.83C57.62,-36.04 48.58,-34.28 41.03,-32.81"/>
<polygon fill="midnightblue" stroke="midnightblue" points="66.32,-41.3 76.8,-39.78 67.66,-34.43 66.32,-41.3"/>
</g>
<!-- Node5&#45;&gt;Node4 -->
<g id="edge5" class="edge">
<title>Node5&#45;&gt;Node4</title>
<path fill="none" stroke="midnightblue" d="M68.45,-19.85C58.78,-21.74 49.2,-23.6 41.25,-25.15"/>
<polygon fill="midnightblue" stroke="midnightblue" points="69.35,-23.24 78.5,-17.89 68.01,-16.37 69.35,-23.24"/>
</g>
</g>
</svg>
