<?xml version="1.0" encoding="UTF-8" standalone="no"?>
<!DOCTYPE svg PUBLIC "-//W3C//DTD SVG 1.1//EN"
 "http://www.w3.org/Graphics/SVG/1.1/DTD/svg11.dtd">
<!-- Generated by graphviz version 6.0.1 (0)
 -->
<!-- Title: src~/finite_volume/grp_solver_2D_split_EUL_source.c Pages: 1 -->
<svg width="1032pt" height="173pt"
 viewBox="0.00 0.00 1031.50 173.00" xmlns="http://www.w3.org/2000/svg" xmlns:xlink="http://www.w3.org/1999/xlink">
<g id="graph0" class="graph" transform="scale(1 1) rotate(0) translate(4 169)">
<title>src~/finite_volume/grp_solver_2D_split_EUL_source.c</title>
<polygon fill="white" stroke="none" points="-4,4 -4,-169 1027.5,-169 1027.5,4 -4,4"/>
<!-- Node1 -->
<g id="node1" class="node">
<title>Node1</title>
<g id="a_node1"><a xlink:title="This is an Eulerian GRP scheme to solve 2&#45;D Euler equations with dimension splitting.">
<polygon fill="#bfbfbf" stroke="black" points="307,-123.5 307,-164.5 423,-164.5 423,-123.5 307,-123.5"/>
<text text-anchor="start" x="315" y="-152.5" font-family="Helvetica,sans-Serif" font-size="10.00">src~/finite_volume</text>
<text text-anchor="start" x="315" y="-141.5" font-family="Helvetica,sans-Serif" font-size="10.00">/grp_solver_2D_split</text>
<text text-anchor="middle" x="365" y="-130.5" font-family="Helvetica,sans-Serif" font-size="10.00">_EUL_source.c</text>
</a>
</g>
</g>
<!-- Node2 -->
<g id="node2" class="node">
<title>Node2</title>
<g id="a_node2"><a xlink:title=" ">
<polygon fill="white" stroke="#bfbfbf" points="0,-62 0,-81 50,-81 50,-62 0,-62"/>
<text text-anchor="middle" x="25" y="-69" font-family="Helvetica,sans-Serif" font-size="10.00">stdio.h</text>
</a>
</g>
</g>
<!-- Node1&#45;&gt;Node2 -->
<g id="edge1" class="edge">
<title>Node1&#45;&gt;Node2</title>
<path fill="none" stroke="midnightblue" d="M306.85,-136.27C244.62,-128.17 143.43,-112.39 59,-87 56.85,-86.35 54.66,-85.62 52.47,-84.82"/>
<polygon fill="midnightblue" stroke="midnightblue" points="53.66,-81.53 43.08,-81.09 51.08,-88.03 53.66,-81.53"/>
</g>
<!-- Node3 -->
<g id="node3" class="node">
<title>Node3</title>
<g id="a_node3"><a xlink:title=" ">
<polygon fill="white" stroke="#bfbfbf" points="68.5,-62 68.5,-81 119.5,-81 119.5,-62 68.5,-62"/>
<text text-anchor="middle" x="94" y="-69" font-family="Helvetica,sans-Serif" font-size="10.00">math.h</text>
</a>
</g>
</g>
<!-- Node1&#45;&gt;Node3 -->
<g id="edge2" class="edge">
<title>Node1&#45;&gt;Node3</title>
<path fill="none" stroke="midnightblue" d="M306.77,-132.14C258.31,-122.41 187.85,-106.67 128,-87 126.08,-86.37 124.12,-85.67 122.15,-84.94"/>
<polygon fill="midnightblue" stroke="midnightblue" points="123.07,-81.54 112.49,-81.06 120.46,-88.03 123.07,-81.54"/>
</g>
<!-- Node4 -->
<g id="node4" class="node">
<title>Node4</title>
<g id="a_node4"><a xlink:title=" ">
<polygon fill="white" stroke="#bfbfbf" points="137.5,-62 137.5,-81 190.5,-81 190.5,-62 137.5,-62"/>
<text text-anchor="middle" x="164" y="-69" font-family="Helvetica,sans-Serif" font-size="10.00">stdlib.h</text>
</a>
</g>
</g>
<!-- Node1&#45;&gt;Node4 -->
<g id="edge3" class="edge">
<title>Node1&#45;&gt;Node4</title>
<path fill="none" stroke="midnightblue" d="M306.69,-124.09C274.98,-113.59 235.17,-100.04 200,-87 198.15,-86.31 196.26,-85.6 194.35,-84.86"/>
<polygon fill="midnightblue" stroke="midnightblue" points="195.45,-81.54 184.86,-81.13 192.89,-88.05 195.45,-81.54"/>
</g>
<!-- Node5 -->
<g id="node5" class="node">
<title>Node5</title>
<g id="a_node5"><a xlink:title=" ">
<polygon fill="white" stroke="#bfbfbf" points="209,-62 209,-81 257,-81 257,-62 209,-62"/>
<text text-anchor="middle" x="233" y="-69" font-family="Helvetica,sans-Serif" font-size="10.00">time.h</text>
</a>
</g>
</g>
<!-- Node1&#45;&gt;Node5 -->
<g id="edge4" class="edge">
<title>Node1&#45;&gt;Node5</title>
<path fill="none" stroke="midnightblue" d="M328.23,-123.36C305.94,-111.46 278.08,-96.58 258.26,-85.99"/>
<polygon fill="midnightblue" stroke="midnightblue" points="259.71,-82.8 249.24,-81.17 256.41,-88.97 259.71,-82.8"/>
</g>
<!-- Node6 -->
<g id="node6" class="node">
<title>Node6</title>
<g id="a_node6"><a xlink:title=" ">
<polygon fill="white" stroke="#bfbfbf" points="275,-62 275,-81 337,-81 337,-62 275,-62"/>
<text text-anchor="middle" x="306" y="-69" font-family="Helvetica,sans-Serif" font-size="10.00">stdbool.h</text>
</a>
</g>
</g>
<!-- Node1&#45;&gt;Node6 -->
<g id="edge5" class="edge">
<title>Node1&#45;&gt;Node6</title>
<path fill="none" stroke="midnightblue" d="M348.57,-123.36C339.51,-112.54 328.39,-99.26 319.79,-88.98"/>
<polygon fill="midnightblue" stroke="midnightblue" points="322.36,-86.6 313.26,-81.17 316.99,-91.09 322.36,-86.6"/>
</g>
<!-- Node7 -->
<g id="node7" class="node">
<title>Node7</title>
<g id="a_node7"><a xlink:href="../../da/d1e/var__struc_8h.html" target="_top" xlink:title="This file is the header file of some globally common variables and structural bodies.">
<polygon fill="white" stroke="black" points="450,-0.5 450,-19.5 568,-19.5 568,-0.5 450,-0.5"/>
<text text-anchor="middle" x="509" y="-7.5" font-family="Helvetica,sans-Serif" font-size="10.00">../include/var_struc.h</text>
</a>
</g>
</g>
<!-- Node1&#45;&gt;Node7 -->
<g id="edge6" class="edge">
<title>Node1&#45;&gt;Node7</title>
<path fill="none" stroke="midnightblue" d="M364.13,-123.32C364.34,-103.93 367.69,-74.59 384,-56 398.51,-39.46 419.56,-29 440.27,-22.38"/>
<polygon fill="midnightblue" stroke="midnightblue" points="441.44,-25.69 450.05,-19.52 439.47,-18.97 441.44,-25.69"/>
</g>
<!-- Node8 -->
<g id="node8" class="node">
<title>Node8</title>
<g id="a_node8"><a xlink:href="../../df/ded/riemann__solver_8h.html" target="_top" xlink:title="This file is the header file of several Riemann solvers and GRP solvers.">
<polygon fill="white" stroke="black" points="393,-56.5 393,-86.5 497,-86.5 497,-56.5 393,-56.5"/>
<text text-anchor="start" x="401" y="-74.5" font-family="Helvetica,sans-Serif" font-size="10.00">../include/riemann</text>
<text text-anchor="middle" x="445" y="-63.5" font-family="Helvetica,sans-Serif" font-size="10.00">_solver.h</text>
</a>
</g>
</g>
<!-- Node1&#45;&gt;Node8 -->
<g id="edge7" class="edge">
<title>Node1&#45;&gt;Node8</title>
<path fill="none" stroke="midnightblue" d="M387.28,-123.36C397.82,-114.08 410.41,-102.98 421.14,-93.52"/>
<polygon fill="midnightblue" stroke="midnightblue" points="423.73,-95.91 428.92,-86.67 419.1,-90.66 423.73,-95.91"/>
</g>
<!-- Node9 -->
<g id="node9" class="node">
<title>Node9</title>
<g id="a_node9"><a xlink:href="../../dd/df5/flux__calc_8h.html" target="_top" xlink:title="This file is the header file of intermediate processes of finite volume scheme.">
<polygon fill="white" stroke="black" points="515,-62 515,-81 631,-81 631,-62 515,-62"/>
<text text-anchor="middle" x="573" y="-69" font-family="Helvetica,sans-Serif" font-size="10.00">../include/flux_calc.h</text>
</a>
</g>
</g>
<!-- Node1&#45;&gt;Node9 -->
<g id="edge9" class="edge">
<title>Node1&#45;&gt;Node9</title>
<path fill="none" stroke="midnightblue" d="M422.66,-123.46C459.77,-110.88 506.76,-94.95 538.24,-84.28"/>
<polygon fill="midnightblue" stroke="midnightblue" points="539.54,-87.54 547.88,-81.01 537.29,-80.91 539.54,-87.54"/>
</g>
<!-- Node10 -->
<g id="node10" class="node">
<title>Node10</title>
<g id="a_node10"><a xlink:href="../../d6/d6f/inter__process_8h.html" target="_top" xlink:title="This file is the header file of intermediate processes of finite volume scheme.">
<polygon fill="white" stroke="black" points="649,-62 649,-81 787,-81 787,-62 649,-62"/>
<text text-anchor="middle" x="718" y="-69" font-family="Helvetica,sans-Serif" font-size="10.00">../include/inter_process.h</text>
</a>
</g>
</g>
<!-- Node1&#45;&gt;Node10 -->
<g id="edge11" class="edge">
<title>Node1&#45;&gt;Node10</title>
<path fill="none" stroke="midnightblue" d="M423.29,-131.36C490.58,-117.92 600.29,-96.01 665.17,-83.05"/>
<polygon fill="midnightblue" stroke="midnightblue" points="666.07,-86.44 675.19,-81.05 664.7,-79.58 666.07,-86.44"/>
</g>
<!-- Node11 -->
<g id="node11" class="node">
<title>Node11</title>
<g id="a_node11"><a xlink:href="../../d5/da5/tools_8h.html" target="_top" xlink:title="This file is the header file of several independent tool functions.">
<polygon fill="white" stroke="black" points="805.5,-62 805.5,-81 902.5,-81 902.5,-62 805.5,-62"/>
<text text-anchor="middle" x="854" y="-69" font-family="Helvetica,sans-Serif" font-size="10.00">../include/tools.h</text>
</a>
</g>
</g>
<!-- Node1&#45;&gt;Node11 -->
<g id="edge13" class="edge">
<title>Node1&#45;&gt;Node11</title>
<path fill="none" stroke="midnightblue" d="M423.2,-137.6C506.33,-129.39 663.66,-112.05 796,-87 801.42,-85.97 807.08,-84.75 812.66,-83.45"/>
<polygon fill="midnightblue" stroke="midnightblue" points="813.64,-86.82 822.54,-81.07 812,-80.01 813.64,-86.82"/>
</g>
<!-- Node12 -->
<g id="node12" class="node">
<title>Node12</title>
<g id="a_node12"><a xlink:href="../../db/db8/file__io_8h.html" target="_top" xlink:title="This file is the header file that controls data input and output.">
<polygon fill="white" stroke="black" points="920.5,-62 920.5,-81 1023.5,-81 1023.5,-62 920.5,-62"/>
<text text-anchor="middle" x="972" y="-69" font-family="Helvetica,sans-Serif" font-size="10.00">../include/file_io.h</text>
</a>
</g>
</g>
<!-- Node1&#45;&gt;Node12 -->
<g id="edge14" class="edge">
<title>Node1&#45;&gt;Node12</title>
<path fill="none" stroke="midnightblue" d="M423.24,-139.63C523.59,-133.25 735.34,-117.25 912,-87 917.89,-85.99 924.05,-84.74 930.1,-83.39"/>
<polygon fill="midnightblue" stroke="midnightblue" points="931.15,-86.74 940.09,-81.06 929.56,-79.92 931.15,-86.74"/>
</g>
<!-- Node8&#45;&gt;Node7 -->
<g id="edge8" class="edge">
<title>Node8&#45;&gt;Node7</title>
<path fill="none" stroke="midnightblue" d="M460.17,-56.4C469.75,-47.49 482.16,-35.95 492.07,-26.74"/>
<polygon fill="midnightblue" stroke="midnightblue" points="494.75,-29.03 499.69,-19.66 489.98,-23.9 494.75,-29.03"/>
</g>
<!-- Node9&#45;&gt;Node7 -->
<g id="edge10" class="edge">
<title>Node9&#45;&gt;Node7</title>
<path fill="none" stroke="midnightblue" d="M563.83,-61.98C553.85,-52.7 537.69,-37.67 525.49,-26.33"/>
<polygon fill="midnightblue" stroke="midnightblue" points="527.86,-23.75 518.15,-19.51 523.09,-28.88 527.86,-23.75"/>
</g>
<!-- Node10&#45;&gt;Node7 -->
<g id="edge12" class="edge">
<title>Node10&#45;&gt;Node7</title>
<path fill="none" stroke="midnightblue" d="M688.06,-61.98C651.43,-51.55 589.3,-33.86 548.72,-22.31"/>
<polygon fill="midnightblue" stroke="midnightblue" points="549.47,-18.88 538.89,-19.51 547.55,-25.61 549.47,-18.88"/>
</g>
</g>
</svg>
