<?xml version="1.0" encoding="UTF-8" standalone="no"?>
<!DOCTYPE svg PUBLIC "-//W3C//DTD SVG 1.1//EN"
 "http://www.w3.org/Graphics/SVG/1.1/DTD/svg11.dtd">
<!-- Generated by graphviz version 6.0.1 (0)
 -->
<!-- Title: Godunov_solver_EUL_source Pages: 1 -->
<svg width="537pt" height="161pt"
 viewBox="0.00 0.00 537.00 161.00" xmlns="http://www.w3.org/2000/svg" xmlns:xlink="http://www.w3.org/1999/xlink">
<g id="graph0" class="graph" transform="scale(1 1) rotate(0) translate(4 157)">
<title>Godunov_solver_EUL_source</title>
<polygon fill="white" stroke="none" points="-4,4 -4,-157 533,-157 533,4 -4,4"/>
<!-- Node1 -->
<g id="node1" class="node">
<title>Node1</title>
<g id="a_node1"><a xlink:title="This function use Godunov scheme to solve 1&#45;D Euler equations of motion on Eulerian coordinate.">
<polygon fill="#bfbfbf" stroke="black" points="0,-52 0,-82 119,-82 119,-52 0,-52"/>
<text text-anchor="start" x="8" y="-70" font-family="Helvetica,sans-Serif" font-size="10.00">Godunov_solver_EUL</text>
<text text-anchor="middle" x="59.5" y="-59" font-family="Helvetica,sans-Serif" font-size="10.00">_source</text>
</a>
</g>
</g>
<!-- Node2 -->
<g id="node2" class="node">
<title>Node2</title>
<g id="a_node2"><a xlink:href="../../df/d13/bound__cond__slope__limiter_8c.html#a64546388aefaa98c2cb33c8607c54c67" target="_top" xlink:title="This function apply the minmod limiter to the slope in one dimension.">
<polygon fill="white" stroke="black" points="155,-114.5 155,-133.5 299,-133.5 299,-114.5 155,-114.5"/>
<text text-anchor="middle" x="227" y="-121.5" font-family="Helvetica,sans-Serif" font-size="10.00">bound_cond_slope_limiter</text>
</a>
</g>
</g>
<!-- Node1&#45;&gt;Node2 -->
<g id="edge1" class="edge">
<title>Node1&#45;&gt;Node2</title>
<path fill="none" stroke="midnightblue" d="M95.13,-82.09C112.85,-89.52 134.87,-98.29 155,-105 162.15,-107.39 169.79,-109.68 177.3,-111.8"/>
<polygon fill="midnightblue" stroke="midnightblue" points="176.49,-115.21 187.06,-114.49 178.34,-108.46 176.49,-115.21"/>
</g>
<!-- Node6 -->
<g id="node6" class="node">
<title>Node6</title>
<g id="a_node6"><a xlink:href="../../d4/ddd/sys__pro_8c.html#aab058cac35713b52c083b9e54ffa45eb" target="_top" xlink:title="This function print a progress bar on one line of standard output.">
<polygon fill="white" stroke="black" points="200,-76.5 200,-95.5 254,-95.5 254,-76.5 200,-76.5"/>
<text text-anchor="middle" x="227" y="-83.5" font-family="Helvetica,sans-Serif" font-size="10.00">DispPro</text>
</a>
</g>
</g>
<!-- Node1&#45;&gt;Node6 -->
<g id="edge5" class="edge">
<title>Node1&#45;&gt;Node6</title>
<path fill="none" stroke="midnightblue" d="M119.32,-73.75C142.73,-76.44 168.95,-79.45 189.54,-81.81"/>
<polygon fill="midnightblue" stroke="midnightblue" points="189.41,-85.32 199.74,-82.99 190.21,-78.37 189.41,-85.32"/>
</g>
<!-- Node7 -->
<g id="node7" class="node">
<title>Node7</title>
<g id="a_node7"><a xlink:href="../../d0/d07/linear__grp__solver___edir_8c.html#a2ad668bcecaaced69331652aa76193e2" target="_top" xlink:title="A direct Eulerian GRP solver for unsteady compressible inviscid flow in one space dimension.">
<polygon fill="white" stroke="black" points="162.5,-38.5 162.5,-57.5 291.5,-57.5 291.5,-38.5 162.5,-38.5"/>
<text text-anchor="middle" x="227" y="-45.5" font-family="Helvetica,sans-Serif" font-size="10.00">linear_GRP_solver_Edir</text>
</a>
</g>
</g>
<!-- Node1&#45;&gt;Node7 -->
<g id="edge6" class="edge">
<title>Node1&#45;&gt;Node7</title>
<path fill="none" stroke="midnightblue" d="M119.32,-60.25C129.99,-59.02 141.24,-57.73 152.27,-56.46"/>
<polygon fill="midnightblue" stroke="midnightblue" points="152.78,-59.93 162.32,-55.31 151.99,-52.97 152.78,-59.93"/>
</g>
<!-- Node8 -->
<g id="node8" class="node">
<title>Node8</title>
<g id="a_node8"><a xlink:href="../../d7/d5a/fluid__var__check_8c.html#a0177056576942ce464bb53db4dcb5138" target="_top" xlink:title="This function checks whether fluid variables of mid[] and dire[] are within the value range.">
<polygon fill="white" stroke="black" points="180.5,-0.5 180.5,-19.5 273.5,-19.5 273.5,-0.5 180.5,-0.5"/>
<text text-anchor="middle" x="227" y="-7.5" font-family="Helvetica,sans-Serif" font-size="10.00">star_dire_check</text>
</a>
</g>
</g>
<!-- Node1&#45;&gt;Node8 -->
<g id="edge7" class="edge">
<title>Node1&#45;&gt;Node8</title>
<path fill="none" stroke="midnightblue" d="M95.13,-51.91C112.85,-44.48 134.87,-35.71 155,-29 162.15,-26.61 169.79,-24.32 177.3,-22.2"/>
<polygon fill="midnightblue" stroke="midnightblue" points="178.34,-25.54 187.06,-19.51 176.49,-18.79 178.34,-25.54"/>
</g>
<!-- Node3 -->
<g id="node3" class="node">
<title>Node3</title>
<g id="a_node3"><a xlink:href="../../d2/d49/slope__limiter_8c.html#aa63cbccebc0f88cf7397d2e594a861ae" target="_top" xlink:title="This function apply the minmod limiter to the slope in one dimension.">
<polygon fill="white" stroke="black" points="335,-114.5 335,-133.5 430,-133.5 430,-114.5 335,-114.5"/>
<text text-anchor="middle" x="382.5" y="-121.5" font-family="Helvetica,sans-Serif" font-size="10.00">minmod_limiter</text>
</a>
</g>
</g>
<!-- Node2&#45;&gt;Node3 -->
<g id="edge2" class="edge">
<title>Node2&#45;&gt;Node3</title>
<path fill="none" stroke="midnightblue" d="M299.36,-124C307.84,-124 316.4,-124 324.64,-124"/>
<polygon fill="midnightblue" stroke="midnightblue" points="324.87,-127.5 334.87,-124 324.87,-120.5 324.87,-127.5"/>
</g>
<!-- Node4 -->
<g id="node4" class="node">
<title>Node4</title>
<g id="a_node4"><a xlink:href="../../d5/da5/tools_8h.html#a56cac3298eeead8cf22c1e61eb5a5a88" target="_top" xlink:title="Minmod limiter function of two variables.">
<polygon fill="white" stroke="black" points="466,-133.5 466,-152.5 529,-152.5 529,-133.5 466,-133.5"/>
<text text-anchor="middle" x="497.5" y="-140.5" font-family="Helvetica,sans-Serif" font-size="10.00">minmod2</text>
</a>
</g>
</g>
<!-- Node3&#45;&gt;Node4 -->
<g id="edge3" class="edge">
<title>Node3&#45;&gt;Node4</title>
<path fill="none" stroke="midnightblue" d="M430.11,-131.84C438.67,-133.28 447.54,-134.77 455.91,-136.17"/>
<polygon fill="midnightblue" stroke="midnightblue" points="455.36,-139.63 465.8,-137.84 456.52,-132.73 455.36,-139.63"/>
</g>
<!-- Node5 -->
<g id="node5" class="node">
<title>Node5</title>
<g id="a_node5"><a xlink:href="../../d5/da5/tools_8h.html#a6dfba28e1af33b47f4656d3738996fe9" target="_top" xlink:title="Minmod limiter function of three variables.">
<polygon fill="white" stroke="black" points="466,-95.5 466,-114.5 529,-114.5 529,-95.5 466,-95.5"/>
<text text-anchor="middle" x="497.5" y="-102.5" font-family="Helvetica,sans-Serif" font-size="10.00">minmod3</text>
</a>
</g>
</g>
<!-- Node3&#45;&gt;Node5 -->
<g id="edge4" class="edge">
<title>Node3&#45;&gt;Node5</title>
<path fill="none" stroke="midnightblue" d="M430.11,-116.16C438.67,-114.72 447.54,-113.23 455.91,-111.83"/>
<polygon fill="midnightblue" stroke="midnightblue" points="456.52,-115.27 465.8,-110.16 455.36,-108.37 456.52,-115.27"/>
</g>
</g>
</svg>
