<?xml version="1.0" encoding="UTF-8" standalone="no"?>
<!DOCTYPE svg PUBLIC "-//W3C//DTD SVG 1.1//EN"
 "http://www.w3.org/Graphics/SVG/1.1/DTD/svg11.dtd">
<!-- Generated by graphviz version 6.0.1 (0)
 -->
<!-- Title: src~/file_io/file_out_hdf5.c Pages: 1 -->
<svg width="524pt" height="95pt"
 viewBox="0.00 0.00 523.50 95.00" xmlns="http://www.w3.org/2000/svg" xmlns:xlink="http://www.w3.org/1999/xlink">
<g id="graph0" class="graph" transform="scale(1 1) rotate(0) translate(4 91)">
<title>src~/file_io/file_out_hdf5.c</title>
<polygon fill="white" stroke="none" points="-4,4 -4,-91 519.5,-91 519.5,4 -4,4"/>
<!-- Node1 -->
<g id="node1" class="node">
<title>Node1</title>
<g id="a_node1"><a xlink:title="This is a set of functions which control the readout of 1&#45;D and 2&#45;D data in HDF5 file format.">
<polygon fill="#bfbfbf" stroke="black" points="162,-56.5 162,-86.5 274,-86.5 274,-56.5 162,-56.5"/>
<text text-anchor="start" x="170" y="-74.5" font-family="Helvetica,sans-Serif" font-size="10.00">src~/file_io/file_out</text>
<text text-anchor="middle" x="218" y="-63.5" font-family="Helvetica,sans-Serif" font-size="10.00">_hdf5.c</text>
</a>
</g>
</g>
<!-- Node2 -->
<g id="node2" class="node">
<title>Node2</title>
<g id="a_node2"><a xlink:title=" ">
<polygon fill="white" stroke="#bfbfbf" points="0,-0.5 0,-19.5 50,-19.5 50,-0.5 0,-0.5"/>
<text text-anchor="middle" x="25" y="-7.5" font-family="Helvetica,sans-Serif" font-size="10.00">stdio.h</text>
</a>
</g>
</g>
<!-- Node1&#45;&gt;Node2 -->
<g id="edge1" class="edge">
<title>Node1&#45;&gt;Node2</title>
<path fill="none" stroke="midnightblue" d="M172.26,-56.4C137.76,-45.76 91.16,-31.4 59.69,-21.7"/>
<polygon fill="midnightblue" stroke="midnightblue" points="60.63,-18.32 50.04,-18.72 58.57,-25.01 60.63,-18.32"/>
</g>
<!-- Node3 -->
<g id="node3" class="node">
<title>Node3</title>
<g id="a_node3"><a xlink:title=" ">
<polygon fill="white" stroke="#bfbfbf" points="68.5,-0.5 68.5,-19.5 121.5,-19.5 121.5,-0.5 68.5,-0.5"/>
<text text-anchor="middle" x="95" y="-7.5" font-family="Helvetica,sans-Serif" font-size="10.00">stdlib.h</text>
</a>
</g>
</g>
<!-- Node1&#45;&gt;Node3 -->
<g id="edge2" class="edge">
<title>Node1&#45;&gt;Node3</title>
<path fill="none" stroke="midnightblue" d="M188.85,-56.4C168.58,-46.59 141.76,-33.62 121.98,-24.05"/>
<polygon fill="midnightblue" stroke="midnightblue" points="123.42,-20.86 112.9,-19.66 120.38,-27.16 123.42,-20.86"/>
</g>
<!-- Node4 -->
<g id="node4" class="node">
<title>Node4</title>
<g id="a_node4"><a xlink:title=" ">
<polygon fill="white" stroke="#bfbfbf" points="139.5,-0.5 139.5,-19.5 192.5,-19.5 192.5,-0.5 139.5,-0.5"/>
<text text-anchor="middle" x="166" y="-7.5" font-family="Helvetica,sans-Serif" font-size="10.00">string.h</text>
</a>
</g>
</g>
<!-- Node1&#45;&gt;Node4 -->
<g id="edge3" class="edge">
<title>Node1&#45;&gt;Node4</title>
<path fill="none" stroke="midnightblue" d="M205.68,-56.4C198.04,-47.66 188.21,-36.41 180.24,-27.3"/>
<polygon fill="midnightblue" stroke="midnightblue" points="182.78,-24.88 173.57,-19.66 177.51,-29.49 182.78,-24.88"/>
</g>
<!-- Node5 -->
<g id="node5" class="node">
<title>Node5</title>
<g id="a_node5"><a xlink:href="../../da/d1e/var__struc_8h.html" target="_top" xlink:title="This file is the header file of some globally common variables and structural bodies.">
<polygon fill="white" stroke="black" points="211,-0.5 211,-19.5 329,-19.5 329,-0.5 211,-0.5"/>
<text text-anchor="middle" x="270" y="-7.5" font-family="Helvetica,sans-Serif" font-size="10.00">../include/var_struc.h</text>
</a>
</g>
</g>
<!-- Node1&#45;&gt;Node5 -->
<g id="edge4" class="edge">
<title>Node1&#45;&gt;Node5</title>
<path fill="none" stroke="midnightblue" d="M230.32,-56.4C237.96,-47.66 247.79,-36.41 255.76,-27.3"/>
<polygon fill="midnightblue" stroke="midnightblue" points="258.49,-29.49 262.43,-19.66 253.22,-24.88 258.49,-29.49"/>
</g>
<!-- Node6 -->
<g id="node6" class="node">
<title>Node6</title>
<g id="a_node6"><a xlink:href="../../db/db8/file__io_8h.html" target="_top" xlink:title="This file is the header file that controls data input and output.">
<polygon fill="white" stroke="black" points="347.5,-0.5 347.5,-19.5 450.5,-19.5 450.5,-0.5 347.5,-0.5"/>
<text text-anchor="middle" x="399" y="-7.5" font-family="Helvetica,sans-Serif" font-size="10.00">../include/file_io.h</text>
</a>
</g>
</g>
<!-- Node1&#45;&gt;Node6 -->
<g id="edge5" class="edge">
<title>Node1&#45;&gt;Node6</title>
<path fill="none" stroke="midnightblue" d="M260.89,-56.4C292.03,-46.16 333.69,-32.47 363.08,-22.81"/>
<polygon fill="midnightblue" stroke="midnightblue" points="364.52,-26.02 372.93,-19.57 362.33,-19.37 364.52,-26.02"/>
</g>
<!-- Node7 -->
<g id="node7" class="node">
<title>Node7</title>
<g id="a_node7"><a xlink:title=" ">
<polygon fill="white" stroke="#bfbfbf" points="468.5,-0.5 468.5,-19.5 515.5,-19.5 515.5,-0.5 468.5,-0.5"/>
<text text-anchor="middle" x="492" y="-7.5" font-family="Helvetica,sans-Serif" font-size="10.00">hdf5.h</text>
</a>
</g>
</g>
<!-- Node1&#45;&gt;Node7 -->
<g id="edge6" class="edge">
<title>Node1&#45;&gt;Node7</title>
<path fill="none" stroke="midnightblue" d="M274.48,-59.85C321.38,-50.75 390.03,-36.83 458.23,-20.32"/>
<polygon fill="midnightblue" stroke="midnightblue" points="459.4,-23.64 468.28,-17.87 457.74,-16.84 459.4,-23.64"/>
</g>
</g>
</svg>
