<?xml version="1.0" encoding="UTF-8" standalone="no"?>
<!DOCTYPE svg PUBLIC "-//W3C//DTD SVG 1.1//EN"
 "http://www.w3.org/Graphics/SVG/1.1/DTD/svg11.dtd">
<!-- Generated by graphviz version 6.0.1 (0)
 -->
<!-- Title: GRP_solver_LAG_source Pages: 1 -->
<svg width="586pt" height="199pt"
 viewBox="0.00 0.00 586.00 199.00" xmlns="http://www.w3.org/2000/svg" xmlns:xlink="http://www.w3.org/1999/xlink">
<g id="graph0" class="graph" transform="scale(1 1) rotate(0) translate(4 195)">
<title>GRP_solver_LAG_source</title>
<polygon fill="white" stroke="none" points="-4,4 -4,-195 582,-195 582,4 -4,4"/>
<!-- Node1 -->
<g id="node1" class="node">
<title>Node1</title>
<g id="a_node1"><a xlink:title="This function use GRP scheme to solve 1&#45;D Euler equations of motion on Lagrangian coordinate.">
<polygon fill="#bfbfbf" stroke="black" points="0,-76.5 0,-95.5 135,-95.5 135,-76.5 0,-76.5"/>
<text text-anchor="middle" x="67.5" y="-83.5" font-family="Helvetica,sans-Serif" font-size="10.00">GRP_solver_LAG_source</text>
</a>
</g>
</g>
<!-- Node2 -->
<g id="node2" class="node">
<title>Node2</title>
<g id="a_node2"><a xlink:href="../../df/d13/bound__cond__slope__limiter_8c.html#a64546388aefaa98c2cb33c8607c54c67" target="_top" xlink:title="This function apply the minmod limiter to the slope in one dimension.">
<polygon fill="white" stroke="black" points="171,-152.5 171,-171.5 315,-171.5 315,-152.5 171,-152.5"/>
<text text-anchor="middle" x="243" y="-159.5" font-family="Helvetica,sans-Serif" font-size="10.00">bound_cond_slope_limiter</text>
</a>
</g>
</g>
<!-- Node1&#45;&gt;Node2 -->
<g id="edge1" class="edge">
<title>Node1&#45;&gt;Node2</title>
<path fill="none" stroke="midnightblue" d="M83.2,-95.71C102.61,-108.15 138.16,-129.71 171,-143 176.9,-145.39 183.2,-147.57 189.51,-149.53"/>
<polygon fill="midnightblue" stroke="midnightblue" points="188.81,-152.97 199.39,-152.42 190.78,-146.25 188.81,-152.97"/>
</g>
<!-- Node6 -->
<g id="node6" class="node">
<title>Node6</title>
<g id="a_node6"><a xlink:href="../../d4/ddd/sys__pro_8c.html#aab058cac35713b52c083b9e54ffa45eb" target="_top" xlink:title="This function print a progress bar on one line of standard output.">
<polygon fill="white" stroke="black" points="216,-114.5 216,-133.5 270,-133.5 270,-114.5 216,-114.5"/>
<text text-anchor="middle" x="243" y="-121.5" font-family="Helvetica,sans-Serif" font-size="10.00">DispPro</text>
</a>
</g>
</g>
<!-- Node1&#45;&gt;Node6 -->
<g id="edge5" class="edge">
<title>Node1&#45;&gt;Node6</title>
<path fill="none" stroke="midnightblue" d="M112.28,-95.59C141.21,-101.93 178.67,-110.13 205.89,-116.09"/>
<polygon fill="midnightblue" stroke="midnightblue" points="205.27,-119.54 215.78,-118.26 206.76,-112.7 205.27,-119.54"/>
</g>
<!-- Node7 -->
<g id="node7" class="node">
<title>Node7</title>
<g id="a_node7"><a xlink:href="../../d7/d5a/fluid__var__check_8c.html#a29ead600b8eb62cb272068d83dadcc46" target="_top" xlink:title="This function checks whether interfacial fluid variables are within the value range.">
<polygon fill="white" stroke="black" points="206.5,-76.5 206.5,-95.5 279.5,-95.5 279.5,-76.5 206.5,-76.5"/>
<text text-anchor="middle" x="243" y="-83.5" font-family="Helvetica,sans-Serif" font-size="10.00">ifvar_check</text>
</a>
</g>
</g>
<!-- Node1&#45;&gt;Node7 -->
<g id="edge6" class="edge">
<title>Node1&#45;&gt;Node7</title>
<path fill="none" stroke="midnightblue" d="M135.08,-86C155.56,-86 177.63,-86 196.37,-86"/>
<polygon fill="midnightblue" stroke="midnightblue" points="196.41,-89.5 206.41,-86 196.41,-82.5 196.41,-89.5"/>
</g>
<!-- Node8 -->
<g id="node8" class="node">
<title>Node8</title>
<g id="a_node8"><a xlink:href="../../d4/d01/linear__grp__solver___l_a_g_8c.html#ab4ec31d8b36eb208891be00b7f247b4a" target="_top" xlink:title="A Lagrangian GRP solver for unsteady compressible inviscid two&#45;component flow in one space dimension.">
<polygon fill="white" stroke="black" points="177.5,-38.5 177.5,-57.5 308.5,-57.5 308.5,-38.5 177.5,-38.5"/>
<text text-anchor="middle" x="243" y="-45.5" font-family="Helvetica,sans-Serif" font-size="10.00">linear_GRP_solver_LAG</text>
</a>
</g>
</g>
<!-- Node1&#45;&gt;Node8 -->
<g id="edge7" class="edge">
<title>Node1&#45;&gt;Node8</title>
<path fill="none" stroke="midnightblue" d="M112.28,-76.41C135.49,-71.33 164.18,-65.04 188.67,-59.68"/>
<polygon fill="midnightblue" stroke="midnightblue" points="189.51,-63.08 198.53,-57.52 188.02,-56.24 189.51,-63.08"/>
</g>
<!-- Node10 -->
<g id="node10" class="node">
<title>Node10</title>
<g id="a_node10"><a xlink:href="../../d7/d5a/fluid__var__check_8c.html#a0177056576942ce464bb53db4dcb5138" target="_top" xlink:title="This function checks whether fluid variables of mid[] and dire[] are within the value range.">
<polygon fill="white" stroke="black" points="196.5,-0.5 196.5,-19.5 289.5,-19.5 289.5,-0.5 196.5,-0.5"/>
<text text-anchor="middle" x="243" y="-7.5" font-family="Helvetica,sans-Serif" font-size="10.00">star_dire_check</text>
</a>
</g>
</g>
<!-- Node1&#45;&gt;Node10 -->
<g id="edge9" class="edge">
<title>Node1&#45;&gt;Node10</title>
<path fill="none" stroke="midnightblue" d="M83.2,-76.29C102.61,-63.85 138.16,-42.29 171,-29 176.9,-26.61 183.2,-24.43 189.51,-22.47"/>
<polygon fill="midnightblue" stroke="midnightblue" points="190.78,-25.75 199.39,-19.58 188.81,-19.03 190.78,-25.75"/>
</g>
<!-- Node3 -->
<g id="node3" class="node">
<title>Node3</title>
<g id="a_node3"><a xlink:href="../../d2/d49/slope__limiter_8c.html#aa63cbccebc0f88cf7397d2e594a861ae" target="_top" xlink:title="This function apply the minmod limiter to the slope in one dimension.">
<polygon fill="white" stroke="black" points="367.5,-152.5 367.5,-171.5 462.5,-171.5 462.5,-152.5 367.5,-152.5"/>
<text text-anchor="middle" x="415" y="-159.5" font-family="Helvetica,sans-Serif" font-size="10.00">minmod_limiter</text>
</a>
</g>
</g>
<!-- Node2&#45;&gt;Node3 -->
<g id="edge2" class="edge">
<title>Node2&#45;&gt;Node3</title>
<path fill="none" stroke="midnightblue" d="M315.11,-162C329.18,-162 343.76,-162 357.27,-162"/>
<polygon fill="midnightblue" stroke="midnightblue" points="357.37,-165.5 367.37,-162 357.37,-158.5 357.37,-165.5"/>
</g>
<!-- Node4 -->
<g id="node4" class="node">
<title>Node4</title>
<g id="a_node4"><a xlink:href="../../d5/da5/tools_8h.html#a56cac3298eeead8cf22c1e61eb5a5a88" target="_top" xlink:title="Minmod limiter function of two variables.">
<polygon fill="white" stroke="black" points="515,-171.5 515,-190.5 578,-190.5 578,-171.5 515,-171.5"/>
<text text-anchor="middle" x="546.5" y="-178.5" font-family="Helvetica,sans-Serif" font-size="10.00">minmod2</text>
</a>
</g>
</g>
<!-- Node3&#45;&gt;Node4 -->
<g id="edge3" class="edge">
<title>Node3&#45;&gt;Node4</title>
<path fill="none" stroke="midnightblue" d="M462.75,-168.86C476.61,-170.89 491.66,-173.1 505.08,-175.07"/>
<polygon fill="midnightblue" stroke="midnightblue" points="504.57,-178.53 514.97,-176.52 505.59,-171.61 504.57,-178.53"/>
</g>
<!-- Node5 -->
<g id="node5" class="node">
<title>Node5</title>
<g id="a_node5"><a xlink:href="../../d5/da5/tools_8h.html#a6dfba28e1af33b47f4656d3738996fe9" target="_top" xlink:title="Minmod limiter function of three variables.">
<polygon fill="white" stroke="black" points="515,-133.5 515,-152.5 578,-152.5 578,-133.5 515,-133.5"/>
<text text-anchor="middle" x="546.5" y="-140.5" font-family="Helvetica,sans-Serif" font-size="10.00">minmod3</text>
</a>
</g>
</g>
<!-- Node3&#45;&gt;Node5 -->
<g id="edge4" class="edge">
<title>Node3&#45;&gt;Node5</title>
<path fill="none" stroke="midnightblue" d="M462.75,-155.14C476.61,-153.11 491.66,-150.9 505.08,-148.93"/>
<polygon fill="midnightblue" stroke="midnightblue" points="505.59,-152.39 514.97,-147.48 504.57,-145.47 505.59,-152.39"/>
</g>
<!-- Node9 -->
<g id="node9" class="node">
<title>Node9</title>
<g id="a_node9"><a xlink:href="../../d0/d08/riemann__solver__exact___ben_8c.html#a3ad58b11c355d45ee406da49161edbd4" target="_top" xlink:title="EXACT RIEMANN SOLVER FOR Two&#45;Component γ&#45;Law Gas">
<polygon fill="white" stroke="black" points="351,-38.5 351,-57.5 479,-57.5 479,-38.5 351,-38.5"/>
<text text-anchor="middle" x="415" y="-45.5" font-family="Helvetica,sans-Serif" font-size="10.00">Riemann_solver_exact</text>
</a>
</g>
</g>
<!-- Node8&#45;&gt;Node9 -->
<g id="edge8" class="edge">
<title>Node8&#45;&gt;Node9</title>
<path fill="none" stroke="midnightblue" d="M308.75,-48C319.21,-48 330.09,-48 340.73,-48"/>
<polygon fill="midnightblue" stroke="midnightblue" points="340.83,-51.5 350.83,-48 340.83,-44.5 340.83,-51.5"/>
</g>
</g>
</svg>
