<?xml version="1.0" encoding="UTF-8" standalone="no"?>
<!DOCTYPE svg PUBLIC "-//W3C//DTD SVG 1.1//EN"
 "http://www.w3.org/Graphics/SVG/1.1/DTD/svg11.dtd">
<!-- Generated by graphviz version 6.0.1 (0)
 -->
<!-- Title: src~/flux_calc/flux_generator_x.c Pages: 1 -->
<svg width="456pt" height="151pt"
 viewBox="0.00 0.00 456.00 151.00" xmlns="http://www.w3.org/2000/svg" xmlns:xlink="http://www.w3.org/1999/xlink">
<g id="graph0" class="graph" transform="scale(1 1) rotate(0) translate(4 147)">
<title>src~/flux_calc/flux_generator_x.c</title>
<polygon fill="white" stroke="none" points="-4,4 -4,-147 452,-147 452,4 -4,4"/>
<!-- Node1 -->
<g id="node1" class="node">
<title>Node1</title>
<g id="a_node1"><a xlink:title="This file is a function which generates Eulerian fluxes in x&#45;direction of 2&#45;D Euler equations solved ...">
<polygon fill="#bfbfbf" stroke="black" points="94.5,-112.5 94.5,-142.5 201.5,-142.5 201.5,-112.5 94.5,-112.5"/>
<text text-anchor="start" x="102.5" y="-130.5" font-family="Helvetica,sans-Serif" font-size="10.00">src~/flux_calc/flux</text>
<text text-anchor="middle" x="148" y="-119.5" font-family="Helvetica,sans-Serif" font-size="10.00">_generator_x.c</text>
</a>
</g>
</g>
<!-- Node2 -->
<g id="node2" class="node">
<title>Node2</title>
<g id="a_node2"><a xlink:title=" ">
<polygon fill="white" stroke="#bfbfbf" points="0,-56.5 0,-75.5 50,-75.5 50,-56.5 0,-56.5"/>
<text text-anchor="middle" x="25" y="-63.5" font-family="Helvetica,sans-Serif" font-size="10.00">stdio.h</text>
</a>
</g>
</g>
<!-- Node1&#45;&gt;Node2 -->
<g id="edge1" class="edge">
<title>Node1&#45;&gt;Node2</title>
<path fill="none" stroke="midnightblue" d="M118.85,-112.4C98.58,-102.59 71.76,-89.62 51.98,-80.05"/>
<polygon fill="midnightblue" stroke="midnightblue" points="53.42,-76.86 42.9,-75.66 50.38,-83.16 53.42,-76.86"/>
</g>
<!-- Node3 -->
<g id="node3" class="node">
<title>Node3</title>
<g id="a_node3"><a xlink:title=" ">
<polygon fill="white" stroke="#bfbfbf" points="68.5,-56.5 68.5,-75.5 119.5,-75.5 119.5,-56.5 68.5,-56.5"/>
<text text-anchor="middle" x="94" y="-63.5" font-family="Helvetica,sans-Serif" font-size="10.00">math.h</text>
</a>
</g>
</g>
<!-- Node1&#45;&gt;Node3 -->
<g id="edge2" class="edge">
<title>Node1&#45;&gt;Node3</title>
<path fill="none" stroke="midnightblue" d="M135.2,-112.4C127.28,-103.66 117.06,-92.41 108.79,-83.3"/>
<polygon fill="midnightblue" stroke="midnightblue" points="111.17,-80.71 101.86,-75.66 105.99,-85.42 111.17,-80.71"/>
</g>
<!-- Node4 -->
<g id="node4" class="node">
<title>Node4</title>
<g id="a_node4"><a xlink:href="../../da/d1e/var__struc_8h.html" target="_top" xlink:title="This file is the header file of some globally common variables and structural bodies.">
<polygon fill="white" stroke="black" points="186,-0.5 186,-19.5 304,-19.5 304,-0.5 186,-0.5"/>
<text text-anchor="middle" x="245" y="-7.5" font-family="Helvetica,sans-Serif" font-size="10.00">../include/var_struc.h</text>
</a>
</g>
</g>
<!-- Node1&#45;&gt;Node4 -->
<g id="edge3" class="edge">
<title>Node1&#45;&gt;Node4</title>
<path fill="none" stroke="midnightblue" d="M148.66,-112.39C150.04,-97.08 154.25,-72.58 167,-56 178.13,-41.53 195.33,-30.9 210.75,-23.61"/>
<polygon fill="midnightblue" stroke="midnightblue" points="212.32,-26.74 220.05,-19.5 209.49,-20.34 212.32,-26.74"/>
</g>
<!-- Node5 -->
<g id="node5" class="node">
<title>Node5</title>
<g id="a_node5"><a xlink:href="../../d6/d6f/inter__process_8h.html" target="_top" xlink:title="This file is the header file of intermediate processes of finite volume scheme.">
<polygon fill="white" stroke="black" points="176,-56.5 176,-75.5 314,-75.5 314,-56.5 176,-56.5"/>
<text text-anchor="middle" x="245" y="-63.5" font-family="Helvetica,sans-Serif" font-size="10.00">../include/inter_process.h</text>
</a>
</g>
</g>
<!-- Node1&#45;&gt;Node5 -->
<g id="edge4" class="edge">
<title>Node1&#45;&gt;Node5</title>
<path fill="none" stroke="midnightblue" d="M170.99,-112.4C186.39,-102.95 206.59,-90.56 222,-81.11"/>
<polygon fill="midnightblue" stroke="midnightblue" points="224.19,-83.87 230.89,-75.66 220.53,-77.9 224.19,-83.87"/>
</g>
<!-- Node6 -->
<g id="node6" class="node">
<title>Node6</title>
<g id="a_node6"><a xlink:href="../../dd/df5/flux__calc_8h.html" target="_top" xlink:title="This file is the header file of intermediate processes of finite volume scheme.">
<polygon fill="white" stroke="black" points="332,-56.5 332,-75.5 448,-75.5 448,-56.5 332,-56.5"/>
<text text-anchor="middle" x="390" y="-63.5" font-family="Helvetica,sans-Serif" font-size="10.00">../include/flux_calc.h</text>
</a>
</g>
</g>
<!-- Node1&#45;&gt;Node6 -->
<g id="edge6" class="edge">
<title>Node1&#45;&gt;Node6</title>
<path fill="none" stroke="midnightblue" d="M201.71,-113.3C244.84,-102.69 304.7,-87.97 345.26,-78"/>
<polygon fill="midnightblue" stroke="midnightblue" points="346.26,-81.36 355.13,-75.57 344.59,-74.56 346.26,-81.36"/>
</g>
<!-- Node5&#45;&gt;Node4 -->
<g id="edge5" class="edge">
<title>Node5&#45;&gt;Node4</title>
<path fill="none" stroke="midnightblue" d="M245,-56.08C245,-49.01 245,-38.86 245,-29.99"/>
<polygon fill="midnightblue" stroke="midnightblue" points="248.5,-29.75 245,-19.75 241.5,-29.75 248.5,-29.75"/>
</g>
<!-- Node6&#45;&gt;Node4 -->
<g id="edge7" class="edge">
<title>Node6&#45;&gt;Node4</title>
<path fill="none" stroke="midnightblue" d="M367.02,-56.44C342.84,-47.44 304.58,-33.19 277.35,-23.05"/>
<polygon fill="midnightblue" stroke="midnightblue" points="278.46,-19.73 267.87,-19.52 276.02,-26.29 278.46,-19.73"/>
</g>
</g>
</svg>
