<?xml version="1.0" encoding="UTF-8" standalone="no"?>
<!DOCTYPE svg PUBLIC "-//W3C//DTD SVG 1.1//EN"
 "http://www.w3.org/Graphics/SVG/1.1/DTD/svg11.dtd">
<!-- Generated by graphviz version 5.0.0 (0)
 -->
<!-- Title: config_write Pages: 1 -->
<svg width="308pt" height="104pt"
 viewBox="0.00 0.00 308.00 104.00" xmlns="http://www.w3.org/2000/svg" xmlns:xlink="http://www.w3.org/1999/xlink">
<g id="graph0" class="graph" transform="scale(1 1) rotate(0) translate(4 100)">
<title>config_write</title>
<polygon fill="white" stroke="transparent" points="-4,4 -4,-100 304,-100 304,4 -4,4"/>
<!-- Node1 -->
<g id="node1" class="node">
<title>Node1</title>
<g id="a_node1"><a xlink:title=" ">
<polygon fill="#bfbfbf" stroke="black" points="223,-38.5 223,-57.5 300,-57.5 300,-38.5 223,-38.5"/>
<text text-anchor="middle" x="261.5" y="-45.5" font-family="Helvetica,sans-Serif" font-size="10.00">config_write</text>
</a>
</g>
</g>
<!-- Node2 -->
<g id="node2" class="node">
<title>Node2</title>
<g id="a_node2"><a xlink:href="../../db/db6/__1_d__file__out_8c.html#ac8a02f83676d1a92835bb46c4eb0bcbc" target="_top" xlink:title="This function write the 1&#45;D solution into output .dat files.">
<polygon fill="white" stroke="black" points="89,-76.5 89,-95.5 175,-95.5 175,-76.5 89,-76.5"/>
<text text-anchor="middle" x="132" y="-83.5" font-family="Helvetica,sans-Serif" font-size="10.00">_1D_file_write</text>
</a>
</g>
</g>
<!-- Node1&#45;&gt;Node2 -->
<g id="edge1" class="edge">
<title>Node1&#45;&gt;Node2</title>
<path fill="none" stroke="midnightblue" d="M218.44,-60.54C201.1,-65.7 181.32,-71.6 165.16,-76.41"/>
<polygon fill="midnightblue" stroke="midnightblue" points="219.74,-63.8 228.33,-57.59 217.74,-57.09 219.74,-63.8"/>
</g>
<!-- Node3 -->
<g id="node3" class="node">
<title>Node3</title>
<g id="a_node3"><a xlink:href="../../d8/d32/__2_d__file__out_8c.html#a2af47b5ca07b0ab40a1bc384565ab2a0" target="_top" xlink:title="This function write the 2&#45;D solution into output .dat files.">
<polygon fill="white" stroke="black" points="89,-38.5 89,-57.5 175,-57.5 175,-38.5 89,-38.5"/>
<text text-anchor="middle" x="132" y="-45.5" font-family="Helvetica,sans-Serif" font-size="10.00">_2D_file_write</text>
</a>
</g>
</g>
<!-- Node1&#45;&gt;Node3 -->
<g id="edge2" class="edge">
<title>Node1&#45;&gt;Node3</title>
<path fill="none" stroke="midnightblue" d="M212.81,-48C200.46,-48 187.26,-48 175.21,-48"/>
<polygon fill="midnightblue" stroke="midnightblue" points="212.94,-51.5 222.94,-48 212.94,-44.5 212.94,-51.5"/>
</g>
<!-- Node5 -->
<g id="node5" class="node">
<title>Node5</title>
<g id="a_node5"><a xlink:href="../../d8/d32/__2_d__file__out_8c.html#aec541405a9b5172445c0cd309a723c7d" target="_top" xlink:title="This function write the 2&#45;D solution into Tecplot output files.">
<polygon fill="white" stroke="black" points="77,-0.5 77,-19.5 187,-19.5 187,-0.5 77,-0.5"/>
<text text-anchor="middle" x="132" y="-7.5" font-family="Helvetica,sans-Serif" font-size="10.00">_2D_TEC_file_write</text>
</a>
</g>
</g>
<!-- Node1&#45;&gt;Node5 -->
<g id="edge4" class="edge">
<title>Node1&#45;&gt;Node5</title>
<path fill="none" stroke="midnightblue" d="M218.44,-35.46C201.1,-30.3 181.32,-24.4 165.16,-19.59"/>
<polygon fill="midnightblue" stroke="midnightblue" points="217.74,-38.91 228.33,-38.41 219.74,-32.2 217.74,-38.91"/>
</g>
<!-- Node4 -->
<g id="node4" class="node">
<title>Node4</title>
<g id="a_node4"><a xlink:href="../../d2/d24/hydrocode_8c.html#a0ddf1224851353fc92bfbff6f499fa97" target="_top" xlink:title="This is the main function which constructs the main structure of the Eulerian hydrocode.">
<polygon fill="white" stroke="black" points="0,-19.5 0,-38.5 41,-38.5 41,-19.5 0,-19.5"/>
<text text-anchor="middle" x="20.5" y="-26.5" font-family="Helvetica,sans-Serif" font-size="10.00">main</text>
</a>
</g>
</g>
<!-- Node3&#45;&gt;Node4 -->
<g id="edge3" class="edge">
<title>Node3&#45;&gt;Node4</title>
<path fill="none" stroke="midnightblue" d="M78.83,-38.95C65.45,-36.63 51.86,-34.27 41.27,-32.43"/>
<polygon fill="midnightblue" stroke="midnightblue" points="78.53,-42.45 88.98,-40.71 79.72,-35.55 78.53,-42.45"/>
</g>
<!-- Node5&#45;&gt;Node4 -->
<g id="edge5" class="edge">
<title>Node5&#45;&gt;Node4</title>
<path fill="none" stroke="midnightblue" d="M67.01,-21.1C57.62,-22.73 48.59,-24.3 41.09,-25.6"/>
<polygon fill="midnightblue" stroke="midnightblue" points="67.64,-24.55 76.89,-19.39 66.44,-17.65 67.64,-24.55"/>
</g>
</g>
</svg>
