<?xml version="1.0" encoding="UTF-8" standalone="no"?>
<!DOCTYPE svg PUBLIC "-//W3C//DTD SVG 1.1//EN"
 "http://www.w3.org/Graphics/SVG/1.1/DTD/svg11.dtd">
<!-- Generated by graphviz version 5.0.0 (0)
 -->
<!-- Title: _2D_initialize Pages: 1 -->
<svg width="317pt" height="104pt"
 viewBox="0.00 0.00 317.00 104.00" xmlns="http://www.w3.org/2000/svg" xmlns:xlink="http://www.w3.org/1999/xlink">
<g id="graph0" class="graph" transform="scale(1 1) rotate(0) translate(4 100)">
<title>_2D_initialize</title>
<polygon fill="white" stroke="transparent" points="-4,4 -4,-100 313,-100 313,4 -4,4"/>
<!-- Node1 -->
<g id="node1" class="node">
<title>Node1</title>
<g id="a_node1"><a xlink:title="This function reads the 2&#45;D initial data file of velocity/pressure/density.">
<polygon fill="#bfbfbf" stroke="black" points="0,-19.5 0,-38.5 83,-38.5 83,-19.5 0,-19.5"/>
<text text-anchor="middle" x="41.5" y="-26.5" font-family="Helvetica,sans-Serif" font-size="10.00">_2D_initialize</text>
</a>
</g>
</g>
<!-- Node2 -->
<g id="node2" class="node">
<title>Node2</title>
<g id="a_node2"><a xlink:href="../../d2/de0/config__handle_8c.html#a4b15e37e2922cce20bf5cc8bb6e80c9a" target="_top" xlink:title="This function controls configuration data reading and validation.">
<polygon fill="white" stroke="black" points="120,-38.5 120,-57.5 192,-57.5 192,-38.5 120,-38.5"/>
<text text-anchor="middle" x="156" y="-45.5" font-family="Helvetica,sans-Serif" font-size="10.00">configurate</text>
</a>
</g>
</g>
<!-- Node1&#45;&gt;Node2 -->
<g id="edge1" class="edge">
<title>Node1&#45;&gt;Node2</title>
<path fill="none" stroke="midnightblue" d="M83.12,-35.86C91.71,-37.31 100.83,-38.85 109.59,-40.33"/>
<polygon fill="midnightblue" stroke="midnightblue" points="109.21,-43.82 119.66,-42.03 110.38,-36.91 109.21,-43.82"/>
</g>
<!-- Node5 -->
<g id="node5" class="node">
<title>Node5</title>
<g id="a_node5"><a xlink:href="../../d4/de5/io__control_8c.html#a7e039d23ca87a439fbe9c9d336447887" target="_top" xlink:title="This function produces folder path for data input or output.">
<polygon fill="white" stroke="black" points="119,-0.5 119,-19.5 193,-19.5 193,-0.5 119,-0.5"/>
<text text-anchor="middle" x="156" y="-7.5" font-family="Helvetica,sans-Serif" font-size="10.00">example_io</text>
</a>
</g>
</g>
<!-- Node1&#45;&gt;Node5 -->
<g id="edge4" class="edge">
<title>Node1&#45;&gt;Node5</title>
<path fill="none" stroke="midnightblue" d="M83.12,-22.14C91.53,-20.72 100.45,-19.21 109.04,-17.76"/>
<polygon fill="midnightblue" stroke="midnightblue" points="109.64,-21.21 118.92,-16.09 108.48,-14.31 109.64,-21.21"/>
</g>
<!-- Node3 -->
<g id="node3" class="node">
<title>Node3</title>
<g id="a_node3"><a xlink:href="../../d2/de0/config__handle_8c.html#a4b379c084f41490473f80792af24e0c7" target="_top" xlink:title="This function check whether the configuration data is reasonable and set the default.">
<polygon fill="white" stroke="black" points="229,-76.5 229,-95.5 309,-95.5 309,-76.5 229,-76.5"/>
<text text-anchor="middle" x="269" y="-83.5" font-family="Helvetica,sans-Serif" font-size="10.00">config_check</text>
</a>
</g>
</g>
<!-- Node2&#45;&gt;Node3 -->
<g id="edge2" class="edge">
<title>Node2&#45;&gt;Node3</title>
<path fill="none" stroke="midnightblue" d="M185.01,-57.59C198.68,-62.27 215.33,-67.97 230.12,-73.03"/>
<polygon fill="midnightblue" stroke="midnightblue" points="229.4,-76.49 240,-76.41 231.67,-69.86 229.4,-76.49"/>
</g>
<!-- Node4 -->
<g id="node4" class="node">
<title>Node4</title>
<g id="a_node4"><a xlink:href="../../d2/de0/config__handle_8c.html#a482404d20045a8a5f48b5ee425a04259" target="_top" xlink:title="This function read the configuration data file, and store the configuration data in the array &quot;config...">
<polygon fill="white" stroke="black" points="232,-38.5 232,-57.5 306,-57.5 306,-38.5 232,-38.5"/>
<text text-anchor="middle" x="269" y="-45.5" font-family="Helvetica,sans-Serif" font-size="10.00">config_read</text>
</a>
</g>
</g>
<!-- Node2&#45;&gt;Node4 -->
<g id="edge3" class="edge">
<title>Node2&#45;&gt;Node4</title>
<path fill="none" stroke="midnightblue" d="M192.12,-48C201.55,-48 211.89,-48 221.82,-48"/>
<polygon fill="midnightblue" stroke="midnightblue" points="221.96,-51.5 231.96,-48 221.96,-44.5 221.96,-51.5"/>
</g>
<!-- Node6 -->
<g id="node6" class="node">
<title>Node6</title>
<g id="a_node6"><a xlink:href="../../d4/ddd/sys__pro_8c.html#a40a5faeb19b1fd9aec2c5c10a87faeb4" target="_top" xlink:title="This is a function that recursively creates folders.">
<polygon fill="white" stroke="black" points="237.5,-0.5 237.5,-19.5 300.5,-19.5 300.5,-0.5 237.5,-0.5"/>
<text text-anchor="middle" x="269" y="-7.5" font-family="Helvetica,sans-Serif" font-size="10.00">CreateDir</text>
</a>
</g>
</g>
<!-- Node5&#45;&gt;Node6 -->
<g id="edge5" class="edge">
<title>Node5&#45;&gt;Node6</title>
<path fill="none" stroke="midnightblue" d="M193.04,-10C203.99,-10 216.1,-10 227.34,-10"/>
<polygon fill="midnightblue" stroke="midnightblue" points="227.35,-13.5 237.35,-10 227.35,-6.5 227.35,-13.5"/>
</g>
</g>
</svg>
