<?xml version="1.0" encoding="UTF-8" standalone="no"?>
<!DOCTYPE svg PUBLIC "-//W3C//DTD SVG 1.1//EN"
 "http://www.w3.org/Graphics/SVG/1.1/DTD/svg11.dtd">
<!-- Generated by graphviz version 6.0.1 (0)
 -->
<!-- Title: src~/riemann_solver Pages: 1 -->
<svg width="132pt" height="167pt"
 viewBox="0.00 0.00 132.00 167.00" xmlns="http://www.w3.org/2000/svg" xmlns:xlink="http://www.w3.org/1999/xlink">
<g id="graph0" class="graph" transform="scale(1 1) rotate(0) translate(4 163)">
<title>src~/riemann_solver</title>
<polygon fill="white" stroke="none" points="-4,4 -4,-163 128,-163 128,4 -4,4"/>
<g id="clust1" class="cluster">
<title>clusterdir_6771aafbf413a5638c4e561417caddb9</title>
<g id="a_clust1"><a xlink:href="dir_6771aafbf413a5638c4e561417caddb9.html" target="_top" xlink:title="src~">
<polygon fill="#edf0f7" stroke="#404040" stroke-dasharray="5,2" points="8,-8 8,-151 116,-151 116,-8 8,-8"/>
<text text-anchor="middle" x="62" y="-139" font-family="Helvetica,sans-Serif" font-size="10.00">src~</text>
</a>
</g>
</g>
<!-- dir_0aa4ecdbc965570bd87fb4da401df2c8 -->
<g id="node1" class="node">
<title>dir_0aa4ecdbc965570bd87fb4da401df2c8</title>
<g id="a_node1"><a xlink:href="dir_0aa4ecdbc965570bd87fb4da401df2c8.html" target="_top" xlink:title="include">
<polygon fill="#a2b4d6" stroke="#404040" points="89,-52 35,-52 35,-16 89,-16 89,-52"/>
<text text-anchor="middle" x="62" y="-31.5" font-family="Helvetica,sans-Serif" font-size="10.00">include</text>
</a>
</g>
</g>
<!-- dir_bf60a11fb9e16029752bcd5632b70b71 -->
<g id="node2" class="node">
<title>dir_bf60a11fb9e16029752bcd5632b70b71</title>
<g id="a_node2"><a xlink:href="dir_bf60a11fb9e16029752bcd5632b70b71.html" target="_top" xlink:title="riemann_solver">
<polygon fill="#edf0f7" stroke="#404040" stroke-width="2" points="108,-124 16,-124 16,-88 108,-88 108,-124"/>
<text text-anchor="middle" x="62" y="-103.5" font-family="Helvetica,sans-Serif" font-size="10.00">riemann_solver</text>
</a>
</g>
</g>
<!-- dir_bf60a11fb9e16029752bcd5632b70b71&#45;&gt;dir_0aa4ecdbc965570bd87fb4da401df2c8 -->
<g id="edge1" class="edge">
<title>dir_bf60a11fb9e16029752bcd5632b70b71&#45;&gt;dir_0aa4ecdbc965570bd87fb4da401df2c8</title>
<path fill="none" stroke="black" d="M62,-87.7C62,-79.98 62,-70.71 62,-62.11"/>
<polygon fill="black" stroke="black" points="65.5,-62.1 62,-52.1 58.5,-62.1 65.5,-62.1"/>
<g id="a_edge1&#45;headlabel"><a xlink:href="dir_000006_000004.html" target="_top" xlink:title="8">
<text text-anchor="middle" x="68.34" y="-63.2" font-family="Helvetica,sans-Serif" font-size="10.00">8</text>
</a>
</g>
</g>
</g>
</svg>
