<?xml version="1.0" encoding="UTF-8" standalone="no"?>
<!DOCTYPE svg PUBLIC "-//W3C//DTD SVG 1.1//EN"
 "http://www.w3.org/Graphics/SVG/1.1/DTD/svg11.dtd">
<!-- Generated by graphviz version 6.0.1 (0)
 -->
<!-- Title: file_1D_write Pages: 1 -->
<svg width="301pt" height="66pt"
 viewBox="0.00 0.00 301.00 66.00" xmlns="http://www.w3.org/2000/svg" xmlns:xlink="http://www.w3.org/1999/xlink">
<g id="graph0" class="graph" transform="scale(1 1) rotate(0) translate(4 62)">
<title>file_1D_write</title>
<polygon fill="white" stroke="none" points="-4,4 -4,-62 297,-62 297,4 -4,4"/>
<!-- Node1 -->
<g id="node1" class="node">
<title>Node1</title>
<g id="a_node1"><a xlink:title="This function write the 1&#45;D solution into output &#39;.dat&#39; files.">
<polygon fill="#bfbfbf" stroke="black" points="0,-19.5 0,-38.5 81,-38.5 81,-19.5 0,-19.5"/>
<text text-anchor="middle" x="40.5" y="-26.5" font-family="Helvetica,sans-Serif" font-size="10.00">file_1D_write</text>
</a>
</g>
</g>
<!-- Node2 -->
<g id="node2" class="node">
<title>Node2</title>
<g id="a_node2"><a xlink:href="../../d2/de0/config__handle_8c.html#a639a61ad0229b057258f8bc6edc4d050" target="_top" xlink:title="This function write configuration data and program record into the file &#39;log.dat&#39;.">
<polygon fill="white" stroke="black" points="117,-38.5 117,-57.5 194,-57.5 194,-38.5 117,-38.5"/>
<text text-anchor="middle" x="155.5" y="-45.5" font-family="Helvetica,sans-Serif" font-size="10.00">config_write</text>
</a>
</g>
</g>
<!-- Node1&#45;&gt;Node2 -->
<g id="edge1" class="edge">
<title>Node1&#45;&gt;Node2</title>
<path fill="none" stroke="midnightblue" d="M81.02,-35.65C89.35,-37.05 98.22,-38.54 106.8,-39.98"/>
<polygon fill="midnightblue" stroke="midnightblue" points="106.27,-43.44 116.71,-41.65 107.43,-36.54 106.27,-43.44"/>
</g>
<!-- Node3 -->
<g id="node3" class="node">
<title>Node3</title>
<g id="a_node3"><a xlink:href="../../d4/de5/io__control_8c.html#a7e039d23ca87a439fbe9c9d336447887" target="_top" xlink:title="This function produces folder path for data input or output.">
<polygon fill="white" stroke="black" points="118.5,-0.5 118.5,-19.5 192.5,-19.5 192.5,-0.5 118.5,-0.5"/>
<text text-anchor="middle" x="155.5" y="-7.5" font-family="Helvetica,sans-Serif" font-size="10.00">example_io</text>
</a>
</g>
</g>
<!-- Node1&#45;&gt;Node3 -->
<g id="edge2" class="edge">
<title>Node1&#45;&gt;Node3</title>
<path fill="none" stroke="midnightblue" d="M81.02,-22.35C89.81,-20.88 99.2,-19.3 108.23,-17.78"/>
<polygon fill="midnightblue" stroke="midnightblue" points="108.94,-21.21 118.22,-16.1 107.77,-14.31 108.94,-21.21"/>
</g>
<!-- Node4 -->
<g id="node4" class="node">
<title>Node4</title>
<g id="a_node4"><a xlink:href="../../d4/ddd/sys__pro_8c.html#a40a5faeb19b1fd9aec2c5c10a87faeb4" target="_top" xlink:title="This is a function that recursively creates folders.">
<polygon fill="white" stroke="black" points="230,-0.5 230,-19.5 293,-19.5 293,-0.5 230,-0.5"/>
<text text-anchor="middle" x="261.5" y="-7.5" font-family="Helvetica,sans-Serif" font-size="10.00">CreateDir</text>
</a>
</g>
</g>
<!-- Node3&#45;&gt;Node4 -->
<g id="edge3" class="edge">
<title>Node3&#45;&gt;Node4</title>
<path fill="none" stroke="midnightblue" d="M192.58,-10C201.27,-10 210.61,-10 219.5,-10"/>
<polygon fill="midnightblue" stroke="midnightblue" points="219.67,-13.5 229.67,-10 219.67,-6.5 219.67,-13.5"/>
</g>
</g>
</svg>
