<?xml version="1.0" encoding="UTF-8" standalone="no"?>
<!DOCTYPE svg PUBLIC "-//W3C//DTD SVG 1.1//EN"
 "http://www.w3.org/Graphics/SVG/1.1/DTD/svg11.dtd">
<!-- Generated by graphviz version 5.0.0 (0)
 -->
<!-- Title: /home/leixin/Programs/HydroCODE/src/inter_process/bound_cond_slope_limiter.c Pages: 1 -->
<svg width="406pt" height="173pt"
 viewBox="0.00 0.00 406.00 173.00" xmlns="http://www.w3.org/2000/svg" xmlns:xlink="http://www.w3.org/1999/xlink">
<g id="graph0" class="graph" transform="scale(1 1) rotate(0) translate(4 169)">
<title>/home/leixin/Programs/HydroCODE/src/inter_process/bound_cond_slope_limiter.c</title>
<polygon fill="white" stroke="transparent" points="-4,4 -4,-169 402,-169 402,4 -4,4"/>
<!-- Node1 -->
<g id="node1" class="node">
<title>Node1</title>
<g id="a_node1"><a xlink:title="This is a function to set boundary conditions and use the slope limiter in one dimension.">
<polygon fill="#bfbfbf" stroke="black" points="100,-112.5 100,-164.5 252,-164.5 252,-112.5 100,-112.5"/>
<text text-anchor="start" x="108" y="-152.5" font-family="Helvetica,sans-Serif" font-size="10.00">/home/leixin/Programs</text>
<text text-anchor="start" x="108" y="-141.5" font-family="Helvetica,sans-Serif" font-size="10.00">/HydroCODE/src/inter</text>
<text text-anchor="start" x="108" y="-130.5" font-family="Helvetica,sans-Serif" font-size="10.00">_process/bound_cond_slope</text>
<text text-anchor="middle" x="176" y="-119.5" font-family="Helvetica,sans-Serif" font-size="10.00">_limiter.c</text>
</a>
</g>
</g>
<!-- Node2 -->
<g id="node2" class="node">
<title>Node2</title>
<g id="a_node2"><a xlink:title=" ">
<polygon fill="white" stroke="#bfbfbf" points="0,-56.5 0,-75.5 50,-75.5 50,-56.5 0,-56.5"/>
<text text-anchor="middle" x="25" y="-63.5" font-family="Helvetica,sans-Serif" font-size="10.00">stdio.h</text>
</a>
</g>
</g>
<!-- Node1&#45;&gt;Node2 -->
<g id="edge1" class="edge">
<title>Node1&#45;&gt;Node2</title>
<path fill="none" stroke="midnightblue" d="M122.34,-112.45C98.7,-101.41 71.93,-88.91 52.46,-79.82"/>
<polygon fill="midnightblue" stroke="midnightblue" points="53.81,-76.59 43.26,-75.53 50.84,-82.93 53.81,-76.59"/>
</g>
<!-- Node3 -->
<g id="node3" class="node">
<title>Node3</title>
<g id="a_node3"><a xlink:title=" ">
<polygon fill="white" stroke="#bfbfbf" points="68,-56.5 68,-75.5 130,-75.5 130,-56.5 68,-56.5"/>
<text text-anchor="middle" x="99" y="-63.5" font-family="Helvetica,sans-Serif" font-size="10.00">stdbool.h</text>
</a>
</g>
</g>
<!-- Node1&#45;&gt;Node3 -->
<g id="edge2" class="edge">
<title>Node1&#45;&gt;Node3</title>
<path fill="none" stroke="midnightblue" d="M148.64,-112.45C137.8,-102.53 125.68,-91.43 116.13,-82.69"/>
<polygon fill="midnightblue" stroke="midnightblue" points="118.24,-79.87 108.5,-75.7 113.51,-85.03 118.24,-79.87"/>
</g>
<!-- Node4 -->
<g id="node4" class="node">
<title>Node4</title>
<g id="a_node4"><a xlink:title=" ">
<polygon fill="white" stroke="#bfbfbf" points="148,-56.5 148,-75.5 204,-75.5 204,-56.5 148,-56.5"/>
<text text-anchor="middle" x="176" y="-63.5" font-family="Helvetica,sans-Serif" font-size="10.00">stdarg.h</text>
</a>
</g>
</g>
<!-- Node1&#45;&gt;Node4 -->
<g id="edge3" class="edge">
<title>Node1&#45;&gt;Node4</title>
<path fill="none" stroke="midnightblue" d="M176,-112.45C176,-103.73 176,-94.1 176,-85.96"/>
<polygon fill="midnightblue" stroke="midnightblue" points="179.5,-85.7 176,-75.7 172.5,-85.7 179.5,-85.7"/>
</g>
<!-- Node5 -->
<g id="node5" class="node">
<title>Node5</title>
<g id="a_node5"><a xlink:href="../../da/d1e/var__struc_8h.html" target="_top" xlink:title="This file is the header file of some globally common variables and structural bodies.">
<polygon fill="white" stroke="black" points="221,-0.5 221,-19.5 339,-19.5 339,-0.5 221,-0.5"/>
<text text-anchor="middle" x="280" y="-7.5" font-family="Helvetica,sans-Serif" font-size="10.00">../include/var_struc.h</text>
</a>
</g>
</g>
<!-- Node1&#45;&gt;Node5 -->
<g id="edge4" class="edge">
<title>Node1&#45;&gt;Node5</title>
<path fill="none" stroke="midnightblue" d="M196.8,-112.2C217.53,-86.98 248.77,-48.98 266.48,-27.44"/>
<polygon fill="midnightblue" stroke="midnightblue" points="269.32,-29.5 272.97,-19.55 263.92,-25.05 269.32,-29.5"/>
</g>
<!-- Node6 -->
<g id="node6" class="node">
<title>Node6</title>
<g id="a_node6"><a xlink:href="../../d6/d6f/inter__process_8h.html" target="_top" xlink:title="This file is the header file of intermediate processes of finite volume scheme.">
<polygon fill="white" stroke="black" points="260,-56.5 260,-75.5 398,-75.5 398,-56.5 260,-56.5"/>
<text text-anchor="middle" x="329" y="-63.5" font-family="Helvetica,sans-Serif" font-size="10.00">../include/inter_process.h</text>
</a>
</g>
</g>
<!-- Node1&#45;&gt;Node6 -->
<g id="edge5" class="edge">
<title>Node1&#45;&gt;Node6</title>
<path fill="none" stroke="midnightblue" d="M230.37,-112.45C254.33,-101.41 281.45,-88.91 301.18,-79.82"/>
<polygon fill="midnightblue" stroke="midnightblue" points="302.88,-82.89 310.49,-75.53 299.95,-76.53 302.88,-82.89"/>
</g>
<!-- Node6&#45;&gt;Node5 -->
<g id="edge6" class="edge">
<title>Node6&#45;&gt;Node5</title>
<path fill="none" stroke="midnightblue" d="M320.91,-56.08C313.84,-48.3 303.41,-36.8 294.85,-27.37"/>
<polygon fill="midnightblue" stroke="midnightblue" points="297.25,-24.8 287.94,-19.75 292.07,-29.51 297.25,-24.8"/>
</g>
</g>
</svg>
