<?xml version="1.0" encoding="UTF-8" standalone="no"?>
<!DOCTYPE svg PUBLIC "-//W3C//DTD SVG 1.1//EN"
 "http://www.w3.org/Graphics/SVG/1.1/DTD/svg11.dtd">
<!-- Generated by graphviz version 6.0.1 (0)
 -->
<!-- Title: src~/finite_volume/grp_solver_LAG_source.c Pages: 1 -->
<svg width="777pt" height="162pt"
 viewBox="0.00 0.00 776.50 162.00" xmlns="http://www.w3.org/2000/svg" xmlns:xlink="http://www.w3.org/1999/xlink">
<g id="graph0" class="graph" transform="scale(1 1) rotate(0) translate(4 158)">
<title>src~/finite_volume/grp_solver_LAG_source.c</title>
<polygon fill="white" stroke="none" points="-4,4 -4,-158 772.5,-158 772.5,4 -4,4"/>
<!-- Node1 -->
<g id="node1" class="node">
<title>Node1</title>
<g id="a_node1"><a xlink:title="This is a Lagrangian GRP scheme to solve 1&#45;D Euler equations.">
<polygon fill="#bfbfbf" stroke="black" points="235,-123.5 235,-153.5 377,-153.5 377,-123.5 235,-123.5"/>
<text text-anchor="start" x="243" y="-141.5" font-family="Helvetica,sans-Serif" font-size="10.00">src~/finite_volume</text>
<text text-anchor="middle" x="306" y="-130.5" font-family="Helvetica,sans-Serif" font-size="10.00">/grp_solver_LAG_source.c</text>
</a>
</g>
</g>
<!-- Node2 -->
<g id="node2" class="node">
<title>Node2</title>
<g id="a_node2"><a xlink:title=" ">
<polygon fill="white" stroke="#bfbfbf" points="0,-62 0,-81 50,-81 50,-62 0,-62"/>
<text text-anchor="middle" x="25" y="-69" font-family="Helvetica,sans-Serif" font-size="10.00">stdio.h</text>
</a>
</g>
</g>
<!-- Node1&#45;&gt;Node2 -->
<g id="edge1" class="edge">
<title>Node1&#45;&gt;Node2</title>
<path fill="none" stroke="midnightblue" d="M234.77,-126.85C184.91,-118.45 117.08,-105.12 59,-87 56.86,-86.33 54.67,-85.58 52.49,-84.77"/>
<polygon fill="midnightblue" stroke="midnightblue" points="53.68,-81.48 43.1,-81.02 51.08,-87.98 53.68,-81.48"/>
</g>
<!-- Node3 -->
<g id="node3" class="node">
<title>Node3</title>
<g id="a_node3"><a xlink:title=" ">
<polygon fill="white" stroke="#bfbfbf" points="68.5,-62 68.5,-81 119.5,-81 119.5,-62 68.5,-62"/>
<text text-anchor="middle" x="94" y="-69" font-family="Helvetica,sans-Serif" font-size="10.00">math.h</text>
</a>
</g>
</g>
<!-- Node1&#45;&gt;Node3 -->
<g id="edge2" class="edge">
<title>Node1&#45;&gt;Node3</title>
<path fill="none" stroke="midnightblue" d="M250.48,-123.42C215.34,-114.07 169.13,-100.99 129,-87 127.09,-86.33 125.13,-85.62 123.17,-84.88"/>
<polygon fill="midnightblue" stroke="midnightblue" points="124.06,-81.46 113.47,-81.03 121.47,-87.97 124.06,-81.46"/>
</g>
<!-- Node4 -->
<g id="node4" class="node">
<title>Node4</title>
<g id="a_node4"><a xlink:title=" ">
<polygon fill="white" stroke="#bfbfbf" points="137.5,-62 137.5,-81 190.5,-81 190.5,-62 137.5,-62"/>
<text text-anchor="middle" x="164" y="-69" font-family="Helvetica,sans-Serif" font-size="10.00">stdlib.h</text>
</a>
</g>
</g>
<!-- Node1&#45;&gt;Node4 -->
<g id="edge3" class="edge">
<title>Node1&#45;&gt;Node4</title>
<path fill="none" stroke="midnightblue" d="M275.19,-123.4C250.38,-112.04 215.82,-96.22 191.84,-85.24"/>
<polygon fill="midnightblue" stroke="midnightblue" points="193.13,-81.99 182.58,-81.01 190.22,-88.35 193.13,-81.99"/>
</g>
<!-- Node5 -->
<g id="node5" class="node">
<title>Node5</title>
<g id="a_node5"><a xlink:title=" ">
<polygon fill="white" stroke="#bfbfbf" points="209,-62 209,-81 257,-81 257,-62 209,-62"/>
<text text-anchor="middle" x="233" y="-69" font-family="Helvetica,sans-Serif" font-size="10.00">time.h</text>
</a>
</g>
</g>
<!-- Node1&#45;&gt;Node5 -->
<g id="edge4" class="edge">
<title>Node1&#45;&gt;Node5</title>
<path fill="none" stroke="midnightblue" d="M290.16,-123.4C278.44,-112.96 262.48,-98.75 250.41,-88"/>
<polygon fill="midnightblue" stroke="midnightblue" points="252.56,-85.23 242.76,-81.19 247.91,-90.46 252.56,-85.23"/>
</g>
<!-- Node6 -->
<g id="node6" class="node">
<title>Node6</title>
<g id="a_node6"><a xlink:title=" ">
<polygon fill="white" stroke="#bfbfbf" points="275,-62 275,-81 337,-81 337,-62 275,-62"/>
<text text-anchor="middle" x="306" y="-69" font-family="Helvetica,sans-Serif" font-size="10.00">stdbool.h</text>
</a>
</g>
</g>
<!-- Node1&#45;&gt;Node6 -->
<g id="edge5" class="edge">
<title>Node1&#45;&gt;Node6</title>
<path fill="none" stroke="midnightblue" d="M306,-123.4C306,-114.06 306,-101.71 306,-91.52"/>
<polygon fill="midnightblue" stroke="midnightblue" points="309.5,-91.19 306,-81.19 302.5,-91.19 309.5,-91.19"/>
</g>
<!-- Node7 -->
<g id="node7" class="node">
<title>Node7</title>
<g id="a_node7"><a xlink:href="../../da/d1e/var__struc_8h.html" target="_top" xlink:title="This file is the header file of some globally common variables and structural bodies.">
<polygon fill="white" stroke="black" points="386,-0.5 386,-19.5 504,-19.5 504,-0.5 386,-0.5"/>
<text text-anchor="middle" x="445" y="-7.5" font-family="Helvetica,sans-Serif" font-size="10.00">../include/var_struc.h</text>
</a>
</g>
</g>
<!-- Node1&#45;&gt;Node7 -->
<g id="edge6" class="edge">
<title>Node1&#45;&gt;Node7</title>
<path fill="none" stroke="midnightblue" d="M318.29,-123.23C333.12,-106.38 359.15,-77.86 384,-56 396.44,-45.06 411.4,-33.99 423.39,-25.57"/>
<polygon fill="midnightblue" stroke="midnightblue" points="425.65,-28.26 431.89,-19.7 421.67,-22.5 425.65,-28.26"/>
</g>
<!-- Node8 -->
<g id="node8" class="node">
<title>Node8</title>
<g id="a_node8"><a xlink:href="../../df/ded/riemann__solver_8h.html" target="_top" xlink:title="This file is the header file of several Riemann solvers and GRP solvers.">
<polygon fill="white" stroke="black" points="393,-56.5 393,-86.5 497,-86.5 497,-56.5 393,-56.5"/>
<text text-anchor="start" x="401" y="-74.5" font-family="Helvetica,sans-Serif" font-size="10.00">../include/riemann</text>
<text text-anchor="middle" x="445" y="-63.5" font-family="Helvetica,sans-Serif" font-size="10.00">_solver.h</text>
</a>
</g>
</g>
<!-- Node1&#45;&gt;Node8 -->
<g id="edge7" class="edge">
<title>Node1&#45;&gt;Node8</title>
<path fill="none" stroke="midnightblue" d="M336.16,-123.4C356.56,-113.86 383.7,-101.16 405.78,-90.84"/>
<polygon fill="midnightblue" stroke="midnightblue" points="407.32,-93.98 414.9,-86.58 404.36,-87.64 407.32,-93.98"/>
</g>
<!-- Node9 -->
<g id="node9" class="node">
<title>Node9</title>
<g id="a_node9"><a xlink:href="../../d6/d6f/inter__process_8h.html" target="_top" xlink:title="This file is the header file of intermediate processes of finite volume scheme.">
<polygon fill="white" stroke="black" points="515,-62 515,-81 653,-81 653,-62 515,-62"/>
<text text-anchor="middle" x="584" y="-69" font-family="Helvetica,sans-Serif" font-size="10.00">../include/inter_process.h</text>
</a>
</g>
</g>
<!-- Node1&#45;&gt;Node9 -->
<g id="edge9" class="edge">
<title>Node1&#45;&gt;Node9</title>
<path fill="none" stroke="midnightblue" d="M365.98,-123.48C417.43,-111.45 490.52,-94.36 537.6,-83.35"/>
<polygon fill="midnightblue" stroke="midnightblue" points="538.58,-86.71 547.52,-81.03 536.99,-79.9 538.58,-86.71"/>
</g>
<!-- Node10 -->
<g id="node10" class="node">
<title>Node10</title>
<g id="a_node10"><a xlink:href="../../d5/da5/tools_8h.html" target="_top" xlink:title="This file is the header file of several independent tool functions.">
<polygon fill="white" stroke="black" points="671.5,-62 671.5,-81 768.5,-81 768.5,-62 671.5,-62"/>
<text text-anchor="middle" x="720" y="-69" font-family="Helvetica,sans-Serif" font-size="10.00">../include/tools.h</text>
</a>
</g>
</g>
<!-- Node1&#45;&gt;Node10 -->
<g id="edge11" class="edge">
<title>Node1&#45;&gt;Node10</title>
<path fill="none" stroke="midnightblue" d="M377.29,-129.6C449.42,-121.09 563.97,-106.15 662,-87 667.41,-85.94 673.08,-84.7 678.65,-83.39"/>
<polygon fill="midnightblue" stroke="midnightblue" points="679.63,-86.76 688.53,-81 677.98,-79.95 679.63,-86.76"/>
</g>
<!-- Node8&#45;&gt;Node7 -->
<g id="edge8" class="edge">
<title>Node8&#45;&gt;Node7</title>
<path fill="none" stroke="midnightblue" d="M445,-56.4C445,-48.47 445,-38.46 445,-29.86"/>
<polygon fill="midnightblue" stroke="midnightblue" points="448.5,-29.66 445,-19.66 441.5,-29.66 448.5,-29.66"/>
</g>
<!-- Node9&#45;&gt;Node7 -->
<g id="edge10" class="edge">
<title>Node9&#45;&gt;Node7</title>
<path fill="none" stroke="midnightblue" d="M564.08,-61.98C540.55,-51.9 501.19,-35.05 474.21,-23.5"/>
<polygon fill="midnightblue" stroke="midnightblue" points="475.45,-20.23 464.88,-19.51 472.69,-26.66 475.45,-20.23"/>
</g>
</g>
</svg>
