<?xml version="1.0" encoding="UTF-8" standalone="no"?>
<!DOCTYPE svg PUBLIC "-//W3C//DTD SVG 1.1//EN"
 "http://www.w3.org/Graphics/SVG/1.1/DTD/svg11.dtd">
<!-- Generated by graphviz version 5.0.0 (0)
 -->
<!-- Title: /home/leixin/Programs/HydroCODE/src/include/flux_calc.h Pages: 1 -->
<svg width="614pt" height="139pt"
 viewBox="0.00 0.00 614.00 139.00" xmlns="http://www.w3.org/2000/svg" xmlns:xlink="http://www.w3.org/1999/xlink">
<g id="graph0" class="graph" transform="scale(1 1) rotate(0) translate(4 135)">
<title>/home/leixin/Programs/HydroCODE/src/include/flux_calc.h</title>
<polygon fill="white" stroke="transparent" points="-4,4 -4,-135 610,-135 610,4 -4,4"/>
<!-- Node1 -->
<g id="node1" class="node">
<title>Node1</title>
<g id="a_node1"><a xlink:title="This file is the header file of intermediate processes of finite volume scheme.">
<polygon fill="#bfbfbf" stroke="black" points="234,-89.5 234,-130.5 366,-130.5 366,-89.5 234,-89.5"/>
<text text-anchor="start" x="242" y="-118.5" font-family="Helvetica,sans-Serif" font-size="10.00">/home/leixin/Programs</text>
<text text-anchor="start" x="242" y="-107.5" font-family="Helvetica,sans-Serif" font-size="10.00">/HydroCODE/src/include</text>
<text text-anchor="middle" x="300" y="-96.5" font-family="Helvetica,sans-Serif" font-size="10.00">/flux_calc.h</text>
</a>
</g>
</g>
<!-- Node2 -->
<g id="node2" class="node">
<title>Node2</title>
<g id="a_node2"><a xlink:href="../../d6/d0f/_g_r_p__solver__2_d___e_u_l__source_8c.html" target="_top" xlink:title="This is an Eulerian GRP scheme to solve 2&#45;D Euler equations without dimension splitting.">
<polygon fill="white" stroke="black" points="0,-0.5 0,-52.5 136,-52.5 136,-0.5 0,-0.5"/>
<text text-anchor="start" x="8" y="-40.5" font-family="Helvetica,sans-Serif" font-size="10.00">/home/leixin/Programs</text>
<text text-anchor="start" x="8" y="-29.5" font-family="Helvetica,sans-Serif" font-size="10.00">/HydroCODE/src/finite</text>
<text text-anchor="start" x="8" y="-18.5" font-family="Helvetica,sans-Serif" font-size="10.00">_volume/GRP_solver_2D</text>
<text text-anchor="middle" x="68" y="-7.5" font-family="Helvetica,sans-Serif" font-size="10.00">_EUL_source.c</text>
</a>
</g>
</g>
<!-- Node1&#45;&gt;Node2 -->
<g id="edge1" class="edge">
<title>Node1&#45;&gt;Node2</title>
<path fill="none" stroke="midnightblue" d="M234.69,-86.06C204.01,-75.28 167.44,-62.43 136.38,-51.52"/>
<polygon fill="midnightblue" stroke="midnightblue" points="233.84,-89.47 244.43,-89.48 236.16,-82.86 233.84,-89.47"/>
</g>
<!-- Node3 -->
<g id="node3" class="node">
<title>Node3</title>
<g id="a_node3"><a xlink:href="../../dc/d9e/_g_r_p__solver__2_d__split___e_u_l__source_8c.html" target="_top" xlink:title="This is an Eulerian GRP scheme to solve 2&#45;D Euler equations with dimension splitting.">
<polygon fill="white" stroke="black" points="154,-0.5 154,-52.5 290,-52.5 290,-0.5 154,-0.5"/>
<text text-anchor="start" x="162" y="-40.5" font-family="Helvetica,sans-Serif" font-size="10.00">/home/leixin/Programs</text>
<text text-anchor="start" x="162" y="-29.5" font-family="Helvetica,sans-Serif" font-size="10.00">/HydroCODE/src/finite</text>
<text text-anchor="start" x="162" y="-18.5" font-family="Helvetica,sans-Serif" font-size="10.00">_volume/GRP_solver_2D</text>
<text text-anchor="middle" x="222" y="-7.5" font-family="Helvetica,sans-Serif" font-size="10.00">_split_EUL_source.c</text>
</a>
</g>
</g>
<!-- Node1&#45;&gt;Node3 -->
<g id="edge2" class="edge">
<title>Node1&#45;&gt;Node3</title>
<path fill="none" stroke="midnightblue" d="M274.12,-81.96C265.06,-72.5 254.93,-61.91 246.03,-52.61"/>
<polygon fill="midnightblue" stroke="midnightblue" points="271.68,-84.47 281.12,-89.27 276.73,-79.63 271.68,-84.47"/>
</g>
<!-- Node4 -->
<g id="node4" class="node">
<title>Node4</title>
<g id="a_node4"><a xlink:href="../../de/d35/flux__generator__x_8c.html" target="_top" xlink:title="This file is a function which generates Eulerian fluxes in x&#45;direction of 2&#45;D Euler equations solved ...">
<polygon fill="white" stroke="black" points="308,-6 308,-47 448,-47 448,-6 308,-6"/>
<text text-anchor="start" x="316" y="-35" font-family="Helvetica,sans-Serif" font-size="10.00">/home/leixin/Programs</text>
<text text-anchor="start" x="316" y="-24" font-family="Helvetica,sans-Serif" font-size="10.00">/HydroCODE/src/flux_calc</text>
<text text-anchor="middle" x="378" y="-13" font-family="Helvetica,sans-Serif" font-size="10.00">/flux_generator_x.c</text>
</a>
</g>
</g>
<!-- Node1&#45;&gt;Node4 -->
<g id="edge3" class="edge">
<title>Node1&#45;&gt;Node4</title>
<path fill="none" stroke="midnightblue" d="M325.8,-82.04C336.75,-70.6 349.26,-57.53 359.29,-47.05"/>
<polygon fill="midnightblue" stroke="midnightblue" points="323.27,-79.63 318.88,-89.27 328.32,-84.47 323.27,-79.63"/>
</g>
<!-- Node5 -->
<g id="node5" class="node">
<title>Node5</title>
<g id="a_node5"><a xlink:href="../../de/db1/flux__generator__y_8c.html" target="_top" xlink:title="This file is a function which generates Eulerian fluxes in y&#45;direction of 2&#45;D Euler equations solved ...">
<polygon fill="white" stroke="black" points="466,-6 466,-47 606,-47 606,-6 466,-6"/>
<text text-anchor="start" x="474" y="-35" font-family="Helvetica,sans-Serif" font-size="10.00">/home/leixin/Programs</text>
<text text-anchor="start" x="474" y="-24" font-family="Helvetica,sans-Serif" font-size="10.00">/HydroCODE/src/flux_calc</text>
<text text-anchor="middle" x="536" y="-13" font-family="Helvetica,sans-Serif" font-size="10.00">/flux_generator_y.c</text>
</a>
</g>
</g>
<!-- Node1&#45;&gt;Node5 -->
<g id="edge4" class="edge">
<title>Node1&#45;&gt;Node5</title>
<path fill="none" stroke="midnightblue" d="M366.36,-86.08C402.02,-73.77 445.51,-58.75 479.52,-47"/>
<polygon fill="midnightblue" stroke="midnightblue" points="364.84,-82.91 356.53,-89.48 367.12,-89.52 364.84,-82.91"/>
</g>
</g>
</svg>
