<?xml version="1.0" encoding="UTF-8" standalone="no"?>
<!DOCTYPE svg PUBLIC "-//W3C//DTD SVG 1.1//EN"
 "http://www.w3.org/Graphics/SVG/1.1/DTD/svg11.dtd">
<!-- Generated by graphviz version 6.0.1 (0)
 -->
<!-- Title: src~/riemann_solver/riemann_solver_exact_Toro.c Pages: 1 -->
<svg width="208pt" height="106pt"
 viewBox="0.00 0.00 207.50 106.00" xmlns="http://www.w3.org/2000/svg" xmlns:xlink="http://www.w3.org/1999/xlink">
<g id="graph0" class="graph" transform="scale(1 1) rotate(0) translate(4 102)">
<title>src~/riemann_solver/riemann_solver_exact_Toro.c</title>
<polygon fill="white" stroke="none" points="-4,4 -4,-102 203.5,-102 203.5,4 -4,4"/>
<!-- Node1 -->
<g id="node1" class="node">
<title>Node1</title>
<g id="a_node1"><a xlink:title="This is an exact Riemann solver in Toro&#39;s book.">
<polygon fill="#bfbfbf" stroke="black" points="30.5,-56.5 30.5,-97.5 158.5,-97.5 158.5,-56.5 30.5,-56.5"/>
<text text-anchor="start" x="38.5" y="-85.5" font-family="Helvetica,sans-Serif" font-size="10.00">src~/riemann_solver</text>
<text text-anchor="start" x="38.5" y="-74.5" font-family="Helvetica,sans-Serif" font-size="10.00">/riemann_solver_exact</text>
<text text-anchor="middle" x="94.5" y="-63.5" font-family="Helvetica,sans-Serif" font-size="10.00">_Toro.c</text>
</a>
</g>
</g>
<!-- Node2 -->
<g id="node2" class="node">
<title>Node2</title>
<g id="a_node2"><a xlink:title=" ">
<polygon fill="white" stroke="#bfbfbf" points="0,-0.5 0,-19.5 51,-19.5 51,-0.5 0,-0.5"/>
<text text-anchor="middle" x="25.5" y="-7.5" font-family="Helvetica,sans-Serif" font-size="10.00">math.h</text>
</a>
</g>
</g>
<!-- Node1&#45;&gt;Node2 -->
<g id="edge1" class="edge">
<title>Node1&#45;&gt;Node2</title>
<path fill="none" stroke="midnightblue" d="M73.8,-56.5C63.63,-46.92 51.54,-35.53 42,-26.54"/>
<polygon fill="midnightblue" stroke="midnightblue" points="44.36,-23.96 34.68,-19.65 39.56,-29.06 44.36,-23.96"/>
</g>
<!-- Node3 -->
<g id="node3" class="node">
<title>Node3</title>
<g id="a_node3"><a xlink:title=" ">
<polygon fill="white" stroke="#bfbfbf" points="69.5,-0.5 69.5,-19.5 119.5,-19.5 119.5,-0.5 69.5,-0.5"/>
<text text-anchor="middle" x="94.5" y="-7.5" font-family="Helvetica,sans-Serif" font-size="10.00">stdio.h</text>
</a>
</g>
</g>
<!-- Node1&#45;&gt;Node3 -->
<g id="edge2" class="edge">
<title>Node1&#45;&gt;Node3</title>
<path fill="none" stroke="midnightblue" d="M94.5,-56.5C94.5,-48.07 94.5,-38.24 94.5,-29.87"/>
<polygon fill="midnightblue" stroke="midnightblue" points="98,-29.65 94.5,-19.65 91,-29.65 98,-29.65"/>
</g>
<!-- Node4 -->
<g id="node4" class="node">
<title>Node4</title>
<g id="a_node4"><a xlink:title=" ">
<polygon fill="white" stroke="#bfbfbf" points="137.5,-0.5 137.5,-19.5 199.5,-19.5 199.5,-0.5 137.5,-0.5"/>
<text text-anchor="middle" x="168.5" y="-7.5" font-family="Helvetica,sans-Serif" font-size="10.00">stdbool.h</text>
</a>
</g>
</g>
<!-- Node1&#45;&gt;Node4 -->
<g id="edge3" class="edge">
<title>Node1&#45;&gt;Node4</title>
<path fill="none" stroke="midnightblue" d="M116.7,-56.5C127.72,-46.82 140.84,-35.3 151.11,-26.27"/>
<polygon fill="midnightblue" stroke="midnightblue" points="153.45,-28.88 158.65,-19.65 148.83,-23.62 153.45,-28.88"/>
</g>
</g>
</svg>
