<?xml version="1.0" encoding="UTF-8" standalone="no"?>
<!DOCTYPE svg PUBLIC "-//W3C//DTD SVG 1.1//EN"
 "http://www.w3.org/Graphics/SVG/1.1/DTD/svg11.dtd">
<!-- Generated by graphviz version 5.0.0 (0)
 -->
<!-- Title: /run/media/leixin/软件盘/雷昕整理后的重要文件/程序/My&#45;CFD/HydroCODE/src/include/Riemann_solver.h Pages: 1 -->
<svg width="2612pt" height="161pt"
 viewBox="0.00 0.00 2611.50 161.00" xmlns="http://www.w3.org/2000/svg" xmlns:xlink="http://www.w3.org/1999/xlink">
<g id="graph0" class="graph" transform="scale(1 1) rotate(0) translate(4 157)">
<title>/run/media/leixin/软件盘/雷昕整理后的重要文件/程序/My&#45;CFD/HydroCODE/src/include/Riemann_solver.h</title>
<polygon fill="white" stroke="transparent" points="-4,4 -4,-157 2607.5,-157 2607.5,4 -4,4"/>
<!-- Node1 -->
<g id="node1" class="node">
<title>Node1</title>
<g id="a_node1"><a xlink:title="This file is the header file of several Riemann solvers and GRP solvers.">
<polygon fill="#bfbfbf" stroke="black" points="1277,-100.5 1277,-152.5 1435,-152.5 1435,-100.5 1277,-100.5"/>
<text text-anchor="start" x="1285" y="-140.5" font-family="Helvetica,sans-Serif" font-size="10.00">/run/media/leixin/软件盘</text>
<text text-anchor="start" x="1285" y="-129.5" font-family="Helvetica,sans-Serif" font-size="10.00">/雷昕整理后的重要文件</text>
<text text-anchor="start" x="1285" y="-118.5" font-family="Helvetica,sans-Serif" font-size="10.00">/程序/My&#45;CFD/HydroCODE/src</text>
<text text-anchor="middle" x="1356" y="-107.5" font-family="Helvetica,sans-Serif" font-size="10.00">/include/Riemann_solver.h</text>
</a>
</g>
</g>
<!-- Node2 -->
<g id="node2" class="node">
<title>Node2</title>
<g id="a_node2"><a xlink:href="../../dc/d70/linear___g_r_p__solver___edir_8c.html" target="_top" xlink:title="This is a direct Eulerian GRP solver for compressible inviscid flow in Li&#39;s paper.">
<polygon fill="white" stroke="black" points="0,-6 0,-58 222,-58 222,-6 0,-6"/>
<text text-anchor="start" x="8" y="-46" font-family="Helvetica,sans-Serif" font-size="10.00">/run/media/leixin/软件盘</text>
<text text-anchor="start" x="8" y="-35" font-family="Helvetica,sans-Serif" font-size="10.00">/雷昕整理后的重要文件</text>
<text text-anchor="start" x="8" y="-24" font-family="Helvetica,sans-Serif" font-size="10.00">/程序/My&#45;CFD/HydroCODE/src</text>
<text text-anchor="middle" x="111" y="-13" font-family="Helvetica,sans-Serif" font-size="10.00">/Riemann_solver/linear_GRP_solver_Edir.c</text>
</a>
</g>
</g>
<!-- Node1&#45;&gt;Node2 -->
<g id="edge1" class="edge">
<title>Node1&#45;&gt;Node2</title>
<path fill="none" stroke="midnightblue" d="M1266.67,-122.9C1037,-115.86 430.06,-94.84 231,-64 220.79,-62.42 210.2,-60.34 199.71,-58.01"/>
<polygon fill="midnightblue" stroke="midnightblue" points="1266.88,-126.41 1276.99,-123.22 1267.1,-119.42 1266.88,-126.41"/>
</g>
<!-- Node3 -->
<g id="node3" class="node">
<title>Node3</title>
<g id="a_node3"><a xlink:href="../../d3/da7/linear___g_r_p__solver___edir___g2_d_8c.html" target="_top" xlink:title="This is a Genuinely&#45;2D direct Eulerian GRP solver for compressible inviscid flow in Li&#39;s paper.">
<polygon fill="white" stroke="black" points="240,-0.5 240,-63.5 430,-63.5 430,-0.5 240,-0.5"/>
<text text-anchor="start" x="248" y="-51.5" font-family="Helvetica,sans-Serif" font-size="10.00">/run/media/leixin/软件盘</text>
<text text-anchor="start" x="248" y="-40.5" font-family="Helvetica,sans-Serif" font-size="10.00">/雷昕整理后的重要文件</text>
<text text-anchor="start" x="248" y="-29.5" font-family="Helvetica,sans-Serif" font-size="10.00">/程序/My&#45;CFD/HydroCODE/src</text>
<text text-anchor="start" x="248" y="-18.5" font-family="Helvetica,sans-Serif" font-size="10.00">/Riemann_solver/linear_GRP_solver</text>
<text text-anchor="middle" x="335" y="-7.5" font-family="Helvetica,sans-Serif" font-size="10.00">_Edir_G2D.c</text>
</a>
</g>
</g>
<!-- Node1&#45;&gt;Node3 -->
<g id="edge2" class="edge">
<title>Node1&#45;&gt;Node3</title>
<path fill="none" stroke="midnightblue" d="M1266.68,-126.07C1101.76,-125.69 738.93,-118.06 439,-64 436.03,-63.47 433.03,-62.88 430.01,-62.24"/>
<polygon fill="midnightblue" stroke="midnightblue" points="1266.77,-129.57 1276.77,-126.09 1266.78,-122.57 1266.77,-129.57"/>
</g>
<!-- Node4 -->
<g id="node4" class="node">
<title>Node4</title>
<g id="a_node4"><a xlink:href="../../d5/dea/linear___g_r_p__solver___edir___q1_d_8c.html" target="_top" xlink:title="This is a Quasi&#45;1D direct Eulerian GRP solver for compressible inviscid flow in Li&#39;s paper.">
<polygon fill="white" stroke="black" points="448,-0.5 448,-63.5 638,-63.5 638,-0.5 448,-0.5"/>
<text text-anchor="start" x="456" y="-51.5" font-family="Helvetica,sans-Serif" font-size="10.00">/run/media/leixin/软件盘</text>
<text text-anchor="start" x="456" y="-40.5" font-family="Helvetica,sans-Serif" font-size="10.00">/雷昕整理后的重要文件</text>
<text text-anchor="start" x="456" y="-29.5" font-family="Helvetica,sans-Serif" font-size="10.00">/程序/My&#45;CFD/HydroCODE/src</text>
<text text-anchor="start" x="456" y="-18.5" font-family="Helvetica,sans-Serif" font-size="10.00">/Riemann_solver/linear_GRP_solver</text>
<text text-anchor="middle" x="543" y="-7.5" font-family="Helvetica,sans-Serif" font-size="10.00">_Edir_Q1D.c</text>
</a>
</g>
</g>
<!-- Node1&#45;&gt;Node4 -->
<g id="edge3" class="edge">
<title>Node1&#45;&gt;Node4</title>
<path fill="none" stroke="midnightblue" d="M1266.56,-123.55C1131.31,-119.31 867.17,-105.91 647,-64 644.04,-63.44 641.04,-62.82 638.02,-62.17"/>
<polygon fill="midnightblue" stroke="midnightblue" points="1266.76,-127.06 1276.86,-123.87 1266.97,-120.06 1266.76,-127.06"/>
</g>
<!-- Node5 -->
<g id="node5" class="node">
<title>Node5</title>
<g id="a_node5"><a xlink:href="../../de/d81/linear___g_r_p__solver___l_a_g_8c.html" target="_top" xlink:title="This is a Lagrangian GRP solver for compressible inviscid flow in Ben&#45;Artzi&#39;s paper.">
<polygon fill="white" stroke="black" points="656,-6 656,-58 880,-58 880,-6 656,-6"/>
<text text-anchor="start" x="664" y="-46" font-family="Helvetica,sans-Serif" font-size="10.00">/run/media/leixin/软件盘</text>
<text text-anchor="start" x="664" y="-35" font-family="Helvetica,sans-Serif" font-size="10.00">/雷昕整理后的重要文件</text>
<text text-anchor="start" x="664" y="-24" font-family="Helvetica,sans-Serif" font-size="10.00">/程序/My&#45;CFD/HydroCODE/src</text>
<text text-anchor="middle" x="768" y="-13" font-family="Helvetica,sans-Serif" font-size="10.00">/Riemann_solver/linear_GRP_solver_LAG.c</text>
</a>
</g>
</g>
<!-- Node1&#45;&gt;Node5 -->
<g id="edge4" class="edge">
<title>Node1&#45;&gt;Node5</title>
<path fill="none" stroke="midnightblue" d="M1266.54,-116.94C1172.16,-107.16 1019.34,-89.18 889,-64 879.95,-62.25 870.57,-60.23 861.22,-58.07"/>
<polygon fill="midnightblue" stroke="midnightblue" points="1266.32,-120.44 1276.62,-117.98 1267.03,-113.47 1266.32,-120.44"/>
</g>
<!-- Node6 -->
<g id="node6" class="node">
<title>Node6</title>
<g id="a_node6"><a xlink:href="../../d6/d0f/_g_r_p__solver__2_d___e_u_l__source_8c.html" target="_top" xlink:title="This is an Eulerian GRP scheme to solve 2&#45;D Euler equations without dimension splitting.">
<polygon fill="white" stroke="black" points="898,-6 898,-58 1132,-58 1132,-6 898,-6"/>
<text text-anchor="start" x="906" y="-46" font-family="Helvetica,sans-Serif" font-size="10.00">/run/media/leixin/软件盘</text>
<text text-anchor="start" x="906" y="-35" font-family="Helvetica,sans-Serif" font-size="10.00">/雷昕整理后的重要文件</text>
<text text-anchor="start" x="906" y="-24" font-family="Helvetica,sans-Serif" font-size="10.00">/程序/My&#45;CFD/HydroCODE/src</text>
<text text-anchor="middle" x="1015" y="-13" font-family="Helvetica,sans-Serif" font-size="10.00">/finite_volume/GRP_solver_2D_EUL_source.c</text>
</a>
</g>
</g>
<!-- Node1&#45;&gt;Node6 -->
<g id="edge5" class="edge">
<title>Node1&#45;&gt;Node6</title>
<path fill="none" stroke="midnightblue" d="M1267.24,-101.42C1218.05,-88.08 1156.98,-71.51 1107.25,-58.02"/>
<polygon fill="midnightblue" stroke="midnightblue" points="1266.34,-104.81 1276.91,-104.05 1268.18,-98.05 1266.34,-104.81"/>
</g>
<!-- Node7 -->
<g id="node7" class="node">
<title>Node7</title>
<g id="a_node7"><a xlink:href="../../dc/d9e/_g_r_p__solver__2_d__split___e_u_l__source_8c.html" target="_top" xlink:title="This is an Eulerian GRP scheme to solve 2&#45;D Euler equations with dimension splitting.">
<polygon fill="white" stroke="black" points="1150.5,-0.5 1150.5,-63.5 1341.5,-63.5 1341.5,-0.5 1150.5,-0.5"/>
<text text-anchor="start" x="1158.5" y="-51.5" font-family="Helvetica,sans-Serif" font-size="10.00">/run/media/leixin/软件盘</text>
<text text-anchor="start" x="1158.5" y="-40.5" font-family="Helvetica,sans-Serif" font-size="10.00">/雷昕整理后的重要文件</text>
<text text-anchor="start" x="1158.5" y="-29.5" font-family="Helvetica,sans-Serif" font-size="10.00">/程序/My&#45;CFD/HydroCODE/src</text>
<text text-anchor="start" x="1158.5" y="-18.5" font-family="Helvetica,sans-Serif" font-size="10.00">/finite_volume/GRP_solver_2D_split</text>
<text text-anchor="middle" x="1246" y="-7.5" font-family="Helvetica,sans-Serif" font-size="10.00">_EUL_source.c</text>
</a>
</g>
</g>
<!-- Node1&#45;&gt;Node7 -->
<g id="edge6" class="edge">
<title>Node1&#45;&gt;Node7</title>
<path fill="none" stroke="midnightblue" d="M1318.4,-93.88C1306.78,-84.11 1294.01,-73.37 1282.46,-63.66"/>
<polygon fill="midnightblue" stroke="midnightblue" points="1316.33,-96.71 1326.23,-100.47 1320.83,-91.35 1316.33,-96.71"/>
</g>
<!-- Node8 -->
<g id="node8" class="node">
<title>Node8</title>
<g id="a_node8"><a xlink:href="../../de/de8/_g_r_p__solver___a_l_e__source_8c.html" target="_top" xlink:title="This is an ALE GRP scheme to solve 1&#45;D Euler equations.">
<polygon fill="white" stroke="black" points="1359.5,-6 1359.5,-58 1574.5,-58 1574.5,-6 1359.5,-6"/>
<text text-anchor="start" x="1367.5" y="-46" font-family="Helvetica,sans-Serif" font-size="10.00">/run/media/leixin/软件盘</text>
<text text-anchor="start" x="1367.5" y="-35" font-family="Helvetica,sans-Serif" font-size="10.00">/雷昕整理后的重要文件</text>
<text text-anchor="start" x="1367.5" y="-24" font-family="Helvetica,sans-Serif" font-size="10.00">/程序/My&#45;CFD/HydroCODE/src</text>
<text text-anchor="middle" x="1467" y="-13" font-family="Helvetica,sans-Serif" font-size="10.00">/finite_volume/GRP_solver_ALE_source.c</text>
</a>
</g>
</g>
<!-- Node1&#45;&gt;Node8 -->
<g id="edge7" class="edge">
<title>Node1&#45;&gt;Node8</title>
<path fill="none" stroke="midnightblue" d="M1394.06,-93.78C1408.07,-82.11 1423.73,-69.06 1436.94,-58.05"/>
<polygon fill="midnightblue" stroke="midnightblue" points="1391.48,-91.38 1386.04,-100.47 1395.96,-96.76 1391.48,-91.38"/>
</g>
<!-- Node9 -->
<g id="node9" class="node">
<title>Node9</title>
<g id="a_node9"><a xlink:href="../../d5/d10/_g_r_p__solver___e_u_l__source_8c.html" target="_top" xlink:title="This is an Eulerian GRP scheme to solve 1&#45;D Euler equations.">
<polygon fill="white" stroke="black" points="1592.5,-6 1592.5,-58 1807.5,-58 1807.5,-6 1592.5,-6"/>
<text text-anchor="start" x="1600.5" y="-46" font-family="Helvetica,sans-Serif" font-size="10.00">/run/media/leixin/软件盘</text>
<text text-anchor="start" x="1600.5" y="-35" font-family="Helvetica,sans-Serif" font-size="10.00">/雷昕整理后的重要文件</text>
<text text-anchor="start" x="1600.5" y="-24" font-family="Helvetica,sans-Serif" font-size="10.00">/程序/My&#45;CFD/HydroCODE/src</text>
<text text-anchor="middle" x="1700" y="-13" font-family="Helvetica,sans-Serif" font-size="10.00">/finite_volume/GRP_solver_EUL_source.c</text>
</a>
</g>
</g>
<!-- Node1&#45;&gt;Node9 -->
<g id="edge8" class="edge">
<title>Node1&#45;&gt;Node9</title>
<path fill="none" stroke="midnightblue" d="M1445.13,-101.53C1494.84,-88.17 1556.7,-71.53 1607.02,-58"/>
<polygon fill="midnightblue" stroke="midnightblue" points="1444.1,-98.19 1435.35,-104.16 1445.92,-104.95 1444.1,-98.19"/>
</g>
<!-- Node10 -->
<g id="node10" class="node">
<title>Node10</title>
<g id="a_node10"><a xlink:href="../../dd/dd7/_g_r_p__solver___l_a_g__source_8c.html" target="_top" xlink:title="This is a Lagrangian GRP scheme to solve 1&#45;D Euler equations.">
<polygon fill="white" stroke="black" points="1825.5,-6 1825.5,-58 2042.5,-58 2042.5,-6 1825.5,-6"/>
<text text-anchor="start" x="1833.5" y="-46" font-family="Helvetica,sans-Serif" font-size="10.00">/run/media/leixin/软件盘</text>
<text text-anchor="start" x="1833.5" y="-35" font-family="Helvetica,sans-Serif" font-size="10.00">/雷昕整理后的重要文件</text>
<text text-anchor="start" x="1833.5" y="-24" font-family="Helvetica,sans-Serif" font-size="10.00">/程序/My&#45;CFD/HydroCODE/src</text>
<text text-anchor="middle" x="1934" y="-13" font-family="Helvetica,sans-Serif" font-size="10.00">/finite_volume/GRP_solver_LAG_source.c</text>
</a>
</g>
</g>
<!-- Node1&#45;&gt;Node10 -->
<g id="edge9" class="edge">
<title>Node1&#45;&gt;Node10</title>
<path fill="none" stroke="midnightblue" d="M1445.18,-116.98C1538.44,-107.29 1688.81,-89.43 1817,-64 1825.86,-62.24 1835.05,-60.2 1844.2,-58.02"/>
<polygon fill="midnightblue" stroke="midnightblue" points="1444.8,-113.5 1435.21,-118.01 1445.52,-120.46 1444.8,-113.5"/>
</g>
<!-- Node11 -->
<g id="node11" class="node">
<title>Node11</title>
<g id="a_node11"><a xlink:href="../../d4/da5/_godunov__solver___a_l_e__source_8c.html" target="_top" xlink:title="This is an ALE Godunov scheme to solve 1&#45;D Euler equations.">
<polygon fill="white" stroke="black" points="2060.5,-0.5 2060.5,-63.5 2229.5,-63.5 2229.5,-0.5 2060.5,-0.5"/>
<text text-anchor="start" x="2068.5" y="-51.5" font-family="Helvetica,sans-Serif" font-size="10.00">/run/media/leixin/软件盘</text>
<text text-anchor="start" x="2068.5" y="-40.5" font-family="Helvetica,sans-Serif" font-size="10.00">/雷昕整理后的重要文件</text>
<text text-anchor="start" x="2068.5" y="-29.5" font-family="Helvetica,sans-Serif" font-size="10.00">/程序/My&#45;CFD/HydroCODE/src</text>
<text text-anchor="start" x="2068.5" y="-18.5" font-family="Helvetica,sans-Serif" font-size="10.00">/finite_volume/Godunov_solver</text>
<text text-anchor="middle" x="2145" y="-7.5" font-family="Helvetica,sans-Serif" font-size="10.00">_ALE_source.c</text>
</a>
</g>
</g>
<!-- Node1&#45;&gt;Node11 -->
<g id="edge10" class="edge">
<title>Node1&#45;&gt;Node11</title>
<path fill="none" stroke="midnightblue" d="M1445.32,-124.25C1578.72,-120.9 1837.28,-108.63 2052,-64 2054.75,-63.43 2057.53,-62.8 2060.33,-62.13"/>
<polygon fill="midnightblue" stroke="midnightblue" points="1445.07,-120.76 1435.16,-124.5 1445.24,-127.75 1445.07,-120.76"/>
</g>
<!-- Node12 -->
<g id="node12" class="node">
<title>Node12</title>
<g id="a_node12"><a xlink:href="../../de/dd9/_godunov__solver___e_u_l__source_8c.html" target="_top" xlink:title="This is an Eulerian Godunov scheme to solve 1&#45;D Euler equations.">
<polygon fill="white" stroke="black" points="2247.5,-0.5 2247.5,-63.5 2416.5,-63.5 2416.5,-0.5 2247.5,-0.5"/>
<text text-anchor="start" x="2255.5" y="-51.5" font-family="Helvetica,sans-Serif" font-size="10.00">/run/media/leixin/软件盘</text>
<text text-anchor="start" x="2255.5" y="-40.5" font-family="Helvetica,sans-Serif" font-size="10.00">/雷昕整理后的重要文件</text>
<text text-anchor="start" x="2255.5" y="-29.5" font-family="Helvetica,sans-Serif" font-size="10.00">/程序/My&#45;CFD/HydroCODE/src</text>
<text text-anchor="start" x="2255.5" y="-18.5" font-family="Helvetica,sans-Serif" font-size="10.00">/finite_volume/Godunov_solver</text>
<text text-anchor="middle" x="2332" y="-7.5" font-family="Helvetica,sans-Serif" font-size="10.00">_EUL_source.c</text>
</a>
</g>
</g>
<!-- Node1&#45;&gt;Node12 -->
<g id="edge11" class="edge">
<title>Node1&#45;&gt;Node12</title>
<path fill="none" stroke="midnightblue" d="M1445.34,-122.14C1638.36,-114.41 2088.97,-93.73 2239,-64 2241.75,-63.45 2244.54,-62.85 2247.34,-62.2"/>
<polygon fill="midnightblue" stroke="midnightblue" points="1445.08,-118.65 1435.23,-122.54 1445.36,-125.64 1445.08,-118.65"/>
</g>
<!-- Node13 -->
<g id="node13" class="node">
<title>Node13</title>
<g id="a_node13"><a xlink:href="../../dd/d30/_godunov__solver___l_a_g__source_8c.html" target="_top" xlink:title="This is a Lagrangian Godunov scheme to solve 1&#45;D Euler equations.">
<polygon fill="white" stroke="black" points="2434.5,-0.5 2434.5,-63.5 2603.5,-63.5 2603.5,-0.5 2434.5,-0.5"/>
<text text-anchor="start" x="2442.5" y="-51.5" font-family="Helvetica,sans-Serif" font-size="10.00">/run/media/leixin/软件盘</text>
<text text-anchor="start" x="2442.5" y="-40.5" font-family="Helvetica,sans-Serif" font-size="10.00">/雷昕整理后的重要文件</text>
<text text-anchor="start" x="2442.5" y="-29.5" font-family="Helvetica,sans-Serif" font-size="10.00">/程序/My&#45;CFD/HydroCODE/src</text>
<text text-anchor="start" x="2442.5" y="-18.5" font-family="Helvetica,sans-Serif" font-size="10.00">/finite_volume/Godunov_solver</text>
<text text-anchor="middle" x="2519" y="-7.5" font-family="Helvetica,sans-Serif" font-size="10.00">_LAG_source.c</text>
</a>
</g>
</g>
<!-- Node1&#45;&gt;Node13 -->
<g id="edge12" class="edge">
<title>Node1&#45;&gt;Node13</title>
<path fill="none" stroke="midnightblue" d="M1445.39,-123.4C1667.32,-117.69 2239.04,-99.88 2426,-64 2428.76,-63.47 2431.55,-62.88 2434.35,-62.24"/>
<polygon fill="midnightblue" stroke="midnightblue" points="1444.99,-119.91 1435.09,-123.66 1445.17,-126.9 1444.99,-119.91"/>
</g>
</g>
</svg>
