<?xml version="1.0" encoding="UTF-8" standalone="no"?>
<!DOCTYPE svg PUBLIC "-//W3C//DTD SVG 1.1//EN"
 "http://www.w3.org/Graphics/SVG/1.1/DTD/svg11.dtd">
<!-- Generated by graphviz version 6.0.1 (0)
 -->
<!-- Title: src~/hydrocode_Radial_Lag/hydrocode.c Pages: 1 -->
<svg width="722pt" height="151pt"
 viewBox="0.00 0.00 721.50 151.00" xmlns="http://www.w3.org/2000/svg" xmlns:xlink="http://www.w3.org/1999/xlink">
<g id="graph0" class="graph" transform="scale(1 1) rotate(0) translate(4 147)">
<title>src~/hydrocode_Radial_Lag/hydrocode.c</title>
<polygon fill="white" stroke="none" points="-4,4 -4,-147 717.5,-147 717.5,4 -4,4"/>
<!-- Node1 -->
<g id="node1" class="node">
<title>Node1</title>
<g id="a_node1"><a xlink:title="This is a C file of the main function.">
<polygon fill="#bfbfbf" stroke="black" points="198.5,-112.5 198.5,-142.5 327.5,-142.5 327.5,-112.5 198.5,-112.5"/>
<text text-anchor="start" x="206.5" y="-130.5" font-family="Helvetica,sans-Serif" font-size="10.00">src~/hydrocode_Radial</text>
<text text-anchor="middle" x="263" y="-119.5" font-family="Helvetica,sans-Serif" font-size="10.00">_Lag/hydrocode.c</text>
</a>
</g>
</g>
<!-- Node2 -->
<g id="node2" class="node">
<title>Node2</title>
<g id="a_node2"><a xlink:title=" ">
<polygon fill="white" stroke="#bfbfbf" points="0,-56.5 0,-75.5 50,-75.5 50,-56.5 0,-56.5"/>
<text text-anchor="middle" x="25" y="-63.5" font-family="Helvetica,sans-Serif" font-size="10.00">stdio.h</text>
</a>
</g>
</g>
<!-- Node1&#45;&gt;Node2 -->
<g id="edge1" class="edge">
<title>Node1&#45;&gt;Node2</title>
<path fill="none" stroke="midnightblue" d="M205.34,-112.49C166.77,-103.06 114.62,-90.19 60.09,-76.25"/>
<polygon fill="midnightblue" stroke="midnightblue" points="60.79,-72.82 50.24,-73.73 59.06,-79.6 60.79,-72.82"/>
</g>
<!-- Node3 -->
<g id="node3" class="node">
<title>Node3</title>
<g id="a_node3"><a xlink:title=" ">
<polygon fill="white" stroke="#bfbfbf" points="68.5,-56.5 68.5,-75.5 121.5,-75.5 121.5,-56.5 68.5,-56.5"/>
<text text-anchor="middle" x="95" y="-63.5" font-family="Helvetica,sans-Serif" font-size="10.00">stdlib.h</text>
</a>
</g>
</g>
<!-- Node1&#45;&gt;Node3 -->
<g id="edge2" class="edge">
<title>Node1&#45;&gt;Node3</title>
<path fill="none" stroke="midnightblue" d="M223.19,-112.4C194.5,-102.24 156.19,-88.67 128.94,-79.02"/>
<polygon fill="midnightblue" stroke="midnightblue" points="130.04,-75.7 119.45,-75.66 127.7,-82.3 130.04,-75.7"/>
</g>
<!-- Node4 -->
<g id="node4" class="node">
<title>Node4</title>
<g id="a_node4"><a xlink:title=" ">
<polygon fill="white" stroke="#bfbfbf" points="139.5,-56.5 139.5,-75.5 192.5,-75.5 192.5,-56.5 139.5,-56.5"/>
<text text-anchor="middle" x="166" y="-63.5" font-family="Helvetica,sans-Serif" font-size="10.00">string.h</text>
</a>
</g>
</g>
<!-- Node1&#45;&gt;Node4 -->
<g id="edge3" class="edge">
<title>Node1&#45;&gt;Node4</title>
<path fill="none" stroke="midnightblue" d="M240.01,-112.4C224.61,-102.95 204.41,-90.56 189,-81.11"/>
<polygon fill="midnightblue" stroke="midnightblue" points="190.47,-77.9 180.11,-75.66 186.81,-83.87 190.47,-77.9"/>
</g>
<!-- Node5 -->
<g id="node5" class="node">
<title>Node5</title>
<g id="a_node5"><a xlink:title=" ">
<polygon fill="white" stroke="#bfbfbf" points="210.5,-56.5 210.5,-75.5 261.5,-75.5 261.5,-56.5 210.5,-56.5"/>
<text text-anchor="middle" x="236" y="-63.5" font-family="Helvetica,sans-Serif" font-size="10.00">math.h</text>
</a>
</g>
</g>
<!-- Node1&#45;&gt;Node5 -->
<g id="edge4" class="edge">
<title>Node1&#45;&gt;Node5</title>
<path fill="none" stroke="midnightblue" d="M256.6,-112.4C252.88,-104.2 248.15,-93.78 244.17,-84.99"/>
<polygon fill="midnightblue" stroke="midnightblue" points="247.25,-83.32 239.93,-75.66 240.87,-86.21 247.25,-83.32"/>
</g>
<!-- Node6 -->
<g id="node6" class="node">
<title>Node6</title>
<g id="a_node6"><a xlink:href="../../da/d1e/var__struc_8h.html" target="_top" xlink:title="This file is the header file of some globally common variables and structural bodies.">
<polygon fill="white" stroke="black" points="341,-0.5 341,-19.5 459,-19.5 459,-0.5 341,-0.5"/>
<text text-anchor="middle" x="400" y="-7.5" font-family="Helvetica,sans-Serif" font-size="10.00">../include/var_struc.h</text>
</a>
</g>
</g>
<!-- Node1&#45;&gt;Node6 -->
<g id="edge5" class="edge">
<title>Node1&#45;&gt;Node6</title>
<path fill="none" stroke="midnightblue" d="M269.55,-112.48C277.37,-97.01 291.69,-72.16 310,-56 326.02,-41.86 347.29,-30.95 365.12,-23.42"/>
<polygon fill="midnightblue" stroke="midnightblue" points="366.66,-26.58 374.62,-19.59 364.04,-20.09 366.66,-26.58"/>
</g>
<!-- Node7 -->
<g id="node7" class="node">
<title>Node7</title>
<g id="a_node7"><a xlink:href="../../db/db8/file__io_8h.html" target="_top" xlink:title="This file is the header file that controls data input and output.">
<polygon fill="white" stroke="black" points="318.5,-56.5 318.5,-75.5 421.5,-75.5 421.5,-56.5 318.5,-56.5"/>
<text text-anchor="middle" x="370" y="-63.5" font-family="Helvetica,sans-Serif" font-size="10.00">../include/file_io.h</text>
</a>
</g>
</g>
<!-- Node1&#45;&gt;Node7 -->
<g id="edge6" class="edge">
<title>Node1&#45;&gt;Node7</title>
<path fill="none" stroke="midnightblue" d="M288.36,-112.4C305.67,-102.77 328.48,-90.09 345.58,-80.58"/>
<polygon fill="midnightblue" stroke="midnightblue" points="347.39,-83.58 354.43,-75.66 343.99,-77.46 347.39,-83.58"/>
</g>
<!-- Node8 -->
<g id="node8" class="node">
<title>Node8</title>
<g id="a_node8"><a xlink:href="../../d8/da8/finite__volume_8h.html" target="_top" xlink:title="This file is the header file of Lagrangian/Eulerian hydrocode in finite volume framework.">
<polygon fill="white" stroke="black" points="440,-56.5 440,-75.5 580,-75.5 580,-56.5 440,-56.5"/>
<text text-anchor="middle" x="510" y="-63.5" font-family="Helvetica,sans-Serif" font-size="10.00">../include/finite_volume.h</text>
</a>
</g>
</g>
<!-- Node1&#45;&gt;Node8 -->
<g id="edge7" class="edge">
<title>Node1&#45;&gt;Node8</title>
<path fill="none" stroke="midnightblue" d="M321.22,-112.47C365.14,-101.9 424.51,-87.59 464.86,-77.87"/>
<polygon fill="midnightblue" stroke="midnightblue" points="465.79,-81.25 474.69,-75.51 464.15,-74.45 465.79,-81.25"/>
</g>
<!-- Node9 -->
<g id="node9" class="node">
<title>Node9</title>
<g id="a_node9"><a xlink:href="../../d1/d2c/meshing_8h.html" target="_top" xlink:title="This file is the header file of unstructured grid processing program.">
<polygon fill="white" stroke="black" points="598.5,-56.5 598.5,-75.5 713.5,-75.5 713.5,-56.5 598.5,-56.5"/>
<text text-anchor="middle" x="656" y="-63.5" font-family="Helvetica,sans-Serif" font-size="10.00">../include/meshing.h</text>
</a>
</g>
</g>
<!-- Node1&#45;&gt;Node9 -->
<g id="edge9" class="edge">
<title>Node1&#45;&gt;Node9</title>
<path fill="none" stroke="midnightblue" d="M327.9,-116.67C400.25,-105.72 516.67,-88.09 589.62,-77.05"/>
<polygon fill="midnightblue" stroke="midnightblue" points="590.25,-80.49 599.62,-75.54 589.21,-73.57 590.25,-80.49"/>
</g>
<!-- Node8&#45;&gt;Node6 -->
<g id="edge8" class="edge">
<title>Node8&#45;&gt;Node6</title>
<path fill="none" stroke="midnightblue" d="M492.33,-56.32C474.61,-47.62 447.1,-34.12 426.71,-24.11"/>
<polygon fill="midnightblue" stroke="midnightblue" points="428.15,-20.92 417.63,-19.65 425.06,-27.2 428.15,-20.92"/>
</g>
</g>
</svg>
