<?xml version="1.0" encoding="UTF-8" standalone="no"?>
<!DOCTYPE svg PUBLIC "-//W3C//DTD SVG 1.1//EN"
 "http://www.w3.org/Graphics/SVG/1.1/DTD/svg11.dtd">
<!-- Generated by graphviz version 6.0.1 (0)
 -->
<!-- Title: minmod_limiter Pages: 1 -->
<svg width="202pt" height="66pt"
 viewBox="0.00 0.00 202.00 66.00" xmlns="http://www.w3.org/2000/svg" xmlns:xlink="http://www.w3.org/1999/xlink">
<g id="graph0" class="graph" transform="scale(1 1) rotate(0) translate(4 62)">
<title>minmod_limiter</title>
<polygon fill="white" stroke="none" points="-4,4 -4,-62 198,-62 198,4 -4,4"/>
<!-- Node1 -->
<g id="node1" class="node">
<title>Node1</title>
<g id="a_node1"><a xlink:title="This function apply the minmod limiter to the slope in one dimension.">
<polygon fill="#bfbfbf" stroke="black" points="0,-19.5 0,-38.5 95,-38.5 95,-19.5 0,-19.5"/>
<text text-anchor="middle" x="47.5" y="-26.5" font-family="Helvetica,sans-Serif" font-size="10.00">minmod_limiter</text>
</a>
</g>
</g>
<!-- Node2 -->
<g id="node2" class="node">
<title>Node2</title>
<g id="a_node2"><a xlink:href="../../d5/da5/tools_8h.html#a56cac3298eeead8cf22c1e61eb5a5a88" target="_top" xlink:title="Minmod limiter function of two variables.">
<polygon fill="white" stroke="black" points="131,-38.5 131,-57.5 194,-57.5 194,-38.5 131,-38.5"/>
<text text-anchor="middle" x="162.5" y="-45.5" font-family="Helvetica,sans-Serif" font-size="10.00">minmod2</text>
</a>
</g>
</g>
<!-- Node1&#45;&gt;Node2 -->
<g id="edge1" class="edge">
<title>Node1&#45;&gt;Node2</title>
<path fill="none" stroke="midnightblue" d="M95.11,-36.84C103.67,-38.28 112.54,-39.77 120.91,-41.17"/>
<polygon fill="midnightblue" stroke="midnightblue" points="120.36,-44.63 130.8,-42.84 121.52,-37.73 120.36,-44.63"/>
</g>
<!-- Node3 -->
<g id="node3" class="node">
<title>Node3</title>
<g id="a_node3"><a xlink:href="../../d5/da5/tools_8h.html#a6dfba28e1af33b47f4656d3738996fe9" target="_top" xlink:title="Minmod limiter function of three variables.">
<polygon fill="white" stroke="black" points="131,-0.5 131,-19.5 194,-19.5 194,-0.5 131,-0.5"/>
<text text-anchor="middle" x="162.5" y="-7.5" font-family="Helvetica,sans-Serif" font-size="10.00">minmod3</text>
</a>
</g>
</g>
<!-- Node1&#45;&gt;Node3 -->
<g id="edge2" class="edge">
<title>Node1&#45;&gt;Node3</title>
<path fill="none" stroke="midnightblue" d="M95.11,-21.16C103.67,-19.72 112.54,-18.23 120.91,-16.83"/>
<polygon fill="midnightblue" stroke="midnightblue" points="121.52,-20.27 130.8,-15.16 120.36,-13.37 121.52,-20.27"/>
</g>
</g>
</svg>
