<?xml version="1.0" encoding="UTF-8" standalone="no"?>
<!DOCTYPE svg PUBLIC "-//W3C//DTD SVG 1.1//EN"
 "http://www.w3.org/Graphics/SVG/1.1/DTD/svg11.dtd">
<!-- Generated by graphviz version 5.0.0 (0)
 -->
<!-- Title: GRP_solver_LAG_source Pages: 1 -->
<svg width="310pt" height="142pt"
 viewBox="0.00 0.00 310.00 142.00" xmlns="http://www.w3.org/2000/svg" xmlns:xlink="http://www.w3.org/1999/xlink">
<g id="graph0" class="graph" transform="scale(1 1) rotate(0) translate(4 138)">
<title>GRP_solver_LAG_source</title>
<polygon fill="white" stroke="transparent" points="-4,4 -4,-138 306,-138 306,4 -4,4"/>
<!-- Node1 -->
<g id="node1" class="node">
<title>Node1</title>
<g id="a_node1"><a xlink:title="This function use GRP scheme to solve 1&#45;D Euler equations of motion on Lagrangian coordinate.">
<polygon fill="#bfbfbf" stroke="black" points="0,-57.5 0,-76.5 135,-76.5 135,-57.5 0,-57.5"/>
<text text-anchor="middle" x="67.5" y="-64.5" font-family="Helvetica,sans-Serif" font-size="10.00">GRP_solver_LAG_source</text>
</a>
</g>
</g>
<!-- Node2 -->
<g id="node2" class="node">
<title>Node2</title>
<g id="a_node2"><a xlink:href="../../d4/ddd/sys__pro_8c.html#aab058cac35713b52c083b9e54ffa45eb" target="_top" xlink:title="This function print a progress bar on one line of standard output.">
<polygon fill="white" stroke="black" points="209.5,-114.5 209.5,-133.5 263.5,-133.5 263.5,-114.5 209.5,-114.5"/>
<text text-anchor="middle" x="236.5" y="-121.5" font-family="Helvetica,sans-Serif" font-size="10.00">DispPro</text>
</a>
</g>
</g>
<!-- Node1&#45;&gt;Node2 -->
<g id="edge1" class="edge">
<title>Node1&#45;&gt;Node2</title>
<path fill="none" stroke="midnightblue" d="M92.77,-76.53C113.44,-84.52 143.98,-96.02 171,-105 180.19,-108.05 190.2,-111.12 199.54,-113.88"/>
<polygon fill="midnightblue" stroke="midnightblue" points="198.75,-117.3 209.33,-116.73 200.7,-110.57 198.75,-117.3"/>
</g>
<!-- Node3 -->
<g id="node3" class="node">
<title>Node3</title>
<g id="a_node3"><a xlink:href="../../de/d81/linear___g_r_p__solver___l_a_g_8c.html#a43e97783406949990da0cebf5d55c703" target="_top" xlink:title="A Lagrangian GRP solver for unsteady compressible inviscid flow in one space dimension.">
<polygon fill="white" stroke="black" points="171,-76.5 171,-95.5 302,-95.5 302,-76.5 171,-76.5"/>
<text text-anchor="middle" x="236.5" y="-83.5" font-family="Helvetica,sans-Serif" font-size="10.00">linear_GRP_solver_LAG</text>
</a>
</g>
</g>
<!-- Node1&#45;&gt;Node3 -->
<g id="edge2" class="edge">
<title>Node1&#45;&gt;Node3</title>
<path fill="none" stroke="midnightblue" d="M135.46,-74.62C143.79,-75.57 152.34,-76.54 160.77,-77.5"/>
<polygon fill="midnightblue" stroke="midnightblue" points="160.63,-81 170.97,-78.66 161.42,-74.05 160.63,-81"/>
</g>
<!-- Node4 -->
<g id="node4" class="node">
<title>Node4</title>
<g id="a_node4"><a xlink:href="../../d5/da5/tools_8h.html#a4c39aa75a9e5ae0470128caf0b14cd4a" target="_top" xlink:title="Minmod limiter function of two variables.">
<polygon fill="white" stroke="black" points="205,-38.5 205,-57.5 268,-57.5 268,-38.5 205,-38.5"/>
<text text-anchor="middle" x="236.5" y="-45.5" font-family="Helvetica,sans-Serif" font-size="10.00">minmod2</text>
</a>
</g>
</g>
<!-- Node1&#45;&gt;Node4 -->
<g id="edge3" class="edge">
<title>Node1&#45;&gt;Node4</title>
<path fill="none" stroke="midnightblue" d="M135.46,-59.38C155.49,-57.1 176.84,-54.67 194.65,-52.65"/>
<polygon fill="midnightblue" stroke="midnightblue" points="195.15,-56.11 204.69,-51.51 194.36,-49.16 195.15,-56.11"/>
</g>
<!-- Node5 -->
<g id="node5" class="node">
<title>Node5</title>
<g id="a_node5"><a xlink:href="../../d5/da5/tools_8h.html#a80be373c5a956ec0cc7944b199b68ca7" target="_top" xlink:title="Minmod limiter function of three variables.">
<polygon fill="white" stroke="black" points="205,-0.5 205,-19.5 268,-19.5 268,-0.5 205,-0.5"/>
<text text-anchor="middle" x="236.5" y="-7.5" font-family="Helvetica,sans-Serif" font-size="10.00">minmod3</text>
</a>
</g>
</g>
<!-- Node1&#45;&gt;Node5 -->
<g id="edge4" class="edge">
<title>Node1&#45;&gt;Node5</title>
<path fill="none" stroke="midnightblue" d="M92.77,-57.47C113.44,-49.48 143.98,-37.98 171,-29 178.8,-26.41 187.18,-23.81 195.24,-21.4"/>
<polygon fill="midnightblue" stroke="midnightblue" points="196.25,-24.75 204.85,-18.56 194.27,-18.03 196.25,-24.75"/>
</g>
</g>
</svg>
