<?xml version="1.0" encoding="UTF-8" standalone="no"?>
<!DOCTYPE svg PUBLIC "-//W3C//DTD SVG 1.1//EN"
 "http://www.w3.org/Graphics/SVG/1.1/DTD/svg11.dtd">
<!-- Generated by graphviz version 5.0.0 (0)
 -->
<!-- Title: GRP_solver_LAG_source Pages: 1 -->
<svg width="586pt" height="123pt"
 viewBox="0.00 0.00 586.00 123.00" xmlns="http://www.w3.org/2000/svg" xmlns:xlink="http://www.w3.org/1999/xlink">
<g id="graph0" class="graph" transform="scale(1 1) rotate(0) translate(4 119)">
<title>GRP_solver_LAG_source</title>
<polygon fill="white" stroke="transparent" points="-4,4 -4,-119 582,-119 582,4 -4,4"/>
<!-- Node1 -->
<g id="node1" class="node">
<title>Node1</title>
<g id="a_node1"><a xlink:title="This function use GRP scheme to solve 1&#45;D Euler equations of motion on Lagrangian coordinate.">
<polygon fill="#bfbfbf" stroke="black" points="0,-38.5 0,-57.5 135,-57.5 135,-38.5 0,-38.5"/>
<text text-anchor="middle" x="67.5" y="-45.5" font-family="Helvetica,sans-Serif" font-size="10.00">GRP_solver_LAG_source</text>
</a>
</g>
</g>
<!-- Node2 -->
<g id="node2" class="node">
<title>Node2</title>
<g id="a_node2"><a xlink:href="../../df/d13/bound__cond__slope__limiter_8c.html#adf898c0b0966ac36a90920be44951a5c" target="_top" xlink:title="This function apply the minmod limiter to the slope in one dimension.">
<polygon fill="white" stroke="black" points="171,-76.5 171,-95.5 315,-95.5 315,-76.5 171,-76.5"/>
<text text-anchor="middle" x="243" y="-83.5" font-family="Helvetica,sans-Serif" font-size="10.00">bound_cond_slope_limiter</text>
</a>
</g>
</g>
<!-- Node1&#45;&gt;Node2 -->
<g id="edge1" class="edge">
<title>Node1&#45;&gt;Node2</title>
<path fill="none" stroke="midnightblue" d="M112.28,-57.59C135.49,-62.67 164.18,-68.96 188.67,-74.32"/>
<polygon fill="midnightblue" stroke="midnightblue" points="188.02,-77.76 198.53,-76.48 189.51,-70.92 188.02,-77.76"/>
</g>
<!-- Node6 -->
<g id="node6" class="node">
<title>Node6</title>
<g id="a_node6"><a xlink:href="../../d4/ddd/sys__pro_8c.html#aab058cac35713b52c083b9e54ffa45eb" target="_top" xlink:title="This function print a progress bar on one line of standard output.">
<polygon fill="white" stroke="black" points="216,-38.5 216,-57.5 270,-57.5 270,-38.5 216,-38.5"/>
<text text-anchor="middle" x="243" y="-45.5" font-family="Helvetica,sans-Serif" font-size="10.00">DispPro</text>
</a>
</g>
</g>
<!-- Node1&#45;&gt;Node6 -->
<g id="edge5" class="edge">
<title>Node1&#45;&gt;Node6</title>
<path fill="none" stroke="midnightblue" d="M135.08,-48C159.01,-48 185.1,-48 205.52,-48"/>
<polygon fill="midnightblue" stroke="midnightblue" points="205.64,-51.5 215.64,-48 205.64,-44.5 205.64,-51.5"/>
</g>
<!-- Node7 -->
<g id="node7" class="node">
<title>Node7</title>
<g id="a_node7"><a xlink:href="../../de/d81/linear___g_r_p__solver___l_a_g_8c.html#a6567802e291121380cc9765c6f46a1fb" target="_top" xlink:title="A Lagrangian GRP solver for unsteady compressible inviscid two&#45;component flow in one space dimension.">
<polygon fill="white" stroke="black" points="177.5,-0.5 177.5,-19.5 308.5,-19.5 308.5,-0.5 177.5,-0.5"/>
<text text-anchor="middle" x="243" y="-7.5" font-family="Helvetica,sans-Serif" font-size="10.00">linear_GRP_solver_LAG</text>
</a>
</g>
</g>
<!-- Node1&#45;&gt;Node7 -->
<g id="edge6" class="edge">
<title>Node1&#45;&gt;Node7</title>
<path fill="none" stroke="midnightblue" d="M112.28,-38.41C135.49,-33.33 164.18,-27.04 188.67,-21.68"/>
<polygon fill="midnightblue" stroke="midnightblue" points="189.51,-25.08 198.53,-19.52 188.02,-18.24 189.51,-25.08"/>
</g>
<!-- Node3 -->
<g id="node3" class="node">
<title>Node3</title>
<g id="a_node3"><a xlink:href="../../d2/d49/slope__limiter_8c.html#ae6551ab705937492c059ece48a3b2793" target="_top" xlink:title="This function apply the minmod limiter to the slope in one dimension.">
<polygon fill="white" stroke="black" points="367.5,-76.5 367.5,-95.5 462.5,-95.5 462.5,-76.5 367.5,-76.5"/>
<text text-anchor="middle" x="415" y="-83.5" font-family="Helvetica,sans-Serif" font-size="10.00">minmod_limiter</text>
</a>
</g>
</g>
<!-- Node2&#45;&gt;Node3 -->
<g id="edge2" class="edge">
<title>Node2&#45;&gt;Node3</title>
<path fill="none" stroke="midnightblue" d="M315.11,-86C329.18,-86 343.76,-86 357.27,-86"/>
<polygon fill="midnightblue" stroke="midnightblue" points="357.37,-89.5 367.37,-86 357.37,-82.5 357.37,-89.5"/>
</g>
<!-- Node4 -->
<g id="node4" class="node">
<title>Node4</title>
<g id="a_node4"><a xlink:href="../../d5/da5/tools_8h.html#a56cac3298eeead8cf22c1e61eb5a5a88" target="_top" xlink:title="Minmod limiter function of two variables.">
<polygon fill="white" stroke="black" points="515,-95.5 515,-114.5 578,-114.5 578,-95.5 515,-95.5"/>
<text text-anchor="middle" x="546.5" y="-102.5" font-family="Helvetica,sans-Serif" font-size="10.00">minmod2</text>
</a>
</g>
</g>
<!-- Node3&#45;&gt;Node4 -->
<g id="edge3" class="edge">
<title>Node3&#45;&gt;Node4</title>
<path fill="none" stroke="midnightblue" d="M462.75,-92.86C476.61,-94.89 491.66,-97.1 505.08,-99.07"/>
<polygon fill="midnightblue" stroke="midnightblue" points="504.57,-102.53 514.97,-100.52 505.59,-95.61 504.57,-102.53"/>
</g>
<!-- Node5 -->
<g id="node5" class="node">
<title>Node5</title>
<g id="a_node5"><a xlink:href="../../d5/da5/tools_8h.html#a6dfba28e1af33b47f4656d3738996fe9" target="_top" xlink:title="Minmod limiter function of three variables.">
<polygon fill="white" stroke="black" points="515,-57.5 515,-76.5 578,-76.5 578,-57.5 515,-57.5"/>
<text text-anchor="middle" x="546.5" y="-64.5" font-family="Helvetica,sans-Serif" font-size="10.00">minmod3</text>
</a>
</g>
</g>
<!-- Node3&#45;&gt;Node5 -->
<g id="edge4" class="edge">
<title>Node3&#45;&gt;Node5</title>
<path fill="none" stroke="midnightblue" d="M462.75,-79.14C476.61,-77.11 491.66,-74.9 505.08,-72.93"/>
<polygon fill="midnightblue" stroke="midnightblue" points="505.59,-76.39 514.97,-71.48 504.57,-69.47 505.59,-76.39"/>
</g>
<!-- Node8 -->
<g id="node8" class="node">
<title>Node8</title>
<g id="a_node8"><a xlink:href="../../d3/d54/_riemann__solver__exact___ben_8c.html#a3ad58b11c355d45ee406da49161edbd4" target="_top" xlink:title="EXACT RIEMANN SOLVER FOR Two&#45;Component γ&#45;Law Gas">
<polygon fill="white" stroke="black" points="351,-0.5 351,-19.5 479,-19.5 479,-0.5 351,-0.5"/>
<text text-anchor="middle" x="415" y="-7.5" font-family="Helvetica,sans-Serif" font-size="10.00">Riemann_solver_exact</text>
</a>
</g>
</g>
<!-- Node7&#45;&gt;Node8 -->
<g id="edge7" class="edge">
<title>Node7&#45;&gt;Node8</title>
<path fill="none" stroke="midnightblue" d="M308.75,-10C319.21,-10 330.09,-10 340.73,-10"/>
<polygon fill="midnightblue" stroke="midnightblue" points="340.83,-13.5 350.83,-10 340.83,-6.5 340.83,-13.5"/>
</g>
</g>
</svg>
