<?xml version="1.0" encoding="UTF-8" standalone="no"?>
<!DOCTYPE svg PUBLIC "-//W3C//DTD SVG 1.1//EN"
 "http://www.w3.org/Graphics/SVG/1.1/DTD/svg11.dtd">
<!-- Generated by graphviz version 5.0.0 (0)
 -->
<!-- Title: main Pages: 1 -->
<svg width="944pt" height="294pt"
 viewBox="0.00 0.00 944.00 294.00" xmlns="http://www.w3.org/2000/svg" xmlns:xlink="http://www.w3.org/1999/xlink">
<g id="graph0" class="graph" transform="scale(1 1) rotate(0) translate(4 290)">
<title>main</title>
<polygon fill="white" stroke="transparent" points="-4,4 -4,-290 940,-290 940,4 -4,4"/>
<!-- Node1 -->
<g id="node1" class="node">
<title>Node1</title>
<g id="a_node1"><a xlink:title="This is the main function which constructs the main structure of the Eulerian hydrocode.">
<polygon fill="#bfbfbf" stroke="black" points="0,-190.5 0,-209.5 41,-209.5 41,-190.5 0,-190.5"/>
<text text-anchor="middle" x="20.5" y="-197.5" font-family="Helvetica,sans-Serif" font-size="10.00">main</text>
</a>
</g>
</g>
<!-- Node2 -->
<g id="node2" class="node">
<title>Node2</title>
<g id="a_node2"><a xlink:href="../../d8/d32/__2_d__file__out_8c.html#a2af47b5ca07b0ab40a1bc384565ab2a0" target="_top" xlink:title="This function write the 2&#45;D solution into output .dat files.">
<polygon fill="white" stroke="black" points="110,-228.5 110,-247.5 196,-247.5 196,-228.5 110,-228.5"/>
<text text-anchor="middle" x="153" y="-235.5" font-family="Helvetica,sans-Serif" font-size="10.00">_2D_file_write</text>
</a>
</g>
</g>
<!-- Node1&#45;&gt;Node2 -->
<g id="edge1" class="edge">
<title>Node1&#45;&gt;Node2</title>
<path fill="none" stroke="midnightblue" d="M41.15,-207.17C51.71,-210.9 64.99,-215.43 77,-219 85.05,-221.39 93.64,-223.75 102.03,-225.95"/>
<polygon fill="midnightblue" stroke="midnightblue" points="101.19,-229.34 111.74,-228.45 102.93,-222.57 101.19,-229.34"/>
</g>
<!-- Node6 -->
<g id="node6" class="node">
<title>Node6</title>
<g id="a_node6"><a xlink:href="../../d4/d75/__2_d__file__in_8c.html#a2888d943cf419875759b1f72a7723296" target="_top" xlink:title="This function reads the 2&#45;D initial data file of velocity/pressure/density.">
<polygon fill="white" stroke="black" points="111.5,-190.5 111.5,-209.5 194.5,-209.5 194.5,-190.5 111.5,-190.5"/>
<text text-anchor="middle" x="153" y="-197.5" font-family="Helvetica,sans-Serif" font-size="10.00">_2D_initialize</text>
</a>
</g>
</g>
<!-- Node1&#45;&gt;Node6 -->
<g id="edge5" class="edge">
<title>Node1&#45;&gt;Node6</title>
<path fill="none" stroke="midnightblue" d="M41.04,-200C56.92,-200 80.08,-200 101.13,-200"/>
<polygon fill="midnightblue" stroke="midnightblue" points="101.25,-203.5 111.25,-200 101.25,-196.5 101.25,-203.5"/>
</g>
<!-- Node10 -->
<g id="node10" class="node">
<title>Node10</title>
<g id="a_node10"><a xlink:href="../../d8/d32/__2_d__file__out_8c.html#aec541405a9b5172445c0cd309a723c7d" target="_top" xlink:title="This function write the 2&#45;D solution into Tecplot output files.">
<polygon fill="white" stroke="black" points="98,-266.5 98,-285.5 208,-285.5 208,-266.5 98,-266.5"/>
<text text-anchor="middle" x="153" y="-273.5" font-family="Helvetica,sans-Serif" font-size="10.00">_2D_TEC_file_write</text>
</a>
</g>
</g>
<!-- Node1&#45;&gt;Node10 -->
<g id="edge10" class="edge">
<title>Node1&#45;&gt;Node10</title>
<path fill="none" stroke="midnightblue" d="M28.2,-209.66C37.61,-222.46 55.95,-244.85 77,-257 80.9,-259.25 85.07,-261.24 89.36,-262.99"/>
<polygon fill="midnightblue" stroke="midnightblue" points="88.32,-266.34 98.91,-266.47 90.72,-259.76 88.32,-266.34"/>
</g>
<!-- Node11 -->
<g id="node11" class="node">
<title>Node11</title>
<g id="a_node11"><a xlink:href="../../d6/d0f/_g_r_p__solver__2_d___e_u_l__source_8c.html#ad2ed8a0ffbf2c3b9eb692984e9fbc6f2" target="_top" xlink:title="This function use GRP scheme to solve 2&#45;D Euler equations of motion on Eulerian coordinate without di...">
<polygon fill="white" stroke="black" points="77,-73.5 77,-92.5 229,-92.5 229,-73.5 77,-73.5"/>
<text text-anchor="middle" x="153" y="-80.5" font-family="Helvetica,sans-Serif" font-size="10.00">GRP_solver_2D_EUL_source</text>
</a>
</g>
</g>
<!-- Node1&#45;&gt;Node11 -->
<g id="edge13" class="edge">
<title>Node1&#45;&gt;Node11</title>
<path fill="none" stroke="midnightblue" d="M24.2,-190.2C30.19,-170.34 46.53,-125.25 77,-102 79.48,-100.11 82.13,-98.4 84.9,-96.86"/>
<polygon fill="midnightblue" stroke="midnightblue" points="86.54,-99.95 94.07,-92.5 83.54,-93.63 86.54,-99.95"/>
</g>
<!-- Node24 -->
<g id="node24" class="node">
<title>Node24</title>
<g id="a_node24"><a xlink:href="../../dc/d9e/_g_r_p__solver__2_d__split___e_u_l__source_8c.html#a196c7b4e4415c20bbdfc3dd294653b66" target="_top" xlink:title="This function use GRP scheme to solve 2&#45;D Euler equations of motion on Eulerian coordinate with dimen...">
<polygon fill="white" stroke="black" points="94.5,-112 94.5,-142 211.5,-142 211.5,-112 94.5,-112"/>
<text text-anchor="start" x="102.5" y="-130" font-family="Helvetica,sans-Serif" font-size="10.00">GRP_solver_2D_split</text>
<text text-anchor="middle" x="153" y="-119" font-family="Helvetica,sans-Serif" font-size="10.00">_EUL_source</text>
</a>
</g>
</g>
<!-- Node1&#45;&gt;Node24 -->
<g id="edge29" class="edge">
<title>Node1&#45;&gt;Node24</title>
<path fill="none" stroke="midnightblue" d="M38.56,-190.46C58.13,-179.51 90.76,-161.26 116.01,-147.13"/>
<polygon fill="midnightblue" stroke="midnightblue" points="117.93,-150.07 124.95,-142.13 114.51,-143.96 117.93,-150.07"/>
</g>
<!-- Node3 -->
<g id="node3" class="node">
<title>Node3</title>
<g id="a_node3"><a xlink:href="../../d2/de0/config__handle_8c.html#a639a61ad0229b057258f8bc6edc4d050" target="_top" xlink:title=" ">
<polygon fill="white" stroke="black" points="304,-266.5 304,-285.5 381,-285.5 381,-266.5 304,-266.5"/>
<text text-anchor="middle" x="342.5" y="-273.5" font-family="Helvetica,sans-Serif" font-size="10.00">config_write</text>
</a>
</g>
</g>
<!-- Node2&#45;&gt;Node3 -->
<g id="edge2" class="edge">
<title>Node2&#45;&gt;Node3</title>
<path fill="none" stroke="midnightblue" d="M196.08,-246.53C225.08,-252.41 263.68,-260.23 293.83,-266.34"/>
<polygon fill="midnightblue" stroke="midnightblue" points="293.2,-269.78 303.7,-268.34 294.59,-262.92 293.2,-269.78"/>
</g>
<!-- Node4 -->
<g id="node4" class="node">
<title>Node4</title>
<g id="a_node4"><a xlink:href="../../d4/de5/io__control_8c.html#a7e039d23ca87a439fbe9c9d336447887" target="_top" xlink:title="This function produces folder path for data input or output.">
<polygon fill="white" stroke="black" points="305.5,-228.5 305.5,-247.5 379.5,-247.5 379.5,-228.5 305.5,-228.5"/>
<text text-anchor="middle" x="342.5" y="-235.5" font-family="Helvetica,sans-Serif" font-size="10.00">example_io</text>
</a>
</g>
</g>
<!-- Node2&#45;&gt;Node4 -->
<g id="edge3" class="edge">
<title>Node2&#45;&gt;Node4</title>
<path fill="none" stroke="midnightblue" d="M196.08,-238C225.44,-238 264.64,-238 294.94,-238"/>
<polygon fill="midnightblue" stroke="midnightblue" points="295.25,-241.5 305.25,-238 295.25,-234.5 295.25,-241.5"/>
</g>
<!-- Node5 -->
<g id="node5" class="node">
<title>Node5</title>
<g id="a_node5"><a xlink:href="../../d4/ddd/sys__pro_8c.html#a40a5faeb19b1fd9aec2c5c10a87faeb4" target="_top" xlink:title="This is a function that recursively creates folders.">
<polygon fill="white" stroke="black" points="487,-228.5 487,-247.5 550,-247.5 550,-228.5 487,-228.5"/>
<text text-anchor="middle" x="518.5" y="-235.5" font-family="Helvetica,sans-Serif" font-size="10.00">CreateDir</text>
</a>
</g>
</g>
<!-- Node4&#45;&gt;Node5 -->
<g id="edge4" class="edge">
<title>Node4&#45;&gt;Node5</title>
<path fill="none" stroke="midnightblue" d="M379.55,-238C407.75,-238 446.96,-238 476.37,-238"/>
<polygon fill="midnightblue" stroke="midnightblue" points="476.73,-241.5 486.73,-238 476.73,-234.5 476.73,-241.5"/>
</g>
<!-- Node6&#45;&gt;Node4 -->
<g id="edge9" class="edge">
<title>Node6&#45;&gt;Node4</title>
<path fill="none" stroke="midnightblue" d="M194.68,-208.25C224.3,-214.25 264.44,-222.38 295.26,-228.63"/>
<polygon fill="midnightblue" stroke="midnightblue" points="294.83,-232.11 305.33,-230.67 296.23,-225.25 294.83,-232.11"/>
</g>
<!-- Node7 -->
<g id="node7" class="node">
<title>Node7</title>
<g id="a_node7"><a xlink:href="../../d2/de0/config__handle_8c.html#a4b15e37e2922cce20bf5cc8bb6e80c9a" target="_top" xlink:title="This function controls configuration data reading and validation.">
<polygon fill="white" stroke="black" points="306.5,-190.5 306.5,-209.5 378.5,-209.5 378.5,-190.5 306.5,-190.5"/>
<text text-anchor="middle" x="342.5" y="-197.5" font-family="Helvetica,sans-Serif" font-size="10.00">configurate</text>
</a>
</g>
</g>
<!-- Node6&#45;&gt;Node7 -->
<g id="edge6" class="edge">
<title>Node6&#45;&gt;Node7</title>
<path fill="none" stroke="midnightblue" d="M194.68,-200C224.59,-200 265.22,-200 296.17,-200"/>
<polygon fill="midnightblue" stroke="midnightblue" points="296.26,-203.5 306.26,-200 296.26,-196.5 296.26,-203.5"/>
</g>
<!-- Node8 -->
<g id="node8" class="node">
<title>Node8</title>
<g id="a_node8"><a xlink:href="../../d2/de0/config__handle_8c.html#a4b379c084f41490473f80792af24e0c7" target="_top" xlink:title="This function check whether the configuration data is reasonable and set the default.">
<polygon fill="white" stroke="black" points="478.5,-190.5 478.5,-209.5 558.5,-209.5 558.5,-190.5 478.5,-190.5"/>
<text text-anchor="middle" x="518.5" y="-197.5" font-family="Helvetica,sans-Serif" font-size="10.00">config_check</text>
</a>
</g>
</g>
<!-- Node7&#45;&gt;Node8 -->
<g id="edge7" class="edge">
<title>Node7&#45;&gt;Node8</title>
<path fill="none" stroke="midnightblue" d="M378.71,-200C404.45,-200 439.69,-200 468.22,-200"/>
<polygon fill="midnightblue" stroke="midnightblue" points="468.4,-203.5 478.4,-200 468.4,-196.5 468.4,-203.5"/>
</g>
<!-- Node9 -->
<g id="node9" class="node">
<title>Node9</title>
<g id="a_node9"><a xlink:href="../../d2/de0/config__handle_8c.html#a482404d20045a8a5f48b5ee425a04259" target="_top" xlink:title="This function read the configuration data file, and store the configuration data in the array &quot;config...">
<polygon fill="white" stroke="black" points="481.5,-152.5 481.5,-171.5 555.5,-171.5 555.5,-152.5 481.5,-152.5"/>
<text text-anchor="middle" x="518.5" y="-159.5" font-family="Helvetica,sans-Serif" font-size="10.00">config_read</text>
</a>
</g>
</g>
<!-- Node7&#45;&gt;Node9 -->
<g id="edge8" class="edge">
<title>Node7&#45;&gt;Node9</title>
<path fill="none" stroke="midnightblue" d="M378.71,-192.31C405.45,-186.47 442.45,-178.39 471.52,-172.04"/>
<polygon fill="midnightblue" stroke="midnightblue" points="472.42,-175.43 481.44,-169.87 470.93,-168.59 472.42,-175.43"/>
</g>
<!-- Node10&#45;&gt;Node3 -->
<g id="edge11" class="edge">
<title>Node10&#45;&gt;Node3</title>
<path fill="none" stroke="midnightblue" d="M208.23,-276C235.25,-276 267.64,-276 293.71,-276"/>
<polygon fill="midnightblue" stroke="midnightblue" points="293.74,-279.5 303.74,-276 293.74,-272.5 293.74,-279.5"/>
</g>
<!-- Node10&#45;&gt;Node4 -->
<g id="edge12" class="edge">
<title>Node10&#45;&gt;Node4</title>
<path fill="none" stroke="midnightblue" d="M201.31,-266.41C230.11,-260.58 266.72,-253.16 295.31,-247.36"/>
<polygon fill="midnightblue" stroke="midnightblue" points="296.34,-250.72 305.45,-245.31 294.95,-243.86 296.34,-250.72"/>
</g>
<!-- Node12 -->
<g id="node12" class="node">
<title>Node12</title>
<g id="a_node12"><a xlink:href="../../d8/d49/bound__cond__slope__limiter__x_8c.html#a93bebe7c69a9932a22ae8bfce51ab95c" target="_top" xlink:title="This function apply the minmod limiter to the slope in the x&#45;direction of two dimension.">
<polygon fill="white" stroke="black" points="265,-38.5 265,-57.5 420,-57.5 420,-38.5 265,-38.5"/>
<text text-anchor="middle" x="342.5" y="-45.5" font-family="Helvetica,sans-Serif" font-size="10.00">bound_cond_slope_limiter_x</text>
</a>
</g>
</g>
<!-- Node11&#45;&gt;Node12 -->
<g id="edge14" class="edge">
<title>Node11&#45;&gt;Node12</title>
<path fill="none" stroke="midnightblue" d="M205.24,-73.44C228.49,-69.1 256.17,-63.93 280.49,-59.39"/>
<polygon fill="midnightblue" stroke="midnightblue" points="281.14,-62.83 290.33,-57.55 279.85,-55.95 281.14,-62.83"/>
</g>
<!-- Node16 -->
<g id="node16" class="node">
<title>Node16</title>
<g id="a_node16"><a xlink:href="../../d8/dbb/bound__cond__slope__limiter__y_8c.html#aaf0175f075a4b153d671c163bc8275b6" target="_top" xlink:title="This function apply the minmod limiter to the slope in the y&#45;direction of two dimension.">
<polygon fill="white" stroke="black" points="265,-0.5 265,-19.5 420,-19.5 420,-0.5 265,-0.5"/>
<text text-anchor="middle" x="342.5" y="-7.5" font-family="Helvetica,sans-Serif" font-size="10.00">bound_cond_slope_limiter_y</text>
</a>
</g>
</g>
<!-- Node11&#45;&gt;Node16 -->
<g id="edge18" class="edge">
<title>Node11&#45;&gt;Node16</title>
<path fill="none" stroke="midnightblue" d="M170.82,-73.43C192.15,-61.63 230.35,-41.57 265,-29 271.9,-26.5 279.26,-24.21 286.6,-22.15"/>
<polygon fill="midnightblue" stroke="midnightblue" points="287.77,-25.46 296.53,-19.5 285.97,-18.7 287.77,-25.46"/>
</g>
<!-- Node18 -->
<g id="node18" class="node">
<title>Node18</title>
<g id="a_node18"><a xlink:href="../../d4/ddd/sys__pro_8c.html#aab058cac35713b52c083b9e54ffa45eb" target="_top" xlink:title="This function print a progress bar on one line of standard output.">
<polygon fill="white" stroke="black" points="315.5,-76.5 315.5,-95.5 369.5,-95.5 369.5,-76.5 315.5,-76.5"/>
<text text-anchor="middle" x="342.5" y="-83.5" font-family="Helvetica,sans-Serif" font-size="10.00">DispPro</text>
</a>
</g>
</g>
<!-- Node11&#45;&gt;Node18 -->
<g id="edge22" class="edge">
<title>Node11&#45;&gt;Node18</title>
<path fill="none" stroke="midnightblue" d="M229.18,-84.2C255.45,-84.62 283.74,-85.08 305.36,-85.42"/>
<polygon fill="midnightblue" stroke="midnightblue" points="305.34,-88.92 315.4,-85.58 305.46,-81.92 305.34,-88.92"/>
</g>
<!-- Node19 -->
<g id="node19" class="node">
<title>Node19</title>
<g id="a_node19"><a xlink:href="../../de/d35/flux__generator__x_8c.html#a99d3c20c9f68680b85415265ecd67b60" target="_top" xlink:title="This function calculate Eulerian fluxes of 2&#45;D Euler equations in x&#45;direction by 2&#45;D GRP solver.">
<polygon fill="white" stroke="black" points="293,-152.5 293,-171.5 392,-171.5 392,-152.5 293,-152.5"/>
<text text-anchor="middle" x="342.5" y="-159.5" font-family="Helvetica,sans-Serif" font-size="10.00">flux_generator_x</text>
</a>
</g>
</g>
<!-- Node11&#45;&gt;Node19 -->
<g id="edge23" class="edge">
<title>Node11&#45;&gt;Node19</title>
<path fill="none" stroke="midnightblue" d="M208.45,-92.61C215.64,-95.07 222.7,-98.14 229,-102 249.68,-114.66 244.29,-130.39 265,-143 270.52,-146.36 276.61,-149.13 282.87,-151.41"/>
<polygon fill="midnightblue" stroke="midnightblue" points="282.2,-154.87 292.79,-154.6 284.35,-148.21 282.2,-154.87"/>
</g>
<!-- Node23 -->
<g id="node23" class="node">
<title>Node23</title>
<g id="a_node23"><a xlink:href="../../de/db1/flux__generator__y_8c.html#a964701ac9bd65f6b19c3c731e983d562" target="_top" xlink:title="This function calculate Eulerian fluxes of 2&#45;D Euler equations in y&#45;direction by 2&#45;D GRP solver.">
<polygon fill="white" stroke="black" points="293,-114.5 293,-133.5 392,-133.5 392,-114.5 293,-114.5"/>
<text text-anchor="middle" x="342.5" y="-121.5" font-family="Helvetica,sans-Serif" font-size="10.00">flux_generator_y</text>
</a>
</g>
</g>
<!-- Node11&#45;&gt;Node23 -->
<g id="edge27" class="edge">
<title>Node11&#45;&gt;Node23</title>
<path fill="none" stroke="midnightblue" d="M197.49,-92.51C224.49,-98.41 259.38,-106.04 288.06,-112.31"/>
<polygon fill="midnightblue" stroke="midnightblue" points="287.41,-115.75 297.92,-114.47 288.9,-108.92 287.41,-115.75"/>
</g>
<!-- Node13 -->
<g id="node13" class="node">
<title>Node13</title>
<g id="a_node13"><a xlink:href="../../d7/d36/slope__limiter__2_d__x_8c.html#a1305d8e7a55a4345482501a8a57ef353" target="_top" xlink:title="This function apply the minmod limiter to the slope in the x&#45;direction of two dimension.">
<polygon fill="white" stroke="black" points="456,-38.5 456,-57.5 581,-57.5 581,-38.5 456,-38.5"/>
<text text-anchor="middle" x="518.5" y="-45.5" font-family="Helvetica,sans-Serif" font-size="10.00">minmod_limiter_2D_x</text>
</a>
</g>
</g>
<!-- Node12&#45;&gt;Node13 -->
<g id="edge15" class="edge">
<title>Node12&#45;&gt;Node13</title>
<path fill="none" stroke="midnightblue" d="M420.07,-48C428.56,-48 437.19,-48 445.62,-48"/>
<polygon fill="midnightblue" stroke="midnightblue" points="445.78,-51.5 455.78,-48 445.78,-44.5 445.78,-51.5"/>
</g>
<!-- Node14 -->
<g id="node14" class="node">
<title>Node14</title>
<g id="a_node14"><a xlink:href="../../d5/da5/tools_8h.html#a56cac3298eeead8cf22c1e61eb5a5a88" target="_top" xlink:title="Minmod limiter function of two variables.">
<polygon fill="white" stroke="black" points="663,-0.5 663,-19.5 726,-19.5 726,-0.5 663,-0.5"/>
<text text-anchor="middle" x="694.5" y="-7.5" font-family="Helvetica,sans-Serif" font-size="10.00">minmod2</text>
</a>
</g>
</g>
<!-- Node13&#45;&gt;Node14 -->
<g id="edge16" class="edge">
<title>Node13&#45;&gt;Node14</title>
<path fill="none" stroke="midnightblue" d="M563.41,-38.41C590.9,-32.41 626.08,-24.72 652.92,-18.86"/>
<polygon fill="midnightblue" stroke="midnightblue" points="653.74,-22.26 662.77,-16.71 652.25,-15.43 653.74,-22.26"/>
</g>
<!-- Node15 -->
<g id="node15" class="node">
<title>Node15</title>
<g id="a_node15"><a xlink:href="../../d5/da5/tools_8h.html#a6dfba28e1af33b47f4656d3738996fe9" target="_top" xlink:title="Minmod limiter function of three variables.">
<polygon fill="white" stroke="black" points="663,-38.5 663,-57.5 726,-57.5 726,-38.5 663,-38.5"/>
<text text-anchor="middle" x="694.5" y="-45.5" font-family="Helvetica,sans-Serif" font-size="10.00">minmod3</text>
</a>
</g>
</g>
<!-- Node13&#45;&gt;Node15 -->
<g id="edge17" class="edge">
<title>Node13&#45;&gt;Node15</title>
<path fill="none" stroke="midnightblue" d="M581.34,-48C604.9,-48 631.16,-48 652.34,-48"/>
<polygon fill="midnightblue" stroke="midnightblue" points="652.61,-51.5 662.61,-48 652.61,-44.5 652.61,-51.5"/>
</g>
<!-- Node17 -->
<g id="node17" class="node">
<title>Node17</title>
<g id="a_node17"><a xlink:href="../../d2/d49/slope__limiter_8c.html#ae6551ab705937492c059ece48a3b2793" target="_top" xlink:title="This function apply the minmod limiter to the slope in one dimension.">
<polygon fill="white" stroke="black" points="471,-0.5 471,-19.5 566,-19.5 566,-0.5 471,-0.5"/>
<text text-anchor="middle" x="518.5" y="-7.5" font-family="Helvetica,sans-Serif" font-size="10.00">minmod_limiter</text>
</a>
</g>
</g>
<!-- Node16&#45;&gt;Node17 -->
<g id="edge19" class="edge">
<title>Node16&#45;&gt;Node17</title>
<path fill="none" stroke="midnightblue" d="M420.07,-10C433.74,-10 447.76,-10 460.75,-10"/>
<polygon fill="midnightblue" stroke="midnightblue" points="460.92,-13.5 470.92,-10 460.92,-6.5 460.92,-13.5"/>
</g>
<!-- Node17&#45;&gt;Node14 -->
<g id="edge20" class="edge">
<title>Node17&#45;&gt;Node14</title>
<path fill="none" stroke="midnightblue" d="M566.13,-10C593.11,-10 626.76,-10 652.69,-10"/>
<polygon fill="midnightblue" stroke="midnightblue" points="652.93,-13.5 662.93,-10 652.93,-6.5 652.93,-13.5"/>
</g>
<!-- Node17&#45;&gt;Node15 -->
<g id="edge21" class="edge">
<title>Node17&#45;&gt;Node15</title>
<path fill="none" stroke="midnightblue" d="M563.41,-19.59C590.9,-25.59 626.08,-33.28 652.92,-39.14"/>
<polygon fill="midnightblue" stroke="midnightblue" points="652.25,-42.57 662.77,-41.29 653.74,-35.74 652.25,-42.57"/>
</g>
<!-- Node20 -->
<g id="node20" class="node">
<title>Node20</title>
<g id="a_node20"><a xlink:href="../../d5/d55/flux__solver_8c.html#a49938584f813ee4c3756f8aba45325de" target="_top" xlink:title="This function calculate Eulerian fluxes of 2&#45;D Euler equations by 2&#45;D GRP solver.">
<polygon fill="white" stroke="black" points="478.5,-114.5 478.5,-133.5 558.5,-133.5 558.5,-114.5 478.5,-114.5"/>
<text text-anchor="middle" x="518.5" y="-121.5" font-family="Helvetica,sans-Serif" font-size="10.00">GRP_2D_flux</text>
</a>
</g>
</g>
<!-- Node19&#45;&gt;Node20 -->
<g id="edge24" class="edge">
<title>Node19&#45;&gt;Node20</title>
<path fill="none" stroke="midnightblue" d="M387.41,-152.41C412.12,-147.01 443.03,-140.26 468.52,-134.7"/>
<polygon fill="midnightblue" stroke="midnightblue" points="469.33,-138.1 478.36,-132.55 467.84,-131.26 469.33,-138.1"/>
</g>
<!-- Node21 -->
<g id="node21" class="node">
<title>Node21</title>
<g id="a_node21"><a xlink:href="../../d5/dea/linear___g_r_p__solver___edir___q1_d_8c.html#a2d9faf2079b8b005ff0154c65f8d41f2" target="_top" xlink:title="A Quasi&#45;1D direct Eulerian GRP solver for unsteady compressible inviscid two&#45;component flow in two sp...">
<polygon fill="white" stroke="black" points="617,-114.5 617,-133.5 772,-133.5 772,-114.5 617,-114.5"/>
<text text-anchor="middle" x="694.5" y="-121.5" font-family="Helvetica,sans-Serif" font-size="10.00">linear_GRP_solver_Edir_Q1D</text>
</a>
</g>
</g>
<!-- Node20&#45;&gt;Node21 -->
<g id="edge25" class="edge">
<title>Node20&#45;&gt;Node21</title>
<path fill="none" stroke="midnightblue" d="M558.55,-124C572.82,-124 589.6,-124 606.38,-124"/>
<polygon fill="midnightblue" stroke="midnightblue" points="606.81,-127.5 616.81,-124 606.81,-120.5 606.81,-127.5"/>
</g>
<!-- Node22 -->
<g id="node22" class="node">
<title>Node22</title>
<g id="a_node22"><a xlink:href="../../d3/d54/_riemann__solver__exact___ben_8c.html#a3ad58b11c355d45ee406da49161edbd4" target="_top" xlink:title="EXACT RIEMANN SOLVER FOR Two&#45;Component γ&#45;Law Gas">
<polygon fill="white" stroke="black" points="808,-114.5 808,-133.5 936,-133.5 936,-114.5 808,-114.5"/>
<text text-anchor="middle" x="872" y="-121.5" font-family="Helvetica,sans-Serif" font-size="10.00">Riemann_solver_exact</text>
</a>
</g>
</g>
<!-- Node21&#45;&gt;Node22 -->
<g id="edge26" class="edge">
<title>Node21&#45;&gt;Node22</title>
<path fill="none" stroke="midnightblue" d="M772.22,-124C780.68,-124 789.28,-124 797.69,-124"/>
<polygon fill="midnightblue" stroke="midnightblue" points="797.85,-127.5 807.85,-124 797.85,-120.5 797.85,-127.5"/>
</g>
<!-- Node23&#45;&gt;Node20 -->
<g id="edge28" class="edge">
<title>Node23&#45;&gt;Node20</title>
<path fill="none" stroke="midnightblue" d="M392.43,-124C416.07,-124 444.39,-124 468.09,-124"/>
<polygon fill="midnightblue" stroke="midnightblue" points="468.28,-127.5 478.28,-124 468.28,-120.5 468.28,-127.5"/>
</g>
<!-- Node24&#45;&gt;Node12 -->
<g id="edge30" class="edge">
<title>Node24&#45;&gt;Node12</title>
<path fill="none" stroke="midnightblue" d="M208.96,-111.9C215.93,-109.07 222.79,-105.78 229,-102 248.06,-90.4 245.5,-77.84 265,-67 269.01,-64.77 273.28,-62.8 277.68,-61.06"/>
<polygon fill="midnightblue" stroke="midnightblue" points="279.19,-64.23 287.45,-57.6 276.86,-57.64 279.19,-64.23"/>
</g>
<!-- Node24&#45;&gt;Node16 -->
<g id="edge31" class="edge">
<title>Node24&#45;&gt;Node16</title>
<path fill="none" stroke="midnightblue" d="M211.87,-113.07C218.06,-110.06 223.93,-106.42 229,-102 256.26,-78.22 236.83,-51.69 265,-29 267.1,-27.31 269.33,-25.77 271.65,-24.36"/>
<polygon fill="midnightblue" stroke="midnightblue" points="273.72,-27.24 281.03,-19.57 270.54,-21 273.72,-27.24"/>
</g>
<!-- Node24&#45;&gt;Node18 -->
<g id="edge32" class="edge">
<title>Node24&#45;&gt;Node18</title>
<path fill="none" stroke="midnightblue" d="M211.53,-114.42C242.13,-107.73 278.82,-99.71 305.4,-93.89"/>
<polygon fill="midnightblue" stroke="midnightblue" points="306.39,-97.26 315.41,-91.71 304.89,-90.42 306.39,-97.26"/>
</g>
<!-- Node24&#45;&gt;Node19 -->
<g id="edge33" class="edge">
<title>Node24&#45;&gt;Node19</title>
<path fill="none" stroke="midnightblue" d="M211.53,-137.74C234.22,-141.98 260.26,-146.84 283.04,-151.09"/>
<polygon fill="midnightblue" stroke="midnightblue" points="282.45,-154.54 292.92,-152.93 283.74,-147.66 282.45,-154.54"/>
</g>
<!-- Node24&#45;&gt;Node23 -->
<g id="edge34" class="edge">
<title>Node24&#45;&gt;Node23</title>
<path fill="none" stroke="midnightblue" d="M211.53,-126.08C234.12,-125.72 260.03,-125.3 282.74,-124.94"/>
<polygon fill="midnightblue" stroke="midnightblue" points="282.98,-128.44 292.92,-124.78 282.87,-121.44 282.98,-128.44"/>
</g>
</g>
</svg>
