<?xml version="1.0" encoding="UTF-8" standalone="no"?>
<!DOCTYPE svg PUBLIC "-//W3C//DTD SVG 1.1//EN"
 "http://www.w3.org/Graphics/SVG/1.1/DTD/svg11.dtd">
<!-- Generated by graphviz version 6.0.1 (0)
 -->
<!-- Title: minmod3 Pages: 1 -->
<svg width="479pt" height="66pt"
 viewBox="0.00 0.00 479.00 66.00" xmlns="http://www.w3.org/2000/svg" xmlns:xlink="http://www.w3.org/1999/xlink">
<g id="graph0" class="graph" transform="scale(1 1) rotate(0) translate(4 62)">
<title>minmod3</title>
<polygon fill="white" stroke="none" points="-4,4 -4,-62 475,-62 475,4 -4,4"/>
<!-- Node1 -->
<g id="node1" class="node">
<title>Node1</title>
<g id="a_node1"><a xlink:title="Minmod limiter function of three variables.">
<polygon fill="#bfbfbf" stroke="black" points="408,-19.5 408,-38.5 471,-38.5 471,-19.5 408,-19.5"/>
<text text-anchor="middle" x="439.5" y="-26.5" font-family="Helvetica,sans-Serif" font-size="10.00">minmod3</text>
</a>
</g>
</g>
<!-- Node2 -->
<g id="node2" class="node">
<title>Node2</title>
<g id="a_node2"><a xlink:href="../../d9/d8f/slope__limiter__radial_8c.html#a66820f2e6ed9d6e24ab4846b555afb03" target="_top" xlink:title="This function apply the minmod limiter to the slope in radially symmetric case.">
<polygon fill="white" stroke="black" points="244,-38.5 244,-57.5 372,-57.5 372,-38.5 244,-38.5"/>
<text text-anchor="middle" x="308" y="-45.5" font-family="Helvetica,sans-Serif" font-size="10.00">minmod_limiter_radial</text>
</a>
</g>
</g>
<!-- Node1&#45;&gt;Node2 -->
<g id="edge1" class="edge">
<title>Node1&#45;&gt;Node2</title>
<path fill="none" stroke="midnightblue" d="M397.8,-34.97C389.61,-36.17 380.82,-37.46 372.07,-38.75"/>
<polygon fill="midnightblue" stroke="midnightblue" points="398.42,-38.42 407.81,-33.5 397.41,-31.49 398.42,-38.42"/>
</g>
<!-- Node5 -->
<g id="node5" class="node">
<title>Node5</title>
<g id="a_node5"><a xlink:href="../../d6/df2/slope___v_i_p__limiter__radial_8c.html#aaaa06c143daec504594545993241e747" target="_top" xlink:title="This function apply the VIP/minmod limiter to the slope of the fluid velocity in radially symmetric c...">
<polygon fill="white" stroke="black" points="256.5,-0.5 256.5,-19.5 359.5,-19.5 359.5,-0.5 256.5,-0.5"/>
<text text-anchor="middle" x="308" y="-7.5" font-family="Helvetica,sans-Serif" font-size="10.00">VIP_limiter_radial</text>
</a>
</g>
</g>
<!-- Node1&#45;&gt;Node5 -->
<g id="edge4" class="edge">
<title>Node1&#45;&gt;Node5</title>
<path fill="none" stroke="midnightblue" d="M397.62,-23C385.59,-21.24 372.28,-19.28 359.72,-17.44"/>
<polygon fill="midnightblue" stroke="midnightblue" points="397.41,-26.51 407.81,-24.5 398.42,-19.58 397.41,-26.51"/>
</g>
<!-- Node3 -->
<g id="node3" class="node">
<title>Node3</title>
<g id="a_node3"><a xlink:href="../../d5/d63/grp__solver__radial___l_a_g__source_8c.html#a30b48b52a21ad448fd96c27727760837" target="_top" xlink:title="This function use GRP scheme to solve radially(cylindrically) symmetric compressible flows of motion ...">
<polygon fill="white" stroke="black" points="77,-14 77,-44 208,-44 208,-14 77,-14"/>
<text text-anchor="start" x="85" y="-32" font-family="Helvetica,sans-Serif" font-size="10.00">GRP_solver_radial_LAG</text>
<text text-anchor="middle" x="142.5" y="-21" font-family="Helvetica,sans-Serif" font-size="10.00">_source</text>
</a>
</g>
</g>
<!-- Node2&#45;&gt;Node3 -->
<g id="edge2" class="edge">
<title>Node2&#45;&gt;Node3</title>
<path fill="none" stroke="midnightblue" d="M233.83,-39.5C225.27,-38.5 216.59,-37.49 208.17,-36.51"/>
<polygon fill="midnightblue" stroke="midnightblue" points="233.45,-42.98 243.79,-40.65 234.26,-36.02 233.45,-42.98"/>
</g>
<!-- Node4 -->
<g id="node4" class="node">
<title>Node4</title>
<g id="a_node4"><a xlink:href="../../d2/d24/hydrocode_8c.html#a0ddf1224851353fc92bfbff6f499fa97" target="_top" xlink:title="This is the main function which constructs the main structure of the radially symmetric Lagrangian hy...">
<polygon fill="white" stroke="black" points="0,-19.5 0,-38.5 41,-38.5 41,-19.5 0,-19.5"/>
<text text-anchor="middle" x="20.5" y="-26.5" font-family="Helvetica,sans-Serif" font-size="10.00">main</text>
</a>
</g>
</g>
<!-- Node3&#45;&gt;Node4 -->
<g id="edge3" class="edge">
<title>Node3&#45;&gt;Node4</title>
<path fill="none" stroke="midnightblue" d="M66.91,-29C57.43,-29 48.46,-29 41.05,-29"/>
<polygon fill="midnightblue" stroke="midnightblue" points="66.93,-32.5 76.93,-29 66.93,-25.5 66.93,-32.5"/>
</g>
<!-- Node5&#45;&gt;Node3 -->
<g id="edge5" class="edge">
<title>Node5&#45;&gt;Node3</title>
<path fill="none" stroke="midnightblue" d="M245.99,-17.09C233.65,-18.52 220.63,-20.04 208.17,-21.48"/>
<polygon fill="midnightblue" stroke="midnightblue" points="246.63,-20.54 256.16,-15.91 245.83,-13.59 246.63,-20.54"/>
</g>
</g>
</svg>
