<?xml version="1.0" encoding="UTF-8" standalone="no"?>
<!DOCTYPE svg PUBLIC "-//W3C//DTD SVG 1.1//EN"
 "http://www.w3.org/Graphics/SVG/1.1/DTD/svg11.dtd">
<!-- Generated by graphviz version 5.0.0 (0)
 -->
<!-- Title: flux_generator_y Pages: 1 -->
<svg width="295pt" height="78pt"
 viewBox="0.00 0.00 295.00 77.50" xmlns="http://www.w3.org/2000/svg" xmlns:xlink="http://www.w3.org/1999/xlink">
<g id="graph0" class="graph" transform="scale(1 1) rotate(0) translate(4 73.5)">
<title>flux_generator_y</title>
<polygon fill="white" stroke="transparent" points="-4,4 -4,-73.5 291,-73.5 291,4 -4,4"/>
<!-- Node1 -->
<g id="node1" class="node">
<title>Node1</title>
<g id="a_node1"><a xlink:title=" ">
<polygon fill="#bfbfbf" stroke="black" points="188,-28 188,-47 287,-47 287,-28 188,-28"/>
<text text-anchor="middle" x="237.5" y="-35" font-family="Helvetica,sans-Serif" font-size="10.00">flux_generator_y</text>
</a>
</g>
</g>
<!-- Node2 -->
<g id="node2" class="node">
<title>Node2</title>
<g id="a_node2"><a xlink:href="../../d6/d0f/_g_r_p__solver__2_d___e_u_l__source_8c.html#ad2ed8a0ffbf2c3b9eb692984e9fbc6f2" target="_top" xlink:title="This function use GRP scheme to solve 2&#45;D Euler equations of motion on Eulerian coordinate without di...">
<polygon fill="white" stroke="black" points="0,-50 0,-69 152,-69 152,-50 0,-50"/>
<text text-anchor="middle" x="76" y="-57" font-family="Helvetica,sans-Serif" font-size="10.00">GRP_solver_2D_EUL_source</text>
</a>
</g>
</g>
<!-- Node1&#45;&gt;Node2 -->
<g id="edge1" class="edge">
<title>Node1&#45;&gt;Node2</title>
<path fill="none" stroke="midnightblue" d="M177.66,-45.62C167.35,-47.04 156.53,-48.53 145.97,-49.99"/>
<polygon fill="midnightblue" stroke="midnightblue" points="178.35,-49.05 187.78,-44.22 177.39,-42.12 178.35,-49.05"/>
</g>
<!-- Node3 -->
<g id="node3" class="node">
<title>Node3</title>
<g id="a_node3"><a xlink:href="../../dc/d9e/_g_r_p__solver__2_d__split___e_u_l__source_8c.html#a196c7b4e4415c20bbdfc3dd294653b66" target="_top" xlink:title="This function use GRP scheme to solve 2&#45;D Euler equations of motion on Eulerian coordinate with dimen...">
<polygon fill="white" stroke="black" points="17.5,-0.5 17.5,-30.5 134.5,-30.5 134.5,-0.5 17.5,-0.5"/>
<text text-anchor="start" x="25.5" y="-18.5" font-family="Helvetica,sans-Serif" font-size="10.00">GRP_solver_2D_split</text>
<text text-anchor="middle" x="76" y="-7.5" font-family="Helvetica,sans-Serif" font-size="10.00">_EUL_source</text>
</a>
</g>
</g>
<!-- Node1&#45;&gt;Node3 -->
<g id="edge2" class="edge">
<title>Node1&#45;&gt;Node3</title>
<path fill="none" stroke="midnightblue" d="M177.73,-29.39C163.68,-27.46 148.68,-25.39 134.67,-23.45"/>
<polygon fill="midnightblue" stroke="midnightblue" points="177.39,-32.88 187.78,-30.78 178.35,-25.95 177.39,-32.88"/>
</g>
</g>
</svg>
