<?xml version="1.0" encoding="UTF-8" standalone="no"?>
<!DOCTYPE svg PUBLIC "-//W3C//DTD SVG 1.1//EN"
 "http://www.w3.org/Graphics/SVG/1.1/DTD/svg11.dtd">
<!-- Generated by graphviz version 6.0.1 (0)
 -->
<!-- Title: Riemann_solver_starPU Pages: 1 -->
<svg width="541pt" height="66pt"
 viewBox="0.00 0.00 541.00 66.00" xmlns="http://www.w3.org/2000/svg" xmlns:xlink="http://www.w3.org/1999/xlink">
<g id="graph0" class="graph" transform="scale(1 1) rotate(0) translate(4 62)">
<title>Riemann_solver_starPU</title>
<polygon fill="white" stroke="none" points="-4,4 -4,-62 537,-62 537,4 -4,4"/>
<!-- Node1 -->
<g id="node1" class="node">
<title>Node1</title>
<g id="a_node1"><a xlink:title="EXACT RIEMANN SOLVER FOR Two&#45;Component γ&#45;Law Gas">
<polygon fill="#bfbfbf" stroke="black" points="400,-19.5 400,-38.5 533,-38.5 533,-19.5 400,-19.5"/>
<text text-anchor="middle" x="466.5" y="-26.5" font-family="Helvetica,sans-Serif" font-size="10.00">Riemann_solver_starPU</text>
</a>
</g>
</g>
<!-- Node2 -->
<g id="node2" class="node">
<title>Node2</title>
<g id="a_node2"><a xlink:href="../../d0/d4c/linear__grp__solver__radial___l_a_g_8c.html#a610438bbb2947674abfd9699a2f77bce" target="_top" xlink:title="A GRP solver for unsteady compressible inviscid two&#45;component flow in tangential case....">
<polygon fill="white" stroke="black" points="244,-38.5 244,-57.5 364,-57.5 364,-38.5 244,-38.5"/>
<text text-anchor="middle" x="304" y="-45.5" font-family="Helvetica,sans-Serif" font-size="10.00">AcousticRLagTangent</text>
</a>
</g>
</g>
<!-- Node1&#45;&gt;Node2 -->
<g id="edge1" class="edge">
<title>Node1&#45;&gt;Node2</title>
<path fill="none" stroke="midnightblue" d="M389.74,-37.97C381.17,-38.98 372.52,-40.01 364.2,-40.99"/>
<polygon fill="midnightblue" stroke="midnightblue" points="390.24,-41.43 399.76,-36.78 389.41,-34.48 390.24,-41.43"/>
</g>
<!-- Node5 -->
<g id="node5" class="node">
<title>Node5</title>
<g id="a_node5"><a xlink:href="../../d0/d4c/linear__grp__solver__radial___l_a_g_8c.html#a9e85c30c34532bb9d3582acab5134689" target="_top" xlink:title="A GRP solver for unsteady compressible inviscid two&#45;component flow. Lagrangian version (moving mesh) ...">
<polygon fill="white" stroke="black" points="258.5,-0.5 258.5,-19.5 349.5,-19.5 349.5,-0.5 258.5,-0.5"/>
<text text-anchor="middle" x="304" y="-7.5" font-family="Helvetica,sans-Serif" font-size="10.00">GRPsolverRLag</text>
</a>
</g>
</g>
<!-- Node1&#45;&gt;Node5 -->
<g id="edge4" class="edge">
<title>Node1&#45;&gt;Node5</title>
<path fill="none" stroke="midnightblue" d="M389.44,-20C375.87,-18.39 362.15,-16.76 349.82,-15.31"/>
<polygon fill="midnightblue" stroke="midnightblue" points="389.41,-23.52 399.76,-21.22 390.24,-16.57 389.41,-23.52"/>
</g>
<!-- Node3 -->
<g id="node3" class="node">
<title>Node3</title>
<g id="a_node3"><a xlink:href="../../d5/d63/grp__solver__radial___l_a_g__source_8c.html#a30b48b52a21ad448fd96c27727760837" target="_top" xlink:title="This function use GRP scheme to solve radially(cylindrically) symmetric compressible flows of motion ...">
<polygon fill="white" stroke="black" points="77,-14 77,-44 208,-44 208,-14 77,-14"/>
<text text-anchor="start" x="85" y="-32" font-family="Helvetica,sans-Serif" font-size="10.00">GRP_solver_radial_LAG</text>
<text text-anchor="middle" x="142.5" y="-21" font-family="Helvetica,sans-Serif" font-size="10.00">_source</text>
</a>
</g>
</g>
<!-- Node2&#45;&gt;Node3 -->
<g id="edge2" class="edge">
<title>Node2&#45;&gt;Node3</title>
<path fill="none" stroke="midnightblue" d="M233.42,-39.71C224.98,-38.71 216.39,-37.68 208.03,-36.69"/>
<polygon fill="midnightblue" stroke="midnightblue" points="233.26,-43.22 243.61,-40.93 234.09,-36.27 233.26,-43.22"/>
</g>
<!-- Node4 -->
<g id="node4" class="node">
<title>Node4</title>
<g id="a_node4"><a xlink:href="../../d2/d24/hydrocode_8c.html#a0ddf1224851353fc92bfbff6f499fa97" target="_top" xlink:title="This is the main function which constructs the main structure of the radially symmetric Lagrangian hy...">
<polygon fill="white" stroke="black" points="0,-19.5 0,-38.5 41,-38.5 41,-19.5 0,-19.5"/>
<text text-anchor="middle" x="20.5" y="-26.5" font-family="Helvetica,sans-Serif" font-size="10.00">main</text>
</a>
</g>
</g>
<!-- Node3&#45;&gt;Node4 -->
<g id="edge3" class="edge">
<title>Node3&#45;&gt;Node4</title>
<path fill="none" stroke="midnightblue" d="M66.91,-29C57.43,-29 48.46,-29 41.05,-29"/>
<polygon fill="midnightblue" stroke="midnightblue" points="66.93,-32.5 76.93,-29 66.93,-25.5 66.93,-32.5"/>
</g>
<!-- Node5&#45;&gt;Node3 -->
<g id="edge5" class="edge">
<title>Node5&#45;&gt;Node3</title>
<path fill="none" stroke="midnightblue" d="M248.09,-16.54C235.25,-18.07 221.47,-19.71 208.25,-21.29"/>
<polygon fill="midnightblue" stroke="midnightblue" points="248.63,-20 258.15,-15.34 247.8,-13.05 248.63,-20"/>
</g>
</g>
</svg>
