<?xml version="1.0" encoding="UTF-8" standalone="no"?>
<!DOCTYPE svg PUBLIC "-//W3C//DTD SVG 1.1//EN"
 "http://www.w3.org/Graphics/SVG/1.1/DTD/svg11.dtd">
<!-- Generated by graphviz version 6.0.1 (0)
 -->
<!-- Title: file_radial_write_TEC Pages: 1 -->
<svg width="371pt" height="56pt"
 viewBox="0.00 0.00 371.00 55.50" xmlns="http://www.w3.org/2000/svg" xmlns:xlink="http://www.w3.org/1999/xlink">
<g id="graph0" class="graph" transform="scale(1 1) rotate(0) translate(4 51.5)">
<title>file_radial_write_TEC</title>
<polygon fill="white" stroke="none" points="-4,4 -4,-51.5 367,-51.5 367,4 -4,4"/>
<!-- Node1 -->
<g id="node1" class="node">
<title>Node1</title>
<g id="a_node1"><a xlink:title="This function write the radially symmetric 2&#45;D solution into Tecplot output &#39;.tec&#39; files.">
<polygon fill="#bfbfbf" stroke="black" points="244,-0.5 244,-19.5 363,-19.5 363,-0.5 244,-0.5"/>
<text text-anchor="middle" x="303.5" y="-7.5" font-family="Helvetica,sans-Serif" font-size="10.00">file_radial_write_TEC</text>
</a>
</g>
</g>
<!-- Node2 -->
<g id="node2" class="node">
<title>Node2</title>
<g id="a_node2"><a xlink:href="../../d5/d63/grp__solver__radial___l_a_g__source_8c.html#a30b48b52a21ad448fd96c27727760837" target="_top" xlink:title="This function use GRP scheme to solve radially(cylindrically) symmetric compressible flows of motion ...">
<polygon fill="white" stroke="black" points="77,-17 77,-47 208,-47 208,-17 77,-17"/>
<text text-anchor="start" x="85" y="-35" font-family="Helvetica,sans-Serif" font-size="10.00">GRP_solver_radial_LAG</text>
<text text-anchor="middle" x="142.5" y="-24" font-family="Helvetica,sans-Serif" font-size="10.00">_source</text>
</a>
</g>
</g>
<!-- Node1&#45;&gt;Node2 -->
<g id="edge1" class="edge">
<title>Node1&#45;&gt;Node2</title>
<path fill="none" stroke="midnightblue" d="M233.56,-19.54C225.13,-20.71 216.53,-21.89 208.17,-23.05"/>
<polygon fill="midnightblue" stroke="midnightblue" points="234.32,-22.97 243.75,-18.13 233.36,-16.03 234.32,-22.97"/>
</g>
<!-- Node3 -->
<g id="node3" class="node">
<title>Node3</title>
<g id="a_node3"><a xlink:href="../../d2/d24/hydrocode_8c.html#a0ddf1224851353fc92bfbff6f499fa97" target="_top" xlink:title="This is the main function which constructs the main structure of the radially symmetric Lagrangian hy...">
<polygon fill="white" stroke="black" points="0,-0.5 0,-19.5 41,-19.5 41,-0.5 0,-0.5"/>
<text text-anchor="middle" x="20.5" y="-7.5" font-family="Helvetica,sans-Serif" font-size="10.00">main</text>
</a>
</g>
</g>
<!-- Node1&#45;&gt;Node3 -->
<g id="edge3" class="edge">
<title>Node1&#45;&gt;Node3</title>
<path fill="none" stroke="midnightblue" d="M233.69,-8.37C225.04,-8.22 216.31,-8.09 208,-8 149.78,-7.38 135.21,-6.95 77,-8 65.05,-8.22 51.65,-8.69 41.02,-9.12"/>
<polygon fill="midnightblue" stroke="midnightblue" points="233.71,-11.87 243.78,-8.56 233.84,-4.88 233.71,-11.87"/>
</g>
<!-- Node2&#45;&gt;Node3 -->
<g id="edge2" class="edge">
<title>Node2&#45;&gt;Node3</title>
<path fill="none" stroke="midnightblue" d="M66.91,-18.32C57.43,-16.59 48.46,-14.94 41.05,-13.58"/>
<polygon fill="midnightblue" stroke="midnightblue" points="66.47,-21.8 76.93,-20.16 67.73,-14.92 66.47,-21.8"/>
</g>
</g>
</svg>
