<?xml version="1.0" encoding="UTF-8" standalone="no"?>
<!DOCTYPE svg PUBLIC "-//W3C//DTD SVG 1.1//EN"
 "http://www.w3.org/Graphics/SVG/1.1/DTD/svg11.dtd">
<!-- Generated by graphviz version 5.0.0 (0)
 -->
<!-- Title: bound_cond_slope_limiter_x Pages: 1 -->
<svg width="423pt" height="66pt"
 viewBox="0.00 0.00 423.00 66.00" xmlns="http://www.w3.org/2000/svg" xmlns:xlink="http://www.w3.org/1999/xlink">
<g id="graph0" class="graph" transform="scale(1 1) rotate(0) translate(4 62)">
<title>bound_cond_slope_limiter_x</title>
<polygon fill="white" stroke="transparent" points="-4,4 -4,-62 419,-62 419,4 -4,4"/>
<!-- Node1 -->
<g id="node1" class="node">
<title>Node1</title>
<g id="a_node1"><a xlink:title="This function apply the minmod limiter to the slope in the x&#45;direction of two dimension.">
<polygon fill="#bfbfbf" stroke="black" points="0,-19.5 0,-38.5 155,-38.5 155,-19.5 0,-19.5"/>
<text text-anchor="middle" x="77.5" y="-26.5" font-family="Helvetica,sans-Serif" font-size="10.00">bound_cond_slope_limiter_x</text>
</a>
</g>
</g>
<!-- Node2 -->
<g id="node2" class="node">
<title>Node2</title>
<g id="a_node2"><a xlink:href="../../d7/d36/slope__limiter__2_d__x_8c.html#a1305d8e7a55a4345482501a8a57ef353" target="_top" xlink:title="This function apply the minmod limiter to the slope in the x&#45;direction of two dimension.">
<polygon fill="white" stroke="black" points="191,-19.5 191,-38.5 316,-38.5 316,-19.5 191,-19.5"/>
<text text-anchor="middle" x="253.5" y="-26.5" font-family="Helvetica,sans-Serif" font-size="10.00">minmod_limiter_2D_x</text>
</a>
</g>
</g>
<!-- Node1&#45;&gt;Node2 -->
<g id="edge1" class="edge">
<title>Node1&#45;&gt;Node2</title>
<path fill="none" stroke="midnightblue" d="M155.07,-29C163.56,-29 172.19,-29 180.62,-29"/>
<polygon fill="midnightblue" stroke="midnightblue" points="180.78,-32.5 190.78,-29 180.78,-25.5 180.78,-32.5"/>
</g>
<!-- Node3 -->
<g id="node3" class="node">
<title>Node3</title>
<g id="a_node3"><a xlink:href="../../d5/da5/tools_8h.html#a56cac3298eeead8cf22c1e61eb5a5a88" target="_top" xlink:title="Minmod limiter function of two variables.">
<polygon fill="white" stroke="black" points="352,-38.5 352,-57.5 415,-57.5 415,-38.5 352,-38.5"/>
<text text-anchor="middle" x="383.5" y="-45.5" font-family="Helvetica,sans-Serif" font-size="10.00">minmod2</text>
</a>
</g>
</g>
<!-- Node2&#45;&gt;Node3 -->
<g id="edge2" class="edge">
<title>Node2&#45;&gt;Node3</title>
<path fill="none" stroke="midnightblue" d="M316.25,-38.17C324.97,-39.46 333.75,-40.76 341.93,-41.98"/>
<polygon fill="midnightblue" stroke="midnightblue" points="341.52,-45.46 351.93,-43.46 342.55,-38.53 341.52,-45.46"/>
</g>
<!-- Node4 -->
<g id="node4" class="node">
<title>Node4</title>
<g id="a_node4"><a xlink:href="../../d5/da5/tools_8h.html#a6dfba28e1af33b47f4656d3738996fe9" target="_top" xlink:title="Minmod limiter function of three variables.">
<polygon fill="white" stroke="black" points="352,-0.5 352,-19.5 415,-19.5 415,-0.5 352,-0.5"/>
<text text-anchor="middle" x="383.5" y="-7.5" font-family="Helvetica,sans-Serif" font-size="10.00">minmod3</text>
</a>
</g>
</g>
<!-- Node2&#45;&gt;Node4 -->
<g id="edge3" class="edge">
<title>Node2&#45;&gt;Node4</title>
<path fill="none" stroke="midnightblue" d="M316.25,-19.83C324.97,-18.54 333.75,-17.24 341.93,-16.02"/>
<polygon fill="midnightblue" stroke="midnightblue" points="342.55,-19.47 351.93,-14.54 341.52,-12.54 342.55,-19.47"/>
</g>
</g>
</svg>
