<?xml version="1.0" encoding="UTF-8" standalone="no"?>
<!DOCTYPE svg PUBLIC "-//W3C//DTD SVG 1.1//EN"
 "http://www.w3.org/Graphics/SVG/1.1/DTD/svg11.dtd">
<!-- Generated by graphviz version 6.0.1 (0)
 -->
<!-- Title: flu_var_count Pages: 1 -->
<svg width="407pt" height="28pt"
 viewBox="0.00 0.00 407.00 28.00" xmlns="http://www.w3.org/2000/svg" xmlns:xlink="http://www.w3.org/1999/xlink">
<g id="graph0" class="graph" transform="scale(1 1) rotate(0) translate(4 24)">
<title>flu_var_count</title>
<polygon fill="white" stroke="none" points="-4,4 -4,-24 403,-24 403,4 -4,4"/>
<!-- Node1 -->
<g id="node1" class="node">
<title>Node1</title>
<g id="a_node1"><a xlink:title="This function counts how many numbers are there in the initial data file.">
<polygon fill="#bfbfbf" stroke="black" points="316,-0.5 316,-19.5 399,-19.5 399,-0.5 316,-0.5"/>
<text text-anchor="middle" x="357.5" y="-7.5" font-family="Helvetica,sans-Serif" font-size="10.00">flu_var_count</text>
</a>
</g>
</g>
<!-- Node2 -->
<g id="node2" class="node">
<title>Node2</title>
<g id="a_node2"><a xlink:href="../../d4/de5/io__control_8c.html#afc5a75c19ae16af5227567eb1dde0ef1" target="_top" xlink:title="This function reads the time data file for plotting &#39;time_plot.dat&#39; and initialize tha array &#39;time_pl...">
<polygon fill="white" stroke="black" points="190,-0.5 190,-19.5 280,-19.5 280,-0.5 190,-0.5"/>
<text text-anchor="middle" x="235" y="-7.5" font-family="Helvetica,sans-Serif" font-size="10.00">time_plot_read</text>
</a>
</g>
</g>
<!-- Node1&#45;&gt;Node2 -->
<g id="edge1" class="edge">
<title>Node1&#45;&gt;Node2</title>
<path fill="none" stroke="midnightblue" d="M305.54,-10C297.07,-10 288.34,-10 280.06,-10"/>
<polygon fill="midnightblue" stroke="midnightblue" points="305.7,-13.5 315.7,-10 305.7,-6.5 305.7,-13.5"/>
</g>
<!-- Node3 -->
<g id="node3" class="node">
<title>Node3</title>
<g id="a_node3"><a xlink:href="../../d9/d89/file__1_d__in_8c.html#afa89583d6583e954878dee9bab9cf7d9" target="_top" xlink:title="This function reads the 1&#45;D initial data file of density/velocity/pressure and performs some other in...">
<polygon fill="white" stroke="black" points="77,-0.5 77,-19.5 154,-19.5 154,-0.5 77,-0.5"/>
<text text-anchor="middle" x="115.5" y="-7.5" font-family="Helvetica,sans-Serif" font-size="10.00">initialize_1D</text>
</a>
</g>
</g>
<!-- Node2&#45;&gt;Node3 -->
<g id="edge2" class="edge">
<title>Node2&#45;&gt;Node3</title>
<path fill="none" stroke="midnightblue" d="M179.87,-10C171.23,-10 162.45,-10 154.29,-10"/>
<polygon fill="midnightblue" stroke="midnightblue" points="179.91,-13.5 189.91,-10 179.91,-6.5 179.91,-13.5"/>
</g>
<!-- Node4 -->
<g id="node4" class="node">
<title>Node4</title>
<g id="a_node4"><a xlink:href="../../d2/d24/hydrocode_8c.html#a0ddf1224851353fc92bfbff6f499fa97" target="_top" xlink:title="This is the main function which constructs the main structure of the 1&#45;D Lagrangian/Eulerian hydrocod...">
<polygon fill="white" stroke="black" points="0,-0.5 0,-19.5 41,-19.5 41,-0.5 0,-0.5"/>
<text text-anchor="middle" x="20.5" y="-7.5" font-family="Helvetica,sans-Serif" font-size="10.00">main</text>
</a>
</g>
</g>
<!-- Node3&#45;&gt;Node4 -->
<g id="edge3" class="edge">
<title>Node3&#45;&gt;Node4</title>
<path fill="none" stroke="midnightblue" d="M66.73,-10C57.65,-10 48.63,-10 41.06,-10"/>
<polygon fill="midnightblue" stroke="midnightblue" points="66.94,-13.5 76.94,-10 66.94,-6.5 66.94,-13.5"/>
</g>
</g>
</svg>
