<?xml version="1.0" encoding="UTF-8" standalone="no"?>
<!DOCTYPE svg PUBLIC "-//W3C//DTD SVG 1.1//EN"
 "http://www.w3.org/Graphics/SVG/1.1/DTD/svg11.dtd">
<!-- Generated by graphviz version 5.0.0 (0)
 -->
<!-- Title: /run/media/leixin/软件盘/雷昕整理后的重要文件/程序/My&#45;CFD/HydroCODE/src/finite_volume/GRP_solver_EUL_source.c Pages: 1 -->
<svg width="781pt" height="184pt"
 viewBox="0.00 0.00 780.50 184.00" xmlns="http://www.w3.org/2000/svg" xmlns:xlink="http://www.w3.org/1999/xlink">
<g id="graph0" class="graph" transform="scale(1 1) rotate(0) translate(4 180)">
<title>/run/media/leixin/软件盘/雷昕整理后的重要文件/程序/My&#45;CFD/HydroCODE/src/finite_volume/GRP_solver_EUL_source.c</title>
<polygon fill="white" stroke="transparent" points="-4,4 -4,-180 776.5,-180 776.5,4 -4,4"/>
<!-- Node1 -->
<g id="node1" class="node">
<title>Node1</title>
<g id="a_node1"><a xlink:title="This is an Eulerian GRP scheme to solve 1&#45;D Euler equations.">
<polygon fill="#bfbfbf" stroke="black" points="198.5,-123.5 198.5,-175.5 413.5,-175.5 413.5,-123.5 198.5,-123.5"/>
<text text-anchor="start" x="206.5" y="-163.5" font-family="Helvetica,sans-Serif" font-size="10.00">/run/media/leixin/软件盘</text>
<text text-anchor="start" x="206.5" y="-152.5" font-family="Helvetica,sans-Serif" font-size="10.00">/雷昕整理后的重要文件</text>
<text text-anchor="start" x="206.5" y="-141.5" font-family="Helvetica,sans-Serif" font-size="10.00">/程序/My&#45;CFD/HydroCODE/src</text>
<text text-anchor="middle" x="306" y="-130.5" font-family="Helvetica,sans-Serif" font-size="10.00">/finite_volume/GRP_solver_EUL_source.c</text>
</a>
</g>
</g>
<!-- Node2 -->
<g id="node2" class="node">
<title>Node2</title>
<g id="a_node2"><a xlink:title=" ">
<polygon fill="white" stroke="#bfbfbf" points="0,-62 0,-81 50,-81 50,-62 0,-62"/>
<text text-anchor="middle" x="25" y="-69" font-family="Helvetica,sans-Serif" font-size="10.00">stdio.h</text>
</a>
</g>
</g>
<!-- Node1&#45;&gt;Node2 -->
<g id="edge1" class="edge">
<title>Node1&#45;&gt;Node2</title>
<path fill="none" stroke="midnightblue" d="M198.25,-125.6C154.57,-115.31 103.94,-102.07 59,-87 57.08,-86.36 55.12,-85.65 53.16,-84.91"/>
<polygon fill="midnightblue" stroke="midnightblue" points="54.08,-81.51 43.5,-81.02 51.47,-88 54.08,-81.51"/>
</g>
<!-- Node3 -->
<g id="node3" class="node">
<title>Node3</title>
<g id="a_node3"><a xlink:title=" ">
<polygon fill="white" stroke="#bfbfbf" points="68.5,-62 68.5,-81 119.5,-81 119.5,-62 68.5,-62"/>
<text text-anchor="middle" x="94" y="-69" font-family="Helvetica,sans-Serif" font-size="10.00">math.h</text>
</a>
</g>
</g>
<!-- Node1&#45;&gt;Node3 -->
<g id="edge2" class="edge">
<title>Node1&#45;&gt;Node3</title>
<path fill="none" stroke="midnightblue" d="M230.72,-123.43C199.15,-112.63 162.14,-99.61 129,-87 127.35,-86.37 125.66,-85.72 123.97,-85.05"/>
<polygon fill="midnightblue" stroke="midnightblue" points="124.86,-81.64 114.28,-81.14 122.24,-88.13 124.86,-81.64"/>
</g>
<!-- Node4 -->
<g id="node4" class="node">
<title>Node4</title>
<g id="a_node4"><a xlink:title=" ">
<polygon fill="white" stroke="#bfbfbf" points="137.5,-62 137.5,-81 190.5,-81 190.5,-62 137.5,-62"/>
<text text-anchor="middle" x="164" y="-69" font-family="Helvetica,sans-Serif" font-size="10.00">stdlib.h</text>
</a>
</g>
</g>
<!-- Node1&#45;&gt;Node4 -->
<g id="edge3" class="edge">
<title>Node1&#45;&gt;Node4</title>
<path fill="none" stroke="midnightblue" d="M259.11,-123.4C235.75,-110.9 208.44,-96.29 189.09,-85.93"/>
<polygon fill="midnightblue" stroke="midnightblue" points="190.5,-82.71 180.03,-81.08 187.19,-88.88 190.5,-82.71"/>
</g>
<!-- Node5 -->
<g id="node5" class="node">
<title>Node5</title>
<g id="a_node5"><a xlink:title=" ">
<polygon fill="white" stroke="#bfbfbf" points="209,-62 209,-81 257,-81 257,-62 209,-62"/>
<text text-anchor="middle" x="233" y="-69" font-family="Helvetica,sans-Serif" font-size="10.00">time.h</text>
</a>
</g>
</g>
<!-- Node1&#45;&gt;Node5 -->
<g id="edge4" class="edge">
<title>Node1&#45;&gt;Node5</title>
<path fill="none" stroke="midnightblue" d="M281.69,-123.19C270.7,-111.74 258.03,-98.56 248.38,-88.51"/>
<polygon fill="midnightblue" stroke="midnightblue" points="250.82,-86 241.37,-81.21 245.77,-90.85 250.82,-86"/>
</g>
<!-- Node6 -->
<g id="node6" class="node">
<title>Node6</title>
<g id="a_node6"><a xlink:title=" ">
<polygon fill="white" stroke="#bfbfbf" points="275,-62 275,-81 337,-81 337,-62 275,-62"/>
<text text-anchor="middle" x="306" y="-69" font-family="Helvetica,sans-Serif" font-size="10.00">stdbool.h</text>
</a>
</g>
</g>
<!-- Node1&#45;&gt;Node6 -->
<g id="edge5" class="edge">
<title>Node1&#45;&gt;Node6</title>
<path fill="none" stroke="midnightblue" d="M306,-123.19C306,-112.76 306,-100.9 306,-91.27"/>
<polygon fill="midnightblue" stroke="midnightblue" points="309.5,-91.21 306,-81.21 302.5,-91.21 309.5,-91.21"/>
</g>
<!-- Node7 -->
<g id="node7" class="node">
<title>Node7</title>
<g id="a_node7"><a xlink:href="../../da/d1e/var__struc_8h.html" target="_top" xlink:title="This file is the header file of some globally common variables and structural bodies.">
<polygon fill="white" stroke="black" points="388,-0.5 388,-19.5 506,-19.5 506,-0.5 388,-0.5"/>
<text text-anchor="middle" x="447" y="-7.5" font-family="Helvetica,sans-Serif" font-size="10.00">../include/var_struc.h</text>
</a>
</g>
</g>
<!-- Node1&#45;&gt;Node7 -->
<g id="edge6" class="edge">
<title>Node1&#45;&gt;Node7</title>
<path fill="none" stroke="midnightblue" d="M324.99,-123.13C340.15,-103.7 362.51,-76.78 385,-56 397.14,-44.78 412.11,-33.85 424.3,-25.56"/>
<polygon fill="midnightblue" stroke="midnightblue" points="426.6,-28.24 432.99,-19.79 422.72,-22.41 426.6,-28.24"/>
</g>
<!-- Node8 -->
<g id="node8" class="node">
<title>Node8</title>
<g id="a_node8"><a xlink:href="../../d8/d09/_riemann__solver_8h.html" target="_top" xlink:title="This file is the header file of several Riemann solvers and GRP solvers.">
<polygon fill="white" stroke="black" points="393.5,-56.5 393.5,-86.5 500.5,-86.5 500.5,-56.5 393.5,-56.5"/>
<text text-anchor="start" x="401.5" y="-74.5" font-family="Helvetica,sans-Serif" font-size="10.00">../include/Riemann</text>
<text text-anchor="middle" x="447" y="-63.5" font-family="Helvetica,sans-Serif" font-size="10.00">_solver.h</text>
</a>
</g>
</g>
<!-- Node1&#45;&gt;Node8 -->
<g id="edge7" class="edge">
<title>Node1&#45;&gt;Node8</title>
<path fill="none" stroke="midnightblue" d="M352.56,-123.4C371.82,-113.02 393.79,-101.18 411.69,-91.53"/>
<polygon fill="midnightblue" stroke="midnightblue" points="413.5,-94.53 420.64,-86.71 410.18,-88.37 413.5,-94.53"/>
</g>
<!-- Node9 -->
<g id="node9" class="node">
<title>Node9</title>
<g id="a_node9"><a xlink:href="../../d6/d6f/inter__process_8h.html" target="_top" xlink:title="This file is the header file of intermediate processes of finite volume scheme.">
<polygon fill="white" stroke="black" points="519,-62 519,-81 657,-81 657,-62 519,-62"/>
<text text-anchor="middle" x="588" y="-69" font-family="Helvetica,sans-Serif" font-size="10.00">../include/inter_process.h</text>
</a>
</g>
</g>
<!-- Node1&#45;&gt;Node9 -->
<g id="edge9" class="edge">
<title>Node1&#45;&gt;Node9</title>
<path fill="none" stroke="midnightblue" d="M399.12,-123.4C448.9,-109.99 507.71,-94.14 546.32,-83.73"/>
<polygon fill="midnightblue" stroke="midnightblue" points="547.43,-87.06 556.17,-81.08 545.61,-80.3 547.43,-87.06"/>
</g>
<!-- Node10 -->
<g id="node10" class="node">
<title>Node10</title>
<g id="a_node10"><a xlink:href="../../d5/da5/tools_8h.html" target="_top" xlink:title="This file is the header file of several independent tool functions.">
<polygon fill="white" stroke="black" points="675.5,-62 675.5,-81 772.5,-81 772.5,-62 675.5,-62"/>
<text text-anchor="middle" x="724" y="-69" font-family="Helvetica,sans-Serif" font-size="10.00">../include/tools.h</text>
</a>
</g>
</g>
<!-- Node1&#45;&gt;Node10 -->
<g id="edge11" class="edge">
<title>Node1&#45;&gt;Node10</title>
<path fill="none" stroke="midnightblue" d="M413.52,-132.32C485.28,-120.98 581.61,-104.73 666,-87 671.08,-85.93 676.38,-84.73 681.63,-83.49"/>
<polygon fill="midnightblue" stroke="midnightblue" points="682.69,-86.83 691.58,-81.06 681.04,-80.03 682.69,-86.83"/>
</g>
<!-- Node8&#45;&gt;Node7 -->
<g id="edge8" class="edge">
<title>Node8&#45;&gt;Node7</title>
<path fill="none" stroke="midnightblue" d="M447,-56.4C447,-48.47 447,-38.46 447,-29.86"/>
<polygon fill="midnightblue" stroke="midnightblue" points="450.5,-29.66 447,-19.66 443.5,-29.66 450.5,-29.66"/>
</g>
<!-- Node9&#45;&gt;Node7 -->
<g id="edge10" class="edge">
<title>Node9&#45;&gt;Node7</title>
<path fill="none" stroke="midnightblue" d="M567.8,-61.98C543.93,-51.9 504,-35.05 476.63,-23.5"/>
<polygon fill="midnightblue" stroke="midnightblue" points="477.74,-20.17 467.16,-19.51 475.02,-26.62 477.74,-20.17"/>
</g>
</g>
</svg>
