<?xml version="1.0" encoding="UTF-8" standalone="no"?>
<!DOCTYPE svg PUBLIC "-//W3C//DTD SVG 1.1//EN"
 "http://www.w3.org/Graphics/SVG/1.1/DTD/svg11.dtd">
<!-- Generated by graphviz version 6.0.1 (0)
 -->
<!-- Title: src~/include_cpp/inter_process_cpp.hpp Pages: 1 -->
<svg width="154pt" height="106pt"
 viewBox="0.00 0.00 154.00 106.00" xmlns="http://www.w3.org/2000/svg" xmlns:xlink="http://www.w3.org/1999/xlink">
<g id="graph0" class="graph" transform="scale(1 1) rotate(0) translate(4 102)">
<title>src~/include_cpp/inter_process_cpp.hpp</title>
<polygon fill="white" stroke="none" points="-4,4 -4,-102 150,-102 150,4 -4,4"/>
<!-- Node1 -->
<g id="node1" class="node">
<title>Node1</title>
<g id="a_node1"><a xlink:title="This file is the c++ header file of intermediate processes of finite volume scheme.">
<polygon fill="#bfbfbf" stroke="black" points="10.5,-67.5 10.5,-97.5 135.5,-97.5 135.5,-67.5 10.5,-67.5"/>
<text text-anchor="start" x="18.5" y="-85.5" font-family="Helvetica,sans-Serif" font-size="10.00">src~/include_cpp/inter</text>
<text text-anchor="middle" x="73" y="-74.5" font-family="Helvetica,sans-Serif" font-size="10.00">_process_cpp.hpp</text>
</a>
</g>
</g>
<!-- Node2 -->
<g id="node2" class="node">
<title>Node2</title>
<g id="a_node2"><a xlink:href="../../d6/df2/slope___v_i_p__limiter__radial_8c.html" target="_top" xlink:title="This is a function of the VIP/minmod slope limiter of the fluid velocity in radially symmetric case.">
<polygon fill="white" stroke="black" points="0,-0.5 0,-30.5 146,-30.5 146,-0.5 0,-0.5"/>
<text text-anchor="start" x="8" y="-18.5" font-family="Helvetica,sans-Serif" font-size="10.00">src~/inter_process</text>
<text text-anchor="middle" x="73" y="-7.5" font-family="Helvetica,sans-Serif" font-size="10.00">/slope_VIP_limiter_radial.c</text>
</a>
</g>
</g>
<!-- Node1&#45;&gt;Node2 -->
<g id="edge1" class="edge">
<title>Node1&#45;&gt;Node2</title>
<path fill="none" stroke="midnightblue" d="M73,-57.11C73,-48.15 73,-38.32 73,-30.58"/>
<polygon fill="midnightblue" stroke="midnightblue" points="69.5,-57.4 73,-67.4 76.5,-57.4 69.5,-57.4"/>
</g>
</g>
</svg>
