<?xml version="1.0" encoding="UTF-8" standalone="no"?>
<!DOCTYPE svg PUBLIC "-//W3C//DTD SVG 1.1//EN"
 "http://www.w3.org/Graphics/SVG/1.1/DTD/svg11.dtd">
<!-- Generated by graphviz version 6.0.1 (0)
 -->
<!-- Title: src~/include/tools.h Pages: 1 -->
<svg width="862pt" height="106pt"
 viewBox="0.00 0.00 862.00 106.00" xmlns="http://www.w3.org/2000/svg" xmlns:xlink="http://www.w3.org/1999/xlink">
<g id="graph0" class="graph" transform="scale(1 1) rotate(0) translate(4 102)">
<title>src~/include/tools.h</title>
<polygon fill="white" stroke="none" points="-4,4 -4,-102 858,-102 858,4 -4,4"/>
<!-- Node1 -->
<g id="node1" class="node">
<title>Node1</title>
<g id="a_node1"><a xlink:title="This file is the header file of several independent tool functions.">
<polygon fill="#bfbfbf" stroke="black" points="367,-78.5 367,-97.5 480,-97.5 480,-78.5 367,-78.5"/>
<text text-anchor="middle" x="423.5" y="-85.5" font-family="Helvetica,sans-Serif" font-size="10.00">src~/include/tools.h</text>
</a>
</g>
</g>
<!-- Node2 -->
<g id="node2" class="node">
<title>Node2</title>
<g id="a_node2"><a xlink:href="../../d4/de5/io__control_8c.html" target="_top" xlink:title="This is a set of common functions which control the input/output data.">
<polygon fill="white" stroke="black" points="0,-11.5 0,-30.5 131,-30.5 131,-11.5 0,-11.5"/>
<text text-anchor="middle" x="65.5" y="-18.5" font-family="Helvetica,sans-Serif" font-size="10.00">src~/file_io/io_control.c</text>
</a>
</g>
</g>
<!-- Node1&#45;&gt;Node2 -->
<g id="edge1" class="edge">
<title>Node1&#45;&gt;Node2</title>
<path fill="none" stroke="midnightblue" d="M356.76,-78.48C298.97,-70.61 213.3,-57.77 139.5,-42 124.4,-38.77 107.79,-34.36 94.14,-30.51"/>
<polygon fill="midnightblue" stroke="midnightblue" points="356.48,-81.97 366.86,-79.84 357.42,-75.03 356.48,-81.97"/>
</g>
<!-- Node3 -->
<g id="node3" class="node">
<title>Node3</title>
<g id="a_node3"><a xlink:href="../../d2/d7d/godunov__solver___e_u_l__source_8c.html" target="_top" xlink:title="This is an Eulerian Godunov scheme to solve 1&#45;D Euler equations.">
<polygon fill="white" stroke="black" points="149,-0.5 149,-41.5 270,-41.5 270,-0.5 149,-0.5"/>
<text text-anchor="start" x="157" y="-29.5" font-family="Helvetica,sans-Serif" font-size="10.00">src~/finite_volume</text>
<text text-anchor="start" x="157" y="-18.5" font-family="Helvetica,sans-Serif" font-size="10.00">/godunov_solver_EUL</text>
<text text-anchor="middle" x="209.5" y="-7.5" font-family="Helvetica,sans-Serif" font-size="10.00">_source.c</text>
</a>
</g>
</g>
<!-- Node1&#45;&gt;Node3 -->
<g id="edge2" class="edge">
<title>Node1&#45;&gt;Node3</title>
<path fill="none" stroke="midnightblue" d="M385.23,-75.38C353.26,-65.67 307.1,-51.65 270.11,-40.41"/>
<polygon fill="midnightblue" stroke="midnightblue" points="384.5,-78.81 395.08,-78.37 386.53,-72.11 384.5,-78.81"/>
</g>
<!-- Node4 -->
<g id="node4" class="node">
<title>Node4</title>
<g id="a_node4"><a xlink:href="../../d2/d2f/godunov__solver___l_a_g__source_8c.html" target="_top" xlink:title="This is a Lagrangian Godunov scheme to solve 1&#45;D Euler equations.">
<polygon fill="white" stroke="black" points="288.5,-0.5 288.5,-41.5 410.5,-41.5 410.5,-0.5 288.5,-0.5"/>
<text text-anchor="start" x="296.5" y="-29.5" font-family="Helvetica,sans-Serif" font-size="10.00">src~/finite_volume</text>
<text text-anchor="start" x="296.5" y="-18.5" font-family="Helvetica,sans-Serif" font-size="10.00">/godunov_solver_LAG</text>
<text text-anchor="middle" x="349.5" y="-7.5" font-family="Helvetica,sans-Serif" font-size="10.00">_source.c</text>
</a>
</g>
</g>
<!-- Node1&#45;&gt;Node4 -->
<g id="edge3" class="edge">
<title>Node1&#45;&gt;Node4</title>
<path fill="none" stroke="midnightblue" d="M406,-71.62C395.75,-62.63 382.72,-51.18 371.75,-41.54"/>
<polygon fill="midnightblue" stroke="midnightblue" points="403.7,-74.26 413.52,-78.23 408.32,-69 403.7,-74.26"/>
</g>
<!-- Node5 -->
<g id="node5" class="node">
<title>Node5</title>
<g id="a_node5"><a xlink:href="../../d6/d0b/grp__solver___e_u_l__source_8c.html" target="_top" xlink:title="This is an Eulerian GRP scheme to solve 1&#45;D Euler equations.">
<polygon fill="white" stroke="black" points="428.5,-6 428.5,-36 568.5,-36 568.5,-6 428.5,-6"/>
<text text-anchor="start" x="436.5" y="-24" font-family="Helvetica,sans-Serif" font-size="10.00">src~/finite_volume</text>
<text text-anchor="middle" x="498.5" y="-13" font-family="Helvetica,sans-Serif" font-size="10.00">/grp_solver_EUL_source.c</text>
</a>
</g>
</g>
<!-- Node1&#45;&gt;Node5 -->
<g id="edge4" class="edge">
<title>Node1&#45;&gt;Node5</title>
<path fill="none" stroke="midnightblue" d="M441.47,-71.43C453.87,-60.68 470.23,-46.5 482.24,-36.09"/>
<polygon fill="midnightblue" stroke="midnightblue" points="438.88,-69.04 433.61,-78.23 443.46,-74.33 438.88,-69.04"/>
</g>
<!-- Node6 -->
<g id="node6" class="node">
<title>Node6</title>
<g id="a_node6"><a xlink:href="../../d6/d4f/grp__solver___l_a_g__source_8c.html" target="_top" xlink:title="This is a Lagrangian GRP scheme to solve 1&#45;D Euler equations.">
<polygon fill="white" stroke="black" points="586.5,-6 586.5,-36 728.5,-36 728.5,-6 586.5,-6"/>
<text text-anchor="start" x="594.5" y="-24" font-family="Helvetica,sans-Serif" font-size="10.00">src~/finite_volume</text>
<text text-anchor="middle" x="657.5" y="-13" font-family="Helvetica,sans-Serif" font-size="10.00">/grp_solver_LAG_source.c</text>
</a>
</g>
</g>
<!-- Node1&#45;&gt;Node6 -->
<g id="edge5" class="edge">
<title>Node1&#45;&gt;Node6</title>
<path fill="none" stroke="midnightblue" d="M464.44,-75.63C504.11,-64.61 564.37,-47.87 607,-36.03"/>
<polygon fill="midnightblue" stroke="midnightblue" points="463.27,-72.32 454.57,-78.37 465.15,-79.06 463.27,-72.32"/>
</g>
<!-- Node7 -->
<g id="node7" class="node">
<title>Node7</title>
<g id="a_node7"><a xlink:href="../../d2/d49/slope__limiter_8c.html" target="_top" xlink:title="This is a function of the minmod slope limiter in one dimension.">
<polygon fill="white" stroke="black" points="747,-6 747,-36 854,-36 854,-6 747,-6"/>
<text text-anchor="start" x="755" y="-24" font-family="Helvetica,sans-Serif" font-size="10.00">src~/inter_process</text>
<text text-anchor="middle" x="800.5" y="-13" font-family="Helvetica,sans-Serif" font-size="10.00">/slope_limiter.c</text>
</a>
</g>
</g>
<!-- Node1&#45;&gt;Node7 -->
<g id="edge6" class="edge">
<title>Node1&#45;&gt;Node7</title>
<path fill="none" stroke="midnightblue" d="M490.13,-80.68C554.09,-73.85 653.16,-61.29 737.5,-42 744.77,-40.34 752.41,-38.23 759.76,-36.01"/>
<polygon fill="midnightblue" stroke="midnightblue" points="489.75,-77.2 480.17,-81.72 490.48,-84.16 489.75,-77.2"/>
</g>
</g>
</svg>
