<?xml version="1.0" encoding="UTF-8" standalone="no"?>
<!DOCTYPE svg PUBLIC "-//W3C//DTD SVG 1.1//EN"
 "http://www.w3.org/Graphics/SVG/1.1/DTD/svg11.dtd">
<!-- Generated by graphviz version 6.0.1 (0)
 -->
<!-- Title: src~/inter_process/bound_cond_slope_limiter_x.c Pages: 1 -->
<svg width="332pt" height="151pt"
 viewBox="0.00 0.00 332.00 151.00" xmlns="http://www.w3.org/2000/svg" xmlns:xlink="http://www.w3.org/1999/xlink">
<g id="graph0" class="graph" transform="scale(1 1) rotate(0) translate(4 147)">
<title>src~/inter_process/bound_cond_slope_limiter_x.c</title>
<polygon fill="white" stroke="none" points="-4,4 -4,-147 328,-147 328,4 -4,4"/>
<!-- Node1 -->
<g id="node1" class="node">
<title>Node1</title>
<g id="a_node1"><a xlink:title="This is a function to set boundary conditions and use the slope limiter in x&#45;direction of two dimensi...">
<polygon fill="#bfbfbf" stroke="black" points="44.5,-112.5 44.5,-142.5 211.5,-142.5 211.5,-112.5 44.5,-112.5"/>
<text text-anchor="start" x="52.5" y="-130.5" font-family="Helvetica,sans-Serif" font-size="10.00">src~/inter_process</text>
<text text-anchor="middle" x="128" y="-119.5" font-family="Helvetica,sans-Serif" font-size="10.00">/bound_cond_slope_limiter_x.c</text>
</a>
</g>
</g>
<!-- Node2 -->
<g id="node2" class="node">
<title>Node2</title>
<g id="a_node2"><a xlink:title=" ">
<polygon fill="white" stroke="#bfbfbf" points="0,-56.5 0,-75.5 50,-75.5 50,-56.5 0,-56.5"/>
<text text-anchor="middle" x="25" y="-63.5" font-family="Helvetica,sans-Serif" font-size="10.00">stdio.h</text>
</a>
</g>
</g>
<!-- Node1&#45;&gt;Node2 -->
<g id="edge1" class="edge">
<title>Node1&#45;&gt;Node2</title>
<path fill="none" stroke="midnightblue" d="M103.59,-112.4C87.08,-102.86 65.38,-90.32 48.96,-80.84"/>
<polygon fill="midnightblue" stroke="midnightblue" points="50.4,-77.63 39.99,-75.66 46.9,-83.69 50.4,-77.63"/>
</g>
<!-- Node3 -->
<g id="node3" class="node">
<title>Node3</title>
<g id="a_node3"><a xlink:title=" ">
<polygon fill="white" stroke="#bfbfbf" points="68,-56.5 68,-75.5 130,-75.5 130,-56.5 68,-56.5"/>
<text text-anchor="middle" x="99" y="-63.5" font-family="Helvetica,sans-Serif" font-size="10.00">stdbool.h</text>
</a>
</g>
</g>
<!-- Node1&#45;&gt;Node3 -->
<g id="edge2" class="edge">
<title>Node1&#45;&gt;Node3</title>
<path fill="none" stroke="midnightblue" d="M121.13,-112.4C117.09,-104.11 111.94,-93.55 107.63,-84.71"/>
<polygon fill="midnightblue" stroke="midnightblue" points="110.75,-83.11 103.22,-75.66 104.45,-86.18 110.75,-83.11"/>
</g>
<!-- Node4 -->
<g id="node4" class="node">
<title>Node4</title>
<g id="a_node4"><a xlink:href="../../da/d1e/var__struc_8h.html" target="_top" xlink:title="This file is the header file of some globally common variables and structural bodies.">
<polygon fill="white" stroke="black" points="147,-0.5 147,-19.5 265,-19.5 265,-0.5 147,-0.5"/>
<text text-anchor="middle" x="206" y="-7.5" font-family="Helvetica,sans-Serif" font-size="10.00">../include/var_struc.h</text>
</a>
</g>
</g>
<!-- Node1&#45;&gt;Node4 -->
<g id="edge3" class="edge">
<title>Node1&#45;&gt;Node4</title>
<path fill="none" stroke="midnightblue" d="M137.56,-112.34C151.94,-91.05 179.06,-50.89 194.5,-28.03"/>
<polygon fill="midnightblue" stroke="midnightblue" points="197.45,-29.92 200.15,-19.67 191.65,-26 197.45,-29.92"/>
</g>
<!-- Node5 -->
<g id="node5" class="node">
<title>Node5</title>
<g id="a_node5"><a xlink:href="../../d6/d6f/inter__process_8h.html" target="_top" xlink:title="This file is the header file of intermediate processes of finite volume scheme.">
<polygon fill="white" stroke="black" points="186,-56.5 186,-75.5 324,-75.5 324,-56.5 186,-56.5"/>
<text text-anchor="middle" x="255" y="-63.5" font-family="Helvetica,sans-Serif" font-size="10.00">../include/inter_process.h</text>
</a>
</g>
</g>
<!-- Node1&#45;&gt;Node5 -->
<g id="edge4" class="edge">
<title>Node1&#45;&gt;Node5</title>
<path fill="none" stroke="midnightblue" d="M158.1,-112.4C179.12,-102.55 206.97,-89.5 227.42,-79.92"/>
<polygon fill="midnightblue" stroke="midnightblue" points="228.95,-83.07 236.52,-75.66 225.98,-76.73 228.95,-83.07"/>
</g>
<!-- Node5&#45;&gt;Node4 -->
<g id="edge5" class="edge">
<title>Node5&#45;&gt;Node4</title>
<path fill="none" stroke="midnightblue" d="M246.91,-56.08C239.84,-48.3 229.41,-36.8 220.85,-27.37"/>
<polygon fill="midnightblue" stroke="midnightblue" points="223.25,-24.8 213.94,-19.75 218.07,-29.51 223.25,-24.8"/>
</g>
</g>
</svg>
