<?xml version="1.0" encoding="UTF-8" standalone="no"?>
<!DOCTYPE svg PUBLIC "-//W3C//DTD SVG 1.1//EN"
 "http://www.w3.org/Graphics/SVG/1.1/DTD/svg11.dtd">
<!-- Generated by graphviz version 5.0.0 (0)
 -->
<!-- Title: /home/leixin/Programs/HydroCODE/src/flux_calc/flux_generator_x.c Pages: 1 -->
<svg width="300pt" height="162pt"
 viewBox="0.00 0.00 300.00 162.00" xmlns="http://www.w3.org/2000/svg" xmlns:xlink="http://www.w3.org/1999/xlink">
<g id="graph0" class="graph" transform="scale(1 1) rotate(0) translate(4 158)">
<title>/home/leixin/Programs/HydroCODE/src/flux_calc/flux_generator_x.c</title>
<polygon fill="white" stroke="transparent" points="-4,4 -4,-158 296,-158 296,4 -4,4"/>
<!-- Node1 -->
<g id="node1" class="node">
<title>Node1</title>
<g id="a_node1"><a xlink:title="This file is a function which generates Eulerian fluxes in x&#45;direction of 2&#45;D Euler equations solved ...">
<polygon fill="#bfbfbf" stroke="black" points="51,-112.5 51,-153.5 191,-153.5 191,-112.5 51,-112.5"/>
<text text-anchor="start" x="59" y="-141.5" font-family="Helvetica,sans-Serif" font-size="10.00">/home/leixin/Programs</text>
<text text-anchor="start" x="59" y="-130.5" font-family="Helvetica,sans-Serif" font-size="10.00">/HydroCODE/src/flux_calc</text>
<text text-anchor="middle" x="121" y="-119.5" font-family="Helvetica,sans-Serif" font-size="10.00">/flux_generator_x.c</text>
</a>
</g>
</g>
<!-- Node2 -->
<g id="node2" class="node">
<title>Node2</title>
<g id="a_node2"><a xlink:title=" ">
<polygon fill="white" stroke="#bfbfbf" points="0,-56.5 0,-75.5 50,-75.5 50,-56.5 0,-56.5"/>
<text text-anchor="middle" x="25" y="-63.5" font-family="Helvetica,sans-Serif" font-size="10.00">stdio.h</text>
</a>
</g>
</g>
<!-- Node1&#45;&gt;Node2 -->
<g id="edge1" class="edge">
<title>Node1&#45;&gt;Node2</title>
<path fill="none" stroke="midnightblue" d="M92.2,-112.5C77.48,-102.53 59.88,-90.61 46.38,-81.48"/>
<polygon fill="midnightblue" stroke="midnightblue" points="48.02,-78.36 37.78,-75.65 44.1,-84.16 48.02,-78.36"/>
</g>
<!-- Node3 -->
<g id="node3" class="node">
<title>Node3</title>
<g id="a_node3"><a xlink:title=" ">
<polygon fill="white" stroke="#bfbfbf" points="68.5,-56.5 68.5,-75.5 119.5,-75.5 119.5,-56.5 68.5,-56.5"/>
<text text-anchor="middle" x="94" y="-63.5" font-family="Helvetica,sans-Serif" font-size="10.00">math.h</text>
</a>
</g>
</g>
<!-- Node1&#45;&gt;Node3 -->
<g id="edge2" class="edge">
<title>Node1&#45;&gt;Node3</title>
<path fill="none" stroke="midnightblue" d="M112.9,-112.5C109.28,-103.78 105.03,-93.56 101.49,-85.02"/>
<polygon fill="midnightblue" stroke="midnightblue" points="104.66,-83.54 97.59,-75.65 98.2,-86.23 104.66,-83.54"/>
</g>
<!-- Node4 -->
<g id="node4" class="node">
<title>Node4</title>
<g id="a_node4"><a xlink:href="../../da/d1e/var__struc_8h.html" target="_top" xlink:title="This file is the header file of some globally common variables and structural bodies.">
<polygon fill="white" stroke="black" points="132,-0.5 132,-19.5 250,-19.5 250,-0.5 132,-0.5"/>
<text text-anchor="middle" x="191" y="-7.5" font-family="Helvetica,sans-Serif" font-size="10.00">../include/var_struc.h</text>
</a>
</g>
</g>
<!-- Node1&#45;&gt;Node4 -->
<g id="edge3" class="edge">
<title>Node1&#45;&gt;Node4</title>
<path fill="none" stroke="midnightblue" d="M132.4,-112.29C145.9,-88.96 168.17,-50.47 181.01,-28.26"/>
<polygon fill="midnightblue" stroke="midnightblue" points="184.06,-29.98 186.04,-19.57 178,-26.48 184.06,-29.98"/>
</g>
<!-- Node5 -->
<g id="node5" class="node">
<title>Node5</title>
<g id="a_node5"><a xlink:href="../../dd/df5/flux__calc_8h.html" target="_top" xlink:title="This file is the header file of intermediate processes of finite volume scheme.">
<polygon fill="white" stroke="black" points="176,-56.5 176,-75.5 292,-75.5 292,-56.5 176,-56.5"/>
<text text-anchor="middle" x="234" y="-63.5" font-family="Helvetica,sans-Serif" font-size="10.00">../include/flux_calc.h</text>
</a>
</g>
</g>
<!-- Node1&#45;&gt;Node5 -->
<g id="edge4" class="edge">
<title>Node1&#45;&gt;Node5</title>
<path fill="none" stroke="midnightblue" d="M154.9,-112.5C172.73,-102.24 194.15,-89.93 210.2,-80.69"/>
<polygon fill="midnightblue" stroke="midnightblue" points="212.03,-83.67 218.96,-75.65 208.54,-77.6 212.03,-83.67"/>
</g>
<!-- Node5&#45;&gt;Node4 -->
<g id="edge5" class="edge">
<title>Node5&#45;&gt;Node4</title>
<path fill="none" stroke="midnightblue" d="M226.9,-56.08C220.76,-48.38 211.73,-37.03 204.26,-27.65"/>
<polygon fill="midnightblue" stroke="midnightblue" points="206.94,-25.39 197.97,-19.75 201.46,-29.75 206.94,-25.39"/>
</g>
</g>
</svg>
