<?xml version="1.0" encoding="UTF-8" standalone="no"?>
<!DOCTYPE svg PUBLIC "-//W3C//DTD SVG 1.1//EN"
 "http://www.w3.org/Graphics/SVG/1.1/DTD/svg11.dtd">
<!-- Generated by graphviz version 5.0.0 (0)
 -->
<!-- Title: /home/leixin/Programs/HydroCODE/src/include/tools.h Pages: 1 -->
<svg width="1694pt" height="139pt"
 viewBox="0.00 0.00 1694.00 139.00" xmlns="http://www.w3.org/2000/svg" xmlns:xlink="http://www.w3.org/1999/xlink">
<g id="graph0" class="graph" transform="scale(1 1) rotate(0) translate(4 135)">
<title>/home/leixin/Programs/HydroCODE/src/include/tools.h</title>
<polygon fill="white" stroke="transparent" points="-4,4 -4,-135 1690,-135 1690,4 -4,4"/>
<!-- Node1 -->
<g id="node1" class="node">
<title>Node1</title>
<g id="a_node1"><a xlink:title="This file is the header file of several independent tool functions.">
<polygon fill="#bfbfbf" stroke="black" points="776.5,-89.5 776.5,-130.5 908.5,-130.5 908.5,-89.5 776.5,-89.5"/>
<text text-anchor="start" x="784.5" y="-118.5" font-family="Helvetica,sans-Serif" font-size="10.00">/home/leixin/Programs</text>
<text text-anchor="start" x="784.5" y="-107.5" font-family="Helvetica,sans-Serif" font-size="10.00">/HydroCODE/src/include</text>
<text text-anchor="middle" x="842.5" y="-96.5" font-family="Helvetica,sans-Serif" font-size="10.00">/tools.h</text>
</a>
</g>
</g>
<!-- Node2 -->
<g id="node2" class="node">
<title>Node2</title>
<g id="a_node2"><a xlink:href="../../d4/de5/io__control_8c.html" target="_top" xlink:title="This is a set of common functions which control the input/output data.">
<polygon fill="white" stroke="black" points="0,-6 0,-47 127,-47 127,-6 0,-6"/>
<text text-anchor="start" x="8" y="-35" font-family="Helvetica,sans-Serif" font-size="10.00">/home/leixin/Programs</text>
<text text-anchor="start" x="8" y="-24" font-family="Helvetica,sans-Serif" font-size="10.00">/HydroCODE/src/file_io</text>
<text text-anchor="middle" x="63.5" y="-13" font-family="Helvetica,sans-Serif" font-size="10.00">/io_control.c</text>
</a>
</g>
</g>
<!-- Node1&#45;&gt;Node2 -->
<g id="edge1" class="edge">
<title>Node1&#45;&gt;Node2</title>
<path fill="none" stroke="midnightblue" d="M766.2,-109.32C635.73,-108.46 362,-100.5 136.5,-53 129.14,-51.45 121.51,-49.36 114.08,-47.04"/>
<polygon fill="midnightblue" stroke="midnightblue" points="766.47,-112.82 776.48,-109.38 766.5,-105.82 766.47,-112.82"/>
</g>
<!-- Node3 -->
<g id="node3" class="node">
<title>Node3</title>
<g id="a_node3"><a xlink:href="../../d6/d0f/_g_r_p__solver__2_d___e_u_l__source_8c.html" target="_top" xlink:title="This is an Eulerian GRP scheme to solve 2&#45;D Euler equations without dimension splitting.">
<polygon fill="white" stroke="black" points="145.5,-0.5 145.5,-52.5 281.5,-52.5 281.5,-0.5 145.5,-0.5"/>
<text text-anchor="start" x="153.5" y="-40.5" font-family="Helvetica,sans-Serif" font-size="10.00">/home/leixin/Programs</text>
<text text-anchor="start" x="153.5" y="-29.5" font-family="Helvetica,sans-Serif" font-size="10.00">/HydroCODE/src/finite</text>
<text text-anchor="start" x="153.5" y="-18.5" font-family="Helvetica,sans-Serif" font-size="10.00">_volume/GRP_solver_2D</text>
<text text-anchor="middle" x="213.5" y="-7.5" font-family="Helvetica,sans-Serif" font-size="10.00">_EUL_source.c</text>
</a>
</g>
</g>
<!-- Node1&#45;&gt;Node3 -->
<g id="edge2" class="edge">
<title>Node1&#45;&gt;Node3</title>
<path fill="none" stroke="midnightblue" d="M766.27,-106.53C659.02,-101.87 457.96,-88.77 290.5,-53 287.61,-52.38 284.67,-51.69 281.72,-50.95"/>
<polygon fill="midnightblue" stroke="midnightblue" points="766.21,-110.03 776.35,-106.95 766.51,-103.04 766.21,-110.03"/>
</g>
<!-- Node4 -->
<g id="node4" class="node">
<title>Node4</title>
<g id="a_node4"><a xlink:href="../../dc/d9e/_g_r_p__solver__2_d__split___e_u_l__source_8c.html" target="_top" xlink:title="This is an Eulerian GRP scheme to solve 2&#45;D Euler equations with dimension splitting.">
<polygon fill="white" stroke="black" points="299.5,-0.5 299.5,-52.5 435.5,-52.5 435.5,-0.5 299.5,-0.5"/>
<text text-anchor="start" x="307.5" y="-40.5" font-family="Helvetica,sans-Serif" font-size="10.00">/home/leixin/Programs</text>
<text text-anchor="start" x="307.5" y="-29.5" font-family="Helvetica,sans-Serif" font-size="10.00">/HydroCODE/src/finite</text>
<text text-anchor="start" x="307.5" y="-18.5" font-family="Helvetica,sans-Serif" font-size="10.00">_volume/GRP_solver_2D</text>
<text text-anchor="middle" x="367.5" y="-7.5" font-family="Helvetica,sans-Serif" font-size="10.00">_split_EUL_source.c</text>
</a>
</g>
</g>
<!-- Node1&#45;&gt;Node4 -->
<g id="edge3" class="edge">
<title>Node1&#45;&gt;Node4</title>
<path fill="none" stroke="midnightblue" d="M766.26,-102.39C685.59,-94.44 554.94,-78.83 444.5,-53 441.62,-52.33 438.7,-51.59 435.75,-50.81"/>
<polygon fill="midnightblue" stroke="midnightblue" points="766.04,-105.88 776.33,-103.37 766.72,-98.92 766.04,-105.88"/>
</g>
<!-- Node5 -->
<g id="node5" class="node">
<title>Node5</title>
<g id="a_node5"><a xlink:href="../../de/de8/_g_r_p__solver___a_l_e__source_8c.html" target="_top" xlink:title="This is an ALE GRP scheme to solve 1&#45;D Euler equations.">
<polygon fill="white" stroke="black" points="453.5,-0.5 453.5,-52.5 593.5,-52.5 593.5,-0.5 453.5,-0.5"/>
<text text-anchor="start" x="461.5" y="-40.5" font-family="Helvetica,sans-Serif" font-size="10.00">/home/leixin/Programs</text>
<text text-anchor="start" x="461.5" y="-29.5" font-family="Helvetica,sans-Serif" font-size="10.00">/HydroCODE/src/finite</text>
<text text-anchor="start" x="461.5" y="-18.5" font-family="Helvetica,sans-Serif" font-size="10.00">_volume/GRP_solver_ALE</text>
<text text-anchor="middle" x="523.5" y="-7.5" font-family="Helvetica,sans-Serif" font-size="10.00">_source.c</text>
</a>
</g>
</g>
<!-- Node1&#45;&gt;Node5 -->
<g id="edge4" class="edge">
<title>Node1&#45;&gt;Node5</title>
<path fill="none" stroke="midnightblue" d="M766.54,-92.97C719.13,-82.54 656.96,-68.12 602.5,-53 599.58,-52.19 596.61,-51.34 593.62,-50.47"/>
<polygon fill="midnightblue" stroke="midnightblue" points="765.91,-96.41 776.42,-95.13 767.4,-89.57 765.91,-96.41"/>
</g>
<!-- Node6 -->
<g id="node6" class="node">
<title>Node6</title>
<g id="a_node6"><a xlink:href="../../d5/d10/_g_r_p__solver___e_u_l__source_8c.html" target="_top" xlink:title="This is an Eulerian GRP scheme to solve 1&#45;D Euler equations.">
<polygon fill="white" stroke="black" points="612,-0.5 612,-52.5 753,-52.5 753,-0.5 612,-0.5"/>
<text text-anchor="start" x="620" y="-40.5" font-family="Helvetica,sans-Serif" font-size="10.00">/home/leixin/Programs</text>
<text text-anchor="start" x="620" y="-29.5" font-family="Helvetica,sans-Serif" font-size="10.00">/HydroCODE/src/finite</text>
<text text-anchor="start" x="620" y="-18.5" font-family="Helvetica,sans-Serif" font-size="10.00">_volume/GRP_solver_EUL</text>
<text text-anchor="middle" x="682.5" y="-7.5" font-family="Helvetica,sans-Serif" font-size="10.00">_source.c</text>
</a>
</g>
</g>
<!-- Node1&#45;&gt;Node6 -->
<g id="edge5" class="edge">
<title>Node1&#45;&gt;Node6</title>
<path fill="none" stroke="midnightblue" d="M795.24,-84.93C775.24,-74.74 751.94,-62.87 731.73,-52.58"/>
<polygon fill="midnightblue" stroke="midnightblue" points="793.68,-88.06 804.18,-89.48 796.85,-81.82 793.68,-88.06"/>
</g>
<!-- Node7 -->
<g id="node7" class="node">
<title>Node7</title>
<g id="a_node7"><a xlink:href="../../dd/dd7/_g_r_p__solver___l_a_g__source_8c.html" target="_top" xlink:title="This is a Lagrangian GRP scheme to solve 1&#45;D Euler equations.">
<polygon fill="white" stroke="black" points="771,-0.5 771,-52.5 914,-52.5 914,-0.5 771,-0.5"/>
<text text-anchor="start" x="779" y="-40.5" font-family="Helvetica,sans-Serif" font-size="10.00">/home/leixin/Programs</text>
<text text-anchor="start" x="779" y="-29.5" font-family="Helvetica,sans-Serif" font-size="10.00">/HydroCODE/src/finite</text>
<text text-anchor="start" x="779" y="-18.5" font-family="Helvetica,sans-Serif" font-size="10.00">_volume/GRP_solver_LAG</text>
<text text-anchor="middle" x="842.5" y="-7.5" font-family="Helvetica,sans-Serif" font-size="10.00">_source.c</text>
</a>
</g>
</g>
<!-- Node1&#45;&gt;Node7 -->
<g id="edge6" class="edge">
<title>Node1&#45;&gt;Node7</title>
<path fill="none" stroke="midnightblue" d="M842.5,-79.12C842.5,-70.41 842.5,-60.99 842.5,-52.61"/>
<polygon fill="midnightblue" stroke="midnightblue" points="839,-79.27 842.5,-89.27 846,-79.27 839,-79.27"/>
</g>
<!-- Node8 -->
<g id="node8" class="node">
<title>Node8</title>
<g id="a_node8"><a xlink:href="../../d4/da5/_godunov__solver___a_l_e__source_8c.html" target="_top" xlink:title="This is an ALE Godunov scheme to solve 1&#45;D Euler equations.">
<polygon fill="white" stroke="black" points="932.5,-0.5 932.5,-52.5 1072.5,-52.5 1072.5,-0.5 932.5,-0.5"/>
<text text-anchor="start" x="940.5" y="-40.5" font-family="Helvetica,sans-Serif" font-size="10.00">/home/leixin/Programs</text>
<text text-anchor="start" x="940.5" y="-29.5" font-family="Helvetica,sans-Serif" font-size="10.00">/HydroCODE/src/finite</text>
<text text-anchor="start" x="940.5" y="-18.5" font-family="Helvetica,sans-Serif" font-size="10.00">_volume/Godunov_solver</text>
<text text-anchor="middle" x="1002.5" y="-7.5" font-family="Helvetica,sans-Serif" font-size="10.00">_ALE_source.c</text>
</a>
</g>
</g>
<!-- Node1&#45;&gt;Node8 -->
<g id="edge7" class="edge">
<title>Node1&#45;&gt;Node8</title>
<path fill="none" stroke="midnightblue" d="M889.76,-84.93C909.76,-74.74 933.06,-62.87 953.27,-52.58"/>
<polygon fill="midnightblue" stroke="midnightblue" points="888.15,-81.82 880.82,-89.48 891.32,-88.06 888.15,-81.82"/>
</g>
<!-- Node9 -->
<g id="node9" class="node">
<title>Node9</title>
<g id="a_node9"><a xlink:href="../../de/dd9/_godunov__solver___e_u_l__source_8c.html" target="_top" xlink:title="This is an Eulerian Godunov scheme to solve 1&#45;D Euler equations.">
<polygon fill="white" stroke="black" points="1090.5,-0.5 1090.5,-52.5 1230.5,-52.5 1230.5,-0.5 1090.5,-0.5"/>
<text text-anchor="start" x="1098.5" y="-40.5" font-family="Helvetica,sans-Serif" font-size="10.00">/home/leixin/Programs</text>
<text text-anchor="start" x="1098.5" y="-29.5" font-family="Helvetica,sans-Serif" font-size="10.00">/HydroCODE/src/finite</text>
<text text-anchor="start" x="1098.5" y="-18.5" font-family="Helvetica,sans-Serif" font-size="10.00">_volume/Godunov_solver</text>
<text text-anchor="middle" x="1160.5" y="-7.5" font-family="Helvetica,sans-Serif" font-size="10.00">_EUL_source.c</text>
</a>
</g>
</g>
<!-- Node1&#45;&gt;Node9 -->
<g id="edge8" class="edge">
<title>Node1&#45;&gt;Node9</title>
<path fill="none" stroke="midnightblue" d="M918.39,-92.89C965.57,-82.46 1027.36,-68.05 1081.5,-53 1084.42,-52.19 1087.39,-51.34 1090.38,-50.46"/>
<polygon fill="midnightblue" stroke="midnightblue" points="917.57,-89.49 908.55,-95.05 919.07,-96.32 917.57,-89.49"/>
</g>
<!-- Node10 -->
<g id="node10" class="node">
<title>Node10</title>
<g id="a_node10"><a xlink:href="../../dd/d30/_godunov__solver___l_a_g__source_8c.html" target="_top" xlink:title="This is a Lagrangian Godunov scheme to solve 1&#45;D Euler equations.">
<polygon fill="white" stroke="black" points="1248.5,-0.5 1248.5,-52.5 1388.5,-52.5 1388.5,-0.5 1248.5,-0.5"/>
<text text-anchor="start" x="1256.5" y="-40.5" font-family="Helvetica,sans-Serif" font-size="10.00">/home/leixin/Programs</text>
<text text-anchor="start" x="1256.5" y="-29.5" font-family="Helvetica,sans-Serif" font-size="10.00">/HydroCODE/src/finite</text>
<text text-anchor="start" x="1256.5" y="-18.5" font-family="Helvetica,sans-Serif" font-size="10.00">_volume/Godunov_solver</text>
<text text-anchor="middle" x="1318.5" y="-7.5" font-family="Helvetica,sans-Serif" font-size="10.00">_LAG_source.c</text>
</a>
</g>
</g>
<!-- Node1&#45;&gt;Node10 -->
<g id="edge9" class="edge">
<title>Node1&#45;&gt;Node10</title>
<path fill="none" stroke="midnightblue" d="M918.86,-102.17C999.33,-94.06 1129.4,-78.34 1239.5,-53 1242.45,-52.32 1245.45,-51.58 1248.46,-50.8"/>
<polygon fill="midnightblue" stroke="midnightblue" points="918.42,-98.7 908.82,-103.17 919.11,-105.66 918.42,-98.7"/>
</g>
<!-- Node11 -->
<g id="node11" class="node">
<title>Node11</title>
<g id="a_node11"><a xlink:href="../../d2/d49/slope__limiter_8c.html" target="_top" xlink:title="This is a function of the minmod slope limiter in one dimension.">
<polygon fill="white" stroke="black" points="1406.5,-6 1406.5,-47 1540.5,-47 1540.5,-6 1406.5,-6"/>
<text text-anchor="start" x="1414.5" y="-35" font-family="Helvetica,sans-Serif" font-size="10.00">/home/leixin/Programs</text>
<text text-anchor="start" x="1414.5" y="-24" font-family="Helvetica,sans-Serif" font-size="10.00">/HydroCODE/src/inter</text>
<text text-anchor="middle" x="1473.5" y="-13" font-family="Helvetica,sans-Serif" font-size="10.00">_process/slope_limiter.c</text>
</a>
</g>
</g>
<!-- Node1&#45;&gt;Node11 -->
<g id="edge10" class="edge">
<title>Node1&#45;&gt;Node11</title>
<path fill="none" stroke="midnightblue" d="M918.73,-106.68C1026.47,-102.19 1228.98,-89.3 1397.5,-53 1404.85,-51.42 1412.48,-49.37 1419.94,-47.12"/>
<polygon fill="midnightblue" stroke="midnightblue" points="918.45,-103.19 908.6,-107.09 918.73,-110.18 918.45,-103.19"/>
</g>
<!-- Node12 -->
<g id="node12" class="node">
<title>Node12</title>
<g id="a_node12"><a xlink:href="../../d7/d36/slope__limiter__2_d__x_8c.html" target="_top" xlink:title="This is a function of the minmod slope limiter in the x&#45;direction of two dimension.">
<polygon fill="white" stroke="black" points="1559,-0.5 1559,-52.5 1686,-52.5 1686,-0.5 1559,-0.5"/>
<text text-anchor="start" x="1567" y="-40.5" font-family="Helvetica,sans-Serif" font-size="10.00">/home/leixin/Programs</text>
<text text-anchor="start" x="1567" y="-29.5" font-family="Helvetica,sans-Serif" font-size="10.00">/HydroCODE/src/inter</text>
<text text-anchor="start" x="1567" y="-18.5" font-family="Helvetica,sans-Serif" font-size="10.00">_process/slope_limiter</text>
<text text-anchor="middle" x="1622.5" y="-7.5" font-family="Helvetica,sans-Serif" font-size="10.00">_2D_x.c</text>
</a>
</g>
</g>
<!-- Node1&#45;&gt;Node12 -->
<g id="edge11" class="edge">
<title>Node1&#45;&gt;Node12</title>
<path fill="none" stroke="midnightblue" d="M918.9,-109.33C1049.56,-108.49 1323.68,-100.55 1549.5,-53 1552.52,-52.36 1555.59,-51.64 1558.67,-50.84"/>
<polygon fill="midnightblue" stroke="midnightblue" points="918.59,-105.84 908.61,-109.39 918.63,-112.84 918.59,-105.84"/>
</g>
</g>
</svg>
