<?xml version="1.0" encoding="UTF-8" standalone="no"?>
<!DOCTYPE svg PUBLIC "-//W3C//DTD SVG 1.1//EN"
 "http://www.w3.org/Graphics/SVG/1.1/DTD/svg11.dtd">
<!-- Generated by graphviz version 5.0.0 (0)
 -->
<!-- Title: minmod3 Pages: 1 -->
<svg width="611pt" height="350pt"
 viewBox="0.00 0.00 611.00 350.00" xmlns="http://www.w3.org/2000/svg" xmlns:xlink="http://www.w3.org/1999/xlink">
<g id="graph0" class="graph" transform="scale(1 1) rotate(0) translate(4 346)">
<title>minmod3</title>
<polygon fill="white" stroke="transparent" points="-4,4 -4,-346 607,-346 607,4 -4,4"/>
<!-- Node1 -->
<g id="node1" class="node">
<title>Node1</title>
<g id="a_node1"><a xlink:title="Minmod limiter function of three variables.">
<polygon fill="#bfbfbf" stroke="black" points="540,-31 540,-50 603,-50 603,-31 540,-31"/>
<text text-anchor="middle" x="571.5" y="-38" font-family="Helvetica,sans-Serif" font-size="10.00">minmod3</text>
</a>
</g>
</g>
<!-- Node2 -->
<g id="node2" class="node">
<title>Node2</title>
<g id="a_node2"><a xlink:href="../../d2/d49/slope__limiter_8c.html#ae6551ab705937492c059ece48a3b2793" target="_top" xlink:title="This function apply the minmod limiter to the slope in one dimension.">
<polygon fill="white" stroke="black" points="394,-50 394,-69 489,-69 489,-50 394,-50"/>
<text text-anchor="middle" x="441.5" y="-57" font-family="Helvetica,sans-Serif" font-size="10.00">minmod_limiter</text>
</a>
</g>
</g>
<!-- Node1&#45;&gt;Node2 -->
<g id="edge1" class="edge">
<title>Node1&#45;&gt;Node2</title>
<path fill="none" stroke="midnightblue" d="M529.88,-46.53C517.02,-48.44 502.69,-50.57 489.42,-52.54"/>
<polygon fill="midnightblue" stroke="midnightblue" points="530.46,-49.98 539.84,-45.05 529.44,-43.06 530.46,-49.98"/>
</g>
<!-- Node13 -->
<g id="node13" class="node">
<title>Node13</title>
<g id="a_node13"><a xlink:href="../../d7/d36/slope__limiter__2_d__x_8c.html#a1305d8e7a55a4345482501a8a57ef353" target="_top" xlink:title="This function apply the minmod limiter to the slope in the x&#45;direction of two dimension.">
<polygon fill="white" stroke="black" points="379,-12 379,-31 504,-31 504,-12 379,-12"/>
<text text-anchor="middle" x="441.5" y="-19" font-family="Helvetica,sans-Serif" font-size="10.00">minmod_limiter_2D_x</text>
</a>
</g>
</g>
<!-- Node1&#45;&gt;Node13 -->
<g id="edge12" class="edge">
<title>Node1&#45;&gt;Node13</title>
<path fill="none" stroke="midnightblue" d="M529.81,-34.46C521.6,-33.24 512.8,-31.93 504.06,-30.64"/>
<polygon fill="midnightblue" stroke="midnightblue" points="529.44,-37.94 539.84,-35.95 530.46,-31.02 529.44,-37.94"/>
</g>
<!-- Node3 -->
<g id="node3" class="node">
<title>Node3</title>
<g id="a_node3"><a xlink:href="../../df/d13/bound__cond__slope__limiter_8c.html#adf898c0b0966ac36a90920be44951a5c" target="_top" xlink:title="This function apply the minmod limiter to the slope in one dimension.">
<polygon fill="white" stroke="black" points="193.5,-170 193.5,-189 337.5,-189 337.5,-170 193.5,-170"/>
<text text-anchor="middle" x="265.5" y="-177" font-family="Helvetica,sans-Serif" font-size="10.00">bound_cond_slope_limiter</text>
</a>
</g>
</g>
<!-- Node2&#45;&gt;Node3 -->
<g id="edge2" class="edge">
<title>Node2&#45;&gt;Node3</title>
<path fill="none" stroke="midnightblue" d="M418.08,-74.96C381.64,-100.09 310.61,-149.08 280.51,-169.84"/>
<polygon fill="midnightblue" stroke="midnightblue" points="420.31,-77.68 426.55,-69.12 416.34,-71.91 420.31,-77.68"/>
</g>
<!-- Node10 -->
<g id="node10" class="node">
<title>Node10</title>
<g id="a_node10"><a xlink:href="../../d8/dbb/bound__cond__slope__limiter__y_8c.html#aaf0175f075a4b153d671c163bc8275b6" target="_top" xlink:title="This function apply the minmod limiter to the slope in the y&#45;direction of two dimension.">
<polygon fill="white" stroke="black" points="188,-50 188,-69 343,-69 343,-50 188,-50"/>
<text text-anchor="middle" x="265.5" y="-57" font-family="Helvetica,sans-Serif" font-size="10.00">bound_cond_slope_limiter_y</text>
</a>
</g>
</g>
<!-- Node2&#45;&gt;Node10 -->
<g id="edge9" class="edge">
<title>Node2&#45;&gt;Node10</title>
<path fill="none" stroke="midnightblue" d="M383.73,-59.5C370.77,-59.5 356.79,-59.5 343.16,-59.5"/>
<polygon fill="midnightblue" stroke="midnightblue" points="383.87,-63 393.87,-59.5 383.87,-56 383.87,-63"/>
</g>
<!-- Node4 -->
<g id="node4" class="node">
<title>Node4</title>
<g id="a_node4"><a xlink:href="../../d4/da5/_godunov__solver___a_l_e__source_8c.html#a0c698d207c191af453f551744c64ca83" target="_top" xlink:title="This function use Godunov scheme to solve 1&#45;D Euler equations of motion on ALE coordinate.">
<polygon fill="white" stroke="black" points="16.5,-311.5 16.5,-341.5 135.5,-341.5 135.5,-311.5 16.5,-311.5"/>
<text text-anchor="start" x="24.5" y="-329.5" font-family="Helvetica,sans-Serif" font-size="10.00">Godunov_solver_ALE</text>
<text text-anchor="middle" x="76" y="-318.5" font-family="Helvetica,sans-Serif" font-size="10.00">_source_Undone</text>
</a>
</g>
</g>
<!-- Node3&#45;&gt;Node4 -->
<g id="edge3" class="edge">
<title>Node3&#45;&gt;Node4</title>
<path fill="none" stroke="midnightblue" d="M252.73,-197.45C234.33,-224.13 196.25,-274.15 152,-302.5 146.7,-305.89 140.89,-308.84 134.92,-311.4"/>
<polygon fill="midnightblue" stroke="midnightblue" points="255.7,-199.3 258.39,-189.06 249.89,-195.39 255.7,-199.3"/>
</g>
<!-- Node5 -->
<g id="node5" class="node">
<title>Node5</title>
<g id="a_node5"><a xlink:href="../../de/dd9/_godunov__solver___e_u_l__source_8c.html#a8704e7d4489848cbe30f53b305782711" target="_top" xlink:title="This function use Godunov scheme to solve 1&#45;D Euler equations of motion on Eulerian coordinate.">
<polygon fill="white" stroke="black" points="16.5,-262.5 16.5,-292.5 135.5,-292.5 135.5,-262.5 16.5,-262.5"/>
<text text-anchor="start" x="24.5" y="-280.5" font-family="Helvetica,sans-Serif" font-size="10.00">Godunov_solver_EUL</text>
<text text-anchor="middle" x="76" y="-269.5" font-family="Helvetica,sans-Serif" font-size="10.00">_source</text>
</a>
</g>
</g>
<!-- Node3&#45;&gt;Node5 -->
<g id="edge4" class="edge">
<title>Node3&#45;&gt;Node5</title>
<path fill="none" stroke="midnightblue" d="M244.2,-195.32C222.41,-211.69 186.3,-237.11 152,-253.5 145.09,-256.8 137.62,-259.81 130.16,-262.49"/>
<polygon fill="midnightblue" stroke="midnightblue" points="246.51,-197.96 252.34,-189.12 242.27,-192.39 246.51,-197.96"/>
</g>
<!-- Node6 -->
<g id="node6" class="node">
<title>Node6</title>
<g id="a_node6"><a xlink:href="../../dd/d30/_godunov__solver___l_a_g__source_8c.html#af53e1e238ac8b31268d438a76de7f7c2" target="_top" xlink:title="This function use Godunov scheme to solve 1&#45;D Euler equations of motion on Lagrangian coordinate.">
<polygon fill="white" stroke="black" points="15.5,-213.5 15.5,-243.5 136.5,-243.5 136.5,-213.5 15.5,-213.5"/>
<text text-anchor="start" x="23.5" y="-231.5" font-family="Helvetica,sans-Serif" font-size="10.00">Godunov_solver_LAG</text>
<text text-anchor="middle" x="76" y="-220.5" font-family="Helvetica,sans-Serif" font-size="10.00">_source</text>
</a>
</g>
</g>
<!-- Node3&#45;&gt;Node6 -->
<g id="edge5" class="edge">
<title>Node3&#45;&gt;Node6</title>
<path fill="none" stroke="midnightblue" d="M218.19,-191.6C192.91,-198.21 161.39,-206.45 134.54,-213.46"/>
<polygon fill="midnightblue" stroke="midnightblue" points="219.11,-194.98 227.9,-189.06 217.34,-188.21 219.11,-194.98"/>
</g>
<!-- Node7 -->
<g id="node7" class="node">
<title>Node7</title>
<g id="a_node7"><a xlink:href="../../de/de8/_g_r_p__solver___a_l_e__source_8c.html#afef6f99ec63f964c27bbee6c9d6ff2bc" target="_top" xlink:title="This function use GRP scheme to solve 1&#45;D Euler equations of motion on ALE coordinate.">
<polygon fill="white" stroke="black" points="9.5,-164.5 9.5,-194.5 142.5,-194.5 142.5,-164.5 9.5,-164.5"/>
<text text-anchor="start" x="17.5" y="-182.5" font-family="Helvetica,sans-Serif" font-size="10.00">GRP_solver_ALE_source</text>
<text text-anchor="middle" x="76" y="-171.5" font-family="Helvetica,sans-Serif" font-size="10.00">_Undone</text>
</a>
</g>
</g>
<!-- Node3&#45;&gt;Node7 -->
<g id="edge6" class="edge">
<title>Node3&#45;&gt;Node7</title>
<path fill="none" stroke="midnightblue" d="M183.08,-179.5C169.53,-179.5 155.64,-179.5 142.55,-179.5"/>
<polygon fill="midnightblue" stroke="midnightblue" points="183.35,-183 193.35,-179.5 183.35,-176 183.35,-183"/>
</g>
<!-- Node8 -->
<g id="node8" class="node">
<title>Node8</title>
<g id="a_node8"><a xlink:href="../../d5/d10/_g_r_p__solver___e_u_l__source_8c.html#ad5d51b342d61692dd1d241c7ebb42fa0" target="_top" xlink:title="This function use GRP scheme to solve 1&#45;D Euler equations of motion on Eulerian coordinate.">
<polygon fill="white" stroke="black" points="9,-126 9,-145 143,-145 143,-126 9,-126"/>
<text text-anchor="middle" x="76" y="-133" font-family="Helvetica,sans-Serif" font-size="10.00">GRP_solver_EUL_source</text>
</a>
</g>
</g>
<!-- Node3&#45;&gt;Node8 -->
<g id="edge7" class="edge">
<title>Node3&#45;&gt;Node8</title>
<path fill="none" stroke="midnightblue" d="M213.89,-167.62C183.69,-160.54 145.84,-151.66 117.61,-145.03"/>
<polygon fill="midnightblue" stroke="midnightblue" points="213.28,-171.08 223.82,-169.95 214.88,-164.26 213.28,-171.08"/>
</g>
<!-- Node9 -->
<g id="node9" class="node">
<title>Node9</title>
<g id="a_node9"><a xlink:href="../../dd/dd7/_g_r_p__solver___l_a_g__source_8c.html#a803248d0d521f8306a2850012b6d994c" target="_top" xlink:title="This function use GRP scheme to solve 1&#45;D Euler equations of motion on Lagrangian coordinate.">
<polygon fill="white" stroke="black" points="8.5,-88 8.5,-107 143.5,-107 143.5,-88 8.5,-88"/>
<text text-anchor="middle" x="76" y="-95" font-family="Helvetica,sans-Serif" font-size="10.00">GRP_solver_LAG_source</text>
</a>
</g>
</g>
<!-- Node3&#45;&gt;Node9 -->
<g id="edge8" class="edge">
<title>Node3&#45;&gt;Node9</title>
<path fill="none" stroke="midnightblue" d="M241.53,-164.26C219.4,-150.16 184.57,-129.48 152,-116.5 142.77,-112.82 132.6,-109.68 122.82,-107.07"/>
<polygon fill="midnightblue" stroke="midnightblue" points="239.89,-167.37 250.19,-169.86 243.69,-161.49 239.89,-167.37"/>
</g>
<!-- Node11 -->
<g id="node11" class="node">
<title>Node11</title>
<g id="a_node11"><a xlink:href="../../d6/d0f/_g_r_p__solver__2_d___e_u_l__source_8c.html#ad2ed8a0ffbf2c3b9eb692984e9fbc6f2" target="_top" xlink:title="This function use GRP scheme to solve 2&#45;D Euler equations of motion on Eulerian coordinate without di...">
<polygon fill="white" stroke="black" points="0,-50 0,-69 152,-69 152,-50 0,-50"/>
<text text-anchor="middle" x="76" y="-57" font-family="Helvetica,sans-Serif" font-size="10.00">GRP_solver_2D_EUL_source</text>
</a>
</g>
</g>
<!-- Node10&#45;&gt;Node11 -->
<g id="edge10" class="edge">
<title>Node10&#45;&gt;Node11</title>
<path fill="none" stroke="midnightblue" d="M177.9,-59.5C169.27,-59.5 160.57,-59.5 152.08,-59.5"/>
<polygon fill="midnightblue" stroke="midnightblue" points="177.97,-63 187.97,-59.5 177.97,-56 177.97,-63"/>
</g>
<!-- Node12 -->
<g id="node12" class="node">
<title>Node12</title>
<g id="a_node12"><a xlink:href="../../dc/d9e/_g_r_p__solver__2_d__split___e_u_l__source_8c.html#a196c7b4e4415c20bbdfc3dd294653b66" target="_top" xlink:title="This function use GRP scheme to solve 2&#45;D Euler equations of motion on Eulerian coordinate with dimen...">
<polygon fill="white" stroke="black" points="17.5,-0.5 17.5,-30.5 134.5,-30.5 134.5,-0.5 17.5,-0.5"/>
<text text-anchor="start" x="25.5" y="-18.5" font-family="Helvetica,sans-Serif" font-size="10.00">GRP_solver_2D_split</text>
<text text-anchor="middle" x="76" y="-7.5" font-family="Helvetica,sans-Serif" font-size="10.00">_EUL_source</text>
</a>
</g>
</g>
<!-- Node10&#45;&gt;Node12 -->
<g id="edge11" class="edge">
<title>Node10&#45;&gt;Node12</title>
<path fill="none" stroke="midnightblue" d="M214.01,-47.65C189.54,-41.91 160.03,-34.99 134.68,-29.04"/>
<polygon fill="midnightblue" stroke="midnightblue" points="213.28,-51.08 223.82,-49.95 214.88,-44.26 213.28,-51.08"/>
</g>
<!-- Node14 -->
<g id="node14" class="node">
<title>Node14</title>
<g id="a_node14"><a xlink:href="../../d8/d49/bound__cond__slope__limiter__x_8c.html#a93bebe7c69a9932a22ae8bfce51ab95c" target="_top" xlink:title="This function apply the minmod limiter to the slope in the x&#45;direction of two dimension.">
<polygon fill="white" stroke="black" points="188,-12 188,-31 343,-31 343,-12 188,-12"/>
<text text-anchor="middle" x="265.5" y="-19" font-family="Helvetica,sans-Serif" font-size="10.00">bound_cond_slope_limiter_x</text>
</a>
</g>
</g>
<!-- Node13&#45;&gt;Node14 -->
<g id="edge13" class="edge">
<title>Node13&#45;&gt;Node14</title>
<path fill="none" stroke="midnightblue" d="M368.53,-21.5C360.12,-21.5 351.53,-21.5 343.06,-21.5"/>
<polygon fill="midnightblue" stroke="midnightblue" points="368.66,-25 378.66,-21.5 368.66,-18 368.66,-25"/>
</g>
<!-- Node14&#45;&gt;Node11 -->
<g id="edge14" class="edge">
<title>Node14&#45;&gt;Node11</title>
<path fill="none" stroke="midnightblue" d="M207.22,-33.11C180.55,-38.51 149.22,-44.86 123.97,-49.98"/>
<polygon fill="midnightblue" stroke="midnightblue" points="208.08,-36.51 217.19,-31.09 206.69,-29.65 208.08,-36.51"/>
</g>
<!-- Node14&#45;&gt;Node12 -->
<g id="edge15" class="edge">
<title>Node14&#45;&gt;Node12</title>
<path fill="none" stroke="midnightblue" d="M177.87,-18.73C163.2,-18.26 148.3,-17.78 134.62,-17.34"/>
<polygon fill="midnightblue" stroke="midnightblue" points="177.86,-22.23 187.97,-19.05 178.08,-15.23 177.86,-22.23"/>
</g>
</g>
</svg>
