<?xml version="1.0" encoding="UTF-8" standalone="no"?>
<!DOCTYPE svg PUBLIC "-//W3C//DTD SVG 1.1//EN"
 "http://www.w3.org/Graphics/SVG/1.1/DTD/svg11.dtd">
<!-- Generated by graphviz version 6.0.1 (0)
 -->
<!-- Title: src~/include/riemann_solver.h Pages: 1 -->
<svg width="787pt" height="117pt"
 viewBox="0.00 0.00 786.50 117.00" xmlns="http://www.w3.org/2000/svg" xmlns:xlink="http://www.w3.org/1999/xlink">
<g id="graph0" class="graph" transform="scale(1 1) rotate(0) translate(4 113)">
<title>src~/include/riemann_solver.h</title>
<polygon fill="white" stroke="none" points="-4,4 -4,-113 782.5,-113 782.5,4 -4,4"/>
<!-- Node1 -->
<g id="node1" class="node">
<title>Node1</title>
<g id="a_node1"><a xlink:title="This file is the header file of several Riemann solvers and GRP solvers.">
<polygon fill="#bfbfbf" stroke="black" points="304,-78.5 304,-108.5 425,-108.5 425,-78.5 304,-78.5"/>
<text text-anchor="start" x="312" y="-96.5" font-family="Helvetica,sans-Serif" font-size="10.00">src~/include/riemann</text>
<text text-anchor="middle" x="364.5" y="-85.5" font-family="Helvetica,sans-Serif" font-size="10.00">_solver.h</text>
</a>
</g>
</g>
<!-- Node2 -->
<g id="node2" class="node">
<title>Node2</title>
<g id="a_node2"><a xlink:href="../../d1/d4b/grp__solver__2_d___e_u_l__source_8c.html" target="_top" xlink:title="This is an Eulerian GRP scheme to solve 2&#45;D Euler equations without dimension splitting.">
<polygon fill="white" stroke="black" points="0,-6 0,-36 159,-36 159,-6 0,-6"/>
<text text-anchor="start" x="8" y="-24" font-family="Helvetica,sans-Serif" font-size="10.00">src~/finite_volume</text>
<text text-anchor="middle" x="79.5" y="-13" font-family="Helvetica,sans-Serif" font-size="10.00">/grp_solver_2D_EUL_source.c</text>
</a>
</g>
</g>
<!-- Node1&#45;&gt;Node2 -->
<g id="edge1" class="edge">
<title>Node1&#45;&gt;Node2</title>
<path fill="none" stroke="midnightblue" d="M297.98,-76.05C249.01,-63.93 183.11,-47.63 136.53,-36.11"/>
<polygon fill="midnightblue" stroke="midnightblue" points="297.3,-79.48 307.85,-78.49 298.99,-72.69 297.3,-79.48"/>
</g>
<!-- Node3 -->
<g id="node3" class="node">
<title>Node3</title>
<g id="a_node3"><a xlink:href="../../df/d07/grp__solver__2_d__split___e_u_l__source_8c.html" target="_top" xlink:title="This is an Eulerian GRP scheme to solve 2&#45;D Euler equations with dimension splitting.">
<polygon fill="white" stroke="black" points="176.5,-0.5 176.5,-41.5 292.5,-41.5 292.5,-0.5 176.5,-0.5"/>
<text text-anchor="start" x="184.5" y="-29.5" font-family="Helvetica,sans-Serif" font-size="10.00">src~/finite_volume</text>
<text text-anchor="start" x="184.5" y="-18.5" font-family="Helvetica,sans-Serif" font-size="10.00">/grp_solver_2D_split</text>
<text text-anchor="middle" x="234.5" y="-7.5" font-family="Helvetica,sans-Serif" font-size="10.00">_EUL_source.c</text>
</a>
</g>
</g>
<!-- Node1&#45;&gt;Node3 -->
<g id="edge2" class="edge">
<title>Node1&#45;&gt;Node3</title>
<path fill="none" stroke="midnightblue" d="M329.41,-73.47C311.26,-63.63 289.12,-51.62 270.79,-41.68"/>
<polygon fill="midnightblue" stroke="midnightblue" points="328.05,-76.71 338.51,-78.4 331.38,-70.56 328.05,-76.71"/>
</g>
<!-- Node4 -->
<g id="node4" class="node">
<title>Node4</title>
<g id="a_node4"><a xlink:href="../../d5/d55/flux__solver_8c.html" target="_top" xlink:title="This file is a set of functions to calculate interfacial fluxes and demanded variables according to t...">
<polygon fill="white" stroke="black" points="311,-6 311,-36 418,-36 418,-6 311,-6"/>
<text text-anchor="start" x="319" y="-24" font-family="Helvetica,sans-Serif" font-size="10.00">src~/flux_calc/flux</text>
<text text-anchor="middle" x="364.5" y="-13" font-family="Helvetica,sans-Serif" font-size="10.00">_solver.c</text>
</a>
</g>
</g>
<!-- Node1&#45;&gt;Node4 -->
<g id="edge3" class="edge">
<title>Node1&#45;&gt;Node4</title>
<path fill="none" stroke="midnightblue" d="M364.5,-68.23C364.5,-57.57 364.5,-45.41 364.5,-36.25"/>
<polygon fill="midnightblue" stroke="midnightblue" points="361,-68.23 364.5,-78.23 368,-68.23 361,-68.23"/>
</g>
<!-- Node5 -->
<g id="node5" class="node">
<title>Node5</title>
<g id="a_node5"><a xlink:href="../../d9/dd5/linear__grp__solver___edir___g2_d_8c.html" target="_top" xlink:title="This is a Genuinely&#45;2D direct Eulerian GRP solver for compressible inviscid flow in Li&#39;s paper.">
<polygon fill="white" stroke="black" points="436.5,-6 436.5,-36 598.5,-36 598.5,-6 436.5,-6"/>
<text text-anchor="start" x="444.5" y="-24" font-family="Helvetica,sans-Serif" font-size="10.00">src~/riemann_solver</text>
<text text-anchor="middle" x="517.5" y="-13" font-family="Helvetica,sans-Serif" font-size="10.00">/linear_grp_solver_Edir_G2D.c</text>
</a>
</g>
</g>
<!-- Node1&#45;&gt;Node5 -->
<g id="edge4" class="edge">
<title>Node1&#45;&gt;Node5</title>
<path fill="none" stroke="midnightblue" d="M404.24,-74.19C430.06,-62.29 463.21,-47.02 486.96,-36.07"/>
<polygon fill="midnightblue" stroke="midnightblue" points="402.71,-71.04 395.09,-78.4 405.64,-77.4 402.71,-71.04"/>
</g>
<!-- Node6 -->
<g id="node6" class="node">
<title>Node6</title>
<g id="a_node6"><a xlink:href="../../db/dd1/linear__grp__solver___edir___q1_d_8c.html" target="_top" xlink:title="This is a Quasi&#45;1D direct Eulerian GRP solver for compressible inviscid flow in Li&#39;s paper.">
<polygon fill="white" stroke="black" points="616.5,-6 616.5,-36 778.5,-36 778.5,-6 616.5,-6"/>
<text text-anchor="start" x="624.5" y="-24" font-family="Helvetica,sans-Serif" font-size="10.00">src~/riemann_solver</text>
<text text-anchor="middle" x="697.5" y="-13" font-family="Helvetica,sans-Serif" font-size="10.00">/linear_grp_solver_Edir_Q1D.c</text>
</a>
</g>
</g>
<!-- Node1&#45;&gt;Node6 -->
<g id="edge5" class="edge">
<title>Node1&#45;&gt;Node6</title>
<path fill="none" stroke="midnightblue" d="M435.3,-78.06C483.8,-68.09 549.59,-54.45 607.5,-42 616.26,-40.12 625.5,-38.1 634.58,-36.1"/>
<polygon fill="midnightblue" stroke="midnightblue" points="434.31,-74.68 425.22,-80.12 435.72,-81.54 434.31,-74.68"/>
</g>
</g>
</svg>
