<?xml version="1.0" encoding="UTF-8" standalone="no"?>
<!DOCTYPE svg PUBLIC "-//W3C//DTD SVG 1.1//EN"
 "http://www.w3.org/Graphics/SVG/1.1/DTD/svg11.dtd">
<!-- Generated by graphviz version 6.0.1 (0)
 -->
<!-- Title: src~/include/file_io.h Pages: 1 -->
<svg width="901pt" height="106pt"
 viewBox="0.00 0.00 901.00 106.00" xmlns="http://www.w3.org/2000/svg" xmlns:xlink="http://www.w3.org/1999/xlink">
<g id="graph0" class="graph" transform="scale(1 1) rotate(0) translate(4 102)">
<title>src~/include/file_io.h</title>
<polygon fill="white" stroke="none" points="-4,4 -4,-102 897,-102 897,4 -4,4"/>
<!-- Node1 -->
<g id="node1" class="node">
<title>Node1</title>
<g id="a_node1"><a xlink:title="This file is the header file that controls data input and output.">
<polygon fill="#bfbfbf" stroke="black" points="351.5,-78.5 351.5,-97.5 470.5,-97.5 470.5,-78.5 351.5,-78.5"/>
<text text-anchor="middle" x="411" y="-85.5" font-family="Helvetica,sans-Serif" font-size="10.00">src~/include/file_io.h</text>
</a>
</g>
</g>
<!-- Node2 -->
<g id="node2" class="node">
<title>Node2</title>
<g id="a_node2"><a xlink:href="../../d9/d8a/file__2_d__in_8c.html" target="_top" xlink:title="This is a set of functions which control the read&#45;in of two&#45;dimensional data.">
<polygon fill="white" stroke="black" points="0,-11.5 0,-30.5 132,-30.5 132,-11.5 0,-11.5"/>
<text text-anchor="middle" x="66" y="-18.5" font-family="Helvetica,sans-Serif" font-size="10.00">src~/file_io/file_2D_in.c</text>
</a>
</g>
</g>
<!-- Node1&#45;&gt;Node2 -->
<g id="edge1" class="edge">
<title>Node1&#45;&gt;Node2</title>
<path fill="none" stroke="midnightblue" d="M341.49,-77.28C286.76,-69.18 208.67,-56.63 141,-42 125.85,-38.73 109.18,-34.36 95.41,-30.54"/>
<polygon fill="midnightblue" stroke="midnightblue" points="341.03,-80.75 351.43,-78.74 342.05,-73.83 341.03,-80.75"/>
</g>
<!-- Node3 -->
<g id="node3" class="node">
<title>Node3</title>
<g id="a_node3"><a xlink:href="../../d7/d20/file__2_d__out_8c.html" target="_top" xlink:title="This is a set of functions which control the readout of two&#45;dimensional data.">
<polygon fill="white" stroke="black" points="150,-6 150,-36 260,-36 260,-6 150,-6"/>
<text text-anchor="start" x="158" y="-24" font-family="Helvetica,sans-Serif" font-size="10.00">src~/file_io/file_2D</text>
<text text-anchor="middle" x="205" y="-13" font-family="Helvetica,sans-Serif" font-size="10.00">_out.c</text>
</a>
</g>
</g>
<!-- Node1&#45;&gt;Node3 -->
<g id="edge2" class="edge">
<title>Node1&#45;&gt;Node3</title>
<path fill="none" stroke="midnightblue" d="M373.84,-75.27C338.91,-64.25 286.59,-47.74 249.46,-36.03"/>
<polygon fill="midnightblue" stroke="midnightblue" points="373.06,-78.7 383.64,-78.37 375.16,-72.02 373.06,-78.7"/>
</g>
<!-- Node4 -->
<g id="node4" class="node">
<title>Node4</title>
<g id="a_node4"><a xlink:href="../../d4/d39/file__out__hdf5_8c.html" target="_top" xlink:title="This is a set of functions which control the readout of 1&#45;D and 2&#45;D data in HDF5 file format.">
<polygon fill="white" stroke="black" points="278,-6 278,-36 390,-36 390,-6 278,-6"/>
<text text-anchor="start" x="286" y="-24" font-family="Helvetica,sans-Serif" font-size="10.00">src~/file_io/file_out</text>
<text text-anchor="middle" x="334" y="-13" font-family="Helvetica,sans-Serif" font-size="10.00">_hdf5.c</text>
</a>
</g>
</g>
<!-- Node1&#45;&gt;Node4 -->
<g id="edge3" class="edge">
<title>Node1&#45;&gt;Node4</title>
<path fill="none" stroke="midnightblue" d="M392.92,-71.74C380.14,-60.95 363.14,-46.6 350.69,-36.09"/>
<polygon fill="midnightblue" stroke="midnightblue" points="390.72,-74.46 400.62,-78.23 395.23,-69.11 390.72,-74.46"/>
</g>
<!-- Node5 -->
<g id="node5" class="node">
<title>Node5</title>
<g id="a_node5"><a xlink:href="../../d1/d4b/grp__solver__2_d___e_u_l__source_8c.html" target="_top" xlink:title="This is an Eulerian GRP scheme to solve 2&#45;D Euler equations without dimension splitting.">
<polygon fill="white" stroke="black" points="408.5,-6 408.5,-36 567.5,-36 567.5,-6 408.5,-6"/>
<text text-anchor="start" x="416.5" y="-24" font-family="Helvetica,sans-Serif" font-size="10.00">src~/finite_volume</text>
<text text-anchor="middle" x="488" y="-13" font-family="Helvetica,sans-Serif" font-size="10.00">/grp_solver_2D_EUL_source.c</text>
</a>
</g>
</g>
<!-- Node1&#45;&gt;Node5 -->
<g id="edge4" class="edge">
<title>Node1&#45;&gt;Node5</title>
<path fill="none" stroke="midnightblue" d="M429.08,-71.74C441.86,-60.95 458.86,-46.6 471.31,-36.09"/>
<polygon fill="midnightblue" stroke="midnightblue" points="426.77,-69.11 421.38,-78.23 431.28,-74.46 426.77,-69.11"/>
</g>
<!-- Node6 -->
<g id="node6" class="node">
<title>Node6</title>
<g id="a_node6"><a xlink:href="../../df/d07/grp__solver__2_d__split___e_u_l__source_8c.html" target="_top" xlink:title="This is an Eulerian GRP scheme to solve 2&#45;D Euler equations with dimension splitting.">
<polygon fill="white" stroke="black" points="585,-0.5 585,-41.5 701,-41.5 701,-0.5 585,-0.5"/>
<text text-anchor="start" x="593" y="-29.5" font-family="Helvetica,sans-Serif" font-size="10.00">src~/finite_volume</text>
<text text-anchor="start" x="593" y="-18.5" font-family="Helvetica,sans-Serif" font-size="10.00">/grp_solver_2D_split</text>
<text text-anchor="middle" x="643" y="-7.5" font-family="Helvetica,sans-Serif" font-size="10.00">_EUL_source.c</text>
</a>
</g>
</g>
<!-- Node1&#45;&gt;Node6 -->
<g id="edge5" class="edge">
<title>Node1&#45;&gt;Node6</title>
<path fill="none" stroke="midnightblue" d="M453.46,-75.86C487.06,-66.95 535.12,-54.02 577,-42 579.53,-41.27 582.12,-40.52 584.72,-39.76"/>
<polygon fill="midnightblue" stroke="midnightblue" points="452.3,-72.55 443.52,-78.49 454.09,-79.31 452.3,-72.55"/>
</g>
<!-- Node7 -->
<g id="node7" class="node">
<title>Node7</title>
<g id="a_node7"><a xlink:href="../../d2/d24/hydrocode_8c.html" target="_top" xlink:title="This is a C file of the main function.">
<polygon fill="white" stroke="black" points="719,-11.5 719,-30.5 893,-30.5 893,-11.5 719,-11.5"/>
<text text-anchor="middle" x="806" y="-18.5" font-family="Helvetica,sans-Serif" font-size="10.00">src~/hydrocode_2D/hydrocode.c</text>
</a>
</g>
</g>
<!-- Node1&#45;&gt;Node7 -->
<g id="edge6" class="edge">
<title>Node1&#45;&gt;Node7</title>
<path fill="none" stroke="midnightblue" d="M480.96,-77.6C541.67,-69.17 631.85,-56.01 710,-42 728.94,-38.61 749.86,-34.31 767.33,-30.57"/>
<polygon fill="midnightblue" stroke="midnightblue" points="480.15,-74.18 470.73,-79.01 481.11,-81.11 480.15,-74.18"/>
</g>
</g>
</svg>
