<?xml version="1.0" encoding="UTF-8" standalone="no"?>
<!DOCTYPE svg PUBLIC "-//W3C//DTD SVG 1.1//EN"
 "http://www.w3.org/Graphics/SVG/1.1/DTD/svg11.dtd">
<!-- Generated by graphviz version 5.0.0 (0)
 -->
<!-- Title: /home/leixin/Programs/HydroCODE/src/flux_calc/flux_solver.c Pages: 1 -->
<svg width="299pt" height="173pt"
 viewBox="0.00 0.00 299.00 173.00" xmlns="http://www.w3.org/2000/svg" xmlns:xlink="http://www.w3.org/1999/xlink">
<g id="graph0" class="graph" transform="scale(1 1) rotate(0) translate(4 169)">
<title>/home/leixin/Programs/HydroCODE/src/flux_calc/flux_solver.c</title>
<polygon fill="white" stroke="transparent" points="-4,4 -4,-169 295,-169 295,4 -4,4"/>
<!-- Node1 -->
<g id="node1" class="node">
<title>Node1</title>
<g id="a_node1"><a xlink:title="This file is a set of functions to calculate interfacial fluxes and demanded variables according to t...">
<polygon fill="#bfbfbf" stroke="black" points="72,-123.5 72,-164.5 212,-164.5 212,-123.5 72,-123.5"/>
<text text-anchor="start" x="80" y="-152.5" font-family="Helvetica,sans-Serif" font-size="10.00">/home/leixin/Programs</text>
<text text-anchor="start" x="80" y="-141.5" font-family="Helvetica,sans-Serif" font-size="10.00">/HydroCODE/src/flux_calc</text>
<text text-anchor="middle" x="142" y="-130.5" font-family="Helvetica,sans-Serif" font-size="10.00">/flux_solver.c</text>
</a>
</g>
</g>
<!-- Node2 -->
<g id="node2" class="node">
<title>Node2</title>
<g id="a_node2"><a xlink:title=" ">
<polygon fill="white" stroke="#bfbfbf" points="0,-62 0,-81 50,-81 50,-62 0,-62"/>
<text text-anchor="middle" x="25" y="-69" font-family="Helvetica,sans-Serif" font-size="10.00">stdio.h</text>
</a>
</g>
</g>
<!-- Node1&#45;&gt;Node2 -->
<g id="edge1" class="edge">
<title>Node1&#45;&gt;Node2</title>
<path fill="none" stroke="midnightblue" d="M109.41,-123.36C90.01,-111.67 65.85,-97.12 48.36,-86.57"/>
<polygon fill="midnightblue" stroke="midnightblue" points="49.77,-83.34 39.39,-81.17 46.15,-89.33 49.77,-83.34"/>
</g>
<!-- Node3 -->
<g id="node3" class="node">
<title>Node3</title>
<g id="a_node3"><a xlink:title=" ">
<polygon fill="white" stroke="#bfbfbf" points="68.5,-62 68.5,-81 119.5,-81 119.5,-62 68.5,-62"/>
<text text-anchor="middle" x="94" y="-69" font-family="Helvetica,sans-Serif" font-size="10.00">math.h</text>
</a>
</g>
</g>
<!-- Node1&#45;&gt;Node3 -->
<g id="edge2" class="edge">
<title>Node1&#45;&gt;Node3</title>
<path fill="none" stroke="midnightblue" d="M128.63,-123.36C121.41,-112.76 112.58,-99.79 105.64,-89.6"/>
<polygon fill="midnightblue" stroke="midnightblue" points="108.43,-87.47 99.91,-81.17 102.64,-91.41 108.43,-87.47"/>
</g>
<!-- Node4 -->
<g id="node4" class="node">
<title>Node4</title>
<g id="a_node4"><a xlink:href="../../d8/d09/_riemann__solver_8h.html" target="_top" xlink:title="This file is the header file of several Riemann solvers and GRP solvers.">
<polygon fill="white" stroke="black" points="137.5,-56.5 137.5,-86.5 244.5,-86.5 244.5,-56.5 137.5,-56.5"/>
<text text-anchor="start" x="145.5" y="-74.5" font-family="Helvetica,sans-Serif" font-size="10.00">../include/Riemann</text>
<text text-anchor="middle" x="191" y="-63.5" font-family="Helvetica,sans-Serif" font-size="10.00">_solver.h</text>
</a>
</g>
</g>
<!-- Node1&#45;&gt;Node4 -->
<g id="edge3" class="edge">
<title>Node1&#45;&gt;Node4</title>
<path fill="none" stroke="midnightblue" d="M155.65,-123.36C161.74,-114.59 168.96,-104.21 175.28,-95.12"/>
<polygon fill="midnightblue" stroke="midnightblue" points="178.16,-97.1 181,-86.89 172.42,-93.11 178.16,-97.1"/>
</g>
<!-- Node5 -->
<g id="node5" class="node">
<title>Node5</title>
<g id="a_node5"><a xlink:href="../../da/d1e/var__struc_8h.html" target="_top" xlink:title="This file is the header file of some globally common variables and structural bodies.">
<polygon fill="white" stroke="black" points="173,-0.5 173,-19.5 291,-19.5 291,-0.5 173,-0.5"/>
<text text-anchor="middle" x="232" y="-7.5" font-family="Helvetica,sans-Serif" font-size="10.00">../include/var_struc.h</text>
</a>
</g>
</g>
<!-- Node1&#45;&gt;Node5 -->
<g id="edge5" class="edge">
<title>Node1&#45;&gt;Node5</title>
<path fill="none" stroke="midnightblue" d="M210.11,-123.47C227.38,-115.11 243.89,-103.37 254,-87 265.35,-68.64 254.47,-44.18 244.38,-28.03"/>
<polygon fill="midnightblue" stroke="midnightblue" points="247.19,-25.93 238.71,-19.59 241.38,-29.84 247.19,-25.93"/>
</g>
<!-- Node4&#45;&gt;Node5 -->
<g id="edge4" class="edge">
<title>Node4&#45;&gt;Node5</title>
<path fill="none" stroke="midnightblue" d="M200.72,-56.4C206.55,-47.93 214.02,-37.1 220.19,-28.14"/>
<polygon fill="midnightblue" stroke="midnightblue" points="223.24,-29.88 226.03,-19.66 217.48,-25.91 223.24,-29.88"/>
</g>
</g>
</svg>
