<?xml version="1.0" encoding="UTF-8" standalone="no"?>
<!DOCTYPE svg PUBLIC "-//W3C//DTD SVG 1.1//EN"
 "http://www.w3.org/Graphics/SVG/1.1/DTD/svg11.dtd">
<!-- Generated by graphviz version 6.0.1 (0)
 -->
<!-- Title: CreateDir Pages: 1 -->
<svg width="580pt" height="188pt"
 viewBox="0.00 0.00 580.00 187.67" xmlns="http://www.w3.org/2000/svg" xmlns:xlink="http://www.w3.org/1999/xlink">
<g id="graph0" class="graph" transform="scale(1 1) rotate(0) translate(4 183.67)">
<title>CreateDir</title>
<polygon fill="white" stroke="none" points="-4,4 -4,-183.67 576,-183.67 576,4 -4,4"/>
<!-- Node1 -->
<g id="node1" class="node">
<title>Node1</title>
<g id="a_node1"><a xlink:title="This is a function that recursively creates folders.">
<polygon fill="#bfbfbf" stroke="black" points="509,-84.17 509,-103.17 572,-103.17 572,-84.17 509,-84.17"/>
<text text-anchor="middle" x="540.5" y="-91.17" font-family="Helvetica,sans-Serif" font-size="10.00">CreateDir</text>
</a>
</g>
</g>
<!-- Node2 -->
<g id="node2" class="node">
<title>Node2</title>
<g id="a_node2"><a xlink:href="../../d4/de5/io__control_8c.html#a7e039d23ca87a439fbe9c9d336447887" target="_top" xlink:title="This function produces folder path for data input or output.">
<polygon fill="white" stroke="black" points="399,-84.17 399,-103.17 473,-103.17 473,-84.17 399,-84.17"/>
<text text-anchor="middle" x="436" y="-91.17" font-family="Helvetica,sans-Serif" font-size="10.00">example_io</text>
</a>
</g>
</g>
<!-- Node1&#45;&gt;Node2 -->
<g id="edge1" class="edge">
<title>Node1&#45;&gt;Node2</title>
<path fill="none" stroke="midnightblue" d="M498.7,-93.67C490.26,-93.67 481.41,-93.67 473.14,-93.67"/>
<polygon fill="midnightblue" stroke="midnightblue" points="498.75,-97.17 508.75,-93.67 498.75,-90.17 498.75,-97.17"/>
</g>
<!-- Node3 -->
<g id="node3" class="node">
<title>Node3</title>
<g id="a_node3"><a xlink:href="../../df/d38/file__1_d__out_8c.html#a5edc2b6fa84841a6fb96918b065603cb" target="_top" xlink:title="This function write the 1&#45;D solution into output &#39;.dat&#39; files.">
<polygon fill="white" stroke="black" points="102,-160.17 102,-179.17 183,-179.17 183,-160.17 102,-160.17"/>
<text text-anchor="middle" x="142.5" y="-167.17" font-family="Helvetica,sans-Serif" font-size="10.00">file_1D_write</text>
</a>
</g>
</g>
<!-- Node2&#45;&gt;Node3 -->
<g id="edge2" class="edge">
<title>Node2&#45;&gt;Node3</title>
<path fill="none" stroke="midnightblue" d="M412.02,-108.65C398.31,-116.93 380.25,-126.72 363,-132.67 302.35,-153.56 228.06,-162.91 183.32,-166.91"/>
<polygon fill="midnightblue" stroke="midnightblue" points="414.11,-111.47 420.76,-103.22 410.42,-105.53 414.11,-111.47"/>
</g>
<!-- Node5 -->
<g id="node5" class="node">
<title>Node5</title>
<g id="a_node5"><a xlink:href="../../d4/d39/file__out__hdf5_8c.html#a183247d78d231c5a6fc920674e92d857" target="_top" xlink:title="This function write the 1&#45;D solution into HDF5 output &#39;.h5&#39; files.">
<polygon fill="white" stroke="black" points="86,-122.17 86,-141.17 199,-141.17 199,-122.17 86,-122.17"/>
<text text-anchor="middle" x="142.5" y="-129.17" font-family="Helvetica,sans-Serif" font-size="10.00">file_1D_write_HDF5</text>
</a>
</g>
</g>
<!-- Node2&#45;&gt;Node5 -->
<g id="edge4" class="edge">
<title>Node2&#45;&gt;Node5</title>
<path fill="none" stroke="midnightblue" d="M393.96,-105.8C383.91,-108.41 373.13,-110.91 363,-112.67 307.79,-122.27 243.89,-127.1 199.32,-129.48"/>
<polygon fill="midnightblue" stroke="midnightblue" points="394.97,-109.15 403.72,-103.17 393.15,-102.39 394.97,-109.15"/>
</g>
<!-- Node6 -->
<g id="node6" class="node">
<title>Node6</title>
<g id="a_node6"><a xlink:href="../../d4/d39/file__out__hdf5_8c.html#a23e6202deeb430def9c660b183591c22" target="_top" xlink:title="This function write the 2&#45;D solution into HDF5 output &#39;.h5&#39; files.">
<polygon fill="white" stroke="black" points="247,-84.17 247,-103.17 360,-103.17 360,-84.17 247,-84.17"/>
<text text-anchor="middle" x="303.5" y="-91.17" font-family="Helvetica,sans-Serif" font-size="10.00">file_2D_write_HDF5</text>
</a>
</g>
</g>
<!-- Node2&#45;&gt;Node6 -->
<g id="edge6" class="edge">
<title>Node2&#45;&gt;Node6</title>
<path fill="none" stroke="midnightblue" d="M388.89,-93.67C379.7,-93.67 369.94,-93.67 360.46,-93.67"/>
<polygon fill="midnightblue" stroke="midnightblue" points="388.99,-97.17 398.99,-93.67 388.99,-90.17 388.99,-97.17"/>
</g>
<!-- Node7 -->
<g id="node7" class="node">
<title>Node7</title>
<g id="a_node7"><a xlink:href="../../d1/df9/file__radial__out_8c.html#adaf9f8109eb6c852fcaf47aa8c21156c" target="_top" xlink:title="This function write the radially symmetric 2&#45;D solution into Tecplot output &#39;.tec&#39; files.">
<polygon fill="white" stroke="black" points="244,-46.17 244,-65.17 363,-65.17 363,-46.17 244,-46.17"/>
<text text-anchor="middle" x="303.5" y="-53.17" font-family="Helvetica,sans-Serif" font-size="10.00">file_radial_write_TEC</text>
</a>
</g>
</g>
<!-- Node2&#45;&gt;Node7 -->
<g id="edge7" class="edge">
<title>Node2&#45;&gt;Node7</title>
<path fill="none" stroke="midnightblue" d="M392.45,-81.28C374.58,-76.07 354.11,-70.11 337.42,-65.25"/>
<polygon fill="midnightblue" stroke="midnightblue" points="391.49,-84.64 402.07,-84.08 393.45,-77.92 391.49,-84.64"/>
</g>
<!-- Node9 -->
<g id="node9" class="node">
<title>Node9</title>
<g id="a_node9"><a xlink:href="../../d9/d89/file__1_d__in_8c.html#afa89583d6583e954878dee9bab9cf7d9" target="_top" xlink:title="This function reads the 1&#45;D initial data file of density/velocity/pressure and performs some other in...">
<polygon fill="white" stroke="black" points="265,-2.17 265,-21.17 342,-21.17 342,-2.17 265,-2.17"/>
<text text-anchor="middle" x="303.5" y="-9.17" font-family="Helvetica,sans-Serif" font-size="10.00">initialize_1D</text>
</a>
</g>
</g>
<!-- Node2&#45;&gt;Node9 -->
<g id="edge11" class="edge">
<title>Node2&#45;&gt;Node9</title>
<path fill="none" stroke="midnightblue" d="M416.59,-76.82C402.6,-64.62 382.52,-48.28 363,-36.67 352.94,-30.68 341.18,-25.37 330.85,-21.19"/>
<polygon fill="midnightblue" stroke="midnightblue" points="414.65,-79.78 424.44,-83.81 419.3,-74.55 414.65,-79.78"/>
</g>
<!-- Node4 -->
<g id="node4" class="node">
<title>Node4</title>
<g id="a_node4"><a xlink:href="../../d2/d24/hydrocode_8c.html#a0ddf1224851353fc92bfbff6f499fa97" target="_top" xlink:title="This is the main function which constructs the main structure of the radially symmetric Lagrangian hy...">
<polygon fill="white" stroke="black" points="0,-84.17 0,-103.17 41,-103.17 41,-84.17 0,-84.17"/>
<text text-anchor="middle" x="20.5" y="-91.17" font-family="Helvetica,sans-Serif" font-size="10.00">main</text>
</a>
</g>
</g>
<!-- Node3&#45;&gt;Node4 -->
<g id="edge3" class="edge">
<title>Node3&#45;&gt;Node4</title>
<path fill="none" stroke="midnightblue" d="M92.29,-158.09C86.96,-155.99 81.75,-153.53 77,-150.67 56.18,-138.12 37.76,-115.88 28.27,-103.21"/>
<polygon fill="midnightblue" stroke="midnightblue" points="91.35,-161.47 101.95,-161.49 93.68,-154.87 91.35,-161.47"/>
</g>
<!-- Node5&#45;&gt;Node4 -->
<g id="edge5" class="edge">
<title>Node5&#45;&gt;Node4</title>
<path fill="none" stroke="midnightblue" d="M101.59,-119.03C81.31,-112.61 57.57,-105.09 41.23,-99.92"/>
<polygon fill="midnightblue" stroke="midnightblue" points="100.63,-122.4 111.22,-122.08 102.74,-115.72 100.63,-122.4"/>
</g>
<!-- Node7&#45;&gt;Node4 -->
<g id="edge10" class="edge">
<title>Node7&#45;&gt;Node4</title>
<path fill="none" stroke="midnightblue" d="M249.32,-67.3C235.88,-69.98 221.45,-72.64 208,-74.67 147.5,-83.81 75.28,-89.77 41.18,-92.29"/>
<polygon fill="midnightblue" stroke="midnightblue" points="250.27,-70.68 259.37,-65.25 248.88,-63.82 250.27,-70.68"/>
</g>
<!-- Node8 -->
<g id="node8" class="node">
<title>Node8</title>
<g id="a_node8"><a xlink:href="../../d5/d63/grp__solver__radial___l_a_g__source_8c.html#a30b48b52a21ad448fd96c27727760837" target="_top" xlink:title="This function use GRP scheme to solve radially(cylindrically) symmetric compressible flows of motion ...">
<polygon fill="white" stroke="black" points="77,-34.67 77,-64.67 208,-64.67 208,-34.67 77,-34.67"/>
<text text-anchor="start" x="85" y="-52.67" font-family="Helvetica,sans-Serif" font-size="10.00">GRP_solver_radial_LAG</text>
<text text-anchor="middle" x="142.5" y="-41.67" font-family="Helvetica,sans-Serif" font-size="10.00">_source</text>
</a>
</g>
</g>
<!-- Node7&#45;&gt;Node8 -->
<g id="edge8" class="edge">
<title>Node7&#45;&gt;Node8</title>
<path fill="none" stroke="midnightblue" d="M233.56,-53.07C225.13,-52.75 216.53,-52.42 208.17,-52.11"/>
<polygon fill="midnightblue" stroke="midnightblue" points="233.62,-56.57 243.75,-53.45 233.89,-49.58 233.62,-56.57"/>
</g>
<!-- Node8&#45;&gt;Node4 -->
<g id="edge9" class="edge">
<title>Node8&#45;&gt;Node4</title>
<path fill="none" stroke="midnightblue" d="M90.92,-68.21C73.34,-74.66 54.65,-81.51 41.1,-86.48"/>
<polygon fill="midnightblue" stroke="midnightblue" points="92.35,-71.42 100.54,-64.69 89.94,-64.84 92.35,-71.42"/>
</g>
<!-- Node9&#45;&gt;Node4 -->
<g id="edge12" class="edge">
<title>Node9&#45;&gt;Node4</title>
<path fill="none" stroke="midnightblue" d="M254.9,-3.69C207.15,1.95 132.87,4.1 77,-24.67 51.58,-37.76 33.8,-68.25 25.98,-83.95"/>
<polygon fill="midnightblue" stroke="midnightblue" points="254.6,-7.18 264.97,-4.98 255.49,-0.24 254.6,-7.18"/>
</g>
</g>
</svg>
