<?xml version="1.0" encoding="UTF-8" standalone="no"?>
<!DOCTYPE svg PUBLIC "-//W3C//DTD SVG 1.1//EN"
 "http://www.w3.org/Graphics/SVG/1.1/DTD/svg11.dtd">
<!-- Generated by graphviz version 6.0.1 (0)
 -->
<!-- Title: src~/finite_volume Pages: 1 -->
<svg width="180pt" height="167pt"
 viewBox="0.00 0.00 180.00 167.00" xmlns="http://www.w3.org/2000/svg" xmlns:xlink="http://www.w3.org/1999/xlink">
<g id="graph0" class="graph" transform="scale(1 1) rotate(0) translate(4 163)">
<title>src~/finite_volume</title>
<polygon fill="white" stroke="none" points="-4,4 -4,-163 176,-163 176,4 -4,4"/>
<g id="clust1" class="cluster">
<title>clusterdir_6771aafbf413a5638c4e561417caddb9</title>
<g id="a_clust1"><a xlink:href="dir_6771aafbf413a5638c4e561417caddb9.html" target="_top" xlink:title="src~">
<polygon fill="#edf0f7" stroke="#404040" stroke-dasharray="5,2" points="8,-8 8,-151 164,-151 164,-8 8,-8"/>
<text text-anchor="middle" x="86" y="-139" font-family="Helvetica,sans-Serif" font-size="10.00">src~</text>
</a>
</g>
</g>
<!-- dir_0aa4ecdbc965570bd87fb4da401df2c8 -->
<g id="node1" class="node">
<title>dir_0aa4ecdbc965570bd87fb4da401df2c8</title>
<g id="a_node1"><a xlink:href="dir_0aa4ecdbc965570bd87fb4da401df2c8.html" target="_top" xlink:title="include">
<polygon fill="#a2b4d6" stroke="#404040" points="70,-52 16,-52 16,-16 70,-16 70,-52"/>
<text text-anchor="middle" x="43" y="-31.5" font-family="Helvetica,sans-Serif" font-size="10.00">include</text>
</a>
</g>
</g>
<!-- dir_9d9130b3691fae8de17759ed0feecb0a -->
<g id="node2" class="node">
<title>dir_9d9130b3691fae8de17759ed0feecb0a</title>
<g id="a_node2"><a xlink:href="dir_9d9130b3691fae8de17759ed0feecb0a.html" target="_top" xlink:title="include_cii">
<polygon fill="#a2b4d6" stroke="#404040" points="156,-52 88,-52 88,-16 156,-16 156,-52"/>
<text text-anchor="middle" x="122" y="-31.5" font-family="Helvetica,sans-Serif" font-size="10.00">include_cii</text>
</a>
</g>
</g>
<!-- dir_0a2ea5ca0dbc03aa7111cf7a6cf18f1e -->
<g id="node3" class="node">
<title>dir_0a2ea5ca0dbc03aa7111cf7a6cf18f1e</title>
<g id="a_node3"><a xlink:href="dir_0a2ea5ca0dbc03aa7111cf7a6cf18f1e.html" target="_top" xlink:title="finite_volume">
<polygon fill="#edf0f7" stroke="#404040" stroke-width="2" points="128,-124 44,-124 44,-88 128,-88 128,-124"/>
<text text-anchor="middle" x="86" y="-103.5" font-family="Helvetica,sans-Serif" font-size="10.00">finite_volume</text>
</a>
</g>
</g>
<!-- dir_0a2ea5ca0dbc03aa7111cf7a6cf18f1e&#45;&gt;dir_0aa4ecdbc965570bd87fb4da401df2c8 -->
<g id="edge1" class="edge">
<title>dir_0a2ea5ca0dbc03aa7111cf7a6cf18f1e&#45;&gt;dir_0aa4ecdbc965570bd87fb4da401df2c8</title>
<path fill="none" stroke="black" d="M75.37,-87.7C70.37,-79.56 64.31,-69.69 58.79,-60.7"/>
<polygon fill="black" stroke="black" points="61.72,-58.79 53.51,-52.1 55.76,-62.46 61.72,-58.79"/>
<g id="a_edge1&#45;headlabel"><a xlink:href="dir_000001_000003.html" target="_top" xlink:title="6">
<text text-anchor="middle" x="66.02" y="-57.87" font-family="Helvetica,sans-Serif" font-size="10.00">6</text>
</a>
</g>
</g>
<!-- dir_0a2ea5ca0dbc03aa7111cf7a6cf18f1e&#45;&gt;dir_9d9130b3691fae8de17759ed0feecb0a -->
<g id="edge2" class="edge">
<title>dir_0a2ea5ca0dbc03aa7111cf7a6cf18f1e&#45;&gt;dir_9d9130b3691fae8de17759ed0feecb0a</title>
<path fill="none" stroke="black" d="M94.9,-87.7C99,-79.73 103.95,-70.1 108.49,-61.26"/>
<polygon fill="black" stroke="black" points="111.74,-62.6 113.2,-52.1 105.52,-59.4 111.74,-62.6"/>
<g id="a_edge2&#45;headlabel"><a xlink:href="dir_000001_000004.html" target="_top" xlink:title="1">
<text text-anchor="middle" x="112.62" y="-64.59" font-family="Helvetica,sans-Serif" font-size="10.00">1</text>
</a>
</g>
</g>
</g>
</svg>
