<?xml version="1.0" encoding="UTF-8" standalone="no"?>
<!DOCTYPE svg PUBLIC "-//W3C//DTD SVG 1.1//EN"
 "http://www.w3.org/Graphics/SVG/1.1/DTD/svg11.dtd">
<!-- Generated by graphviz version 6.0.1 (0)
 -->
<!-- Title: src~ Pages: 1 -->
<svg width="966pt" height="148pt"
 viewBox="0.00 0.00 966.00 148.00" xmlns="http://www.w3.org/2000/svg" xmlns:xlink="http://www.w3.org/1999/xlink">
<g id="graph0" class="graph" transform="scale(1 1) rotate(0) translate(4 144)">
<title>src~</title>
<polygon fill="white" stroke="none" points="-4,4 -4,-144 962,-144 962,4 -4,4"/>
<g id="clust1" class="cluster">
<title>clusterdir_6771aafbf413a5638c4e561417caddb9</title>
<g id="a_clust1"><a xlink:href="dir_6771aafbf413a5638c4e561417caddb9.html" target="_top">
<polygon fill="#edf0f7" stroke="#404040" stroke-width="2" points="8,-8 8,-132 950,-132 950,-8 8,-8"/>
</a>
</g>
</g>
<!-- dir_6771aafbf413a5638c4e561417caddb9 -->
<g id="node1" class="node">
<title>dir_6771aafbf413a5638c4e561417caddb9</title>
<text text-anchor="middle" x="915" y="-103.5" font-family="Helvetica,sans-Serif" font-size="10.00">src~</text>
</g>
<!-- dir_ab846451f6b2e1a7a2652f9756abe74c -->
<g id="node2" class="node">
<title>dir_ab846451f6b2e1a7a2652f9756abe74c</title>
<g id="a_node2"><a xlink:href="dir_ab846451f6b2e1a7a2652f9756abe74c.html" target="_top" xlink:title="file_io">
<polygon fill="#a2b4d6" stroke="#404040" points="870,-124 816,-124 816,-88 870,-88 870,-124"/>
<text text-anchor="middle" x="843" y="-103.5" font-family="Helvetica,sans-Serif" font-size="10.00">file_io</text>
</a>
</g>
</g>
<!-- dir_0aa4ecdbc965570bd87fb4da401df2c8 -->
<g id="node5" class="node">
<title>dir_0aa4ecdbc965570bd87fb4da401df2c8</title>
<g id="a_node5"><a xlink:href="dir_0aa4ecdbc965570bd87fb4da401df2c8.html" target="_top" xlink:title="include">
<polygon fill="#a2b4d6" stroke="#404040" points="513,-52 459,-52 459,-16 513,-16 513,-52"/>
<text text-anchor="middle" x="486" y="-31.5" font-family="Helvetica,sans-Serif" font-size="10.00">include</text>
</a>
</g>
</g>
<!-- dir_ab846451f6b2e1a7a2652f9756abe74c&#45;&gt;dir_0aa4ecdbc965570bd87fb4da401df2c8 -->
<g id="edge1" class="edge">
<title>dir_ab846451f6b2e1a7a2652f9756abe74c&#45;&gt;dir_0aa4ecdbc965570bd87fb4da401df2c8</title>
<path fill="none" stroke="black" d="M815.8,-91.2C812.87,-90 809.9,-88.91 807,-88 707.3,-56.9 584.17,-43.07 523.46,-37.8"/>
<polygon fill="black" stroke="black" points="523.48,-34.29 513.22,-36.94 522.89,-41.26 523.48,-34.29"/>
<g id="a_edge1&#45;headlabel"><a xlink:href="dir_000000_000003.html" target="_top" xlink:title="12">
<text text-anchor="middle" x="527.29" y="-29.26" font-family="Helvetica,sans-Serif" font-size="10.00">12</text>
</a>
</g>
</g>
<!-- dir_0a2ea5ca0dbc03aa7111cf7a6cf18f1e -->
<g id="node3" class="node">
<title>dir_0a2ea5ca0dbc03aa7111cf7a6cf18f1e</title>
<g id="a_node3"><a xlink:href="dir_0a2ea5ca0dbc03aa7111cf7a6cf18f1e.html" target="_top" xlink:title="finite_volume">
<polygon fill="#a2b4d6" stroke="#404040" points="322,-124 238,-124 238,-88 322,-88 322,-124"/>
<text text-anchor="middle" x="280" y="-103.5" font-family="Helvetica,sans-Serif" font-size="10.00">finite_volume</text>
</a>
</g>
</g>
<!-- dir_0a2ea5ca0dbc03aa7111cf7a6cf18f1e&#45;&gt;dir_0aa4ecdbc965570bd87fb4da401df2c8 -->
<g id="edge2" class="edge">
<title>dir_0a2ea5ca0dbc03aa7111cf7a6cf18f1e&#45;&gt;dir_0aa4ecdbc965570bd87fb4da401df2c8</title>
<path fill="none" stroke="black" d="M322.18,-90.67C359.63,-77.94 413.78,-59.54 449.42,-47.43"/>
<polygon fill="black" stroke="black" points="450.61,-50.72 458.95,-44.19 448.36,-44.09 450.61,-50.72"/>
<g id="a_edge2&#45;headlabel"><a xlink:href="dir_000001_000003.html" target="_top" xlink:title="6">
<text text-anchor="middle" x="448.12" y="-52.07" font-family="Helvetica,sans-Serif" font-size="10.00">6</text>
</a>
</g>
</g>
<!-- dir_9d9130b3691fae8de17759ed0feecb0a -->
<g id="node6" class="node">
<title>dir_9d9130b3691fae8de17759ed0feecb0a</title>
<g id="a_node6"><a xlink:href="dir_9d9130b3691fae8de17759ed0feecb0a.html" target="_top" xlink:title="include_cii">
<polygon fill="#a2b4d6" stroke="#404040" points="224,-52 156,-52 156,-16 224,-16 224,-52"/>
<text text-anchor="middle" x="190" y="-31.5" font-family="Helvetica,sans-Serif" font-size="10.00">include_cii</text>
</a>
</g>
</g>
<!-- dir_0a2ea5ca0dbc03aa7111cf7a6cf18f1e&#45;&gt;dir_9d9130b3691fae8de17759ed0feecb0a -->
<g id="edge3" class="edge">
<title>dir_0a2ea5ca0dbc03aa7111cf7a6cf18f1e&#45;&gt;dir_9d9130b3691fae8de17759ed0feecb0a</title>
<path fill="none" stroke="black" d="M257.75,-87.7C246.42,-78.88 232.47,-68.03 220.18,-58.47"/>
<polygon fill="black" stroke="black" points="222.03,-55.48 211.99,-52.1 217.74,-61.01 222.03,-55.48"/>
<g id="a_edge3&#45;headlabel"><a xlink:href="dir_000001_000004.html" target="_top" xlink:title="1">
<text text-anchor="middle" x="226.61" y="-52.95" font-family="Helvetica,sans-Serif" font-size="10.00">1</text>
</a>
</g>
</g>
<!-- dir_f3cef1072224e1cda4c4b78bb8574c95 -->
<g id="node4" class="node">
<title>dir_f3cef1072224e1cda4c4b78bb8574c95</title>
<g id="a_node4"><a xlink:href="dir_f3cef1072224e1cda4c4b78bb8574c95.html" target="_top" xlink:title="hydrocode_Radial_Lag">
<polygon fill="#a2b4d6" stroke="#404040" points="798,-124 672,-124 672,-88 798,-88 798,-124"/>
<text text-anchor="middle" x="735" y="-103.5" font-family="Helvetica,sans-Serif" font-size="10.00">hydrocode_Radial_Lag</text>
</a>
</g>
</g>
<!-- dir_f3cef1072224e1cda4c4b78bb8574c95&#45;&gt;dir_0aa4ecdbc965570bd87fb4da401df2c8 -->
<g id="edge4" class="edge">
<title>dir_f3cef1072224e1cda4c4b78bb8574c95&#45;&gt;dir_0aa4ecdbc965570bd87fb4da401df2c8</title>
<path fill="none" stroke="black" d="M674.41,-87.97C627.13,-74.68 562.99,-56.64 523.06,-45.42"/>
<polygon fill="black" stroke="black" points="523.79,-41.99 513.22,-42.65 521.9,-48.73 523.79,-41.99"/>
<g id="a_edge4&#45;headlabel"><a xlink:href="dir_000002_000003.html" target="_top" xlink:title="4">
<text text-anchor="middle" x="528.02" y="-37.73" font-family="Helvetica,sans-Serif" font-size="10.00">4</text>
</a>
</g>
</g>
<!-- dir_3a9b6b5ead3c70f7fbae7782afb6916f -->
<g id="node7" class="node">
<title>dir_3a9b6b5ead3c70f7fbae7782afb6916f</title>
<g id="a_node7"><a xlink:href="dir_3a9b6b5ead3c70f7fbae7782afb6916f.html" target="_top" xlink:title="include_cpp">
<polygon fill="#a2b4d6" stroke="#404040" points="418,-52 344,-52 344,-16 418,-16 418,-52"/>
<text text-anchor="middle" x="381" y="-31.5" font-family="Helvetica,sans-Serif" font-size="10.00">include_cpp</text>
</a>
</g>
</g>
<!-- dir_e8ef67cf99a2ba2267792f6cc6c44256 -->
<g id="node8" class="node">
<title>dir_e8ef67cf99a2ba2267792f6cc6c44256</title>
<g id="a_node8"><a xlink:href="dir_e8ef67cf99a2ba2267792f6cc6c44256.html" target="_top" xlink:title="inter_process">
<polygon fill="#a2b4d6" stroke="#404040" points="422,-124 340,-124 340,-88 422,-88 422,-124"/>
<text text-anchor="middle" x="381" y="-103.5" font-family="Helvetica,sans-Serif" font-size="10.00">inter_process</text>
</a>
</g>
</g>
<!-- dir_e8ef67cf99a2ba2267792f6cc6c44256&#45;&gt;dir_0aa4ecdbc965570bd87fb4da401df2c8 -->
<g id="edge5" class="edge">
<title>dir_e8ef67cf99a2ba2267792f6cc6c44256&#45;&gt;dir_0aa4ecdbc965570bd87fb4da401df2c8</title>
<path fill="none" stroke="black" d="M406.69,-87.88C420.29,-78.81 437.17,-67.55 451.86,-57.76"/>
<polygon fill="black" stroke="black" points="453.84,-60.65 460.22,-52.19 449.95,-54.82 453.84,-60.65"/>
<g id="a_edge5&#45;headlabel"><a xlink:href="dir_000006_000003.html" target="_top" xlink:title="5">
<text text-anchor="middle" x="452.42" y="-62.51" font-family="Helvetica,sans-Serif" font-size="10.00">5</text>
</a>
</g>
</g>
<!-- dir_e8ef67cf99a2ba2267792f6cc6c44256&#45;&gt;dir_3a9b6b5ead3c70f7fbae7782afb6916f -->
<g id="edge6" class="edge">
<title>dir_e8ef67cf99a2ba2267792f6cc6c44256&#45;&gt;dir_3a9b6b5ead3c70f7fbae7782afb6916f</title>
<path fill="none" stroke="black" d="M381,-87.7C381,-79.98 381,-70.71 381,-62.11"/>
<polygon fill="black" stroke="black" points="384.5,-62.1 381,-52.1 377.5,-62.1 384.5,-62.1"/>
<g id="a_edge6&#45;headlabel"><a xlink:href="dir_000006_000005.html" target="_top" xlink:title="1">
<text text-anchor="middle" x="387.34" y="-63.2" font-family="Helvetica,sans-Serif" font-size="10.00">1</text>
</a>
</g>
</g>
<!-- dir_30664f2b59ab3ea1d3fdaa3eb73076f0 -->
<g id="node9" class="node">
<title>dir_30664f2b59ab3ea1d3fdaa3eb73076f0</title>
<g id="a_node9"><a xlink:href="dir_30664f2b59ab3ea1d3fdaa3eb73076f0.html" target="_top" xlink:title="inter_process_cpp">
<polygon fill="#a2b4d6" stroke="#404040" points="654,-124 550,-124 550,-88 654,-88 654,-124"/>
<text text-anchor="middle" x="602" y="-103.5" font-family="Helvetica,sans-Serif" font-size="10.00">inter_process_cpp</text>
</a>
</g>
</g>
<!-- dir_30664f2b59ab3ea1d3fdaa3eb73076f0&#45;&gt;dir_0aa4ecdbc965570bd87fb4da401df2c8 -->
<g id="edge7" class="edge">
<title>dir_30664f2b59ab3ea1d3fdaa3eb73076f0&#45;&gt;dir_0aa4ecdbc965570bd87fb4da401df2c8</title>
<path fill="none" stroke="black" d="M573.62,-87.88C558.12,-78.52 538.75,-66.83 522.17,-56.83"/>
<polygon fill="black" stroke="black" points="523.66,-53.64 513.29,-51.47 520.04,-59.63 523.66,-53.64"/>
<g id="a_edge7&#45;headlabel"><a xlink:href="dir_000007_000003.html" target="_top" xlink:title="1">
<text text-anchor="middle" x="528.2" y="-50.56" font-family="Helvetica,sans-Serif" font-size="10.00">1</text>
</a>
</g>
</g>
<!-- dir_2630618ef3a05b190a35bccf01576d8f -->
<g id="node10" class="node">
<title>dir_2630618ef3a05b190a35bccf01576d8f</title>
<g id="a_node10"><a xlink:href="dir_2630618ef3a05b190a35bccf01576d8f.html" target="_top" xlink:title="meshing">
<polygon fill="#a2b4d6" stroke="#404040" points="219.5,-124 160.5,-124 160.5,-88 219.5,-88 219.5,-124"/>
<text text-anchor="middle" x="190" y="-103.5" font-family="Helvetica,sans-Serif" font-size="10.00">meshing</text>
</a>
</g>
</g>
<!-- dir_2630618ef3a05b190a35bccf01576d8f&#45;&gt;dir_0aa4ecdbc965570bd87fb4da401df2c8 -->
<g id="edge8" class="edge">
<title>dir_2630618ef3a05b190a35bccf01576d8f&#45;&gt;dir_0aa4ecdbc965570bd87fb4da401df2c8</title>
<path fill="none" stroke="black" d="M219.54,-91.28C222.7,-90.07 225.89,-88.95 229,-88 314.57,-61.96 339.92,-72.41 427,-52 434.21,-50.31 441.84,-48.29 449.15,-46.24"/>
<polygon fill="black" stroke="black" points="450.19,-49.58 458.83,-43.45 448.25,-42.85 450.19,-49.58"/>
<g id="a_edge8&#45;headlabel"><a xlink:href="dir_000008_000003.html" target="_top" xlink:title="1">
<text text-anchor="middle" x="447.52" y="-50.8" font-family="Helvetica,sans-Serif" font-size="10.00">1</text>
</a>
</g>
</g>
<!-- dir_2630618ef3a05b190a35bccf01576d8f&#45;&gt;dir_9d9130b3691fae8de17759ed0feecb0a -->
<g id="edge9" class="edge">
<title>dir_2630618ef3a05b190a35bccf01576d8f&#45;&gt;dir_9d9130b3691fae8de17759ed0feecb0a</title>
<path fill="none" stroke="black" d="M190,-87.7C190,-79.98 190,-70.71 190,-62.11"/>
<polygon fill="black" stroke="black" points="193.5,-62.1 190,-52.1 186.5,-62.1 193.5,-62.1"/>
<g id="a_edge9&#45;headlabel"><a xlink:href="dir_000008_000004.html" target="_top" xlink:title="1">
<text text-anchor="middle" x="196.34" y="-63.2" font-family="Helvetica,sans-Serif" font-size="10.00">1</text>
</a>
</g>
</g>
<!-- dir_bf60a11fb9e16029752bcd5632b70b71 -->
<g id="node11" class="node">
<title>dir_bf60a11fb9e16029752bcd5632b70b71</title>
<g id="a_node11"><a xlink:href="dir_bf60a11fb9e16029752bcd5632b70b71.html" target="_top" xlink:title="riemann_solver">
<polygon fill="#a2b4d6" stroke="#404040" points="532,-124 440,-124 440,-88 532,-88 532,-124"/>
<text text-anchor="middle" x="486" y="-103.5" font-family="Helvetica,sans-Serif" font-size="10.00">riemann_solver</text>
</a>
</g>
</g>
<!-- dir_bf60a11fb9e16029752bcd5632b70b71&#45;&gt;dir_0aa4ecdbc965570bd87fb4da401df2c8 -->
<g id="edge10" class="edge">
<title>dir_bf60a11fb9e16029752bcd5632b70b71&#45;&gt;dir_0aa4ecdbc965570bd87fb4da401df2c8</title>
<path fill="none" stroke="black" d="M486,-87.7C486,-79.98 486,-70.71 486,-62.11"/>
<polygon fill="black" stroke="black" points="489.5,-62.1 486,-52.1 482.5,-62.1 489.5,-62.1"/>
<g id="a_edge10&#45;headlabel"><a xlink:href="dir_000009_000003.html" target="_top" xlink:title="2">
<text text-anchor="middle" x="492.34" y="-63.2" font-family="Helvetica,sans-Serif" font-size="10.00">2</text>
</a>
</g>
</g>
<!-- dir_b5d802adad3896fde70ce442bbd182b6 -->
<g id="node12" class="node">
<title>dir_b5d802adad3896fde70ce442bbd182b6</title>
<g id="a_node12"><a xlink:href="dir_b5d802adad3896fde70ce442bbd182b6.html" target="_top" xlink:title="src_cii">
<polygon fill="#a2b4d6" stroke="#404040" points="142,-124 88,-124 88,-88 142,-88 142,-124"/>
<text text-anchor="middle" x="115" y="-103.5" font-family="Helvetica,sans-Serif" font-size="10.00">src_cii</text>
</a>
</g>
</g>
<!-- dir_b5d802adad3896fde70ce442bbd182b6&#45;&gt;dir_9d9130b3691fae8de17759ed0feecb0a -->
<g id="edge11" class="edge">
<title>dir_b5d802adad3896fde70ce442bbd182b6&#45;&gt;dir_9d9130b3691fae8de17759ed0feecb0a</title>
<path fill="none" stroke="black" d="M133.54,-87.7C142.8,-79.05 154.16,-68.45 164.26,-59.03"/>
<polygon fill="black" stroke="black" points="166.75,-61.49 171.67,-52.1 161.98,-56.37 166.75,-61.49"/>
<g id="a_edge11&#45;headlabel"><a xlink:href="dir_000010_000004.html" target="_top" xlink:title="3">
<text text-anchor="middle" x="166.06" y="-63.51" font-family="Helvetica,sans-Serif" font-size="10.00">3</text>
</a>
</g>
</g>
<!-- dir_f9049ab4ccfea5722647058c3f5f5939 -->
<g id="node13" class="node">
<title>dir_f9049ab4ccfea5722647058c3f5f5939</title>
<g id="a_node13"><a xlink:href="dir_f9049ab4ccfea5722647058c3f5f5939.html" target="_top" xlink:title="tools">
<polygon fill="#a2b4d6" stroke="#404040" points="70,-124 16,-124 16,-88 70,-88 70,-124"/>
<text text-anchor="middle" x="43" y="-103.5" font-family="Helvetica,sans-Serif" font-size="10.00">tools</text>
</a>
</g>
</g>
</g>
</svg>
