<?xml version="1.0" encoding="UTF-8" standalone="no"?>
<!DOCTYPE svg PUBLIC "-//W3C//DTD SVG 1.1//EN"
 "http://www.w3.org/Graphics/SVG/1.1/DTD/svg11.dtd">
<!-- Generated by graphviz version 6.0.1 (0)
 -->
<!-- Title: main Pages: 1 -->
<svg width="804pt" height="620pt"
 viewBox="0.00 0.00 804.00 620.33" xmlns="http://www.w3.org/2000/svg" xmlns:xlink="http://www.w3.org/1999/xlink">
<g id="graph0" class="graph" transform="scale(1 1) rotate(0) translate(4 616.33)">
<title>main</title>
<polygon fill="white" stroke="none" points="-4,4 -4,-616.33 800,-616.33 800,4 -4,4"/>
<!-- Node1 -->
<g id="node1" class="node">
<title>Node1</title>
<g id="a_node1"><a xlink:title="This is the main function which constructs the main structure of the radially symmetric Lagrangian hy...">
<polygon fill="#bfbfbf" stroke="black" points="0,-348.5 0,-367.5 41,-367.5 41,-348.5 0,-348.5"/>
<text text-anchor="middle" x="20.5" y="-355.5" font-family="Helvetica,sans-Serif" font-size="10.00">main</text>
</a>
</g>
</g>
<!-- Node2 -->
<g id="node2" class="node">
<title>Node2</title>
<g id="a_node2"><a xlink:href="../../d0/d49/terminal__io_8c.html#a6f9b51d91c38d3ce58786dfd84973994" target="_top" xlink:title="This is a functions preprocesses ARGuments.">
<polygon fill="white" stroke="black" points="97.5,-582.5 97.5,-601.5 188.5,-601.5 188.5,-582.5 97.5,-582.5"/>
<text text-anchor="middle" x="143" y="-589.5" font-family="Helvetica,sans-Serif" font-size="10.00">arg_preprocess</text>
</a>
</g>
</g>
<!-- Node1&#45;&gt;Node2 -->
<g id="edge1" class="edge">
<title>Node1&#45;&gt;Node2</title>
<path fill="none" stroke="midnightblue" d="M22.73,-367.75C27.71,-405.65 47.5,-542.54 77,-573 80.22,-576.32 83.98,-579.07 88.04,-581.34"/>
<polygon fill="midnightblue" stroke="midnightblue" points="86.77,-584.61 97.32,-585.6 89.69,-578.25 86.77,-584.61"/>
</g>
<!-- Node3 -->
<g id="node3" class="node">
<title>Node3</title>
<g id="a_node3"><a xlink:href="../../df/d38/file__1_d__out_8c.html#a5edc2b6fa84841a6fb96918b065603cb" target="_top" xlink:title="This function write the 1&#45;D solution into output &#39;.dat&#39; files.">
<polygon fill="white" stroke="black" points="102.5,-506.5 102.5,-525.5 183.5,-525.5 183.5,-506.5 102.5,-506.5"/>
<text text-anchor="middle" x="143" y="-513.5" font-family="Helvetica,sans-Serif" font-size="10.00">file_1D_write</text>
</a>
</g>
</g>
<!-- Node1&#45;&gt;Node3 -->
<g id="edge2" class="edge">
<title>Node1&#45;&gt;Node3</title>
<path fill="none" stroke="midnightblue" d="M24.7,-367.59C31.74,-387.68 50.12,-434.95 77,-467 88.22,-480.37 103.74,-492.25 116.8,-500.96"/>
<polygon fill="midnightblue" stroke="midnightblue" points="115.06,-504 125.37,-506.46 118.85,-498.11 115.06,-504"/>
</g>
<!-- Node7 -->
<g id="node7" class="node">
<title>Node7</title>
<g id="a_node7"><a xlink:href="../../d4/d39/file__out__hdf5_8c.html#a183247d78d231c5a6fc920674e92d857" target="_top" xlink:title="This function write the 1&#45;D solution into HDF5 output &#39;.h5&#39; files.">
<polygon fill="white" stroke="black" points="86.5,-544.5 86.5,-563.5 199.5,-563.5 199.5,-544.5 86.5,-544.5"/>
<text text-anchor="middle" x="143" y="-551.5" font-family="Helvetica,sans-Serif" font-size="10.00">file_1D_write_HDF5</text>
</a>
</g>
</g>
<!-- Node1&#45;&gt;Node7 -->
<g id="edge6" class="edge">
<title>Node1&#45;&gt;Node7</title>
<path fill="none" stroke="midnightblue" d="M21.54,-367.65C22.18,-397.18 28.26,-487.2 77,-535 78.48,-536.45 80.06,-537.79 81.73,-539.03"/>
<polygon fill="midnightblue" stroke="midnightblue" points="80.29,-542.25 90.66,-544.42 83.91,-536.26 80.29,-542.25"/>
</g>
<!-- Node8 -->
<g id="node8" class="node">
<title>Node8</title>
<g id="a_node8"><a xlink:href="../../d1/df9/file__radial__out_8c.html#adaf9f8109eb6c852fcaf47aa8c21156c" target="_top" xlink:title="This function write the radially symmetric 2&#45;D solution into Tecplot output &#39;.tec&#39; files.">
<polygon fill="white" stroke="black" points="249.5,-494.5 249.5,-513.5 368.5,-513.5 368.5,-494.5 249.5,-494.5"/>
<text text-anchor="middle" x="309" y="-501.5" font-family="Helvetica,sans-Serif" font-size="10.00">file_radial_write_TEC</text>
</a>
</g>
</g>
<!-- Node1&#45;&gt;Node8 -->
<g id="edge8" class="edge">
<title>Node1&#45;&gt;Node8</title>
<path fill="none" stroke="midnightblue" d="M35.82,-367.66C70.43,-390.66 161.93,-449.41 245,-485 250.31,-487.28 255.99,-489.4 261.68,-491.33"/>
<polygon fill="midnightblue" stroke="midnightblue" points="260.6,-494.66 271.19,-494.41 262.75,-488 260.6,-494.66"/>
</g>
<!-- Node9 -->
<g id="node9" class="node">
<title>Node9</title>
<g id="a_node9"><a xlink:href="../../d5/d63/grp__solver__radial___l_a_g__source_8c.html#a30b48b52a21ad448fd96c27727760837" target="_top" xlink:title="This function use GRP scheme to solve radially(cylindrically) symmetric compressible flows of motion ...">
<polygon fill="white" stroke="black" points="77.5,-343 77.5,-373 208.5,-373 208.5,-343 77.5,-343"/>
<text text-anchor="start" x="85.5" y="-361" font-family="Helvetica,sans-Serif" font-size="10.00">GRP_solver_radial_LAG</text>
<text text-anchor="middle" x="143" y="-350" font-family="Helvetica,sans-Serif" font-size="10.00">_source</text>
</a>
</g>
</g>
<!-- Node1&#45;&gt;Node9 -->
<g id="edge10" class="edge">
<title>Node1&#45;&gt;Node9</title>
<path fill="none" stroke="midnightblue" d="M41.13,-358C48.6,-358 57.64,-358 67.19,-358"/>
<polygon fill="midnightblue" stroke="midnightblue" points="67.29,-361.5 77.29,-358 67.29,-354.5 67.29,-361.5"/>
</g>
<!-- Node20 -->
<g id="node20" class="node">
<title>Node20</title>
<g id="a_node20"><a xlink:href="../../dc/d3e/radial__mesh_8c.html#a5100b85f7a6a99a8798c4f0b66ab4853" target="_top" xlink:title="This function updates radially symmetric meshing variables after each time step update.">
<polygon fill="white" stroke="black" points="251,-152.5 251,-171.5 367,-171.5 367,-152.5 251,-152.5"/>
<text text-anchor="middle" x="309" y="-159.5" font-family="Helvetica,sans-Serif" font-size="10.00">radial_mesh_update</text>
</a>
</g>
</g>
<!-- Node1&#45;&gt;Node20 -->
<g id="edge50" class="edge">
<title>Node1&#45;&gt;Node20</title>
<path fill="none" stroke="midnightblue" d="M41.05,-348.86C51.57,-344.11 64.86,-338.4 77,-334 134.51,-313.16 165.34,-337.85 209,-295 246.92,-257.78 207.19,-218.33 245,-181 246.46,-179.56 248.03,-178.22 249.69,-176.99"/>
<polygon fill="midnightblue" stroke="midnightblue" points="251.8,-179.79 258.54,-171.62 248.18,-173.81 251.8,-179.79"/>
</g>
<!-- Node30 -->
<g id="node30" class="node">
<title>Node30</title>
<g id="a_node30"><a xlink:href="../../d9/d89/file__1_d__in_8c.html#afa89583d6583e954878dee9bab9cf7d9" target="_top" xlink:title="This function reads the 1&#45;D initial data file of density/velocity/pressure and performs some other in...">
<polygon fill="white" stroke="black" points="104.5,-266.5 104.5,-285.5 181.5,-285.5 181.5,-266.5 104.5,-266.5"/>
<text text-anchor="middle" x="143" y="-273.5" font-family="Helvetica,sans-Serif" font-size="10.00">initialize_1D</text>
</a>
</g>
</g>
<!-- Node1&#45;&gt;Node30 -->
<g id="edge39" class="edge">
<title>Node1&#45;&gt;Node30</title>
<path fill="none" stroke="midnightblue" d="M28.36,-348.49C37.95,-335.82 56.49,-313.45 77,-300 83.29,-295.87 90.39,-292.33 97.53,-289.33"/>
<polygon fill="midnightblue" stroke="midnightblue" points="99.15,-292.45 107.21,-285.58 96.62,-285.93 99.15,-292.45"/>
</g>
<!-- Node38 -->
<g id="node38" class="node">
<title>Node38</title>
<g id="a_node38"><a xlink:href="../../dc/d3e/radial__mesh_8c.html#a9996f25a5f0ec5e3d8b448b507ba7138" target="_top" xlink:title="This function initializes radially symmetric meshing variables.">
<polygon fill="white" stroke="black" points="94,-228.5 94,-247.5 192,-247.5 192,-228.5 94,-228.5"/>
<text text-anchor="middle" x="143" y="-235.5" font-family="Helvetica,sans-Serif" font-size="10.00">radial_mesh_init</text>
</a>
</g>
</g>
<!-- Node1&#45;&gt;Node38 -->
<g id="edge48" class="edge">
<title>Node1&#45;&gt;Node38</title>
<path fill="none" stroke="midnightblue" d="M24.09,-348.31C29.97,-328.18 46.26,-281.67 77,-257 79.4,-255.08 81.98,-253.35 84.7,-251.79"/>
<polygon fill="midnightblue" stroke="midnightblue" points="86.25,-254.93 93.7,-247.4 83.18,-248.64 86.25,-254.93"/>
</g>
<!-- Node39 -->
<g id="node39" class="node">
<title>Node39</title>
<g id="a_node39"><a xlink:href="../../dc/d3e/radial__mesh_8c.html#aabdf09c523c722e0c1cd31c9be159d37" target="_top" xlink:title="This function free memory for storing radially symmetric meshing variables.">
<polygon fill="white" stroke="black" points="77,-190.5 77,-209.5 209,-209.5 209,-190.5 77,-190.5"/>
<text text-anchor="middle" x="143" y="-197.5" font-family="Helvetica,sans-Serif" font-size="10.00">radial_mesh_mem_free</text>
</a>
</g>
</g>
<!-- Node1&#45;&gt;Node39 -->
<g id="edge49" class="edge">
<title>Node1&#45;&gt;Node39</title>
<path fill="none" stroke="midnightblue" d="M22.49,-348.28C25.59,-323.07 37.39,-255 77,-219 78.73,-217.43 80.59,-215.98 82.54,-214.66"/>
<polygon fill="midnightblue" stroke="midnightblue" points="84.58,-217.52 91.59,-209.58 81.16,-211.42 84.58,-217.52"/>
</g>
<!-- Node4 -->
<g id="node4" class="node">
<title>Node4</title>
<g id="a_node4"><a xlink:href="../../d2/de0/config__handle_8c.html#a639a61ad0229b057258f8bc6edc4d050" target="_top" xlink:title="This function write configuration data and program record into the file &#39;log.dat&#39;.">
<polygon fill="white" stroke="black" points="270.5,-570.5 270.5,-589.5 347.5,-589.5 347.5,-570.5 270.5,-570.5"/>
<text text-anchor="middle" x="309" y="-577.5" font-family="Helvetica,sans-Serif" font-size="10.00">config_write</text>
</a>
</g>
</g>
<!-- Node3&#45;&gt;Node4 -->
<g id="edge3" class="edge">
<title>Node3&#45;&gt;Node4</title>
<path fill="none" stroke="midnightblue" d="M182.36,-525.53C191.25,-528.2 200.58,-531.38 209,-535 226.02,-542.32 228.29,-548.01 245,-556 253.13,-559.89 262.07,-563.61 270.6,-566.91"/>
<polygon fill="midnightblue" stroke="midnightblue" points="269.4,-570.2 279.99,-570.45 271.86,-563.65 269.4,-570.2"/>
</g>
<!-- Node5 -->
<g id="node5" class="node">
<title>Node5</title>
<g id="a_node5"><a xlink:href="../../d4/de5/io__control_8c.html#a7e039d23ca87a439fbe9c9d336447887" target="_top" xlink:title="This function produces folder path for data input or output.">
<polygon fill="white" stroke="black" points="438.5,-513.5 438.5,-532.5 512.5,-532.5 512.5,-513.5 438.5,-513.5"/>
<text text-anchor="middle" x="475.5" y="-520.5" font-family="Helvetica,sans-Serif" font-size="10.00">example_io</text>
</a>
</g>
</g>
<!-- Node3&#45;&gt;Node5 -->
<g id="edge4" class="edge">
<title>Node3&#45;&gt;Node5</title>
<path fill="none" stroke="midnightblue" d="M183.78,-519.4C202.37,-520.82 224.8,-522.3 245,-523 308.49,-525.2 381.92,-524.66 428.28,-523.94"/>
<polygon fill="midnightblue" stroke="midnightblue" points="428.37,-527.44 438.31,-523.77 428.26,-520.44 428.37,-527.44"/>
</g>
<!-- Node6 -->
<g id="node6" class="node">
<title>Node6</title>
<g id="a_node6"><a xlink:href="../../d4/ddd/sys__pro_8c.html#a40a5faeb19b1fd9aec2c5c10a87faeb4" target="_top" xlink:title="This is a function that recursively creates folders.">
<polygon fill="white" stroke="black" points="591,-513.5 591,-532.5 654,-532.5 654,-513.5 591,-513.5"/>
<text text-anchor="middle" x="622.5" y="-520.5" font-family="Helvetica,sans-Serif" font-size="10.00">CreateDir</text>
</a>
</g>
</g>
<!-- Node5&#45;&gt;Node6 -->
<g id="edge5" class="edge">
<title>Node5&#45;&gt;Node6</title>
<path fill="none" stroke="midnightblue" d="M512.72,-523C533.33,-523 559.22,-523 580.57,-523"/>
<polygon fill="midnightblue" stroke="midnightblue" points="580.65,-526.5 590.65,-523 580.65,-519.5 580.65,-526.5"/>
</g>
<!-- Node7&#45;&gt;Node5 -->
<g id="edge7" class="edge">
<title>Node7&#45;&gt;Node5</title>
<path fill="none" stroke="midnightblue" d="M184.68,-563.57C192.93,-566.15 201.4,-569.28 209,-573 226.73,-581.67 226.22,-592.93 245,-599 299.13,-616.5 319.02,-616.97 373,-599 407.91,-587.38 440.5,-558.54 458.92,-539.92"/>
<polygon fill="midnightblue" stroke="midnightblue" points="461.5,-542.28 465.91,-532.64 456.46,-537.43 461.5,-542.28"/>
</g>
<!-- Node8&#45;&gt;Node5 -->
<g id="edge9" class="edge">
<title>Node8&#45;&gt;Node5</title>
<path fill="none" stroke="midnightblue" d="M368.92,-510.81C388.43,-513.06 409.86,-515.53 428.27,-517.66"/>
<polygon fill="midnightblue" stroke="midnightblue" points="428.11,-521.17 438.45,-518.84 428.92,-514.21 428.11,-521.17"/>
</g>
<!-- Node9&#45;&gt;Node8 -->
<g id="edge16" class="edge">
<title>Node9&#45;&gt;Node8</title>
<path fill="none" stroke="midnightblue" d="M156.28,-373.18C169.39,-389.43 190.75,-415.97 209,-439 225.12,-459.35 223.57,-470.34 245,-485 247.92,-487 251.05,-488.79 254.3,-490.39"/>
<polygon fill="midnightblue" stroke="midnightblue" points="253.14,-493.7 263.71,-494.45 255.91,-487.27 253.14,-493.7"/>
</g>
<!-- Node10 -->
<g id="node10" class="node">
<title>Node10</title>
<g id="a_node10"><a xlink:href="../../d0/d4c/linear__grp__solver__radial___l_a_g_8c.html#a610438bbb2947674abfd9699a2f77bce" target="_top" xlink:title="A GRP solver for unsteady compressible inviscid two&#45;component flow in tangential case....">
<polygon fill="white" stroke="black" points="249,-304.5 249,-323.5 369,-323.5 369,-304.5 249,-304.5"/>
<text text-anchor="middle" x="309" y="-311.5" font-family="Helvetica,sans-Serif" font-size="10.00">AcousticRLagTangent</text>
</a>
</g>
</g>
<!-- Node9&#45;&gt;Node10 -->
<g id="edge11" class="edge">
<title>Node9&#45;&gt;Node10</title>
<path fill="none" stroke="midnightblue" d="M199.98,-342.98C220.37,-337.51 243.15,-331.4 262.51,-326.2"/>
<polygon fill="midnightblue" stroke="midnightblue" points="263.55,-329.55 272.3,-323.58 261.73,-322.79 263.55,-329.55"/>
</g>
<!-- Node14 -->
<g id="node14" class="node">
<title>Node14</title>
<g id="a_node14"><a xlink:href="../../d4/ddd/sys__pro_8c.html#aab058cac35713b52c083b9e54ffa45eb" target="_top" xlink:title="This function print a progress bar on one line of standard output.">
<polygon fill="white" stroke="black" points="282,-418.5 282,-437.5 336,-437.5 336,-418.5 282,-418.5"/>
<text text-anchor="middle" x="309" y="-425.5" font-family="Helvetica,sans-Serif" font-size="10.00">DispPro</text>
</a>
</g>
</g>
<!-- Node9&#45;&gt;Node14 -->
<g id="edge15" class="edge">
<title>Node9&#45;&gt;Node14</title>
<path fill="none" stroke="midnightblue" d="M170.84,-373.17C190.86,-384.09 219.1,-398.65 245,-409 253.63,-412.45 263.14,-415.63 272.1,-418.36"/>
<polygon fill="midnightblue" stroke="midnightblue" points="271.32,-421.77 281.9,-421.24 273.29,-415.06 271.32,-421.77"/>
</g>
<!-- Node15 -->
<g id="node15" class="node">
<title>Node15</title>
<g id="a_node15"><a xlink:href="../../d0/d4c/linear__grp__solver__radial___l_a_g_8c.html#a9e85c30c34532bb9d3582acab5134689" target="_top" xlink:title="A GRP solver for unsteady compressible inviscid two&#45;component flow. Lagrangian version (moving mesh) ...">
<polygon fill="white" stroke="black" points="263.5,-342.5 263.5,-361.5 354.5,-361.5 354.5,-342.5 263.5,-342.5"/>
<text text-anchor="middle" x="309" y="-349.5" font-family="Helvetica,sans-Serif" font-size="10.00">GRPsolverRLag</text>
</a>
</g>
</g>
<!-- Node9&#45;&gt;Node15 -->
<g id="edge17" class="edge">
<title>Node9&#45;&gt;Node15</title>
<path fill="none" stroke="midnightblue" d="M208.82,-355.63C223.51,-355.09 238.98,-354.53 253.22,-354"/>
<polygon fill="midnightblue" stroke="midnightblue" points="253.47,-357.5 263.34,-353.63 253.21,-350.5 253.47,-357.5"/>
</g>
<!-- Node16 -->
<g id="node16" class="node">
<title>Node16</title>
<g id="a_node16"><a xlink:href="../../d7/d5a/fluid__var__check_8c.html#a29ead600b8eb62cb272068d83dadcc46" target="_top" xlink:title="This function checks whether interfacial fluid variables are within the value range.">
<polygon fill="white" stroke="black" points="272.5,-380.5 272.5,-399.5 345.5,-399.5 345.5,-380.5 272.5,-380.5"/>
<text text-anchor="middle" x="309" y="-387.5" font-family="Helvetica,sans-Serif" font-size="10.00">ifvar_check</text>
</a>
</g>
</g>
<!-- Node9&#45;&gt;Node16 -->
<g id="edge19" class="edge">
<title>Node9&#45;&gt;Node16</title>
<path fill="none" stroke="midnightblue" d="M208.82,-370.65C226.76,-374.15 245.85,-377.87 262.45,-381.11"/>
<polygon fill="midnightblue" stroke="midnightblue" points="261.94,-384.58 272.42,-383.06 263.28,-377.71 261.94,-384.58"/>
</g>
<!-- Node17 -->
<g id="node17" class="node">
<title>Node17</title>
<g id="a_node17"><a xlink:href="../../d9/d8f/slope__limiter__radial_8c.html#a66820f2e6ed9d6e24ab4846b555afb03" target="_top" xlink:title="This function apply the minmod limiter to the slope in radially symmetric case.">
<polygon fill="white" stroke="black" points="245,-190.5 245,-209.5 373,-209.5 373,-190.5 245,-190.5"/>
<text text-anchor="middle" x="309" y="-197.5" font-family="Helvetica,sans-Serif" font-size="10.00">minmod_limiter_radial</text>
</a>
</g>
</g>
<!-- Node9&#45;&gt;Node17 -->
<g id="edge20" class="edge">
<title>Node9&#45;&gt;Node17</title>
<path fill="none" stroke="midnightblue" d="M189.57,-342.88C196.78,-338.93 203.62,-334.03 209,-328 242.97,-289.94 208.46,-254.6 245,-219 246.63,-217.41 248.39,-215.96 250.24,-214.62"/>
<polygon fill="midnightblue" stroke="midnightblue" points="252.07,-217.61 258.91,-209.52 248.51,-211.58 252.07,-217.61"/>
</g>
<!-- Node9&#45;&gt;Node20 -->
<g id="edge23" class="edge">
<title>Node9&#45;&gt;Node20</title>
<path fill="none" stroke="midnightblue" d="M190.64,-342.86C197.55,-338.93 204.02,-334.04 209,-328 251.78,-276.09 198.71,-229.8 245,-181 246.39,-179.54 247.88,-178.19 249.46,-176.94"/>
<polygon fill="midnightblue" stroke="midnightblue" points="251.42,-179.84 257.98,-171.52 247.66,-173.94 251.42,-179.84"/>
</g>
<!-- Node21 -->
<g id="node21" class="node">
<title>Node21</title>
<g id="a_node21"><a xlink:href="../../d7/d5a/fluid__var__check_8c.html#a0177056576942ce464bb53db4dcb5138" target="_top" xlink:title="This function checks whether fluid variables of mid[] and dire[] are within the value range.">
<polygon fill="white" stroke="black" points="262.5,-456.5 262.5,-475.5 355.5,-475.5 355.5,-456.5 262.5,-456.5"/>
<text text-anchor="middle" x="309" y="-463.5" font-family="Helvetica,sans-Serif" font-size="10.00">star_dire_check</text>
</a>
</g>
</g>
<!-- Node9&#45;&gt;Node21 -->
<g id="edge24" class="edge">
<title>Node9&#45;&gt;Node21</title>
<path fill="none" stroke="midnightblue" d="M157.2,-373.12C175.18,-392.83 209.26,-427.12 245,-447 248.92,-449.18 253.13,-451.14 257.44,-452.9"/>
<polygon fill="midnightblue" stroke="midnightblue" points="256.36,-456.23 266.96,-456.42 258.79,-449.67 256.36,-456.23"/>
</g>
<!-- Node22 -->
<g id="node22" class="node">
<title>Node22</title>
<g id="a_node22"><a xlink:href="../../d6/df2/slope___v_i_p__limiter__radial_8c.html#aaaa06c143daec504594545993241e747" target="_top" xlink:title="This function apply the VIP/minmod limiter to the slope of the fluid velocity in radially symmetric c...">
<polygon fill="white" stroke="black" points="257.5,-228.5 257.5,-247.5 360.5,-247.5 360.5,-228.5 257.5,-228.5"/>
<text text-anchor="middle" x="309" y="-235.5" font-family="Helvetica,sans-Serif" font-size="10.00">VIP_limiter_radial</text>
</a>
</g>
</g>
<!-- Node9&#45;&gt;Node22 -->
<g id="edge25" class="edge">
<title>Node9&#45;&gt;Node22</title>
<path fill="none" stroke="midnightblue" d="M181.85,-342.93C191.03,-338.63 200.62,-333.58 209,-328 227.07,-315.98 228.95,-309.61 245,-295 260.03,-281.31 277.13,-265.84 289.72,-254.48"/>
<polygon fill="midnightblue" stroke="midnightblue" points="292.2,-256.96 297.28,-247.66 287.51,-251.76 292.2,-256.96"/>
</g>
<!-- Node11 -->
<g id="node11" class="node">
<title>Node11</title>
<g id="a_node11"><a xlink:href="../../d2/d49/riemann__solver__star_p_u_8c.html#a9874cf3a84e2f4ba605b078faeb4b62a" target="_top" xlink:title="EXACT RIEMANN SOLVER FOR Two&#45;Component γ&#45;Law Gas">
<polygon fill="white" stroke="black" points="409,-342.5 409,-361.5 542,-361.5 542,-342.5 409,-342.5"/>
<text text-anchor="middle" x="475.5" y="-349.5" font-family="Helvetica,sans-Serif" font-size="10.00">Riemann_solver_starPU</text>
</a>
</g>
</g>
<!-- Node10&#45;&gt;Node11 -->
<g id="edge12" class="edge">
<title>Node10&#45;&gt;Node11</title>
<path fill="none" stroke="midnightblue" d="M351.51,-323.59C373.32,-328.63 400.23,-334.84 423.32,-340.18"/>
<polygon fill="midnightblue" stroke="midnightblue" points="422.76,-343.64 433.29,-342.48 424.33,-336.82 422.76,-343.64"/>
</g>
<!-- Node12 -->
<g id="node12" class="node">
<title>Node12</title>
<g id="a_node12"><a xlink:href="../../d2/d49/riemann__solver__star_p_u_8c.html#a9e810193004adbabfe0e143efb93ff04" target="_top" xlink:title="Provide a guess value for pressure PM in the Star Region.">
<polygon fill="white" stroke="black" points="596,-342.5 596,-361.5 649,-361.5 649,-342.5 596,-342.5"/>
<text text-anchor="middle" x="622.5" y="-349.5" font-family="Helvetica,sans-Serif" font-size="10.00">GuessP</text>
</a>
</g>
</g>
<!-- Node11&#45;&gt;Node12 -->
<g id="edge13" class="edge">
<title>Node11&#45;&gt;Node12</title>
<path fill="none" stroke="midnightblue" d="M542.21,-352C557.23,-352 572.64,-352 585.83,-352"/>
<polygon fill="midnightblue" stroke="midnightblue" points="585.89,-355.5 595.89,-352 585.89,-348.5 585.89,-355.5"/>
</g>
<!-- Node13 -->
<g id="node13" class="node">
<title>Node13</title>
<g id="a_node13"><a xlink:href="../../d2/d49/riemann__solver__star_p_u_8c.html#a751e4af4442c32ecdfb4e82e2c50dbd3" target="_top" xlink:title="Evaluate the pressure functions FL and FR in exact Riemann solver.">
<polygon fill="white" stroke="black" points="597.5,-380.5 597.5,-399.5 647.5,-399.5 647.5,-380.5 597.5,-380.5"/>
<text text-anchor="middle" x="622.5" y="-387.5" font-family="Helvetica,sans-Serif" font-size="10.00">PreFun</text>
</a>
</g>
</g>
<!-- Node11&#45;&gt;Node13 -->
<g id="edge14" class="edge">
<title>Node11&#45;&gt;Node13</title>
<path fill="none" stroke="midnightblue" d="M513.09,-361.59C535.93,-367.58 565.14,-375.23 587.49,-381.09"/>
<polygon fill="midnightblue" stroke="midnightblue" points="586.66,-384.49 597.22,-383.64 588.43,-377.72 586.66,-384.49"/>
</g>
<!-- Node15&#45;&gt;Node11 -->
<g id="edge18" class="edge">
<title>Node15&#45;&gt;Node11</title>
<path fill="none" stroke="midnightblue" d="M354.52,-352C368.12,-352 383.49,-352 398.57,-352"/>
<polygon fill="midnightblue" stroke="midnightblue" points="398.94,-355.5 408.94,-352 398.94,-348.5 398.94,-355.5"/>
</g>
<!-- Node18 -->
<g id="node18" class="node">
<title>Node18</title>
<g id="a_node18"><a xlink:href="../../d5/da5/tools_8h.html#a56cac3298eeead8cf22c1e61eb5a5a88" target="_top" xlink:title="Minmod limiter function of two variables.">
<polygon fill="white" stroke="black" points="444,-190.5 444,-209.5 507,-209.5 507,-190.5 444,-190.5"/>
<text text-anchor="middle" x="475.5" y="-197.5" font-family="Helvetica,sans-Serif" font-size="10.00">minmod2</text>
</a>
</g>
</g>
<!-- Node17&#45;&gt;Node18 -->
<g id="edge21" class="edge">
<title>Node17&#45;&gt;Node18</title>
<path fill="none" stroke="midnightblue" d="M373.13,-200C393.52,-200 415.58,-200 433.89,-200"/>
<polygon fill="midnightblue" stroke="midnightblue" points="433.92,-203.5 443.92,-200 433.92,-196.5 433.92,-203.5"/>
</g>
<!-- Node19 -->
<g id="node19" class="node">
<title>Node19</title>
<g id="a_node19"><a xlink:href="../../d5/da5/tools_8h.html#a6dfba28e1af33b47f4656d3738996fe9" target="_top" xlink:title="Minmod limiter function of three variables.">
<polygon fill="white" stroke="black" points="444,-228.5 444,-247.5 507,-247.5 507,-228.5 444,-228.5"/>
<text text-anchor="middle" x="475.5" y="-235.5" font-family="Helvetica,sans-Serif" font-size="10.00">minmod3</text>
</a>
</g>
</g>
<!-- Node17&#45;&gt;Node19 -->
<g id="edge22" class="edge">
<title>Node17&#45;&gt;Node19</title>
<path fill="none" stroke="midnightblue" d="M351.51,-209.59C376.77,-215.42 408.9,-222.85 433.98,-228.64"/>
<polygon fill="midnightblue" stroke="midnightblue" points="433.38,-232.09 443.91,-230.93 434.95,-225.27 433.38,-232.09"/>
</g>
<!-- Node22&#45;&gt;Node18 -->
<g id="edge26" class="edge">
<title>Node22&#45;&gt;Node18</title>
<path fill="none" stroke="midnightblue" d="M351.51,-228.41C376.77,-222.58 408.9,-215.15 433.98,-209.36"/>
<polygon fill="midnightblue" stroke="midnightblue" points="434.95,-212.73 443.91,-207.07 433.38,-205.91 434.95,-212.73"/>
</g>
<!-- Node22&#45;&gt;Node19 -->
<g id="edge27" class="edge">
<title>Node22&#45;&gt;Node19</title>
<path fill="none" stroke="midnightblue" d="M360.7,-238C384.17,-238 411.68,-238 433.77,-238"/>
<polygon fill="midnightblue" stroke="midnightblue" points="433.82,-241.5 443.82,-238 433.82,-234.5 433.82,-241.5"/>
</g>
<!-- Node23 -->
<g id="node23" class="node">
<title>Node23</title>
<g id="a_node23"><a xlink:href="../../d6/d7d/_v_i_p_limiter_8cpp.html#a797681bc7e6c787bc98d26f2fc508973" target="_top" xlink:title="Subroutine of using VIP limiter for 2D velocity vector.">
<polygon fill="white" stroke="black" points="433.5,-266.5 433.5,-285.5 517.5,-285.5 517.5,-266.5 433.5,-266.5"/>
<text text-anchor="middle" x="475.5" y="-273.5" font-family="Helvetica,sans-Serif" font-size="10.00">useVIPLimiter</text>
</a>
</g>
</g>
<!-- Node22&#45;&gt;Node23 -->
<g id="edge28" class="edge">
<title>Node22&#45;&gt;Node23</title>
<path fill="none" stroke="midnightblue" d="M351.51,-247.59C373.32,-252.63 400.23,-258.84 423.32,-264.18"/>
<polygon fill="midnightblue" stroke="midnightblue" points="422.76,-267.64 433.29,-266.48 424.33,-260.82 422.76,-267.64"/>
</g>
<!-- Node24 -->
<g id="node24" class="node">
<title>Node24</title>
<g id="a_node24"><a xlink:href="../../d6/d7d/_v_i_p_limiter_8cpp.html#aa2e364f2941c012203e62b27d509a605" target="_top" xlink:title=" ">
<polygon fill="white" stroke="black" points="716,-285.5 716,-304.5 783,-304.5 783,-285.5 716,-285.5"/>
<text text-anchor="middle" x="749.5" y="-292.5" font-family="Helvetica,sans-Serif" font-size="10.00">getTriArea</text>
</a>
</g>
</g>
<!-- Node23&#45;&gt;Node24 -->
<g id="edge29" class="edge">
<title>Node23&#45;&gt;Node24</title>
<path fill="none" stroke="midnightblue" d="M517.74,-285.51C536.08,-289.28 558.01,-293.14 578,-295 621.27,-299.02 670.99,-298.43 705.52,-297.19"/>
<polygon fill="midnightblue" stroke="midnightblue" points="705.88,-300.68 715.73,-296.79 705.6,-293.69 705.88,-300.68"/>
</g>
<!-- Node25 -->
<g id="node25" class="node">
<title>Node25</title>
<g id="a_node25"><a xlink:href="../../d6/d7d/_v_i_p_limiter_8cpp.html#a9d0226d29242b8bcd92a632ad1fcbb9b" target="_top" xlink:title=" ">
<polygon fill="white" stroke="black" points="579.5,-228.5 579.5,-247.5 665.5,-247.5 665.5,-228.5 579.5,-228.5"/>
<text text-anchor="middle" x="622.5" y="-235.5" font-family="Helvetica,sans-Serif" font-size="10.00">insideQuadCH</text>
</a>
</g>
</g>
<!-- Node23&#45;&gt;Node25 -->
<g id="edge30" class="edge">
<title>Node23&#45;&gt;Node25</title>
<path fill="none" stroke="midnightblue" d="M513.09,-266.41C531.97,-261.46 555.19,-255.38 575.29,-250.11"/>
<polygon fill="midnightblue" stroke="midnightblue" points="576.39,-253.44 585.17,-247.52 574.61,-246.67 576.39,-253.44"/>
</g>
<!-- Node27 -->
<g id="node27" class="node">
<title>Node27</title>
<g id="a_node27"><a xlink:href="../../d6/d7d/_v_i_p_limiter_8cpp.html#ac879daee268a950b8be834e47c9d37b2" target="_top" xlink:title=" ">
<polygon fill="white" stroke="black" points="711,-190.5 711,-209.5 788,-209.5 788,-190.5 711,-190.5"/>
<text text-anchor="middle" x="749.5" y="-197.5" font-family="Helvetica,sans-Serif" font-size="10.00">obtuseAngle</text>
</a>
</g>
</g>
<!-- Node23&#45;&gt;Node27 -->
<g id="edge38" class="edge">
<title>Node23&#45;&gt;Node27</title>
<path fill="none" stroke="midnightblue" d="M517.61,-269.79C526.37,-266.98 535.06,-262.91 542,-257 570.46,-232.77 546.42,-200.99 578,-181 621.36,-153.56 683.59,-171.66 719.65,-186.43"/>
<polygon fill="midnightblue" stroke="midnightblue" points="718.51,-189.76 729.08,-190.47 721.27,-183.32 718.51,-189.76"/>
</g>
<!-- Node28 -->
<g id="node28" class="node">
<title>Node28</title>
<g id="a_node28"><a xlink:href="../../d6/d7d/_v_i_p_limiter_8cpp.html#a904665fb564a0750ebc460f9f31366eb" target="_top" xlink:title=" ">
<polygon fill="white" stroke="black" points="578,-266.5 578,-285.5 667,-285.5 667,-266.5 578,-266.5"/>
<text text-anchor="middle" x="622.5" y="-273.5" font-family="Helvetica,sans-Serif" font-size="10.00">insideSegment</text>
</a>
</g>
</g>
<!-- Node23&#45;&gt;Node28 -->
<g id="edge33" class="edge">
<title>Node23&#45;&gt;Node28</title>
<path fill="none" stroke="midnightblue" d="M517.66,-276C533.26,-276 551.26,-276 567.85,-276"/>
<polygon fill="midnightblue" stroke="midnightblue" points="567.96,-279.5 577.96,-276 567.96,-272.5 567.96,-279.5"/>
</g>
<!-- Node29 -->
<g id="node29" class="node">
<title>Node29</title>
<g id="a_node29"><a xlink:href="../../d6/d7d/_v_i_p_limiter_8cpp.html#a4926d1cbff5b2f8531a0d136f4cf05ae" target="_top" xlink:title=" ">
<polygon fill="white" stroke="black" points="586.5,-190.5 586.5,-209.5 658.5,-209.5 658.5,-190.5 586.5,-190.5"/>
<text text-anchor="middle" x="622.5" y="-197.5" font-family="Helvetica,sans-Serif" font-size="10.00">insideTriCH</text>
</a>
</g>
</g>
<!-- Node23&#45;&gt;Node29 -->
<g id="edge35" class="edge">
<title>Node23&#45;&gt;Node29</title>
<path fill="none" stroke="midnightblue" d="M517.74,-267.65C526.12,-264.98 534.62,-261.5 542,-257 561.87,-244.89 558.96,-232.37 578,-219 580.4,-217.31 582.98,-215.73 585.63,-214.25"/>
<polygon fill="midnightblue" stroke="midnightblue" points="587.46,-217.25 594.83,-209.63 584.32,-210.99 587.46,-217.25"/>
</g>
<!-- Node26 -->
<g id="node26" class="node">
<title>Node26</title>
<g id="a_node26"><a xlink:href="../../d6/d7d/_v_i_p_limiter_8cpp.html#ae4c30e0ecabf2aec36a073f3a8123696" target="_top" xlink:title=" ">
<polygon fill="white" stroke="black" points="703,-228.5 703,-247.5 796,-247.5 796,-228.5 703,-228.5"/>
<text text-anchor="middle" x="749.5" y="-235.5" font-family="Helvetica,sans-Serif" font-size="10.00">getPerpendFoot</text>
</a>
</g>
</g>
<!-- Node25&#45;&gt;Node26 -->
<g id="edge31" class="edge">
<title>Node25&#45;&gt;Node26</title>
<path fill="none" stroke="midnightblue" d="M665.82,-238C674.46,-238 683.69,-238 692.72,-238"/>
<polygon fill="midnightblue" stroke="midnightblue" points="692.8,-241.5 702.8,-238 692.8,-234.5 692.8,-241.5"/>
</g>
<!-- Node25&#45;&gt;Node27 -->
<g id="edge32" class="edge">
<title>Node25&#45;&gt;Node27</title>
<path fill="none" stroke="midnightblue" d="M655.04,-228.41C670.88,-223.6 690.27,-217.7 707.28,-212.53"/>
<polygon fill="midnightblue" stroke="midnightblue" points="708.42,-215.84 716.97,-209.59 706.38,-209.15 708.42,-215.84"/>
</g>
<!-- Node28&#45;&gt;Node24 -->
<g id="edge34" class="edge">
<title>Node28&#45;&gt;Node24</title>
<path fill="none" stroke="midnightblue" d="M667.22,-282.65C679.65,-284.53 693.17,-286.59 705.56,-288.47"/>
<polygon fill="midnightblue" stroke="midnightblue" points="705.23,-291.96 715.64,-290.01 706.28,-285.04 705.23,-291.96"/>
</g>
<!-- Node29&#45;&gt;Node26 -->
<g id="edge36" class="edge">
<title>Node29&#45;&gt;Node26</title>
<path fill="none" stroke="midnightblue" d="M655.04,-209.59C670.88,-214.4 690.27,-220.3 707.28,-225.47"/>
<polygon fill="midnightblue" stroke="midnightblue" points="706.38,-228.85 716.97,-228.41 708.42,-222.16 706.38,-228.85"/>
</g>
<!-- Node29&#45;&gt;Node27 -->
<g id="edge37" class="edge">
<title>Node29&#45;&gt;Node27</title>
<path fill="none" stroke="midnightblue" d="M658.65,-200C671.78,-200 686.92,-200 700.99,-200"/>
<polygon fill="midnightblue" stroke="midnightblue" points="700.99,-203.5 710.99,-200 700.99,-196.5 700.99,-203.5"/>
</g>
<!-- Node30&#45;&gt;Node5 -->
<g id="edge43" class="edge">
<title>Node30&#45;&gt;Node5</title>
<path fill="none" stroke="midnightblue" d="M181.59,-268.3C230.46,-260.51 316.24,-254.7 373,-295 377.64,-298.29 442.97,-449.61 466.3,-503.88"/>
<polygon fill="midnightblue" stroke="midnightblue" points="463.21,-505.56 470.37,-513.37 469.64,-502.8 463.21,-505.56"/>
</g>
<!-- Node31 -->
<g id="node31" class="node">
<title>Node31</title>
<g id="a_node31"><a xlink:href="../../d2/de0/config__handle_8c.html#a4b15e37e2922cce20bf5cc8bb6e80c9a" target="_top" xlink:title="This function controls configuration data reading and validation.">
<polygon fill="white" stroke="black" points="273,-38.5 273,-57.5 345,-57.5 345,-38.5 273,-38.5"/>
<text text-anchor="middle" x="309" y="-45.5" font-family="Helvetica,sans-Serif" font-size="10.00">configurate</text>
</a>
</g>
</g>
<!-- Node30&#45;&gt;Node31 -->
<g id="edge40" class="edge">
<title>Node30&#45;&gt;Node31</title>
<path fill="none" stroke="midnightblue" d="M181.7,-271.98C191.74,-269.2 201.8,-264.59 209,-257 256.8,-206.65 209.67,-164.76 245,-105 254.79,-88.44 270.96,-73.96 284.46,-63.74"/>
<polygon fill="midnightblue" stroke="midnightblue" points="286.81,-66.35 292.86,-57.65 282.71,-60.69 286.81,-66.35"/>
</g>
<!-- Node34 -->
<g id="node34" class="node">
<title>Node34</title>
<g id="a_node34"><a xlink:href="../../d4/de5/io__control_8c.html#afc5a75c19ae16af5227567eb1dde0ef1" target="_top" xlink:title="This function reads the time data file for plotting &#39;time_plot.dat&#39; and initialize tha array &#39;time_pl...">
<polygon fill="white" stroke="black" points="264,-114.5 264,-133.5 354,-133.5 354,-114.5 264,-114.5"/>
<text text-anchor="middle" x="309" y="-121.5" font-family="Helvetica,sans-Serif" font-size="10.00">time_plot_read</text>
</a>
</g>
</g>
<!-- Node30&#45;&gt;Node34 -->
<g id="edge44" class="edge">
<title>Node30&#45;&gt;Node34</title>
<path fill="none" stroke="midnightblue" d="M181.69,-271.54C191.61,-268.74 201.61,-264.24 209,-257 246.97,-219.84 207.19,-180.33 245,-143 247.89,-140.15 251.19,-137.72 254.74,-135.66"/>
<polygon fill="midnightblue" stroke="midnightblue" points="256.45,-138.72 263.95,-131.24 253.42,-132.41 256.45,-138.72"/>
</g>
<!-- Node32 -->
<g id="node32" class="node">
<title>Node32</title>
<g id="a_node32"><a xlink:href="../../d2/de0/config__handle_8c.html#a4b379c084f41490473f80792af24e0c7" target="_top" xlink:title="This function check whether the configuration data is reasonable and set the default....">
<polygon fill="white" stroke="black" points="435.5,-0.5 435.5,-19.5 515.5,-19.5 515.5,-0.5 435.5,-0.5"/>
<text text-anchor="middle" x="475.5" y="-7.5" font-family="Helvetica,sans-Serif" font-size="10.00">config_check</text>
</a>
</g>
</g>
<!-- Node31&#45;&gt;Node32 -->
<g id="edge41" class="edge">
<title>Node31&#45;&gt;Node32</title>
<path fill="none" stroke="midnightblue" d="M345.29,-39.85C368.63,-34.46 399.55,-27.31 425.29,-21.37"/>
<polygon fill="midnightblue" stroke="midnightblue" points="426.28,-24.73 435.24,-19.07 424.7,-17.91 426.28,-24.73"/>
</g>
<!-- Node33 -->
<g id="node33" class="node">
<title>Node33</title>
<g id="a_node33"><a xlink:href="../../d2/de0/config__handle_8c.html#a482404d20045a8a5f48b5ee425a04259" target="_top" xlink:title="This function read the configuration data file, and store the configuration data in the array &#39;config...">
<polygon fill="white" stroke="black" points="438.5,-38.5 438.5,-57.5 512.5,-57.5 512.5,-38.5 438.5,-38.5"/>
<text text-anchor="middle" x="475.5" y="-45.5" font-family="Helvetica,sans-Serif" font-size="10.00">config_read</text>
</a>
</g>
</g>
<!-- Node31&#45;&gt;Node33 -->
<g id="edge42" class="edge">
<title>Node31&#45;&gt;Node33</title>
<path fill="none" stroke="midnightblue" d="M345.29,-48C369.54,-48 401.99,-48 428.3,-48"/>
<polygon fill="midnightblue" stroke="midnightblue" points="428.42,-51.5 438.42,-48 428.42,-44.5 428.42,-51.5"/>
</g>
<!-- Node35 -->
<g id="node35" class="node">
<title>Node35</title>
<g id="a_node35"><a xlink:href="../../d4/de5/io__control_8c.html#a7d7ac58cf9ddeec7a4a3c73fabd297e6" target="_top" xlink:title="Compare function of double for sort function &#39;qsort()&#39;.">
<polygon fill="white" stroke="black" points="426.5,-152.5 426.5,-171.5 524.5,-171.5 524.5,-152.5 426.5,-152.5"/>
<text text-anchor="middle" x="475.5" y="-159.5" font-family="Helvetica,sans-Serif" font-size="10.00">compare_double</text>
</a>
</g>
</g>
<!-- Node34&#45;&gt;Node35 -->
<g id="edge45" class="edge">
<title>Node34&#45;&gt;Node35</title>
<path fill="none" stroke="midnightblue" d="M351.51,-133.59C373.32,-138.63 400.23,-144.84 423.32,-150.18"/>
<polygon fill="midnightblue" stroke="midnightblue" points="422.76,-153.64 433.29,-152.48 424.33,-146.82 422.76,-153.64"/>
</g>
<!-- Node36 -->
<g id="node36" class="node">
<title>Node36</title>
<g id="a_node36"><a xlink:href="../../d4/de5/io__control_8c.html#acdd9ccb7dc0ecc925cafe95a4c2f8a51" target="_top" xlink:title="This function counts how many numbers are there in the initial data file.">
<polygon fill="white" stroke="black" points="434,-114.5 434,-133.5 517,-133.5 517,-114.5 434,-114.5"/>
<text text-anchor="middle" x="475.5" y="-121.5" font-family="Helvetica,sans-Serif" font-size="10.00">flu_var_count</text>
</a>
</g>
</g>
<!-- Node34&#45;&gt;Node36 -->
<g id="edge46" class="edge">
<title>Node34&#45;&gt;Node36</title>
<path fill="none" stroke="midnightblue" d="M354.08,-124C375.53,-124 401.42,-124 423.69,-124"/>
<polygon fill="midnightblue" stroke="midnightblue" points="423.96,-127.5 433.96,-124 423.96,-120.5 423.96,-127.5"/>
</g>
<!-- Node37 -->
<g id="node37" class="node">
<title>Node37</title>
<g id="a_node37"><a xlink:href="../../d4/de5/io__control_8c.html#a40ca7ad20048ff97a27a8641cf31b7cb" target="_top" xlink:title="This function reads the initial data file to generate the initial data.">
<polygon fill="white" stroke="black" points="437,-76.5 437,-95.5 514,-95.5 514,-76.5 437,-76.5"/>
<text text-anchor="middle" x="475.5" y="-83.5" font-family="Helvetica,sans-Serif" font-size="10.00">flu_var_read</text>
</a>
</g>
</g>
<!-- Node34&#45;&gt;Node37 -->
<g id="edge47" class="edge">
<title>Node34&#45;&gt;Node37</title>
<path fill="none" stroke="midnightblue" d="M351.51,-114.41C374.5,-109.1 403.16,-102.48 427.03,-96.96"/>
<polygon fill="midnightblue" stroke="midnightblue" points="427.99,-100.34 436.94,-94.68 426.41,-93.52 427.99,-100.34"/>
</g>
</g>
</svg>
