<?xml version="1.0" encoding="UTF-8" standalone="no"?>
<!DOCTYPE svg PUBLIC "-//W3C//DTD SVG 1.1//EN"
 "http://www.w3.org/Graphics/SVG/1.1/DTD/svg11.dtd">
<!-- Generated by graphviz version 5.0.0 (0)
 -->
<!-- Title: /home/leixin/Programs/HydroCODE/src/include/file_io.h Pages: 1 -->
<svg width="665pt" height="128pt"
 viewBox="0.00 0.00 664.50 128.00" xmlns="http://www.w3.org/2000/svg" xmlns:xlink="http://www.w3.org/1999/xlink">
<g id="graph0" class="graph" transform="scale(1 1) rotate(0) translate(4 124)">
<title>/home/leixin/Programs/HydroCODE/src/include/file_io.h</title>
<polygon fill="white" stroke="transparent" points="-4,4 -4,-124 660.5,-124 660.5,4 -4,4"/>
<!-- Node1 -->
<g id="node1" class="node">
<title>Node1</title>
<g id="a_node1"><a xlink:title="This file is the header file that controls data input and output.">
<polygon fill="#bfbfbf" stroke="black" points="287.5,-78.5 287.5,-119.5 419.5,-119.5 419.5,-78.5 287.5,-78.5"/>
<text text-anchor="start" x="295.5" y="-107.5" font-family="Helvetica,sans-Serif" font-size="10.00">/home/leixin/Programs</text>
<text text-anchor="start" x="295.5" y="-96.5" font-family="Helvetica,sans-Serif" font-size="10.00">/HydroCODE/src/include</text>
<text text-anchor="middle" x="353.5" y="-85.5" font-family="Helvetica,sans-Serif" font-size="10.00">/file_io.h</text>
</a>
</g>
</g>
<!-- Node2 -->
<g id="node2" class="node">
<title>Node2</title>
<g id="a_node2"><a xlink:href="../../dd/d92/__1_d__file__in_8c.html" target="_top" xlink:title="This is a set of functions which control the read&#45;in of one&#45;dimensional data.">
<polygon fill="white" stroke="black" points="0,-0.5 0,-41.5 127,-41.5 127,-0.5 0,-0.5"/>
<text text-anchor="start" x="8" y="-29.5" font-family="Helvetica,sans-Serif" font-size="10.00">/home/leixin/Programs</text>
<text text-anchor="start" x="8" y="-18.5" font-family="Helvetica,sans-Serif" font-size="10.00">/HydroCODE/src/file_io</text>
<text text-anchor="middle" x="63.5" y="-7.5" font-family="Helvetica,sans-Serif" font-size="10.00">/_1D_file_in.c</text>
</a>
</g>
</g>
<!-- Node1&#45;&gt;Node2 -->
<g id="edge1" class="edge">
<title>Node1&#45;&gt;Node2</title>
<path fill="none" stroke="midnightblue" d="M277.25,-78.8C235.36,-68.16 182.51,-54.56 135.5,-42 132.74,-41.26 129.93,-40.5 127.08,-39.73"/>
<polygon fill="midnightblue" stroke="midnightblue" points="276.55,-82.23 287.11,-81.3 278.28,-75.45 276.55,-82.23"/>
</g>
<!-- Node3 -->
<g id="node3" class="node">
<title>Node3</title>
<g id="a_node3"><a xlink:href="../../db/db6/__1_d__file__out_8c.html" target="_top" xlink:title="This is a set of functions which control the readout of one&#45;dimensional data.">
<polygon fill="white" stroke="black" points="145,-0.5 145,-41.5 272,-41.5 272,-0.5 145,-0.5"/>
<text text-anchor="start" x="153" y="-29.5" font-family="Helvetica,sans-Serif" font-size="10.00">/home/leixin/Programs</text>
<text text-anchor="start" x="153" y="-18.5" font-family="Helvetica,sans-Serif" font-size="10.00">/HydroCODE/src/file_io</text>
<text text-anchor="middle" x="208.5" y="-7.5" font-family="Helvetica,sans-Serif" font-size="10.00">/_1D_file_out.c</text>
</a>
</g>
</g>
<!-- Node1&#45;&gt;Node3 -->
<g id="edge2" class="edge">
<title>Node1&#45;&gt;Node3</title>
<path fill="none" stroke="midnightblue" d="M307.27,-73.77C287.39,-63.35 264.47,-51.34 245.71,-41.51"/>
<polygon fill="midnightblue" stroke="midnightblue" points="305.68,-76.89 316.16,-78.43 308.93,-70.69 305.68,-76.89"/>
</g>
<!-- Node4 -->
<g id="node4" class="node">
<title>Node4</title>
<g id="a_node4"><a xlink:href="../../d4/d75/__2_d__file__in_8c.html" target="_top" xlink:title="This is a set of functions which control the read&#45;in of two&#45;dimensional data.">
<polygon fill="white" stroke="black" points="290,-0.5 290,-41.5 417,-41.5 417,-0.5 290,-0.5"/>
<text text-anchor="start" x="298" y="-29.5" font-family="Helvetica,sans-Serif" font-size="10.00">/home/leixin/Programs</text>
<text text-anchor="start" x="298" y="-18.5" font-family="Helvetica,sans-Serif" font-size="10.00">/HydroCODE/src/file_io</text>
<text text-anchor="middle" x="353.5" y="-7.5" font-family="Helvetica,sans-Serif" font-size="10.00">/_2D_file_in.c</text>
</a>
</g>
</g>
<!-- Node1&#45;&gt;Node4 -->
<g id="edge3" class="edge">
<title>Node1&#45;&gt;Node4</title>
<path fill="none" stroke="midnightblue" d="M353.5,-68.3C353.5,-59.3 353.5,-49.65 353.5,-41.51"/>
<polygon fill="midnightblue" stroke="midnightblue" points="350,-68.43 353.5,-78.43 357,-68.43 350,-68.43"/>
</g>
<!-- Node5 -->
<g id="node5" class="node">
<title>Node5</title>
<g id="a_node5"><a xlink:href="../../d8/d32/__2_d__file__out_8c.html" target="_top" xlink:title="This is a set of functions which control the readout of two&#45;dimensional data.">
<polygon fill="white" stroke="black" points="435,-0.5 435,-41.5 562,-41.5 562,-0.5 435,-0.5"/>
<text text-anchor="start" x="443" y="-29.5" font-family="Helvetica,sans-Serif" font-size="10.00">/home/leixin/Programs</text>
<text text-anchor="start" x="443" y="-18.5" font-family="Helvetica,sans-Serif" font-size="10.00">/HydroCODE/src/file_io</text>
<text text-anchor="middle" x="498.5" y="-7.5" font-family="Helvetica,sans-Serif" font-size="10.00">/_2D_file_out.c</text>
</a>
</g>
</g>
<!-- Node1&#45;&gt;Node5 -->
<g id="edge4" class="edge">
<title>Node1&#45;&gt;Node5</title>
<path fill="none" stroke="midnightblue" d="M399.73,-73.77C419.61,-63.35 442.53,-51.34 461.29,-41.51"/>
<polygon fill="midnightblue" stroke="midnightblue" points="398.07,-70.69 390.84,-78.43 401.32,-76.89 398.07,-70.69"/>
</g>
<!-- Node6 -->
<g id="node6" class="node">
<title>Node6</title>
<g id="a_node6"><a xlink:href="../../d2/d24/hydrocode_8c.html" target="_top" xlink:title="This is a C file of the main function.">
<polygon fill="white" stroke="black" points="580.5,-11.5 580.5,-30.5 656.5,-30.5 656.5,-11.5 580.5,-11.5"/>
<text text-anchor="middle" x="618.5" y="-18.5" font-family="Helvetica,sans-Serif" font-size="10.00">hydrocode.c</text>
</a>
</g>
</g>
<!-- Node1&#45;&gt;Node6 -->
<g id="edge5" class="edge">
<title>Node1&#45;&gt;Node6</title>
<path fill="none" stroke="midnightblue" d="M429.54,-81.44C471.81,-71.5 525.08,-57.74 571.5,-42 581.07,-38.75 591.44,-34.43 600,-30.64"/>
<polygon fill="midnightblue" stroke="midnightblue" points="428.55,-78.08 419.6,-83.76 430.13,-84.9 428.55,-78.08"/>
</g>
</g>
</svg>
