<?xml version="1.0" encoding="UTF-8" standalone="no"?>
<!DOCTYPE svg PUBLIC "-//W3C//DTD SVG 1.1//EN"
 "http://www.w3.org/Graphics/SVG/1.1/DTD/svg11.dtd">
<!-- Generated by graphviz version 6.0.1 (0)
 -->
<!-- Title: src~/include/riemann_solver.h Pages: 1 -->
<svg width="298pt" height="117pt"
 viewBox="0.00 0.00 297.50 117.00" xmlns="http://www.w3.org/2000/svg" xmlns:xlink="http://www.w3.org/1999/xlink">
<g id="graph0" class="graph" transform="scale(1 1) rotate(0) translate(4 113)">
<title>src~/include/riemann_solver.h</title>
<polygon fill="white" stroke="none" points="-4,4 -4,-113 293.5,-113 293.5,4 -4,4"/>
<!-- Node1 -->
<g id="node1" class="node">
<title>Node1</title>
<g id="a_node1"><a xlink:title="This file is the header file of several Riemann solvers and GRP solvers.">
<polygon fill="#bfbfbf" stroke="black" points="81,-78.5 81,-108.5 202,-108.5 202,-78.5 81,-78.5"/>
<text text-anchor="start" x="89" y="-96.5" font-family="Helvetica,sans-Serif" font-size="10.00">src~/include/riemann</text>
<text text-anchor="middle" x="141.5" y="-85.5" font-family="Helvetica,sans-Serif" font-size="10.00">_solver.h</text>
</a>
</g>
</g>
<!-- Node2 -->
<g id="node2" class="node">
<title>Node2</title>
<g id="a_node2"><a xlink:href="../../d5/d63/grp__solver__radial___l_a_g__source_8c.html" target="_top" xlink:title="This is a Lagrangian GRP scheme to solve radial(cylindrically) symmetric compressible fluid flows.">
<polygon fill="white" stroke="black" points="0,-0.5 0,-41.5 129,-41.5 129,-0.5 0,-0.5"/>
<text text-anchor="start" x="8" y="-29.5" font-family="Helvetica,sans-Serif" font-size="10.00">src~/finite_volume</text>
<text text-anchor="start" x="8" y="-18.5" font-family="Helvetica,sans-Serif" font-size="10.00">/grp_solver_radial_LAG</text>
<text text-anchor="middle" x="64.5" y="-7.5" font-family="Helvetica,sans-Serif" font-size="10.00">_source.c</text>
</a>
</g>
</g>
<!-- Node1&#45;&gt;Node2 -->
<g id="edge1" class="edge">
<title>Node1&#45;&gt;Node2</title>
<path fill="none" stroke="midnightblue" d="M118.43,-71.38C108.11,-61.93 96.01,-50.85 85.89,-41.59"/>
<polygon fill="midnightblue" stroke="midnightblue" points="116.18,-74.06 125.92,-78.23 120.91,-68.9 116.18,-74.06"/>
</g>
<!-- Node3 -->
<g id="node3" class="node">
<title>Node3</title>
<g id="a_node3"><a xlink:href="../../d0/d4c/linear__grp__solver__radial___l_a_g_8c.html" target="_top" xlink:title="This is a Lagrangian GRP solver for compressible inviscid cylindrical flow in Li&#39;s paper.">
<polygon fill="white" stroke="black" points="147.5,-0.5 147.5,-41.5 289.5,-41.5 289.5,-0.5 147.5,-0.5"/>
<text text-anchor="start" x="155.5" y="-29.5" font-family="Helvetica,sans-Serif" font-size="10.00">src~/riemann_solver</text>
<text text-anchor="start" x="155.5" y="-18.5" font-family="Helvetica,sans-Serif" font-size="10.00">/linear_grp_solver_radial_</text>
<text text-anchor="middle" x="218.5" y="-7.5" font-family="Helvetica,sans-Serif" font-size="10.00">LAG.c</text>
</a>
</g>
</g>
<!-- Node1&#45;&gt;Node3 -->
<g id="edge2" class="edge">
<title>Node1&#45;&gt;Node3</title>
<path fill="none" stroke="midnightblue" d="M164.57,-71.38C174.89,-61.93 186.99,-50.85 197.11,-41.59"/>
<polygon fill="midnightblue" stroke="midnightblue" points="162.09,-68.9 157.08,-78.23 166.82,-74.06 162.09,-68.9"/>
</g>
</g>
</svg>
