<?xml version="1.0" encoding="UTF-8" standalone="no"?>
<!DOCTYPE svg PUBLIC "-//W3C//DTD SVG 1.1//EN"
 "http://www.w3.org/Graphics/SVG/1.1/DTD/svg11.dtd">
<!-- Generated by graphviz version 6.0.1 (0)
 -->
<!-- Title: CreateDir Pages: 1 -->
<svg width="622pt" height="250pt"
 viewBox="0.00 0.00 622.00 250.34" xmlns="http://www.w3.org/2000/svg" xmlns:xlink="http://www.w3.org/1999/xlink">
<g id="graph0" class="graph" transform="scale(1 1) rotate(0) translate(4 246.34)">
<title>CreateDir</title>
<polygon fill="white" stroke="none" points="-4,4 -4,-246.34 618,-246.34 618,4 -4,4"/>
<!-- Node1 -->
<g id="node1" class="node">
<title>Node1</title>
<g id="a_node1"><a xlink:title="This is a function that recursively creates folders.">
<polygon fill="#bfbfbf" stroke="black" points="551,-146.84 551,-165.84 614,-165.84 614,-146.84 551,-146.84"/>
<text text-anchor="middle" x="582.5" y="-153.84" font-family="Helvetica,sans-Serif" font-size="10.00">CreateDir</text>
</a>
</g>
</g>
<!-- Node2 -->
<g id="node2" class="node">
<title>Node2</title>
<g id="a_node2"><a xlink:href="../../d4/de5/io__control_8c.html#a7e039d23ca87a439fbe9c9d336447887" target="_top" xlink:title="This function produces folder path for data input or output.">
<polygon fill="white" stroke="black" points="441,-146.84 441,-165.84 515,-165.84 515,-146.84 441,-146.84"/>
<text text-anchor="middle" x="478" y="-153.84" font-family="Helvetica,sans-Serif" font-size="10.00">example_io</text>
</a>
</g>
</g>
<!-- Node1&#45;&gt;Node2 -->
<g id="edge1" class="edge">
<title>Node1&#45;&gt;Node2</title>
<path fill="none" stroke="midnightblue" d="M540.7,-156.34C532.26,-156.34 523.41,-156.34 515.14,-156.34"/>
<polygon fill="midnightblue" stroke="midnightblue" points="540.75,-159.84 550.75,-156.34 540.75,-152.84 540.75,-159.84"/>
</g>
<!-- Node3 -->
<g id="node3" class="node">
<title>Node3</title>
<g id="a_node3"><a xlink:href="../../d4/d39/file__out__hdf5_8c.html#a183247d78d231c5a6fc920674e92d857" target="_top" xlink:title="This function write the 1&#45;D solution into HDF5 output &#39;.h5&#39; files.">
<polygon fill="white" stroke="black" points="278.5,-222.84 278.5,-241.84 391.5,-241.84 391.5,-222.84 278.5,-222.84"/>
<text text-anchor="middle" x="335" y="-229.84" font-family="Helvetica,sans-Serif" font-size="10.00">file_1D_write_HDF5</text>
</a>
</g>
</g>
<!-- Node2&#45;&gt;Node3 -->
<g id="edge2" class="edge">
<title>Node2&#45;&gt;Node3</title>
<path fill="none" stroke="midnightblue" d="M458.07,-172.37C444.1,-183.59 424.25,-198.32 405,-208.34 393.98,-214.08 381.28,-218.95 369.81,-222.76"/>
<polygon fill="midnightblue" stroke="midnightblue" points="460.44,-174.96 465.95,-165.91 456,-169.54 460.44,-174.96"/>
</g>
<!-- Node4 -->
<g id="node4" class="node">
<title>Node4</title>
<g id="a_node4"><a xlink:href="../../d7/d20/file__2_d__out_8c.html#a2cfae0698a650473dfa73b2c8042e291" target="_top" xlink:title="This function write the 2&#45;D solution into output &#39;.dat&#39; files.">
<polygon fill="white" stroke="black" points="112.5,-194.84 112.5,-213.84 193.5,-213.84 193.5,-194.84 112.5,-194.84"/>
<text text-anchor="middle" x="153" y="-201.84" font-family="Helvetica,sans-Serif" font-size="10.00">file_2D_write</text>
</a>
</g>
</g>
<!-- Node2&#45;&gt;Node4 -->
<g id="edge3" class="edge">
<title>Node2&#45;&gt;Node4</title>
<path fill="none" stroke="midnightblue" d="M432.44,-168.41C423.4,-170.6 413.93,-172.7 405,-174.34 330.98,-187.96 243.49,-196.8 193.79,-201.15"/>
<polygon fill="midnightblue" stroke="midnightblue" points="433.54,-171.74 442.4,-165.93 431.85,-164.95 433.54,-171.74"/>
</g>
<!-- Node6 -->
<g id="node6" class="node">
<title>Node6</title>
<g id="a_node6"><a xlink:href="../../d4/d39/file__out__hdf5_8c.html#a23e6202deeb430def9c660b183591c22" target="_top" xlink:title="This function write the 2&#45;D solution into HDF5 output &#39;.h5&#39; files.">
<polygon fill="white" stroke="black" points="96.5,-156.84 96.5,-175.84 209.5,-175.84 209.5,-156.84 96.5,-156.84"/>
<text text-anchor="middle" x="153" y="-163.84" font-family="Helvetica,sans-Serif" font-size="10.00">file_2D_write_HDF5</text>
</a>
</g>
</g>
<!-- Node2&#45;&gt;Node6 -->
<g id="edge5" class="edge">
<title>Node2&#45;&gt;Node6</title>
<path fill="none" stroke="midnightblue" d="M430.85,-157.77C372.48,-159.58 272.06,-162.69 209.55,-164.62"/>
<polygon fill="midnightblue" stroke="midnightblue" points="431,-161.27 440.89,-157.46 430.78,-154.27 431,-161.27"/>
</g>
<!-- Node7 -->
<g id="node7" class="node">
<title>Node7</title>
<g id="a_node7"><a xlink:href="../../d7/d20/file__2_d__out_8c.html#ad420018a322081934dd8f2853f5a535d" target="_top" xlink:title="This function write the 2&#45;D solution into Tecplot output files with point data.">
<polygon fill="white" stroke="black" points="265,-89.84 265,-108.84 405,-108.84 405,-89.84 265,-89.84"/>
<text text-anchor="middle" x="335" y="-96.84" font-family="Helvetica,sans-Serif" font-size="10.00">file_2D_write_POINT_TEC</text>
</a>
</g>
</g>
<!-- Node2&#45;&gt;Node7 -->
<g id="edge7" class="edge">
<title>Node2&#45;&gt;Node7</title>
<path fill="none" stroke="midnightblue" d="M444,-143C418.14,-132.55 382.78,-118.26 359.68,-108.92"/>
<polygon fill="midnightblue" stroke="midnightblue" points="442.82,-146.3 453.4,-146.8 445.44,-139.81 442.82,-146.3"/>
</g>
<!-- Node10 -->
<g id="node10" class="node">
<title>Node10</title>
<g id="a_node10"><a xlink:href="../../d9/d8a/file__2_d__in_8c.html#a13555e5f4f916ffa5975ed5f22be2697" target="_top" xlink:title="This function reads the 2&#45;D initial data file of density/velocity/pressure.">
<polygon fill="white" stroke="black" points="296.5,-26.84 296.5,-45.84 373.5,-45.84 373.5,-26.84 296.5,-26.84"/>
<text text-anchor="middle" x="335" y="-33.84" font-family="Helvetica,sans-Serif" font-size="10.00">initialize_2D</text>
</a>
</g>
</g>
<!-- Node2&#45;&gt;Node10 -->
<g id="edge13" class="edge">
<title>Node2&#45;&gt;Node10</title>
<path fill="none" stroke="midnightblue" d="M462.43,-138.64C448.61,-122.43 426.76,-98.31 405,-80.34 388.67,-66.87 367.98,-54.17 353.53,-45.92"/>
<polygon fill="midnightblue" stroke="midnightblue" points="460.13,-141.34 469.24,-146.74 465.49,-136.83 460.13,-141.34"/>
</g>
<!-- Node5 -->
<g id="node5" class="node">
<title>Node5</title>
<g id="a_node5"><a xlink:href="../../d2/d24/hydrocode_8c.html#a0ddf1224851353fc92bfbff6f499fa97" target="_top" xlink:title="This is the main function which constructs the main structure of the 2&#45;D Eulerian hydrocode.">
<polygon fill="white" stroke="black" points="0,-99.84 0,-118.84 41,-118.84 41,-99.84 0,-99.84"/>
<text text-anchor="middle" x="20.5" y="-106.84" font-family="Helvetica,sans-Serif" font-size="10.00">main</text>
</a>
</g>
</g>
<!-- Node4&#45;&gt;Node5 -->
<g id="edge4" class="edge">
<title>Node4&#45;&gt;Node5</title>
<path fill="none" stroke="midnightblue" d="M102.71,-197.05C93.68,-194.31 84.68,-190.53 77,-185.34 51.55,-168.15 33.55,-135.22 25.78,-118.94"/>
<polygon fill="midnightblue" stroke="midnightblue" points="101.92,-200.46 112.48,-199.64 103.71,-193.69 101.92,-200.46"/>
</g>
<!-- Node6&#45;&gt;Node5 -->
<g id="edge6" class="edge">
<title>Node6&#45;&gt;Node5</title>
<path fill="none" stroke="midnightblue" d="M106.86,-153.73C96.86,-150.43 86.44,-146.6 77,-142.34 62.28,-135.72 46.56,-126.1 35.62,-118.96"/>
<polygon fill="midnightblue" stroke="midnightblue" points="106.07,-157.15 116.66,-156.84 108.18,-150.48 106.07,-157.15"/>
</g>
<!-- Node7&#45;&gt;Node5 -->
<g id="edge12" class="edge">
<title>Node7&#45;&gt;Node5</title>
<path fill="none" stroke="midnightblue" d="M254.73,-107.7C246.06,-108.37 237.35,-108.95 229,-109.34 160.09,-112.62 78.16,-110.99 41.26,-109.97"/>
<polygon fill="midnightblue" stroke="midnightblue" points="255.2,-111.17 264.88,-106.87 254.63,-104.2 255.2,-111.17"/>
</g>
<!-- Node8 -->
<g id="node8" class="node">
<title>Node8</title>
<g id="a_node8"><a xlink:href="../../d1/d4b/grp__solver__2_d___e_u_l__source_8c.html#a30950ea8ff93f97618fb87759c6aae04" target="_top" xlink:title="This function use GRP scheme to solve 2&#45;D Euler equations of motion on Eulerian coordinate without di...">
<polygon fill="white" stroke="black" points="77,-80.84 77,-99.84 229,-99.84 229,-80.84 77,-80.84"/>
<text text-anchor="middle" x="153" y="-87.84" font-family="Helvetica,sans-Serif" font-size="10.00">GRP_solver_2D_EUL_source</text>
</a>
</g>
</g>
<!-- Node7&#45;&gt;Node8 -->
<g id="edge8" class="edge">
<title>Node7&#45;&gt;Node8</title>
<path fill="none" stroke="midnightblue" d="M254.67,-95.38C246.2,-94.95 237.6,-94.52 229.18,-94.1"/>
<polygon fill="midnightblue" stroke="midnightblue" points="254.76,-98.89 264.92,-95.89 255.11,-91.89 254.76,-98.89"/>
</g>
<!-- Node9 -->
<g id="node9" class="node">
<title>Node9</title>
<g id="a_node9"><a xlink:href="../../df/d07/grp__solver__2_d__split___e_u_l__source_8c.html#af66dc2722921b16ef5aa77be65cfc311" target="_top" xlink:title="This function use GRP scheme to solve 2&#45;D Euler equations of motion on Eulerian coordinate with dimen...">
<polygon fill="white" stroke="black" points="94.5,-31.34 94.5,-61.34 211.5,-61.34 211.5,-31.34 94.5,-31.34"/>
<text text-anchor="start" x="102.5" y="-49.34" font-family="Helvetica,sans-Serif" font-size="10.00">GRP_solver_2D_split</text>
<text text-anchor="middle" x="153" y="-38.34" font-family="Helvetica,sans-Serif" font-size="10.00">_EUL_source</text>
</a>
</g>
</g>
<!-- Node7&#45;&gt;Node9 -->
<g id="edge10" class="edge">
<title>Node7&#45;&gt;Node9</title>
<path fill="none" stroke="midnightblue" d="M291.51,-86.83C265.63,-79.21 232.39,-69.42 205.07,-61.38"/>
<polygon fill="midnightblue" stroke="midnightblue" points="290.82,-90.28 301.4,-89.75 292.8,-83.56 290.82,-90.28"/>
</g>
<!-- Node8&#45;&gt;Node5 -->
<g id="edge9" class="edge">
<title>Node8&#45;&gt;Node5</title>
<path fill="none" stroke="midnightblue" d="M76.35,-101.36C63.35,-103.25 50.91,-105.06 41.18,-106.48"/>
<polygon fill="midnightblue" stroke="midnightblue" points="76.98,-104.8 86.37,-99.9 75.97,-97.88 76.98,-104.8"/>
</g>
<!-- Node9&#45;&gt;Node5 -->
<g id="edge11" class="edge">
<title>Node9&#45;&gt;Node5</title>
<path fill="none" stroke="midnightblue" d="M91.06,-65.04C86.23,-67.01 81.49,-69.11 77,-71.34 61.1,-79.24 44.52,-91.16 33.67,-99.53"/>
<polygon fill="midnightblue" stroke="midnightblue" points="92.33,-68.3 100.4,-61.42 89.81,-61.77 92.33,-68.3"/>
</g>
<!-- Node10&#45;&gt;Node5 -->
<g id="edge14" class="edge">
<title>Node10&#45;&gt;Node5</title>
<path fill="none" stroke="midnightblue" d="M299.74,-23.42C247.94,-6.18 148.18,17.92 77,-21.34 46.16,-38.36 30.1,-80.51 24.2,-99.63"/>
<polygon fill="midnightblue" stroke="midnightblue" points="298.84,-26.82 309.44,-26.76 301.12,-20.2 298.84,-26.82"/>
</g>
</g>
</svg>
