<?xml version="1.0" encoding="UTF-8" standalone="no"?>
<!DOCTYPE svg PUBLIC "-//W3C//DTD SVG 1.1//EN"
 "http://www.w3.org/Graphics/SVG/1.1/DTD/svg11.dtd">
<!-- Generated by graphviz version 6.0.1 (0)
 -->
<!-- Title: src~/include/file_io.h Pages: 1 -->
<svg width="835pt" height="106pt"
 viewBox="0.00 0.00 834.50 106.00" xmlns="http://www.w3.org/2000/svg" xmlns:xlink="http://www.w3.org/1999/xlink">
<g id="graph0" class="graph" transform="scale(1 1) rotate(0) translate(4 102)">
<title>src~/include/file_io.h</title>
<polygon fill="white" stroke="none" points="-4,4 -4,-102 830.5,-102 830.5,4 -4,4"/>
<!-- Node1 -->
<g id="node1" class="node">
<title>Node1</title>
<g id="a_node1"><a xlink:title="This file is the header file that controls data input and output.">
<polygon fill="#bfbfbf" stroke="black" points="342.5,-78.5 342.5,-97.5 461.5,-97.5 461.5,-78.5 342.5,-78.5"/>
<text text-anchor="middle" x="402" y="-85.5" font-family="Helvetica,sans-Serif" font-size="10.00">src~/include/file_io.h</text>
</a>
</g>
</g>
<!-- Node2 -->
<g id="node2" class="node">
<title>Node2</title>
<g id="a_node2"><a xlink:href="../../d9/d89/file__1_d__in_8c.html" target="_top" xlink:title="This is a set of functions which control the read&#45;in of one&#45;dimensional data.">
<polygon fill="white" stroke="black" points="0,-11.5 0,-30.5 132,-30.5 132,-11.5 0,-11.5"/>
<text text-anchor="middle" x="66" y="-18.5" font-family="Helvetica,sans-Serif" font-size="10.00">src~/file_io/file_1D_in.c</text>
</a>
</g>
</g>
<!-- Node1&#45;&gt;Node2 -->
<g id="edge1" class="edge">
<title>Node1&#45;&gt;Node2</title>
<path fill="none" stroke="midnightblue" d="M333.72,-76.95C280.88,-68.75 205.98,-56.24 141,-42 125.99,-38.71 109.48,-34.39 95.78,-30.6"/>
<polygon fill="midnightblue" stroke="midnightblue" points="333.24,-80.42 343.66,-78.48 334.31,-73.5 333.24,-80.42"/>
</g>
<!-- Node3 -->
<g id="node3" class="node">
<title>Node3</title>
<g id="a_node3"><a xlink:href="../../df/d38/file__1_d__out_8c.html" target="_top" xlink:title="This is a set of functions which control the readout of one&#45;dimensional data.">
<polygon fill="white" stroke="black" points="150,-6 150,-36 260,-36 260,-6 150,-6"/>
<text text-anchor="start" x="158" y="-24" font-family="Helvetica,sans-Serif" font-size="10.00">src~/file_io/file_1D</text>
<text text-anchor="middle" x="205" y="-13" font-family="Helvetica,sans-Serif" font-size="10.00">_out.c</text>
</a>
</g>
</g>
<!-- Node1&#45;&gt;Node3 -->
<g id="edge2" class="edge">
<title>Node1&#45;&gt;Node3</title>
<path fill="none" stroke="midnightblue" d="M366.03,-75.13C332.63,-64.11 282.87,-47.69 247.52,-36.03"/>
<polygon fill="midnightblue" stroke="midnightblue" points="365.25,-78.56 375.84,-78.37 367.44,-71.91 365.25,-78.56"/>
</g>
<!-- Node4 -->
<g id="node4" class="node">
<title>Node4</title>
<g id="a_node4"><a xlink:href="../../d4/d39/file__out__hdf5_8c.html" target="_top" xlink:title="This is a set of functions which control the readout of 1&#45;D and 2&#45;D data in HDF5 file format.">
<polygon fill="white" stroke="black" points="278,-6 278,-36 390,-36 390,-6 278,-6"/>
<text text-anchor="start" x="286" y="-24" font-family="Helvetica,sans-Serif" font-size="10.00">src~/file_io/file_out</text>
<text text-anchor="middle" x="334" y="-13" font-family="Helvetica,sans-Serif" font-size="10.00">_hdf5.c</text>
</a>
</g>
</g>
<!-- Node1&#45;&gt;Node4 -->
<g id="edge3" class="edge">
<title>Node1&#45;&gt;Node4</title>
<path fill="none" stroke="midnightblue" d="M385.38,-71.12C374.18,-60.41 359.53,-46.4 348.74,-36.09"/>
<polygon fill="midnightblue" stroke="midnightblue" points="383.18,-73.85 392.83,-78.23 388.02,-68.79 383.18,-73.85"/>
</g>
<!-- Node5 -->
<g id="node5" class="node">
<title>Node5</title>
<g id="a_node5"><a xlink:href="../../d1/df9/file__radial__out_8c.html" target="_top" xlink:title="This is a set of functions which control the readout of radially symmetric multi&#45;dimensional data.">
<polygon fill="white" stroke="black" points="408,-6 408,-36 532,-36 532,-6 408,-6"/>
<text text-anchor="start" x="416" y="-24" font-family="Helvetica,sans-Serif" font-size="10.00">src~/file_io/file_radial</text>
<text text-anchor="middle" x="470" y="-13" font-family="Helvetica,sans-Serif" font-size="10.00">_out.c</text>
</a>
</g>
</g>
<!-- Node1&#45;&gt;Node5 -->
<g id="edge4" class="edge">
<title>Node1&#45;&gt;Node5</title>
<path fill="none" stroke="midnightblue" d="M418.62,-71.12C429.82,-60.41 444.47,-46.4 455.26,-36.09"/>
<polygon fill="midnightblue" stroke="midnightblue" points="415.98,-68.79 411.17,-78.23 420.82,-73.85 415.98,-68.79"/>
</g>
<!-- Node6 -->
<g id="node6" class="node">
<title>Node6</title>
<g id="a_node6"><a xlink:href="../../d5/d63/grp__solver__radial___l_a_g__source_8c.html" target="_top" xlink:title="This is a Lagrangian GRP scheme to solve radial(cylindrically) symmetric compressible fluid flows.">
<polygon fill="white" stroke="black" points="550.5,-0.5 550.5,-41.5 679.5,-41.5 679.5,-0.5 550.5,-0.5"/>
<text text-anchor="start" x="558.5" y="-29.5" font-family="Helvetica,sans-Serif" font-size="10.00">src~/finite_volume</text>
<text text-anchor="start" x="558.5" y="-18.5" font-family="Helvetica,sans-Serif" font-size="10.00">/grp_solver_radial_LAG</text>
<text text-anchor="middle" x="615" y="-7.5" font-family="Helvetica,sans-Serif" font-size="10.00">_source.c</text>
</a>
</g>
</g>
<!-- Node1&#45;&gt;Node6 -->
<g id="edge5" class="edge">
<title>Node1&#45;&gt;Node6</title>
<path fill="none" stroke="midnightblue" d="M440.16,-75.36C470.84,-65.99 514.61,-52.63 550.69,-41.63"/>
<polygon fill="midnightblue" stroke="midnightblue" points="438.83,-72.1 430.28,-78.37 440.87,-78.8 438.83,-72.1"/>
</g>
<!-- Node7 -->
<g id="node7" class="node">
<title>Node7</title>
<g id="a_node7"><a xlink:href="../../d2/d24/hydrocode_8c.html" target="_top" xlink:title="This is a C file of the main function.">
<polygon fill="white" stroke="black" points="697.5,-6 697.5,-36 826.5,-36 826.5,-6 697.5,-6"/>
<text text-anchor="start" x="705.5" y="-24" font-family="Helvetica,sans-Serif" font-size="10.00">src~/hydrocode_Radial</text>
<text text-anchor="middle" x="762" y="-13" font-family="Helvetica,sans-Serif" font-size="10.00">_Lag/hydrocode.c</text>
</a>
</g>
</g>
<!-- Node1&#45;&gt;Node7 -->
<g id="edge6" class="edge">
<title>Node1&#45;&gt;Node7</title>
<path fill="none" stroke="midnightblue" d="M471.94,-78.26C530.3,-70.44 615.5,-57.78 689,-42 696.97,-40.29 705.35,-38.24 713.5,-36.1"/>
<polygon fill="midnightblue" stroke="midnightblue" points="471.17,-74.83 461.72,-79.62 472.1,-81.77 471.17,-74.83"/>
</g>
</g>
</svg>
