<?xml version="1.0" encoding="UTF-8" standalone="no"?>
<!DOCTYPE svg PUBLIC "-//W3C//DTD SVG 1.1//EN"
 "http://www.w3.org/Graphics/SVG/1.1/DTD/svg11.dtd">
<!-- Generated by graphviz version 5.0.0 (0)
 -->
<!-- Title: /run/media/leixin/软件盘/雷昕整理后的重要文件/程序/My&#45;CFD/HydroCODE/src/inter_process/bound_cond_slope_limiter_y.c Pages: 1 -->
<svg width="332pt" height="184pt"
 viewBox="0.00 0.00 332.00 184.00" xmlns="http://www.w3.org/2000/svg" xmlns:xlink="http://www.w3.org/1999/xlink">
<g id="graph0" class="graph" transform="scale(1 1) rotate(0) translate(4 180)">
<title>/run/media/leixin/软件盘/雷昕整理后的重要文件/程序/My&#45;CFD/HydroCODE/src/inter_process/bound_cond_slope_limiter_y.c</title>
<polygon fill="white" stroke="transparent" points="-4,4 -4,-180 328,-180 328,4 -4,4"/>
<!-- Node1 -->
<g id="node1" class="node">
<title>Node1</title>
<g id="a_node1"><a xlink:title=" ">
<polygon fill="#bfbfbf" stroke="black" points="39,-112.5 39,-175.5 217,-175.5 217,-112.5 39,-112.5"/>
<text text-anchor="start" x="47" y="-163.5" font-family="Helvetica,sans-Serif" font-size="10.00">/run/media/leixin/软件盘</text>
<text text-anchor="start" x="47" y="-152.5" font-family="Helvetica,sans-Serif" font-size="10.00">/雷昕整理后的重要文件</text>
<text text-anchor="start" x="47" y="-141.5" font-family="Helvetica,sans-Serif" font-size="10.00">/程序/My&#45;CFD/HydroCODE/src</text>
<text text-anchor="start" x="47" y="-130.5" font-family="Helvetica,sans-Serif" font-size="10.00">/inter_process/bound_cond_slope</text>
<text text-anchor="middle" x="128" y="-119.5" font-family="Helvetica,sans-Serif" font-size="10.00">_limiter_y.c</text>
</a>
</g>
</g>
<!-- Node2 -->
<g id="node2" class="node">
<title>Node2</title>
<g id="a_node2"><a xlink:title=" ">
<polygon fill="white" stroke="#bfbfbf" points="0,-56.5 0,-75.5 50,-75.5 50,-56.5 0,-56.5"/>
<text text-anchor="middle" x="25" y="-63.5" font-family="Helvetica,sans-Serif" font-size="10.00">stdio.h</text>
</a>
</g>
</g>
<!-- Node1&#45;&gt;Node2 -->
<g id="edge1" class="edge">
<title>Node1&#45;&gt;Node2</title>
<path fill="none" stroke="midnightblue" d="M86.4,-112.31C72.17,-101.8 56.88,-90.52 45.12,-81.85"/>
<polygon fill="midnightblue" stroke="midnightblue" points="47.02,-78.89 36.89,-75.77 42.86,-84.53 47.02,-78.89"/>
</g>
<!-- Node3 -->
<g id="node3" class="node">
<title>Node3</title>
<g id="a_node3"><a xlink:title=" ">
<polygon fill="white" stroke="#bfbfbf" points="68,-56.5 68,-75.5 130,-75.5 130,-56.5 68,-56.5"/>
<text text-anchor="middle" x="99" y="-63.5" font-family="Helvetica,sans-Serif" font-size="10.00">stdbool.h</text>
</a>
</g>
</g>
<!-- Node1&#45;&gt;Node3 -->
<g id="edge2" class="edge">
<title>Node1&#45;&gt;Node3</title>
<path fill="none" stroke="midnightblue" d="M116.2,-112.09C112.72,-102.94 109.01,-93.23 105.93,-85.17"/>
<polygon fill="midnightblue" stroke="midnightblue" points="109.16,-83.81 102.33,-75.72 102.62,-86.31 109.16,-83.81"/>
</g>
<!-- Node4 -->
<g id="node4" class="node">
<title>Node4</title>
<g id="a_node4"><a xlink:href="../../da/d1e/var__struc_8h.html" target="_top" xlink:title="This file is the header file of some globally common variables and structural bodies.">
<polygon fill="white" stroke="black" points="147,-0.5 147,-19.5 265,-19.5 265,-0.5 147,-0.5"/>
<text text-anchor="middle" x="206" y="-7.5" font-family="Helvetica,sans-Serif" font-size="10.00">../include/var_struc.h</text>
</a>
</g>
</g>
<!-- Node1&#45;&gt;Node4 -->
<g id="edge3" class="edge">
<title>Node1&#45;&gt;Node4</title>
<path fill="none" stroke="midnightblue" d="M144.79,-112.14C154.06,-95.39 165.9,-74.41 177,-56 182.65,-46.63 189.23,-36.37 194.7,-28.01"/>
<polygon fill="midnightblue" stroke="midnightblue" points="197.71,-29.81 200.29,-19.53 191.86,-25.95 197.71,-29.81"/>
</g>
<!-- Node5 -->
<g id="node5" class="node">
<title>Node5</title>
<g id="a_node5"><a xlink:href="../../d6/d6f/inter__process_8h.html" target="_top" xlink:title="This file is the header file of intermediate processes of finite volume scheme.">
<polygon fill="white" stroke="black" points="186,-56.5 186,-75.5 324,-75.5 324,-56.5 186,-56.5"/>
<text text-anchor="middle" x="255" y="-63.5" font-family="Helvetica,sans-Serif" font-size="10.00">../include/inter_process.h</text>
</a>
</g>
</g>
<!-- Node1&#45;&gt;Node5 -->
<g id="edge4" class="edge">
<title>Node1&#45;&gt;Node5</title>
<path fill="none" stroke="midnightblue" d="M179.29,-112.31C197.47,-101.43 217.05,-89.71 231.73,-80.92"/>
<polygon fill="midnightblue" stroke="midnightblue" points="233.83,-83.75 240.62,-75.61 230.24,-77.74 233.83,-83.75"/>
</g>
<!-- Node5&#45;&gt;Node4 -->
<g id="edge5" class="edge">
<title>Node5&#45;&gt;Node4</title>
<path fill="none" stroke="midnightblue" d="M246.91,-56.08C239.84,-48.3 229.41,-36.8 220.85,-27.37"/>
<polygon fill="midnightblue" stroke="midnightblue" points="223.25,-24.8 213.94,-19.75 218.07,-29.51 223.25,-24.8"/>
</g>
</g>
</svg>
