<?xml version="1.0" encoding="UTF-8" standalone="no"?>
<!DOCTYPE svg PUBLIC "-//W3C//DTD SVG 1.1//EN"
 "http://www.w3.org/Graphics/SVG/1.1/DTD/svg11.dtd">
<!-- Generated by graphviz version 5.0.0 (0)
 -->
<!-- Title: /run/media/leixin/软件盘/雷昕整理后的重要文件/程序/My&#45;CFD/HydroCODE/src/include/var_struc.h Pages: 1 -->
<svg width="3882pt" height="250pt"
 viewBox="0.00 0.00 3882.00 250.00" xmlns="http://www.w3.org/2000/svg" xmlns:xlink="http://www.w3.org/1999/xlink">
<g id="graph0" class="graph" transform="scale(1 1) rotate(0) translate(4 246)">
<title>/run/media/leixin/软件盘/雷昕整理后的重要文件/程序/My&#45;CFD/HydroCODE/src/include/var_struc.h</title>
<polygon fill="white" stroke="transparent" points="-4,4 -4,-246 3878,-246 3878,4 -4,4"/>
<!-- Node1 -->
<g id="node1" class="node">
<title>Node1</title>
<g id="a_node1"><a xlink:title="This file is the header file of some globally common variables and structural bodies.">
<polygon fill="#bfbfbf" stroke="black" points="1996,-189.5 1996,-241.5 2154,-241.5 2154,-189.5 1996,-189.5"/>
<text text-anchor="start" x="2004" y="-229.5" font-family="Helvetica,sans-Serif" font-size="10.00">/run/media/leixin/软件盘</text>
<text text-anchor="start" x="2004" y="-218.5" font-family="Helvetica,sans-Serif" font-size="10.00">/雷昕整理后的重要文件</text>
<text text-anchor="start" x="2004" y="-207.5" font-family="Helvetica,sans-Serif" font-size="10.00">/程序/My&#45;CFD/HydroCODE/src</text>
<text text-anchor="middle" x="2075" y="-196.5" font-family="Helvetica,sans-Serif" font-size="10.00">/include/var_struc.h</text>
</a>
</g>
</g>
<!-- Node2 -->
<g id="node2" class="node">
<title>Node2</title>
<g id="a_node2"><a xlink:href="../../dc/d70/linear___g_r_p__solver___edir_8c.html" target="_top" xlink:title="This is a direct Eulerian GRP solver for compressible inviscid flow in Li&#39;s paper.">
<polygon fill="white" stroke="black" points="0,-6 0,-58 222,-58 222,-6 0,-6"/>
<text text-anchor="start" x="8" y="-46" font-family="Helvetica,sans-Serif" font-size="10.00">/run/media/leixin/软件盘</text>
<text text-anchor="start" x="8" y="-35" font-family="Helvetica,sans-Serif" font-size="10.00">/雷昕整理后的重要文件</text>
<text text-anchor="start" x="8" y="-24" font-family="Helvetica,sans-Serif" font-size="10.00">/程序/My&#45;CFD/HydroCODE/src</text>
<text text-anchor="middle" x="111" y="-13" font-family="Helvetica,sans-Serif" font-size="10.00">/Riemann_solver/linear_GRP_solver_Edir.c</text>
</a>
</g>
</g>
<!-- Node1&#45;&gt;Node2 -->
<g id="edge1" class="edge">
<title>Node1&#45;&gt;Node2</title>
<path fill="none" stroke="midnightblue" d="M1985.16,-213.93C1697.06,-211.63 798.43,-200.71 512,-153 390.68,-132.79 254.5,-86.85 176.14,-58.04"/>
<polygon fill="midnightblue" stroke="midnightblue" points="1985.53,-217.43 1995.56,-214.01 1985.59,-210.43 1985.53,-217.43"/>
</g>
<!-- Node3 -->
<g id="node3" class="node">
<title>Node3</title>
<g id="a_node3"><a xlink:href="../../d3/da7/linear___g_r_p__solver___edir___g2_d_8c.html" target="_top" xlink:title="This is a Genuinely&#45;2D direct Eulerian GRP solver for compressible inviscid flow in Li&#39;s paper.">
<polygon fill="white" stroke="black" points="240,-0.5 240,-63.5 430,-63.5 430,-0.5 240,-0.5"/>
<text text-anchor="start" x="248" y="-51.5" font-family="Helvetica,sans-Serif" font-size="10.00">/run/media/leixin/软件盘</text>
<text text-anchor="start" x="248" y="-40.5" font-family="Helvetica,sans-Serif" font-size="10.00">/雷昕整理后的重要文件</text>
<text text-anchor="start" x="248" y="-29.5" font-family="Helvetica,sans-Serif" font-size="10.00">/程序/My&#45;CFD/HydroCODE/src</text>
<text text-anchor="start" x="248" y="-18.5" font-family="Helvetica,sans-Serif" font-size="10.00">/Riemann_solver/linear_GRP_solver</text>
<text text-anchor="middle" x="335" y="-7.5" font-family="Helvetica,sans-Serif" font-size="10.00">_Edir_G2D.c</text>
</a>
</g>
</g>
<!-- Node1&#45;&gt;Node3 -->
<g id="edge2" class="edge">
<title>Node1&#45;&gt;Node3</title>
<path fill="none" stroke="midnightblue" d="M1985.69,-213.51C1723.56,-210.11 959.46,-196.63 714,-153 606.29,-133.86 486.67,-92.42 411.18,-63.63"/>
<polygon fill="midnightblue" stroke="midnightblue" points="1985.88,-217.01 1995.92,-213.64 1985.97,-210.01 1985.88,-217.01"/>
</g>
<!-- Node4 -->
<g id="node4" class="node">
<title>Node4</title>
<g id="a_node4"><a xlink:href="../../d5/dea/linear___g_r_p__solver___edir___q1_d_8c.html" target="_top" xlink:title="This is a Quasi&#45;1D direct Eulerian GRP solver for compressible inviscid flow in Li&#39;s paper.">
<polygon fill="white" stroke="black" points="448,-0.5 448,-63.5 638,-63.5 638,-0.5 448,-0.5"/>
<text text-anchor="start" x="456" y="-51.5" font-family="Helvetica,sans-Serif" font-size="10.00">/run/media/leixin/软件盘</text>
<text text-anchor="start" x="456" y="-40.5" font-family="Helvetica,sans-Serif" font-size="10.00">/雷昕整理后的重要文件</text>
<text text-anchor="start" x="456" y="-29.5" font-family="Helvetica,sans-Serif" font-size="10.00">/程序/My&#45;CFD/HydroCODE/src</text>
<text text-anchor="start" x="456" y="-18.5" font-family="Helvetica,sans-Serif" font-size="10.00">/Riemann_solver/linear_GRP_solver</text>
<text text-anchor="middle" x="543" y="-7.5" font-family="Helvetica,sans-Serif" font-size="10.00">_Edir_Q1D.c</text>
</a>
</g>
</g>
<!-- Node1&#45;&gt;Node4 -->
<g id="edge3" class="edge">
<title>Node1&#45;&gt;Node4</title>
<path fill="none" stroke="midnightblue" d="M1985.68,-212.82C1750.13,-207.91 1116,-191.42 910,-153 805.72,-133.55 690.12,-92.29 617.05,-63.62"/>
<polygon fill="midnightblue" stroke="midnightblue" points="1985.85,-216.33 1995.92,-213.03 1986,-209.33 1985.85,-216.33"/>
</g>
<!-- Node5 -->
<g id="node5" class="node">
<title>Node5</title>
<g id="a_node5"><a xlink:href="../../de/d81/linear___g_r_p__solver___l_a_g_8c.html" target="_top" xlink:title="This is a Lagrangian GRP solver for compressible inviscid flow in Ben&#45;Artzi&#39;s paper.">
<polygon fill="white" stroke="black" points="656,-6 656,-58 880,-58 880,-6 656,-6"/>
<text text-anchor="start" x="664" y="-46" font-family="Helvetica,sans-Serif" font-size="10.00">/run/media/leixin/软件盘</text>
<text text-anchor="start" x="664" y="-35" font-family="Helvetica,sans-Serif" font-size="10.00">/雷昕整理后的重要文件</text>
<text text-anchor="start" x="664" y="-24" font-family="Helvetica,sans-Serif" font-size="10.00">/程序/My&#45;CFD/HydroCODE/src</text>
<text text-anchor="middle" x="768" y="-13" font-family="Helvetica,sans-Serif" font-size="10.00">/Riemann_solver/linear_GRP_solver_LAG.c</text>
</a>
</g>
</g>
<!-- Node1&#45;&gt;Node5 -->
<g id="edge4" class="edge">
<title>Node1&#45;&gt;Node5</title>
<path fill="none" stroke="midnightblue" d="M1985.72,-212.56C1774.17,-207.38 1247.24,-190.98 1075,-153 980.7,-132.21 877.32,-86.68 817.81,-58.07"/>
<polygon fill="midnightblue" stroke="midnightblue" points="1985.77,-216.06 1995.85,-212.8 1985.94,-209.06 1985.77,-216.06"/>
</g>
<!-- Node6 -->
<g id="node6" class="node">
<title>Node6</title>
<g id="a_node6"><a xlink:href="../../dd/d92/__1_d__file__in_8c.html" target="_top" xlink:title="This is a set of functions which control the read&#45;in of one&#45;dimensional data.">
<polygon fill="white" stroke="black" points="2236,-100.5 2236,-152.5 2394,-152.5 2394,-100.5 2236,-100.5"/>
<text text-anchor="start" x="2244" y="-140.5" font-family="Helvetica,sans-Serif" font-size="10.00">/run/media/leixin/软件盘</text>
<text text-anchor="start" x="2244" y="-129.5" font-family="Helvetica,sans-Serif" font-size="10.00">/雷昕整理后的重要文件</text>
<text text-anchor="start" x="2244" y="-118.5" font-family="Helvetica,sans-Serif" font-size="10.00">/程序/My&#45;CFD/HydroCODE/src</text>
<text text-anchor="middle" x="2315" y="-107.5" font-family="Helvetica,sans-Serif" font-size="10.00">/file_io/_1D_file_in.c</text>
</a>
</g>
</g>
<!-- Node1&#45;&gt;Node6 -->
<g id="edge5" class="edge">
<title>Node1&#45;&gt;Node6</title>
<path fill="none" stroke="midnightblue" d="M2153.63,-186C2183.43,-175.19 2217.12,-162.98 2245.98,-152.52"/>
<polygon fill="midnightblue" stroke="midnightblue" points="2152.3,-182.75 2144.1,-189.45 2154.69,-189.34 2152.3,-182.75"/>
</g>
<!-- Node7 -->
<g id="node7" class="node">
<title>Node7</title>
<g id="a_node7"><a xlink:href="../../db/db6/__1_d__file__out_8c.html" target="_top" xlink:title="This is a set of functions which control the readout of one&#45;dimensional data.">
<polygon fill="white" stroke="black" points="2412,-100.5 2412,-152.5 2570,-152.5 2570,-100.5 2412,-100.5"/>
<text text-anchor="start" x="2420" y="-140.5" font-family="Helvetica,sans-Serif" font-size="10.00">/run/media/leixin/软件盘</text>
<text text-anchor="start" x="2420" y="-129.5" font-family="Helvetica,sans-Serif" font-size="10.00">/雷昕整理后的重要文件</text>
<text text-anchor="start" x="2420" y="-118.5" font-family="Helvetica,sans-Serif" font-size="10.00">/程序/My&#45;CFD/HydroCODE/src</text>
<text text-anchor="middle" x="2491" y="-107.5" font-family="Helvetica,sans-Serif" font-size="10.00">/file_io/_1D_file_out.c</text>
</a>
</g>
</g>
<!-- Node1&#45;&gt;Node7 -->
<g id="edge6" class="edge">
<title>Node1&#45;&gt;Node7</title>
<path fill="none" stroke="midnightblue" d="M2164.31,-200.16C2230.54,-188.94 2322.85,-172.08 2403,-153 2405.94,-152.3 2408.93,-151.56 2411.94,-150.8"/>
<polygon fill="midnightblue" stroke="midnightblue" points="2163.6,-196.73 2154.32,-201.84 2164.76,-203.63 2163.6,-196.73"/>
</g>
<!-- Node8 -->
<g id="node8" class="node">
<title>Node8</title>
<g id="a_node8"><a xlink:href="../../d4/d75/__2_d__file__in_8c.html" target="_top" xlink:title="This is a set of functions which control the read&#45;in of two&#45;dimensional data.">
<polygon fill="white" stroke="black" points="2588,-100.5 2588,-152.5 2746,-152.5 2746,-100.5 2588,-100.5"/>
<text text-anchor="start" x="2596" y="-140.5" font-family="Helvetica,sans-Serif" font-size="10.00">/run/media/leixin/软件盘</text>
<text text-anchor="start" x="2596" y="-129.5" font-family="Helvetica,sans-Serif" font-size="10.00">/雷昕整理后的重要文件</text>
<text text-anchor="start" x="2596" y="-118.5" font-family="Helvetica,sans-Serif" font-size="10.00">/程序/My&#45;CFD/HydroCODE/src</text>
<text text-anchor="middle" x="2667" y="-107.5" font-family="Helvetica,sans-Serif" font-size="10.00">/file_io/_2D_file_in.c</text>
</a>
</g>
</g>
<!-- Node1&#45;&gt;Node8 -->
<g id="edge7" class="edge">
<title>Node1&#45;&gt;Node8</title>
<path fill="none" stroke="midnightblue" d="M2164.39,-207.96C2265.69,-199.53 2435.39,-182.37 2579,-153 2581.96,-152.39 2584.97,-151.74 2588,-151.04"/>
<polygon fill="midnightblue" stroke="midnightblue" points="2163.88,-204.49 2154.2,-208.79 2164.45,-211.46 2163.88,-204.49"/>
</g>
<!-- Node9 -->
<g id="node9" class="node">
<title>Node9</title>
<g id="a_node9"><a xlink:href="../../d8/d32/__2_d__file__out_8c.html" target="_top" xlink:title="This is a set of functions which control the readout of two&#45;dimensional data.">
<polygon fill="white" stroke="black" points="2764,-100.5 2764,-152.5 2922,-152.5 2922,-100.5 2764,-100.5"/>
<text text-anchor="start" x="2772" y="-140.5" font-family="Helvetica,sans-Serif" font-size="10.00">/run/media/leixin/软件盘</text>
<text text-anchor="start" x="2772" y="-129.5" font-family="Helvetica,sans-Serif" font-size="10.00">/雷昕整理后的重要文件</text>
<text text-anchor="start" x="2772" y="-118.5" font-family="Helvetica,sans-Serif" font-size="10.00">/程序/My&#45;CFD/HydroCODE/src</text>
<text text-anchor="middle" x="2843" y="-107.5" font-family="Helvetica,sans-Serif" font-size="10.00">/file_io/_2D_file_out.c</text>
</a>
</g>
</g>
<!-- Node1&#45;&gt;Node9 -->
<g id="edge8" class="edge">
<title>Node1&#45;&gt;Node9</title>
<path fill="none" stroke="midnightblue" d="M2164.56,-211.87C2295.34,-206.79 2545.74,-192.4 2755,-153 2757.81,-152.47 2760.67,-151.89 2763.54,-151.27"/>
<polygon fill="midnightblue" stroke="midnightblue" points="2164.07,-208.38 2154.21,-212.26 2164.33,-215.38 2164.07,-208.38"/>
</g>
<!-- Node10 -->
<g id="node10" class="node">
<title>Node10</title>
<g id="a_node10"><a xlink:href="../../d2/de0/config__handle_8c.html" target="_top" xlink:title="This is a set of functions which control the read&#45;in of configuration data.">
<polygon fill="white" stroke="black" points="2940,-100.5 2940,-152.5 3098,-152.5 3098,-100.5 2940,-100.5"/>
<text text-anchor="start" x="2948" y="-140.5" font-family="Helvetica,sans-Serif" font-size="10.00">/run/media/leixin/软件盘</text>
<text text-anchor="start" x="2948" y="-129.5" font-family="Helvetica,sans-Serif" font-size="10.00">/雷昕整理后的重要文件</text>
<text text-anchor="start" x="2948" y="-118.5" font-family="Helvetica,sans-Serif" font-size="10.00">/程序/My&#45;CFD/HydroCODE/src</text>
<text text-anchor="middle" x="3019" y="-107.5" font-family="Helvetica,sans-Serif" font-size="10.00">/file_io/config_handle.c</text>
</a>
</g>
</g>
<!-- Node1&#45;&gt;Node10 -->
<g id="edge9" class="edge">
<title>Node1&#45;&gt;Node10</title>
<path fill="none" stroke="midnightblue" d="M2164.22,-214.24C2320.71,-212.42 2654.37,-202.45 2931,-153 2933.82,-152.5 2936.68,-151.94 2939.55,-151.33"/>
<polygon fill="midnightblue" stroke="midnightblue" points="2164.13,-210.74 2154.17,-214.35 2164.2,-217.74 2164.13,-210.74"/>
</g>
<!-- Node11 -->
<g id="node11" class="node">
<title>Node11</title>
<g id="a_node11"><a xlink:href="../../d4/de5/io__control_8c.html" target="_top" xlink:title="This is a set of common functions which control the input/output data.">
<polygon fill="white" stroke="black" points="3116,-100.5 3116,-152.5 3274,-152.5 3274,-100.5 3116,-100.5"/>
<text text-anchor="start" x="3124" y="-140.5" font-family="Helvetica,sans-Serif" font-size="10.00">/run/media/leixin/软件盘</text>
<text text-anchor="start" x="3124" y="-129.5" font-family="Helvetica,sans-Serif" font-size="10.00">/雷昕整理后的重要文件</text>
<text text-anchor="start" x="3124" y="-118.5" font-family="Helvetica,sans-Serif" font-size="10.00">/程序/My&#45;CFD/HydroCODE/src</text>
<text text-anchor="middle" x="3195" y="-107.5" font-family="Helvetica,sans-Serif" font-size="10.00">/file_io/io_control.c</text>
</a>
</g>
</g>
<!-- Node1&#45;&gt;Node11 -->
<g id="edge10" class="edge">
<title>Node1&#45;&gt;Node11</title>
<path fill="none" stroke="midnightblue" d="M2164.25,-211.73C2380.3,-204.62 2926.91,-184.06 3107,-153 3109.82,-152.51 3112.68,-151.97 3115.56,-151.38"/>
<polygon fill="midnightblue" stroke="midnightblue" points="2164.09,-208.24 2154.21,-212.06 2164.32,-215.23 2164.09,-208.24"/>
</g>
<!-- Node12 -->
<g id="node12" class="node">
<title>Node12</title>
<g id="a_node12"><a xlink:href="../../d6/d0f/_g_r_p__solver__2_d___e_u_l__source_8c.html" target="_top" xlink:title="This is an Eulerian GRP scheme to solve 2&#45;D Euler equations without dimension splitting.">
<polygon fill="white" stroke="black" points="898,-6 898,-58 1132,-58 1132,-6 898,-6"/>
<text text-anchor="start" x="906" y="-46" font-family="Helvetica,sans-Serif" font-size="10.00">/run/media/leixin/软件盘</text>
<text text-anchor="start" x="906" y="-35" font-family="Helvetica,sans-Serif" font-size="10.00">/雷昕整理后的重要文件</text>
<text text-anchor="start" x="906" y="-24" font-family="Helvetica,sans-Serif" font-size="10.00">/程序/My&#45;CFD/HydroCODE/src</text>
<text text-anchor="middle" x="1015" y="-13" font-family="Helvetica,sans-Serif" font-size="10.00">/finite_volume/GRP_solver_2D_EUL_source.c</text>
</a>
</g>
</g>
<!-- Node1&#45;&gt;Node12 -->
<g id="edge11" class="edge">
<title>Node1&#45;&gt;Node12</title>
<path fill="none" stroke="midnightblue" d="M1985.86,-211.67C1770.39,-204.37 1233.45,-183.36 1158,-153 1107.19,-132.55 1061.14,-86.81 1035.72,-58.07"/>
<polygon fill="midnightblue" stroke="midnightblue" points="1985.76,-215.17 1995.87,-212 1985.99,-208.17 1985.76,-215.17"/>
</g>
<!-- Node13 -->
<g id="node13" class="node">
<title>Node13</title>
<g id="a_node13"><a xlink:href="../../dc/d9e/_g_r_p__solver__2_d__split___e_u_l__source_8c.html" target="_top" xlink:title="This is an Eulerian GRP scheme to solve 2&#45;D Euler equations with dimension splitting.">
<polygon fill="white" stroke="black" points="1150.5,-0.5 1150.5,-63.5 1341.5,-63.5 1341.5,-0.5 1150.5,-0.5"/>
<text text-anchor="start" x="1158.5" y="-51.5" font-family="Helvetica,sans-Serif" font-size="10.00">/run/media/leixin/软件盘</text>
<text text-anchor="start" x="1158.5" y="-40.5" font-family="Helvetica,sans-Serif" font-size="10.00">/雷昕整理后的重要文件</text>
<text text-anchor="start" x="1158.5" y="-29.5" font-family="Helvetica,sans-Serif" font-size="10.00">/程序/My&#45;CFD/HydroCODE/src</text>
<text text-anchor="start" x="1158.5" y="-18.5" font-family="Helvetica,sans-Serif" font-size="10.00">/finite_volume/GRP_solver_2D_split</text>
<text text-anchor="middle" x="1246" y="-7.5" font-family="Helvetica,sans-Serif" font-size="10.00">_EUL_source.c</text>
</a>
</g>
</g>
<!-- Node1&#45;&gt;Node13 -->
<g id="edge12" class="edge">
<title>Node1&#45;&gt;Node13</title>
<path fill="none" stroke="midnightblue" d="M1985.91,-214.93C1822.58,-214.36 1482.48,-206.54 1379,-153 1351.56,-138.8 1356.42,-121.26 1334,-100 1320.48,-87.18 1304.58,-74.46 1290.03,-63.6"/>
<polygon fill="midnightblue" stroke="midnightblue" points="1985.92,-218.43 1995.93,-214.95 1985.94,-211.43 1985.92,-218.43"/>
</g>
<!-- Node14 -->
<g id="node14" class="node">
<title>Node14</title>
<g id="a_node14"><a xlink:href="../../de/de8/_g_r_p__solver___a_l_e__source_8c.html" target="_top" xlink:title="This is an ALE GRP scheme to solve 1&#45;D Euler equations.">
<polygon fill="white" stroke="black" points="1359.5,-6 1359.5,-58 1574.5,-58 1574.5,-6 1359.5,-6"/>
<text text-anchor="start" x="1367.5" y="-46" font-family="Helvetica,sans-Serif" font-size="10.00">/run/media/leixin/软件盘</text>
<text text-anchor="start" x="1367.5" y="-35" font-family="Helvetica,sans-Serif" font-size="10.00">/雷昕整理后的重要文件</text>
<text text-anchor="start" x="1367.5" y="-24" font-family="Helvetica,sans-Serif" font-size="10.00">/程序/My&#45;CFD/HydroCODE/src</text>
<text text-anchor="middle" x="1467" y="-13" font-family="Helvetica,sans-Serif" font-size="10.00">/finite_volume/GRP_solver_ALE_source.c</text>
</a>
</g>
</g>
<!-- Node1&#45;&gt;Node14 -->
<g id="edge13" class="edge">
<title>Node1&#45;&gt;Node14</title>
<path fill="none" stroke="midnightblue" d="M1985.63,-203.26C1918.72,-193.53 1825.44,-177.18 1746,-153 1662.77,-127.66 1570.93,-85.14 1516.15,-58.1"/>
<polygon fill="midnightblue" stroke="midnightblue" points="1985.32,-206.75 1995.72,-204.7 1986.31,-199.82 1985.32,-206.75"/>
</g>
<!-- Node15 -->
<g id="node15" class="node">
<title>Node15</title>
<g id="a_node15"><a xlink:href="../../d5/d10/_g_r_p__solver___e_u_l__source_8c.html" target="_top" xlink:title="This is an Eulerian GRP scheme to solve 1&#45;D Euler equations.">
<polygon fill="white" stroke="black" points="1592.5,-6 1592.5,-58 1807.5,-58 1807.5,-6 1592.5,-6"/>
<text text-anchor="start" x="1600.5" y="-46" font-family="Helvetica,sans-Serif" font-size="10.00">/run/media/leixin/软件盘</text>
<text text-anchor="start" x="1600.5" y="-35" font-family="Helvetica,sans-Serif" font-size="10.00">/雷昕整理后的重要文件</text>
<text text-anchor="start" x="1600.5" y="-24" font-family="Helvetica,sans-Serif" font-size="10.00">/程序/My&#45;CFD/HydroCODE/src</text>
<text text-anchor="middle" x="1700" y="-13" font-family="Helvetica,sans-Serif" font-size="10.00">/finite_volume/GRP_solver_EUL_source.c</text>
</a>
</g>
</g>
<!-- Node1&#45;&gt;Node15 -->
<g id="edge14" class="edge">
<title>Node1&#45;&gt;Node15</title>
<path fill="none" stroke="midnightblue" d="M1985.73,-207.19C1931.87,-199.64 1863.55,-184.26 1810,-153 1769.48,-129.35 1735.26,-85.91 1716.2,-58.3"/>
<polygon fill="midnightblue" stroke="midnightblue" points="1985.58,-210.7 1995.96,-208.56 1986.51,-203.77 1985.58,-210.7"/>
</g>
<!-- Node16 -->
<g id="node16" class="node">
<title>Node16</title>
<g id="a_node16"><a xlink:href="../../dd/dd7/_g_r_p__solver___l_a_g__source_8c.html" target="_top" xlink:title="This is a Lagrangian GRP scheme to solve 1&#45;D Euler equations.">
<polygon fill="white" stroke="black" points="1825.5,-6 1825.5,-58 2042.5,-58 2042.5,-6 1825.5,-6"/>
<text text-anchor="start" x="1833.5" y="-46" font-family="Helvetica,sans-Serif" font-size="10.00">/run/media/leixin/软件盘</text>
<text text-anchor="start" x="1833.5" y="-35" font-family="Helvetica,sans-Serif" font-size="10.00">/雷昕整理后的重要文件</text>
<text text-anchor="start" x="1833.5" y="-24" font-family="Helvetica,sans-Serif" font-size="10.00">/程序/My&#45;CFD/HydroCODE/src</text>
<text text-anchor="middle" x="1934" y="-13" font-family="Helvetica,sans-Serif" font-size="10.00">/finite_volume/GRP_solver_LAG_source.c</text>
</a>
</g>
</g>
<!-- Node1&#45;&gt;Node16 -->
<g id="edge15" class="edge">
<title>Node1&#45;&gt;Node16</title>
<path fill="none" stroke="midnightblue" d="M1985.63,-204.37C1921.58,-195.05 1843.2,-178.72 1823,-153 1808.45,-134.47 1811.42,-120.51 1823,-100 1833.18,-81.97 1850.38,-68.24 1868.24,-58.06"/>
<polygon fill="midnightblue" stroke="midnightblue" points="1985.39,-207.87 1995.78,-205.8 1986.37,-200.94 1985.39,-207.87"/>
</g>
<!-- Node17 -->
<g id="node17" class="node">
<title>Node17</title>
<g id="a_node17"><a xlink:href="../../d4/da5/_godunov__solver___a_l_e__source_8c.html" target="_top" xlink:title="This is an ALE Godunov scheme to solve 1&#45;D Euler equations.">
<polygon fill="white" stroke="black" points="2060.5,-0.5 2060.5,-63.5 2229.5,-63.5 2229.5,-0.5 2060.5,-0.5"/>
<text text-anchor="start" x="2068.5" y="-51.5" font-family="Helvetica,sans-Serif" font-size="10.00">/run/media/leixin/软件盘</text>
<text text-anchor="start" x="2068.5" y="-40.5" font-family="Helvetica,sans-Serif" font-size="10.00">/雷昕整理后的重要文件</text>
<text text-anchor="start" x="2068.5" y="-29.5" font-family="Helvetica,sans-Serif" font-size="10.00">/程序/My&#45;CFD/HydroCODE/src</text>
<text text-anchor="start" x="2068.5" y="-18.5" font-family="Helvetica,sans-Serif" font-size="10.00">/finite_volume/Godunov_solver</text>
<text text-anchor="middle" x="2145" y="-7.5" font-family="Helvetica,sans-Serif" font-size="10.00">_ALE_source.c</text>
</a>
</g>
</g>
<!-- Node1&#45;&gt;Node17 -->
<g id="edge16" class="edge">
<title>Node1&#45;&gt;Node17</title>
<path fill="none" stroke="midnightblue" d="M2051.92,-180.25C2039.13,-156.68 2028.33,-125.2 2042,-100 2050.04,-85.19 2062.92,-73.14 2076.9,-63.55"/>
<polygon fill="midnightblue" stroke="midnightblue" points="2049.04,-182.26 2057.06,-189.18 2055.11,-178.77 2049.04,-182.26"/>
</g>
<!-- Node18 -->
<g id="node18" class="node">
<title>Node18</title>
<g id="a_node18"><a xlink:href="../../de/dd9/_godunov__solver___e_u_l__source_8c.html" target="_top" xlink:title="This is an Eulerian Godunov scheme to solve 1&#45;D Euler equations.">
<polygon fill="white" stroke="black" points="2247.5,-0.5 2247.5,-63.5 2416.5,-63.5 2416.5,-0.5 2247.5,-0.5"/>
<text text-anchor="start" x="2255.5" y="-51.5" font-family="Helvetica,sans-Serif" font-size="10.00">/run/media/leixin/软件盘</text>
<text text-anchor="start" x="2255.5" y="-40.5" font-family="Helvetica,sans-Serif" font-size="10.00">/雷昕整理后的重要文件</text>
<text text-anchor="start" x="2255.5" y="-29.5" font-family="Helvetica,sans-Serif" font-size="10.00">/程序/My&#45;CFD/HydroCODE/src</text>
<text text-anchor="start" x="2255.5" y="-18.5" font-family="Helvetica,sans-Serif" font-size="10.00">/finite_volume/Godunov_solver</text>
<text text-anchor="middle" x="2332" y="-7.5" font-family="Helvetica,sans-Serif" font-size="10.00">_EUL_source.c</text>
</a>
</g>
</g>
<!-- Node1&#45;&gt;Node18 -->
<g id="edge17" class="edge">
<title>Node1&#45;&gt;Node18</title>
<path fill="none" stroke="midnightblue" d="M2066.23,-178.92C2062.34,-154.03 2062.05,-121.53 2080,-100 2126.13,-44.69 2168.61,-83.3 2238,-64 2241.06,-63.15 2244.17,-62.26 2247.31,-61.34"/>
<polygon fill="midnightblue" stroke="midnightblue" points="2062.84,-179.85 2068.08,-189.06 2069.73,-178.6 2062.84,-179.85"/>
</g>
<!-- Node19 -->
<g id="node19" class="node">
<title>Node19</title>
<g id="a_node19"><a xlink:href="../../dd/d30/_godunov__solver___l_a_g__source_8c.html" target="_top" xlink:title="This is a Lagrangian Godunov scheme to solve 1&#45;D Euler equations.">
<polygon fill="white" stroke="black" points="2434.5,-0.5 2434.5,-63.5 2603.5,-63.5 2603.5,-0.5 2434.5,-0.5"/>
<text text-anchor="start" x="2442.5" y="-51.5" font-family="Helvetica,sans-Serif" font-size="10.00">/run/media/leixin/软件盘</text>
<text text-anchor="start" x="2442.5" y="-40.5" font-family="Helvetica,sans-Serif" font-size="10.00">/雷昕整理后的重要文件</text>
<text text-anchor="start" x="2442.5" y="-29.5" font-family="Helvetica,sans-Serif" font-size="10.00">/程序/My&#45;CFD/HydroCODE/src</text>
<text text-anchor="start" x="2442.5" y="-18.5" font-family="Helvetica,sans-Serif" font-size="10.00">/finite_volume/Godunov_solver</text>
<text text-anchor="middle" x="2519" y="-7.5" font-family="Helvetica,sans-Serif" font-size="10.00">_LAG_source.c</text>
</a>
</g>
</g>
<!-- Node1&#45;&gt;Node19 -->
<g id="edge18" class="edge">
<title>Node1&#45;&gt;Node19</title>
<path fill="none" stroke="midnightblue" d="M2078.59,-179.17C2083.21,-153.09 2093.79,-118.95 2118,-100 2172.09,-57.66 2357.93,-78.83 2425,-64 2428.1,-63.31 2431.25,-62.56 2434.42,-61.77"/>
<polygon fill="midnightblue" stroke="midnightblue" points="2075.13,-178.66 2077.04,-189.08 2082.04,-179.74 2075.13,-178.66"/>
</g>
<!-- Node20 -->
<g id="node20" class="node">
<title>Node20</title>
<g id="a_node20"><a xlink:href="../../d8/d09/_riemann__solver_8h.html" target="_top" xlink:title="This file is the header file of several Riemann solvers and GRP solvers.">
<polygon fill="white" stroke="black" points="1388,-100.5 1388,-152.5 1546,-152.5 1546,-100.5 1388,-100.5"/>
<text text-anchor="start" x="1396" y="-140.5" font-family="Helvetica,sans-Serif" font-size="10.00">/run/media/leixin/软件盘</text>
<text text-anchor="start" x="1396" y="-129.5" font-family="Helvetica,sans-Serif" font-size="10.00">/雷昕整理后的重要文件</text>
<text text-anchor="start" x="1396" y="-118.5" font-family="Helvetica,sans-Serif" font-size="10.00">/程序/My&#45;CFD/HydroCODE/src</text>
<text text-anchor="middle" x="1467" y="-107.5" font-family="Helvetica,sans-Serif" font-size="10.00">/include/Riemann_solver.h</text>
</a>
</g>
</g>
<!-- Node1&#45;&gt;Node20 -->
<g id="edge19" class="edge">
<title>Node1&#45;&gt;Node20</title>
<path fill="none" stroke="midnightblue" d="M1985.88,-202.9C1895.22,-190.96 1750.71,-171.54 1626,-153 1600.01,-149.14 1571.66,-144.67 1546.2,-140.57"/>
<polygon fill="midnightblue" stroke="midnightblue" points="1985.47,-206.38 1995.84,-204.22 1986.38,-199.44 1985.47,-206.38"/>
</g>
<!-- Node21 -->
<g id="node21" class="node">
<title>Node21</title>
<g id="a_node21"><a xlink:href="../../d8/da8/finite__volume_8h.html" target="_top" xlink:title="This file is the header file of Lagrangian/Eulerian hydrocode in finite volume framework.">
<polygon fill="white" stroke="black" points="3330,-100.5 3330,-152.5 3488,-152.5 3488,-100.5 3330,-100.5"/>
<text text-anchor="start" x="3338" y="-140.5" font-family="Helvetica,sans-Serif" font-size="10.00">/run/media/leixin/软件盘</text>
<text text-anchor="start" x="3338" y="-129.5" font-family="Helvetica,sans-Serif" font-size="10.00">/雷昕整理后的重要文件</text>
<text text-anchor="start" x="3338" y="-118.5" font-family="Helvetica,sans-Serif" font-size="10.00">/程序/My&#45;CFD/HydroCODE/src</text>
<text text-anchor="middle" x="3409" y="-107.5" font-family="Helvetica,sans-Serif" font-size="10.00">/include/finite_volume.h</text>
</a>
</g>
</g>
<!-- Node1&#45;&gt;Node21 -->
<g id="edge32" class="edge">
<title>Node1&#45;&gt;Node21</title>
<path fill="none" stroke="midnightblue" d="M2164.37,-212.6C2410.36,-206.97 3093.93,-188.51 3316,-153 3320.55,-152.27 3325.19,-151.41 3329.85,-150.44"/>
<polygon fill="midnightblue" stroke="midnightblue" points="2163.96,-209.11 2154.04,-212.84 2164.12,-216.11 2163.96,-209.11"/>
</g>
<!-- Node22 -->
<g id="node22" class="node">
<title>Node22</title>
<g id="a_node22"><a xlink:href="../../d2/d24/hydrocode_8c.html" target="_top" xlink:title="This is a C file of the main function.">
<polygon fill="white" stroke="black" points="3318,-22.5 3318,-41.5 3394,-41.5 3394,-22.5 3318,-22.5"/>
<text text-anchor="middle" x="3356" y="-29.5" font-family="Helvetica,sans-Serif" font-size="10.00">hydrocode.c</text>
</a>
</g>
</g>
<!-- Node1&#45;&gt;Node22 -->
<g id="edge54" class="edge">
<title>Node1&#45;&gt;Node22</title>
<path fill="none" stroke="midnightblue" d="M2164.37,-214.73C2427.62,-214.73 3187.77,-209.77 3283,-153 3294.1,-146.38 3336.88,-68.43 3351.26,-41.83"/>
<polygon fill="midnightblue" stroke="midnightblue" points="2164.08,-211.23 2154.08,-214.72 2164.08,-218.23 2164.08,-211.23"/>
</g>
<!-- Node23 -->
<g id="node23" class="node">
<title>Node23</title>
<g id="a_node23"><a xlink:href="../../dd/df5/flux__calc_8h.html" target="_top" xlink:title="This file is the header file of intermediate processes of finite volume scheme.">
<polygon fill="white" stroke="black" points="1167,-100.5 1167,-152.5 1325,-152.5 1325,-100.5 1167,-100.5"/>
<text text-anchor="start" x="1175" y="-140.5" font-family="Helvetica,sans-Serif" font-size="10.00">/run/media/leixin/软件盘</text>
<text text-anchor="start" x="1175" y="-129.5" font-family="Helvetica,sans-Serif" font-size="10.00">/雷昕整理后的重要文件</text>
<text text-anchor="start" x="1175" y="-118.5" font-family="Helvetica,sans-Serif" font-size="10.00">/程序/My&#45;CFD/HydroCODE/src</text>
<text text-anchor="middle" x="1246" y="-107.5" font-family="Helvetica,sans-Serif" font-size="10.00">/include/flux_calc.h</text>
</a>
</g>
</g>
<!-- Node1&#45;&gt;Node23 -->
<g id="edge34" class="edge">
<title>Node1&#45;&gt;Node23</title>
<path fill="none" stroke="midnightblue" d="M1985.76,-211.98C1847.26,-206.95 1572.6,-192.52 1343,-153 1337.17,-152 1331.17,-150.81 1325.16,-149.5"/>
<polygon fill="midnightblue" stroke="midnightblue" points="1985.78,-215.48 1995.9,-212.34 1986.03,-208.49 1985.78,-215.48"/>
</g>
<!-- Node24 -->
<g id="node24" class="node">
<title>Node24</title>
<g id="a_node24"><a xlink:href="../../d6/d6f/inter__process_8h.html" target="_top" xlink:title="This file is the header file of intermediate processes of finite volume scheme.">
<polygon fill="white" stroke="black" points="1832,-100.5 1832,-152.5 1990,-152.5 1990,-100.5 1832,-100.5"/>
<text text-anchor="start" x="1840" y="-140.5" font-family="Helvetica,sans-Serif" font-size="10.00">/run/media/leixin/软件盘</text>
<text text-anchor="start" x="1840" y="-129.5" font-family="Helvetica,sans-Serif" font-size="10.00">/雷昕整理后的重要文件</text>
<text text-anchor="start" x="1840" y="-118.5" font-family="Helvetica,sans-Serif" font-size="10.00">/程序/My&#45;CFD/HydroCODE/src</text>
<text text-anchor="middle" x="1911" y="-107.5" font-family="Helvetica,sans-Serif" font-size="10.00">/include/inter_process.h</text>
</a>
</g>
</g>
<!-- Node1&#45;&gt;Node24 -->
<g id="edge37" class="edge">
<title>Node1&#45;&gt;Node24</title>
<path fill="none" stroke="midnightblue" d="M2018.7,-184.64C1999.04,-174.2 1977.19,-162.61 1958.33,-152.61"/>
<polygon fill="midnightblue" stroke="midnightblue" points="2017.09,-187.74 2027.56,-189.34 2020.37,-181.56 2017.09,-187.74"/>
</g>
<!-- Node25 -->
<g id="node25" class="node">
<title>Node25</title>
<g id="a_node25"><a xlink:href="../../df/d13/bound__cond__slope__limiter_8c.html" target="_top" xlink:title="This is a function to set boundary conditions and use the slope limiter in one dimension.">
<polygon fill="white" stroke="black" points="2621,-0.5 2621,-63.5 2799,-63.5 2799,-0.5 2621,-0.5"/>
<text text-anchor="start" x="2629" y="-51.5" font-family="Helvetica,sans-Serif" font-size="10.00">/run/media/leixin/软件盘</text>
<text text-anchor="start" x="2629" y="-40.5" font-family="Helvetica,sans-Serif" font-size="10.00">/雷昕整理后的重要文件</text>
<text text-anchor="start" x="2629" y="-29.5" font-family="Helvetica,sans-Serif" font-size="10.00">/程序/My&#45;CFD/HydroCODE/src</text>
<text text-anchor="start" x="2629" y="-18.5" font-family="Helvetica,sans-Serif" font-size="10.00">/inter_process/bound_cond_slope</text>
<text text-anchor="middle" x="2710" y="-7.5" font-family="Helvetica,sans-Serif" font-size="10.00">_limiter.c</text>
</a>
</g>
</g>
<!-- Node1&#45;&gt;Node25 -->
<g id="edge49" class="edge">
<title>Node1&#45;&gt;Node25</title>
<path fill="none" stroke="midnightblue" d="M2097.81,-180.8C2120.23,-147.91 2151.7,-102.44 2156,-100 2244.37,-49.76 2512.23,-83.45 2612,-64 2614.89,-63.44 2617.81,-62.82 2620.76,-62.15"/>
<polygon fill="midnightblue" stroke="midnightblue" points="2094.77,-179.04 2092.04,-189.28 2100.56,-182.98 2094.77,-179.04"/>
</g>
<!-- Node26 -->
<g id="node26" class="node">
<title>Node26</title>
<g id="a_node26"><a xlink:href="../../d8/d49/bound__cond__slope__limiter__x_8c.html" target="_top" xlink:title="This is a function to set boundary conditions and use the slope limiter in x&#45;direction of two dimensi...">
<polygon fill="white" stroke="black" points="2817,-0.5 2817,-63.5 2995,-63.5 2995,-0.5 2817,-0.5"/>
<text text-anchor="start" x="2825" y="-51.5" font-family="Helvetica,sans-Serif" font-size="10.00">/run/media/leixin/软件盘</text>
<text text-anchor="start" x="2825" y="-40.5" font-family="Helvetica,sans-Serif" font-size="10.00">/雷昕整理后的重要文件</text>
<text text-anchor="start" x="2825" y="-29.5" font-family="Helvetica,sans-Serif" font-size="10.00">/程序/My&#45;CFD/HydroCODE/src</text>
<text text-anchor="start" x="2825" y="-18.5" font-family="Helvetica,sans-Serif" font-size="10.00">/inter_process/bound_cond_slope</text>
<text text-anchor="middle" x="2906" y="-7.5" font-family="Helvetica,sans-Serif" font-size="10.00">_limiter_x.c</text>
</a>
</g>
</g>
<!-- Node1&#45;&gt;Node26 -->
<g id="edge50" class="edge">
<title>Node1&#45;&gt;Node26</title>
<path fill="none" stroke="midnightblue" d="M2117.33,-182.84C2128.68,-173.66 2140.66,-163.33 2151,-153 2172.46,-131.56 2167.01,-113.84 2194,-100 2315.62,-37.63 2673.59,-88.8 2808,-64 2810.9,-63.47 2813.82,-62.87 2816.77,-62.23"/>
<polygon fill="midnightblue" stroke="midnightblue" points="2114.86,-180.33 2109.21,-189.29 2119.21,-185.81 2114.86,-180.33"/>
</g>
<!-- Node27 -->
<g id="node27" class="node">
<title>Node27</title>
<g id="a_node27"><a xlink:href="../../d8/dbb/bound__cond__slope__limiter__y_8c.html" target="_top" xlink:title=" ">
<polygon fill="white" stroke="black" points="3013,-0.5 3013,-63.5 3191,-63.5 3191,-0.5 3013,-0.5"/>
<text text-anchor="start" x="3021" y="-51.5" font-family="Helvetica,sans-Serif" font-size="10.00">/run/media/leixin/软件盘</text>
<text text-anchor="start" x="3021" y="-40.5" font-family="Helvetica,sans-Serif" font-size="10.00">/雷昕整理后的重要文件</text>
<text text-anchor="start" x="3021" y="-29.5" font-family="Helvetica,sans-Serif" font-size="10.00">/程序/My&#45;CFD/HydroCODE/src</text>
<text text-anchor="start" x="3021" y="-18.5" font-family="Helvetica,sans-Serif" font-size="10.00">/inter_process/bound_cond_slope</text>
<text text-anchor="middle" x="3102" y="-7.5" font-family="Helvetica,sans-Serif" font-size="10.00">_limiter_y.c</text>
</a>
</g>
</g>
<!-- Node1&#45;&gt;Node27 -->
<g id="edge51" class="edge">
<title>Node1&#45;&gt;Node27</title>
<path fill="none" stroke="midnightblue" d="M2140.42,-184.61C2156.53,-175.67 2173.13,-165 2187,-153 2209.32,-133.69 2200.9,-113.77 2227,-100 2303.45,-59.69 2918.91,-79.16 3004,-64 3006.9,-63.48 3009.83,-62.9 3012.78,-62.27"/>
<polygon fill="midnightblue" stroke="midnightblue" points="2138.68,-181.57 2131.54,-189.39 2142,-187.73 2138.68,-181.57"/>
</g>
<!-- Node28 -->
<g id="node28" class="node">
<title>Node28</title>
<g id="a_node28"><a xlink:href="../../d2/d49/slope__limiter_8c.html" target="_top" xlink:title="This is a function of the minmod slope limiter in one dimension.">
<polygon fill="white" stroke="black" points="3506,-100.5 3506,-152.5 3666,-152.5 3666,-100.5 3506,-100.5"/>
<text text-anchor="start" x="3514" y="-140.5" font-family="Helvetica,sans-Serif" font-size="10.00">/run/media/leixin/软件盘</text>
<text text-anchor="start" x="3514" y="-129.5" font-family="Helvetica,sans-Serif" font-size="10.00">/雷昕整理后的重要文件</text>
<text text-anchor="start" x="3514" y="-118.5" font-family="Helvetica,sans-Serif" font-size="10.00">/程序/My&#45;CFD/HydroCODE/src</text>
<text text-anchor="middle" x="3586" y="-107.5" font-family="Helvetica,sans-Serif" font-size="10.00">/inter_process/slope_limiter.c</text>
</a>
</g>
</g>
<!-- Node1&#45;&gt;Node28 -->
<g id="edge52" class="edge">
<title>Node1&#45;&gt;Node28</title>
<path fill="none" stroke="midnightblue" d="M2164.52,-213.39C2434.63,-209.59 3238.73,-194.98 3497,-153 3499.86,-152.54 3502.75,-152.01 3505.66,-151.44"/>
<polygon fill="midnightblue" stroke="midnightblue" points="2164.32,-209.89 2154.37,-213.53 2164.42,-216.89 2164.32,-209.89"/>
</g>
<!-- Node29 -->
<g id="node29" class="node">
<title>Node29</title>
<g id="a_node29"><a xlink:href="../../d7/d36/slope__limiter__2_d__x_8c.html" target="_top" xlink:title="This is a function of the minmod slope limiter in the x&#45;direction of two dimension.">
<polygon fill="white" stroke="black" points="3684,-100.5 3684,-152.5 3874,-152.5 3874,-100.5 3684,-100.5"/>
<text text-anchor="start" x="3692" y="-140.5" font-family="Helvetica,sans-Serif" font-size="10.00">/run/media/leixin/软件盘</text>
<text text-anchor="start" x="3692" y="-129.5" font-family="Helvetica,sans-Serif" font-size="10.00">/雷昕整理后的重要文件</text>
<text text-anchor="start" x="3692" y="-118.5" font-family="Helvetica,sans-Serif" font-size="10.00">/程序/My&#45;CFD/HydroCODE/src</text>
<text text-anchor="middle" x="3779" y="-107.5" font-family="Helvetica,sans-Serif" font-size="10.00">/inter_process/slope_limiter_2D_x.c</text>
</a>
</g>
</g>
<!-- Node1&#45;&gt;Node29 -->
<g id="edge53" class="edge">
<title>Node1&#45;&gt;Node29</title>
<path fill="none" stroke="midnightblue" d="M2164.41,-213.44C2456.35,-209.6 3379.82,-194.43 3675,-153 3677.95,-152.59 3680.93,-152.13 3683.93,-151.62"/>
<polygon fill="midnightblue" stroke="midnightblue" points="2164.24,-209.94 2154.29,-213.57 2164.34,-216.94 2164.24,-209.94"/>
</g>
<!-- Node20&#45;&gt;Node2 -->
<g id="edge20" class="edge">
<title>Node20&#45;&gt;Node2</title>
<path fill="none" stroke="midnightblue" d="M1377.82,-106.41C1363.23,-103.86 1348.24,-101.59 1334,-100 846.54,-45.65 716.5,-133.76 231,-64 220.46,-62.49 209.51,-60.4 198.7,-58.01"/>
<polygon fill="midnightblue" stroke="midnightblue" points="1377.38,-109.89 1387.84,-108.21 1378.62,-103 1377.38,-109.89"/>
</g>
<!-- Node20&#45;&gt;Node3 -->
<g id="edge21" class="edge">
<title>Node20&#45;&gt;Node3</title>
<path fill="none" stroke="midnightblue" d="M1377.81,-106.51C1363.23,-103.95 1348.23,-101.64 1334,-100 938.52,-54.39 831.7,-129.37 439,-64 436.12,-63.52 433.21,-62.99 430.28,-62.4"/>
<polygon fill="midnightblue" stroke="midnightblue" points="1377.37,-109.98 1387.83,-108.31 1378.61,-103.09 1377.37,-109.98"/>
</g>
<!-- Node20&#45;&gt;Node4 -->
<g id="edge22" class="edge">
<title>Node20&#45;&gt;Node4</title>
<path fill="none" stroke="midnightblue" d="M1377.79,-106.66C1363.21,-104.08 1348.22,-101.73 1334,-100 1030.48,-63.13 948.29,-116.04 647,-64 644.12,-63.5 641.21,-62.95 638.28,-62.36"/>
<polygon fill="midnightblue" stroke="midnightblue" points="1377.34,-110.13 1387.81,-108.47 1378.59,-103.24 1377.34,-110.13"/>
</g>
<!-- Node20&#45;&gt;Node5 -->
<g id="edge23" class="edge">
<title>Node20&#45;&gt;Node5</title>
<path fill="none" stroke="midnightblue" d="M1377.75,-107.01C1363.17,-104.39 1348.2,-101.93 1334,-100 1137.38,-73.28 1084.7,-96.74 889,-64 879.16,-62.35 868.95,-60.3 858.82,-58.03"/>
<polygon fill="midnightblue" stroke="midnightblue" points="1377.29,-110.48 1387.76,-108.84 1378.56,-103.6 1377.29,-110.48"/>
</g>
<!-- Node20&#45;&gt;Node12 -->
<g id="edge24" class="edge">
<title>Node20&#45;&gt;Node12</title>
<path fill="none" stroke="midnightblue" d="M1377.83,-108.34C1363.19,-105.54 1348.17,-102.68 1334,-100 1248.26,-83.78 1226.29,-82.43 1141,-64 1132.41,-62.14 1123.52,-60.13 1114.61,-58.06"/>
<polygon fill="midnightblue" stroke="midnightblue" points="1377.41,-111.82 1387.89,-110.27 1378.73,-104.95 1377.41,-111.82"/>
</g>
<!-- Node20&#45;&gt;Node13 -->
<g id="edge25" class="edge">
<title>Node20&#45;&gt;Node13</title>
<path fill="none" stroke="midnightblue" d="M1397.8,-96.54C1372.83,-86.08 1344.57,-74.26 1319.26,-63.66"/>
<polygon fill="midnightblue" stroke="midnightblue" points="1396.62,-99.84 1407.19,-100.47 1399.32,-93.38 1396.62,-99.84"/>
</g>
<!-- Node20&#45;&gt;Node14 -->
<g id="edge26" class="edge">
<title>Node20&#45;&gt;Node14</title>
<path fill="none" stroke="midnightblue" d="M1467,-89.99C1467,-79.41 1467,-68.03 1467,-58.25"/>
<polygon fill="midnightblue" stroke="midnightblue" points="1463.5,-90.22 1467,-100.22 1470.5,-90.22 1463.5,-90.22"/>
</g>
<!-- Node20&#45;&gt;Node15 -->
<g id="edge27" class="edge">
<title>Node20&#45;&gt;Node15</title>
<path fill="none" stroke="midnightblue" d="M1539.56,-96.69C1570.74,-84.32 1606.84,-69.98 1636.9,-58.05"/>
<polygon fill="midnightblue" stroke="midnightblue" points="1538.06,-93.53 1530.05,-100.47 1540.64,-100.03 1538.06,-93.53"/>
</g>
<!-- Node20&#45;&gt;Node16 -->
<g id="edge28" class="edge">
<title>Node20&#45;&gt;Node16</title>
<path fill="none" stroke="midnightblue" d="M1556.24,-111.86C1626.99,-100.54 1728.22,-83.23 1816,-64 1824.38,-62.16 1833.06,-60.13 1841.74,-58.02"/>
<polygon fill="midnightblue" stroke="midnightblue" points="1555.35,-108.45 1546.02,-113.48 1556.45,-115.37 1555.35,-108.45"/>
</g>
<!-- Node20&#45;&gt;Node17 -->
<g id="edge29" class="edge">
<title>Node20&#45;&gt;Node17</title>
<path fill="none" stroke="midnightblue" d="M1556.41,-118.44C1695.93,-107.02 1958.99,-83.78 2051,-64 2054.11,-63.33 2057.26,-62.6 2060.43,-61.81"/>
<polygon fill="midnightblue" stroke="midnightblue" points="1555.85,-114.97 1546.17,-119.27 1556.42,-121.95 1555.85,-114.97"/>
</g>
<!-- Node20&#45;&gt;Node18 -->
<g id="edge30" class="edge">
<title>Node20&#45;&gt;Node18</title>
<path fill="none" stroke="midnightblue" d="M1556.03,-118.97C1751.81,-104.53 2205.05,-70.65 2238,-64 2241.12,-63.37 2244.27,-62.67 2247.45,-61.91"/>
<polygon fill="midnightblue" stroke="midnightblue" points="1555.77,-115.48 1546.05,-119.71 1556.28,-122.46 1555.77,-115.48"/>
</g>
<!-- Node20&#45;&gt;Node19 -->
<g id="edge31" class="edge">
<title>Node20&#45;&gt;Node19</title>
<path fill="none" stroke="midnightblue" d="M1556.55,-118.79C1628.53,-113.47 1732.24,-105.96 1823,-100 2090.46,-82.42 2161.75,-114.39 2425,-64 2428.12,-63.4 2431.28,-62.73 2434.46,-61.99"/>
<polygon fill="midnightblue" stroke="midnightblue" points="1555.88,-115.33 1546.16,-119.56 1556.39,-122.31 1555.88,-115.33"/>
</g>
<!-- Node21&#45;&gt;Node22 -->
<g id="edge33" class="edge">
<title>Node21&#45;&gt;Node22</title>
<path fill="none" stroke="midnightblue" d="M3389.35,-91.2C3379.14,-73.38 3367.47,-53.02 3361,-41.72"/>
<polygon fill="midnightblue" stroke="midnightblue" points="3386.51,-93.29 3394.52,-100.22 3392.58,-89.81 3386.51,-93.29"/>
</g>
<!-- Node23&#45;&gt;Node12 -->
<g id="edge35" class="edge">
<title>Node23&#45;&gt;Node12</title>
<path fill="none" stroke="midnightblue" d="M1174.06,-96.69C1143.15,-84.32 1107.36,-69.98 1077.56,-58.05"/>
<polygon fill="midnightblue" stroke="midnightblue" points="1172.9,-100 1183.49,-100.47 1175.51,-93.5 1172.9,-100"/>
</g>
<!-- Node23&#45;&gt;Node13 -->
<g id="edge36" class="edge">
<title>Node23&#45;&gt;Node13</title>
<path fill="none" stroke="midnightblue" d="M1246,-89.94C1246,-81.23 1246,-71.97 1246,-63.51"/>
<polygon fill="midnightblue" stroke="midnightblue" points="1242.5,-90.22 1246,-100.22 1249.5,-90.22 1242.5,-90.22"/>
</g>
<!-- Node24&#45;&gt;Node12 -->
<g id="edge38" class="edge">
<title>Node24&#45;&gt;Node12</title>
<path fill="none" stroke="midnightblue" d="M1821.78,-119.19C1633.34,-105.74 1206.69,-74.63 1141,-64 1130.77,-62.34 1120.15,-60.28 1109.61,-58.01"/>
<polygon fill="midnightblue" stroke="midnightblue" points="1821.71,-122.69 1831.93,-119.91 1822.21,-115.71 1821.71,-122.69"/>
</g>
<!-- Node24&#45;&gt;Node13 -->
<g id="edge39" class="edge">
<title>Node24&#45;&gt;Node13</title>
<path fill="none" stroke="midnightblue" d="M1821.62,-120.69C1710.27,-113.56 1514.61,-97.27 1350,-64 1347.23,-63.44 1344.43,-62.84 1341.61,-62.2"/>
<polygon fill="midnightblue" stroke="midnightblue" points="1821.6,-124.2 1831.8,-121.33 1822.04,-117.21 1821.6,-124.2"/>
</g>
<!-- Node24&#45;&gt;Node14 -->
<g id="edge40" class="edge">
<title>Node24&#45;&gt;Node14</title>
<path fill="none" stroke="midnightblue" d="M1821.81,-110.66C1755.63,-99.19 1663.34,-82.24 1583,-64 1574.87,-62.15 1566.45,-60.13 1558.02,-58.02"/>
<polygon fill="midnightblue" stroke="midnightblue" points="1821.34,-114.13 1831.79,-112.38 1822.53,-107.23 1821.34,-114.13"/>
</g>
<!-- Node24&#45;&gt;Node15 -->
<g id="edge41" class="edge">
<title>Node24&#45;&gt;Node15</title>
<path fill="none" stroke="midnightblue" d="M1844.56,-96.37C1816.49,-84.07 1784.13,-69.88 1757.15,-58.05"/>
<polygon fill="midnightblue" stroke="midnightblue" points="1843.34,-99.66 1853.9,-100.47 1846.15,-93.25 1843.34,-99.66"/>
</g>
<!-- Node24&#45;&gt;Node16 -->
<g id="edge42" class="edge">
<title>Node24&#45;&gt;Node16</title>
<path fill="none" stroke="midnightblue" d="M1919.75,-90.32C1922.4,-79.65 1925.26,-68.13 1927.72,-58.25"/>
<polygon fill="midnightblue" stroke="midnightblue" points="1916.3,-89.67 1917.28,-100.22 1923.09,-91.36 1916.3,-89.67"/>
</g>
<!-- Node24&#45;&gt;Node17 -->
<g id="edge43" class="edge">
<title>Node24&#45;&gt;Node17</title>
<path fill="none" stroke="midnightblue" d="M1983.92,-96.67C2010.45,-86.19 2040.52,-74.3 2067.43,-63.66"/>
<polygon fill="midnightblue" stroke="midnightblue" points="1982.34,-93.54 1974.32,-100.47 1984.91,-100.05 1982.34,-93.54"/>
</g>
<!-- Node24&#45;&gt;Node18 -->
<g id="edge44" class="edge">
<title>Node24&#45;&gt;Node18</title>
<path fill="none" stroke="midnightblue" d="M2000.37,-107.97C2014.3,-105.28 2028.54,-102.55 2042,-100 2129.03,-83.54 2152.19,-85.92 2238,-64 2241.08,-63.21 2244.21,-62.38 2247.35,-61.51"/>
<polygon fill="midnightblue" stroke="midnightblue" points="1999.44,-104.59 1990.29,-109.92 2000.78,-111.46 1999.44,-104.59"/>
</g>
<!-- Node24&#45;&gt;Node19 -->
<g id="edge45" class="edge">
<title>Node24&#45;&gt;Node19</title>
<path fill="none" stroke="midnightblue" d="M2000.5,-111.22C2026.14,-107.33 2054.15,-103.3 2080,-100 2232.93,-80.49 2274.26,-96.33 2425,-64 2428.11,-63.33 2431.26,-62.6 2434.43,-61.82"/>
<polygon fill="midnightblue" stroke="midnightblue" points="1999.78,-107.78 1990.42,-112.75 2000.83,-114.7 1999.78,-107.78"/>
</g>
<!-- Node24&#45;&gt;Node25 -->
<g id="edge46" class="edge">
<title>Node24&#45;&gt;Node25</title>
<path fill="none" stroke="midnightblue" d="M2000.14,-113.53C2036.63,-108.89 2079.3,-103.79 2118,-100 2337.09,-78.54 2395.81,-105.48 2612,-64 2614.89,-63.45 2617.82,-62.83 2620.76,-62.17"/>
<polygon fill="midnightblue" stroke="midnightblue" points="1999.5,-110.09 1990.03,-114.83 2000.39,-117.03 1999.5,-110.09"/>
</g>
<!-- Node24&#45;&gt;Node26 -->
<g id="edge47" class="edge">
<title>Node24&#45;&gt;Node26</title>
<path fill="none" stroke="midnightblue" d="M2000.11,-115.17C2046.53,-110.06 2104.27,-104.12 2156,-100 2445.3,-76.97 2522.51,-116.18 2808,-64 2810.9,-63.47 2813.83,-62.88 2816.77,-62.24"/>
<polygon fill="midnightblue" stroke="midnightblue" points="1999.63,-111.71 1990.08,-116.29 2000.4,-118.66 1999.63,-111.71"/>
</g>
<!-- Node24&#45;&gt;Node27 -->
<g id="edge48" class="edge">
<title>Node24&#45;&gt;Node27</title>
<path fill="none" stroke="midnightblue" d="M2000.4,-116.4C2056.04,-110.99 2129.13,-104.36 2194,-100 2553.54,-75.82 2649.17,-126.88 3004,-64 3006.9,-63.49 3009.83,-62.91 3012.78,-62.28"/>
<polygon fill="midnightblue" stroke="midnightblue" points="1999.83,-112.94 1990.21,-117.39 2000.51,-119.9 1999.83,-112.94"/>
</g>
</g>
</svg>
