<?xml version="1.0" encoding="UTF-8" standalone="no"?>
<!DOCTYPE svg PUBLIC "-//W3C//DTD SVG 1.1//EN"
 "http://www.w3.org/Graphics/SVG/1.1/DTD/svg11.dtd">
<!-- Generated by graphviz version 6.0.1 (0)
 -->
<!-- Title: src~/meshing/radial_mesh.c Pages: 1 -->
<svg width="469pt" height="207pt"
 viewBox="0.00 0.00 468.50 207.00" xmlns="http://www.w3.org/2000/svg" xmlns:xlink="http://www.w3.org/1999/xlink">
<g id="graph0" class="graph" transform="scale(1 1) rotate(0) translate(4 203)">
<title>src~/meshing/radial_mesh.c</title>
<polygon fill="white" stroke="none" points="-4,4 -4,-203 464.5,-203 464.5,4 -4,4"/>
<!-- Node1 -->
<g id="node1" class="node">
<title>Node1</title>
<g id="a_node1"><a xlink:title="There are some handler functions of radially symmetric mesh.">
<polygon fill="#bfbfbf" stroke="black" points="108,-168.5 108,-198.5 223,-198.5 223,-168.5 108,-168.5"/>
<text text-anchor="start" x="116" y="-186.5" font-family="Helvetica,sans-Serif" font-size="10.00">src~/meshing/radial</text>
<text text-anchor="middle" x="165.5" y="-175.5" font-family="Helvetica,sans-Serif" font-size="10.00">_mesh.c</text>
</a>
</g>
</g>
<!-- Node2 -->
<g id="node2" class="node">
<title>Node2</title>
<g id="a_node2"><a xlink:title=" ">
<polygon fill="white" stroke="#bfbfbf" points="0,-112.5 0,-131.5 51,-131.5 51,-112.5 0,-112.5"/>
<text text-anchor="middle" x="25.5" y="-119.5" font-family="Helvetica,sans-Serif" font-size="10.00">math.h</text>
</a>
</g>
</g>
<!-- Node1&#45;&gt;Node2 -->
<g id="edge1" class="edge">
<title>Node1&#45;&gt;Node2</title>
<path fill="none" stroke="midnightblue" d="M132.32,-168.4C108.94,-158.46 77.89,-145.26 55.29,-135.66"/>
<polygon fill="midnightblue" stroke="midnightblue" points="56.44,-132.35 45.87,-131.66 53.71,-138.79 56.44,-132.35"/>
</g>
<!-- Node3 -->
<g id="node3" class="node">
<title>Node3</title>
<g id="a_node3"><a xlink:title=" ">
<polygon fill="white" stroke="#bfbfbf" points="69,-112.5 69,-131.5 122,-131.5 122,-112.5 69,-112.5"/>
<text text-anchor="middle" x="95.5" y="-119.5" font-family="Helvetica,sans-Serif" font-size="10.00">stdlib.h</text>
</a>
</g>
</g>
<!-- Node1&#45;&gt;Node3 -->
<g id="edge2" class="edge">
<title>Node1&#45;&gt;Node3</title>
<path fill="none" stroke="midnightblue" d="M148.91,-168.4C138.21,-159.31 124.31,-147.49 113.37,-138.19"/>
<polygon fill="midnightblue" stroke="midnightblue" points="115.57,-135.47 105.69,-131.66 111.04,-140.8 115.57,-135.47"/>
</g>
<!-- Node4 -->
<g id="node4" class="node">
<title>Node4</title>
<g id="a_node4"><a xlink:title=" ">
<polygon fill="white" stroke="#bfbfbf" points="140.5,-112.5 140.5,-131.5 190.5,-131.5 190.5,-112.5 140.5,-112.5"/>
<text text-anchor="middle" x="165.5" y="-119.5" font-family="Helvetica,sans-Serif" font-size="10.00">stdio.h</text>
</a>
</g>
</g>
<!-- Node1&#45;&gt;Node4 -->
<g id="edge3" class="edge">
<title>Node1&#45;&gt;Node4</title>
<path fill="none" stroke="midnightblue" d="M165.5,-168.4C165.5,-160.47 165.5,-150.46 165.5,-141.86"/>
<polygon fill="midnightblue" stroke="midnightblue" points="169,-141.66 165.5,-131.66 162,-141.66 169,-141.66"/>
</g>
<!-- Node5 -->
<g id="node5" class="node">
<title>Node5</title>
<g id="a_node5"><a xlink:href="../../d9/d9a/mem_8h.html" target="_top" xlink:title="This file is a header file of source codes in the book &#39;C Interfaces and Implementations&#39;.">
<polygon fill="white" stroke="black" points="209,-112.5 209,-131.5 324,-131.5 324,-112.5 209,-112.5"/>
<text text-anchor="middle" x="266.5" y="-119.5" font-family="Helvetica,sans-Serif" font-size="10.00">../include_cii/mem.h</text>
</a>
</g>
</g>
<!-- Node1&#45;&gt;Node5 -->
<g id="edge4" class="edge">
<title>Node1&#45;&gt;Node5</title>
<path fill="none" stroke="midnightblue" d="M189.44,-168.4C205.63,-158.86 226.91,-146.32 243,-136.84"/>
<polygon fill="midnightblue" stroke="midnightblue" points="244.96,-139.75 251.8,-131.66 241.41,-133.72 244.96,-139.75"/>
</g>
<!-- Node8 -->
<g id="node8" class="node">
<title>Node8</title>
<g id="a_node8"><a xlink:href="../../da/d1e/var__struc_8h.html" target="_top" xlink:title="This file is the header file of some globally common variables and structural bodies.">
<polygon fill="white" stroke="black" points="342.5,-112.5 342.5,-131.5 460.5,-131.5 460.5,-112.5 342.5,-112.5"/>
<text text-anchor="middle" x="401.5" y="-119.5" font-family="Helvetica,sans-Serif" font-size="10.00">../include/var_struc.h</text>
</a>
</g>
</g>
<!-- Node1&#45;&gt;Node8 -->
<g id="edge7" class="edge">
<title>Node1&#45;&gt;Node8</title>
<path fill="none" stroke="midnightblue" d="M221.13,-168.47C262.91,-157.94 319.33,-143.72 357.88,-134"/>
<polygon fill="midnightblue" stroke="midnightblue" points="358.92,-137.34 367.76,-131.51 357.21,-130.56 358.92,-137.34"/>
</g>
<!-- Node6 -->
<g id="node6" class="node">
<title>Node6</title>
<g id="a_node6"><a xlink:href="../../dc/d65/except_8h.html" target="_top" xlink:title="This file is a header file of source codes in the book &#39;C Interfaces and Implementations&#39;.">
<polygon fill="white" stroke="black" points="237,-56.5 237,-75.5 296,-75.5 296,-56.5 237,-56.5"/>
<text text-anchor="middle" x="266.5" y="-63.5" font-family="Helvetica,sans-Serif" font-size="10.00">except.h</text>
</a>
</g>
</g>
<!-- Node5&#45;&gt;Node6 -->
<g id="edge5" class="edge">
<title>Node5&#45;&gt;Node6</title>
<path fill="none" stroke="midnightblue" d="M266.5,-112.08C266.5,-105.01 266.5,-94.86 266.5,-85.99"/>
<polygon fill="midnightblue" stroke="midnightblue" points="270,-85.75 266.5,-75.75 263,-85.75 270,-85.75"/>
</g>
<!-- Node7 -->
<g id="node7" class="node">
<title>Node7</title>
<g id="a_node7"><a xlink:title=" ">
<polygon fill="white" stroke="#bfbfbf" points="237,-0.5 237,-19.5 296,-19.5 296,-0.5 237,-0.5"/>
<text text-anchor="middle" x="266.5" y="-7.5" font-family="Helvetica,sans-Serif" font-size="10.00">setjmp.h</text>
</a>
</g>
</g>
<!-- Node6&#45;&gt;Node7 -->
<g id="edge6" class="edge">
<title>Node6&#45;&gt;Node7</title>
<path fill="none" stroke="midnightblue" d="M266.5,-56.08C266.5,-49.01 266.5,-38.86 266.5,-29.99"/>
<polygon fill="midnightblue" stroke="midnightblue" points="270,-29.75 266.5,-19.75 263,-29.75 270,-29.75"/>
</g>
</g>
</svg>
