<?xml version="1.0" encoding="UTF-8" standalone="no"?>
<!DOCTYPE svg PUBLIC "-//W3C//DTD SVG 1.1//EN"
 "http://www.w3.org/Graphics/SVG/1.1/DTD/svg11.dtd">
<!-- Generated by graphviz version 6.0.1 (0)
 -->
<!-- Title: src~/include_cii/except.h Pages: 1 -->
<svg width="479pt" height="162pt"
 viewBox="0.00 0.00 479.00 162.00" xmlns="http://www.w3.org/2000/svg" xmlns:xlink="http://www.w3.org/1999/xlink">
<g id="graph0" class="graph" transform="scale(1 1) rotate(0) translate(4 158)">
<title>src~/include_cii/except.h</title>
<polygon fill="white" stroke="none" points="-4,4 -4,-158 475,-158 475,4 -4,4"/>
<!-- Node1 -->
<g id="node1" class="node">
<title>Node1</title>
<g id="a_node1"><a xlink:title="This file is a header file of source codes in the book &#39;C Interfaces and Implementations&#39;.">
<polygon fill="#bfbfbf" stroke="black" points="256,-134.5 256,-153.5 395,-153.5 395,-134.5 256,-134.5"/>
<text text-anchor="middle" x="325.5" y="-141.5" font-family="Helvetica,sans-Serif" font-size="10.00">src~/include_cii/except.h</text>
</a>
</g>
</g>
<!-- Node2 -->
<g id="node2" class="node">
<title>Node2</title>
<g id="a_node2"><a xlink:href="../../d9/d9a/mem_8h.html" target="_top" xlink:title="This file is a header file of source codes in the book &#39;C Interfaces and Implementations&#39;.">
<polygon fill="white" stroke="black" points="157,-78.5 157,-97.5 288,-97.5 288,-78.5 157,-78.5"/>
<text text-anchor="middle" x="222.5" y="-85.5" font-family="Helvetica,sans-Serif" font-size="10.00">src~/include_cii/mem.h</text>
</a>
</g>
</g>
<!-- Node1&#45;&gt;Node2 -->
<g id="edge1" class="edge">
<title>Node1&#45;&gt;Node2</title>
<path fill="none" stroke="midnightblue" d="M299.92,-129.59C280.88,-119.61 255.44,-106.27 239.01,-97.65"/>
<polygon fill="midnightblue" stroke="midnightblue" points="298.47,-132.78 308.95,-134.32 301.72,-126.58 298.47,-132.78"/>
</g>
<!-- Node5 -->
<g id="node5" class="node">
<title>Node5</title>
<g id="a_node5"><a xlink:href="../../d3/d8f/mem_8c.html" target="_top" xlink:title="This file is the source codes in the book &#39;C Interfaces and Implementations&#39;.">
<polygon fill="white" stroke="black" points="280.5,-11.5 280.5,-30.5 390.5,-30.5 390.5,-11.5 280.5,-11.5"/>
<text text-anchor="middle" x="335.5" y="-18.5" font-family="Helvetica,sans-Serif" font-size="10.00">src~/src_cii/mem.c</text>
</a>
</g>
</g>
<!-- Node1&#45;&gt;Node5 -->
<g id="edge6" class="edge">
<title>Node1&#45;&gt;Node5</title>
<path fill="none" stroke="midnightblue" d="M327.07,-123.99C329.27,-97.35 333.19,-50 334.79,-30.62"/>
<polygon fill="midnightblue" stroke="midnightblue" points="323.55,-124.04 326.22,-134.3 330.53,-124.62 323.55,-124.04"/>
</g>
<!-- Node6 -->
<g id="node6" class="node">
<title>Node6</title>
<g id="a_node6"><a xlink:href="../../d1/d99/except_8c.html" target="_top" xlink:title="This file is the source codes in the book &#39;C Interfaces and Implementations&#39;.">
<polygon fill="white" stroke="black" points="354,-78.5 354,-97.5 471,-97.5 471,-78.5 354,-78.5"/>
<text text-anchor="middle" x="412.5" y="-85.5" font-family="Helvetica,sans-Serif" font-size="10.00">src~/src_cii/except.c</text>
</a>
</g>
</g>
<!-- Node1&#45;&gt;Node6 -->
<g id="edge5" class="edge">
<title>Node1&#45;&gt;Node6</title>
<path fill="none" stroke="midnightblue" d="M348.22,-128.9C364.17,-119 385,-106.07 398.56,-97.65"/>
<polygon fill="midnightblue" stroke="midnightblue" points="346.13,-126.08 339.48,-134.32 349.82,-132.02 346.13,-126.08"/>
</g>
<!-- Node3 -->
<g id="node3" class="node">
<title>Node3</title>
<g id="a_node3"><a xlink:href="../../d5/d63/grp__solver__radial___l_a_g__source_8c.html" target="_top" xlink:title="This is a Lagrangian GRP scheme to solve radial(cylindrically) symmetric compressible fluid flows.">
<polygon fill="white" stroke="black" points="0,-0.5 0,-41.5 129,-41.5 129,-0.5 0,-0.5"/>
<text text-anchor="start" x="8" y="-29.5" font-family="Helvetica,sans-Serif" font-size="10.00">src~/finite_volume</text>
<text text-anchor="start" x="8" y="-18.5" font-family="Helvetica,sans-Serif" font-size="10.00">/grp_solver_radial_LAG</text>
<text text-anchor="middle" x="64.5" y="-7.5" font-family="Helvetica,sans-Serif" font-size="10.00">_source.c</text>
</a>
</g>
</g>
<!-- Node2&#45;&gt;Node3 -->
<g id="edge2" class="edge">
<title>Node2&#45;&gt;Node3</title>
<path fill="none" stroke="midnightblue" d="M192.09,-74.49C169.47,-65.18 138.15,-52.3 112.2,-41.63"/>
<polygon fill="midnightblue" stroke="midnightblue" points="190.94,-77.8 201.52,-78.37 193.6,-71.33 190.94,-77.8"/>
</g>
<!-- Node4 -->
<g id="node4" class="node">
<title>Node4</title>
<g id="a_node4"><a xlink:href="../../dc/d3e/radial__mesh_8c.html" target="_top" xlink:title="There are some handler functions of radially symmetric mesh.">
<polygon fill="white" stroke="black" points="147,-6 147,-36 262,-36 262,-6 147,-6"/>
<text text-anchor="start" x="155" y="-24" font-family="Helvetica,sans-Serif" font-size="10.00">src~/meshing/radial</text>
<text text-anchor="middle" x="204.5" y="-13" font-family="Helvetica,sans-Serif" font-size="10.00">_mesh.c</text>
</a>
</g>
</g>
<!-- Node2&#45;&gt;Node4 -->
<g id="edge3" class="edge">
<title>Node2&#45;&gt;Node4</title>
<path fill="none" stroke="midnightblue" d="M217.39,-68.56C214.54,-58.25 211.04,-45.6 208.4,-36.09"/>
<polygon fill="midnightblue" stroke="midnightblue" points="214.03,-69.53 220.07,-78.23 220.78,-67.66 214.03,-69.53"/>
</g>
<!-- Node2&#45;&gt;Node5 -->
<g id="edge4" class="edge">
<title>Node2&#45;&gt;Node5</title>
<path fill="none" stroke="midnightblue" d="M246.64,-73.12C269.03,-60.24 301.64,-41.48 320.5,-30.63"/>
<polygon fill="midnightblue" stroke="midnightblue" points="244.66,-70.21 237.74,-78.23 248.15,-76.28 244.66,-70.21"/>
</g>
</g>
</svg>
