<?xml version="1.0" encoding="UTF-8" standalone="no"?>
<!DOCTYPE svg PUBLIC "-//W3C//DTD SVG 1.1//EN"
 "http://www.w3.org/Graphics/SVG/1.1/DTD/svg11.dtd">
<!-- Generated by graphviz version 6.0.1 (0)
 -->
<!-- Title: time_plot_read Pages: 1 -->
<svg width="232pt" height="104pt"
 viewBox="0.00 0.00 232.00 104.00" xmlns="http://www.w3.org/2000/svg" xmlns:xlink="http://www.w3.org/1999/xlink">
<g id="graph0" class="graph" transform="scale(1 1) rotate(0) translate(4 100)">
<title>time_plot_read</title>
<polygon fill="white" stroke="none" points="-4,4 -4,-100 228,-100 228,4 -4,4"/>
<!-- Node1 -->
<g id="node1" class="node">
<title>Node1</title>
<g id="a_node1"><a xlink:title="This function reads the time data file for plotting &#39;time_plot.dat&#39; and initialize tha array &#39;time_pl...">
<polygon fill="#bfbfbf" stroke="black" points="0,-38.5 0,-57.5 90,-57.5 90,-38.5 0,-38.5"/>
<text text-anchor="middle" x="45" y="-45.5" font-family="Helvetica,sans-Serif" font-size="10.00">time_plot_read</text>
</a>
</g>
</g>
<!-- Node2 -->
<g id="node2" class="node">
<title>Node2</title>
<g id="a_node2"><a xlink:href="../../d4/de5/io__control_8c.html#a7d7ac58cf9ddeec7a4a3c73fabd297e6" target="_top" xlink:title="Compare function of double for sort function &#39;qsort()&#39;.">
<polygon fill="white" stroke="black" points="126,-76.5 126,-95.5 224,-95.5 224,-76.5 126,-76.5"/>
<text text-anchor="middle" x="175" y="-83.5" font-family="Helvetica,sans-Serif" font-size="10.00">compare_double</text>
</a>
</g>
</g>
<!-- Node1&#45;&gt;Node2 -->
<g id="edge1" class="edge">
<title>Node1&#45;&gt;Node2</title>
<path fill="none" stroke="midnightblue" d="M78.3,-57.59C94.52,-62.4 114.38,-68.3 131.79,-73.47"/>
<polygon fill="midnightblue" stroke="midnightblue" points="131.13,-76.92 141.71,-76.41 133.12,-70.21 131.13,-76.92"/>
</g>
<!-- Node3 -->
<g id="node3" class="node">
<title>Node3</title>
<g id="a_node3"><a xlink:href="../../d4/de5/io__control_8c.html#acdd9ccb7dc0ecc925cafe95a4c2f8a51" target="_top" xlink:title="This function counts how many numbers are there in the initial data file.">
<polygon fill="white" stroke="black" points="133.5,-38.5 133.5,-57.5 216.5,-57.5 216.5,-38.5 133.5,-38.5"/>
<text text-anchor="middle" x="175" y="-45.5" font-family="Helvetica,sans-Serif" font-size="10.00">flu_var_count</text>
</a>
</g>
</g>
<!-- Node1&#45;&gt;Node3 -->
<g id="edge2" class="edge">
<title>Node1&#45;&gt;Node3</title>
<path fill="none" stroke="midnightblue" d="M90.05,-48C100.68,-48 112.13,-48 123.05,-48"/>
<polygon fill="midnightblue" stroke="midnightblue" points="123.31,-51.5 133.31,-48 123.31,-44.5 123.31,-51.5"/>
</g>
<!-- Node4 -->
<g id="node4" class="node">
<title>Node4</title>
<g id="a_node4"><a xlink:href="../../d4/de5/io__control_8c.html#a40ca7ad20048ff97a27a8641cf31b7cb" target="_top" xlink:title="This function reads the initial data file to generate the initial data.">
<polygon fill="white" stroke="black" points="136.5,-0.5 136.5,-19.5 213.5,-19.5 213.5,-0.5 136.5,-0.5"/>
<text text-anchor="middle" x="175" y="-7.5" font-family="Helvetica,sans-Serif" font-size="10.00">flu_var_read</text>
</a>
</g>
</g>
<!-- Node1&#45;&gt;Node4 -->
<g id="edge3" class="edge">
<title>Node1&#45;&gt;Node4</title>
<path fill="none" stroke="midnightblue" d="M78.3,-38.41C94.52,-33.6 114.38,-27.7 131.79,-22.53"/>
<polygon fill="midnightblue" stroke="midnightblue" points="133.12,-25.79 141.71,-19.59 131.13,-19.08 133.12,-25.79"/>
</g>
</g>
</svg>
