<?xml version="1.0" encoding="UTF-8" standalone="no"?>
<!DOCTYPE svg PUBLIC "-//W3C//DTD SVG 1.1//EN"
 "http://www.w3.org/Graphics/SVG/1.1/DTD/svg11.dtd">
<!-- Generated by graphviz version 6.0.1 (0)
 -->
<!-- Title: VIP_limiter_radial Pages: 1 -->
<svg width="485pt" height="159pt"
 viewBox="0.00 0.00 485.00 158.61" xmlns="http://www.w3.org/2000/svg" xmlns:xlink="http://www.w3.org/1999/xlink">
<g id="graph0" class="graph" transform="scale(1 1) rotate(0) translate(4 154.61)">
<title>VIP_limiter_radial</title>
<polygon fill="white" stroke="none" points="-4,4 -4,-154.61 481,-154.61 481,4 -4,4"/>
<!-- Node1 -->
<g id="node1" class="node">
<title>Node1</title>
<g id="a_node1"><a xlink:title="This function apply the VIP/minmod limiter to the slope of the fluid velocity in radially symmetric c...">
<polygon fill="#bfbfbf" stroke="black" points="0,-93.11 0,-112.11 103,-112.11 103,-93.11 0,-93.11"/>
<text text-anchor="middle" x="51.5" y="-100.11" font-family="Helvetica,sans-Serif" font-size="10.00">VIP_limiter_radial</text>
</a>
</g>
</g>
<!-- Node2 -->
<g id="node2" class="node">
<title>Node2</title>
<g id="a_node2"><a xlink:href="../../d5/da5/tools_8h.html#a56cac3298eeead8cf22c1e61eb5a5a88" target="_top" xlink:title="Minmod limiter function of two variables.">
<polygon fill="white" stroke="black" points="149.5,-131.11 149.5,-150.11 212.5,-150.11 212.5,-131.11 149.5,-131.11"/>
<text text-anchor="middle" x="181" y="-138.11" font-family="Helvetica,sans-Serif" font-size="10.00">minmod2</text>
</a>
</g>
</g>
<!-- Node1&#45;&gt;Node2 -->
<g id="edge1" class="edge">
<title>Node1&#45;&gt;Node2</title>
<path fill="none" stroke="midnightblue" d="M84.67,-112.19C101.2,-117.12 121.52,-123.17 139.14,-128.43"/>
<polygon fill="midnightblue" stroke="midnightblue" points="138.57,-131.91 149.16,-131.41 140.57,-125.2 138.57,-131.91"/>
</g>
<!-- Node3 -->
<g id="node3" class="node">
<title>Node3</title>
<g id="a_node3"><a xlink:href="../../d5/da5/tools_8h.html#a6dfba28e1af33b47f4656d3738996fe9" target="_top" xlink:title="Minmod limiter function of three variables.">
<polygon fill="white" stroke="black" points="149.5,-93.11 149.5,-112.11 212.5,-112.11 212.5,-93.11 149.5,-93.11"/>
<text text-anchor="middle" x="181" y="-100.11" font-family="Helvetica,sans-Serif" font-size="10.00">minmod3</text>
</a>
</g>
</g>
<!-- Node1&#45;&gt;Node3 -->
<g id="edge2" class="edge">
<title>Node1&#45;&gt;Node3</title>
<path fill="none" stroke="midnightblue" d="M103.26,-102.61C115.17,-102.61 127.71,-102.61 139.12,-102.61"/>
<polygon fill="midnightblue" stroke="midnightblue" points="139.24,-106.11 149.24,-102.61 139.24,-99.11 139.24,-106.11"/>
</g>
<!-- Node4 -->
<g id="node4" class="node">
<title>Node4</title>
<g id="a_node4"><a xlink:href="../../d6/d7d/_v_i_p_limiter_8cpp.html#a797681bc7e6c787bc98d26f2fc508973" target="_top" xlink:title="Subroutine of using VIP limiter for 2D velocity vector.">
<polygon fill="white" stroke="black" points="139,-55.11 139,-74.11 223,-74.11 223,-55.11 139,-55.11"/>
<text text-anchor="middle" x="181" y="-62.11" font-family="Helvetica,sans-Serif" font-size="10.00">useVIPLimiter</text>
</a>
</g>
</g>
<!-- Node1&#45;&gt;Node4 -->
<g id="edge3" class="edge">
<title>Node1&#45;&gt;Node4</title>
<path fill="none" stroke="midnightblue" d="M84.67,-93.02C100.83,-88.2 120.61,-82.31 137.95,-77.14"/>
<polygon fill="midnightblue" stroke="midnightblue" points="139.25,-80.4 147.84,-74.19 137.25,-73.69 139.25,-80.4"/>
</g>
<!-- Node5 -->
<g id="node5" class="node">
<title>Node5</title>
<g id="a_node5"><a xlink:href="../../d6/d7d/_v_i_p_limiter_8cpp.html#aa2e364f2941c012203e62b27d509a605" target="_top" xlink:title=" ">
<polygon fill="white" stroke="black" points="397,-112.11 397,-131.11 464,-131.11 464,-112.11 397,-112.11"/>
<text text-anchor="middle" x="430.5" y="-119.11" font-family="Helvetica,sans-Serif" font-size="10.00">getTriArea</text>
</a>
</g>
</g>
<!-- Node4&#45;&gt;Node5 -->
<g id="edge4" class="edge">
<title>Node4&#45;&gt;Node5</title>
<path fill="none" stroke="midnightblue" d="M219.95,-74.15C232.38,-77.23 246.27,-80.62 259,-83.61 302.35,-93.78 352.05,-104.78 386.56,-112.32"/>
<polygon fill="midnightblue" stroke="midnightblue" points="386.25,-115.83 396.76,-114.54 387.74,-108.99 386.25,-115.83"/>
</g>
<!-- Node6 -->
<g id="node6" class="node">
<title>Node6</title>
<g id="a_node6"><a xlink:href="../../d6/d7d/_v_i_p_limiter_8cpp.html#a9d0226d29242b8bcd92a632ad1fcbb9b" target="_top" xlink:title=" ">
<polygon fill="white" stroke="black" points="260.5,-17.11 260.5,-36.11 346.5,-36.11 346.5,-17.11 260.5,-17.11"/>
<text text-anchor="middle" x="303.5" y="-24.11" font-family="Helvetica,sans-Serif" font-size="10.00">insideQuadCH</text>
</a>
</g>
</g>
<!-- Node4&#45;&gt;Node6 -->
<g id="edge5" class="edge">
<title>Node4&#45;&gt;Node6</title>
<path fill="none" stroke="midnightblue" d="M212.41,-55.02C227.53,-50.25 246.02,-44.42 262.3,-39.28"/>
<polygon fill="midnightblue" stroke="midnightblue" points="263.62,-42.54 272.1,-36.19 261.51,-35.86 263.62,-42.54"/>
</g>
<!-- Node8 -->
<g id="node8" class="node">
<title>Node8</title>
<g id="a_node8"><a xlink:href="../../d6/d7d/_v_i_p_limiter_8cpp.html#ac879daee268a950b8be834e47c9d37b2" target="_top" xlink:title=" ">
<polygon fill="white" stroke="black" points="392,-17.11 392,-36.11 469,-36.11 469,-17.11 392,-17.11"/>
<text text-anchor="middle" x="430.5" y="-24.11" font-family="Helvetica,sans-Serif" font-size="10.00">obtuseAngle</text>
</a>
</g>
</g>
<!-- Node4&#45;&gt;Node8 -->
<g id="edge13" class="edge">
<title>Node4&#45;&gt;Node8</title>
<path fill="none" stroke="midnightblue" d="M190.81,-55C204.05,-41.35 230.57,-16.98 259,-7.61 303.92,7.21 358.73,-3.67 393.87,-14.06"/>
<polygon fill="midnightblue" stroke="midnightblue" points="393.08,-17.49 403.67,-17.1 395.15,-10.8 393.08,-17.49"/>
</g>
<!-- Node9 -->
<g id="node9" class="node">
<title>Node9</title>
<g id="a_node9"><a xlink:href="../../d6/d7d/_v_i_p_limiter_8cpp.html#a904665fb564a0750ebc460f9f31366eb" target="_top" xlink:title=" ">
<polygon fill="white" stroke="black" points="259,-131.11 259,-150.11 348,-150.11 348,-131.11 259,-131.11"/>
<text text-anchor="middle" x="303.5" y="-138.11" font-family="Helvetica,sans-Serif" font-size="10.00">insideSegment</text>
</a>
</g>
</g>
<!-- Node4&#45;&gt;Node9 -->
<g id="edge8" class="edge">
<title>Node4&#45;&gt;Node9</title>
<path fill="none" stroke="midnightblue" d="M206.09,-74.26C211.82,-76.96 217.78,-80.12 223,-83.61 241.06,-95.64 241.37,-103.94 259,-116.61 263.64,-119.94 268.79,-123.16 273.88,-126.09"/>
<polygon fill="midnightblue" stroke="midnightblue" points="272.4,-129.27 282.85,-131.04 275.78,-123.14 272.4,-129.27"/>
</g>
<!-- Node10 -->
<g id="node10" class="node">
<title>Node10</title>
<g id="a_node10"><a xlink:href="../../d6/d7d/_v_i_p_limiter_8cpp.html#a4926d1cbff5b2f8531a0d136f4cf05ae" target="_top" xlink:title=" ">
<polygon fill="white" stroke="black" points="267.5,-55.11 267.5,-74.11 339.5,-74.11 339.5,-55.11 267.5,-55.11"/>
<text text-anchor="middle" x="303.5" y="-62.11" font-family="Helvetica,sans-Serif" font-size="10.00">insideTriCH</text>
</a>
</g>
</g>
<!-- Node4&#45;&gt;Node10 -->
<g id="edge10" class="edge">
<title>Node4&#45;&gt;Node10</title>
<path fill="none" stroke="midnightblue" d="M223.13,-64.61C234.09,-64.61 246,-64.61 257.17,-64.61"/>
<polygon fill="midnightblue" stroke="midnightblue" points="257.18,-68.11 267.18,-64.61 257.18,-61.11 257.18,-68.11"/>
</g>
<!-- Node7 -->
<g id="node7" class="node">
<title>Node7</title>
<g id="a_node7"><a xlink:href="../../d6/d7d/_v_i_p_limiter_8cpp.html#ae4c30e0ecabf2aec36a073f3a8123696" target="_top" xlink:title=" ">
<polygon fill="white" stroke="black" points="384,-55.11 384,-74.11 477,-74.11 477,-55.11 384,-55.11"/>
<text text-anchor="middle" x="430.5" y="-62.11" font-family="Helvetica,sans-Serif" font-size="10.00">getPerpendFoot</text>
</a>
</g>
</g>
<!-- Node6&#45;&gt;Node7 -->
<g id="edge6" class="edge">
<title>Node6&#45;&gt;Node7</title>
<path fill="none" stroke="midnightblue" d="M336.04,-36.19C351.88,-41.01 371.27,-46.9 388.28,-52.07"/>
<polygon fill="midnightblue" stroke="midnightblue" points="387.38,-55.46 397.97,-55.02 389.42,-48.76 387.38,-55.46"/>
</g>
<!-- Node6&#45;&gt;Node8 -->
<g id="edge7" class="edge">
<title>Node6&#45;&gt;Node8</title>
<path fill="none" stroke="midnightblue" d="M346.82,-26.61C357.99,-26.61 370.12,-26.61 381.57,-26.61"/>
<polygon fill="midnightblue" stroke="midnightblue" points="381.84,-30.11 391.84,-26.61 381.84,-23.11 381.84,-30.11"/>
</g>
<!-- Node9&#45;&gt;Node5 -->
<g id="edge9" class="edge">
<title>Node9&#45;&gt;Node5</title>
<path fill="none" stroke="midnightblue" d="M348.22,-133.96C360.65,-132.07 374.17,-130.02 386.56,-128.13"/>
<polygon fill="midnightblue" stroke="midnightblue" points="387.28,-131.56 396.64,-126.6 386.23,-124.64 387.28,-131.56"/>
</g>
<!-- Node10&#45;&gt;Node7 -->
<g id="edge11" class="edge">
<title>Node10&#45;&gt;Node7</title>
<path fill="none" stroke="midnightblue" d="M339.65,-64.61C350.26,-64.61 362.19,-64.61 373.79,-64.61"/>
<polygon fill="midnightblue" stroke="midnightblue" points="373.87,-68.11 383.87,-64.61 373.87,-61.11 373.87,-68.11"/>
</g>
<!-- Node10&#45;&gt;Node8 -->
<g id="edge12" class="edge">
<title>Node10&#45;&gt;Node8</title>
<path fill="none" stroke="midnightblue" d="M336.04,-55.02C351.88,-50.2 371.27,-44.31 388.28,-39.14"/>
<polygon fill="midnightblue" stroke="midnightblue" points="389.42,-42.45 397.97,-36.19 387.38,-35.75 389.42,-42.45"/>
</g>
</g>
</svg>
