<?xml version="1.0" encoding="UTF-8" standalone="no"?>
<!DOCTYPE svg PUBLIC "-//W3C//DTD SVG 1.1//EN"
 "http://www.w3.org/Graphics/SVG/1.1/DTD/svg11.dtd">
<!-- Generated by graphviz version 6.0.1 (0)
 -->
<!-- Title: src~/finite_volume/grp_solver_2D_EUL_source.c Pages: 1 -->
<svg width="1032pt" height="162pt"
 viewBox="0.00 0.00 1031.50 162.00" xmlns="http://www.w3.org/2000/svg" xmlns:xlink="http://www.w3.org/1999/xlink">
<g id="graph0" class="graph" transform="scale(1 1) rotate(0) translate(4 158)">
<title>src~/finite_volume/grp_solver_2D_EUL_source.c</title>
<polygon fill="white" stroke="none" points="-4,4 -4,-158 1027.5,-158 1027.5,4 -4,4"/>
<!-- Node1 -->
<g id="node1" class="node">
<title>Node1</title>
<g id="a_node1"><a xlink:title="This is an Eulerian GRP scheme to solve 2&#45;D Euler equations without dimension splitting.">
<polygon fill="#bfbfbf" stroke="black" points="285.5,-123.5 285.5,-153.5 444.5,-153.5 444.5,-123.5 285.5,-123.5"/>
<text text-anchor="start" x="293.5" y="-141.5" font-family="Helvetica,sans-Serif" font-size="10.00">src~/finite_volume</text>
<text text-anchor="middle" x="365" y="-130.5" font-family="Helvetica,sans-Serif" font-size="10.00">/grp_solver_2D_EUL_source.c</text>
</a>
</g>
</g>
<!-- Node2 -->
<g id="node2" class="node">
<title>Node2</title>
<g id="a_node2"><a xlink:title=" ">
<polygon fill="white" stroke="#bfbfbf" points="0,-62 0,-81 50,-81 50,-62 0,-62"/>
<text text-anchor="middle" x="25" y="-69" font-family="Helvetica,sans-Serif" font-size="10.00">stdio.h</text>
</a>
</g>
</g>
<!-- Node1&#45;&gt;Node2 -->
<g id="edge1" class="edge">
<title>Node1&#45;&gt;Node2</title>
<path fill="none" stroke="midnightblue" d="M285.22,-129.64C222.78,-122.22 134.22,-108.9 59,-87 56.85,-86.37 54.65,-85.65 52.46,-84.86"/>
<polygon fill="midnightblue" stroke="midnightblue" points="53.64,-81.57 43.06,-81.15 51.07,-88.08 53.64,-81.57"/>
</g>
<!-- Node3 -->
<g id="node3" class="node">
<title>Node3</title>
<g id="a_node3"><a xlink:title=" ">
<polygon fill="white" stroke="#bfbfbf" points="68.5,-62 68.5,-81 119.5,-81 119.5,-62 68.5,-62"/>
<text text-anchor="middle" x="94" y="-69" font-family="Helvetica,sans-Serif" font-size="10.00">math.h</text>
</a>
</g>
</g>
<!-- Node1&#45;&gt;Node3 -->
<g id="edge2" class="edge">
<title>Node1&#45;&gt;Node3</title>
<path fill="none" stroke="midnightblue" d="M285.28,-124.49C238.82,-115.92 179.44,-103.28 128,-87 126.07,-86.39 124.11,-85.71 122.14,-84.99"/>
<polygon fill="midnightblue" stroke="midnightblue" points="123.05,-81.58 112.46,-81.14 120.46,-88.09 123.05,-81.58"/>
</g>
<!-- Node4 -->
<g id="node4" class="node">
<title>Node4</title>
<g id="a_node4"><a xlink:title=" ">
<polygon fill="white" stroke="#bfbfbf" points="137.5,-62 137.5,-81 190.5,-81 190.5,-62 137.5,-62"/>
<text text-anchor="middle" x="164" y="-69" font-family="Helvetica,sans-Serif" font-size="10.00">stdlib.h</text>
</a>
</g>
</g>
<!-- Node1&#45;&gt;Node4 -->
<g id="edge3" class="edge">
<title>Node1&#45;&gt;Node4</title>
<path fill="none" stroke="midnightblue" d="M315.18,-123.46C282.25,-113.89 238.27,-100.54 200,-87 198.09,-86.33 196.14,-85.61 194.18,-84.87"/>
<polygon fill="midnightblue" stroke="midnightblue" points="195.03,-81.45 184.44,-81.09 192.5,-87.98 195.03,-81.45"/>
</g>
<!-- Node5 -->
<g id="node5" class="node">
<title>Node5</title>
<g id="a_node5"><a xlink:title=" ">
<polygon fill="white" stroke="#bfbfbf" points="209,-62 209,-81 257,-81 257,-62 209,-62"/>
<text text-anchor="middle" x="233" y="-69" font-family="Helvetica,sans-Serif" font-size="10.00">time.h</text>
</a>
</g>
</g>
<!-- Node1&#45;&gt;Node5 -->
<g id="edge4" class="edge">
<title>Node1&#45;&gt;Node5</title>
<path fill="none" stroke="midnightblue" d="M336.36,-123.4C313.5,-112.14 281.74,-96.5 259.48,-85.54"/>
<polygon fill="midnightblue" stroke="midnightblue" points="260.79,-82.28 250.28,-81.01 257.7,-88.56 260.79,-82.28"/>
</g>
<!-- Node6 -->
<g id="node6" class="node">
<title>Node6</title>
<g id="a_node6"><a xlink:title=" ">
<polygon fill="white" stroke="#bfbfbf" points="275,-62 275,-81 337,-81 337,-62 275,-62"/>
<text text-anchor="middle" x="306" y="-69" font-family="Helvetica,sans-Serif" font-size="10.00">stdbool.h</text>
</a>
</g>
</g>
<!-- Node1&#45;&gt;Node6 -->
<g id="edge5" class="edge">
<title>Node1&#45;&gt;Node6</title>
<path fill="none" stroke="midnightblue" d="M352.2,-123.4C342.91,-113.16 330.32,-99.3 320.63,-88.62"/>
<polygon fill="midnightblue" stroke="midnightblue" points="323.2,-86.25 313.89,-81.19 318.02,-90.95 323.2,-86.25"/>
</g>
<!-- Node7 -->
<g id="node7" class="node">
<title>Node7</title>
<g id="a_node7"><a xlink:href="../../da/d1e/var__struc_8h.html" target="_top" xlink:title="This file is the header file of some globally common variables and structural bodies.">
<polygon fill="white" stroke="black" points="450,-0.5 450,-19.5 568,-19.5 568,-0.5 450,-0.5"/>
<text text-anchor="middle" x="509" y="-7.5" font-family="Helvetica,sans-Serif" font-size="10.00">../include/var_struc.h</text>
</a>
</g>
</g>
<!-- Node1&#45;&gt;Node7 -->
<g id="edge6" class="edge">
<title>Node1&#45;&gt;Node7</title>
<path fill="none" stroke="midnightblue" d="M364.43,-123.28C364.49,-105.4 367.29,-74.78 384,-56 398.69,-39.49 419.9,-29.03 440.68,-22.41"/>
<polygon fill="midnightblue" stroke="midnightblue" points="441.88,-25.71 450.5,-19.55 439.92,-18.99 441.88,-25.71"/>
</g>
<!-- Node8 -->
<g id="node8" class="node">
<title>Node8</title>
<g id="a_node8"><a xlink:href="../../df/ded/riemann__solver_8h.html" target="_top" xlink:title="This file is the header file of several Riemann solvers and GRP solvers.">
<polygon fill="white" stroke="black" points="393,-56.5 393,-86.5 497,-86.5 497,-56.5 393,-56.5"/>
<text text-anchor="start" x="401" y="-74.5" font-family="Helvetica,sans-Serif" font-size="10.00">../include/riemann</text>
<text text-anchor="middle" x="445" y="-63.5" font-family="Helvetica,sans-Serif" font-size="10.00">_solver.h</text>
</a>
</g>
</g>
<!-- Node1&#45;&gt;Node8 -->
<g id="edge7" class="edge">
<title>Node1&#45;&gt;Node8</title>
<path fill="none" stroke="midnightblue" d="M382.36,-123.4C393.26,-114.54 407.51,-102.96 419.66,-93.09"/>
<polygon fill="midnightblue" stroke="midnightblue" points="422.12,-95.6 427.68,-86.58 417.71,-90.17 422.12,-95.6"/>
</g>
<!-- Node9 -->
<g id="node9" class="node">
<title>Node9</title>
<g id="a_node9"><a xlink:href="../../dd/df5/flux__calc_8h.html" target="_top" xlink:title="This file is the header file of intermediate processes of finite volume scheme.">
<polygon fill="white" stroke="black" points="515,-62 515,-81 631,-81 631,-62 515,-62"/>
<text text-anchor="middle" x="573" y="-69" font-family="Helvetica,sans-Serif" font-size="10.00">../include/flux_calc.h</text>
</a>
</g>
</g>
<!-- Node1&#45;&gt;Node9 -->
<g id="edge9" class="edge">
<title>Node1&#45;&gt;Node9</title>
<path fill="none" stroke="midnightblue" d="M409.88,-123.48C447.49,-111.72 500.54,-95.14 535.81,-84.12"/>
<polygon fill="midnightblue" stroke="midnightblue" points="537.21,-87.35 545.71,-81.03 535.12,-80.67 537.21,-87.35"/>
</g>
<!-- Node10 -->
<g id="node10" class="node">
<title>Node10</title>
<g id="a_node10"><a xlink:href="../../d6/d6f/inter__process_8h.html" target="_top" xlink:title="This file is the header file of intermediate processes of finite volume scheme.">
<polygon fill="white" stroke="black" points="649,-62 649,-81 787,-81 787,-62 649,-62"/>
<text text-anchor="middle" x="718" y="-69" font-family="Helvetica,sans-Serif" font-size="10.00">../include/inter_process.h</text>
</a>
</g>
</g>
<!-- Node1&#45;&gt;Node10 -->
<g id="edge11" class="edge">
<title>Node1&#45;&gt;Node10</title>
<path fill="none" stroke="midnightblue" d="M441.76,-123.45C496.92,-113.34 573.05,-99.37 640,-87 647.17,-85.68 654.71,-84.28 662.16,-82.9"/>
<polygon fill="midnightblue" stroke="midnightblue" points="663.03,-86.29 672.22,-81.03 661.75,-79.41 663.03,-86.29"/>
</g>
<!-- Node11 -->
<g id="node11" class="node">
<title>Node11</title>
<g id="a_node11"><a xlink:href="../../d5/da5/tools_8h.html" target="_top" xlink:title="This file is the header file of several independent tool functions.">
<polygon fill="white" stroke="black" points="805.5,-62 805.5,-81 902.5,-81 902.5,-62 805.5,-62"/>
<text text-anchor="middle" x="854" y="-69" font-family="Helvetica,sans-Serif" font-size="10.00">../include/tools.h</text>
</a>
</g>
</g>
<!-- Node1&#45;&gt;Node11 -->
<g id="edge13" class="edge">
<title>Node1&#45;&gt;Node11</title>
<path fill="none" stroke="midnightblue" d="M444.89,-131.23C531.76,-123.69 674.46,-109.22 796,-87 801.49,-86 807.23,-84.78 812.87,-83.47"/>
<polygon fill="midnightblue" stroke="midnightblue" points="813.95,-86.81 822.86,-81.07 812.31,-80.01 813.95,-86.81"/>
</g>
<!-- Node12 -->
<g id="node12" class="node">
<title>Node12</title>
<g id="a_node12"><a xlink:href="../../db/db8/file__io_8h.html" target="_top" xlink:title="This file is the header file that controls data input and output.">
<polygon fill="white" stroke="black" points="920.5,-62 920.5,-81 1023.5,-81 1023.5,-62 920.5,-62"/>
<text text-anchor="middle" x="972" y="-69" font-family="Helvetica,sans-Serif" font-size="10.00">../include/file_io.h</text>
</a>
</g>
</g>
<!-- Node1&#45;&gt;Node12 -->
<g id="edge14" class="edge">
<title>Node1&#45;&gt;Node12</title>
<path fill="none" stroke="midnightblue" d="M444.73,-133.77C551.64,-127.94 747.12,-114.38 912,-87 917.96,-86.01 924.2,-84.75 930.32,-83.39"/>
<polygon fill="midnightblue" stroke="midnightblue" points="931.47,-86.72 940.41,-81.04 929.88,-79.9 931.47,-86.72"/>
</g>
<!-- Node8&#45;&gt;Node7 -->
<g id="edge8" class="edge">
<title>Node8&#45;&gt;Node7</title>
<path fill="none" stroke="midnightblue" d="M460.17,-56.4C469.75,-47.49 482.16,-35.95 492.07,-26.74"/>
<polygon fill="midnightblue" stroke="midnightblue" points="494.75,-29.03 499.69,-19.66 489.98,-23.9 494.75,-29.03"/>
</g>
<!-- Node9&#45;&gt;Node7 -->
<g id="edge10" class="edge">
<title>Node9&#45;&gt;Node7</title>
<path fill="none" stroke="midnightblue" d="M563.83,-61.98C553.85,-52.7 537.69,-37.67 525.49,-26.33"/>
<polygon fill="midnightblue" stroke="midnightblue" points="527.86,-23.75 518.15,-19.51 523.09,-28.88 527.86,-23.75"/>
</g>
<!-- Node10&#45;&gt;Node7 -->
<g id="edge12" class="edge">
<title>Node10&#45;&gt;Node7</title>
<path fill="none" stroke="midnightblue" d="M688.06,-61.98C651.43,-51.55 589.3,-33.86 548.72,-22.31"/>
<polygon fill="midnightblue" stroke="midnightblue" points="549.47,-18.88 538.89,-19.51 547.55,-25.61 549.47,-18.88"/>
</g>
</g>
</svg>
