<?xml version="1.0" encoding="UTF-8" standalone="no"?>
<!DOCTYPE svg PUBLIC "-//W3C//DTD SVG 1.1//EN"
 "http://www.w3.org/Graphics/SVG/1.1/DTD/svg11.dtd">
<!-- Generated by graphviz version 6.0.1 (0)
 -->
<!-- Title: src~/inter_process/slope_VIP_limiter_radial.c Pages: 1 -->
<svg width="578pt" height="106pt"
 viewBox="0.00 0.00 577.50 106.00" xmlns="http://www.w3.org/2000/svg" xmlns:xlink="http://www.w3.org/1999/xlink">
<g id="graph0" class="graph" transform="scale(1 1) rotate(0) translate(4 102)">
<title>src~/inter_process/slope_VIP_limiter_radial.c</title>
<polygon fill="white" stroke="none" points="-4,4 -4,-102 573.5,-102 573.5,4 -4,4"/>
<!-- Node1 -->
<g id="node1" class="node">
<title>Node1</title>
<g id="a_node1"><a xlink:title="This is a function of the VIP/minmod slope limiter of the fluid velocity in radially symmetric case.">
<polygon fill="#bfbfbf" stroke="black" points="143,-67.5 143,-97.5 289,-97.5 289,-67.5 143,-67.5"/>
<text text-anchor="start" x="151" y="-85.5" font-family="Helvetica,sans-Serif" font-size="10.00">src~/inter_process</text>
<text text-anchor="middle" x="216" y="-74.5" font-family="Helvetica,sans-Serif" font-size="10.00">/slope_VIP_limiter_radial.c</text>
</a>
</g>
</g>
<!-- Node2 -->
<g id="node2" class="node">
<title>Node2</title>
<g id="a_node2"><a xlink:title=" ">
<polygon fill="white" stroke="#bfbfbf" points="0,-6 0,-25 50,-25 50,-6 0,-6"/>
<text text-anchor="middle" x="25" y="-13" font-family="Helvetica,sans-Serif" font-size="10.00">stdio.h</text>
</a>
</g>
</g>
<!-- Node1&#45;&gt;Node2 -->
<g id="edge1" class="edge">
<title>Node1&#45;&gt;Node2</title>
<path fill="none" stroke="midnightblue" d="M168.55,-67.48C137.2,-57.92 95.35,-44.56 59,-31 57.35,-30.38 55.66,-29.73 53.96,-29.06"/>
<polygon fill="midnightblue" stroke="midnightblue" points="54.87,-25.65 44.29,-25.09 52.22,-32.13 54.87,-25.65"/>
</g>
<!-- Node3 -->
<g id="node3" class="node">
<title>Node3</title>
<g id="a_node3"><a xlink:title=" ">
<polygon fill="white" stroke="#bfbfbf" points="68.5,-6 68.5,-25 121.5,-25 121.5,-6 68.5,-6"/>
<text text-anchor="middle" x="95" y="-13" font-family="Helvetica,sans-Serif" font-size="10.00">stdlib.h</text>
</a>
</g>
</g>
<!-- Node1&#45;&gt;Node3 -->
<g id="edge2" class="edge">
<title>Node1&#45;&gt;Node3</title>
<path fill="none" stroke="midnightblue" d="M189.74,-67.4C168.98,-56.24 140.2,-40.78 119.82,-29.83"/>
<polygon fill="midnightblue" stroke="midnightblue" points="121.3,-26.66 110.84,-25.01 117.99,-32.82 121.3,-26.66"/>
</g>
<!-- Node4 -->
<g id="node4" class="node">
<title>Node4</title>
<g id="a_node4"><a xlink:title=" ">
<polygon fill="white" stroke="#bfbfbf" points="139.5,-6 139.5,-25 190.5,-25 190.5,-6 139.5,-6"/>
<text text-anchor="middle" x="165" y="-13" font-family="Helvetica,sans-Serif" font-size="10.00">math.h</text>
</a>
</g>
</g>
<!-- Node1&#45;&gt;Node4 -->
<g id="edge3" class="edge">
<title>Node1&#45;&gt;Node4</title>
<path fill="none" stroke="midnightblue" d="M204.93,-67.4C197.06,-57.36 186.45,-43.84 178.15,-33.25"/>
<polygon fill="midnightblue" stroke="midnightblue" points="180.75,-30.9 171.82,-25.19 175.24,-35.22 180.75,-30.9"/>
</g>
<!-- Node5 -->
<g id="node5" class="node">
<title>Node5</title>
<g id="a_node5"><a xlink:href="../../da/d1e/var__struc_8h.html" target="_top" xlink:title="This file is the header file of some globally common variables and structural bodies.">
<polygon fill="white" stroke="black" points="209,-6 209,-25 327,-25 327,-6 209,-6"/>
<text text-anchor="middle" x="268" y="-13" font-family="Helvetica,sans-Serif" font-size="10.00">../include/var_struc.h</text>
</a>
</g>
</g>
<!-- Node1&#45;&gt;Node5 -->
<g id="edge4" class="edge">
<title>Node1&#45;&gt;Node5</title>
<path fill="none" stroke="midnightblue" d="M227.28,-67.4C235.31,-57.36 246.13,-43.84 254.6,-33.25"/>
<polygon fill="midnightblue" stroke="midnightblue" points="257.53,-35.19 261.04,-25.19 252.06,-30.82 257.53,-35.19"/>
</g>
<!-- Node6 -->
<g id="node6" class="node">
<title>Node6</title>
<g id="a_node6"><a xlink:href="../../d5/da5/tools_8h.html" target="_top" xlink:title="This file is the header file of several independent tool functions.">
<polygon fill="white" stroke="black" points="345.5,-6 345.5,-25 442.5,-25 442.5,-6 345.5,-6"/>
<text text-anchor="middle" x="394" y="-13" font-family="Helvetica,sans-Serif" font-size="10.00">../include/tools.h</text>
</a>
</g>
</g>
<!-- Node1&#45;&gt;Node6 -->
<g id="edge5" class="edge">
<title>Node1&#45;&gt;Node6</title>
<path fill="none" stroke="midnightblue" d="M254.62,-67.4C286.41,-55.79 330.98,-39.51 361.09,-28.52"/>
<polygon fill="midnightblue" stroke="midnightblue" points="362.51,-31.72 370.7,-25.01 360.11,-25.15 362.51,-31.72"/>
</g>
<!-- Node7 -->
<g id="node7" class="node">
<title>Node7</title>
<g id="a_node7"><a xlink:href="../../dc/daa/inter__process__cpp_8hpp.html" target="_top" xlink:title="This file is the c++ header file of intermediate processes of finite volume scheme.">
<polygon fill="white" stroke="black" points="460.5,-0.5 460.5,-30.5 569.5,-30.5 569.5,-0.5 460.5,-0.5"/>
<text text-anchor="start" x="468.5" y="-18.5" font-family="Helvetica,sans-Serif" font-size="10.00">../include_cpp/inter</text>
<text text-anchor="middle" x="515" y="-7.5" font-family="Helvetica,sans-Serif" font-size="10.00">_process_cpp.hpp</text>
</a>
</g>
</g>
<!-- Node1&#45;&gt;Node7 -->
<g id="edge6" class="edge">
<title>Node1&#45;&gt;Node7</title>
<path fill="none" stroke="midnightblue" d="M282.94,-67.46C327.82,-57.99 388.5,-45.04 450.43,-31.33"/>
<polygon fill="midnightblue" stroke="midnightblue" points="451.37,-34.71 460.38,-29.13 449.86,-27.88 451.37,-34.71"/>
</g>
</g>
</svg>
