<?xml version="1.0" encoding="UTF-8" standalone="no"?>
<!DOCTYPE svg PUBLIC "-//W3C//DTD SVG 1.1//EN"
 "http://www.w3.org/Graphics/SVG/1.1/DTD/svg11.dtd">
<!-- Generated by graphviz version 5.0.0 (0)
 -->
<!-- Title: /run/media/leixin/软件盘/雷昕整理后的重要文件/程序/My&#45;CFD/HydroCODE/src/include/tools.h Pages: 1 -->
<svg width="2276pt" height="161pt"
 viewBox="0.00 0.00 2276.00 161.00" xmlns="http://www.w3.org/2000/svg" xmlns:xlink="http://www.w3.org/1999/xlink">
<g id="graph0" class="graph" transform="scale(1 1) rotate(0) translate(4 157)">
<title>/run/media/leixin/软件盘/雷昕整理后的重要文件/程序/My&#45;CFD/HydroCODE/src/include/tools.h</title>
<polygon fill="white" stroke="transparent" points="-4,4 -4,-157 2272,-157 2272,4 -4,4"/>
<!-- Node1 -->
<g id="node1" class="node">
<title>Node1</title>
<g id="a_node1"><a xlink:title="This file is the header file of several independent tool functions.">
<polygon fill="#bfbfbf" stroke="black" points="1133,-100.5 1133,-152.5 1291,-152.5 1291,-100.5 1133,-100.5"/>
<text text-anchor="start" x="1141" y="-140.5" font-family="Helvetica,sans-Serif" font-size="10.00">/run/media/leixin/软件盘</text>
<text text-anchor="start" x="1141" y="-129.5" font-family="Helvetica,sans-Serif" font-size="10.00">/雷昕整理后的重要文件</text>
<text text-anchor="start" x="1141" y="-118.5" font-family="Helvetica,sans-Serif" font-size="10.00">/程序/My&#45;CFD/HydroCODE/src</text>
<text text-anchor="middle" x="1212" y="-107.5" font-family="Helvetica,sans-Serif" font-size="10.00">/include/tools.h</text>
</a>
</g>
</g>
<!-- Node2 -->
<g id="node2" class="node">
<title>Node2</title>
<g id="a_node2"><a xlink:href="../../d4/de5/io__control_8c.html" target="_top" xlink:title="This is a set of common functions which control the input/output data.">
<polygon fill="white" stroke="black" points="0,-6 0,-58 158,-58 158,-6 0,-6"/>
<text text-anchor="start" x="8" y="-46" font-family="Helvetica,sans-Serif" font-size="10.00">/run/media/leixin/软件盘</text>
<text text-anchor="start" x="8" y="-35" font-family="Helvetica,sans-Serif" font-size="10.00">/雷昕整理后的重要文件</text>
<text text-anchor="start" x="8" y="-24" font-family="Helvetica,sans-Serif" font-size="10.00">/程序/My&#45;CFD/HydroCODE/src</text>
<text text-anchor="middle" x="79" y="-13" font-family="Helvetica,sans-Serif" font-size="10.00">/file_io/io_control.c</text>
</a>
</g>
</g>
<!-- Node1&#45;&gt;Node2 -->
<g id="edge1" class="edge">
<title>Node1&#45;&gt;Node2</title>
<path fill="none" stroke="midnightblue" d="M1122.7,-123.45C904.47,-117.92 348.73,-100.6 167,-64 159.38,-62.46 151.52,-60.42 143.78,-58.1"/>
<polygon fill="midnightblue" stroke="midnightblue" points="1122.75,-126.95 1132.83,-123.7 1122.92,-119.95 1122.75,-126.95"/>
</g>
<!-- Node3 -->
<g id="node3" class="node">
<title>Node3</title>
<g id="a_node3"><a xlink:href="../../d6/d0f/_g_r_p__solver__2_d___e_u_l__source_8c.html" target="_top" xlink:title="This is an Eulerian GRP scheme to solve 2&#45;D Euler equations without dimension splitting.">
<polygon fill="white" stroke="black" points="176,-6 176,-58 410,-58 410,-6 176,-6"/>
<text text-anchor="start" x="184" y="-46" font-family="Helvetica,sans-Serif" font-size="10.00">/run/media/leixin/软件盘</text>
<text text-anchor="start" x="184" y="-35" font-family="Helvetica,sans-Serif" font-size="10.00">/雷昕整理后的重要文件</text>
<text text-anchor="start" x="184" y="-24" font-family="Helvetica,sans-Serif" font-size="10.00">/程序/My&#45;CFD/HydroCODE/src</text>
<text text-anchor="middle" x="293" y="-13" font-family="Helvetica,sans-Serif" font-size="10.00">/finite_volume/GRP_solver_2D_EUL_source.c</text>
</a>
</g>
</g>
<!-- Node1&#45;&gt;Node3 -->
<g id="edge2" class="edge">
<title>Node1&#45;&gt;Node3</title>
<path fill="none" stroke="midnightblue" d="M1122.65,-123.33C975.22,-118.7 672.14,-104.67 419,-64 408.77,-62.36 398.15,-60.3 387.6,-58.04"/>
<polygon fill="midnightblue" stroke="midnightblue" points="1122.89,-126.84 1132.99,-123.65 1123.1,-119.85 1122.89,-126.84"/>
</g>
<!-- Node4 -->
<g id="node4" class="node">
<title>Node4</title>
<g id="a_node4"><a xlink:href="../../dc/d9e/_g_r_p__solver__2_d__split___e_u_l__source_8c.html" target="_top" xlink:title="This is an Eulerian GRP scheme to solve 2&#45;D Euler equations with dimension splitting.">
<polygon fill="white" stroke="black" points="428.5,-0.5 428.5,-63.5 619.5,-63.5 619.5,-0.5 428.5,-0.5"/>
<text text-anchor="start" x="436.5" y="-51.5" font-family="Helvetica,sans-Serif" font-size="10.00">/run/media/leixin/软件盘</text>
<text text-anchor="start" x="436.5" y="-40.5" font-family="Helvetica,sans-Serif" font-size="10.00">/雷昕整理后的重要文件</text>
<text text-anchor="start" x="436.5" y="-29.5" font-family="Helvetica,sans-Serif" font-size="10.00">/程序/My&#45;CFD/HydroCODE/src</text>
<text text-anchor="start" x="436.5" y="-18.5" font-family="Helvetica,sans-Serif" font-size="10.00">/finite_volume/GRP_solver_2D_split</text>
<text text-anchor="middle" x="524" y="-7.5" font-family="Helvetica,sans-Serif" font-size="10.00">_EUL_source.c</text>
</a>
</g>
</g>
<!-- Node1&#45;&gt;Node4 -->
<g id="edge3" class="edge">
<title>Node1&#45;&gt;Node4</title>
<path fill="none" stroke="midnightblue" d="M1122.72,-121.23C1007.49,-114.55 801.22,-98.63 628,-64 625.23,-63.45 622.43,-62.85 619.6,-62.22"/>
<polygon fill="midnightblue" stroke="midnightblue" points="1122.72,-124.74 1132.9,-121.81 1123.12,-117.75 1122.72,-124.74"/>
</g>
<!-- Node5 -->
<g id="node5" class="node">
<title>Node5</title>
<g id="a_node5"><a xlink:href="../../de/de8/_g_r_p__solver___a_l_e__source_8c.html" target="_top" xlink:title="This is an ALE GRP scheme to solve 1&#45;D Euler equations.">
<polygon fill="white" stroke="black" points="637.5,-6 637.5,-58 852.5,-58 852.5,-6 637.5,-6"/>
<text text-anchor="start" x="645.5" y="-46" font-family="Helvetica,sans-Serif" font-size="10.00">/run/media/leixin/软件盘</text>
<text text-anchor="start" x="645.5" y="-35" font-family="Helvetica,sans-Serif" font-size="10.00">/雷昕整理后的重要文件</text>
<text text-anchor="start" x="645.5" y="-24" font-family="Helvetica,sans-Serif" font-size="10.00">/程序/My&#45;CFD/HydroCODE/src</text>
<text text-anchor="middle" x="745" y="-13" font-family="Helvetica,sans-Serif" font-size="10.00">/finite_volume/GRP_solver_ALE_source.c</text>
</a>
</g>
</g>
<!-- Node1&#45;&gt;Node5 -->
<g id="edge4" class="edge">
<title>Node1&#45;&gt;Node5</title>
<path fill="none" stroke="midnightblue" d="M1122.57,-112.05C1051.39,-100.81 949.38,-83.51 861,-64 852.76,-62.18 844.22,-60.16 835.68,-58.05"/>
<polygon fill="midnightblue" stroke="midnightblue" points="1122.43,-115.57 1132.85,-113.66 1123.51,-108.65 1122.43,-115.57"/>
</g>
<!-- Node6 -->
<g id="node6" class="node">
<title>Node6</title>
<g id="a_node6"><a xlink:href="../../d5/d10/_g_r_p__solver___e_u_l__source_8c.html" target="_top" xlink:title="This is an Eulerian GRP scheme to solve 1&#45;D Euler equations.">
<polygon fill="white" stroke="black" points="870.5,-6 870.5,-58 1085.5,-58 1085.5,-6 870.5,-6"/>
<text text-anchor="start" x="878.5" y="-46" font-family="Helvetica,sans-Serif" font-size="10.00">/run/media/leixin/软件盘</text>
<text text-anchor="start" x="878.5" y="-35" font-family="Helvetica,sans-Serif" font-size="10.00">/雷昕整理后的重要文件</text>
<text text-anchor="start" x="878.5" y="-24" font-family="Helvetica,sans-Serif" font-size="10.00">/程序/My&#45;CFD/HydroCODE/src</text>
<text text-anchor="middle" x="978" y="-13" font-family="Helvetica,sans-Serif" font-size="10.00">/finite_volume/GRP_solver_EUL_source.c</text>
</a>
</g>
</g>
<!-- Node1&#45;&gt;Node6 -->
<g id="edge5" class="edge">
<title>Node1&#45;&gt;Node6</title>
<path fill="none" stroke="midnightblue" d="M1139.13,-96.69C1107.81,-84.32 1071.56,-69.98 1041.37,-58.05"/>
<polygon fill="midnightblue" stroke="midnightblue" points="1138.09,-100.05 1148.68,-100.47 1140.66,-93.54 1138.09,-100.05"/>
</g>
<!-- Node7 -->
<g id="node7" class="node">
<title>Node7</title>
<g id="a_node7"><a xlink:href="../../dd/dd7/_g_r_p__solver___l_a_g__source_8c.html" target="_top" xlink:title="This is a Lagrangian GRP scheme to solve 1&#45;D Euler equations.">
<polygon fill="white" stroke="black" points="1103.5,-6 1103.5,-58 1320.5,-58 1320.5,-6 1103.5,-6"/>
<text text-anchor="start" x="1111.5" y="-46" font-family="Helvetica,sans-Serif" font-size="10.00">/run/media/leixin/软件盘</text>
<text text-anchor="start" x="1111.5" y="-35" font-family="Helvetica,sans-Serif" font-size="10.00">/雷昕整理后的重要文件</text>
<text text-anchor="start" x="1111.5" y="-24" font-family="Helvetica,sans-Serif" font-size="10.00">/程序/My&#45;CFD/HydroCODE/src</text>
<text text-anchor="middle" x="1212" y="-13" font-family="Helvetica,sans-Serif" font-size="10.00">/finite_volume/GRP_solver_LAG_source.c</text>
</a>
</g>
</g>
<!-- Node1&#45;&gt;Node7 -->
<g id="edge6" class="edge">
<title>Node1&#45;&gt;Node7</title>
<path fill="none" stroke="midnightblue" d="M1212,-89.99C1212,-79.41 1212,-68.03 1212,-58.25"/>
<polygon fill="midnightblue" stroke="midnightblue" points="1208.5,-90.22 1212,-100.22 1215.5,-90.22 1208.5,-90.22"/>
</g>
<!-- Node8 -->
<g id="node8" class="node">
<title>Node8</title>
<g id="a_node8"><a xlink:href="../../d4/da5/_godunov__solver___a_l_e__source_8c.html" target="_top" xlink:title="This is an ALE Godunov scheme to solve 1&#45;D Euler equations.">
<polygon fill="white" stroke="black" points="1338.5,-0.5 1338.5,-63.5 1507.5,-63.5 1507.5,-0.5 1338.5,-0.5"/>
<text text-anchor="start" x="1346.5" y="-51.5" font-family="Helvetica,sans-Serif" font-size="10.00">/run/media/leixin/软件盘</text>
<text text-anchor="start" x="1346.5" y="-40.5" font-family="Helvetica,sans-Serif" font-size="10.00">/雷昕整理后的重要文件</text>
<text text-anchor="start" x="1346.5" y="-29.5" font-family="Helvetica,sans-Serif" font-size="10.00">/程序/My&#45;CFD/HydroCODE/src</text>
<text text-anchor="start" x="1346.5" y="-18.5" font-family="Helvetica,sans-Serif" font-size="10.00">/finite_volume/Godunov_solver</text>
<text text-anchor="middle" x="1423" y="-7.5" font-family="Helvetica,sans-Serif" font-size="10.00">_ALE_source.c</text>
</a>
</g>
</g>
<!-- Node1&#45;&gt;Node8 -->
<g id="edge7" class="edge">
<title>Node1&#45;&gt;Node8</title>
<path fill="none" stroke="midnightblue" d="M1278.39,-96.4C1302.15,-85.98 1329,-74.21 1353.06,-63.66"/>
<polygon fill="midnightblue" stroke="midnightblue" points="1276.85,-93.25 1269.1,-100.47 1279.66,-99.66 1276.85,-93.25"/>
</g>
<!-- Node9 -->
<g id="node9" class="node">
<title>Node9</title>
<g id="a_node9"><a xlink:href="../../de/dd9/_godunov__solver___e_u_l__source_8c.html" target="_top" xlink:title="This is an Eulerian Godunov scheme to solve 1&#45;D Euler equations.">
<polygon fill="white" stroke="black" points="1525.5,-0.5 1525.5,-63.5 1694.5,-63.5 1694.5,-0.5 1525.5,-0.5"/>
<text text-anchor="start" x="1533.5" y="-51.5" font-family="Helvetica,sans-Serif" font-size="10.00">/run/media/leixin/软件盘</text>
<text text-anchor="start" x="1533.5" y="-40.5" font-family="Helvetica,sans-Serif" font-size="10.00">/雷昕整理后的重要文件</text>
<text text-anchor="start" x="1533.5" y="-29.5" font-family="Helvetica,sans-Serif" font-size="10.00">/程序/My&#45;CFD/HydroCODE/src</text>
<text text-anchor="start" x="1533.5" y="-18.5" font-family="Helvetica,sans-Serif" font-size="10.00">/finite_volume/Godunov_solver</text>
<text text-anchor="middle" x="1610" y="-7.5" font-family="Helvetica,sans-Serif" font-size="10.00">_EUL_source.c</text>
</a>
</g>
</g>
<!-- Node1&#45;&gt;Node9 -->
<g id="edge8" class="edge">
<title>Node1&#45;&gt;Node9</title>
<path fill="none" stroke="midnightblue" d="M1301.3,-110.48C1362.46,-99.46 1445.18,-83.13 1517,-64 1519.8,-63.26 1522.63,-62.47 1525.49,-61.66"/>
<polygon fill="midnightblue" stroke="midnightblue" points="1300.52,-107.06 1291.29,-112.27 1301.75,-113.95 1300.52,-107.06"/>
</g>
<!-- Node10 -->
<g id="node10" class="node">
<title>Node10</title>
<g id="a_node10"><a xlink:href="../../dd/d30/_godunov__solver___l_a_g__source_8c.html" target="_top" xlink:title="This is a Lagrangian Godunov scheme to solve 1&#45;D Euler equations.">
<polygon fill="white" stroke="black" points="1712.5,-0.5 1712.5,-63.5 1881.5,-63.5 1881.5,-0.5 1712.5,-0.5"/>
<text text-anchor="start" x="1720.5" y="-51.5" font-family="Helvetica,sans-Serif" font-size="10.00">/run/media/leixin/软件盘</text>
<text text-anchor="start" x="1720.5" y="-40.5" font-family="Helvetica,sans-Serif" font-size="10.00">/雷昕整理后的重要文件</text>
<text text-anchor="start" x="1720.5" y="-29.5" font-family="Helvetica,sans-Serif" font-size="10.00">/程序/My&#45;CFD/HydroCODE/src</text>
<text text-anchor="start" x="1720.5" y="-18.5" font-family="Helvetica,sans-Serif" font-size="10.00">/finite_volume/Godunov_solver</text>
<text text-anchor="middle" x="1797" y="-7.5" font-family="Helvetica,sans-Serif" font-size="10.00">_LAG_source.c</text>
</a>
</g>
</g>
<!-- Node1&#45;&gt;Node10 -->
<g id="edge9" class="edge">
<title>Node1&#45;&gt;Node10</title>
<path fill="none" stroke="midnightblue" d="M1301.22,-119.67C1400.5,-111.95 1565.21,-95.48 1704,-64 1706.74,-63.38 1709.51,-62.71 1712.3,-62"/>
<polygon fill="midnightblue" stroke="midnightblue" points="1300.93,-116.18 1291.22,-120.43 1301.46,-123.16 1300.93,-116.18"/>
</g>
<!-- Node11 -->
<g id="node11" class="node">
<title>Node11</title>
<g id="a_node11"><a xlink:href="../../d2/d49/slope__limiter_8c.html" target="_top" xlink:title="This is a function of the minmod slope limiter in one dimension.">
<polygon fill="white" stroke="black" points="1900,-6 1900,-58 2060,-58 2060,-6 1900,-6"/>
<text text-anchor="start" x="1908" y="-46" font-family="Helvetica,sans-Serif" font-size="10.00">/run/media/leixin/软件盘</text>
<text text-anchor="start" x="1908" y="-35" font-family="Helvetica,sans-Serif" font-size="10.00">/雷昕整理后的重要文件</text>
<text text-anchor="start" x="1908" y="-24" font-family="Helvetica,sans-Serif" font-size="10.00">/程序/My&#45;CFD/HydroCODE/src</text>
<text text-anchor="middle" x="1980" y="-13" font-family="Helvetica,sans-Serif" font-size="10.00">/inter_process/slope_limiter.c</text>
</a>
</g>
</g>
<!-- Node1&#45;&gt;Node11 -->
<g id="edge10" class="edge">
<title>Node1&#45;&gt;Node11</title>
<path fill="none" stroke="midnightblue" d="M1301.47,-124.34C1432.34,-121.08 1683.03,-108.93 1891,-64 1898.52,-62.38 1906.27,-60.3 1913.93,-58"/>
<polygon fill="midnightblue" stroke="midnightblue" points="1301.01,-120.85 1291.1,-124.58 1301.18,-127.85 1301.01,-120.85"/>
</g>
<!-- Node12 -->
<g id="node12" class="node">
<title>Node12</title>
<g id="a_node12"><a xlink:href="../../d7/d36/slope__limiter__2_d__x_8c.html" target="_top" xlink:title="This is a function of the minmod slope limiter in the x&#45;direction of two dimension.">
<polygon fill="white" stroke="black" points="2078,-6 2078,-58 2268,-58 2268,-6 2078,-6"/>
<text text-anchor="start" x="2086" y="-46" font-family="Helvetica,sans-Serif" font-size="10.00">/run/media/leixin/软件盘</text>
<text text-anchor="start" x="2086" y="-35" font-family="Helvetica,sans-Serif" font-size="10.00">/雷昕整理后的重要文件</text>
<text text-anchor="start" x="2086" y="-24" font-family="Helvetica,sans-Serif" font-size="10.00">/程序/My&#45;CFD/HydroCODE/src</text>
<text text-anchor="middle" x="2173" y="-13" font-family="Helvetica,sans-Serif" font-size="10.00">/inter_process/slope_limiter_2D_x.c</text>
</a>
</g>
</g>
<!-- Node1&#45;&gt;Node12 -->
<g id="edge11" class="edge">
<title>Node1&#45;&gt;Node12</title>
<path fill="none" stroke="midnightblue" d="M1301.06,-125.47C1457.67,-124.01 1792.06,-114.59 2069,-64 2077.71,-62.41 2086.73,-60.36 2095.65,-58.07"/>
<polygon fill="midnightblue" stroke="midnightblue" points="1300.97,-121.97 1291,-125.56 1301.03,-128.97 1300.97,-121.97"/>
</g>
</g>
</svg>
