<?xml version="1.0" encoding="UTF-8" standalone="no"?>
<!DOCTYPE svg PUBLIC "-//W3C//DTD SVG 1.1//EN"
 "http://www.w3.org/Graphics/SVG/1.1/DTD/svg11.dtd">
<!-- Generated by graphviz version 6.0.1 (0)
 -->
<!-- Title: src~/include/inter_process.h Pages: 1 -->
<svg width="761pt" height="117pt"
 viewBox="0.00 0.00 761.00 117.00" xmlns="http://www.w3.org/2000/svg" xmlns:xlink="http://www.w3.org/1999/xlink">
<g id="graph0" class="graph" transform="scale(1 1) rotate(0) translate(4 113)">
<title>src~/include/inter_process.h</title>
<polygon fill="white" stroke="none" points="-4,4 -4,-113 757,-113 757,4 -4,4"/>
<!-- Node1 -->
<g id="node1" class="node">
<title>Node1</title>
<g id="a_node1"><a xlink:title="This file is the header file of intermediate processes of finite volume scheme.">
<polygon fill="#bfbfbf" stroke="black" points="298,-78.5 298,-108.5 401,-108.5 401,-78.5 298,-78.5"/>
<text text-anchor="start" x="306" y="-96.5" font-family="Helvetica,sans-Serif" font-size="10.00">src~/include/inter</text>
<text text-anchor="middle" x="349.5" y="-85.5" font-family="Helvetica,sans-Serif" font-size="10.00">_process.h</text>
</a>
</g>
</g>
<!-- Node2 -->
<g id="node2" class="node">
<title>Node2</title>
<g id="a_node2"><a xlink:href="../../d2/d7d/godunov__solver___e_u_l__source_8c.html" target="_top" xlink:title="This is an Eulerian Godunov scheme to solve 1&#45;D Euler equations.">
<polygon fill="white" stroke="black" points="0,-0.5 0,-41.5 121,-41.5 121,-0.5 0,-0.5"/>
<text text-anchor="start" x="8" y="-29.5" font-family="Helvetica,sans-Serif" font-size="10.00">src~/finite_volume</text>
<text text-anchor="start" x="8" y="-18.5" font-family="Helvetica,sans-Serif" font-size="10.00">/godunov_solver_EUL</text>
<text text-anchor="middle" x="60.5" y="-7.5" font-family="Helvetica,sans-Serif" font-size="10.00">_source.c</text>
</a>
</g>
</g>
<!-- Node1&#45;&gt;Node2 -->
<g id="edge1" class="edge">
<title>Node1&#45;&gt;Node2</title>
<path fill="none" stroke="midnightblue" d="M288.02,-79.21C244.01,-69.49 183.43,-55.65 130.5,-42 127.44,-41.21 124.31,-40.38 121.15,-39.54"/>
<polygon fill="midnightblue" stroke="midnightblue" points="287.47,-82.68 297.99,-81.41 288.98,-75.84 287.47,-82.68"/>
</g>
<!-- Node3 -->
<g id="node3" class="node">
<title>Node3</title>
<g id="a_node3"><a xlink:href="../../d2/d2f/godunov__solver___l_a_g__source_8c.html" target="_top" xlink:title="This is a Lagrangian Godunov scheme to solve 1&#45;D Euler equations.">
<polygon fill="white" stroke="black" points="139.5,-0.5 139.5,-41.5 261.5,-41.5 261.5,-0.5 139.5,-0.5"/>
<text text-anchor="start" x="147.5" y="-29.5" font-family="Helvetica,sans-Serif" font-size="10.00">src~/finite_volume</text>
<text text-anchor="start" x="147.5" y="-18.5" font-family="Helvetica,sans-Serif" font-size="10.00">/godunov_solver_LAG</text>
<text text-anchor="middle" x="200.5" y="-7.5" font-family="Helvetica,sans-Serif" font-size="10.00">_source.c</text>
</a>
</g>
</g>
<!-- Node1&#45;&gt;Node3 -->
<g id="edge2" class="edge">
<title>Node1&#45;&gt;Node3</title>
<path fill="none" stroke="midnightblue" d="M310.39,-74C289.29,-64.01 263.24,-51.69 241.81,-41.55"/>
<polygon fill="midnightblue" stroke="midnightblue" points="309.17,-77.29 319.71,-78.4 312.16,-70.96 309.17,-77.29"/>
</g>
<!-- Node4 -->
<g id="node4" class="node">
<title>Node4</title>
<g id="a_node4"><a xlink:href="../../d6/d0b/grp__solver___e_u_l__source_8c.html" target="_top" xlink:title="This is an Eulerian GRP scheme to solve 1&#45;D Euler equations.">
<polygon fill="white" stroke="black" points="279.5,-6 279.5,-36 419.5,-36 419.5,-6 279.5,-6"/>
<text text-anchor="start" x="287.5" y="-24" font-family="Helvetica,sans-Serif" font-size="10.00">src~/finite_volume</text>
<text text-anchor="middle" x="349.5" y="-13" font-family="Helvetica,sans-Serif" font-size="10.00">/grp_solver_EUL_source.c</text>
</a>
</g>
</g>
<!-- Node1&#45;&gt;Node4 -->
<g id="edge3" class="edge">
<title>Node1&#45;&gt;Node4</title>
<path fill="none" stroke="midnightblue" d="M349.5,-68.23C349.5,-57.57 349.5,-45.41 349.5,-36.25"/>
<polygon fill="midnightblue" stroke="midnightblue" points="346,-68.23 349.5,-78.23 353,-68.23 346,-68.23"/>
</g>
<!-- Node5 -->
<g id="node5" class="node">
<title>Node5</title>
<g id="a_node5"><a xlink:href="../../d6/d4f/grp__solver___l_a_g__source_8c.html" target="_top" xlink:title="This is a Lagrangian GRP scheme to solve 1&#45;D Euler equations.">
<polygon fill="white" stroke="black" points="437.5,-6 437.5,-36 579.5,-36 579.5,-6 437.5,-6"/>
<text text-anchor="start" x="445.5" y="-24" font-family="Helvetica,sans-Serif" font-size="10.00">src~/finite_volume</text>
<text text-anchor="middle" x="508.5" y="-13" font-family="Helvetica,sans-Serif" font-size="10.00">/grp_solver_LAG_source.c</text>
</a>
</g>
</g>
<!-- Node1&#45;&gt;Node5 -->
<g id="edge4" class="edge">
<title>Node1&#45;&gt;Node5</title>
<path fill="none" stroke="midnightblue" d="M390.45,-74.34C417.33,-62.42 451.97,-47.07 476.76,-36.07"/>
<polygon fill="midnightblue" stroke="midnightblue" points="389.02,-71.15 381.29,-78.4 391.85,-77.55 389.02,-71.15"/>
</g>
<!-- Node6 -->
<g id="node6" class="node">
<title>Node6</title>
<g id="a_node6"><a xlink:href="../../df/d13/bound__cond__slope__limiter_8c.html" target="_top" xlink:title="This is a function to set boundary conditions and use the slope limiter in one dimension.">
<polygon fill="white" stroke="black" points="598,-6 598,-36 753,-36 753,-6 598,-6"/>
<text text-anchor="start" x="606" y="-24" font-family="Helvetica,sans-Serif" font-size="10.00">src~/inter_process</text>
<text text-anchor="middle" x="675.5" y="-13" font-family="Helvetica,sans-Serif" font-size="10.00">/bound_cond_slope_limiter.c</text>
</a>
</g>
</g>
<!-- Node1&#45;&gt;Node6 -->
<g id="edge5" class="edge">
<title>Node1&#45;&gt;Node6</title>
<path fill="none" stroke="midnightblue" d="M411.29,-79.76C459.59,-69.72 528.38,-55.26 588.5,-42 597.13,-40.1 606.22,-38.05 615.16,-36.02"/>
<polygon fill="midnightblue" stroke="midnightblue" points="410.39,-76.37 401.31,-81.83 411.81,-83.22 410.39,-76.37"/>
</g>
</g>
</svg>
