<?xml version="1.0" encoding="UTF-8" standalone="no"?>
<!DOCTYPE svg PUBLIC "-//W3C//DTD SVG 1.1//EN"
 "http://www.w3.org/Graphics/SVG/1.1/DTD/svg11.dtd">
<!-- Generated by graphviz version 5.0.0 (0)
 -->
<!-- Title: Godunov_solver_EUL_source Pages: 1 -->
<svg width="537pt" height="123pt"
 viewBox="0.00 0.00 537.00 123.00" xmlns="http://www.w3.org/2000/svg" xmlns:xlink="http://www.w3.org/1999/xlink">
<g id="graph0" class="graph" transform="scale(1 1) rotate(0) translate(4 119)">
<title>Godunov_solver_EUL_source</title>
<polygon fill="white" stroke="transparent" points="-4,4 -4,-119 533,-119 533,4 -4,4"/>
<!-- Node1 -->
<g id="node1" class="node">
<title>Node1</title>
<g id="a_node1"><a xlink:title="This function use Godunov scheme to solve 1&#45;D Euler equations of motion on Eulerian coordinate.">
<polygon fill="#bfbfbf" stroke="black" points="0,-33 0,-63 119,-63 119,-33 0,-33"/>
<text text-anchor="start" x="8" y="-51" font-family="Helvetica,sans-Serif" font-size="10.00">Godunov_solver_EUL</text>
<text text-anchor="middle" x="59.5" y="-40" font-family="Helvetica,sans-Serif" font-size="10.00">_source</text>
</a>
</g>
</g>
<!-- Node2 -->
<g id="node2" class="node">
<title>Node2</title>
<g id="a_node2"><a xlink:href="../../df/d13/bound__cond__slope__limiter_8c.html#adf898c0b0966ac36a90920be44951a5c" target="_top" xlink:title="This function apply the minmod limiter to the slope in one dimension.">
<polygon fill="white" stroke="black" points="155,-76.5 155,-95.5 299,-95.5 299,-76.5 155,-76.5"/>
<text text-anchor="middle" x="227" y="-83.5" font-family="Helvetica,sans-Serif" font-size="10.00">bound_cond_slope_limiter</text>
</a>
</g>
</g>
<!-- Node1&#45;&gt;Node2 -->
<g id="edge1" class="edge">
<title>Node1&#45;&gt;Node2</title>
<path fill="none" stroke="midnightblue" d="M119.32,-61.5C137.33,-65.64 157.01,-70.16 174.5,-74.18"/>
<polygon fill="midnightblue" stroke="midnightblue" points="173.99,-77.65 184.52,-76.48 175.55,-70.83 173.99,-77.65"/>
</g>
<!-- Node6 -->
<g id="node6" class="node">
<title>Node6</title>
<g id="a_node6"><a xlink:href="../../d4/ddd/sys__pro_8c.html#aab058cac35713b52c083b9e54ffa45eb" target="_top" xlink:title="This function print a progress bar on one line of standard output.">
<polygon fill="white" stroke="black" points="200,-38.5 200,-57.5 254,-57.5 254,-38.5 200,-38.5"/>
<text text-anchor="middle" x="227" y="-45.5" font-family="Helvetica,sans-Serif" font-size="10.00">DispPro</text>
</a>
</g>
</g>
<!-- Node1&#45;&gt;Node6 -->
<g id="edge5" class="edge">
<title>Node1&#45;&gt;Node6</title>
<path fill="none" stroke="midnightblue" d="M119.32,-48C142.73,-48 168.95,-48 189.54,-48"/>
<polygon fill="midnightblue" stroke="midnightblue" points="189.74,-51.5 199.74,-48 189.74,-44.5 189.74,-51.5"/>
</g>
<!-- Node7 -->
<g id="node7" class="node">
<title>Node7</title>
<g id="a_node7"><a xlink:href="../../dc/d70/linear___g_r_p__solver___edir_8c.html#ae1ab028f093a0dcda02b4f7ae5a23ce2" target="_top" xlink:title="A direct Eulerian GRP solver for unsteady compressible inviscid flow in one space dimension.">
<polygon fill="white" stroke="black" points="162.5,-0.5 162.5,-19.5 291.5,-19.5 291.5,-0.5 162.5,-0.5"/>
<text text-anchor="middle" x="227" y="-7.5" font-family="Helvetica,sans-Serif" font-size="10.00">linear_GRP_solver_Edir</text>
</a>
</g>
</g>
<!-- Node1&#45;&gt;Node7 -->
<g id="edge6" class="edge">
<title>Node1&#45;&gt;Node7</title>
<path fill="none" stroke="midnightblue" d="M119.32,-34.5C137.33,-30.36 157.01,-25.84 174.5,-21.82"/>
<polygon fill="midnightblue" stroke="midnightblue" points="175.55,-25.17 184.52,-19.52 173.99,-18.35 175.55,-25.17"/>
</g>
<!-- Node3 -->
<g id="node3" class="node">
<title>Node3</title>
<g id="a_node3"><a xlink:href="../../d2/d49/slope__limiter_8c.html#ae6551ab705937492c059ece48a3b2793" target="_top" xlink:title="This function apply the minmod limiter to the slope in one dimension.">
<polygon fill="white" stroke="black" points="335,-76.5 335,-95.5 430,-95.5 430,-76.5 335,-76.5"/>
<text text-anchor="middle" x="382.5" y="-83.5" font-family="Helvetica,sans-Serif" font-size="10.00">minmod_limiter</text>
</a>
</g>
</g>
<!-- Node2&#45;&gt;Node3 -->
<g id="edge2" class="edge">
<title>Node2&#45;&gt;Node3</title>
<path fill="none" stroke="midnightblue" d="M299.36,-86C307.84,-86 316.4,-86 324.64,-86"/>
<polygon fill="midnightblue" stroke="midnightblue" points="324.87,-89.5 334.87,-86 324.87,-82.5 324.87,-89.5"/>
</g>
<!-- Node4 -->
<g id="node4" class="node">
<title>Node4</title>
<g id="a_node4"><a xlink:href="../../d5/da5/tools_8h.html#a56cac3298eeead8cf22c1e61eb5a5a88" target="_top" xlink:title="Minmod limiter function of two variables.">
<polygon fill="white" stroke="black" points="466,-95.5 466,-114.5 529,-114.5 529,-95.5 466,-95.5"/>
<text text-anchor="middle" x="497.5" y="-102.5" font-family="Helvetica,sans-Serif" font-size="10.00">minmod2</text>
</a>
</g>
</g>
<!-- Node3&#45;&gt;Node4 -->
<g id="edge3" class="edge">
<title>Node3&#45;&gt;Node4</title>
<path fill="none" stroke="midnightblue" d="M430.11,-93.84C438.67,-95.28 447.54,-96.77 455.91,-98.17"/>
<polygon fill="midnightblue" stroke="midnightblue" points="455.36,-101.63 465.8,-99.84 456.52,-94.73 455.36,-101.63"/>
</g>
<!-- Node5 -->
<g id="node5" class="node">
<title>Node5</title>
<g id="a_node5"><a xlink:href="../../d5/da5/tools_8h.html#a6dfba28e1af33b47f4656d3738996fe9" target="_top" xlink:title="Minmod limiter function of three variables.">
<polygon fill="white" stroke="black" points="466,-57.5 466,-76.5 529,-76.5 529,-57.5 466,-57.5"/>
<text text-anchor="middle" x="497.5" y="-64.5" font-family="Helvetica,sans-Serif" font-size="10.00">minmod3</text>
</a>
</g>
</g>
<!-- Node3&#45;&gt;Node5 -->
<g id="edge4" class="edge">
<title>Node3&#45;&gt;Node5</title>
<path fill="none" stroke="midnightblue" d="M430.11,-78.16C438.67,-76.72 447.54,-75.23 455.91,-73.83"/>
<polygon fill="midnightblue" stroke="midnightblue" points="456.52,-77.27 465.8,-72.16 455.36,-70.37 456.52,-77.27"/>
</g>
</g>
</svg>
