<?xml version="1.0" encoding="UTF-8" standalone="no"?>
<!DOCTYPE svg PUBLIC "-//W3C//DTD SVG 1.1//EN"
 "http://www.w3.org/Graphics/SVG/1.1/DTD/svg11.dtd">
<!-- Generated by graphviz version 5.0.0 (0)
 -->
<!-- Title: GRP_solver_2D_EUL_source Pages: 1 -->
<svg width="611pt" height="180pt"
 viewBox="0.00 0.00 611.00 180.00" xmlns="http://www.w3.org/2000/svg" xmlns:xlink="http://www.w3.org/1999/xlink">
<g id="graph0" class="graph" transform="scale(1 1) rotate(0) translate(4 176)">
<title>GRP_solver_2D_EUL_source</title>
<polygon fill="white" stroke="transparent" points="-4,4 -4,-176 607,-176 607,4 -4,4"/>
<!-- Node1 -->
<g id="node1" class="node">
<title>Node1</title>
<g id="a_node1"><a xlink:title="This function use GRP scheme to solve 2&#45;D Euler equations of motion on Eulerian coordinate without di...">
<polygon fill="#bfbfbf" stroke="black" points="0,-76.5 0,-95.5 152,-95.5 152,-76.5 0,-76.5"/>
<text text-anchor="middle" x="76" y="-83.5" font-family="Helvetica,sans-Serif" font-size="10.00">GRP_solver_2D_EUL_source</text>
</a>
</g>
</g>
<!-- Node2 -->
<g id="node2" class="node">
<title>Node2</title>
<g id="a_node2"><a xlink:href="../../d8/d49/bound__cond__slope__limiter__x_8c.html#a93bebe7c69a9932a22ae8bfce51ab95c" target="_top" xlink:title="This function apply the minmod limiter to the slope in the x&#45;direction of two dimension.">
<polygon fill="white" stroke="black" points="188,-152.5 188,-171.5 343,-171.5 343,-152.5 188,-152.5"/>
<text text-anchor="middle" x="265.5" y="-159.5" font-family="Helvetica,sans-Serif" font-size="10.00">bound_cond_slope_limiter_x</text>
</a>
</g>
</g>
<!-- Node1&#45;&gt;Node2 -->
<g id="edge1" class="edge">
<title>Node1&#45;&gt;Node2</title>
<path fill="none" stroke="midnightblue" d="M92.65,-95.51C113.67,-107.94 152.51,-129.68 188,-143 194.69,-145.51 201.84,-147.79 208.98,-149.82"/>
<polygon fill="midnightblue" stroke="midnightblue" points="208.1,-153.21 218.67,-152.45 209.93,-146.45 208.1,-153.21"/>
</g>
<!-- Node6 -->
<g id="node6" class="node">
<title>Node6</title>
<g id="a_node6"><a xlink:href="../../d8/dbb/bound__cond__slope__limiter__y_8c.html#aaf0175f075a4b153d671c163bc8275b6" target="_top" xlink:title="This function apply the minmod limiter to the slope in the y&#45;direction of two dimension.">
<polygon fill="white" stroke="black" points="188,-114.5 188,-133.5 343,-133.5 343,-114.5 188,-114.5"/>
<text text-anchor="middle" x="265.5" y="-121.5" font-family="Helvetica,sans-Serif" font-size="10.00">bound_cond_slope_limiter_y</text>
</a>
</g>
</g>
<!-- Node1&#45;&gt;Node6 -->
<g id="edge5" class="edge">
<title>Node1&#45;&gt;Node6</title>
<path fill="none" stroke="midnightblue" d="M124.31,-95.59C149.61,-100.72 180.95,-107.07 207.57,-112.46"/>
<polygon fill="midnightblue" stroke="midnightblue" points="207.03,-115.92 217.53,-114.48 208.42,-109.06 207.03,-115.92"/>
</g>
<!-- Node8 -->
<g id="node8" class="node">
<title>Node8</title>
<g id="a_node8"><a xlink:href="../../d4/ddd/sys__pro_8c.html#aab058cac35713b52c083b9e54ffa45eb" target="_top" xlink:title="This function print a progress bar on one line of standard output.">
<polygon fill="white" stroke="black" points="238.5,-76.5 238.5,-95.5 292.5,-95.5 292.5,-76.5 238.5,-76.5"/>
<text text-anchor="middle" x="265.5" y="-83.5" font-family="Helvetica,sans-Serif" font-size="10.00">DispPro</text>
</a>
</g>
</g>
<!-- Node1&#45;&gt;Node8 -->
<g id="edge9" class="edge">
<title>Node1&#45;&gt;Node8</title>
<path fill="none" stroke="midnightblue" d="M152.18,-86C178.45,-86 206.74,-86 228.36,-86"/>
<polygon fill="midnightblue" stroke="midnightblue" points="228.4,-89.5 238.4,-86 228.4,-82.5 228.4,-89.5"/>
</g>
<!-- Node9 -->
<g id="node9" class="node">
<title>Node9</title>
<g id="a_node9"><a xlink:href="../../dd/df5/flux__calc_8h.html#a99d3c20c9f68680b85415265ecd67b60" target="_top" xlink:title=" ">
<polygon fill="white" stroke="black" points="216,-38.5 216,-57.5 315,-57.5 315,-38.5 216,-38.5"/>
<text text-anchor="middle" x="265.5" y="-45.5" font-family="Helvetica,sans-Serif" font-size="10.00">flux_generator_x</text>
</a>
</g>
</g>
<!-- Node1&#45;&gt;Node9 -->
<g id="edge10" class="edge">
<title>Node1&#45;&gt;Node9</title>
<path fill="none" stroke="midnightblue" d="M124.31,-76.41C149.61,-71.28 180.95,-64.93 207.57,-59.54"/>
<polygon fill="midnightblue" stroke="midnightblue" points="208.42,-62.94 217.53,-57.52 207.03,-56.08 208.42,-62.94"/>
</g>
<!-- Node10 -->
<g id="node10" class="node">
<title>Node10</title>
<g id="a_node10"><a xlink:href="../../dd/df5/flux__calc_8h.html#a964701ac9bd65f6b19c3c731e983d562" target="_top" xlink:title=" ">
<polygon fill="white" stroke="black" points="216,-0.5 216,-19.5 315,-19.5 315,-0.5 216,-0.5"/>
<text text-anchor="middle" x="265.5" y="-7.5" font-family="Helvetica,sans-Serif" font-size="10.00">flux_generator_y</text>
</a>
</g>
</g>
<!-- Node1&#45;&gt;Node10 -->
<g id="edge11" class="edge">
<title>Node1&#45;&gt;Node10</title>
<path fill="none" stroke="midnightblue" d="M92.65,-76.49C113.67,-64.06 152.51,-42.32 188,-29 194.69,-26.49 201.84,-24.21 208.98,-22.18"/>
<polygon fill="midnightblue" stroke="midnightblue" points="209.93,-25.55 218.67,-19.55 208.1,-18.79 209.93,-25.55"/>
</g>
<!-- Node3 -->
<g id="node3" class="node">
<title>Node3</title>
<g id="a_node3"><a xlink:href="../../d7/d36/slope__limiter__2_d__x_8c.html#a1305d8e7a55a4345482501a8a57ef353" target="_top" xlink:title="This function apply the minmod limiter to the slope in the x&#45;direction of two dimension.">
<polygon fill="white" stroke="black" points="379,-152.5 379,-171.5 504,-171.5 504,-152.5 379,-152.5"/>
<text text-anchor="middle" x="441.5" y="-159.5" font-family="Helvetica,sans-Serif" font-size="10.00">minmod_limiter_2D_x</text>
</a>
</g>
</g>
<!-- Node2&#45;&gt;Node3 -->
<g id="edge2" class="edge">
<title>Node2&#45;&gt;Node3</title>
<path fill="none" stroke="midnightblue" d="M343.07,-162C351.56,-162 360.19,-162 368.62,-162"/>
<polygon fill="midnightblue" stroke="midnightblue" points="368.78,-165.5 378.78,-162 368.78,-158.5 368.78,-165.5"/>
</g>
<!-- Node4 -->
<g id="node4" class="node">
<title>Node4</title>
<g id="a_node4"><a xlink:href="../../d5/da5/tools_8h.html#a56cac3298eeead8cf22c1e61eb5a5a88" target="_top" xlink:title="Minmod limiter function of two variables.">
<polygon fill="white" stroke="black" points="540,-152.5 540,-171.5 603,-171.5 603,-152.5 540,-152.5"/>
<text text-anchor="middle" x="571.5" y="-159.5" font-family="Helvetica,sans-Serif" font-size="10.00">minmod2</text>
</a>
</g>
</g>
<!-- Node3&#45;&gt;Node4 -->
<g id="edge3" class="edge">
<title>Node3&#45;&gt;Node4</title>
<path fill="none" stroke="midnightblue" d="M504.25,-162C512.87,-162 521.55,-162 529.66,-162"/>
<polygon fill="midnightblue" stroke="midnightblue" points="529.93,-165.5 539.93,-162 529.93,-158.5 529.93,-165.5"/>
</g>
<!-- Node5 -->
<g id="node5" class="node">
<title>Node5</title>
<g id="a_node5"><a xlink:href="../../d5/da5/tools_8h.html#a6dfba28e1af33b47f4656d3738996fe9" target="_top" xlink:title="Minmod limiter function of three variables.">
<polygon fill="white" stroke="black" points="540,-114.5 540,-133.5 603,-133.5 603,-114.5 540,-114.5"/>
<text text-anchor="middle" x="571.5" y="-121.5" font-family="Helvetica,sans-Serif" font-size="10.00">minmod3</text>
</a>
</g>
</g>
<!-- Node3&#45;&gt;Node5 -->
<g id="edge4" class="edge">
<title>Node3&#45;&gt;Node5</title>
<path fill="none" stroke="midnightblue" d="M474.8,-152.41C491.67,-147.4 512.48,-141.23 530.37,-135.91"/>
<polygon fill="midnightblue" stroke="midnightblue" points="531.38,-139.26 539.97,-133.06 529.39,-132.55 531.38,-139.26"/>
</g>
<!-- Node7 -->
<g id="node7" class="node">
<title>Node7</title>
<g id="a_node7"><a xlink:href="../../d2/d49/slope__limiter_8c.html#ae6551ab705937492c059ece48a3b2793" target="_top" xlink:title="This function apply the minmod limiter to the slope in one dimension.">
<polygon fill="white" stroke="black" points="394,-114.5 394,-133.5 489,-133.5 489,-114.5 394,-114.5"/>
<text text-anchor="middle" x="441.5" y="-121.5" font-family="Helvetica,sans-Serif" font-size="10.00">minmod_limiter</text>
</a>
</g>
</g>
<!-- Node6&#45;&gt;Node7 -->
<g id="edge6" class="edge">
<title>Node6&#45;&gt;Node7</title>
<path fill="none" stroke="midnightblue" d="M343.07,-124C356.74,-124 370.76,-124 383.75,-124"/>
<polygon fill="midnightblue" stroke="midnightblue" points="383.92,-127.5 393.92,-124 383.92,-120.5 383.92,-127.5"/>
</g>
<!-- Node7&#45;&gt;Node4 -->
<g id="edge7" class="edge">
<title>Node7&#45;&gt;Node4</title>
<path fill="none" stroke="midnightblue" d="M474.8,-133.59C491.67,-138.6 512.48,-144.77 530.37,-150.09"/>
<polygon fill="midnightblue" stroke="midnightblue" points="529.39,-153.45 539.97,-152.94 531.38,-146.74 529.39,-153.45"/>
</g>
<!-- Node7&#45;&gt;Node5 -->
<g id="edge8" class="edge">
<title>Node7&#45;&gt;Node5</title>
<path fill="none" stroke="midnightblue" d="M489.07,-124C502.38,-124 516.78,-124 529.72,-124"/>
<polygon fill="midnightblue" stroke="midnightblue" points="529.73,-127.5 539.73,-124 529.73,-120.5 529.73,-127.5"/>
</g>
</g>
</svg>
