<?xml version="1.0" encoding="UTF-8" standalone="no"?>
<!DOCTYPE svg PUBLIC "-//W3C//DTD SVG 1.1//EN"
 "http://www.w3.org/Graphics/SVG/1.1/DTD/svg11.dtd">
<!-- Generated by graphviz version 5.0.0 (0)
 -->
<!-- Title: /home/leixin/Programs/HydroCODE/src/Riemann_solver/Riemann_solver_exact_Toro.c Pages: 1 -->
<svg width="208pt" height="117pt"
 viewBox="0.00 0.00 207.50 117.00" xmlns="http://www.w3.org/2000/svg" xmlns:xlink="http://www.w3.org/1999/xlink">
<g id="graph0" class="graph" transform="scale(1 1) rotate(0) translate(4 113)">
<title>/home/leixin/Programs/HydroCODE/src/Riemann_solver/Riemann_solver_exact_Toro.c</title>
<polygon fill="white" stroke="transparent" points="-4,4 -4,-113 203.5,-113 203.5,4 -4,4"/>
<!-- Node1 -->
<g id="node1" class="node">
<title>Node1</title>
<g id="a_node1"><a xlink:title="This is an exact Riemann solver in Toro&#39;s book.">
<polygon fill="#bfbfbf" stroke="black" points="24.5,-56.5 24.5,-108.5 164.5,-108.5 164.5,-56.5 24.5,-56.5"/>
<text text-anchor="start" x="32.5" y="-96.5" font-family="Helvetica,sans-Serif" font-size="10.00">/home/leixin/Programs</text>
<text text-anchor="start" x="32.5" y="-85.5" font-family="Helvetica,sans-Serif" font-size="10.00">/HydroCODE/src/Riemann</text>
<text text-anchor="start" x="32.5" y="-74.5" font-family="Helvetica,sans-Serif" font-size="10.00">_solver/Riemann_solver</text>
<text text-anchor="middle" x="94.5" y="-63.5" font-family="Helvetica,sans-Serif" font-size="10.00">_exact_Toro.c</text>
</a>
</g>
</g>
<!-- Node2 -->
<g id="node2" class="node">
<title>Node2</title>
<g id="a_node2"><a xlink:title=" ">
<polygon fill="white" stroke="#bfbfbf" points="0,-0.5 0,-19.5 51,-19.5 51,-0.5 0,-0.5"/>
<text text-anchor="middle" x="25.5" y="-7.5" font-family="Helvetica,sans-Serif" font-size="10.00">math.h</text>
</a>
</g>
</g>
<!-- Node1&#45;&gt;Node2 -->
<g id="edge1" class="edge">
<title>Node1&#45;&gt;Node2</title>
<path fill="none" stroke="midnightblue" d="M69.98,-56.45C60.37,-46.63 49.63,-35.66 41.11,-26.95"/>
<polygon fill="midnightblue" stroke="midnightblue" points="43.51,-24.39 34.01,-19.7 38.5,-29.29 43.51,-24.39"/>
</g>
<!-- Node3 -->
<g id="node3" class="node">
<title>Node3</title>
<g id="a_node3"><a xlink:title=" ">
<polygon fill="white" stroke="#bfbfbf" points="69.5,-0.5 69.5,-19.5 119.5,-19.5 119.5,-0.5 69.5,-0.5"/>
<text text-anchor="middle" x="94.5" y="-7.5" font-family="Helvetica,sans-Serif" font-size="10.00">stdio.h</text>
</a>
</g>
</g>
<!-- Node1&#45;&gt;Node3 -->
<g id="edge2" class="edge">
<title>Node1&#45;&gt;Node3</title>
<path fill="none" stroke="midnightblue" d="M94.5,-56.45C94.5,-47.73 94.5,-38.1 94.5,-29.96"/>
<polygon fill="midnightblue" stroke="midnightblue" points="98,-29.7 94.5,-19.7 91,-29.7 98,-29.7"/>
</g>
<!-- Node4 -->
<g id="node4" class="node">
<title>Node4</title>
<g id="a_node4"><a xlink:title=" ">
<polygon fill="white" stroke="#bfbfbf" points="137.5,-0.5 137.5,-19.5 199.5,-19.5 199.5,-0.5 137.5,-0.5"/>
<text text-anchor="middle" x="168.5" y="-7.5" font-family="Helvetica,sans-Serif" font-size="10.00">stdbool.h</text>
</a>
</g>
</g>
<!-- Node1&#45;&gt;Node4 -->
<g id="edge3" class="edge">
<title>Node1&#45;&gt;Node4</title>
<path fill="none" stroke="midnightblue" d="M120.8,-56.45C131.21,-46.53 142.86,-35.43 152.03,-26.69"/>
<polygon fill="midnightblue" stroke="midnightblue" points="154.55,-29.13 159.37,-19.7 149.72,-24.06 154.55,-29.13"/>
</g>
</g>
</svg>
