<?xml version="1.0" encoding="UTF-8" standalone="no"?>
<!DOCTYPE svg PUBLIC "-//W3C//DTD SVG 1.1//EN"
 "http://www.w3.org/Graphics/SVG/1.1/DTD/svg11.dtd">
<!-- Generated by graphviz version 6.0.1 (0)
 -->
<!-- Title: src~/riemann_solver/linear_grp_solver_Edir_G2D.c Pages: 1 -->
<svg width="288pt" height="162pt"
 viewBox="0.00 0.00 287.50 162.00" xmlns="http://www.w3.org/2000/svg" xmlns:xlink="http://www.w3.org/1999/xlink">
<g id="graph0" class="graph" transform="scale(1 1) rotate(0) translate(4 158)">
<title>src~/riemann_solver/linear_grp_solver_Edir_G2D.c</title>
<polygon fill="white" stroke="none" points="-4,4 -4,-158 283.5,-158 283.5,4 -4,4"/>
<!-- Node1 -->
<g id="node1" class="node">
<title>Node1</title>
<g id="a_node1"><a xlink:title="This is a Genuinely&#45;2D direct Eulerian GRP solver for compressible inviscid flow in Li&#39;s paper.">
<polygon fill="#bfbfbf" stroke="black" points="39.5,-123.5 39.5,-153.5 201.5,-153.5 201.5,-123.5 39.5,-123.5"/>
<text text-anchor="start" x="47.5" y="-141.5" font-family="Helvetica,sans-Serif" font-size="10.00">src~/riemann_solver</text>
<text text-anchor="middle" x="120.5" y="-130.5" font-family="Helvetica,sans-Serif" font-size="10.00">/linear_grp_solver_Edir_G2D.c</text>
</a>
</g>
</g>
<!-- Node2 -->
<g id="node2" class="node">
<title>Node2</title>
<g id="a_node2"><a xlink:title=" ">
<polygon fill="white" stroke="#bfbfbf" points="0,-62 0,-81 51,-81 51,-62 0,-62"/>
<text text-anchor="middle" x="25.5" y="-69" font-family="Helvetica,sans-Serif" font-size="10.00">math.h</text>
</a>
</g>
</g>
<!-- Node1&#45;&gt;Node2 -->
<g id="edge1" class="edge">
<title>Node1&#45;&gt;Node2</title>
<path fill="none" stroke="midnightblue" d="M99.89,-123.4C84.1,-112.6 62.41,-97.76 46.53,-86.89"/>
<polygon fill="midnightblue" stroke="midnightblue" points="48.16,-83.77 37.93,-81.01 44.21,-89.54 48.16,-83.77"/>
</g>
<!-- Node3 -->
<g id="node3" class="node">
<title>Node3</title>
<g id="a_node3"><a xlink:title=" ">
<polygon fill="white" stroke="#bfbfbf" points="69.5,-62 69.5,-81 119.5,-81 119.5,-62 69.5,-62"/>
<text text-anchor="middle" x="94.5" y="-69" font-family="Helvetica,sans-Serif" font-size="10.00">stdio.h</text>
</a>
</g>
</g>
<!-- Node1&#45;&gt;Node3 -->
<g id="edge2" class="edge">
<title>Node1&#45;&gt;Node3</title>
<path fill="none" stroke="midnightblue" d="M114.86,-123.4C111.01,-113.76 105.87,-100.91 101.71,-90.54"/>
<polygon fill="midnightblue" stroke="midnightblue" points="104.94,-89.18 97.98,-81.19 98.44,-91.78 104.94,-89.18"/>
</g>
<!-- Node4 -->
<g id="node4" class="node">
<title>Node4</title>
<g id="a_node4"><a xlink:href="../../da/d1e/var__struc_8h.html" target="_top" xlink:title="This file is the header file of some globally common variables and structural bodies.">
<polygon fill="white" stroke="black" points="128.5,-0.5 128.5,-19.5 246.5,-19.5 246.5,-0.5 128.5,-0.5"/>
<text text-anchor="middle" x="187.5" y="-7.5" font-family="Helvetica,sans-Serif" font-size="10.00">../include/var_struc.h</text>
</a>
</g>
</g>
<!-- Node1&#45;&gt;Node4 -->
<g id="edge3" class="edge">
<title>Node1&#45;&gt;Node4</title>
<path fill="none" stroke="midnightblue" d="M127.93,-123.48C140.2,-100.31 164.69,-54.07 178.13,-28.69"/>
<polygon fill="midnightblue" stroke="midnightblue" points="181.26,-30.26 182.85,-19.79 175.07,-26.99 181.26,-30.26"/>
</g>
<!-- Node5 -->
<g id="node5" class="node">
<title>Node5</title>
<g id="a_node5"><a xlink:href="../../df/ded/riemann__solver_8h.html" target="_top" xlink:title="This file is the header file of several Riemann solvers and GRP solvers.">
<polygon fill="white" stroke="black" points="175.5,-56.5 175.5,-86.5 279.5,-86.5 279.5,-56.5 175.5,-56.5"/>
<text text-anchor="start" x="183.5" y="-74.5" font-family="Helvetica,sans-Serif" font-size="10.00">../include/riemann</text>
<text text-anchor="middle" x="227.5" y="-63.5" font-family="Helvetica,sans-Serif" font-size="10.00">_solver.h</text>
</a>
</g>
</g>
<!-- Node1&#45;&gt;Node5 -->
<g id="edge4" class="edge">
<title>Node1&#45;&gt;Node5</title>
<path fill="none" stroke="midnightblue" d="M143.72,-123.4C158.86,-114.2 178.83,-102.07 195.47,-91.95"/>
<polygon fill="midnightblue" stroke="midnightblue" points="197.6,-94.76 204.33,-86.58 193.96,-88.78 197.6,-94.76"/>
</g>
<!-- Node5&#45;&gt;Node4 -->
<g id="edge5" class="edge">
<title>Node5&#45;&gt;Node4</title>
<path fill="none" stroke="midnightblue" d="M218.02,-56.4C212.33,-47.93 205.05,-37.1 199.02,-28.14"/>
<polygon fill="midnightblue" stroke="midnightblue" points="201.8,-26 193.32,-19.66 195.99,-29.91 201.8,-26"/>
</g>
</g>
</svg>
