<?xml version="1.0" encoding="UTF-8" standalone="no"?>
<!DOCTYPE svg PUBLIC "-//W3C//DTD SVG 1.1//EN"
 "http://www.w3.org/Graphics/SVG/1.1/DTD/svg11.dtd">
<!-- Generated by graphviz version 5.0.0 (0)
 -->
<!-- Title: /home/leixin/Programs/HydroCODE/src/Riemann_solver/linear_GRP_solver_Edir_Q1D.c Pages: 1 -->
<svg width="291pt" height="184pt"
 viewBox="0.00 0.00 291.00 184.00" xmlns="http://www.w3.org/2000/svg" xmlns:xlink="http://www.w3.org/1999/xlink">
<g id="graph0" class="graph" transform="scale(1 1) rotate(0) translate(4 180)">
<title>/home/leixin/Programs/HydroCODE/src/Riemann_solver/linear_GRP_solver_Edir_Q1D.c</title>
<polygon fill="white" stroke="transparent" points="-4,4 -4,-180 287,-180 287,4 -4,4"/>
<!-- Node1 -->
<g id="node1" class="node">
<title>Node1</title>
<g id="a_node1"><a xlink:title="This is a Quasi&#45;1D direct Eulerian GRP solver for compressible inviscid flow in Li&#39;s paper.">
<polygon fill="#bfbfbf" stroke="black" points="49,-123.5 49,-175.5 192,-175.5 192,-123.5 49,-123.5"/>
<text text-anchor="start" x="57" y="-163.5" font-family="Helvetica,sans-Serif" font-size="10.00">/home/leixin/Programs</text>
<text text-anchor="start" x="57" y="-152.5" font-family="Helvetica,sans-Serif" font-size="10.00">/HydroCODE/src/Riemann</text>
<text text-anchor="start" x="57" y="-141.5" font-family="Helvetica,sans-Serif" font-size="10.00">_solver/linear_GRP_solver</text>
<text text-anchor="middle" x="120.5" y="-130.5" font-family="Helvetica,sans-Serif" font-size="10.00">_Edir_Q1D.c</text>
</a>
</g>
</g>
<!-- Node2 -->
<g id="node2" class="node">
<title>Node2</title>
<g id="a_node2"><a xlink:title=" ">
<polygon fill="white" stroke="#bfbfbf" points="0,-62 0,-81 51,-81 51,-62 0,-62"/>
<text text-anchor="middle" x="25.5" y="-69" font-family="Helvetica,sans-Serif" font-size="10.00">math.h</text>
</a>
</g>
</g>
<!-- Node1&#45;&gt;Node2 -->
<g id="edge1" class="edge">
<title>Node1&#45;&gt;Node2</title>
<path fill="none" stroke="midnightblue" d="M89.13,-123.4C74.38,-111.6 57.27,-97.91 44.51,-87.7"/>
<polygon fill="midnightblue" stroke="midnightblue" points="46.45,-84.77 36.45,-81.26 42.07,-90.24 46.45,-84.77"/>
</g>
<!-- Node3 -->
<g id="node3" class="node">
<title>Node3</title>
<g id="a_node3"><a xlink:title=" ">
<polygon fill="white" stroke="#bfbfbf" points="69.5,-62 69.5,-81 119.5,-81 119.5,-62 69.5,-62"/>
<text text-anchor="middle" x="94.5" y="-69" font-family="Helvetica,sans-Serif" font-size="10.00">stdio.h</text>
</a>
</g>
</g>
<!-- Node1&#45;&gt;Node3 -->
<g id="edge2" class="edge">
<title>Node1&#45;&gt;Node3</title>
<path fill="none" stroke="midnightblue" d="M111.84,-123.19C108.24,-112.65 104.13,-100.64 100.81,-90.95"/>
<polygon fill="midnightblue" stroke="midnightblue" points="104.03,-89.54 97.48,-81.21 97.4,-91.8 104.03,-89.54"/>
</g>
<!-- Node4 -->
<g id="node4" class="node">
<title>Node4</title>
<g id="a_node4"><a xlink:href="../../da/d1e/var__struc_8h.html" target="_top" xlink:title="This file is the header file of some globally common variables and structural bodies.">
<polygon fill="white" stroke="black" points="129.5,-0.5 129.5,-19.5 247.5,-19.5 247.5,-0.5 129.5,-0.5"/>
<text text-anchor="middle" x="188.5" y="-7.5" font-family="Helvetica,sans-Serif" font-size="10.00">../include/var_struc.h</text>
</a>
</g>
</g>
<!-- Node1&#45;&gt;Node4 -->
<g id="edge3" class="edge">
<title>Node1&#45;&gt;Node4</title>
<path fill="none" stroke="midnightblue" d="M132.97,-123.28C146.53,-95.87 167.83,-52.79 179.73,-28.74"/>
<polygon fill="midnightblue" stroke="midnightblue" points="182.9,-30.21 184.2,-19.7 176.63,-27.11 182.9,-30.21"/>
</g>
<!-- Node5 -->
<g id="node5" class="node">
<title>Node5</title>
<g id="a_node5"><a xlink:href="../../d8/d09/_riemann__solver_8h.html" target="_top" xlink:title="This file is the header file of several Riemann solvers and GRP solvers.">
<polygon fill="white" stroke="black" points="176,-56.5 176,-86.5 283,-86.5 283,-56.5 176,-56.5"/>
<text text-anchor="start" x="184" y="-74.5" font-family="Helvetica,sans-Serif" font-size="10.00">../include/Riemann</text>
<text text-anchor="middle" x="229.5" y="-63.5" font-family="Helvetica,sans-Serif" font-size="10.00">_solver.h</text>
</a>
</g>
</g>
<!-- Node1&#45;&gt;Node5 -->
<g id="edge4" class="edge">
<title>Node1&#45;&gt;Node5</title>
<path fill="none" stroke="midnightblue" d="M156.49,-123.4C170.84,-113.4 187.12,-102.05 200.67,-92.6"/>
<polygon fill="midnightblue" stroke="midnightblue" points="202.92,-95.3 209.12,-86.71 198.92,-89.56 202.92,-95.3"/>
</g>
<!-- Node5&#45;&gt;Node4 -->
<g id="edge5" class="edge">
<title>Node5&#45;&gt;Node4</title>
<path fill="none" stroke="midnightblue" d="M219.78,-56.4C213.95,-47.93 206.48,-37.1 200.31,-28.14"/>
<polygon fill="midnightblue" stroke="midnightblue" points="203.02,-25.91 194.47,-19.66 197.26,-29.88 203.02,-25.91"/>
</g>
</g>
</svg>
