<?xml version="1.0" encoding="UTF-8" standalone="no"?>
<!DOCTYPE svg PUBLIC "-//W3C//DTD SVG 1.1//EN"
 "http://www.w3.org/Graphics/SVG/1.1/DTD/svg11.dtd">
<!-- Generated by graphviz version 6.0.1 (0)
 -->
<!-- Title: flu_var_init Pages: 1 -->
<svg width="221pt" height="66pt"
 viewBox="0.00 0.00 221.00 66.00" xmlns="http://www.w3.org/2000/svg" xmlns:xlink="http://www.w3.org/1999/xlink">
<g id="graph0" class="graph" transform="scale(1 1) rotate(0) translate(4 62)">
<title>flu_var_init</title>
<polygon fill="white" stroke="none" points="-4,4 -4,-62 217,-62 217,4 -4,4"/>
<!-- Node1 -->
<g id="node1" class="node">
<title>Node1</title>
<g id="a_node1"><a xlink:title="This function count out and read in 2&#45;D data file with (line*column) data and initialize pointer to t...">
<polygon fill="#bfbfbf" stroke="black" points="0,-19.5 0,-38.5 71,-38.5 71,-19.5 0,-19.5"/>
<text text-anchor="middle" x="35.5" y="-26.5" font-family="Helvetica,sans-Serif" font-size="10.00">flu_var_init</text>
</a>
</g>
</g>
<!-- Node2 -->
<g id="node2" class="node">
<title>Node2</title>
<g id="a_node2"><a xlink:href="../../d4/de5/io__control_8c.html#a53f2536667da1fda09a509f8d59e1fcd" target="_top" xlink:title="This function counts the line and column number of the numbers are there in the initial data file.">
<polygon fill="white" stroke="black" points="107,-38.5 107,-57.5 213,-57.5 213,-38.5 107,-38.5"/>
<text text-anchor="middle" x="160" y="-45.5" font-family="Helvetica,sans-Serif" font-size="10.00">flu_var_count_line</text>
</a>
</g>
</g>
<!-- Node1&#45;&gt;Node2 -->
<g id="edge1" class="edge">
<title>Node1&#45;&gt;Node2</title>
<path fill="none" stroke="midnightblue" d="M71.28,-34.39C79.29,-35.64 88.06,-37 96.85,-38.36"/>
<polygon fill="midnightblue" stroke="midnightblue" points="96.33,-41.82 106.75,-39.9 97.4,-34.9 96.33,-41.82"/>
</g>
<!-- Node3 -->
<g id="node3" class="node">
<title>Node3</title>
<g id="a_node3"><a xlink:href="../../d4/de5/io__control_8c.html#a40ca7ad20048ff97a27a8641cf31b7cb" target="_top" xlink:title="This function reads the initial data file to generate the initial data.">
<polygon fill="white" stroke="black" points="121.5,-0.5 121.5,-19.5 198.5,-19.5 198.5,-0.5 121.5,-0.5"/>
<text text-anchor="middle" x="160" y="-7.5" font-family="Helvetica,sans-Serif" font-size="10.00">flu_var_read</text>
</a>
</g>
</g>
<!-- Node1&#45;&gt;Node3 -->
<g id="edge2" class="edge">
<title>Node1&#45;&gt;Node3</title>
<path fill="none" stroke="midnightblue" d="M71.28,-23.61C83.68,-21.68 97.87,-19.48 111.17,-17.42"/>
<polygon fill="midnightblue" stroke="midnightblue" points="111.79,-20.86 121.13,-15.87 110.71,-13.95 111.79,-20.86"/>
</g>
</g>
</svg>
