<?xml version="1.0" encoding="UTF-8" standalone="no"?>
<!DOCTYPE svg PUBLIC "-//W3C//DTD SVG 1.1//EN"
 "http://www.w3.org/Graphics/SVG/1.1/DTD/svg11.dtd">
<!-- Generated by graphviz version 5.0.0 (0)
 -->
<!-- Title: /run/media/leixin/软件盘/雷昕整理后的重要文件/程序/My&#45;CFD/HydroCODE/src/include/flux_calc.h Pages: 1 -->
<svg width="452pt" height="161pt"
 viewBox="0.00 0.00 451.50 161.00" xmlns="http://www.w3.org/2000/svg" xmlns:xlink="http://www.w3.org/1999/xlink">
<g id="graph0" class="graph" transform="scale(1 1) rotate(0) translate(4 157)">
<title>/run/media/leixin/软件盘/雷昕整理后的重要文件/程序/My&#45;CFD/HydroCODE/src/include/flux_calc.h</title>
<polygon fill="white" stroke="transparent" points="-4,4 -4,-157 447.5,-157 447.5,4 -4,4"/>
<!-- Node1 -->
<g id="node1" class="node">
<title>Node1</title>
<g id="a_node1"><a xlink:title="This file is the header file of intermediate processes of finite volume scheme.">
<polygon fill="#bfbfbf" stroke="black" points="153,-100.5 153,-152.5 311,-152.5 311,-100.5 153,-100.5"/>
<text text-anchor="start" x="161" y="-140.5" font-family="Helvetica,sans-Serif" font-size="10.00">/run/media/leixin/软件盘</text>
<text text-anchor="start" x="161" y="-129.5" font-family="Helvetica,sans-Serif" font-size="10.00">/雷昕整理后的重要文件</text>
<text text-anchor="start" x="161" y="-118.5" font-family="Helvetica,sans-Serif" font-size="10.00">/程序/My&#45;CFD/HydroCODE/src</text>
<text text-anchor="middle" x="232" y="-107.5" font-family="Helvetica,sans-Serif" font-size="10.00">/include/flux_calc.h</text>
</a>
</g>
</g>
<!-- Node2 -->
<g id="node2" class="node">
<title>Node2</title>
<g id="a_node2"><a xlink:href="../../d6/d0f/_g_r_p__solver__2_d___e_u_l__source_8c.html" target="_top" xlink:title="This is an Eulerian GRP scheme to solve 2&#45;D Euler equations without dimension splitting.">
<polygon fill="white" stroke="black" points="0,-6 0,-58 234,-58 234,-6 0,-6"/>
<text text-anchor="start" x="8" y="-46" font-family="Helvetica,sans-Serif" font-size="10.00">/run/media/leixin/软件盘</text>
<text text-anchor="start" x="8" y="-35" font-family="Helvetica,sans-Serif" font-size="10.00">/雷昕整理后的重要文件</text>
<text text-anchor="start" x="8" y="-24" font-family="Helvetica,sans-Serif" font-size="10.00">/程序/My&#45;CFD/HydroCODE/src</text>
<text text-anchor="middle" x="117" y="-13" font-family="Helvetica,sans-Serif" font-size="10.00">/finite_volume/GRP_solver_2D_EUL_source.c</text>
</a>
</g>
</g>
<!-- Node1&#45;&gt;Node2 -->
<g id="edge1" class="edge">
<title>Node1&#45;&gt;Node2</title>
<path fill="none" stroke="midnightblue" d="M192.97,-94.11C178.35,-82.35 161.96,-69.16 148.15,-58.05"/>
<polygon fill="midnightblue" stroke="midnightblue" points="190.89,-96.93 200.88,-100.47 195.28,-91.47 190.89,-96.93"/>
</g>
<!-- Node3 -->
<g id="node3" class="node">
<title>Node3</title>
<g id="a_node3"><a xlink:href="../../dc/d9e/_g_r_p__solver__2_d__split___e_u_l__source_8c.html" target="_top" xlink:title="This is an Eulerian GRP scheme to solve 2&#45;D Euler equations with dimension splitting.">
<polygon fill="white" stroke="black" points="252.5,-0.5 252.5,-63.5 443.5,-63.5 443.5,-0.5 252.5,-0.5"/>
<text text-anchor="start" x="260.5" y="-51.5" font-family="Helvetica,sans-Serif" font-size="10.00">/run/media/leixin/软件盘</text>
<text text-anchor="start" x="260.5" y="-40.5" font-family="Helvetica,sans-Serif" font-size="10.00">/雷昕整理后的重要文件</text>
<text text-anchor="start" x="260.5" y="-29.5" font-family="Helvetica,sans-Serif" font-size="10.00">/程序/My&#45;CFD/HydroCODE/src</text>
<text text-anchor="start" x="260.5" y="-18.5" font-family="Helvetica,sans-Serif" font-size="10.00">/finite_volume/GRP_solver_2D_split</text>
<text text-anchor="middle" x="348" y="-7.5" font-family="Helvetica,sans-Serif" font-size="10.00">_EUL_source.c</text>
</a>
</g>
</g>
<!-- Node1&#45;&gt;Node3 -->
<g id="edge2" class="edge">
<title>Node1&#45;&gt;Node3</title>
<path fill="none" stroke="midnightblue" d="M271.3,-94.16C283.64,-84.32 297.26,-73.46 309.55,-63.66"/>
<polygon fill="midnightblue" stroke="midnightblue" points="269.03,-91.5 263.39,-100.47 273.39,-96.97 269.03,-91.5"/>
</g>
</g>
</svg>
