<?xml version="1.0" encoding="UTF-8" standalone="no"?>
<!DOCTYPE svg PUBLIC "-//W3C//DTD SVG 1.1//EN"
 "http://www.w3.org/Graphics/SVG/1.1/DTD/svg11.dtd">
<!-- Generated by graphviz version 5.0.0 (0)
 -->
<!-- Title: /home/leixin/Programs/HydroCODE/src/tools/sys_pro.c Pages: 1 -->
<svg width="199pt" height="106pt"
 viewBox="0.00 0.00 198.50 106.00" xmlns="http://www.w3.org/2000/svg" xmlns:xlink="http://www.w3.org/1999/xlink">
<g id="graph0" class="graph" transform="scale(1 1) rotate(0) translate(4 102)">
<title>/home/leixin/Programs/HydroCODE/src/tools/sys_pro.c</title>
<polygon fill="white" stroke="transparent" points="-4,4 -4,-102 194.5,-102 194.5,4 -4,4"/>
<!-- Node1 -->
<g id="node1" class="node">
<title>Node1</title>
<g id="a_node1"><a xlink:title="There are some system processing programs.">
<polygon fill="#bfbfbf" stroke="black" points="31.5,-56.5 31.5,-97.5 158.5,-97.5 158.5,-56.5 31.5,-56.5"/>
<text text-anchor="start" x="39.5" y="-85.5" font-family="Helvetica,sans-Serif" font-size="10.00">/home/leixin/Programs</text>
<text text-anchor="start" x="39.5" y="-74.5" font-family="Helvetica,sans-Serif" font-size="10.00">/HydroCODE/src/tools</text>
<text text-anchor="middle" x="95" y="-63.5" font-family="Helvetica,sans-Serif" font-size="10.00">/sys_pro.c</text>
</a>
</g>
</g>
<!-- Node2 -->
<g id="node2" class="node">
<title>Node2</title>
<g id="a_node2"><a xlink:title=" ">
<polygon fill="white" stroke="#bfbfbf" points="0,-0.5 0,-19.5 50,-19.5 50,-0.5 0,-0.5"/>
<text text-anchor="middle" x="25" y="-7.5" font-family="Helvetica,sans-Serif" font-size="10.00">stdio.h</text>
</a>
</g>
</g>
<!-- Node1&#45;&gt;Node2 -->
<g id="edge1" class="edge">
<title>Node1&#45;&gt;Node2</title>
<path fill="none" stroke="midnightblue" d="M74,-56.5C63.68,-46.92 51.41,-35.53 41.74,-26.54"/>
<polygon fill="midnightblue" stroke="midnightblue" points="44.03,-23.89 34.32,-19.65 39.26,-29.02 44.03,-23.89"/>
</g>
<!-- Node3 -->
<g id="node3" class="node">
<title>Node3</title>
<g id="a_node3"><a xlink:title=" ">
<polygon fill="white" stroke="#bfbfbf" points="68.5,-0.5 68.5,-19.5 121.5,-19.5 121.5,-0.5 68.5,-0.5"/>
<text text-anchor="middle" x="95" y="-7.5" font-family="Helvetica,sans-Serif" font-size="10.00">string.h</text>
</a>
</g>
</g>
<!-- Node1&#45;&gt;Node3 -->
<g id="edge2" class="edge">
<title>Node1&#45;&gt;Node3</title>
<path fill="none" stroke="midnightblue" d="M95,-56.5C95,-48.07 95,-38.24 95,-29.87"/>
<polygon fill="midnightblue" stroke="midnightblue" points="98.5,-29.65 95,-19.65 91.5,-29.65 98.5,-29.65"/>
</g>
<!-- Node4 -->
<g id="node4" class="node">
<title>Node4</title>
<g id="a_node4"><a xlink:title=" ">
<polygon fill="white" stroke="#bfbfbf" points="139.5,-0.5 139.5,-19.5 190.5,-19.5 190.5,-0.5 139.5,-0.5"/>
<text text-anchor="middle" x="165" y="-7.5" font-family="Helvetica,sans-Serif" font-size="10.00">math.h</text>
</a>
</g>
</g>
<!-- Node1&#45;&gt;Node4 -->
<g id="edge3" class="edge">
<title>Node1&#45;&gt;Node4</title>
<path fill="none" stroke="midnightblue" d="M116,-56.5C126.32,-46.92 138.59,-35.53 148.26,-26.54"/>
<polygon fill="midnightblue" stroke="midnightblue" points="150.74,-29.02 155.68,-19.65 145.97,-23.89 150.74,-29.02"/>
</g>
</g>
</svg>
