<?xml version="1.0" encoding="UTF-8" standalone="no"?>
<!DOCTYPE svg PUBLIC "-//W3C//DTD SVG 1.1//EN"
 "http://www.w3.org/Graphics/SVG/1.1/DTD/svg11.dtd">
<!-- Generated by graphviz version 6.0.1 (0)
 -->
<!-- Title: flux_generator_x Pages: 1 -->
<svg width="372pt" height="78pt"
 viewBox="0.00 0.00 372.00 77.50" xmlns="http://www.w3.org/2000/svg" xmlns:xlink="http://www.w3.org/1999/xlink">
<g id="graph0" class="graph" transform="scale(1 1) rotate(0) translate(4 73.5)">
<title>flux_generator_x</title>
<polygon fill="white" stroke="none" points="-4,4 -4,-73.5 368,-73.5 368,4 -4,4"/>
<!-- Node1 -->
<g id="node1" class="node">
<title>Node1</title>
<g id="a_node1"><a xlink:title="This function calculate Eulerian fluxes of 2&#45;D Euler equations in x&#45;direction by 2&#45;D GRP solver.">
<polygon fill="#bfbfbf" stroke="black" points="265,-28 265,-47 364,-47 364,-28 265,-28"/>
<text text-anchor="middle" x="314.5" y="-35" font-family="Helvetica,sans-Serif" font-size="10.00">flux_generator_x</text>
</a>
</g>
</g>
<!-- Node2 -->
<g id="node2" class="node">
<title>Node2</title>
<g id="a_node2"><a xlink:href="../../d1/d4b/grp__solver__2_d___e_u_l__source_8c.html#a30950ea8ff93f97618fb87759c6aae04" target="_top" xlink:title="This function use GRP scheme to solve 2&#45;D Euler equations of motion on Eulerian coordinate without di...">
<polygon fill="white" stroke="black" points="77,-50 77,-69 229,-69 229,-50 77,-50"/>
<text text-anchor="middle" x="153" y="-57" font-family="Helvetica,sans-Serif" font-size="10.00">GRP_solver_2D_EUL_source</text>
</a>
</g>
</g>
<!-- Node1&#45;&gt;Node2 -->
<g id="edge1" class="edge">
<title>Node1&#45;&gt;Node2</title>
<path fill="none" stroke="midnightblue" d="M254.66,-45.62C244.35,-47.04 233.53,-48.53 222.97,-49.99"/>
<polygon fill="midnightblue" stroke="midnightblue" points="255.35,-49.05 264.78,-44.22 254.39,-42.12 255.35,-49.05"/>
</g>
<!-- Node4 -->
<g id="node4" class="node">
<title>Node4</title>
<g id="a_node4"><a xlink:href="../../df/d07/grp__solver__2_d__split___e_u_l__source_8c.html#af66dc2722921b16ef5aa77be65cfc311" target="_top" xlink:title="This function use GRP scheme to solve 2&#45;D Euler equations of motion on Eulerian coordinate with dimen...">
<polygon fill="white" stroke="black" points="94.5,-0.5 94.5,-30.5 211.5,-30.5 211.5,-0.5 94.5,-0.5"/>
<text text-anchor="start" x="102.5" y="-18.5" font-family="Helvetica,sans-Serif" font-size="10.00">GRP_solver_2D_split</text>
<text text-anchor="middle" x="153" y="-7.5" font-family="Helvetica,sans-Serif" font-size="10.00">_EUL_source</text>
</a>
</g>
</g>
<!-- Node1&#45;&gt;Node4 -->
<g id="edge3" class="edge">
<title>Node1&#45;&gt;Node4</title>
<path fill="none" stroke="midnightblue" d="M254.73,-29.39C240.68,-27.46 225.68,-25.39 211.67,-23.45"/>
<polygon fill="midnightblue" stroke="midnightblue" points="254.39,-32.88 264.78,-30.78 255.35,-25.95 254.39,-32.88"/>
</g>
<!-- Node3 -->
<g id="node3" class="node">
<title>Node3</title>
<g id="a_node3"><a xlink:href="../../d2/d24/hydrocode_8c.html#a0ddf1224851353fc92bfbff6f499fa97" target="_top" xlink:title="This is the main function which constructs the main structure of the 2&#45;D Eulerian hydrocode.">
<polygon fill="white" stroke="black" points="0,-28 0,-47 41,-47 41,-28 0,-28"/>
<text text-anchor="middle" x="20.5" y="-35" font-family="Helvetica,sans-Serif" font-size="10.00">main</text>
</a>
</g>
</g>
<!-- Node2&#45;&gt;Node3 -->
<g id="edge2" class="edge">
<title>Node2&#45;&gt;Node3</title>
<path fill="none" stroke="midnightblue" d="M85.45,-48.28C69.23,-45.55 53.12,-42.83 41.13,-40.81"/>
<polygon fill="midnightblue" stroke="midnightblue" points="85.08,-51.77 95.52,-49.98 86.24,-44.86 85.08,-51.77"/>
</g>
<!-- Node4&#45;&gt;Node3 -->
<g id="edge4" class="edge">
<title>Node4&#45;&gt;Node3</title>
<path fill="none" stroke="midnightblue" d="M84.48,-26.88C68.56,-29.57 52.82,-32.22 41.05,-34.2"/>
<polygon fill="midnightblue" stroke="midnightblue" points="85.1,-30.33 94.38,-25.21 83.94,-23.42 85.1,-30.33"/>
</g>
</g>
</svg>
