<?xml version="1.0" encoding="UTF-8" standalone="no"?>
<!DOCTYPE svg PUBLIC "-//W3C//DTD SVG 1.1//EN"
 "http://www.w3.org/Graphics/SVG/1.1/DTD/svg11.dtd">
<!-- Generated by graphviz version 6.0.1 (0)
 -->
<!-- Title: Riemann_solver_starPU Pages: 1 -->
<svg width="230pt" height="66pt"
 viewBox="0.00 0.00 230.00 66.00" xmlns="http://www.w3.org/2000/svg" xmlns:xlink="http://www.w3.org/1999/xlink">
<g id="graph0" class="graph" transform="scale(1 1) rotate(0) translate(4 62)">
<title>Riemann_solver_starPU</title>
<polygon fill="white" stroke="none" points="-4,4 -4,-62 226,-62 226,4 -4,4"/>
<!-- Node1 -->
<g id="node1" class="node">
<title>Node1</title>
<g id="a_node1"><a xlink:title="EXACT RIEMANN SOLVER FOR Two&#45;Component γ&#45;Law Gas">
<polygon fill="#bfbfbf" stroke="black" points="0,-19.5 0,-38.5 133,-38.5 133,-19.5 0,-19.5"/>
<text text-anchor="middle" x="66.5" y="-26.5" font-family="Helvetica,sans-Serif" font-size="10.00">Riemann_solver_starPU</text>
</a>
</g>
</g>
<!-- Node2 -->
<g id="node2" class="node">
<title>Node2</title>
<g id="a_node2"><a xlink:href="../../d2/d49/riemann__solver__star_p_u_8c.html#a9e810193004adbabfe0e143efb93ff04" target="_top" xlink:title="Provide a guess value for pressure PM in the Star Region.">
<polygon fill="white" stroke="black" points="169,-38.5 169,-57.5 222,-57.5 222,-38.5 169,-38.5"/>
<text text-anchor="middle" x="195.5" y="-45.5" font-family="Helvetica,sans-Serif" font-size="10.00">GuessP</text>
</a>
</g>
</g>
<!-- Node1&#45;&gt;Node2 -->
<g id="edge1" class="edge">
<title>Node1&#45;&gt;Node2</title>
<path fill="none" stroke="midnightblue" d="M131.37,-38.56C140.86,-39.97 150.33,-41.39 158.95,-42.68"/>
<polygon fill="midnightblue" stroke="midnightblue" points="158.57,-46.16 168.98,-44.18 159.6,-39.24 158.57,-46.16"/>
</g>
<!-- Node3 -->
<g id="node3" class="node">
<title>Node3</title>
<g id="a_node3"><a xlink:href="../../d2/d49/riemann__solver__star_p_u_8c.html#a751e4af4442c32ecdfb4e82e2c50dbd3" target="_top" xlink:title="Evaluate the pressure functions FL and FR in exact Riemann solver.">
<polygon fill="white" stroke="black" points="170.5,-0.5 170.5,-19.5 220.5,-19.5 220.5,-0.5 170.5,-0.5"/>
<text text-anchor="middle" x="195.5" y="-7.5" font-family="Helvetica,sans-Serif" font-size="10.00">PreFun</text>
</a>
</g>
</g>
<!-- Node1&#45;&gt;Node3 -->
<g id="edge2" class="edge">
<title>Node1&#45;&gt;Node3</title>
<path fill="none" stroke="midnightblue" d="M131.37,-19.44C141.41,-17.94 151.43,-16.44 160.43,-15.1"/>
<polygon fill="midnightblue" stroke="midnightblue" points="161.11,-18.53 170.48,-13.59 160.07,-11.61 161.11,-18.53"/>
</g>
</g>
</svg>
