<?xml version="1.0" encoding="UTF-8" standalone="no"?>
<!DOCTYPE svg PUBLIC "-//W3C//DTD SVG 1.1//EN"
 "http://www.w3.org/Graphics/SVG/1.1/DTD/svg11.dtd">
<!-- Generated by graphviz version 6.0.1 (0)
 -->
<!-- Title: src~/inter_process/fluid_var_check.c Pages: 1 -->
<svg width="264pt" height="95pt"
 viewBox="0.00 0.00 264.00 95.00" xmlns="http://www.w3.org/2000/svg" xmlns:xlink="http://www.w3.org/1999/xlink">
<g id="graph0" class="graph" transform="scale(1 1) rotate(0) translate(4 91)">
<title>src~/inter_process/fluid_var_check.c</title>
<polygon fill="white" stroke="none" points="-4,4 -4,-91 260,-91 260,4 -4,4"/>
<!-- Node1 -->
<g id="node1" class="node">
<title>Node1</title>
<g id="a_node1"><a xlink:title="There are some functions to check whether fluid variables are within the value range.">
<polygon fill="#bfbfbf" stroke="black" points="40.5,-56.5 40.5,-86.5 147.5,-86.5 147.5,-56.5 40.5,-56.5"/>
<text text-anchor="start" x="48.5" y="-74.5" font-family="Helvetica,sans-Serif" font-size="10.00">src~/inter_process</text>
<text text-anchor="middle" x="94" y="-63.5" font-family="Helvetica,sans-Serif" font-size="10.00">/fluid_var_check.c</text>
</a>
</g>
</g>
<!-- Node2 -->
<g id="node2" class="node">
<title>Node2</title>
<g id="a_node2"><a xlink:title=" ">
<polygon fill="white" stroke="#bfbfbf" points="0,-0.5 0,-19.5 50,-19.5 50,-0.5 0,-0.5"/>
<text text-anchor="middle" x="25" y="-7.5" font-family="Helvetica,sans-Serif" font-size="10.00">stdio.h</text>
</a>
</g>
</g>
<!-- Node1&#45;&gt;Node2 -->
<g id="edge1" class="edge">
<title>Node1&#45;&gt;Node2</title>
<path fill="none" stroke="midnightblue" d="M77.65,-56.4C67.1,-47.31 53.4,-35.49 42.62,-26.19"/>
<polygon fill="midnightblue" stroke="midnightblue" points="44.9,-23.54 35.04,-19.66 40.33,-28.84 44.9,-23.54"/>
</g>
<!-- Node3 -->
<g id="node3" class="node">
<title>Node3</title>
<g id="a_node3"><a xlink:title=" ">
<polygon fill="white" stroke="#bfbfbf" points="68.5,-0.5 68.5,-19.5 119.5,-19.5 119.5,-0.5 68.5,-0.5"/>
<text text-anchor="middle" x="94" y="-7.5" font-family="Helvetica,sans-Serif" font-size="10.00">math.h</text>
</a>
</g>
</g>
<!-- Node1&#45;&gt;Node3 -->
<g id="edge2" class="edge">
<title>Node1&#45;&gt;Node3</title>
<path fill="none" stroke="midnightblue" d="M94,-56.4C94,-48.47 94,-38.46 94,-29.86"/>
<polygon fill="midnightblue" stroke="midnightblue" points="97.5,-29.66 94,-19.66 90.5,-29.66 97.5,-29.66"/>
</g>
<!-- Node4 -->
<g id="node4" class="node">
<title>Node4</title>
<g id="a_node4"><a xlink:href="../../da/d1e/var__struc_8h.html" target="_top" xlink:title="This file is the header file of some globally common variables and structural bodies.">
<polygon fill="white" stroke="black" points="138,-0.5 138,-19.5 256,-19.5 256,-0.5 138,-0.5"/>
<text text-anchor="middle" x="197" y="-7.5" font-family="Helvetica,sans-Serif" font-size="10.00">../include/var_struc.h</text>
</a>
</g>
</g>
<!-- Node1&#45;&gt;Node4 -->
<g id="edge3" class="edge">
<title>Node1&#45;&gt;Node4</title>
<path fill="none" stroke="midnightblue" d="M118.41,-56.4C134.92,-46.86 156.62,-34.32 173.04,-24.84"/>
<polygon fill="midnightblue" stroke="midnightblue" points="175.1,-27.69 182.01,-19.66 171.6,-21.63 175.1,-27.69"/>
</g>
</g>
</svg>
