<?xml version="1.0" encoding="UTF-8" standalone="no"?>
<!DOCTYPE svg PUBLIC "-//W3C//DTD SVG 1.1//EN"
 "http://www.w3.org/Graphics/SVG/1.1/DTD/svg11.dtd">
<!-- Generated by graphviz version 5.0.0 (0)
 -->
<!-- Title: linear_GRP_solver_Edir_G2D Pages: 1 -->
<svg width="518pt" height="47pt"
 viewBox="0.00 0.00 518.00 47.00" xmlns="http://www.w3.org/2000/svg" xmlns:xlink="http://www.w3.org/1999/xlink">
<g id="graph0" class="graph" transform="scale(1 1) rotate(0) translate(4 43)">
<title>linear_GRP_solver_Edir_G2D</title>
<polygon fill="white" stroke="transparent" points="-4,4 -4,-43 514,-43 514,4 -4,4"/>
<!-- Node1 -->
<g id="node1" class="node">
<title>Node1</title>
<g id="a_node1"><a xlink:title="A Genuinely&#45;2D direct Eulerian GRP solver for unsteady compressible inviscid two&#45;component flow in tw...">
<polygon fill="#bfbfbf" stroke="black" points="0,-0.5 0,-19.5 155,-19.5 155,-0.5 0,-0.5"/>
<text text-anchor="middle" x="77.5" y="-7.5" font-family="Helvetica,sans-Serif" font-size="10.00">linear_GRP_solver_Edir_G2D</text>
</a>
</g>
</g>
<!-- Node2 -->
<g id="node2" class="node">
<title>Node2</title>
<g id="a_node2"><a xlink:href="../../d5/dea/linear___g_r_p__solver___edir___q1_d_8c.html#a2d9faf2079b8b005ff0154c65f8d41f2" target="_top" xlink:title="A Quasi&#45;1D direct Eulerian GRP solver for unsteady compressible inviscid two&#45;component flow in two sp...">
<polygon fill="white" stroke="black" points="191,-19.5 191,-38.5 346,-38.5 346,-19.5 191,-19.5"/>
<text text-anchor="middle" x="268.5" y="-26.5" font-family="Helvetica,sans-Serif" font-size="10.00">linear_GRP_solver_Edir_Q1D</text>
</a>
</g>
</g>
<!-- Node1&#45;&gt;Node2 -->
<g id="edge1" class="edge">
<title>Node1&#45;&gt;Node2</title>
<path fill="none" stroke="midnightblue" d="M155.1,-17.7C163.56,-18.55 172.22,-19.42 180.79,-20.28"/>
<polygon fill="midnightblue" stroke="midnightblue" points="180.49,-23.77 190.79,-21.29 181.19,-16.81 180.49,-23.77"/>
</g>
<!-- Node3 -->
<g id="node3" class="node">
<title>Node3</title>
<g id="a_node3"><a xlink:href="../../d3/d54/_riemann__solver__exact___ben_8c.html#a3ad58b11c355d45ee406da49161edbd4" target="_top" xlink:title="EXACT RIEMANN SOLVER FOR Two&#45;Component γ&#45;Law Gas">
<polygon fill="white" stroke="black" points="382,-0.5 382,-19.5 510,-19.5 510,-0.5 382,-0.5"/>
<text text-anchor="middle" x="446" y="-7.5" font-family="Helvetica,sans-Serif" font-size="10.00">Riemann_solver_exact</text>
</a>
</g>
</g>
<!-- Node1&#45;&gt;Node3 -->
<g id="edge3" class="edge">
<title>Node1&#45;&gt;Node3</title>
<path fill="none" stroke="midnightblue" d="M155.33,-10C219.06,-10 309.06,-10 371.77,-10"/>
<polygon fill="midnightblue" stroke="midnightblue" points="371.98,-13.5 381.98,-10 371.98,-6.5 371.98,-13.5"/>
</g>
<!-- Node2&#45;&gt;Node3 -->
<g id="edge2" class="edge">
<title>Node2&#45;&gt;Node3</title>
<path fill="none" stroke="midnightblue" d="M346.22,-20.69C354.68,-19.78 363.28,-18.85 371.69,-17.94"/>
<polygon fill="midnightblue" stroke="midnightblue" points="372.28,-21.39 381.85,-16.84 371.53,-14.43 372.28,-21.39"/>
</g>
</g>
</svg>
