<?xml version="1.0" encoding="UTF-8" standalone="no"?>
<!DOCTYPE svg PUBLIC "-//W3C//DTD SVG 1.1//EN"
 "http://www.w3.org/Graphics/SVG/1.1/DTD/svg11.dtd">
<!-- Generated by graphviz version 5.0.0 (0)
 -->
<!-- Title: GRP_2D_flux Pages: 1 -->
<svg width="488pt" height="78pt"
 viewBox="0.00 0.00 488.00 77.50" xmlns="http://www.w3.org/2000/svg" xmlns:xlink="http://www.w3.org/1999/xlink">
<g id="graph0" class="graph" transform="scale(1 1) rotate(0) translate(4 73.5)">
<title>GRP_2D_flux</title>
<polygon fill="white" stroke="transparent" points="-4,4 -4,-73.5 484,-73.5 484,4 -4,4"/>
<!-- Node1 -->
<g id="node1" class="node">
<title>Node1</title>
<g id="a_node1"><a xlink:title="This function calculate Eulerian fluxes of 2&#45;D Euler equations by 2&#45;D GRP solver.">
<polygon fill="#bfbfbf" stroke="black" points="400,-28 400,-47 480,-47 480,-28 400,-28"/>
<text text-anchor="middle" x="440" y="-35" font-family="Helvetica,sans-Serif" font-size="10.00">GRP_2D_flux</text>
</a>
</g>
</g>
<!-- Node2 -->
<g id="node2" class="node">
<title>Node2</title>
<g id="a_node2"><a xlink:href="../../de/d35/flux__generator__x_8c.html#a99d3c20c9f68680b85415265ecd67b60" target="_top" xlink:title="This function calculate Eulerian fluxes of 2&#45;D Euler equations in x&#45;direction by 2&#45;D GRP solver.">
<polygon fill="white" stroke="black" points="265,-47 265,-66 364,-66 364,-47 265,-47"/>
<text text-anchor="middle" x="314.5" y="-54" font-family="Helvetica,sans-Serif" font-size="10.00">flux_generator_x</text>
</a>
</g>
</g>
<!-- Node1&#45;&gt;Node2 -->
<g id="edge1" class="edge">
<title>Node1&#45;&gt;Node2</title>
<path fill="none" stroke="midnightblue" d="M389.87,-45.06C381.45,-46.35 372.72,-47.7 364.31,-48.99"/>
<polygon fill="midnightblue" stroke="midnightblue" points="390.57,-48.49 399.92,-43.51 389.51,-41.57 390.57,-48.49"/>
</g>
<!-- Node6 -->
<g id="node6" class="node">
<title>Node6</title>
<g id="a_node6"><a xlink:href="../../de/db1/flux__generator__y_8c.html#a964701ac9bd65f6b19c3c731e983d562" target="_top" xlink:title="This function calculate Eulerian fluxes of 2&#45;D Euler equations in y&#45;direction by 2&#45;D GRP solver.">
<polygon fill="white" stroke="black" points="265,-9 265,-28 364,-28 364,-9 265,-9"/>
<text text-anchor="middle" x="314.5" y="-16" font-family="Helvetica,sans-Serif" font-size="10.00">flux_generator_y</text>
</a>
</g>
</g>
<!-- Node1&#45;&gt;Node6 -->
<g id="edge6" class="edge">
<title>Node1&#45;&gt;Node6</title>
<path fill="none" stroke="midnightblue" d="M389.87,-29.94C381.45,-28.65 372.72,-27.3 364.31,-26.01"/>
<polygon fill="midnightblue" stroke="midnightblue" points="389.51,-33.43 399.92,-31.49 390.57,-26.51 389.51,-33.43"/>
</g>
<!-- Node3 -->
<g id="node3" class="node">
<title>Node3</title>
<g id="a_node3"><a xlink:href="../../d6/d0f/_g_r_p__solver__2_d___e_u_l__source_8c.html#ad2ed8a0ffbf2c3b9eb692984e9fbc6f2" target="_top" xlink:title="This function use GRP scheme to solve 2&#45;D Euler equations of motion on Eulerian coordinate without di...">
<polygon fill="white" stroke="black" points="77,-50 77,-69 229,-69 229,-50 77,-50"/>
<text text-anchor="middle" x="153" y="-57" font-family="Helvetica,sans-Serif" font-size="10.00">GRP_solver_2D_EUL_source</text>
</a>
</g>
</g>
<!-- Node2&#45;&gt;Node3 -->
<g id="edge2" class="edge">
<title>Node2&#45;&gt;Node3</title>
<path fill="none" stroke="midnightblue" d="M254.51,-57.61C246.25,-57.76 237.67,-57.93 229.16,-58.09"/>
<polygon fill="midnightblue" stroke="midnightblue" points="254.85,-61.1 264.78,-57.42 254.71,-54.11 254.85,-61.1"/>
</g>
<!-- Node5 -->
<g id="node5" class="node">
<title>Node5</title>
<g id="a_node5"><a xlink:href="../../dc/d9e/_g_r_p__solver__2_d__split___e_u_l__source_8c.html#a196c7b4e4415c20bbdfc3dd294653b66" target="_top" xlink:title="This function use GRP scheme to solve 2&#45;D Euler equations of motion on Eulerian coordinate with dimen...">
<polygon fill="white" stroke="black" points="94.5,-0.5 94.5,-30.5 211.5,-30.5 211.5,-0.5 94.5,-0.5"/>
<text text-anchor="start" x="102.5" y="-18.5" font-family="Helvetica,sans-Serif" font-size="10.00">GRP_solver_2D_split</text>
<text text-anchor="middle" x="153" y="-7.5" font-family="Helvetica,sans-Serif" font-size="10.00">_EUL_source</text>
</a>
</g>
</g>
<!-- Node2&#45;&gt;Node5 -->
<g id="edge4" class="edge">
<title>Node2&#45;&gt;Node5</title>
<path fill="none" stroke="midnightblue" d="M266.69,-44.47C249.48,-40.04 229.78,-34.98 211.72,-30.34"/>
<polygon fill="midnightblue" stroke="midnightblue" points="265.95,-47.89 276.51,-46.99 267.69,-41.11 265.95,-47.89"/>
</g>
<!-- Node4 -->
<g id="node4" class="node">
<title>Node4</title>
<g id="a_node4"><a xlink:href="../../d2/d24/hydrocode_8c.html#a0ddf1224851353fc92bfbff6f499fa97" target="_top" xlink:title="This is the main function which constructs the main structure of the Eulerian hydrocode.">
<polygon fill="white" stroke="black" points="0,-28 0,-47 41,-47 41,-28 0,-28"/>
<text text-anchor="middle" x="20.5" y="-35" font-family="Helvetica,sans-Serif" font-size="10.00">main</text>
</a>
</g>
</g>
<!-- Node3&#45;&gt;Node4 -->
<g id="edge3" class="edge">
<title>Node3&#45;&gt;Node4</title>
<path fill="none" stroke="midnightblue" d="M85.45,-48.28C69.23,-45.55 53.12,-42.83 41.13,-40.81"/>
<polygon fill="midnightblue" stroke="midnightblue" points="85.08,-51.77 95.52,-49.98 86.24,-44.86 85.08,-51.77"/>
</g>
<!-- Node5&#45;&gt;Node4 -->
<g id="edge5" class="edge">
<title>Node5&#45;&gt;Node4</title>
<path fill="none" stroke="midnightblue" d="M84.48,-26.88C68.56,-29.57 52.82,-32.22 41.05,-34.2"/>
<polygon fill="midnightblue" stroke="midnightblue" points="85.1,-30.33 94.38,-25.21 83.94,-23.42 85.1,-30.33"/>
</g>
<!-- Node6&#45;&gt;Node3 -->
<g id="edge7" class="edge">
<title>Node6&#45;&gt;Node3</title>
<path fill="none" stroke="midnightblue" d="M266.52,-30.58C242.44,-36.77 213.55,-44.19 191.07,-49.97"/>
<polygon fill="midnightblue" stroke="midnightblue" points="267.69,-33.89 276.51,-28.01 265.95,-27.11 267.69,-33.89"/>
</g>
<!-- Node6&#45;&gt;Node5 -->
<g id="edge8" class="edge">
<title>Node6&#45;&gt;Node5</title>
<path fill="none" stroke="midnightblue" d="M254.73,-17.39C240.68,-17.13 225.68,-16.85 211.67,-16.58"/>
<polygon fill="midnightblue" stroke="midnightblue" points="254.71,-20.89 264.78,-17.58 254.85,-13.9 254.71,-20.89"/>
</g>
</g>
</svg>
