<?xml version="1.0" encoding="UTF-8" standalone="no"?>
<!DOCTYPE svg PUBLIC "-//W3C//DTD SVG 1.1//EN"
 "http://www.w3.org/Graphics/SVG/1.1/DTD/svg11.dtd">
<!-- Generated by graphviz version 6.0.1 (0)
 -->
<!-- Title: src~/include/inter_process.h Pages: 1 -->
<svg width="1044pt" height="117pt"
 viewBox="0.00 0.00 1044.00 117.00" xmlns="http://www.w3.org/2000/svg" xmlns:xlink="http://www.w3.org/1999/xlink">
<g id="graph0" class="graph" transform="scale(1 1) rotate(0) translate(4 113)">
<title>src~/include/inter_process.h</title>
<polygon fill="white" stroke="none" points="-4,4 -4,-113 1040,-113 1040,4 -4,4"/>
<!-- Node1 -->
<g id="node1" class="node">
<title>Node1</title>
<g id="a_node1"><a xlink:title="This file is the header file of intermediate processes of finite volume scheme.">
<polygon fill="#bfbfbf" stroke="black" points="438,-78.5 438,-108.5 541,-108.5 541,-78.5 438,-78.5"/>
<text text-anchor="start" x="446" y="-96.5" font-family="Helvetica,sans-Serif" font-size="10.00">src~/include/inter</text>
<text text-anchor="middle" x="489.5" y="-85.5" font-family="Helvetica,sans-Serif" font-size="10.00">_process.h</text>
</a>
</g>
</g>
<!-- Node2 -->
<g id="node2" class="node">
<title>Node2</title>
<g id="a_node2"><a xlink:href="../../d1/d4b/grp__solver__2_d___e_u_l__source_8c.html" target="_top" xlink:title="This is an Eulerian GRP scheme to solve 2&#45;D Euler equations without dimension splitting.">
<polygon fill="white" stroke="black" points="0,-6 0,-36 159,-36 159,-6 0,-6"/>
<text text-anchor="start" x="8" y="-24" font-family="Helvetica,sans-Serif" font-size="10.00">src~/finite_volume</text>
<text text-anchor="middle" x="79.5" y="-13" font-family="Helvetica,sans-Serif" font-size="10.00">/grp_solver_2D_EUL_source.c</text>
</a>
</g>
</g>
<!-- Node1&#45;&gt;Node2 -->
<g id="edge1" class="edge">
<title>Node1&#45;&gt;Node2</title>
<path fill="none" stroke="midnightblue" d="M427.65,-84.07C362.66,-74.92 257.57,-59.28 167.5,-42 158.11,-40.2 148.2,-38.12 138.55,-36"/>
<polygon fill="midnightblue" stroke="midnightblue" points="427.34,-87.56 437.73,-85.48 428.31,-80.63 427.34,-87.56"/>
</g>
<!-- Node3 -->
<g id="node3" class="node">
<title>Node3</title>
<g id="a_node3"><a xlink:href="../../df/d07/grp__solver__2_d__split___e_u_l__source_8c.html" target="_top" xlink:title="This is an Eulerian GRP scheme to solve 2&#45;D Euler equations with dimension splitting.">
<polygon fill="white" stroke="black" points="176.5,-0.5 176.5,-41.5 292.5,-41.5 292.5,-0.5 176.5,-0.5"/>
<text text-anchor="start" x="184.5" y="-29.5" font-family="Helvetica,sans-Serif" font-size="10.00">src~/finite_volume</text>
<text text-anchor="start" x="184.5" y="-18.5" font-family="Helvetica,sans-Serif" font-size="10.00">/grp_solver_2D_split</text>
<text text-anchor="middle" x="234.5" y="-7.5" font-family="Helvetica,sans-Serif" font-size="10.00">_EUL_source.c</text>
</a>
</g>
</g>
<!-- Node1&#45;&gt;Node3 -->
<g id="edge2" class="edge">
<title>Node1&#45;&gt;Node3</title>
<path fill="none" stroke="midnightblue" d="M427.86,-76.4C391.1,-66.69 343.55,-53.92 301.5,-42 298.58,-41.17 295.59,-40.32 292.58,-39.44"/>
<polygon fill="midnightblue" stroke="midnightblue" points="427.37,-79.89 437.93,-79.06 429.15,-73.12 427.37,-79.89"/>
</g>
<!-- Node4 -->
<g id="node4" class="node">
<title>Node4</title>
<g id="a_node4"><a xlink:href="../../de/d35/flux__generator__x_8c.html" target="_top" xlink:title="This file is a function which generates Eulerian fluxes in x&#45;direction of 2&#45;D Euler equations solved ...">
<polygon fill="white" stroke="black" points="311,-6 311,-36 418,-36 418,-6 311,-6"/>
<text text-anchor="start" x="319" y="-24" font-family="Helvetica,sans-Serif" font-size="10.00">src~/flux_calc/flux</text>
<text text-anchor="middle" x="364.5" y="-13" font-family="Helvetica,sans-Serif" font-size="10.00">_generator_x.c</text>
</a>
</g>
</g>
<!-- Node1&#45;&gt;Node4 -->
<g id="edge3" class="edge">
<title>Node1&#45;&gt;Node4</title>
<path fill="none" stroke="midnightblue" d="M455.63,-73.4C434.75,-61.62 408.43,-46.78 389.45,-36.07"/>
<polygon fill="midnightblue" stroke="midnightblue" points="454.08,-76.54 464.5,-78.4 457.51,-70.44 454.08,-76.54"/>
</g>
<!-- Node5 -->
<g id="node5" class="node">
<title>Node5</title>
<g id="a_node5"><a xlink:href="../../de/db1/flux__generator__y_8c.html" target="_top" xlink:title="This file is a function which generates Eulerian fluxes in y&#45;direction of 2&#45;D Euler equations solved ...">
<polygon fill="white" stroke="black" points="436,-6 436,-36 543,-36 543,-6 436,-6"/>
<text text-anchor="start" x="444" y="-24" font-family="Helvetica,sans-Serif" font-size="10.00">src~/flux_calc/flux</text>
<text text-anchor="middle" x="489.5" y="-13" font-family="Helvetica,sans-Serif" font-size="10.00">_generator_y.c</text>
</a>
</g>
</g>
<!-- Node1&#45;&gt;Node5 -->
<g id="edge4" class="edge">
<title>Node1&#45;&gt;Node5</title>
<path fill="none" stroke="midnightblue" d="M489.5,-68.23C489.5,-57.57 489.5,-45.41 489.5,-36.25"/>
<polygon fill="midnightblue" stroke="midnightblue" points="486,-68.23 489.5,-78.23 493,-68.23 486,-68.23"/>
</g>
<!-- Node6 -->
<g id="node6" class="node">
<title>Node6</title>
<g id="a_node6"><a xlink:href="../../d5/d55/flux__solver_8c.html" target="_top" xlink:title="This file is a set of functions to calculate interfacial fluxes and demanded variables according to t...">
<polygon fill="white" stroke="black" points="561,-6 561,-36 668,-36 668,-6 561,-6"/>
<text text-anchor="start" x="569" y="-24" font-family="Helvetica,sans-Serif" font-size="10.00">src~/flux_calc/flux</text>
<text text-anchor="middle" x="614.5" y="-13" font-family="Helvetica,sans-Serif" font-size="10.00">_solver.c</text>
</a>
</g>
</g>
<!-- Node1&#45;&gt;Node6 -->
<g id="edge5" class="edge">
<title>Node1&#45;&gt;Node6</title>
<path fill="none" stroke="midnightblue" d="M523.37,-73.4C544.25,-61.62 570.57,-46.78 589.55,-36.07"/>
<polygon fill="midnightblue" stroke="midnightblue" points="521.49,-70.44 514.5,-78.4 524.92,-76.54 521.49,-70.44"/>
</g>
<!-- Node7 -->
<g id="node7" class="node">
<title>Node7</title>
<g id="a_node7"><a xlink:href="../../d8/d49/bound__cond__slope__limiter__x_8c.html" target="_top" xlink:title="This is a function to set boundary conditions and use the slope limiter in x&#45;direction of two dimensi...">
<polygon fill="white" stroke="black" points="686,-6 686,-36 853,-36 853,-6 686,-6"/>
<text text-anchor="start" x="694" y="-24" font-family="Helvetica,sans-Serif" font-size="10.00">src~/inter_process</text>
<text text-anchor="middle" x="769.5" y="-13" font-family="Helvetica,sans-Serif" font-size="10.00">/bound_cond_slope_limiter_x.c</text>
</a>
</g>
</g>
<!-- Node1&#45;&gt;Node7 -->
<g id="edge6" class="edge">
<title>Node1&#45;&gt;Node7</title>
<path fill="none" stroke="midnightblue" d="M550.95,-77.03C599.53,-64.8 666.77,-47.86 713.8,-36.02"/>
<polygon fill="midnightblue" stroke="midnightblue" points="550.03,-73.65 541.18,-79.49 551.73,-80.44 550.03,-73.65"/>
</g>
<!-- Node8 -->
<g id="node8" class="node">
<title>Node8</title>
<g id="a_node8"><a xlink:href="../../d8/dbb/bound__cond__slope__limiter__y_8c.html" target="_top" xlink:title="This is a function to set boundary conditions and use the slope limiter in y&#45;direction of two dimensi...">
<polygon fill="white" stroke="black" points="871,-6 871,-36 1036,-36 1036,-6 871,-6"/>
<text text-anchor="start" x="879" y="-24" font-family="Helvetica,sans-Serif" font-size="10.00">src~/inter_process</text>
<text text-anchor="middle" x="953.5" y="-13" font-family="Helvetica,sans-Serif" font-size="10.00">/bound_cond_slope_limiter_y.c</text>
</a>
</g>
</g>
<!-- Node1&#45;&gt;Node8 -->
<g id="edge7" class="edge">
<title>Node1&#45;&gt;Node8</title>
<path fill="none" stroke="midnightblue" d="M551.4,-85.69C625.6,-77.16 753.57,-61.31 862.5,-42 872.37,-40.25 882.8,-38.17 892.94,-36.03"/>
<polygon fill="midnightblue" stroke="midnightblue" points="550.83,-82.23 541.3,-86.84 551.63,-89.19 550.83,-82.23"/>
</g>
</g>
</svg>
