<?xml version="1.0" encoding="UTF-8" standalone="no"?>
<!DOCTYPE svg PUBLIC "-//W3C//DTD SVG 1.1//EN"
 "http://www.w3.org/Graphics/SVG/1.1/DTD/svg11.dtd">
<!-- Generated by graphviz version 5.0.0 (0)
 -->
<!-- Title: _1D_file_write Pages: 1 -->
<svg width="306pt" height="66pt"
 viewBox="0.00 0.00 306.00 66.00" xmlns="http://www.w3.org/2000/svg" xmlns:xlink="http://www.w3.org/1999/xlink">
<g id="graph0" class="graph" transform="scale(1 1) rotate(0) translate(4 62)">
<title>_1D_file_write</title>
<polygon fill="white" stroke="transparent" points="-4,4 -4,-62 302,-62 302,4 -4,4"/>
<!-- Node1 -->
<g id="node1" class="node">
<title>Node1</title>
<g id="a_node1"><a xlink:title="This function write the 1&#45;D solution into output .dat files.">
<polygon fill="#bfbfbf" stroke="black" points="0,-19.5 0,-38.5 86,-38.5 86,-19.5 0,-19.5"/>
<text text-anchor="middle" x="43" y="-26.5" font-family="Helvetica,sans-Serif" font-size="10.00">_1D_file_write</text>
</a>
</g>
</g>
<!-- Node2 -->
<g id="node2" class="node">
<title>Node2</title>
<g id="a_node2"><a xlink:href="../../d2/de0/config__handle_8c.html#a639a61ad0229b057258f8bc6edc4d050" target="_top" xlink:title=" ">
<polygon fill="white" stroke="black" points="122,-38.5 122,-57.5 199,-57.5 199,-38.5 122,-38.5"/>
<text text-anchor="middle" x="160.5" y="-45.5" font-family="Helvetica,sans-Serif" font-size="10.00">config_write</text>
</a>
</g>
</g>
<!-- Node1&#45;&gt;Node2 -->
<g id="edge1" class="edge">
<title>Node1&#45;&gt;Node2</title>
<path fill="none" stroke="midnightblue" d="M86.02,-35.91C94.46,-37.3 103.38,-38.77 111.99,-40.19"/>
<polygon fill="midnightblue" stroke="midnightblue" points="111.47,-43.65 121.91,-41.82 112.61,-36.74 111.47,-43.65"/>
</g>
<!-- Node3 -->
<g id="node3" class="node">
<title>Node3</title>
<g id="a_node3"><a xlink:href="../../d4/de5/io__control_8c.html#a7e039d23ca87a439fbe9c9d336447887" target="_top" xlink:title="This function produces folder path for data input or output.">
<polygon fill="white" stroke="black" points="123.5,-0.5 123.5,-19.5 197.5,-19.5 197.5,-0.5 123.5,-0.5"/>
<text text-anchor="middle" x="160.5" y="-7.5" font-family="Helvetica,sans-Serif" font-size="10.00">example_io</text>
</a>
</g>
</g>
<!-- Node1&#45;&gt;Node3 -->
<g id="edge2" class="edge">
<title>Node1&#45;&gt;Node3</title>
<path fill="none" stroke="midnightblue" d="M86.02,-22.09C94.93,-20.62 104.37,-19.07 113.42,-17.58"/>
<polygon fill="midnightblue" stroke="midnightblue" points="114.11,-21.01 123.41,-15.94 112.98,-14.11 114.11,-21.01"/>
</g>
<!-- Node4 -->
<g id="node4" class="node">
<title>Node4</title>
<g id="a_node4"><a xlink:href="../../d4/ddd/sys__pro_8c.html#a40a5faeb19b1fd9aec2c5c10a87faeb4" target="_top" xlink:title="This is a function that recursively creates folders.">
<polygon fill="white" stroke="black" points="235,-0.5 235,-19.5 298,-19.5 298,-0.5 235,-0.5"/>
<text text-anchor="middle" x="266.5" y="-7.5" font-family="Helvetica,sans-Serif" font-size="10.00">CreateDir</text>
</a>
</g>
</g>
<!-- Node3&#45;&gt;Node4 -->
<g id="edge3" class="edge">
<title>Node3&#45;&gt;Node4</title>
<path fill="none" stroke="midnightblue" d="M197.58,-10C206.27,-10 215.61,-10 224.5,-10"/>
<polygon fill="midnightblue" stroke="midnightblue" points="224.67,-13.5 234.67,-10 224.67,-6.5 224.67,-13.5"/>
</g>
</g>
</svg>
