<?xml version="1.0" encoding="UTF-8" standalone="no"?>
<!DOCTYPE svg PUBLIC "-//W3C//DTD SVG 1.1//EN"
 "http://www.w3.org/Graphics/SVG/1.1/DTD/svg11.dtd">
<!-- Generated by graphviz version 6.0.1 (0)
 -->
<!-- Title: src~/inter_process/bound_cond_slope_limiter.c Pages: 1 -->
<svg width="406pt" height="151pt"
 viewBox="0.00 0.00 406.00 151.00" xmlns="http://www.w3.org/2000/svg" xmlns:xlink="http://www.w3.org/1999/xlink">
<g id="graph0" class="graph" transform="scale(1 1) rotate(0) translate(4 147)">
<title>src~/inter_process/bound_cond_slope_limiter.c</title>
<polygon fill="white" stroke="none" points="-4,4 -4,-147 402,-147 402,4 -4,4"/>
<!-- Node1 -->
<g id="node1" class="node">
<title>Node1</title>
<g id="a_node1"><a xlink:title="This is a function to set boundary conditions and use the slope limiter in one dimension.">
<polygon fill="#bfbfbf" stroke="black" points="98.5,-112.5 98.5,-142.5 253.5,-142.5 253.5,-112.5 98.5,-112.5"/>
<text text-anchor="start" x="106.5" y="-130.5" font-family="Helvetica,sans-Serif" font-size="10.00">src~/inter_process</text>
<text text-anchor="middle" x="176" y="-119.5" font-family="Helvetica,sans-Serif" font-size="10.00">/bound_cond_slope_limiter.c</text>
</a>
</g>
</g>
<!-- Node2 -->
<g id="node2" class="node">
<title>Node2</title>
<g id="a_node2"><a xlink:title=" ">
<polygon fill="white" stroke="#bfbfbf" points="0,-56.5 0,-75.5 50,-75.5 50,-56.5 0,-56.5"/>
<text text-anchor="middle" x="25" y="-63.5" font-family="Helvetica,sans-Serif" font-size="10.00">stdio.h</text>
</a>
</g>
</g>
<!-- Node1&#45;&gt;Node2 -->
<g id="edge1" class="edge">
<title>Node1&#45;&gt;Node2</title>
<path fill="none" stroke="midnightblue" d="M140.22,-112.4C114.77,-102.37 80.9,-89.03 56.48,-79.4"/>
<polygon fill="midnightblue" stroke="midnightblue" points="57.56,-76.07 46.97,-75.66 54.99,-82.58 57.56,-76.07"/>
</g>
<!-- Node3 -->
<g id="node3" class="node">
<title>Node3</title>
<g id="a_node3"><a xlink:title=" ">
<polygon fill="white" stroke="#bfbfbf" points="68,-56.5 68,-75.5 130,-75.5 130,-56.5 68,-56.5"/>
<text text-anchor="middle" x="99" y="-63.5" font-family="Helvetica,sans-Serif" font-size="10.00">stdbool.h</text>
</a>
</g>
</g>
<!-- Node1&#45;&gt;Node3 -->
<g id="edge2" class="edge">
<title>Node1&#45;&gt;Node3</title>
<path fill="none" stroke="midnightblue" d="M157.75,-112.4C145.87,-103.22 130.39,-91.26 118.31,-81.92"/>
<polygon fill="midnightblue" stroke="midnightblue" points="120.26,-79 110.2,-75.66 115.98,-84.54 120.26,-79"/>
</g>
<!-- Node4 -->
<g id="node4" class="node">
<title>Node4</title>
<g id="a_node4"><a xlink:title=" ">
<polygon fill="white" stroke="#bfbfbf" points="148,-56.5 148,-75.5 204,-75.5 204,-56.5 148,-56.5"/>
<text text-anchor="middle" x="176" y="-63.5" font-family="Helvetica,sans-Serif" font-size="10.00">stdarg.h</text>
</a>
</g>
</g>
<!-- Node1&#45;&gt;Node4 -->
<g id="edge3" class="edge">
<title>Node1&#45;&gt;Node4</title>
<path fill="none" stroke="midnightblue" d="M176,-112.4C176,-104.47 176,-94.46 176,-85.86"/>
<polygon fill="midnightblue" stroke="midnightblue" points="179.5,-85.66 176,-75.66 172.5,-85.66 179.5,-85.66"/>
</g>
<!-- Node5 -->
<g id="node5" class="node">
<title>Node5</title>
<g id="a_node5"><a xlink:href="../../da/d1e/var__struc_8h.html" target="_top" xlink:title="This file is the header file of some globally common variables and structural bodies.">
<polygon fill="white" stroke="black" points="221,-0.5 221,-19.5 339,-19.5 339,-0.5 221,-0.5"/>
<text text-anchor="middle" x="280" y="-7.5" font-family="Helvetica,sans-Serif" font-size="10.00">../include/var_struc.h</text>
</a>
</g>
</g>
<!-- Node1&#45;&gt;Node5 -->
<g id="edge4" class="edge">
<title>Node1&#45;&gt;Node5</title>
<path fill="none" stroke="midnightblue" d="M188.75,-112.34C208.17,-90.77 245.05,-49.81 265.48,-27.13"/>
<polygon fill="midnightblue" stroke="midnightblue" points="268.1,-29.44 272.19,-19.67 262.9,-24.76 268.1,-29.44"/>
</g>
<!-- Node6 -->
<g id="node6" class="node">
<title>Node6</title>
<g id="a_node6"><a xlink:href="../../d6/d6f/inter__process_8h.html" target="_top" xlink:title="This file is the header file of intermediate processes of finite volume scheme.">
<polygon fill="white" stroke="black" points="260,-56.5 260,-75.5 398,-75.5 398,-56.5 260,-56.5"/>
<text text-anchor="middle" x="329" y="-63.5" font-family="Helvetica,sans-Serif" font-size="10.00">../include/inter_process.h</text>
</a>
</g>
</g>
<!-- Node1&#45;&gt;Node6 -->
<g id="edge5" class="edge">
<title>Node1&#45;&gt;Node6</title>
<path fill="none" stroke="midnightblue" d="M212.26,-112.4C238.04,-102.37 272.36,-89.03 297.1,-79.4"/>
<polygon fill="midnightblue" stroke="midnightblue" points="298.69,-82.54 306.74,-75.66 296.15,-76.02 298.69,-82.54"/>
</g>
<!-- Node6&#45;&gt;Node5 -->
<g id="edge6" class="edge">
<title>Node6&#45;&gt;Node5</title>
<path fill="none" stroke="midnightblue" d="M320.91,-56.08C313.84,-48.3 303.41,-36.8 294.85,-27.37"/>
<polygon fill="midnightblue" stroke="midnightblue" points="297.25,-24.8 287.94,-19.75 292.07,-29.51 297.25,-24.8"/>
</g>
</g>
</svg>
