<?xml version="1.0" encoding="UTF-8" standalone="no"?>
<!DOCTYPE svg PUBLIC "-//W3C//DTD SVG 1.1//EN"
 "http://www.w3.org/Graphics/SVG/1.1/DTD/svg11.dtd">
<!-- Generated by graphviz version 6.0.1 (0)
 -->
<!-- Title: src~/include/var_struc.h Pages: 1 -->
<svg width="2167pt" height="173pt"
 viewBox="0.00 0.00 2167.00 173.00" xmlns="http://www.w3.org/2000/svg" xmlns:xlink="http://www.w3.org/1999/xlink">
<g id="graph0" class="graph" transform="scale(1 1) rotate(0) translate(4 169)">
<title>src~/include/var_struc.h</title>
<polygon fill="white" stroke="none" points="-4,4 -4,-169 2163,-169 2163,4 -4,4"/>
<!-- Node1 -->
<g id="node1" class="node">
<title>Node1</title>
<g id="a_node1"><a xlink:title="This file is the header file of some globally common variables and structural bodies.">
<polygon fill="#bfbfbf" stroke="black" points="1068.5,-145.5 1068.5,-164.5 1202.5,-164.5 1202.5,-145.5 1068.5,-145.5"/>
<text text-anchor="middle" x="1135.5" y="-152.5" font-family="Helvetica,sans-Serif" font-size="10.00">src~/include/var_struc.h</text>
</a>
</g>
</g>
<!-- Node2 -->
<g id="node2" class="node">
<title>Node2</title>
<g id="a_node2"><a xlink:href="../../d2/de0/config__handle_8c.html" target="_top" xlink:title="This is a set of functions which control the read&#45;in of configuration data.">
<polygon fill="white" stroke="black" points="0,-78.5 0,-108.5 105,-108.5 105,-78.5 0,-78.5"/>
<text text-anchor="start" x="8" y="-96.5" font-family="Helvetica,sans-Serif" font-size="10.00">src~/file_io/config</text>
<text text-anchor="middle" x="52.5" y="-85.5" font-family="Helvetica,sans-Serif" font-size="10.00">_handle.c</text>
</a>
</g>
</g>
<!-- Node1&#45;&gt;Node2 -->
<g id="edge1" class="edge">
<title>Node1&#45;&gt;Node2</title>
<path fill="none" stroke="midnightblue" d="M1058.35,-152.46C853.04,-148.05 296.64,-134.09 114.5,-109 111.43,-108.58 108.3,-108.07 105.14,-107.51"/>
<polygon fill="midnightblue" stroke="midnightblue" points="1058.37,-155.96 1068.44,-152.67 1058.52,-148.96 1058.37,-155.96"/>
</g>
<!-- Node3 -->
<g id="node3" class="node">
<title>Node3</title>
<g id="a_node3"><a xlink:href="../../d9/d89/file__1_d__in_8c.html" target="_top" xlink:title="This is a set of functions which control the read&#45;in of one&#45;dimensional data.">
<polygon fill="white" stroke="black" points="123.5,-84 123.5,-103 255.5,-103 255.5,-84 123.5,-84"/>
<text text-anchor="middle" x="189.5" y="-91" font-family="Helvetica,sans-Serif" font-size="10.00">src~/file_io/file_1D_in.c</text>
</a>
</g>
</g>
<!-- Node1&#45;&gt;Node3 -->
<g id="edge2" class="edge">
<title>Node1&#45;&gt;Node3</title>
<path fill="none" stroke="midnightblue" d="M1058.1,-153.61C905.65,-152.05 555.97,-144.53 264.5,-109 252.65,-107.56 239.86,-105.33 228.26,-103.06"/>
<polygon fill="midnightblue" stroke="midnightblue" points="1058.26,-157.11 1068.29,-153.71 1058.33,-150.11 1058.26,-157.11"/>
</g>
<!-- Node4 -->
<g id="node4" class="node">
<title>Node4</title>
<g id="a_node4"><a xlink:href="../../df/d38/file__1_d__out_8c.html" target="_top" xlink:title="This is a set of functions which control the readout of one&#45;dimensional data.">
<polygon fill="white" stroke="black" points="273.5,-78.5 273.5,-108.5 383.5,-108.5 383.5,-78.5 273.5,-78.5"/>
<text text-anchor="start" x="281.5" y="-96.5" font-family="Helvetica,sans-Serif" font-size="10.00">src~/file_io/file_1D</text>
<text text-anchor="middle" x="328.5" y="-85.5" font-family="Helvetica,sans-Serif" font-size="10.00">_out.c</text>
</a>
</g>
</g>
<!-- Node1&#45;&gt;Node4 -->
<g id="edge3" class="edge">
<title>Node1&#45;&gt;Node4</title>
<path fill="none" stroke="midnightblue" d="M1058,-153.44C922.41,-151.53 633.61,-143.38 392.5,-109 389.57,-108.58 386.57,-108.1 383.55,-107.57"/>
<polygon fill="midnightblue" stroke="midnightblue" points="1058.23,-156.94 1068.28,-153.57 1058.33,-149.94 1058.23,-156.94"/>
</g>
<!-- Node5 -->
<g id="node5" class="node">
<title>Node5</title>
<g id="a_node5"><a xlink:href="../../d4/d39/file__out__hdf5_8c.html" target="_top" xlink:title="This is a set of functions which control the readout of 1&#45;D and 2&#45;D data in HDF5 file format.">
<polygon fill="white" stroke="black" points="401.5,-78.5 401.5,-108.5 513.5,-108.5 513.5,-78.5 401.5,-78.5"/>
<text text-anchor="start" x="409.5" y="-96.5" font-family="Helvetica,sans-Serif" font-size="10.00">src~/file_io/file_out</text>
<text text-anchor="middle" x="457.5" y="-85.5" font-family="Helvetica,sans-Serif" font-size="10.00">_hdf5.c</text>
</a>
</g>
</g>
<!-- Node1&#45;&gt;Node5 -->
<g id="edge4" class="edge">
<title>Node1&#45;&gt;Node5</title>
<path fill="none" stroke="midnightblue" d="M1058.23,-151.95C941.6,-148.04 713.87,-137.22 522.5,-109 519.64,-108.58 516.72,-108.1 513.78,-107.58"/>
<polygon fill="midnightblue" stroke="midnightblue" points="1058.37,-155.45 1068.48,-152.28 1058.6,-148.46 1058.37,-155.45"/>
</g>
<!-- Node6 -->
<g id="node6" class="node">
<title>Node6</title>
<g id="a_node6"><a xlink:href="../../d1/df9/file__radial__out_8c.html" target="_top" xlink:title="This is a set of functions which control the readout of radially symmetric multi&#45;dimensional data.">
<polygon fill="white" stroke="black" points="531.5,-78.5 531.5,-108.5 655.5,-108.5 655.5,-78.5 531.5,-78.5"/>
<text text-anchor="start" x="539.5" y="-96.5" font-family="Helvetica,sans-Serif" font-size="10.00">src~/file_io/file_radial</text>
<text text-anchor="middle" x="593.5" y="-85.5" font-family="Helvetica,sans-Serif" font-size="10.00">_out.c</text>
</a>
</g>
</g>
<!-- Node1&#45;&gt;Node6 -->
<g id="edge5" class="edge">
<title>Node1&#45;&gt;Node6</title>
<path fill="none" stroke="midnightblue" d="M1057.91,-149.12C964.31,-142.66 802.32,-129.6 664.5,-109 661.64,-108.57 658.72,-108.1 655.77,-107.61"/>
<polygon fill="midnightblue" stroke="midnightblue" points="1057.93,-152.63 1068.15,-149.82 1058.41,-145.65 1057.93,-152.63"/>
</g>
<!-- Node7 -->
<g id="node7" class="node">
<title>Node7</title>
<g id="a_node7"><a xlink:href="../../d4/de5/io__control_8c.html" target="_top" xlink:title="This is a set of common functions which control the input/output data.">
<polygon fill="white" stroke="black" points="674,-84 674,-103 805,-103 805,-84 674,-84"/>
<text text-anchor="middle" x="739.5" y="-91" font-family="Helvetica,sans-Serif" font-size="10.00">src~/file_io/io_control.c</text>
</a>
</g>
</g>
<!-- Node1&#45;&gt;Node7 -->
<g id="edge6" class="edge">
<title>Node1&#45;&gt;Node7</title>
<path fill="none" stroke="midnightblue" d="M1058.21,-144.4C992.87,-136 896.86,-122.98 813.5,-109 802.91,-107.22 791.52,-105.1 780.91,-103.03"/>
<polygon fill="midnightblue" stroke="midnightblue" points="1058.06,-147.91 1068.42,-145.71 1058.95,-140.97 1058.06,-147.91"/>
</g>
<!-- Node8 -->
<g id="node8" class="node">
<title>Node8</title>
<g id="a_node8"><a xlink:href="../../d0/d49/terminal__io_8c.html" target="_top" xlink:title="This is a set of common functions for terminal input and output.">
<polygon fill="white" stroke="black" points="823,-84 823,-103 962,-103 962,-84 823,-84"/>
<text text-anchor="middle" x="892.5" y="-91" font-family="Helvetica,sans-Serif" font-size="10.00">src~/file_io/terminal_io.c</text>
</a>
</g>
</g>
<!-- Node1&#45;&gt;Node8 -->
<g id="edge7" class="edge">
<title>Node1&#45;&gt;Node8</title>
<path fill="none" stroke="midnightblue" d="M1090.74,-143.04C1043.57,-131.49 970.26,-113.54 927.25,-103.01"/>
<polygon fill="midnightblue" stroke="midnightblue" points="1090.14,-146.5 1100.68,-145.48 1091.8,-139.7 1090.14,-146.5"/>
</g>
<!-- Node9 -->
<g id="node9" class="node">
<title>Node9</title>
<g id="a_node9"><a xlink:href="../../d5/d63/grp__solver__radial___l_a_g__source_8c.html" target="_top" xlink:title="This is a Lagrangian GRP scheme to solve radial(cylindrically) symmetric compressible fluid flows.">
<polygon fill="white" stroke="black" points="1006,-0.5 1006,-41.5 1135,-41.5 1135,-0.5 1006,-0.5"/>
<text text-anchor="start" x="1014" y="-29.5" font-family="Helvetica,sans-Serif" font-size="10.00">src~/finite_volume</text>
<text text-anchor="start" x="1014" y="-18.5" font-family="Helvetica,sans-Serif" font-size="10.00">/grp_solver_radial_LAG</text>
<text text-anchor="middle" x="1070.5" y="-7.5" font-family="Helvetica,sans-Serif" font-size="10.00">_source.c</text>
</a>
</g>
</g>
<!-- Node1&#45;&gt;Node9 -->
<g id="edge8" class="edge">
<title>Node1&#45;&gt;Node9</title>
<path fill="none" stroke="midnightblue" d="M1058.65,-142.72C1039.53,-136.07 1021.18,-125.57 1009.5,-109 993.24,-85.93 1018.21,-59.36 1040.93,-41.71"/>
<polygon fill="midnightblue" stroke="midnightblue" points="1057.8,-146.11 1068.39,-145.76 1059.89,-139.43 1057.8,-146.11"/>
</g>
<!-- Node10 -->
<g id="node10" class="node">
<title>Node10</title>
<g id="a_node10"><a xlink:href="../../d2/d24/hydrocode_8c.html" target="_top" xlink:title="This is a C file of the main function.">
<polygon fill="white" stroke="black" points="1336,-6 1336,-36 1465,-36 1465,-6 1336,-6"/>
<text text-anchor="start" x="1344" y="-24" font-family="Helvetica,sans-Serif" font-size="10.00">src~/hydrocode_Radial</text>
<text text-anchor="middle" x="1400.5" y="-13" font-family="Helvetica,sans-Serif" font-size="10.00">_Lag/hydrocode.c</text>
</a>
</g>
</g>
<!-- Node1&#45;&gt;Node10 -->
<g id="edge9" class="edge">
<title>Node1&#45;&gt;Node10</title>
<path fill="none" stroke="midnightblue" d="M1189.54,-143.13C1219.44,-135.87 1256.67,-124.74 1287.5,-109 1326.53,-89.08 1365.61,-55.11 1386.01,-36.05"/>
<polygon fill="midnightblue" stroke="midnightblue" points="1188.64,-139.75 1179.71,-145.44 1190.24,-146.56 1188.64,-139.75"/>
</g>
<!-- Node11 -->
<g id="node11" class="node">
<title>Node11</title>
<g id="a_node11"><a xlink:href="../../d8/da8/finite__volume_8h.html" target="_top" xlink:title="This file is the header file of Lagrangian/Eulerian hydrocode in finite volume framework.">
<polygon fill="white" stroke="black" points="1355.5,-78.5 1355.5,-108.5 1461.5,-108.5 1461.5,-78.5 1355.5,-78.5"/>
<text text-anchor="start" x="1363.5" y="-96.5" font-family="Helvetica,sans-Serif" font-size="10.00">src~/include/finite</text>
<text text-anchor="middle" x="1408.5" y="-85.5" font-family="Helvetica,sans-Serif" font-size="10.00">_volume.h</text>
</a>
</g>
</g>
<!-- Node1&#45;&gt;Node11 -->
<g id="edge10" class="edge">
<title>Node1&#45;&gt;Node11</title>
<path fill="none" stroke="midnightblue" d="M1184.49,-143.32C1232.63,-132.83 1305.88,-116.87 1355.39,-106.07"/>
<polygon fill="midnightblue" stroke="midnightblue" points="1183.64,-139.93 1174.61,-145.48 1185.13,-146.77 1183.64,-139.93"/>
</g>
<!-- Node12 -->
<g id="node12" class="node">
<title>Node12</title>
<g id="a_node12"><a xlink:href="../../d6/d6f/inter__process_8h.html" target="_top" xlink:title="This file is the header file of intermediate processes of finite volume scheme.">
<polygon fill="white" stroke="black" points="1019,-78.5 1019,-108.5 1122,-108.5 1122,-78.5 1019,-78.5"/>
<text text-anchor="start" x="1027" y="-96.5" font-family="Helvetica,sans-Serif" font-size="10.00">src~/include/inter</text>
<text text-anchor="middle" x="1070.5" y="-85.5" font-family="Helvetica,sans-Serif" font-size="10.00">_process.h</text>
</a>
</g>
</g>
<!-- Node1&#45;&gt;Node12 -->
<g id="edge12" class="edge">
<title>Node1&#45;&gt;Node12</title>
<path fill="none" stroke="midnightblue" d="M1118.73,-138.65C1108.57,-129.35 1095.7,-117.57 1085.82,-108.52"/>
<polygon fill="midnightblue" stroke="midnightblue" points="1116.45,-141.3 1126.19,-145.48 1121.17,-136.14 1116.45,-141.3"/>
</g>
<!-- Node13 -->
<g id="node13" class="node">
<title>Node13</title>
<g id="a_node13"><a xlink:href="../../df/ded/riemann__solver_8h.html" target="_top" xlink:title="This file is the header file of several Riemann solvers and GRP solvers.">
<polygon fill="white" stroke="black" points="1140,-78.5 1140,-108.5 1261,-108.5 1261,-78.5 1140,-78.5"/>
<text text-anchor="start" x="1148" y="-96.5" font-family="Helvetica,sans-Serif" font-size="10.00">src~/include/riemann</text>
<text text-anchor="middle" x="1200.5" y="-85.5" font-family="Helvetica,sans-Serif" font-size="10.00">_solver.h</text>
</a>
</g>
</g>
<!-- Node1&#45;&gt;Node13 -->
<g id="edge14" class="edge">
<title>Node1&#45;&gt;Node13</title>
<path fill="none" stroke="midnightblue" d="M1152.27,-138.65C1162.43,-129.35 1175.3,-117.57 1185.18,-108.52"/>
<polygon fill="midnightblue" stroke="midnightblue" points="1149.83,-136.14 1144.81,-145.48 1154.55,-141.3 1149.83,-136.14"/>
</g>
<!-- Node14 -->
<g id="node14" class="node">
<title>Node14</title>
<g id="a_node14"><a xlink:href="../../d0/d4c/linear__grp__solver__radial___l_a_g_8c.html" target="_top" xlink:title="This is a Lagrangian GRP solver for compressible inviscid cylindrical flow in Li&#39;s paper.">
<polygon fill="white" stroke="black" points="1168.5,-0.5 1168.5,-41.5 1310.5,-41.5 1310.5,-0.5 1168.5,-0.5"/>
<text text-anchor="start" x="1176.5" y="-29.5" font-family="Helvetica,sans-Serif" font-size="10.00">src~/riemann_solver</text>
<text text-anchor="start" x="1176.5" y="-18.5" font-family="Helvetica,sans-Serif" font-size="10.00">/linear_grp_solver_radial_</text>
<text text-anchor="middle" x="1239.5" y="-7.5" font-family="Helvetica,sans-Serif" font-size="10.00">LAG.c</text>
</a>
</g>
</g>
<!-- Node1&#45;&gt;Node14 -->
<g id="edge22" class="edge">
<title>Node1&#45;&gt;Node14</title>
<path fill="none" stroke="midnightblue" d="M1212.33,-145.26C1234.35,-138.79 1256.02,-127.74 1269.5,-109 1284.14,-88.63 1269.54,-60.53 1256.06,-41.83"/>
<polygon fill="midnightblue" stroke="midnightblue" points="1211.33,-141.91 1202.56,-147.85 1213.12,-148.67 1211.33,-141.91"/>
</g>
<!-- Node15 -->
<g id="node15" class="node">
<title>Node15</title>
<g id="a_node15"><a xlink:href="../../d7/d5a/fluid__var__check_8c.html" target="_top" xlink:title="There are some functions to check whether fluid variables are within the value range.">
<polygon fill="white" stroke="black" points="1480,-78.5 1480,-108.5 1587,-108.5 1587,-78.5 1480,-78.5"/>
<text text-anchor="start" x="1488" y="-96.5" font-family="Helvetica,sans-Serif" font-size="10.00">src~/inter_process</text>
<text text-anchor="middle" x="1533.5" y="-85.5" font-family="Helvetica,sans-Serif" font-size="10.00">/fluid_var_check.c</text>
</a>
</g>
</g>
<!-- Node1&#45;&gt;Node15 -->
<g id="edge17" class="edge">
<title>Node1&#45;&gt;Node15</title>
<path fill="none" stroke="midnightblue" d="M1212.74,-145.68C1280.85,-137.86 1382.63,-124.98 1470.5,-109 1473.59,-108.44 1476.76,-107.83 1479.95,-107.18"/>
<polygon fill="midnightblue" stroke="midnightblue" points="1212.06,-142.24 1202.52,-146.85 1212.86,-149.19 1212.06,-142.24"/>
</g>
<!-- Node16 -->
<g id="node16" class="node">
<title>Node16</title>
<g id="a_node16"><a xlink:href="../../d6/df2/slope___v_i_p__limiter__radial_8c.html" target="_top" xlink:title="This is a function of the VIP/minmod slope limiter of the fluid velocity in radially symmetric case.">
<polygon fill="white" stroke="black" points="1605.5,-78.5 1605.5,-108.5 1751.5,-108.5 1751.5,-78.5 1605.5,-78.5"/>
<text text-anchor="start" x="1613.5" y="-96.5" font-family="Helvetica,sans-Serif" font-size="10.00">src~/inter_process</text>
<text text-anchor="middle" x="1678.5" y="-85.5" font-family="Helvetica,sans-Serif" font-size="10.00">/slope_VIP_limiter_radial.c</text>
</a>
</g>
</g>
<!-- Node1&#45;&gt;Node16 -->
<g id="edge18" class="edge">
<title>Node1&#45;&gt;Node16</title>
<path fill="none" stroke="midnightblue" d="M1212.91,-148.29C1304.68,-141.1 1462.11,-127.41 1596.5,-109 1599.36,-108.61 1602.28,-108.19 1605.23,-107.75"/>
<polygon fill="midnightblue" stroke="midnightblue" points="1212.57,-144.81 1202.88,-149.07 1213.12,-151.79 1212.57,-144.81"/>
</g>
<!-- Node17 -->
<g id="node17" class="node">
<title>Node17</title>
<g id="a_node17"><a xlink:href="../../d9/d8f/slope__limiter__radial_8c.html" target="_top" xlink:title="This is a function of the minmod slope limiter in radially symmetric case.">
<polygon fill="white" stroke="black" points="1770,-78.5 1770,-108.5 1895,-108.5 1895,-78.5 1770,-78.5"/>
<text text-anchor="start" x="1778" y="-96.5" font-family="Helvetica,sans-Serif" font-size="10.00">src~/inter_process</text>
<text text-anchor="middle" x="1832.5" y="-85.5" font-family="Helvetica,sans-Serif" font-size="10.00">/slope_limiter_radial.c</text>
</a>
</g>
</g>
<!-- Node1&#45;&gt;Node17 -->
<g id="edge19" class="edge">
<title>Node1&#45;&gt;Node17</title>
<path fill="none" stroke="midnightblue" d="M1212.9,-151.58C1331.32,-147.18 1564.37,-135.7 1760.5,-109 1763.53,-108.59 1766.63,-108.12 1769.75,-107.62"/>
<polygon fill="midnightblue" stroke="midnightblue" points="1212.71,-148.09 1202.85,-151.95 1212.97,-155.08 1212.71,-148.09"/>
</g>
<!-- Node18 -->
<g id="node18" class="node">
<title>Node18</title>
<g id="a_node18"><a xlink:href="../../d6/d7d/_v_i_p_limiter_8cpp.html" target="_top" xlink:title="The subroutin implements the VIP limiter for simulations of 2D flows on structured grids.">
<polygon fill="white" stroke="black" points="1913,-78.5 1913,-108.5 2026,-108.5 2026,-78.5 1913,-78.5"/>
<text text-anchor="start" x="1921" y="-96.5" font-family="Helvetica,sans-Serif" font-size="10.00">src~/inter_process</text>
<text text-anchor="middle" x="1969.5" y="-85.5" font-family="Helvetica,sans-Serif" font-size="10.00">_cpp/VIPLimiter.cpp</text>
</a>
</g>
</g>
<!-- Node1&#45;&gt;Node18 -->
<g id="edge20" class="edge">
<title>Node1&#45;&gt;Node18</title>
<path fill="none" stroke="midnightblue" d="M1212.85,-153.58C1351.94,-151.92 1653.18,-144.15 1904.5,-109 1907.25,-108.62 1910.05,-108.18 1912.88,-107.69"/>
<polygon fill="midnightblue" stroke="midnightblue" points="1212.68,-150.08 1202.72,-153.69 1212.76,-157.08 1212.68,-150.08"/>
</g>
<!-- Node19 -->
<g id="node19" class="node">
<title>Node19</title>
<g id="a_node19"><a xlink:href="../../dc/d3e/radial__mesh_8c.html" target="_top" xlink:title="There are some handler functions of radially symmetric mesh.">
<polygon fill="white" stroke="black" points="2044,-78.5 2044,-108.5 2159,-108.5 2159,-78.5 2044,-78.5"/>
<text text-anchor="start" x="2052" y="-96.5" font-family="Helvetica,sans-Serif" font-size="10.00">src~/meshing/radial</text>
<text text-anchor="middle" x="2101.5" y="-85.5" font-family="Helvetica,sans-Serif" font-size="10.00">_mesh.c</text>
</a>
</g>
</g>
<!-- Node1&#45;&gt;Node19 -->
<g id="edge21" class="edge">
<title>Node1&#45;&gt;Node19</title>
<path fill="none" stroke="midnightblue" d="M1213.19,-154.45C1369.59,-154.4 1733.29,-149.47 2035.5,-109 2038.17,-108.64 2040.9,-108.23 2043.65,-107.78"/>
<polygon fill="midnightblue" stroke="midnightblue" points="1212.74,-150.95 1202.74,-154.45 1212.74,-157.95 1212.74,-150.95"/>
</g>
<!-- Node11&#45;&gt;Node10 -->
<g id="edge11" class="edge">
<title>Node11&#45;&gt;Node10</title>
<path fill="none" stroke="midnightblue" d="M1405.75,-68.23C1404.54,-57.57 1403.16,-45.41 1402.12,-36.25"/>
<polygon fill="midnightblue" stroke="midnightblue" points="1402.28,-68.69 1406.88,-78.23 1409.23,-67.9 1402.28,-68.69"/>
</g>
<!-- Node12&#45;&gt;Node9 -->
<g id="edge13" class="edge">
<title>Node12&#45;&gt;Node9</title>
<path fill="none" stroke="midnightblue" d="M1070.5,-67.98C1070.5,-59.35 1070.5,-49.76 1070.5,-41.59"/>
<polygon fill="midnightblue" stroke="midnightblue" points="1067,-68.23 1070.5,-78.23 1074,-68.23 1067,-68.23"/>
</g>
<!-- Node13&#45;&gt;Node9 -->
<g id="edge15" class="edge">
<title>Node13&#45;&gt;Node9</title>
<path fill="none" stroke="midnightblue" d="M1165.41,-73.47C1147.26,-63.63 1125.12,-51.62 1106.79,-41.68"/>
<polygon fill="midnightblue" stroke="midnightblue" points="1164.05,-76.71 1174.51,-78.4 1167.38,-70.56 1164.05,-76.71"/>
</g>
<!-- Node13&#45;&gt;Node14 -->
<g id="edge16" class="edge">
<title>Node13&#45;&gt;Node14</title>
<path fill="none" stroke="midnightblue" d="M1213.27,-69.41C1218.25,-60.42 1223.89,-50.22 1228.66,-41.59"/>
<polygon fill="midnightblue" stroke="midnightblue" points="1210.17,-67.79 1208.39,-78.23 1216.3,-71.18 1210.17,-67.79"/>
</g>
</g>
</svg>
