<?xml version="1.0" encoding="UTF-8" standalone="no"?>
<!DOCTYPE svg PUBLIC "-//W3C//DTD SVG 1.1//EN"
 "http://www.w3.org/Graphics/SVG/1.1/DTD/svg11.dtd">
<!-- Generated by graphviz version 5.0.0 (0)
 -->
<!-- Title: /home/leixin/Programs/HydroCODE/src/inter_process/slope_limiter.c Pages: 1 -->
<svg width="384pt" height="106pt"
 viewBox="0.00 0.00 383.50 106.00" xmlns="http://www.w3.org/2000/svg" xmlns:xlink="http://www.w3.org/1999/xlink">
<g id="graph0" class="graph" transform="scale(1 1) rotate(0) translate(4 102)">
<title>/home/leixin/Programs/HydroCODE/src/inter_process/slope_limiter.c</title>
<polygon fill="white" stroke="transparent" points="-4,4 -4,-102 379.5,-102 379.5,4 -4,4"/>
<!-- Node1 -->
<g id="node1" class="node">
<title>Node1</title>
<g id="a_node1"><a xlink:title="This is a function of the minmod slope limiter in one dimension.">
<polygon fill="#bfbfbf" stroke="black" points="81,-56.5 81,-97.5 215,-97.5 215,-56.5 81,-56.5"/>
<text text-anchor="start" x="89" y="-85.5" font-family="Helvetica,sans-Serif" font-size="10.00">/home/leixin/Programs</text>
<text text-anchor="start" x="89" y="-74.5" font-family="Helvetica,sans-Serif" font-size="10.00">/HydroCODE/src/inter</text>
<text text-anchor="middle" x="148" y="-63.5" font-family="Helvetica,sans-Serif" font-size="10.00">_process/slope_limiter.c</text>
</a>
</g>
</g>
<!-- Node2 -->
<g id="node2" class="node">
<title>Node2</title>
<g id="a_node2"><a xlink:title=" ">
<polygon fill="white" stroke="#bfbfbf" points="0,-0.5 0,-19.5 50,-19.5 50,-0.5 0,-0.5"/>
<text text-anchor="middle" x="25" y="-7.5" font-family="Helvetica,sans-Serif" font-size="10.00">stdio.h</text>
</a>
</g>
</g>
<!-- Node1&#45;&gt;Node2 -->
<g id="edge1" class="edge">
<title>Node1&#45;&gt;Node2</title>
<path fill="none" stroke="midnightblue" d="M111.1,-56.5C91.51,-46.15 67.95,-33.69 50.42,-24.43"/>
<polygon fill="midnightblue" stroke="midnightblue" points="51.85,-21.23 41.37,-19.65 48.58,-27.42 51.85,-21.23"/>
</g>
<!-- Node3 -->
<g id="node3" class="node">
<title>Node3</title>
<g id="a_node3"><a xlink:title=" ">
<polygon fill="white" stroke="#bfbfbf" points="68,-0.5 68,-19.5 124,-19.5 124,-0.5 68,-0.5"/>
<text text-anchor="middle" x="96" y="-7.5" font-family="Helvetica,sans-Serif" font-size="10.00">stdarg.h</text>
</a>
</g>
</g>
<!-- Node1&#45;&gt;Node3 -->
<g id="edge2" class="edge">
<title>Node1&#45;&gt;Node3</title>
<path fill="none" stroke="midnightblue" d="M132.4,-56.5C125.04,-47.3 116.35,-36.44 109.31,-27.63"/>
<polygon fill="midnightblue" stroke="midnightblue" points="111.9,-25.27 102.92,-19.65 106.44,-29.65 111.9,-25.27"/>
</g>
<!-- Node4 -->
<g id="node4" class="node">
<title>Node4</title>
<g id="a_node4"><a xlink:href="../../da/d1e/var__struc_8h.html" target="_top" xlink:title="This file is the header file of some globally common variables and structural bodies.">
<polygon fill="white" stroke="black" points="142,-0.5 142,-19.5 260,-19.5 260,-0.5 142,-0.5"/>
<text text-anchor="middle" x="201" y="-7.5" font-family="Helvetica,sans-Serif" font-size="10.00">../include/var_struc.h</text>
</a>
</g>
</g>
<!-- Node1&#45;&gt;Node4 -->
<g id="edge3" class="edge">
<title>Node1&#45;&gt;Node4</title>
<path fill="none" stroke="midnightblue" d="M163.9,-56.5C171.4,-47.3 180.26,-36.44 187.44,-27.63"/>
<polygon fill="midnightblue" stroke="midnightblue" points="190.34,-29.61 193.94,-19.65 184.91,-25.19 190.34,-29.61"/>
</g>
<!-- Node5 -->
<g id="node5" class="node">
<title>Node5</title>
<g id="a_node5"><a xlink:href="../../d5/da5/tools_8h.html" target="_top" xlink:title="This file is the header file of several independent tool functions.">
<polygon fill="white" stroke="black" points="278.5,-0.5 278.5,-19.5 375.5,-19.5 375.5,-0.5 278.5,-0.5"/>
<text text-anchor="middle" x="327" y="-7.5" font-family="Helvetica,sans-Serif" font-size="10.00">../include/tools.h</text>
</a>
</g>
</g>
<!-- Node1&#45;&gt;Node5 -->
<g id="edge4" class="edge">
<title>Node1&#45;&gt;Node5</title>
<path fill="none" stroke="midnightblue" d="M201.71,-56.5C231.52,-45.67 267.69,-32.54 293.49,-23.17"/>
<polygon fill="midnightblue" stroke="midnightblue" points="294.97,-26.36 303.17,-19.65 292.58,-19.78 294.97,-26.36"/>
</g>
</g>
</svg>
