<?xml version="1.0" encoding="UTF-8" standalone="no"?>
<!DOCTYPE svg PUBLIC "-//W3C//DTD SVG 1.1//EN"
 "http://www.w3.org/Graphics/SVG/1.1/DTD/svg11.dtd">
<!-- Generated by graphviz version 6.0.1 (0)
 -->
<!-- Title: src~/riemann_solver/linear_grp_solver_radial_LAG.c Pages: 1 -->
<svg width="288pt" height="173pt"
 viewBox="0.00 0.00 288.00 173.00" xmlns="http://www.w3.org/2000/svg" xmlns:xlink="http://www.w3.org/1999/xlink">
<g id="graph0" class="graph" transform="scale(1 1) rotate(0) translate(4 169)">
<title>src~/riemann_solver/linear_grp_solver_radial_LAG.c</title>
<polygon fill="white" stroke="none" points="-4,4 -4,-169 284,-169 284,4 -4,4"/>
<!-- Node1 -->
<g id="node1" class="node">
<title>Node1</title>
<g id="a_node1"><a xlink:title="This is a Lagrangian GRP solver for compressible inviscid cylindrical flow in Li&#39;s paper.">
<polygon fill="#bfbfbf" stroke="black" points="50,-123.5 50,-164.5 192,-164.5 192,-123.5 50,-123.5"/>
<text text-anchor="start" x="58" y="-152.5" font-family="Helvetica,sans-Serif" font-size="10.00">src~/riemann_solver</text>
<text text-anchor="start" x="58" y="-141.5" font-family="Helvetica,sans-Serif" font-size="10.00">/linear_grp_solver_radial_</text>
<text text-anchor="middle" x="121" y="-130.5" font-family="Helvetica,sans-Serif" font-size="10.00">LAG.c</text>
</a>
</g>
</g>
<!-- Node2 -->
<g id="node2" class="node">
<title>Node2</title>
<g id="a_node2"><a xlink:title=" ">
<polygon fill="white" stroke="#bfbfbf" points="0,-62 0,-81 50,-81 50,-62 0,-62"/>
<text text-anchor="middle" x="25" y="-69" font-family="Helvetica,sans-Serif" font-size="10.00">stdio.h</text>
</a>
</g>
</g>
<!-- Node1&#45;&gt;Node2 -->
<g id="edge1" class="edge">
<title>Node1&#45;&gt;Node2</title>
<path fill="none" stroke="midnightblue" d="M94.26,-123.36C78.64,-111.89 59.25,-97.65 44.97,-87.16"/>
<polygon fill="midnightblue" stroke="midnightblue" points="46.94,-84.27 36.81,-81.17 42.8,-89.91 46.94,-84.27"/>
</g>
<!-- Node3 -->
<g id="node3" class="node">
<title>Node3</title>
<g id="a_node3"><a xlink:title=" ">
<polygon fill="white" stroke="#bfbfbf" points="68.5,-62 68.5,-81 119.5,-81 119.5,-62 68.5,-62"/>
<text text-anchor="middle" x="94" y="-69" font-family="Helvetica,sans-Serif" font-size="10.00">math.h</text>
</a>
</g>
</g>
<!-- Node1&#45;&gt;Node3 -->
<g id="edge2" class="edge">
<title>Node1&#45;&gt;Node3</title>
<path fill="none" stroke="midnightblue" d="M113.48,-123.36C109.54,-113.08 104.75,-100.58 100.91,-90.54"/>
<polygon fill="midnightblue" stroke="midnightblue" points="104.17,-89.26 97.32,-81.17 97.63,-91.76 104.17,-89.26"/>
</g>
<!-- Node4 -->
<g id="node4" class="node">
<title>Node4</title>
<g id="a_node4"><a xlink:href="../../da/d1e/var__struc_8h.html" target="_top" xlink:title="This file is the header file of some globally common variables and structural bodies.">
<polygon fill="white" stroke="black" points="129,-0.5 129,-19.5 247,-19.5 247,-0.5 129,-0.5"/>
<text text-anchor="middle" x="188" y="-7.5" font-family="Helvetica,sans-Serif" font-size="10.00">../include/var_struc.h</text>
</a>
</g>
</g>
<!-- Node1&#45;&gt;Node4 -->
<g id="edge3" class="edge">
<title>Node1&#45;&gt;Node4</title>
<path fill="none" stroke="midnightblue" d="M131.03,-123.24C144.06,-97.57 166.6,-53.17 179.06,-28.61"/>
<polygon fill="midnightblue" stroke="midnightblue" points="182.19,-30.19 183.59,-19.69 175.94,-27.02 182.19,-30.19"/>
</g>
<!-- Node5 -->
<g id="node5" class="node">
<title>Node5</title>
<g id="a_node5"><a xlink:href="../../df/ded/riemann__solver_8h.html" target="_top" xlink:title="This file is the header file of several Riemann solvers and GRP solvers.">
<polygon fill="white" stroke="black" points="176,-56.5 176,-86.5 280,-86.5 280,-56.5 176,-56.5"/>
<text text-anchor="start" x="184" y="-74.5" font-family="Helvetica,sans-Serif" font-size="10.00">../include/riemann</text>
<text text-anchor="middle" x="228" y="-63.5" font-family="Helvetica,sans-Serif" font-size="10.00">_solver.h</text>
</a>
</g>
</g>
<!-- Node1&#45;&gt;Node5 -->
<g id="edge4" class="edge">
<title>Node1&#45;&gt;Node5</title>
<path fill="none" stroke="midnightblue" d="M150.81,-123.36C165.45,-113.71 183.07,-102.11 197.77,-92.42"/>
<polygon fill="midnightblue" stroke="midnightblue" points="200.07,-95.09 206.49,-86.67 196.22,-89.25 200.07,-95.09"/>
</g>
<!-- Node5&#45;&gt;Node4 -->
<g id="edge5" class="edge">
<title>Node5&#45;&gt;Node4</title>
<path fill="none" stroke="midnightblue" d="M218.52,-56.4C212.83,-47.93 205.55,-37.1 199.52,-28.14"/>
<polygon fill="midnightblue" stroke="midnightblue" points="202.3,-26 193.82,-19.66 196.49,-29.91 202.3,-26"/>
</g>
</g>
</svg>
