<?xml version="1.0" encoding="UTF-8" standalone="no"?>
<!DOCTYPE svg PUBLIC "-//W3C//DTD SVG 1.1//EN"
 "http://www.w3.org/Graphics/SVG/1.1/DTD/svg11.dtd">
<!-- Generated by graphviz version 6.0.1 (0)
 -->
<!-- Title: GRP_solver_radial_LAG_source Pages: 1 -->
<svg width="726pt" height="370pt"
 viewBox="0.00 0.00 726.00 370.00" xmlns="http://www.w3.org/2000/svg" xmlns:xlink="http://www.w3.org/1999/xlink">
<g id="graph0" class="graph" transform="scale(1 1) rotate(0) translate(4 366)">
<title>GRP_solver_radial_LAG_source</title>
<polygon fill="white" stroke="none" points="-4,4 -4,-366 722,-366 722,4 -4,4"/>
<!-- Node1 -->
<g id="node1" class="node">
<title>Node1</title>
<g id="a_node1"><a xlink:title="This function use GRP scheme to solve radially(cylindrically) symmetric compressible flows of motion ...">
<polygon fill="#bfbfbf" stroke="black" points="0,-185 0,-215 131,-215 131,-185 0,-185"/>
<text text-anchor="start" x="8" y="-203" font-family="Helvetica,sans-Serif" font-size="10.00">GRP_solver_radial_LAG</text>
<text text-anchor="middle" x="65.5" y="-192" font-family="Helvetica,sans-Serif" font-size="10.00">_source</text>
</a>
</g>
</g>
<!-- Node2 -->
<g id="node2" class="node">
<title>Node2</title>
<g id="a_node2"><a xlink:href="../../d0/d4c/linear__grp__solver__radial___l_a_g_8c.html#a610438bbb2947674abfd9699a2f77bce" target="_top" xlink:title="A GRP solver for unsteady compressible inviscid two&#45;component flow in tangential case....">
<polygon fill="white" stroke="black" points="171,-304.5 171,-323.5 291,-323.5 291,-304.5 171,-304.5"/>
<text text-anchor="middle" x="231" y="-311.5" font-family="Helvetica,sans-Serif" font-size="10.00">AcousticRLagTangent</text>
</a>
</g>
</g>
<!-- Node1&#45;&gt;Node2 -->
<g id="edge1" class="edge">
<title>Node1&#45;&gt;Node2</title>
<path fill="none" stroke="midnightblue" d="M78.51,-215.12C95.88,-236.02 130.02,-273.58 167,-295 170.73,-297.16 174.72,-299.09 178.82,-300.82"/>
<polygon fill="midnightblue" stroke="midnightblue" points="177.93,-304.23 188.52,-304.5 180.41,-297.68 177.93,-304.23"/>
</g>
<!-- Node6 -->
<g id="node6" class="node">
<title>Node6</title>
<g id="a_node6"><a xlink:href="../../d4/ddd/sys__pro_8c.html#aab058cac35713b52c083b9e54ffa45eb" target="_top" xlink:title="This function print a progress bar on one line of standard output.">
<polygon fill="white" stroke="black" points="204,-266.5 204,-285.5 258,-285.5 258,-266.5 204,-266.5"/>
<text text-anchor="middle" x="231" y="-273.5" font-family="Helvetica,sans-Serif" font-size="10.00">DispPro</text>
</a>
</g>
</g>
<!-- Node1&#45;&gt;Node6 -->
<g id="edge5" class="edge">
<title>Node1&#45;&gt;Node6</title>
<path fill="none" stroke="midnightblue" d="M89.7,-215.14C109.59,-227.63 139.34,-245.16 167,-257 175.55,-260.66 185.03,-263.91 193.98,-266.65"/>
<polygon fill="midnightblue" stroke="midnightblue" points="193.21,-270.07 203.79,-269.51 195.17,-263.35 193.21,-270.07"/>
</g>
<!-- Node7 -->
<g id="node7" class="node">
<title>Node7</title>
<g id="a_node7"><a xlink:href="../../d1/df9/file__radial__out_8c.html#adaf9f8109eb6c852fcaf47aa8c21156c" target="_top" xlink:title="This function write the radially symmetric 2&#45;D solution into Tecplot output &#39;.tec&#39; files.">
<polygon fill="white" stroke="black" points="171.5,-228.5 171.5,-247.5 290.5,-247.5 290.5,-228.5 171.5,-228.5"/>
<text text-anchor="middle" x="231" y="-235.5" font-family="Helvetica,sans-Serif" font-size="10.00">file_radial_write_TEC</text>
</a>
</g>
</g>
<!-- Node1&#45;&gt;Node7 -->
<g id="edge6" class="edge">
<title>Node1&#45;&gt;Node7</title>
<path fill="none" stroke="midnightblue" d="M131.12,-215.02C146.93,-218.69 163.63,-222.58 178.72,-226.08"/>
<polygon fill="midnightblue" stroke="midnightblue" points="178.35,-229.59 188.88,-228.44 179.93,-222.77 178.35,-229.59"/>
</g>
<!-- Node10 -->
<g id="node10" class="node">
<title>Node10</title>
<g id="a_node10"><a xlink:href="../../d0/d4c/linear__grp__solver__radial___l_a_g_8c.html#a9e85c30c34532bb9d3582acab5134689" target="_top" xlink:title="A GRP solver for unsteady compressible inviscid two&#45;component flow. Lagrangian version (moving mesh) ...">
<polygon fill="white" stroke="black" points="185.5,-342.5 185.5,-361.5 276.5,-361.5 276.5,-342.5 185.5,-342.5"/>
<text text-anchor="middle" x="231" y="-349.5" font-family="Helvetica,sans-Serif" font-size="10.00">GRPsolverRLag</text>
</a>
</g>
</g>
<!-- Node1&#45;&gt;Node10 -->
<g id="edge9" class="edge">
<title>Node1&#45;&gt;Node10</title>
<path fill="none" stroke="midnightblue" d="M73.87,-215.26C88.02,-242.92 121.64,-301.41 167,-333 169.85,-334.99 172.92,-336.77 176.1,-338.37"/>
<polygon fill="midnightblue" stroke="midnightblue" points="174.76,-341.6 185.32,-342.41 177.57,-335.19 174.76,-341.6"/>
</g>
<!-- Node11 -->
<g id="node11" class="node">
<title>Node11</title>
<g id="a_node11"><a xlink:href="../../d7/d5a/fluid__var__check_8c.html#a29ead600b8eb62cb272068d83dadcc46" target="_top" xlink:title="This function checks whether interfacial fluid variables are within the value range.">
<polygon fill="white" stroke="black" points="194.5,-190.5 194.5,-209.5 267.5,-209.5 267.5,-190.5 194.5,-190.5"/>
<text text-anchor="middle" x="231" y="-197.5" font-family="Helvetica,sans-Serif" font-size="10.00">ifvar_check</text>
</a>
</g>
</g>
<!-- Node1&#45;&gt;Node11 -->
<g id="edge11" class="edge">
<title>Node1&#45;&gt;Node11</title>
<path fill="none" stroke="midnightblue" d="M131.12,-200C148.69,-200 167.37,-200 183.71,-200"/>
<polygon fill="midnightblue" stroke="midnightblue" points="184.07,-203.5 194.07,-200 184.07,-196.5 184.07,-203.5"/>
</g>
<!-- Node12 -->
<g id="node12" class="node">
<title>Node12</title>
<g id="a_node12"><a xlink:href="../../d9/d8f/slope__limiter__radial_8c.html#a66820f2e6ed9d6e24ab4846b555afb03" target="_top" xlink:title="This function apply the minmod limiter to the slope in radially symmetric case.">
<polygon fill="white" stroke="black" points="167,-152.5 167,-171.5 295,-171.5 295,-152.5 167,-152.5"/>
<text text-anchor="middle" x="231" y="-159.5" font-family="Helvetica,sans-Serif" font-size="10.00">minmod_limiter_radial</text>
</a>
</g>
</g>
<!-- Node1&#45;&gt;Node12 -->
<g id="edge12" class="edge">
<title>Node1&#45;&gt;Node12</title>
<path fill="none" stroke="midnightblue" d="M131.12,-184.98C146.93,-181.31 163.63,-177.42 178.72,-173.92"/>
<polygon fill="midnightblue" stroke="midnightblue" points="179.93,-177.23 188.88,-171.56 178.35,-170.41 179.93,-177.23"/>
</g>
<!-- Node15 -->
<g id="node15" class="node">
<title>Node15</title>
<g id="a_node15"><a xlink:href="../../dc/d3e/radial__mesh_8c.html#a5100b85f7a6a99a8798c4f0b66ab4853" target="_top" xlink:title="This function updates radially symmetric meshing variables after each time step update.">
<polygon fill="white" stroke="black" points="173,-76.5 173,-95.5 289,-95.5 289,-76.5 173,-76.5"/>
<text text-anchor="middle" x="231" y="-83.5" font-family="Helvetica,sans-Serif" font-size="10.00">radial_mesh_update</text>
</a>
</g>
</g>
<!-- Node1&#45;&gt;Node15 -->
<g id="edge15" class="edge">
<title>Node1&#45;&gt;Node15</title>
<path fill="none" stroke="midnightblue" d="M78.51,-184.88C95.88,-163.98 130.02,-126.42 167,-105 170.73,-102.84 174.72,-100.91 178.82,-99.18"/>
<polygon fill="midnightblue" stroke="midnightblue" points="180.41,-102.32 188.52,-95.5 177.93,-95.77 180.41,-102.32"/>
</g>
<!-- Node16 -->
<g id="node16" class="node">
<title>Node16</title>
<g id="a_node16"><a xlink:href="../../d7/d5a/fluid__var__check_8c.html#a0177056576942ce464bb53db4dcb5138" target="_top" xlink:title="This function checks whether fluid variables of mid[] and dire[] are within the value range.">
<polygon fill="white" stroke="black" points="184.5,-38.5 184.5,-57.5 277.5,-57.5 277.5,-38.5 184.5,-38.5"/>
<text text-anchor="middle" x="231" y="-45.5" font-family="Helvetica,sans-Serif" font-size="10.00">star_dire_check</text>
</a>
</g>
</g>
<!-- Node1&#45;&gt;Node16 -->
<g id="edge16" class="edge">
<title>Node1&#45;&gt;Node16</title>
<path fill="none" stroke="midnightblue" d="M73.87,-184.74C88.02,-157.08 121.64,-98.59 167,-67 169.85,-65.01 172.92,-63.23 176.1,-61.63"/>
<polygon fill="midnightblue" stroke="midnightblue" points="177.57,-64.81 185.32,-57.59 174.76,-58.4 177.57,-64.81"/>
</g>
<!-- Node17 -->
<g id="node17" class="node">
<title>Node17</title>
<g id="a_node17"><a xlink:href="../../d6/df2/slope___v_i_p__limiter__radial_8c.html#aaaa06c143daec504594545993241e747" target="_top" xlink:title="This function apply the VIP/minmod limiter to the slope of the fluid velocity in radially symmetric c...">
<polygon fill="white" stroke="black" points="179.5,-114.5 179.5,-133.5 282.5,-133.5 282.5,-114.5 179.5,-114.5"/>
<text text-anchor="middle" x="231" y="-121.5" font-family="Helvetica,sans-Serif" font-size="10.00">VIP_limiter_radial</text>
</a>
</g>
</g>
<!-- Node1&#45;&gt;Node17 -->
<g id="edge17" class="edge">
<title>Node1&#45;&gt;Node17</title>
<path fill="none" stroke="midnightblue" d="M89.7,-184.86C109.59,-172.37 139.34,-154.84 167,-143 172.32,-140.73 177.99,-138.61 183.68,-136.67"/>
<polygon fill="midnightblue" stroke="midnightblue" points="184.76,-140 193.19,-133.6 182.6,-133.34 184.76,-140"/>
</g>
<!-- Node3 -->
<g id="node3" class="node">
<title>Node3</title>
<g id="a_node3"><a xlink:href="../../d2/d49/riemann__solver__star_p_u_8c.html#a9874cf3a84e2f4ba605b078faeb4b62a" target="_top" xlink:title="EXACT RIEMANN SOLVER FOR Two&#45;Component γ&#45;Law Gas">
<polygon fill="white" stroke="black" points="331,-304.5 331,-323.5 464,-323.5 464,-304.5 331,-304.5"/>
<text text-anchor="middle" x="397.5" y="-311.5" font-family="Helvetica,sans-Serif" font-size="10.00">Riemann_solver_starPU</text>
</a>
</g>
</g>
<!-- Node2&#45;&gt;Node3 -->
<g id="edge2" class="edge">
<title>Node2&#45;&gt;Node3</title>
<path fill="none" stroke="midnightblue" d="M291.39,-314C300.88,-314 310.82,-314 320.63,-314"/>
<polygon fill="midnightblue" stroke="midnightblue" points="320.79,-317.5 330.79,-314 320.79,-310.5 320.79,-317.5"/>
</g>
<!-- Node4 -->
<g id="node4" class="node">
<title>Node4</title>
<g id="a_node4"><a xlink:href="../../d2/d49/riemann__solver__star_p_u_8c.html#a9e810193004adbabfe0e143efb93ff04" target="_top" xlink:title="Provide a guess value for pressure PM in the Star Region.">
<polygon fill="white" stroke="black" points="518,-323.5 518,-342.5 571,-342.5 571,-323.5 518,-323.5"/>
<text text-anchor="middle" x="544.5" y="-330.5" font-family="Helvetica,sans-Serif" font-size="10.00">GuessP</text>
</a>
</g>
</g>
<!-- Node3&#45;&gt;Node4 -->
<g id="edge3" class="edge">
<title>Node3&#45;&gt;Node4</title>
<path fill="none" stroke="midnightblue" d="M464.21,-322.61C479.23,-324.58 494.64,-326.6 507.83,-328.33"/>
<polygon fill="midnightblue" stroke="midnightblue" points="507.52,-331.82 517.89,-329.64 508.43,-324.87 507.52,-331.82"/>
</g>
<!-- Node5 -->
<g id="node5" class="node">
<title>Node5</title>
<g id="a_node5"><a xlink:href="../../d2/d49/riemann__solver__star_p_u_8c.html#a751e4af4442c32ecdfb4e82e2c50dbd3" target="_top" xlink:title="Evaluate the pressure functions FL and FR in exact Riemann solver.">
<polygon fill="white" stroke="black" points="519.5,-285.5 519.5,-304.5 569.5,-304.5 569.5,-285.5 519.5,-285.5"/>
<text text-anchor="middle" x="544.5" y="-292.5" font-family="Helvetica,sans-Serif" font-size="10.00">PreFun</text>
</a>
</g>
</g>
<!-- Node3&#45;&gt;Node5 -->
<g id="edge4" class="edge">
<title>Node3&#45;&gt;Node5</title>
<path fill="none" stroke="midnightblue" d="M464.21,-305.39C479.7,-303.36 495.61,-301.28 509.07,-299.51"/>
<polygon fill="midnightblue" stroke="midnightblue" points="509.83,-302.94 519.29,-298.17 508.92,-296 509.83,-302.94"/>
</g>
<!-- Node8 -->
<g id="node8" class="node">
<title>Node8</title>
<g id="a_node8"><a xlink:href="../../d4/de5/io__control_8c.html#a7e039d23ca87a439fbe9c9d336447887" target="_top" xlink:title="This function produces folder path for data input or output.">
<polygon fill="white" stroke="black" points="360.5,-228.5 360.5,-247.5 434.5,-247.5 434.5,-228.5 360.5,-228.5"/>
<text text-anchor="middle" x="397.5" y="-235.5" font-family="Helvetica,sans-Serif" font-size="10.00">example_io</text>
</a>
</g>
</g>
<!-- Node7&#45;&gt;Node8 -->
<g id="edge7" class="edge">
<title>Node7&#45;&gt;Node8</title>
<path fill="none" stroke="midnightblue" d="M290.92,-238C310.43,-238 331.86,-238 350.27,-238"/>
<polygon fill="midnightblue" stroke="midnightblue" points="350.45,-241.5 360.45,-238 350.45,-234.5 350.45,-241.5"/>
</g>
<!-- Node9 -->
<g id="node9" class="node">
<title>Node9</title>
<g id="a_node9"><a xlink:href="../../d4/ddd/sys__pro_8c.html#a40a5faeb19b1fd9aec2c5c10a87faeb4" target="_top" xlink:title="This is a function that recursively creates folders.">
<polygon fill="white" stroke="black" points="513,-228.5 513,-247.5 576,-247.5 576,-228.5 513,-228.5"/>
<text text-anchor="middle" x="544.5" y="-235.5" font-family="Helvetica,sans-Serif" font-size="10.00">CreateDir</text>
</a>
</g>
</g>
<!-- Node8&#45;&gt;Node9 -->
<g id="edge8" class="edge">
<title>Node8&#45;&gt;Node9</title>
<path fill="none" stroke="midnightblue" d="M434.72,-238C455.33,-238 481.22,-238 502.57,-238"/>
<polygon fill="midnightblue" stroke="midnightblue" points="502.65,-241.5 512.65,-238 502.65,-234.5 502.65,-241.5"/>
</g>
<!-- Node10&#45;&gt;Node3 -->
<g id="edge10" class="edge">
<title>Node10&#45;&gt;Node3</title>
<path fill="none" stroke="midnightblue" d="M273.51,-342.41C295.32,-337.37 322.23,-331.16 345.32,-325.82"/>
<polygon fill="midnightblue" stroke="midnightblue" points="346.33,-329.18 355.29,-323.52 344.76,-322.36 346.33,-329.18"/>
</g>
<!-- Node13 -->
<g id="node13" class="node">
<title>Node13</title>
<g id="a_node13"><a xlink:href="../../d5/da5/tools_8h.html#a56cac3298eeead8cf22c1e61eb5a5a88" target="_top" xlink:title="Minmod limiter function of two variables.">
<polygon fill="white" stroke="black" points="366,-114.5 366,-133.5 429,-133.5 429,-114.5 366,-114.5"/>
<text text-anchor="middle" x="397.5" y="-121.5" font-family="Helvetica,sans-Serif" font-size="10.00">minmod2</text>
</a>
</g>
</g>
<!-- Node12&#45;&gt;Node13 -->
<g id="edge13" class="edge">
<title>Node12&#45;&gt;Node13</title>
<path fill="none" stroke="midnightblue" d="M273.51,-152.41C298.77,-146.58 330.9,-139.15 355.98,-133.36"/>
<polygon fill="midnightblue" stroke="midnightblue" points="356.95,-136.73 365.91,-131.07 355.38,-129.91 356.95,-136.73"/>
</g>
<!-- Node14 -->
<g id="node14" class="node">
<title>Node14</title>
<g id="a_node14"><a xlink:href="../../d5/da5/tools_8h.html#a6dfba28e1af33b47f4656d3738996fe9" target="_top" xlink:title="Minmod limiter function of three variables.">
<polygon fill="white" stroke="black" points="366,-152.5 366,-171.5 429,-171.5 429,-152.5 366,-152.5"/>
<text text-anchor="middle" x="397.5" y="-159.5" font-family="Helvetica,sans-Serif" font-size="10.00">minmod3</text>
</a>
</g>
</g>
<!-- Node12&#45;&gt;Node14 -->
<g id="edge14" class="edge">
<title>Node12&#45;&gt;Node14</title>
<path fill="none" stroke="midnightblue" d="M295.13,-162C315.52,-162 337.58,-162 355.89,-162"/>
<polygon fill="midnightblue" stroke="midnightblue" points="355.92,-165.5 365.92,-162 355.92,-158.5 355.92,-165.5"/>
</g>
<!-- Node17&#45;&gt;Node13 -->
<g id="edge18" class="edge">
<title>Node17&#45;&gt;Node13</title>
<path fill="none" stroke="midnightblue" d="M282.7,-124C306.17,-124 333.68,-124 355.77,-124"/>
<polygon fill="midnightblue" stroke="midnightblue" points="355.82,-127.5 365.82,-124 355.82,-120.5 355.82,-127.5"/>
</g>
<!-- Node17&#45;&gt;Node14 -->
<g id="edge19" class="edge">
<title>Node17&#45;&gt;Node14</title>
<path fill="none" stroke="midnightblue" d="M273.51,-133.59C298.77,-139.42 330.9,-146.85 355.98,-152.64"/>
<polygon fill="midnightblue" stroke="midnightblue" points="355.38,-156.09 365.91,-154.93 356.95,-149.27 355.38,-156.09"/>
</g>
<!-- Node18 -->
<g id="node18" class="node">
<title>Node18</title>
<g id="a_node18"><a xlink:href="../../d6/d7d/_v_i_p_limiter_8cpp.html#a797681bc7e6c787bc98d26f2fc508973" target="_top" xlink:title="Subroutine of using VIP limiter for 2D velocity vector.">
<polygon fill="white" stroke="black" points="355.5,-76.5 355.5,-95.5 439.5,-95.5 439.5,-76.5 355.5,-76.5"/>
<text text-anchor="middle" x="397.5" y="-83.5" font-family="Helvetica,sans-Serif" font-size="10.00">useVIPLimiter</text>
</a>
</g>
</g>
<!-- Node17&#45;&gt;Node18 -->
<g id="edge20" class="edge">
<title>Node17&#45;&gt;Node18</title>
<path fill="none" stroke="midnightblue" d="M273.51,-114.41C295.32,-109.37 322.23,-103.16 345.32,-97.82"/>
<polygon fill="midnightblue" stroke="midnightblue" points="346.33,-101.18 355.29,-95.52 344.76,-94.36 346.33,-101.18"/>
</g>
<!-- Node19 -->
<g id="node19" class="node">
<title>Node19</title>
<g id="a_node19"><a xlink:href="../../d6/d7d/_v_i_p_limiter_8cpp.html#aa2e364f2941c012203e62b27d509a605" target="_top" xlink:title=" ">
<polygon fill="white" stroke="black" points="638,-19.5 638,-38.5 705,-38.5 705,-19.5 638,-19.5"/>
<text text-anchor="middle" x="671.5" y="-26.5" font-family="Helvetica,sans-Serif" font-size="10.00">getTriArea</text>
</a>
</g>
</g>
<!-- Node18&#45;&gt;Node19 -->
<g id="edge21" class="edge">
<title>Node18&#45;&gt;Node19</title>
<path fill="none" stroke="midnightblue" d="M439.52,-77.4C490.3,-66.76 576.38,-48.72 627.89,-37.93"/>
<polygon fill="midnightblue" stroke="midnightblue" points="628.64,-41.35 637.71,-35.87 627.2,-34.5 628.64,-41.35"/>
</g>
<!-- Node20 -->
<g id="node20" class="node">
<title>Node20</title>
<g id="a_node20"><a xlink:href="../../d6/d7d/_v_i_p_limiter_8cpp.html#a9d0226d29242b8bcd92a632ad1fcbb9b" target="_top" xlink:title=" ">
<polygon fill="white" stroke="black" points="501.5,-114.5 501.5,-133.5 587.5,-133.5 587.5,-114.5 501.5,-114.5"/>
<text text-anchor="middle" x="544.5" y="-121.5" font-family="Helvetica,sans-Serif" font-size="10.00">insideQuadCH</text>
</a>
</g>
</g>
<!-- Node18&#45;&gt;Node20 -->
<g id="edge22" class="edge">
<title>Node18&#45;&gt;Node20</title>
<path fill="none" stroke="midnightblue" d="M435.09,-95.59C453.97,-100.54 477.19,-106.62 497.29,-111.89"/>
<polygon fill="midnightblue" stroke="midnightblue" points="496.61,-115.33 507.17,-114.48 498.39,-108.56 496.61,-115.33"/>
</g>
<!-- Node22 -->
<g id="node22" class="node">
<title>Node22</title>
<g id="a_node22"><a xlink:href="../../d6/d7d/_v_i_p_limiter_8cpp.html#ac879daee268a950b8be834e47c9d37b2" target="_top" xlink:title=" ">
<polygon fill="white" stroke="black" points="633,-114.5 633,-133.5 710,-133.5 710,-114.5 633,-114.5"/>
<text text-anchor="middle" x="671.5" y="-121.5" font-family="Helvetica,sans-Serif" font-size="10.00">obtuseAngle</text>
</a>
</g>
</g>
<!-- Node18&#45;&gt;Node22 -->
<g id="edge30" class="edge">
<title>Node18&#45;&gt;Node22</title>
<path fill="none" stroke="midnightblue" d="M439.74,-94.35C448.12,-97.02 456.62,-100.5 464,-105 483.87,-117.11 478.63,-133.81 500,-143 544.95,-162.33 602.42,-149.03 637.84,-137.01"/>
<polygon fill="midnightblue" stroke="midnightblue" points="639.39,-140.17 647.64,-133.53 637.05,-133.58 639.39,-140.17"/>
</g>
<!-- Node23 -->
<g id="node23" class="node">
<title>Node23</title>
<g id="a_node23"><a xlink:href="../../d6/d7d/_v_i_p_limiter_8cpp.html#a904665fb564a0750ebc460f9f31366eb" target="_top" xlink:title=" ">
<polygon fill="white" stroke="black" points="500,-0.5 500,-19.5 589,-19.5 589,-0.5 500,-0.5"/>
<text text-anchor="middle" x="544.5" y="-7.5" font-family="Helvetica,sans-Serif" font-size="10.00">insideSegment</text>
</a>
</g>
</g>
<!-- Node18&#45;&gt;Node23 -->
<g id="edge25" class="edge">
<title>Node18&#45;&gt;Node23</title>
<path fill="none" stroke="midnightblue" d="M416.86,-76.37C441.92,-63.24 487.03,-39.6 516.09,-24.36"/>
<polygon fill="midnightblue" stroke="midnightblue" points="518.05,-27.29 525.28,-19.55 514.8,-21.09 518.05,-27.29"/>
</g>
<!-- Node24 -->
<g id="node24" class="node">
<title>Node24</title>
<g id="a_node24"><a xlink:href="../../d6/d7d/_v_i_p_limiter_8cpp.html#a4926d1cbff5b2f8531a0d136f4cf05ae" target="_top" xlink:title=" ">
<polygon fill="white" stroke="black" points="508.5,-76.5 508.5,-95.5 580.5,-95.5 580.5,-76.5 508.5,-76.5"/>
<text text-anchor="middle" x="544.5" y="-83.5" font-family="Helvetica,sans-Serif" font-size="10.00">insideTriCH</text>
</a>
</g>
</g>
<!-- Node18&#45;&gt;Node24 -->
<g id="edge27" class="edge">
<title>Node18&#45;&gt;Node24</title>
<path fill="none" stroke="midnightblue" d="M439.66,-86C457.89,-86 479.39,-86 498.08,-86"/>
<polygon fill="midnightblue" stroke="midnightblue" points="498.14,-89.5 508.14,-86 498.14,-82.5 498.14,-89.5"/>
</g>
<!-- Node21 -->
<g id="node21" class="node">
<title>Node21</title>
<g id="a_node21"><a xlink:href="../../d6/d7d/_v_i_p_limiter_8cpp.html#ae4c30e0ecabf2aec36a073f3a8123696" target="_top" xlink:title=" ">
<polygon fill="white" stroke="black" points="625,-76.5 625,-95.5 718,-95.5 718,-76.5 625,-76.5"/>
<text text-anchor="middle" x="671.5" y="-83.5" font-family="Helvetica,sans-Serif" font-size="10.00">getPerpendFoot</text>
</a>
</g>
</g>
<!-- Node20&#45;&gt;Node21 -->
<g id="edge23" class="edge">
<title>Node20&#45;&gt;Node21</title>
<path fill="none" stroke="midnightblue" d="M577.04,-114.41C592.88,-109.6 612.27,-103.7 629.28,-98.53"/>
<polygon fill="midnightblue" stroke="midnightblue" points="630.42,-101.84 638.97,-95.59 628.38,-95.15 630.42,-101.84"/>
</g>
<!-- Node20&#45;&gt;Node22 -->
<g id="edge24" class="edge">
<title>Node20&#45;&gt;Node22</title>
<path fill="none" stroke="midnightblue" d="M587.82,-124C598.99,-124 611.12,-124 622.57,-124"/>
<polygon fill="midnightblue" stroke="midnightblue" points="622.84,-127.5 632.84,-124 622.84,-120.5 622.84,-127.5"/>
</g>
<!-- Node23&#45;&gt;Node19 -->
<g id="edge26" class="edge">
<title>Node23&#45;&gt;Node19</title>
<path fill="none" stroke="midnightblue" d="M589.22,-16.65C601.65,-18.53 615.17,-20.59 627.56,-22.47"/>
<polygon fill="midnightblue" stroke="midnightblue" points="627.23,-25.96 637.64,-24.01 628.28,-19.04 627.23,-25.96"/>
</g>
<!-- Node24&#45;&gt;Node21 -->
<g id="edge28" class="edge">
<title>Node24&#45;&gt;Node21</title>
<path fill="none" stroke="midnightblue" d="M580.65,-86C591.26,-86 603.19,-86 614.79,-86"/>
<polygon fill="midnightblue" stroke="midnightblue" points="614.87,-89.5 624.87,-86 614.87,-82.5 614.87,-89.5"/>
</g>
<!-- Node24&#45;&gt;Node22 -->
<g id="edge29" class="edge">
<title>Node24&#45;&gt;Node22</title>
<path fill="none" stroke="midnightblue" d="M577.04,-95.59C592.88,-100.4 612.27,-106.3 629.28,-111.47"/>
<polygon fill="midnightblue" stroke="midnightblue" points="628.38,-114.85 638.97,-114.41 630.42,-108.16 628.38,-114.85"/>
</g>
</g>
</svg>
