<?xml version="1.0" encoding="UTF-8" standalone="no"?>
<!DOCTYPE svg PUBLIC "-//W3C//DTD SVG 1.1//EN"
 "http://www.w3.org/Graphics/SVG/1.1/DTD/svg11.dtd">
<!-- Generated by graphviz version 6.0.1 (0)
 -->
<!-- Title: DispPro Pages: 1 -->
<svg width="310pt" height="165pt"
 viewBox="0.00 0.00 310.00 164.50" xmlns="http://www.w3.org/2000/svg" xmlns:xlink="http://www.w3.org/1999/xlink">
<g id="graph0" class="graph" transform="scale(1 1) rotate(0) translate(4 160.5)">
<title>DispPro</title>
<polygon fill="white" stroke="none" points="-4,4 -4,-160.5 306,-160.5 306,4 -4,4"/>
<!-- Node1 -->
<g id="node1" class="node">
<title>Node1</title>
<g id="a_node1"><a xlink:title="This function print a progress bar on one line of standard output.">
<polygon fill="#bfbfbf" stroke="black" points="248,-60.5 248,-79.5 302,-79.5 302,-60.5 248,-60.5"/>
<text text-anchor="middle" x="275" y="-67.5" font-family="Helvetica,sans-Serif" font-size="10.00">DispPro</text>
</a>
</g>
</g>
<!-- Node2 -->
<g id="node2" class="node">
<title>Node2</title>
<g id="a_node2"><a xlink:href="../../d2/d7d/godunov__solver___e_u_l__source_8c.html#a73d1b94c809db33f336af9374200d7e1" target="_top" xlink:title="This function use Godunov scheme to solve 1&#45;D Euler equations of motion on Eulerian coordinate.">
<polygon fill="white" stroke="black" points="85,-126 85,-156 204,-156 204,-126 85,-126"/>
<text text-anchor="start" x="93" y="-144" font-family="Helvetica,sans-Serif" font-size="10.00">Godunov_solver_EUL</text>
<text text-anchor="middle" x="144.5" y="-133" font-family="Helvetica,sans-Serif" font-size="10.00">_source</text>
</a>
</g>
</g>
<!-- Node1&#45;&gt;Node2 -->
<g id="edge1" class="edge">
<title>Node1&#45;&gt;Node2</title>
<path fill="none" stroke="midnightblue" d="M255.47,-86.42C243.65,-96.27 227.66,-108.49 212,-117 205.96,-120.28 199.38,-123.27 192.79,-125.95"/>
<polygon fill="midnightblue" stroke="midnightblue" points="257.95,-88.91 263.28,-79.75 253.4,-83.59 257.95,-88.91"/>
</g>
<!-- Node4 -->
<g id="node4" class="node">
<title>Node4</title>
<g id="a_node4"><a xlink:href="../../d2/d2f/godunov__solver___l_a_g__source_8c.html#a79def475ebe768563ab00cd2fa839f92" target="_top" xlink:title="This function use Godunov scheme to solve 1&#45;D Euler equations of motion on Lagrangian coordinate.">
<polygon fill="white" stroke="black" points="84,-77 84,-107 205,-107 205,-77 84,-77"/>
<text text-anchor="start" x="92" y="-95" font-family="Helvetica,sans-Serif" font-size="10.00">Godunov_solver_LAG</text>
<text text-anchor="middle" x="144.5" y="-84" font-family="Helvetica,sans-Serif" font-size="10.00">_source</text>
</a>
</g>
</g>
<!-- Node1&#45;&gt;Node4 -->
<g id="edge3" class="edge">
<title>Node1&#45;&gt;Node4</title>
<path fill="none" stroke="midnightblue" d="M237.87,-76.19C227.69,-77.93 216.34,-79.87 205.18,-81.78"/>
<polygon fill="midnightblue" stroke="midnightblue" points="238.73,-79.59 248,-74.45 237.55,-72.69 238.73,-79.59"/>
</g>
<!-- Node5 -->
<g id="node5" class="node">
<title>Node5</title>
<g id="a_node5"><a xlink:href="../../d6/d0b/grp__solver___e_u_l__source_8c.html#a17cb2f4df1a273ffe997d9ac064451cb" target="_top" xlink:title="This function use GRP scheme to solve 1&#45;D Euler equations of motion on Eulerian coordinate.">
<polygon fill="white" stroke="black" points="77.5,-38.5 77.5,-57.5 211.5,-57.5 211.5,-38.5 77.5,-38.5"/>
<text text-anchor="middle" x="144.5" y="-45.5" font-family="Helvetica,sans-Serif" font-size="10.00">GRP_solver_EUL_source</text>
</a>
</g>
</g>
<!-- Node1&#45;&gt;Node5 -->
<g id="edge5" class="edge">
<title>Node1&#45;&gt;Node5</title>
<path fill="none" stroke="midnightblue" d="M237.98,-63.83C226.56,-61.88 213.65,-59.67 201.18,-57.53"/>
<polygon fill="midnightblue" stroke="midnightblue" points="237.55,-67.31 248,-65.55 238.73,-60.41 237.55,-67.31"/>
</g>
<!-- Node6 -->
<g id="node6" class="node">
<title>Node6</title>
<g id="a_node6"><a xlink:href="../../d6/d4f/grp__solver___l_a_g__source_8c.html#a4c8dd56a6ed077100100c1bf9d789425" target="_top" xlink:title="This function use GRP scheme to solve 1&#45;D Euler equations of motion on Lagrangian coordinate.">
<polygon fill="white" stroke="black" points="77,-0.5 77,-19.5 212,-19.5 212,-0.5 77,-0.5"/>
<text text-anchor="middle" x="144.5" y="-7.5" font-family="Helvetica,sans-Serif" font-size="10.00">GRP_solver_LAG_source</text>
</a>
</g>
</g>
<!-- Node1&#45;&gt;Node6 -->
<g id="edge7" class="edge">
<title>Node1&#45;&gt;Node6</title>
<path fill="none" stroke="midnightblue" d="M253.67,-54.26C242,-45.82 226.76,-35.79 212,-29 203.93,-25.29 194.97,-22.13 186.3,-19.52"/>
<polygon fill="midnightblue" stroke="midnightblue" points="251.73,-57.17 261.84,-60.32 255.9,-51.55 251.73,-57.17"/>
</g>
<!-- Node3 -->
<g id="node3" class="node">
<title>Node3</title>
<g id="a_node3"><a xlink:href="../../d2/d24/hydrocode_8c.html#a0ddf1224851353fc92bfbff6f499fa97" target="_top" xlink:title="This is the main function which constructs the main structure of the 1&#45;D Lagrangian/Eulerian hydrocod...">
<polygon fill="white" stroke="black" points="0,-60.5 0,-79.5 41,-79.5 41,-60.5 0,-60.5"/>
<text text-anchor="middle" x="20.5" y="-67.5" font-family="Helvetica,sans-Serif" font-size="10.00">main</text>
</a>
</g>
</g>
<!-- Node2&#45;&gt;Node3 -->
<g id="edge2" class="edge">
<title>Node2&#45;&gt;Node3</title>
<path fill="none" stroke="midnightblue" d="M85.95,-121.73C82.87,-120.24 79.87,-118.66 77,-117 59.08,-106.63 41.34,-90.26 30.91,-79.83"/>
<polygon fill="midnightblue" stroke="midnightblue" points="84.79,-125.04 95.34,-125.95 87.66,-118.66 84.79,-125.04"/>
</g>
<!-- Node4&#45;&gt;Node3 -->
<g id="edge4" class="edge">
<title>Node4&#45;&gt;Node3</title>
<path fill="none" stroke="midnightblue" d="M73.79,-79.43C61.8,-77.27 50.27,-75.19 41.1,-73.53"/>
<polygon fill="midnightblue" stroke="midnightblue" points="73.47,-82.93 83.93,-81.26 74.71,-76.04 73.47,-82.93"/>
</g>
<!-- Node5&#45;&gt;Node3 -->
<g id="edge6" class="edge">
<title>Node5&#45;&gt;Node3</title>
<path fill="none" stroke="midnightblue" d="M80.71,-59.32C66.27,-61.93 51.95,-64.51 41.02,-66.48"/>
<polygon fill="midnightblue" stroke="midnightblue" points="81.48,-62.74 90.7,-57.52 80.24,-55.85 81.48,-62.74"/>
</g>
<!-- Node6&#45;&gt;Node3 -->
<g id="edge8" class="edge">
<title>Node6&#45;&gt;Node3</title>
<path fill="none" stroke="midnightblue" d="M91.71,-22.8C86.65,-24.65 81.66,-26.71 77,-29 60.02,-37.36 42.86,-51.02 32.21,-60.25"/>
<polygon fill="midnightblue" stroke="midnightblue" points="93.12,-26.02 101.49,-19.53 90.9,-19.39 93.12,-26.02"/>
</g>
</g>
</svg>
