<?xml version="1.0" encoding="UTF-8" standalone="no"?>
<!DOCTYPE svg PUBLIC "-//W3C//DTD SVG 1.1//EN"
 "http://www.w3.org/Graphics/SVG/1.1/DTD/svg11.dtd">
<!-- Generated by graphviz version 5.0.0 (0)
 -->
<!-- Title: GRP_solver_EUL_source Pages: 1 -->
<svg width="307pt" height="142pt"
 viewBox="0.00 0.00 307.00 142.00" xmlns="http://www.w3.org/2000/svg" xmlns:xlink="http://www.w3.org/1999/xlink">
<g id="graph0" class="graph" transform="scale(1 1) rotate(0) translate(4 138)">
<title>GRP_solver_EUL_source</title>
<polygon fill="white" stroke="transparent" points="-4,4 -4,-138 303,-138 303,4 -4,4"/>
<!-- Node1 -->
<g id="node1" class="node">
<title>Node1</title>
<g id="a_node1"><a xlink:title="This function use GRP scheme to solve 1&#45;D Euler equations of motion on Eulerian coordinate.">
<polygon fill="#bfbfbf" stroke="black" points="0,-57.5 0,-76.5 134,-76.5 134,-57.5 0,-57.5"/>
<text text-anchor="middle" x="67" y="-64.5" font-family="Helvetica,sans-Serif" font-size="10.00">GRP_solver_EUL_source</text>
</a>
</g>
</g>
<!-- Node2 -->
<g id="node2" class="node">
<title>Node2</title>
<g id="a_node2"><a xlink:href="../../d4/ddd/sys__pro_8c.html#aab058cac35713b52c083b9e54ffa45eb" target="_top" xlink:title="This function print a progress bar on one line of standard output.">
<polygon fill="white" stroke="black" points="207.5,-114.5 207.5,-133.5 261.5,-133.5 261.5,-114.5 207.5,-114.5"/>
<text text-anchor="middle" x="234.5" y="-121.5" font-family="Helvetica,sans-Serif" font-size="10.00">DispPro</text>
</a>
</g>
</g>
<!-- Node1&#45;&gt;Node2 -->
<g id="edge1" class="edge">
<title>Node1&#45;&gt;Node2</title>
<path fill="none" stroke="midnightblue" d="M92.16,-76.51C112.73,-84.49 143.13,-95.98 170,-105 178.88,-107.98 188.53,-110.98 197.56,-113.7"/>
<polygon fill="midnightblue" stroke="midnightblue" points="196.84,-117.13 207.43,-116.62 198.83,-110.42 196.84,-117.13"/>
</g>
<!-- Node3 -->
<g id="node3" class="node">
<title>Node3</title>
<g id="a_node3"><a xlink:href="../../dc/d70/linear___g_r_p__solver___edir_8c.html#a61337737d3b13e3821fef580847feaac" target="_top" xlink:title="A direct Eulerian GRP solver for unsteady compressible inviscid flow in one space dimension.">
<polygon fill="white" stroke="black" points="170,-76.5 170,-95.5 299,-95.5 299,-76.5 170,-76.5"/>
<text text-anchor="middle" x="234.5" y="-83.5" font-family="Helvetica,sans-Serif" font-size="10.00">linear_GRP_solver_Edir</text>
</a>
</g>
</g>
<!-- Node1&#45;&gt;Node3 -->
<g id="edge2" class="edge">
<title>Node1&#45;&gt;Node3</title>
<path fill="none" stroke="midnightblue" d="M134.36,-74.62C142.67,-75.57 151.21,-76.55 159.63,-77.52"/>
<polygon fill="midnightblue" stroke="midnightblue" points="159.48,-81.03 169.81,-78.69 160.28,-74.07 159.48,-81.03"/>
</g>
<!-- Node4 -->
<g id="node4" class="node">
<title>Node4</title>
<g id="a_node4"><a xlink:href="../../d5/da5/tools_8h.html#a4c39aa75a9e5ae0470128caf0b14cd4a" target="_top" xlink:title="Minmod limiter function of two variables.">
<polygon fill="white" stroke="black" points="203,-38.5 203,-57.5 266,-57.5 266,-38.5 203,-38.5"/>
<text text-anchor="middle" x="234.5" y="-45.5" font-family="Helvetica,sans-Serif" font-size="10.00">minmod2</text>
</a>
</g>
</g>
<!-- Node1&#45;&gt;Node4 -->
<g id="edge3" class="edge">
<title>Node1&#45;&gt;Node4</title>
<path fill="none" stroke="midnightblue" d="M134.36,-59.38C154.21,-57.1 175.36,-54.67 193.01,-52.65"/>
<polygon fill="midnightblue" stroke="midnightblue" points="193.43,-56.12 202.96,-51.51 192.63,-49.17 193.43,-56.12"/>
</g>
<!-- Node5 -->
<g id="node5" class="node">
<title>Node5</title>
<g id="a_node5"><a xlink:href="../../d5/da5/tools_8h.html#a80be373c5a956ec0cc7944b199b68ca7" target="_top" xlink:title="Minmod limiter function of three variables.">
<polygon fill="white" stroke="black" points="203,-0.5 203,-19.5 266,-19.5 266,-0.5 203,-0.5"/>
<text text-anchor="middle" x="234.5" y="-7.5" font-family="Helvetica,sans-Serif" font-size="10.00">minmod3</text>
</a>
</g>
</g>
<!-- Node1&#45;&gt;Node5 -->
<g id="edge4" class="edge">
<title>Node1&#45;&gt;Node5</title>
<path fill="none" stroke="midnightblue" d="M92.16,-57.49C112.73,-49.51 143.13,-38.02 170,-29 177.36,-26.53 185.25,-24.04 192.88,-21.72"/>
<polygon fill="midnightblue" stroke="midnightblue" points="194.12,-25 202.69,-18.78 192.1,-18.3 194.12,-25"/>
</g>
</g>
</svg>
