<?xml version="1.0" encoding="UTF-8" standalone="no"?>
<!DOCTYPE svg PUBLIC "-//W3C//DTD SVG 1.1//EN"
 "http://www.w3.org/Graphics/SVG/1.1/DTD/svg11.dtd">
<!-- Generated by graphviz version 6.0.1 (0)
 -->
<!-- Title: GRP_solver_EUL_source Pages: 1 -->
<svg width="552pt" height="199pt"
 viewBox="0.00 0.00 552.00 199.00" xmlns="http://www.w3.org/2000/svg" xmlns:xlink="http://www.w3.org/1999/xlink">
<g id="graph0" class="graph" transform="scale(1 1) rotate(0) translate(4 195)">
<title>GRP_solver_EUL_source</title>
<polygon fill="white" stroke="none" points="-4,4 -4,-195 548,-195 548,4 -4,4"/>
<!-- Node1 -->
<g id="node1" class="node">
<title>Node1</title>
<g id="a_node1"><a xlink:title="This function use GRP scheme to solve 1&#45;D Euler equations of motion on Eulerian coordinate.">
<polygon fill="#bfbfbf" stroke="black" points="0,-76.5 0,-95.5 134,-95.5 134,-76.5 0,-76.5"/>
<text text-anchor="middle" x="67" y="-83.5" font-family="Helvetica,sans-Serif" font-size="10.00">GRP_solver_EUL_source</text>
</a>
</g>
</g>
<!-- Node2 -->
<g id="node2" class="node">
<title>Node2</title>
<g id="a_node2"><a xlink:href="../../df/d13/bound__cond__slope__limiter_8c.html#a64546388aefaa98c2cb33c8607c54c67" target="_top" xlink:title="This function apply the minmod limiter to the slope in one dimension.">
<polygon fill="white" stroke="black" points="170,-152.5 170,-171.5 314,-171.5 314,-152.5 170,-152.5"/>
<text text-anchor="middle" x="242" y="-159.5" font-family="Helvetica,sans-Serif" font-size="10.00">bound_cond_slope_limiter</text>
</a>
</g>
</g>
<!-- Node1&#45;&gt;Node2 -->
<g id="edge1" class="edge">
<title>Node1&#45;&gt;Node2</title>
<path fill="none" stroke="midnightblue" d="M82.62,-95.71C101.93,-108.16 137.29,-129.73 170,-143 175.9,-145.39 182.19,-147.58 188.5,-149.54"/>
<polygon fill="midnightblue" stroke="midnightblue" points="187.8,-152.98 198.38,-152.44 189.78,-146.26 187.8,-152.98"/>
</g>
<!-- Node6 -->
<g id="node6" class="node">
<title>Node6</title>
<g id="a_node6"><a xlink:href="../../d4/ddd/sys__pro_8c.html#aab058cac35713b52c083b9e54ffa45eb" target="_top" xlink:title="This function print a progress bar on one line of standard output.">
<polygon fill="white" stroke="black" points="215,-114.5 215,-133.5 269,-133.5 269,-114.5 215,-114.5"/>
<text text-anchor="middle" x="242" y="-121.5" font-family="Helvetica,sans-Serif" font-size="10.00">DispPro</text>
</a>
</g>
</g>
<!-- Node1&#45;&gt;Node6 -->
<g id="edge5" class="edge">
<title>Node1&#45;&gt;Node6</title>
<path fill="none" stroke="midnightblue" d="M111.66,-95.59C140.5,-101.93 177.85,-110.13 205,-116.09"/>
<polygon fill="midnightblue" stroke="midnightblue" points="204.34,-119.53 214.86,-118.26 205.84,-112.69 204.34,-119.53"/>
</g>
<!-- Node7 -->
<g id="node7" class="node">
<title>Node7</title>
<g id="a_node7"><a xlink:href="../../d7/d5a/fluid__var__check_8c.html#a29ead600b8eb62cb272068d83dadcc46" target="_top" xlink:title="This function checks whether interfacial fluid variables are within the value range.">
<polygon fill="white" stroke="black" points="205.5,-76.5 205.5,-95.5 278.5,-95.5 278.5,-76.5 205.5,-76.5"/>
<text text-anchor="middle" x="242" y="-83.5" font-family="Helvetica,sans-Serif" font-size="10.00">ifvar_check</text>
</a>
</g>
</g>
<!-- Node1&#45;&gt;Node7 -->
<g id="edge6" class="edge">
<title>Node1&#45;&gt;Node7</title>
<path fill="none" stroke="midnightblue" d="M134.39,-86C154.56,-86 176.27,-86 194.8,-86"/>
<polygon fill="midnightblue" stroke="midnightblue" points="195.02,-89.5 205.02,-86 195.02,-82.5 195.02,-89.5"/>
</g>
<!-- Node8 -->
<g id="node8" class="node">
<title>Node8</title>
<g id="a_node8"><a xlink:href="../../d0/d07/linear__grp__solver___edir_8c.html#a2ad668bcecaaced69331652aa76193e2" target="_top" xlink:title="A direct Eulerian GRP solver for unsteady compressible inviscid flow in one space dimension.">
<polygon fill="white" stroke="black" points="177.5,-38.5 177.5,-57.5 306.5,-57.5 306.5,-38.5 177.5,-38.5"/>
<text text-anchor="middle" x="242" y="-45.5" font-family="Helvetica,sans-Serif" font-size="10.00">linear_GRP_solver_Edir</text>
</a>
</g>
</g>
<!-- Node1&#45;&gt;Node8 -->
<g id="edge7" class="edge">
<title>Node1&#45;&gt;Node8</title>
<path fill="none" stroke="midnightblue" d="M111.66,-76.41C134.79,-71.33 163.4,-65.04 187.83,-59.68"/>
<polygon fill="midnightblue" stroke="midnightblue" points="188.64,-63.08 197.66,-57.52 187.14,-56.25 188.64,-63.08"/>
</g>
<!-- Node9 -->
<g id="node9" class="node">
<title>Node9</title>
<g id="a_node9"><a xlink:href="../../d7/d5a/fluid__var__check_8c.html#a0177056576942ce464bb53db4dcb5138" target="_top" xlink:title="This function checks whether fluid variables of mid[] and dire[] are within the value range.">
<polygon fill="white" stroke="black" points="195.5,-0.5 195.5,-19.5 288.5,-19.5 288.5,-0.5 195.5,-0.5"/>
<text text-anchor="middle" x="242" y="-7.5" font-family="Helvetica,sans-Serif" font-size="10.00">star_dire_check</text>
</a>
</g>
</g>
<!-- Node1&#45;&gt;Node9 -->
<g id="edge8" class="edge">
<title>Node1&#45;&gt;Node9</title>
<path fill="none" stroke="midnightblue" d="M82.62,-76.29C101.93,-63.84 137.29,-42.27 170,-29 175.9,-26.61 182.19,-24.42 188.5,-22.46"/>
<polygon fill="midnightblue" stroke="midnightblue" points="189.78,-25.74 198.38,-19.56 187.8,-19.02 189.78,-25.74"/>
</g>
<!-- Node3 -->
<g id="node3" class="node">
<title>Node3</title>
<g id="a_node3"><a xlink:href="../../d2/d49/slope__limiter_8c.html#aa63cbccebc0f88cf7397d2e594a861ae" target="_top" xlink:title="This function apply the minmod limiter to the slope in one dimension.">
<polygon fill="white" stroke="black" points="350,-152.5 350,-171.5 445,-171.5 445,-152.5 350,-152.5"/>
<text text-anchor="middle" x="397.5" y="-159.5" font-family="Helvetica,sans-Serif" font-size="10.00">minmod_limiter</text>
</a>
</g>
</g>
<!-- Node2&#45;&gt;Node3 -->
<g id="edge2" class="edge">
<title>Node2&#45;&gt;Node3</title>
<path fill="none" stroke="midnightblue" d="M314.36,-162C322.84,-162 331.4,-162 339.64,-162"/>
<polygon fill="midnightblue" stroke="midnightblue" points="339.87,-165.5 349.87,-162 339.87,-158.5 339.87,-165.5"/>
</g>
<!-- Node4 -->
<g id="node4" class="node">
<title>Node4</title>
<g id="a_node4"><a xlink:href="../../d5/da5/tools_8h.html#a56cac3298eeead8cf22c1e61eb5a5a88" target="_top" xlink:title="Minmod limiter function of two variables.">
<polygon fill="white" stroke="black" points="481,-171.5 481,-190.5 544,-190.5 544,-171.5 481,-171.5"/>
<text text-anchor="middle" x="512.5" y="-178.5" font-family="Helvetica,sans-Serif" font-size="10.00">minmod2</text>
</a>
</g>
</g>
<!-- Node3&#45;&gt;Node4 -->
<g id="edge3" class="edge">
<title>Node3&#45;&gt;Node4</title>
<path fill="none" stroke="midnightblue" d="M445.11,-169.84C453.67,-171.28 462.54,-172.77 470.91,-174.17"/>
<polygon fill="midnightblue" stroke="midnightblue" points="470.36,-177.63 480.8,-175.84 471.52,-170.73 470.36,-177.63"/>
</g>
<!-- Node5 -->
<g id="node5" class="node">
<title>Node5</title>
<g id="a_node5"><a xlink:href="../../d5/da5/tools_8h.html#a6dfba28e1af33b47f4656d3738996fe9" target="_top" xlink:title="Minmod limiter function of three variables.">
<polygon fill="white" stroke="black" points="481,-133.5 481,-152.5 544,-152.5 544,-133.5 481,-133.5"/>
<text text-anchor="middle" x="512.5" y="-140.5" font-family="Helvetica,sans-Serif" font-size="10.00">minmod3</text>
</a>
</g>
</g>
<!-- Node3&#45;&gt;Node5 -->
<g id="edge4" class="edge">
<title>Node3&#45;&gt;Node5</title>
<path fill="none" stroke="midnightblue" d="M445.11,-154.16C453.67,-152.72 462.54,-151.23 470.91,-149.83"/>
<polygon fill="midnightblue" stroke="midnightblue" points="471.52,-153.27 480.8,-148.16 470.36,-146.37 471.52,-153.27"/>
</g>
</g>
</svg>
