<?xml version="1.0" encoding="UTF-8" standalone="no"?>
<!DOCTYPE svg PUBLIC "-//W3C//DTD SVG 1.1//EN"
 "http://www.w3.org/Graphics/SVG/1.1/DTD/svg11.dtd">
<!-- Generated by graphviz version 6.0.1 (0)
 -->
<!-- Title: src~/finite_volume/godunov_solver_LAG_source.c Pages: 1 -->
<svg width="777pt" height="173pt"
 viewBox="0.00 0.00 776.50 173.00" xmlns="http://www.w3.org/2000/svg" xmlns:xlink="http://www.w3.org/1999/xlink">
<g id="graph0" class="graph" transform="scale(1 1) rotate(0) translate(4 169)">
<title>src~/finite_volume/godunov_solver_LAG_source.c</title>
<polygon fill="white" stroke="none" points="-4,4 -4,-169 772.5,-169 772.5,4 -4,4"/>
<!-- Node1 -->
<g id="node1" class="node">
<title>Node1</title>
<g id="a_node1"><a xlink:title="This is a Lagrangian Godunov scheme to solve 1&#45;D Euler equations.">
<polygon fill="#bfbfbf" stroke="black" points="245,-123.5 245,-164.5 367,-164.5 367,-123.5 245,-123.5"/>
<text text-anchor="start" x="253" y="-152.5" font-family="Helvetica,sans-Serif" font-size="10.00">src~/finite_volume</text>
<text text-anchor="start" x="253" y="-141.5" font-family="Helvetica,sans-Serif" font-size="10.00">/godunov_solver_LAG</text>
<text text-anchor="middle" x="306" y="-130.5" font-family="Helvetica,sans-Serif" font-size="10.00">_source.c</text>
</a>
</g>
</g>
<!-- Node2 -->
<g id="node2" class="node">
<title>Node2</title>
<g id="a_node2"><a xlink:title=" ">
<polygon fill="white" stroke="#bfbfbf" points="0,-62 0,-81 50,-81 50,-62 0,-62"/>
<text text-anchor="middle" x="25" y="-69" font-family="Helvetica,sans-Serif" font-size="10.00">stdio.h</text>
</a>
</g>
</g>
<!-- Node1&#45;&gt;Node2 -->
<g id="edge1" class="edge">
<title>Node1&#45;&gt;Node2</title>
<path fill="none" stroke="midnightblue" d="M244.78,-132.31C194.29,-122.73 121.12,-107.11 59,-87 57.08,-86.38 55.11,-85.69 53.15,-84.96"/>
<polygon fill="midnightblue" stroke="midnightblue" points="54.06,-81.56 43.48,-81.09 51.46,-88.06 54.06,-81.56"/>
</g>
<!-- Node3 -->
<g id="node3" class="node">
<title>Node3</title>
<g id="a_node3"><a xlink:title=" ">
<polygon fill="white" stroke="#bfbfbf" points="68.5,-62 68.5,-81 119.5,-81 119.5,-62 68.5,-62"/>
<text text-anchor="middle" x="94" y="-69" font-family="Helvetica,sans-Serif" font-size="10.00">math.h</text>
</a>
</g>
</g>
<!-- Node1&#45;&gt;Node3 -->
<g id="edge2" class="edge">
<title>Node1&#45;&gt;Node3</title>
<path fill="none" stroke="midnightblue" d="M244.94,-125.1C210.63,-114.69 167.15,-100.91 129,-87 127.15,-86.32 125.25,-85.61 123.34,-84.87"/>
<polygon fill="midnightblue" stroke="midnightblue" points="124.46,-81.55 113.87,-81.08 121.86,-88.05 124.46,-81.55"/>
</g>
<!-- Node4 -->
<g id="node4" class="node">
<title>Node4</title>
<g id="a_node4"><a xlink:title=" ">
<polygon fill="white" stroke="#bfbfbf" points="137.5,-62 137.5,-81 190.5,-81 190.5,-62 137.5,-62"/>
<text text-anchor="middle" x="164" y="-69" font-family="Helvetica,sans-Serif" font-size="10.00">stdlib.h</text>
</a>
</g>
</g>
<!-- Node1&#45;&gt;Node4 -->
<g id="edge3" class="edge">
<title>Node1&#45;&gt;Node4</title>
<path fill="none" stroke="midnightblue" d="M266.45,-123.36C242.25,-111.35 211.95,-96.3 190.6,-85.7"/>
<polygon fill="midnightblue" stroke="midnightblue" points="191.98,-82.49 181.47,-81.17 188.87,-88.76 191.98,-82.49"/>
</g>
<!-- Node5 -->
<g id="node5" class="node">
<title>Node5</title>
<g id="a_node5"><a xlink:title=" ">
<polygon fill="white" stroke="#bfbfbf" points="209,-62 209,-81 257,-81 257,-62 209,-62"/>
<text text-anchor="middle" x="233" y="-69" font-family="Helvetica,sans-Serif" font-size="10.00">time.h</text>
</a>
</g>
</g>
<!-- Node1&#45;&gt;Node5 -->
<g id="edge4" class="edge">
<title>Node1&#45;&gt;Node5</title>
<path fill="none" stroke="midnightblue" d="M285.67,-123.36C274.24,-112.32 260.15,-98.72 249.43,-88.37"/>
<polygon fill="midnightblue" stroke="midnightblue" points="251.61,-85.6 241.98,-81.17 246.74,-90.64 251.61,-85.6"/>
</g>
<!-- Node6 -->
<g id="node6" class="node">
<title>Node6</title>
<g id="a_node6"><a xlink:title=" ">
<polygon fill="white" stroke="#bfbfbf" points="275,-62 275,-81 337,-81 337,-62 275,-62"/>
<text text-anchor="middle" x="306" y="-69" font-family="Helvetica,sans-Serif" font-size="10.00">stdbool.h</text>
</a>
</g>
</g>
<!-- Node1&#45;&gt;Node6 -->
<g id="edge5" class="edge">
<title>Node1&#45;&gt;Node6</title>
<path fill="none" stroke="midnightblue" d="M306,-123.36C306,-113.3 306,-101.1 306,-91.18"/>
<polygon fill="midnightblue" stroke="midnightblue" points="309.5,-91.17 306,-81.17 302.5,-91.17 309.5,-91.17"/>
</g>
<!-- Node7 -->
<g id="node7" class="node">
<title>Node7</title>
<g id="a_node7"><a xlink:href="../../da/d1e/var__struc_8h.html" target="_top" xlink:title="This file is the header file of some globally common variables and structural bodies.">
<polygon fill="white" stroke="black" points="386,-0.5 386,-19.5 504,-19.5 504,-0.5 386,-0.5"/>
<text text-anchor="middle" x="445" y="-7.5" font-family="Helvetica,sans-Serif" font-size="10.00">../include/var_struc.h</text>
</a>
</g>
</g>
<!-- Node1&#45;&gt;Node7 -->
<g id="edge6" class="edge">
<title>Node1&#45;&gt;Node7</title>
<path fill="none" stroke="midnightblue" d="M321.69,-123.29C336.74,-104.94 360.58,-77.29 384,-56 396.26,-44.86 411.22,-33.79 423.25,-25.42"/>
<polygon fill="midnightblue" stroke="midnightblue" points="425.51,-28.12 431.79,-19.59 421.56,-22.33 425.51,-28.12"/>
</g>
<!-- Node8 -->
<g id="node8" class="node">
<title>Node8</title>
<g id="a_node8"><a xlink:href="../../df/ded/riemann__solver_8h.html" target="_top" xlink:title="This file is the header file of several Riemann solvers and GRP solvers.">
<polygon fill="white" stroke="black" points="393,-56.5 393,-86.5 497,-86.5 497,-56.5 393,-56.5"/>
<text text-anchor="start" x="401" y="-74.5" font-family="Helvetica,sans-Serif" font-size="10.00">../include/riemann</text>
<text text-anchor="middle" x="445" y="-63.5" font-family="Helvetica,sans-Serif" font-size="10.00">_solver.h</text>
</a>
</g>
</g>
<!-- Node1&#45;&gt;Node8 -->
<g id="edge7" class="edge">
<title>Node1&#45;&gt;Node8</title>
<path fill="none" stroke="midnightblue" d="M344.72,-123.36C364.55,-113.3 388.58,-101.12 408.14,-91.2"/>
<polygon fill="midnightblue" stroke="midnightblue" points="409.73,-94.31 417.06,-86.67 406.56,-88.07 409.73,-94.31"/>
</g>
<!-- Node9 -->
<g id="node9" class="node">
<title>Node9</title>
<g id="a_node9"><a xlink:href="../../d6/d6f/inter__process_8h.html" target="_top" xlink:title="This file is the header file of intermediate processes of finite volume scheme.">
<polygon fill="white" stroke="black" points="515,-62 515,-81 653,-81 653,-62 515,-62"/>
<text text-anchor="middle" x="584" y="-69" font-family="Helvetica,sans-Serif" font-size="10.00">../include/inter_process.h</text>
</a>
</g>
</g>
<!-- Node1&#45;&gt;Node9 -->
<g id="edge9" class="edge">
<title>Node1&#45;&gt;Node9</title>
<path fill="none" stroke="midnightblue" d="M367.01,-127.53C419.42,-114.24 493.71,-95.4 540.35,-83.57"/>
<polygon fill="midnightblue" stroke="midnightblue" points="541.32,-86.93 550.15,-81.08 539.6,-80.15 541.32,-86.93"/>
</g>
<!-- Node10 -->
<g id="node10" class="node">
<title>Node10</title>
<g id="a_node10"><a xlink:href="../../d5/da5/tools_8h.html" target="_top" xlink:title="This file is the header file of several independent tool functions.">
<polygon fill="white" stroke="black" points="671.5,-62 671.5,-81 768.5,-81 768.5,-62 671.5,-62"/>
<text text-anchor="middle" x="720" y="-69" font-family="Helvetica,sans-Serif" font-size="10.00">../include/tools.h</text>
</a>
</g>
</g>
<!-- Node1&#45;&gt;Node10 -->
<g id="edge11" class="edge">
<title>Node1&#45;&gt;Node10</title>
<path fill="none" stroke="midnightblue" d="M367.08,-135.08C438.23,-125.46 559.15,-107.9 662,-87 667.14,-85.95 672.52,-84.76 677.83,-83.51"/>
<polygon fill="midnightblue" stroke="midnightblue" points="679.01,-86.82 687.9,-81.07 677.36,-80.02 679.01,-86.82"/>
</g>
<!-- Node8&#45;&gt;Node7 -->
<g id="edge8" class="edge">
<title>Node8&#45;&gt;Node7</title>
<path fill="none" stroke="midnightblue" d="M445,-56.4C445,-48.47 445,-38.46 445,-29.86"/>
<polygon fill="midnightblue" stroke="midnightblue" points="448.5,-29.66 445,-19.66 441.5,-29.66 448.5,-29.66"/>
</g>
<!-- Node9&#45;&gt;Node7 -->
<g id="edge10" class="edge">
<title>Node9&#45;&gt;Node7</title>
<path fill="none" stroke="midnightblue" d="M564.08,-61.98C540.55,-51.9 501.19,-35.05 474.21,-23.5"/>
<polygon fill="midnightblue" stroke="midnightblue" points="475.45,-20.23 464.88,-19.51 472.69,-26.66 475.45,-20.23"/>
</g>
</g>
</svg>
