<?xml version="1.0" encoding="UTF-8" standalone="no"?>
<!DOCTYPE svg PUBLIC "-//W3C//DTD SVG 1.1//EN"
 "http://www.w3.org/Graphics/SVG/1.1/DTD/svg11.dtd">
<!-- Generated by graphviz version 6.0.1 (0)
 -->
<!-- Title: src~/include/flux_calc.h Pages: 1 -->
<svg width="551pt" height="106pt"
 viewBox="0.00 0.00 551.00 106.00" xmlns="http://www.w3.org/2000/svg" xmlns:xlink="http://www.w3.org/1999/xlink">
<g id="graph0" class="graph" transform="scale(1 1) rotate(0) translate(4 102)">
<title>src~/include/flux_calc.h</title>
<polygon fill="white" stroke="none" points="-4,4 -4,-102 547,-102 547,4 -4,4"/>
<!-- Node1 -->
<g id="node1" class="node">
<title>Node1</title>
<g id="a_node1"><a xlink:title="This file is the header file of intermediate processes of finite volume scheme.">
<polygon fill="#bfbfbf" stroke="black" points="233,-78.5 233,-97.5 366,-97.5 366,-78.5 233,-78.5"/>
<text text-anchor="middle" x="299.5" y="-85.5" font-family="Helvetica,sans-Serif" font-size="10.00">src~/include/flux_calc.h</text>
</a>
</g>
</g>
<!-- Node2 -->
<g id="node2" class="node">
<title>Node2</title>
<g id="a_node2"><a xlink:href="../../d1/d4b/grp__solver__2_d___e_u_l__source_8c.html" target="_top" xlink:title="This is an Eulerian GRP scheme to solve 2&#45;D Euler equations without dimension splitting.">
<polygon fill="white" stroke="black" points="0,-6 0,-36 159,-36 159,-6 0,-6"/>
<text text-anchor="start" x="8" y="-24" font-family="Helvetica,sans-Serif" font-size="10.00">src~/finite_volume</text>
<text text-anchor="middle" x="79.5" y="-13" font-family="Helvetica,sans-Serif" font-size="10.00">/grp_solver_2D_EUL_source.c</text>
</a>
</g>
</g>
<!-- Node1&#45;&gt;Node2 -->
<g id="edge1" class="edge">
<title>Node1&#45;&gt;Node2</title>
<path fill="none" stroke="midnightblue" d="M260.29,-75.42C222.99,-64.4 166.8,-47.79 126.98,-36.03"/>
<polygon fill="midnightblue" stroke="midnightblue" points="259.7,-78.89 270.29,-78.37 261.69,-72.18 259.7,-78.89"/>
</g>
<!-- Node3 -->
<g id="node3" class="node">
<title>Node3</title>
<g id="a_node3"><a xlink:href="../../df/d07/grp__solver__2_d__split___e_u_l__source_8c.html" target="_top" xlink:title="This is an Eulerian GRP scheme to solve 2&#45;D Euler equations with dimension splitting.">
<polygon fill="white" stroke="black" points="176.5,-0.5 176.5,-41.5 292.5,-41.5 292.5,-0.5 176.5,-0.5"/>
<text text-anchor="start" x="184.5" y="-29.5" font-family="Helvetica,sans-Serif" font-size="10.00">src~/finite_volume</text>
<text text-anchor="start" x="184.5" y="-18.5" font-family="Helvetica,sans-Serif" font-size="10.00">/grp_solver_2D_split</text>
<text text-anchor="middle" x="234.5" y="-7.5" font-family="Helvetica,sans-Serif" font-size="10.00">_EUL_source.c</text>
</a>
</g>
</g>
<!-- Node1&#45;&gt;Node3 -->
<g id="edge2" class="edge">
<title>Node1&#45;&gt;Node3</title>
<path fill="none" stroke="midnightblue" d="M283.59,-71.09C274.67,-62.17 263.48,-50.98 254.04,-41.54"/>
<polygon fill="midnightblue" stroke="midnightblue" points="281.19,-73.64 290.73,-78.23 286.14,-68.69 281.19,-73.64"/>
</g>
<!-- Node4 -->
<g id="node4" class="node">
<title>Node4</title>
<g id="a_node4"><a xlink:href="../../de/d35/flux__generator__x_8c.html" target="_top" xlink:title="This file is a function which generates Eulerian fluxes in x&#45;direction of 2&#45;D Euler equations solved ...">
<polygon fill="white" stroke="black" points="311,-6 311,-36 418,-36 418,-6 311,-6"/>
<text text-anchor="start" x="319" y="-24" font-family="Helvetica,sans-Serif" font-size="10.00">src~/flux_calc/flux</text>
<text text-anchor="middle" x="364.5" y="-13" font-family="Helvetica,sans-Serif" font-size="10.00">_generator_x.c</text>
</a>
</g>
</g>
<!-- Node1&#45;&gt;Node4 -->
<g id="edge3" class="edge">
<title>Node1&#45;&gt;Node4</title>
<path fill="none" stroke="midnightblue" d="M315.38,-71.12C326.09,-60.41 340.1,-46.4 350.41,-36.09"/>
<polygon fill="midnightblue" stroke="midnightblue" points="312.86,-68.69 308.27,-78.23 317.81,-73.64 312.86,-68.69"/>
</g>
<!-- Node5 -->
<g id="node5" class="node">
<title>Node5</title>
<g id="a_node5"><a xlink:href="../../de/db1/flux__generator__y_8c.html" target="_top" xlink:title="This file is a function which generates Eulerian fluxes in y&#45;direction of 2&#45;D Euler equations solved ...">
<polygon fill="white" stroke="black" points="436,-6 436,-36 543,-36 543,-6 436,-6"/>
<text text-anchor="start" x="444" y="-24" font-family="Helvetica,sans-Serif" font-size="10.00">src~/flux_calc/flux</text>
<text text-anchor="middle" x="489.5" y="-13" font-family="Helvetica,sans-Serif" font-size="10.00">_generator_y.c</text>
</a>
</g>
</g>
<!-- Node1&#45;&gt;Node5 -->
<g id="edge4" class="edge">
<title>Node1&#45;&gt;Node5</title>
<path fill="none" stroke="midnightblue" d="M334.61,-74.99C366.82,-63.97 414.54,-47.64 448.49,-36.03"/>
<polygon fill="midnightblue" stroke="midnightblue" points="333.06,-71.82 324.73,-78.37 335.33,-78.44 333.06,-71.82"/>
</g>
</g>
</svg>
