<?xml version="1.0" encoding="UTF-8" standalone="no"?>
<!DOCTYPE svg PUBLIC "-//W3C//DTD SVG 1.1//EN"
 "http://www.w3.org/Graphics/SVG/1.1/DTD/svg11.dtd">
<!-- Generated by graphviz version 5.0.0 (0)
 -->
<!-- Title: /home/leixin/Programs/HydroCODE/src/include/Riemann_solver.h Pages: 1 -->
<svg width="2121pt" height="139pt"
 viewBox="0.00 0.00 2121.00 139.00" xmlns="http://www.w3.org/2000/svg" xmlns:xlink="http://www.w3.org/1999/xlink">
<g id="graph0" class="graph" transform="scale(1 1) rotate(0) translate(4 135)">
<title>/home/leixin/Programs/HydroCODE/src/include/Riemann_solver.h</title>
<polygon fill="white" stroke="transparent" points="-4,4 -4,-135 2117,-135 2117,4 -4,4"/>
<!-- Node1 -->
<g id="node1" class="node">
<title>Node1</title>
<g id="a_node1"><a xlink:title="This file is the header file of several Riemann solvers and GRP solvers.">
<polygon fill="#bfbfbf" stroke="black" points="1024,-89.5 1024,-130.5 1156,-130.5 1156,-89.5 1024,-89.5"/>
<text text-anchor="start" x="1032" y="-118.5" font-family="Helvetica,sans-Serif" font-size="10.00">/home/leixin/Programs</text>
<text text-anchor="start" x="1032" y="-107.5" font-family="Helvetica,sans-Serif" font-size="10.00">/HydroCODE/src/include</text>
<text text-anchor="middle" x="1090" y="-96.5" font-family="Helvetica,sans-Serif" font-size="10.00">/Riemann_solver.h</text>
</a>
</g>
</g>
<!-- Node2 -->
<g id="node2" class="node">
<title>Node2</title>
<g id="a_node2"><a xlink:href="../../dc/d70/linear___g_r_p__solver___edir_8c.html" target="_top" xlink:title="This is a direct Eulerian GRP solver for compressible inviscid flow in Li&#39;s paper.">
<polygon fill="white" stroke="black" points="0,-6 0,-47 176,-47 176,-6 0,-6"/>
<text text-anchor="start" x="8" y="-35" font-family="Helvetica,sans-Serif" font-size="10.00">/home/leixin/Programs</text>
<text text-anchor="start" x="8" y="-24" font-family="Helvetica,sans-Serif" font-size="10.00">/HydroCODE/src/Riemann</text>
<text text-anchor="middle" x="88" y="-13" font-family="Helvetica,sans-Serif" font-size="10.00">_solver/linear_GRP_solver_Edir.c</text>
</a>
</g>
</g>
<!-- Node1&#45;&gt;Node2 -->
<g id="edge1" class="edge">
<title>Node1&#45;&gt;Node2</title>
<path fill="none" stroke="midnightblue" d="M1013.48,-109.28C856.9,-108.76 489.05,-101.89 185,-53 175.37,-51.45 165.32,-49.36 155.48,-47.04"/>
<polygon fill="midnightblue" stroke="midnightblue" points="1013.93,-112.78 1023.93,-109.31 1013.94,-105.78 1013.93,-112.78"/>
</g>
<!-- Node3 -->
<g id="node3" class="node">
<title>Node3</title>
<g id="a_node3"><a xlink:href="../../d3/da7/linear___g_r_p__solver___edir___g2_d_8c.html" target="_top" xlink:title="This is a Genuinely&#45;2D direct Eulerian GRP solver for compressible inviscid flow in Li&#39;s paper.">
<polygon fill="white" stroke="black" points="194.5,-0.5 194.5,-52.5 337.5,-52.5 337.5,-0.5 194.5,-0.5"/>
<text text-anchor="start" x="202.5" y="-40.5" font-family="Helvetica,sans-Serif" font-size="10.00">/home/leixin/Programs</text>
<text text-anchor="start" x="202.5" y="-29.5" font-family="Helvetica,sans-Serif" font-size="10.00">/HydroCODE/src/Riemann</text>
<text text-anchor="start" x="202.5" y="-18.5" font-family="Helvetica,sans-Serif" font-size="10.00">_solver/linear_GRP_solver</text>
<text text-anchor="middle" x="266" y="-7.5" font-family="Helvetica,sans-Serif" font-size="10.00">_Edir_G2D.c</text>
</a>
</g>
</g>
<!-- Node1&#45;&gt;Node3 -->
<g id="edge2" class="edge">
<title>Node1&#45;&gt;Node3</title>
<path fill="none" stroke="midnightblue" d="M1013.6,-109.1C877.92,-107.97 586.57,-99.73 346,-53 343.28,-52.47 340.53,-51.88 337.75,-51.24"/>
<polygon fill="midnightblue" stroke="midnightblue" points="1013.86,-112.6 1023.88,-109.17 1013.91,-105.6 1013.86,-112.6"/>
</g>
<!-- Node4 -->
<g id="node4" class="node">
<title>Node4</title>
<g id="a_node4"><a xlink:href="../../d5/dea/linear___g_r_p__solver___edir___q1_d_8c.html" target="_top" xlink:title="This is a Quasi&#45;1D direct Eulerian GRP solver for compressible inviscid flow in Li&#39;s paper.">
<polygon fill="white" stroke="black" points="355.5,-0.5 355.5,-52.5 498.5,-52.5 498.5,-0.5 355.5,-0.5"/>
<text text-anchor="start" x="363.5" y="-40.5" font-family="Helvetica,sans-Serif" font-size="10.00">/home/leixin/Programs</text>
<text text-anchor="start" x="363.5" y="-29.5" font-family="Helvetica,sans-Serif" font-size="10.00">/HydroCODE/src/Riemann</text>
<text text-anchor="start" x="363.5" y="-18.5" font-family="Helvetica,sans-Serif" font-size="10.00">_solver/linear_GRP_solver</text>
<text text-anchor="middle" x="427" y="-7.5" font-family="Helvetica,sans-Serif" font-size="10.00">_Edir_Q1D.c</text>
</a>
</g>
</g>
<!-- Node1&#45;&gt;Node4 -->
<g id="edge3" class="edge">
<title>Node1&#45;&gt;Node4</title>
<path fill="none" stroke="midnightblue" d="M1013.55,-106.83C901.41,-102.49 686.18,-89.73 507,-53 504.29,-52.44 501.54,-51.83 498.77,-51.17"/>
<polygon fill="midnightblue" stroke="midnightblue" points="1013.62,-110.34 1023.75,-107.21 1013.89,-103.34 1013.62,-110.34"/>
</g>
<!-- Node5 -->
<g id="node5" class="node">
<title>Node5</title>
<g id="a_node5"><a xlink:href="../../de/d81/linear___g_r_p__solver___l_a_g_8c.html" target="_top" xlink:title="This is a Lagrangian GRP solver for compressible inviscid flow in Ben&#45;Artzi&#39;s paper.">
<polygon fill="white" stroke="black" points="516.5,-6 516.5,-47 693.5,-47 693.5,-6 516.5,-6"/>
<text text-anchor="start" x="524.5" y="-35" font-family="Helvetica,sans-Serif" font-size="10.00">/home/leixin/Programs</text>
<text text-anchor="start" x="524.5" y="-24" font-family="Helvetica,sans-Serif" font-size="10.00">/HydroCODE/src/Riemann</text>
<text text-anchor="middle" x="605" y="-13" font-family="Helvetica,sans-Serif" font-size="10.00">_solver/linear_GRP_solver_LAG.c</text>
</a>
</g>
</g>
<!-- Node1&#45;&gt;Node5 -->
<g id="edge4" class="edge">
<title>Node1&#45;&gt;Node5</title>
<path fill="none" stroke="midnightblue" d="M1013.61,-100.48C935.24,-91.15 809.99,-74.59 703,-53 694.3,-51.24 685.21,-49.19 676.24,-47.02"/>
<polygon fill="midnightblue" stroke="midnightblue" points="1013.54,-104 1023.88,-101.7 1014.36,-97.05 1013.54,-104"/>
</g>
<!-- Node6 -->
<g id="node6" class="node">
<title>Node6</title>
<g id="a_node6"><a xlink:href="../../d6/d0f/_g_r_p__solver__2_d___e_u_l__source_8c.html" target="_top" xlink:title="This is an Eulerian GRP scheme to solve 2&#45;D Euler equations without dimension splitting.">
<polygon fill="white" stroke="black" points="712,-0.5 712,-52.5 848,-52.5 848,-0.5 712,-0.5"/>
<text text-anchor="start" x="720" y="-40.5" font-family="Helvetica,sans-Serif" font-size="10.00">/home/leixin/Programs</text>
<text text-anchor="start" x="720" y="-29.5" font-family="Helvetica,sans-Serif" font-size="10.00">/HydroCODE/src/finite</text>
<text text-anchor="start" x="720" y="-18.5" font-family="Helvetica,sans-Serif" font-size="10.00">_volume/GRP_solver_2D</text>
<text text-anchor="middle" x="780" y="-7.5" font-family="Helvetica,sans-Serif" font-size="10.00">_EUL_source.c</text>
</a>
</g>
</g>
<!-- Node1&#45;&gt;Node6 -->
<g id="edge5" class="edge">
<title>Node1&#45;&gt;Node6</title>
<path fill="none" stroke="midnightblue" d="M1013.99,-92.43C968.25,-82.04 909,-67.83 857,-53 854.16,-52.19 851.26,-51.34 848.34,-50.46"/>
<polygon fill="midnightblue" stroke="midnightblue" points="1013.31,-95.86 1023.83,-94.65 1014.85,-89.03 1013.31,-95.86"/>
</g>
<!-- Node7 -->
<g id="node7" class="node">
<title>Node7</title>
<g id="a_node7"><a xlink:href="../../dc/d9e/_g_r_p__solver__2_d__split___e_u_l__source_8c.html" target="_top" xlink:title="This is an Eulerian GRP scheme to solve 2&#45;D Euler equations with dimension splitting.">
<polygon fill="white" stroke="black" points="866,-0.5 866,-52.5 1002,-52.5 1002,-0.5 866,-0.5"/>
<text text-anchor="start" x="874" y="-40.5" font-family="Helvetica,sans-Serif" font-size="10.00">/home/leixin/Programs</text>
<text text-anchor="start" x="874" y="-29.5" font-family="Helvetica,sans-Serif" font-size="10.00">/HydroCODE/src/finite</text>
<text text-anchor="start" x="874" y="-18.5" font-family="Helvetica,sans-Serif" font-size="10.00">_volume/GRP_solver_2D</text>
<text text-anchor="middle" x="934" y="-7.5" font-family="Helvetica,sans-Serif" font-size="10.00">_split_EUL_source.c</text>
</a>
</g>
</g>
<!-- Node1&#45;&gt;Node7 -->
<g id="edge6" class="edge">
<title>Node1&#45;&gt;Node7</title>
<path fill="none" stroke="midnightblue" d="M1043.66,-84.79C1024.22,-74.63 1001.61,-62.82 982,-52.58"/>
<polygon fill="midnightblue" stroke="midnightblue" points="1042.15,-87.95 1052.63,-89.48 1045.39,-81.75 1042.15,-87.95"/>
</g>
<!-- Node8 -->
<g id="node8" class="node">
<title>Node8</title>
<g id="a_node8"><a xlink:href="../../de/de8/_g_r_p__solver___a_l_e__source_8c.html" target="_top" xlink:title="This is an ALE GRP scheme to solve 1&#45;D Euler equations.">
<polygon fill="white" stroke="black" points="1020,-0.5 1020,-52.5 1160,-52.5 1160,-0.5 1020,-0.5"/>
<text text-anchor="start" x="1028" y="-40.5" font-family="Helvetica,sans-Serif" font-size="10.00">/home/leixin/Programs</text>
<text text-anchor="start" x="1028" y="-29.5" font-family="Helvetica,sans-Serif" font-size="10.00">/HydroCODE/src/finite</text>
<text text-anchor="start" x="1028" y="-18.5" font-family="Helvetica,sans-Serif" font-size="10.00">_volume/GRP_solver_ALE</text>
<text text-anchor="middle" x="1090" y="-7.5" font-family="Helvetica,sans-Serif" font-size="10.00">_source.c</text>
</a>
</g>
</g>
<!-- Node1&#45;&gt;Node8 -->
<g id="edge7" class="edge">
<title>Node1&#45;&gt;Node8</title>
<path fill="none" stroke="midnightblue" d="M1090,-79.12C1090,-70.41 1090,-60.99 1090,-52.61"/>
<polygon fill="midnightblue" stroke="midnightblue" points="1086.5,-79.27 1090,-89.27 1093.5,-79.27 1086.5,-79.27"/>
</g>
<!-- Node9 -->
<g id="node9" class="node">
<title>Node9</title>
<g id="a_node9"><a xlink:href="../../d5/d10/_g_r_p__solver___e_u_l__source_8c.html" target="_top" xlink:title="This is an Eulerian GRP scheme to solve 1&#45;D Euler equations.">
<polygon fill="white" stroke="black" points="1178.5,-0.5 1178.5,-52.5 1319.5,-52.5 1319.5,-0.5 1178.5,-0.5"/>
<text text-anchor="start" x="1186.5" y="-40.5" font-family="Helvetica,sans-Serif" font-size="10.00">/home/leixin/Programs</text>
<text text-anchor="start" x="1186.5" y="-29.5" font-family="Helvetica,sans-Serif" font-size="10.00">/HydroCODE/src/finite</text>
<text text-anchor="start" x="1186.5" y="-18.5" font-family="Helvetica,sans-Serif" font-size="10.00">_volume/GRP_solver_EUL</text>
<text text-anchor="middle" x="1249" y="-7.5" font-family="Helvetica,sans-Serif" font-size="10.00">_source.c</text>
</a>
</g>
</g>
<!-- Node1&#45;&gt;Node9 -->
<g id="edge8" class="edge">
<title>Node1&#45;&gt;Node9</title>
<path fill="none" stroke="midnightblue" d="M1137.23,-84.79C1157.05,-74.63 1180.08,-62.82 1200.08,-52.58"/>
<polygon fill="midnightblue" stroke="midnightblue" points="1135.39,-81.8 1128.08,-89.48 1138.58,-88.03 1135.39,-81.8"/>
</g>
<!-- Node10 -->
<g id="node10" class="node">
<title>Node10</title>
<g id="a_node10"><a xlink:href="../../dd/dd7/_g_r_p__solver___l_a_g__source_8c.html" target="_top" xlink:title="This is a Lagrangian GRP scheme to solve 1&#45;D Euler equations.">
<polygon fill="white" stroke="black" points="1337.5,-0.5 1337.5,-52.5 1480.5,-52.5 1480.5,-0.5 1337.5,-0.5"/>
<text text-anchor="start" x="1345.5" y="-40.5" font-family="Helvetica,sans-Serif" font-size="10.00">/home/leixin/Programs</text>
<text text-anchor="start" x="1345.5" y="-29.5" font-family="Helvetica,sans-Serif" font-size="10.00">/HydroCODE/src/finite</text>
<text text-anchor="start" x="1345.5" y="-18.5" font-family="Helvetica,sans-Serif" font-size="10.00">_volume/GRP_solver_LAG</text>
<text text-anchor="middle" x="1409" y="-7.5" font-family="Helvetica,sans-Serif" font-size="10.00">_source.c</text>
</a>
</g>
</g>
<!-- Node1&#45;&gt;Node10 -->
<g id="edge9" class="edge">
<title>Node1&#45;&gt;Node10</title>
<path fill="none" stroke="midnightblue" d="M1165.87,-92.82C1213.05,-82.36 1274.83,-67.96 1329,-53 1331.67,-52.26 1334.38,-51.49 1337.12,-50.7"/>
<polygon fill="midnightblue" stroke="midnightblue" points="1165.05,-89.42 1156.04,-94.99 1166.55,-96.25 1165.05,-89.42"/>
</g>
<!-- Node11 -->
<g id="node11" class="node">
<title>Node11</title>
<g id="a_node11"><a xlink:href="../../d4/da5/_godunov__solver___a_l_e__source_8c.html" target="_top" xlink:title="This is an ALE Godunov scheme to solve 1&#45;D Euler equations.">
<polygon fill="white" stroke="black" points="1499,-0.5 1499,-52.5 1639,-52.5 1639,-0.5 1499,-0.5"/>
<text text-anchor="start" x="1507" y="-40.5" font-family="Helvetica,sans-Serif" font-size="10.00">/home/leixin/Programs</text>
<text text-anchor="start" x="1507" y="-29.5" font-family="Helvetica,sans-Serif" font-size="10.00">/HydroCODE/src/finite</text>
<text text-anchor="start" x="1507" y="-18.5" font-family="Helvetica,sans-Serif" font-size="10.00">_volume/Godunov_solver</text>
<text text-anchor="middle" x="1569" y="-7.5" font-family="Helvetica,sans-Serif" font-size="10.00">_ALE_source.c</text>
</a>
</g>
</g>
<!-- Node1&#45;&gt;Node11 -->
<g id="edge10" class="edge">
<title>Node1&#45;&gt;Node11</title>
<path fill="none" stroke="midnightblue" d="M1166.22,-102.29C1247.24,-94.24 1378.74,-78.54 1490,-53 1492.95,-52.32 1495.95,-51.59 1498.96,-50.8"/>
<polygon fill="midnightblue" stroke="midnightblue" points="1165.72,-98.82 1156.11,-103.28 1166.41,-105.79 1165.72,-98.82"/>
</g>
<!-- Node12 -->
<g id="node12" class="node">
<title>Node12</title>
<g id="a_node12"><a xlink:href="../../de/dd9/_godunov__solver___e_u_l__source_8c.html" target="_top" xlink:title="This is an Eulerian Godunov scheme to solve 1&#45;D Euler equations.">
<polygon fill="white" stroke="black" points="1657,-0.5 1657,-52.5 1797,-52.5 1797,-0.5 1657,-0.5"/>
<text text-anchor="start" x="1665" y="-40.5" font-family="Helvetica,sans-Serif" font-size="10.00">/home/leixin/Programs</text>
<text text-anchor="start" x="1665" y="-29.5" font-family="Helvetica,sans-Serif" font-size="10.00">/HydroCODE/src/finite</text>
<text text-anchor="start" x="1665" y="-18.5" font-family="Helvetica,sans-Serif" font-size="10.00">_volume/Godunov_solver</text>
<text text-anchor="middle" x="1727" y="-7.5" font-family="Helvetica,sans-Serif" font-size="10.00">_EUL_source.c</text>
</a>
</g>
</g>
<!-- Node1&#45;&gt;Node12 -->
<g id="edge11" class="edge">
<title>Node1&#45;&gt;Node12</title>
<path fill="none" stroke="midnightblue" d="M1166.58,-106.45C1274.84,-101.69 1478.36,-88.47 1648,-53 1650.96,-52.38 1653.97,-51.69 1657,-50.95"/>
<polygon fill="midnightblue" stroke="midnightblue" points="1166.25,-102.96 1156.4,-106.89 1166.55,-109.96 1166.25,-102.96"/>
</g>
<!-- Node13 -->
<g id="node13" class="node">
<title>Node13</title>
<g id="a_node13"><a xlink:href="../../dd/d30/_godunov__solver___l_a_g__source_8c.html" target="_top" xlink:title="This is a Lagrangian Godunov scheme to solve 1&#45;D Euler equations.">
<polygon fill="white" stroke="black" points="1815,-0.5 1815,-52.5 1955,-52.5 1955,-0.5 1815,-0.5"/>
<text text-anchor="start" x="1823" y="-40.5" font-family="Helvetica,sans-Serif" font-size="10.00">/home/leixin/Programs</text>
<text text-anchor="start" x="1823" y="-29.5" font-family="Helvetica,sans-Serif" font-size="10.00">/HydroCODE/src/finite</text>
<text text-anchor="start" x="1823" y="-18.5" font-family="Helvetica,sans-Serif" font-size="10.00">_volume/Godunov_solver</text>
<text text-anchor="middle" x="1885" y="-7.5" font-family="Helvetica,sans-Serif" font-size="10.00">_LAG_source.c</text>
</a>
</g>
</g>
<!-- Node1&#45;&gt;Node13 -->
<g id="edge12" class="edge">
<title>Node1&#45;&gt;Node13</title>
<path fill="none" stroke="midnightblue" d="M1166.74,-108.86C1298.67,-107.32 1576.45,-98.37 1806,-53 1808.83,-52.44 1811.7,-51.81 1814.58,-51.13"/>
<polygon fill="midnightblue" stroke="midnightblue" points="1166.31,-105.36 1156.35,-108.97 1166.38,-112.36 1166.31,-105.36"/>
</g>
<!-- Node14 -->
<g id="node14" class="node">
<title>Node14</title>
<g id="a_node14"><a xlink:href="../../d5/d55/flux__solver_8c.html" target="_top" xlink:title="This file is a set of functions to calculate interfacial fluxes and demanded variables according to t...">
<polygon fill="white" stroke="black" points="1973,-6 1973,-47 2113,-47 2113,-6 1973,-6"/>
<text text-anchor="start" x="1981" y="-35" font-family="Helvetica,sans-Serif" font-size="10.00">/home/leixin/Programs</text>
<text text-anchor="start" x="1981" y="-24" font-family="Helvetica,sans-Serif" font-size="10.00">/HydroCODE/src/flux_calc</text>
<text text-anchor="middle" x="2043" y="-13" font-family="Helvetica,sans-Serif" font-size="10.00">/flux_solver.c</text>
</a>
</g>
</g>
<!-- Node1&#45;&gt;Node14 -->
<g id="edge13" class="edge">
<title>Node1&#45;&gt;Node14</title>
<path fill="none" stroke="midnightblue" d="M1166.28,-106.54C1349.82,-100.24 1812.09,-81.92 1964,-53 1971.93,-51.49 1980.17,-49.42 1988.2,-47.11"/>
<polygon fill="midnightblue" stroke="midnightblue" points="1166.05,-103.05 1156.17,-106.89 1166.29,-110.04 1166.05,-103.05"/>
</g>
</g>
</svg>
