<?xml version="1.0" encoding="UTF-8" standalone="no"?>
<!DOCTYPE svg PUBLIC "-//W3C//DTD SVG 1.1//EN"
 "http://www.w3.org/Graphics/SVG/1.1/DTD/svg11.dtd">
<!-- Generated by graphviz version 6.0.1 (0)
 -->
<!-- Title: src~ Pages: 1 -->
<svg width="732pt" height="148pt"
 viewBox="0.00 0.00 732.00 148.00" xmlns="http://www.w3.org/2000/svg" xmlns:xlink="http://www.w3.org/1999/xlink">
<g id="graph0" class="graph" transform="scale(1 1) rotate(0) translate(4 144)">
<title>src~</title>
<polygon fill="white" stroke="none" points="-4,4 -4,-144 728,-144 728,4 -4,4"/>
<g id="clust1" class="cluster">
<title>clusterdir_6771aafbf413a5638c4e561417caddb9</title>
<g id="a_clust1"><a xlink:href="dir_6771aafbf413a5638c4e561417caddb9.html" target="_top">
<polygon fill="#edf0f7" stroke="#404040" stroke-width="2" points="8,-8 8,-132 716,-132 716,-8 8,-8"/>
</a>
</g>
</g>
<!-- dir_6771aafbf413a5638c4e561417caddb9 -->
<g id="node1" class="node">
<title>dir_6771aafbf413a5638c4e561417caddb9</title>
<text text-anchor="middle" x="681" y="-103.5" font-family="Helvetica,sans-Serif" font-size="10.00">src~</text>
</g>
<!-- dir_ab846451f6b2e1a7a2652f9756abe74c -->
<g id="node2" class="node">
<title>dir_ab846451f6b2e1a7a2652f9756abe74c</title>
<g id="a_node2"><a xlink:href="dir_ab846451f6b2e1a7a2652f9756abe74c.html" target="_top" xlink:title="file_io">
<polygon fill="#a2b4d6" stroke="#404040" points="636,-124 582,-124 582,-88 636,-88 636,-124"/>
<text text-anchor="middle" x="609" y="-103.5" font-family="Helvetica,sans-Serif" font-size="10.00">file_io</text>
</a>
</g>
</g>
<!-- dir_0aa4ecdbc965570bd87fb4da401df2c8 -->
<g id="node6" class="node">
<title>dir_0aa4ecdbc965570bd87fb4da401df2c8</title>
<g id="a_node6"><a xlink:href="dir_0aa4ecdbc965570bd87fb4da401df2c8.html" target="_top" xlink:title="include">
<polygon fill="#a2b4d6" stroke="#404040" points="413,-52 359,-52 359,-16 413,-16 413,-52"/>
<text text-anchor="middle" x="386" y="-31.5" font-family="Helvetica,sans-Serif" font-size="10.00">include</text>
</a>
</g>
</g>
<!-- dir_ab846451f6b2e1a7a2652f9756abe74c&#45;&gt;dir_0aa4ecdbc965570bd87fb4da401df2c8 -->
<g id="edge1" class="edge">
<title>dir_ab846451f6b2e1a7a2652f9756abe74c&#45;&gt;dir_0aa4ecdbc965570bd87fb4da401df2c8</title>
<path fill="none" stroke="black" d="M581.68,-91.53C578.78,-90.27 575.85,-89.07 573,-88 522.17,-68.94 461.38,-52.91 423.22,-43.62"/>
<polygon fill="black" stroke="black" points="423.62,-40.12 413.08,-41.18 421.98,-46.93 423.62,-40.12"/>
<g id="a_edge1&#45;headlabel"><a xlink:href="dir_000000_000004.html" target="_top" xlink:title="10">
<text text-anchor="middle" x="427.78" y="-35.7" font-family="Helvetica,sans-Serif" font-size="10.00">10</text>
</a>
</g>
</g>
<!-- dir_0a2ea5ca0dbc03aa7111cf7a6cf18f1e -->
<g id="node3" class="node">
<title>dir_0a2ea5ca0dbc03aa7111cf7a6cf18f1e</title>
<g id="a_node3"><a xlink:href="dir_0a2ea5ca0dbc03aa7111cf7a6cf18f1e.html" target="_top" xlink:title="finite_volume">
<polygon fill="#a2b4d6" stroke="#404040" points="564,-124 480,-124 480,-88 564,-88 564,-124"/>
<text text-anchor="middle" x="522" y="-103.5" font-family="Helvetica,sans-Serif" font-size="10.00">finite_volume</text>
</a>
</g>
</g>
<!-- dir_0a2ea5ca0dbc03aa7111cf7a6cf18f1e&#45;&gt;dir_0aa4ecdbc965570bd87fb4da401df2c8 -->
<g id="edge2" class="edge">
<title>dir_0a2ea5ca0dbc03aa7111cf7a6cf18f1e&#45;&gt;dir_0aa4ecdbc965570bd87fb4da401df2c8</title>
<path fill="none" stroke="black" d="M488.73,-87.88C468.68,-77.56 443.13,-64.4 422.52,-53.8"/>
<polygon fill="black" stroke="black" points="423.93,-50.59 413.44,-49.12 420.73,-56.81 423.93,-50.59"/>
<g id="a_edge2&#45;headlabel"><a xlink:href="dir_000001_000004.html" target="_top" xlink:title="12">
<text text-anchor="middle" x="428.43" y="-47.21" font-family="Helvetica,sans-Serif" font-size="10.00">12</text>
</a>
</g>
</g>
<!-- dir_012850528a3213433c89849079467256 -->
<g id="node4" class="node">
<title>dir_012850528a3213433c89849079467256</title>
<g id="a_node4"><a xlink:href="dir_012850528a3213433c89849079467256.html" target="_top" xlink:title="flux_calc">
<polygon fill="#a2b4d6" stroke="#404040" points="462,-124 402,-124 402,-88 462,-88 462,-124"/>
<text text-anchor="middle" x="432" y="-103.5" font-family="Helvetica,sans-Serif" font-size="10.00">flux_calc</text>
</a>
</g>
</g>
<!-- dir_012850528a3213433c89849079467256&#45;&gt;dir_0aa4ecdbc965570bd87fb4da401df2c8 -->
<g id="edge3" class="edge">
<title>dir_012850528a3213433c89849079467256&#45;&gt;dir_0aa4ecdbc965570bd87fb4da401df2c8</title>
<path fill="none" stroke="black" d="M420.63,-87.7C415.28,-79.56 408.8,-69.69 402.89,-60.7"/>
<polygon fill="black" stroke="black" points="405.66,-58.54 397.24,-52.1 399.81,-62.38 405.66,-58.54"/>
<g id="a_edge3&#45;headlabel"><a xlink:href="dir_000002_000004.html" target="_top" xlink:title="9">
<text text-anchor="middle" x="410" y="-57.48" font-family="Helvetica,sans-Serif" font-size="10.00">9</text>
</a>
</g>
</g>
<!-- dir_a0eaf212c2c7cd9d3111e1da8908e448 -->
<g id="node5" class="node">
<title>dir_a0eaf212c2c7cd9d3111e1da8908e448</title>
<g id="a_node5"><a xlink:href="dir_a0eaf212c2c7cd9d3111e1da8908e448.html" target="_top" xlink:title="hydrocode_2D">
<polygon fill="#a2b4d6" stroke="#404040" points="384,-124 298,-124 298,-88 384,-88 384,-124"/>
<text text-anchor="middle" x="341" y="-103.5" font-family="Helvetica,sans-Serif" font-size="10.00">hydrocode_2D</text>
</a>
</g>
</g>
<!-- dir_a0eaf212c2c7cd9d3111e1da8908e448&#45;&gt;dir_0aa4ecdbc965570bd87fb4da401df2c8 -->
<g id="edge4" class="edge">
<title>dir_a0eaf212c2c7cd9d3111e1da8908e448&#45;&gt;dir_0aa4ecdbc965570bd87fb4da401df2c8</title>
<path fill="none" stroke="black" d="M352.12,-87.7C357.36,-79.56 363.7,-69.69 369.48,-60.7"/>
<polygon fill="black" stroke="black" points="372.54,-62.41 375,-52.1 366.65,-58.62 372.54,-62.41"/>
<g id="a_edge4&#45;headlabel"><a xlink:href="dir_000003_000004.html" target="_top" xlink:title="3">
<text text-anchor="middle" x="372.99" y="-64.47" font-family="Helvetica,sans-Serif" font-size="10.00">3</text>
</a>
</g>
</g>
<!-- dir_e8ef67cf99a2ba2267792f6cc6c44256 -->
<g id="node7" class="node">
<title>dir_e8ef67cf99a2ba2267792f6cc6c44256</title>
<g id="a_node7"><a xlink:href="dir_e8ef67cf99a2ba2267792f6cc6c44256.html" target="_top" xlink:title="inter_process">
<polygon fill="#a2b4d6" stroke="#404040" points="280,-124 198,-124 198,-88 280,-88 280,-124"/>
<text text-anchor="middle" x="239" y="-103.5" font-family="Helvetica,sans-Serif" font-size="10.00">inter_process</text>
</a>
</g>
</g>
<!-- dir_e8ef67cf99a2ba2267792f6cc6c44256&#45;&gt;dir_0aa4ecdbc965570bd87fb4da401df2c8 -->
<g id="edge5" class="edge">
<title>dir_e8ef67cf99a2ba2267792f6cc6c44256&#45;&gt;dir_0aa4ecdbc965570bd87fb4da401df2c8</title>
<path fill="none" stroke="black" d="M274.96,-87.88C297.57,-77.11 326.66,-63.26 349.39,-52.43"/>
<polygon fill="black" stroke="black" points="351.18,-55.46 358.71,-48 348.17,-49.14 351.18,-55.46"/>
<g id="a_edge5&#45;headlabel"><a xlink:href="dir_000005_000004.html" target="_top" xlink:title="9">
<text text-anchor="middle" x="349.16" y="-57.07" font-family="Helvetica,sans-Serif" font-size="10.00">9</text>
</a>
</g>
</g>
<!-- dir_bf60a11fb9e16029752bcd5632b70b71 -->
<g id="node8" class="node">
<title>dir_bf60a11fb9e16029752bcd5632b70b71</title>
<g id="a_node8"><a xlink:href="dir_bf60a11fb9e16029752bcd5632b70b71.html" target="_top" xlink:title="riemann_solver">
<polygon fill="#a2b4d6" stroke="#404040" points="180,-124 88,-124 88,-88 180,-88 180,-124"/>
<text text-anchor="middle" x="134" y="-103.5" font-family="Helvetica,sans-Serif" font-size="10.00">riemann_solver</text>
</a>
</g>
</g>
<!-- dir_bf60a11fb9e16029752bcd5632b70b71&#45;&gt;dir_0aa4ecdbc965570bd87fb4da401df2c8 -->
<g id="edge6" class="edge">
<title>dir_bf60a11fb9e16029752bcd5632b70b71&#45;&gt;dir_0aa4ecdbc965570bd87fb4da401df2c8</title>
<path fill="none" stroke="black" d="M180.18,-90.59C183.16,-89.7 186.12,-88.83 189,-88 244.56,-71.95 309.39,-54.81 349.06,-44.5"/>
<polygon fill="black" stroke="black" points="350.02,-47.87 358.83,-41.97 348.27,-41.09 350.02,-47.87"/>
<g id="a_edge6&#45;headlabel"><a xlink:href="dir_000006_000004.html" target="_top" xlink:title="8">
<text text-anchor="middle" x="347.26" y="-49.02" font-family="Helvetica,sans-Serif" font-size="10.00">8</text>
</a>
</g>
</g>
<!-- dir_f9049ab4ccfea5722647058c3f5f5939 -->
<g id="node9" class="node">
<title>dir_f9049ab4ccfea5722647058c3f5f5939</title>
<g id="a_node9"><a xlink:href="dir_f9049ab4ccfea5722647058c3f5f5939.html" target="_top" xlink:title="tools">
<polygon fill="#a2b4d6" stroke="#404040" points="70,-124 16,-124 16,-88 70,-88 70,-124"/>
<text text-anchor="middle" x="43" y="-103.5" font-family="Helvetica,sans-Serif" font-size="10.00">tools</text>
</a>
</g>
</g>
</g>
</svg>
