<?xml version="1.0" encoding="UTF-8" standalone="no"?>
<!DOCTYPE svg PUBLIC "-//W3C//DTD SVG 1.1//EN"
 "http://www.w3.org/Graphics/SVG/1.1/DTD/svg11.dtd">
<!-- Generated by graphviz version 5.0.0 (0)
 -->
<!-- Title: DispPro Pages: 1 -->
<svg width="327pt" height="351pt"
 viewBox="0.00 0.00 327.00 350.50" xmlns="http://www.w3.org/2000/svg" xmlns:xlink="http://www.w3.org/1999/xlink">
<g id="graph0" class="graph" transform="scale(1 1) rotate(0) translate(4 346.5)">
<title>DispPro</title>
<polygon fill="white" stroke="transparent" points="-4,4 -4,-346.5 323,-346.5 323,4 -4,4"/>
<!-- Node1 -->
<g id="node1" class="node">
<title>Node1</title>
<g id="a_node1"><a xlink:title="This function print a progress bar on one line of standard output.">
<polygon fill="#bfbfbf" stroke="black" points="265,-153.5 265,-172.5 319,-172.5 319,-153.5 265,-153.5"/>
<text text-anchor="middle" x="292" y="-160.5" font-family="Helvetica,sans-Serif" font-size="10.00">DispPro</text>
</a>
</g>
</g>
<!-- Node2 -->
<g id="node2" class="node">
<title>Node2</title>
<g id="a_node2"><a xlink:href="../../d4/da5/_godunov__solver___a_l_e__source_8c.html#a0c698d207c191af453f551744c64ca83" target="_top" xlink:title="This function use Godunov scheme to solve 1&#45;D Euler equations of motion on ALE coordinate.">
<polygon fill="white" stroke="black" points="93.5,-312 93.5,-342 212.5,-342 212.5,-312 93.5,-312"/>
<text text-anchor="start" x="101.5" y="-330" font-family="Helvetica,sans-Serif" font-size="10.00">Godunov_solver_ALE</text>
<text text-anchor="middle" x="153" y="-319" font-family="Helvetica,sans-Serif" font-size="10.00">_source_Undone</text>
</a>
</g>
</g>
<!-- Node1&#45;&gt;Node2 -->
<g id="edge1" class="edge">
<title>Node1&#45;&gt;Node2</title>
<path fill="none" stroke="midnightblue" d="M287.54,-182.9C281.26,-213.13 265.12,-270.55 229,-303 224.22,-307.29 218.67,-310.82 212.79,-313.72"/>
<polygon fill="midnightblue" stroke="midnightblue" points="291.04,-183.23 289.49,-172.75 284.17,-181.91 291.04,-183.23"/>
</g>
<!-- Node3 -->
<g id="node3" class="node">
<title>Node3</title>
<g id="a_node3"><a xlink:href="../../de/dd9/_godunov__solver___e_u_l__source_8c.html#a8704e7d4489848cbe30f53b305782711" target="_top" xlink:title="This function use Godunov scheme to solve 1&#45;D Euler equations of motion on Eulerian coordinate.">
<polygon fill="white" stroke="black" points="93.5,-263 93.5,-293 212.5,-293 212.5,-263 93.5,-263"/>
<text text-anchor="start" x="101.5" y="-281" font-family="Helvetica,sans-Serif" font-size="10.00">Godunov_solver_EUL</text>
<text text-anchor="middle" x="153" y="-270" font-family="Helvetica,sans-Serif" font-size="10.00">_source</text>
</a>
</g>
</g>
<!-- Node1&#45;&gt;Node3 -->
<g id="edge2" class="edge">
<title>Node1&#45;&gt;Node3</title>
<path fill="none" stroke="midnightblue" d="M282.82,-181.81C272.94,-202.41 254.42,-235.02 229,-254 224.07,-257.68 218.56,-260.81 212.81,-263.46"/>
<polygon fill="midnightblue" stroke="midnightblue" points="286.09,-183.07 287.08,-172.52 279.73,-180.15 286.09,-183.07"/>
</g>
<!-- Node4 -->
<g id="node4" class="node">
<title>Node4</title>
<g id="a_node4"><a xlink:href="../../dd/d30/_godunov__solver___l_a_g__source_8c.html#af53e1e238ac8b31268d438a76de7f7c2" target="_top" xlink:title="This function use Godunov scheme to solve 1&#45;D Euler equations of motion on Lagrangian coordinate.">
<polygon fill="white" stroke="black" points="92.5,-214 92.5,-244 213.5,-244 213.5,-214 92.5,-214"/>
<text text-anchor="start" x="100.5" y="-232" font-family="Helvetica,sans-Serif" font-size="10.00">Godunov_solver_LAG</text>
<text text-anchor="middle" x="153" y="-221" font-family="Helvetica,sans-Serif" font-size="10.00">_source</text>
</a>
</g>
</g>
<!-- Node1&#45;&gt;Node4 -->
<g id="edge3" class="edge">
<title>Node1&#45;&gt;Node4</title>
<path fill="none" stroke="midnightblue" d="M270.56,-178.49C258.84,-186.86 243.61,-196.89 229,-204 221.47,-207.66 213.27,-211 205.15,-213.96"/>
<polygon fill="midnightblue" stroke="midnightblue" points="272.75,-181.23 278.76,-172.5 268.62,-175.58 272.75,-181.23"/>
</g>
<!-- Node5 -->
<g id="node5" class="node">
<title>Node5</title>
<g id="a_node5"><a xlink:href="../../d6/d0f/_g_r_p__solver__2_d___e_u_l__source_8c.html#ad2ed8a0ffbf2c3b9eb692984e9fbc6f2" target="_top" xlink:title="This function use GRP scheme to solve 2&#45;D Euler equations of motion on Eulerian coordinate without di...">
<polygon fill="white" stroke="black" points="77,-175.5 77,-194.5 229,-194.5 229,-175.5 77,-175.5"/>
<text text-anchor="middle" x="153" y="-182.5" font-family="Helvetica,sans-Serif" font-size="10.00">GRP_solver_2D_EUL_source</text>
</a>
</g>
</g>
<!-- Node1&#45;&gt;Node5 -->
<g id="edge4" class="edge">
<title>Node1&#45;&gt;Node5</title>
<path fill="none" stroke="midnightblue" d="M254.72,-168.83C241.99,-170.87 227.33,-173.22 213.21,-175.49"/>
<polygon fill="midnightblue" stroke="midnightblue" points="255.59,-172.23 264.91,-167.19 254.48,-165.32 255.59,-172.23"/>
</g>
<!-- Node7 -->
<g id="node7" class="node">
<title>Node7</title>
<g id="a_node7"><a xlink:href="../../dc/d9e/_g_r_p__solver__2_d__split___e_u_l__source_8c.html#a196c7b4e4415c20bbdfc3dd294653b66" target="_top" xlink:title="This function use GRP scheme to solve 2&#45;D Euler equations of motion on Eulerian coordinate with dimen...">
<polygon fill="white" stroke="black" points="94.5,-126 94.5,-156 211.5,-156 211.5,-126 94.5,-126"/>
<text text-anchor="start" x="102.5" y="-144" font-family="Helvetica,sans-Serif" font-size="10.00">GRP_solver_2D_split</text>
<text text-anchor="middle" x="153" y="-133" font-family="Helvetica,sans-Serif" font-size="10.00">_EUL_source</text>
</a>
</g>
</g>
<!-- Node1&#45;&gt;Node7 -->
<g id="edge6" class="edge">
<title>Node1&#45;&gt;Node7</title>
<path fill="none" stroke="midnightblue" d="M254.83,-157.19C241.64,-155.07 226.37,-152.62 211.78,-150.28"/>
<polygon fill="midnightblue" stroke="midnightblue" points="254.48,-160.68 264.91,-158.81 255.59,-153.77 254.48,-160.68"/>
</g>
<!-- Node8 -->
<g id="node8" class="node">
<title>Node8</title>
<g id="a_node8"><a xlink:href="../../de/de8/_g_r_p__solver___a_l_e__source_8c.html#afef6f99ec63f964c27bbee6c9d6ff2bc" target="_top" xlink:title="This function use GRP scheme to solve 1&#45;D Euler equations of motion on ALE coordinate.">
<polygon fill="white" stroke="black" points="86.5,-77 86.5,-107 219.5,-107 219.5,-77 86.5,-77"/>
<text text-anchor="start" x="94.5" y="-95" font-family="Helvetica,sans-Serif" font-size="10.00">GRP_solver_ALE_source</text>
<text text-anchor="middle" x="153" y="-84" font-family="Helvetica,sans-Serif" font-size="10.00">_Undone</text>
</a>
</g>
</g>
<!-- Node1&#45;&gt;Node8 -->
<g id="edge8" class="edge">
<title>Node1&#45;&gt;Node8</title>
<path fill="none" stroke="midnightblue" d="M272.49,-146.82C260.68,-137.14 244.69,-125.17 229,-117 221.94,-113.32 214.23,-110.03 206.52,-107.13"/>
<polygon fill="midnightblue" stroke="midnightblue" points="270.38,-149.62 280.29,-153.38 274.89,-144.26 270.38,-149.62"/>
</g>
<!-- Node9 -->
<g id="node9" class="node">
<title>Node9</title>
<g id="a_node9"><a xlink:href="../../d5/d10/_g_r_p__solver___e_u_l__source_8c.html#ad5d51b342d61692dd1d241c7ebb42fa0" target="_top" xlink:title="This function use GRP scheme to solve 1&#45;D Euler equations of motion on Eulerian coordinate.">
<polygon fill="white" stroke="black" points="86,-38.5 86,-57.5 220,-57.5 220,-38.5 86,-38.5"/>
<text text-anchor="middle" x="153" y="-45.5" font-family="Helvetica,sans-Serif" font-size="10.00">GRP_solver_EUL_source</text>
</a>
</g>
</g>
<!-- Node1&#45;&gt;Node9 -->
<g id="edge9" class="edge">
<title>Node1&#45;&gt;Node9</title>
<path fill="none" stroke="midnightblue" d="M283.49,-143.76C274.04,-122.08 255.73,-87.35 229,-68 223,-63.65 216.11,-60.25 209,-57.59"/>
<polygon fill="midnightblue" stroke="midnightblue" points="280.35,-145.33 287.42,-153.22 286.82,-142.65 280.35,-145.33"/>
</g>
<!-- Node10 -->
<g id="node10" class="node">
<title>Node10</title>
<g id="a_node10"><a xlink:href="../../dd/dd7/_g_r_p__solver___l_a_g__source_8c.html#a803248d0d521f8306a2850012b6d994c" target="_top" xlink:title="This function use GRP scheme to solve 1&#45;D Euler equations of motion on Lagrangian coordinate.">
<polygon fill="white" stroke="black" points="85.5,-0.5 85.5,-19.5 220.5,-19.5 220.5,-0.5 85.5,-0.5"/>
<text text-anchor="middle" x="153" y="-7.5" font-family="Helvetica,sans-Serif" font-size="10.00">GRP_solver_LAG_source</text>
</a>
</g>
</g>
<!-- Node1&#45;&gt;Node10 -->
<g id="edge10" class="edge">
<title>Node1&#45;&gt;Node10</title>
<path fill="none" stroke="midnightblue" d="M287.43,-143.24C281.05,-113.82 264.85,-58.76 229,-29 224.35,-25.14 219.02,-22.05 213.38,-19.58"/>
<polygon fill="midnightblue" stroke="midnightblue" points="284.02,-144.04 289.41,-153.16 290.88,-142.67 284.02,-144.04"/>
</g>
<!-- Node6 -->
<g id="node6" class="node">
<title>Node6</title>
<g id="a_node6"><a xlink:href="../../d2/d24/hydrocode_8c.html#a0ddf1224851353fc92bfbff6f499fa97" target="_top" xlink:title="This is the main function which constructs the main structure of the Eulerian hydrocode.">
<polygon fill="white" stroke="black" points="0,-153.5 0,-172.5 41,-172.5 41,-153.5 0,-153.5"/>
<text text-anchor="middle" x="20.5" y="-160.5" font-family="Helvetica,sans-Serif" font-size="10.00">main</text>
</a>
</g>
</g>
<!-- Node5&#45;&gt;Node6 -->
<g id="edge5" class="edge">
<title>Node5&#45;&gt;Node6</title>
<path fill="none" stroke="midnightblue" d="M85.45,-173.78C69.23,-171.05 53.12,-168.33 41.13,-166.31"/>
<polygon fill="midnightblue" stroke="midnightblue" points="85.08,-177.27 95.52,-175.48 86.24,-170.36 85.08,-177.27"/>
</g>
<!-- Node7&#45;&gt;Node6 -->
<g id="edge7" class="edge">
<title>Node7&#45;&gt;Node6</title>
<path fill="none" stroke="midnightblue" d="M84.48,-152.38C68.56,-155.07 52.82,-157.72 41.05,-159.7"/>
<polygon fill="midnightblue" stroke="midnightblue" points="85.1,-155.83 94.38,-150.71 83.94,-148.92 85.1,-155.83"/>
</g>
</g>
</svg>
