<?xml version="1.0" encoding="UTF-8" standalone="no"?>
<!DOCTYPE svg PUBLIC "-//W3C//DTD SVG 1.1//EN"
 "http://www.w3.org/Graphics/SVG/1.1/DTD/svg11.dtd">
<!-- Generated by graphviz version 5.0.0 (0)
 -->
<!-- Title: /run/media/leixin/软件盘/雷昕整理后的重要文件/程序/My&#45;CFD/HydroCODE/src/inter_process/bound_cond_slope_limiter.c Pages: 1 -->
<svg width="406pt" height="184pt"
 viewBox="0.00 0.00 406.00 184.00" xmlns="http://www.w3.org/2000/svg" xmlns:xlink="http://www.w3.org/1999/xlink">
<g id="graph0" class="graph" transform="scale(1 1) rotate(0) translate(4 180)">
<title>/run/media/leixin/软件盘/雷昕整理后的重要文件/程序/My&#45;CFD/HydroCODE/src/inter_process/bound_cond_slope_limiter.c</title>
<polygon fill="white" stroke="transparent" points="-4,4 -4,-180 402,-180 402,4 -4,4"/>
<!-- Node1 -->
<g id="node1" class="node">
<title>Node1</title>
<g id="a_node1"><a xlink:title="This is a function to set boundary conditions and use the slope limiter in one dimension.">
<polygon fill="#bfbfbf" stroke="black" points="87,-112.5 87,-175.5 265,-175.5 265,-112.5 87,-112.5"/>
<text text-anchor="start" x="95" y="-163.5" font-family="Helvetica,sans-Serif" font-size="10.00">/run/media/leixin/软件盘</text>
<text text-anchor="start" x="95" y="-152.5" font-family="Helvetica,sans-Serif" font-size="10.00">/雷昕整理后的重要文件</text>
<text text-anchor="start" x="95" y="-141.5" font-family="Helvetica,sans-Serif" font-size="10.00">/程序/My&#45;CFD/HydroCODE/src</text>
<text text-anchor="start" x="95" y="-130.5" font-family="Helvetica,sans-Serif" font-size="10.00">/inter_process/bound_cond_slope</text>
<text text-anchor="middle" x="176" y="-119.5" font-family="Helvetica,sans-Serif" font-size="10.00">_limiter.c</text>
</a>
</g>
</g>
<!-- Node2 -->
<g id="node2" class="node">
<title>Node2</title>
<g id="a_node2"><a xlink:title=" ">
<polygon fill="white" stroke="#bfbfbf" points="0,-56.5 0,-75.5 50,-75.5 50,-56.5 0,-56.5"/>
<text text-anchor="middle" x="25" y="-63.5" font-family="Helvetica,sans-Serif" font-size="10.00">stdio.h</text>
</a>
</g>
</g>
<!-- Node1&#45;&gt;Node2 -->
<g id="edge1" class="edge">
<title>Node1&#45;&gt;Node2</title>
<path fill="none" stroke="midnightblue" d="M115.02,-112.31C92.78,-101.11 68.8,-89.04 51.18,-80.18"/>
<polygon fill="midnightblue" stroke="midnightblue" points="52.61,-76.98 42.1,-75.61 49.46,-83.23 52.61,-76.98"/>
</g>
<!-- Node3 -->
<g id="node3" class="node">
<title>Node3</title>
<g id="a_node3"><a xlink:title=" ">
<polygon fill="white" stroke="#bfbfbf" points="68,-56.5 68,-75.5 130,-75.5 130,-56.5 68,-56.5"/>
<text text-anchor="middle" x="99" y="-63.5" font-family="Helvetica,sans-Serif" font-size="10.00">stdbool.h</text>
</a>
</g>
</g>
<!-- Node1&#45;&gt;Node3 -->
<g id="edge2" class="edge">
<title>Node1&#45;&gt;Node3</title>
<path fill="none" stroke="midnightblue" d="M144.68,-112.09C134.48,-102.02 123.58,-91.26 114.99,-82.78"/>
<polygon fill="midnightblue" stroke="midnightblue" points="117.41,-80.25 107.83,-75.72 112.49,-85.23 117.41,-80.25"/>
</g>
<!-- Node4 -->
<g id="node4" class="node">
<title>Node4</title>
<g id="a_node4"><a xlink:title=" ">
<polygon fill="white" stroke="#bfbfbf" points="148,-56.5 148,-75.5 204,-75.5 204,-56.5 148,-56.5"/>
<text text-anchor="middle" x="176" y="-63.5" font-family="Helvetica,sans-Serif" font-size="10.00">stdarg.h</text>
</a>
</g>
</g>
<!-- Node1&#45;&gt;Node4 -->
<g id="edge3" class="edge">
<title>Node1&#45;&gt;Node4</title>
<path fill="none" stroke="midnightblue" d="M176,-112.09C176,-103.15 176,-93.67 176,-85.72"/>
<polygon fill="midnightblue" stroke="midnightblue" points="179.5,-85.72 176,-75.72 172.5,-85.72 179.5,-85.72"/>
</g>
<!-- Node5 -->
<g id="node5" class="node">
<title>Node5</title>
<g id="a_node5"><a xlink:href="../../da/d1e/var__struc_8h.html" target="_top" xlink:title="This file is the header file of some globally common variables and structural bodies.">
<polygon fill="white" stroke="black" points="221,-0.5 221,-19.5 339,-19.5 339,-0.5 221,-0.5"/>
<text text-anchor="middle" x="280" y="-7.5" font-family="Helvetica,sans-Serif" font-size="10.00">../include/var_struc.h</text>
</a>
</g>
</g>
<!-- Node1&#45;&gt;Node5 -->
<g id="edge4" class="edge">
<title>Node1&#45;&gt;Node5</title>
<path fill="none" stroke="midnightblue" d="M200.12,-112.38C220.91,-86 250.15,-48.89 266.87,-27.66"/>
<polygon fill="midnightblue" stroke="midnightblue" points="269.78,-29.63 273.22,-19.61 264.28,-25.3 269.78,-29.63"/>
</g>
<!-- Node6 -->
<g id="node6" class="node">
<title>Node6</title>
<g id="a_node6"><a xlink:href="../../d6/d6f/inter__process_8h.html" target="_top" xlink:title="This file is the header file of intermediate processes of finite volume scheme.">
<polygon fill="white" stroke="black" points="260,-56.5 260,-75.5 398,-75.5 398,-56.5 260,-56.5"/>
<text text-anchor="middle" x="329" y="-63.5" font-family="Helvetica,sans-Serif" font-size="10.00">../include/inter_process.h</text>
</a>
</g>
</g>
<!-- Node1&#45;&gt;Node6 -->
<g id="edge5" class="edge">
<title>Node1&#45;&gt;Node6</title>
<path fill="none" stroke="midnightblue" d="M237.79,-112.31C260.32,-101.11 284.62,-89.04 302.47,-80.18"/>
<polygon fill="midnightblue" stroke="midnightblue" points="304.27,-83.19 311.67,-75.61 301.16,-76.92 304.27,-83.19"/>
</g>
<!-- Node6&#45;&gt;Node5 -->
<g id="edge6" class="edge">
<title>Node6&#45;&gt;Node5</title>
<path fill="none" stroke="midnightblue" d="M320.91,-56.08C313.84,-48.3 303.41,-36.8 294.85,-27.37"/>
<polygon fill="midnightblue" stroke="midnightblue" points="297.25,-24.8 287.94,-19.75 292.07,-29.51 297.25,-24.8"/>
</g>
</g>
</svg>
