<?xml version="1.0" encoding="UTF-8" standalone="no"?>
<!DOCTYPE svg PUBLIC "-//W3C//DTD SVG 1.1//EN"
 "http://www.w3.org/Graphics/SVG/1.1/DTD/svg11.dtd">
<!-- Generated by graphviz version 6.0.1 (0)
 -->
<!-- Title: src~/inter_process/slope_limiter_radial.c Pages: 1 -->
<svg width="382pt" height="95pt"
 viewBox="0.00 0.00 381.50 95.00" xmlns="http://www.w3.org/2000/svg" xmlns:xlink="http://www.w3.org/1999/xlink">
<g id="graph0" class="graph" transform="scale(1 1) rotate(0) translate(4 91)">
<title>src~/inter_process/slope_limiter_radial.c</title>
<polygon fill="white" stroke="none" points="-4,4 -4,-91 377.5,-91 377.5,4 -4,4"/>
<!-- Node1 -->
<g id="node1" class="node">
<title>Node1</title>
<g id="a_node1"><a xlink:title="This is a function of the minmod slope limiter in radially symmetric case.">
<polygon fill="#bfbfbf" stroke="black" points="84.5,-56.5 84.5,-86.5 209.5,-86.5 209.5,-56.5 84.5,-56.5"/>
<text text-anchor="start" x="92.5" y="-74.5" font-family="Helvetica,sans-Serif" font-size="10.00">src~/inter_process</text>
<text text-anchor="middle" x="147" y="-63.5" font-family="Helvetica,sans-Serif" font-size="10.00">/slope_limiter_radial.c</text>
</a>
</g>
</g>
<!-- Node2 -->
<g id="node2" class="node">
<title>Node2</title>
<g id="a_node2"><a xlink:title=" ">
<polygon fill="white" stroke="#bfbfbf" points="0,-0.5 0,-19.5 50,-19.5 50,-0.5 0,-0.5"/>
<text text-anchor="middle" x="25" y="-7.5" font-family="Helvetica,sans-Serif" font-size="10.00">stdio.h</text>
</a>
</g>
</g>
<!-- Node1&#45;&gt;Node2 -->
<g id="edge1" class="edge">
<title>Node1&#45;&gt;Node2</title>
<path fill="none" stroke="midnightblue" d="M118.09,-56.4C97.98,-46.59 71.38,-33.62 51.76,-24.05"/>
<polygon fill="midnightblue" stroke="midnightblue" points="53.27,-20.9 42.75,-19.66 50.21,-27.19 53.27,-20.9"/>
</g>
<!-- Node3 -->
<g id="node3" class="node">
<title>Node3</title>
<g id="a_node3"><a xlink:title=" ">
<polygon fill="white" stroke="#bfbfbf" points="68.5,-0.5 68.5,-19.5 121.5,-19.5 121.5,-0.5 68.5,-0.5"/>
<text text-anchor="middle" x="95" y="-7.5" font-family="Helvetica,sans-Serif" font-size="10.00">stdlib.h</text>
</a>
</g>
</g>
<!-- Node1&#45;&gt;Node3 -->
<g id="edge2" class="edge">
<title>Node1&#45;&gt;Node3</title>
<path fill="none" stroke="midnightblue" d="M134.68,-56.4C127.04,-47.66 117.21,-36.41 109.24,-27.3"/>
<polygon fill="midnightblue" stroke="midnightblue" points="111.78,-24.88 102.57,-19.66 106.51,-29.49 111.78,-24.88"/>
</g>
<!-- Node4 -->
<g id="node4" class="node">
<title>Node4</title>
<g id="a_node4"><a xlink:href="../../da/d1e/var__struc_8h.html" target="_top" xlink:title="This file is the header file of some globally common variables and structural bodies.">
<polygon fill="white" stroke="black" points="140,-0.5 140,-19.5 258,-19.5 258,-0.5 140,-0.5"/>
<text text-anchor="middle" x="199" y="-7.5" font-family="Helvetica,sans-Serif" font-size="10.00">../include/var_struc.h</text>
</a>
</g>
</g>
<!-- Node1&#45;&gt;Node4 -->
<g id="edge3" class="edge">
<title>Node1&#45;&gt;Node4</title>
<path fill="none" stroke="midnightblue" d="M159.32,-56.4C166.96,-47.66 176.79,-36.41 184.76,-27.3"/>
<polygon fill="midnightblue" stroke="midnightblue" points="187.49,-29.49 191.43,-19.66 182.22,-24.88 187.49,-29.49"/>
</g>
<!-- Node5 -->
<g id="node5" class="node">
<title>Node5</title>
<g id="a_node5"><a xlink:href="../../d5/da5/tools_8h.html" target="_top" xlink:title="This file is the header file of several independent tool functions.">
<polygon fill="white" stroke="black" points="276.5,-0.5 276.5,-19.5 373.5,-19.5 373.5,-0.5 276.5,-0.5"/>
<text text-anchor="middle" x="325" y="-7.5" font-family="Helvetica,sans-Serif" font-size="10.00">../include/tools.h</text>
</a>
</g>
</g>
<!-- Node1&#45;&gt;Node5 -->
<g id="edge4" class="edge">
<title>Node1&#45;&gt;Node5</title>
<path fill="none" stroke="midnightblue" d="M189.18,-56.4C219.81,-46.16 260.77,-32.47 289.67,-22.81"/>
<polygon fill="midnightblue" stroke="midnightblue" points="290.98,-26.06 299.36,-19.57 288.77,-19.42 290.98,-26.06"/>
</g>
</g>
</svg>
