<?xml version="1.0" encoding="UTF-8" standalone="no"?>
<!DOCTYPE svg PUBLIC "-//W3C//DTD SVG 1.1//EN"
 "http://www.w3.org/Graphics/SVG/1.1/DTD/svg11.dtd">
<!-- Generated by graphviz version 5.0.0 (0)
 -->
<!-- Title: src/include/tools.h Pages: 1 -->
<svg width="750pt" height="95pt"
 viewBox="0.00 0.00 749.50 95.00" xmlns="http://www.w3.org/2000/svg" xmlns:xlink="http://www.w3.org/1999/xlink">
<g id="graph0" class="graph" transform="scale(1 1) rotate(0) translate(4 91)">
<title>src/include/tools.h</title>
<polygon fill="white" stroke="transparent" points="-4,4 -4,-91 745.5,-91 745.5,4 -4,4"/>
<!-- Node1 -->
<g id="node1" class="node">
<title>Node1</title>
<g id="a_node1"><a xlink:title="This file is the header file of several independent tool functions.">
<polygon fill="#bfbfbf" stroke="black" points="294,-67.5 294,-86.5 399,-86.5 399,-67.5 294,-67.5"/>
<text text-anchor="middle" x="346.5" y="-74.5" font-family="Helvetica,sans-Serif" font-size="10.00">src/include/tools.h</text>
</a>
</g>
</g>
<!-- Node2 -->
<g id="node2" class="node">
<title>Node2</title>
<g id="a_node2"><a xlink:href="../../d4/de5/io__control_8c.html" target="_top" xlink:title="This is a set of common functions which control the input/output data.">
<polygon fill="white" stroke="black" points="0,-6 0,-25 123,-25 123,-6 0,-6"/>
<text text-anchor="middle" x="61.5" y="-13" font-family="Helvetica,sans-Serif" font-size="10.00">src/file_io/io_control.c</text>
</a>
</g>
</g>
<!-- Node1&#45;&gt;Node2 -->
<g id="edge1" class="edge">
<title>Node1&#45;&gt;Node2</title>
<path fill="none" stroke="midnightblue" d="M295.74,-65.4C240.49,-53.87 153.23,-35.65 102.26,-25.01"/>
<polygon fill="midnightblue" stroke="midnightblue" points="295.16,-68.86 305.67,-67.48 296.59,-62.01 295.16,-68.86"/>
</g>
<!-- Node3 -->
<g id="node3" class="node">
<title>Node3</title>
<g id="a_node3"><a xlink:href="../../d5/d10/_g_r_p__solver___e_u_l__source_8c.html" target="_top" xlink:title="This is an Eulerian GRP scheme to solve 1&#45;D Euler equations.">
<polygon fill="white" stroke="black" points="141,-0.5 141,-30.5 266,-30.5 266,-0.5 141,-0.5"/>
<text text-anchor="start" x="149" y="-18.5" font-family="Helvetica,sans-Serif" font-size="10.00">src/finite_volume/GRP</text>
<text text-anchor="middle" x="203.5" y="-7.5" font-family="Helvetica,sans-Serif" font-size="10.00">_solver_EUL_source.c</text>
</a>
</g>
</g>
<!-- Node1&#45;&gt;Node3 -->
<g id="edge2" class="edge">
<title>Node1&#45;&gt;Node3</title>
<path fill="none" stroke="midnightblue" d="M316.67,-63.59C293.49,-53.94 261.32,-40.56 237.2,-30.52"/>
<polygon fill="midnightblue" stroke="midnightblue" points="315.43,-66.86 326.01,-67.48 318.12,-60.4 315.43,-66.86"/>
</g>
<!-- Node4 -->
<g id="node4" class="node">
<title>Node4</title>
<g id="a_node4"><a xlink:href="../../dd/dd7/_g_r_p__solver___l_a_g__source_8c.html" target="_top" xlink:title="This is a Lagrangian GRP scheme to solve 1&#45;D Euler equations.">
<polygon fill="white" stroke="black" points="284,-0.5 284,-30.5 409,-30.5 409,-0.5 284,-0.5"/>
<text text-anchor="start" x="292" y="-18.5" font-family="Helvetica,sans-Serif" font-size="10.00">src/finite_volume/GRP</text>
<text text-anchor="middle" x="346.5" y="-7.5" font-family="Helvetica,sans-Serif" font-size="10.00">_solver_LAG_source.c</text>
</a>
</g>
</g>
<!-- Node1&#45;&gt;Node4 -->
<g id="edge3" class="edge">
<title>Node1&#45;&gt;Node4</title>
<path fill="none" stroke="midnightblue" d="M346.5,-57.23C346.5,-48.59 346.5,-38.5 346.5,-30.52"/>
<polygon fill="midnightblue" stroke="midnightblue" points="343,-57.48 346.5,-67.48 350,-57.48 343,-57.48"/>
</g>
<!-- Node5 -->
<g id="node5" class="node">
<title>Node5</title>
<g id="a_node5"><a xlink:href="../../de/dd9/_godunov__solver___e_u_l__source_8c.html" target="_top" xlink:title="This is an Eulerian Godunov scheme to solve 1&#45;D Euler equations.">
<polygon fill="white" stroke="black" points="427.5,-0.5 427.5,-30.5 575.5,-30.5 575.5,-0.5 427.5,-0.5"/>
<text text-anchor="start" x="435.5" y="-18.5" font-family="Helvetica,sans-Serif" font-size="10.00">src/finite_volume/Godunov</text>
<text text-anchor="middle" x="501.5" y="-7.5" font-family="Helvetica,sans-Serif" font-size="10.00">_solver_EUL_source.c</text>
</a>
</g>
</g>
<!-- Node1&#45;&gt;Node5 -->
<g id="edge4" class="edge">
<title>Node1&#45;&gt;Node5</title>
<path fill="none" stroke="midnightblue" d="M378.16,-63.85C403.34,-54.18 438.6,-40.65 464.97,-30.52"/>
<polygon fill="midnightblue" stroke="midnightblue" points="376.79,-60.62 368.71,-67.48 379.3,-67.16 376.79,-60.62"/>
</g>
<!-- Node6 -->
<g id="node6" class="node">
<title>Node6</title>
<g id="a_node6"><a xlink:href="../../dd/d30/_godunov__solver___l_a_g__source_8c.html" target="_top" xlink:title="This is a Lagrangian Godunov scheme to solve 1&#45;D Euler equations.">
<polygon fill="white" stroke="black" points="593.5,-0.5 593.5,-30.5 741.5,-30.5 741.5,-0.5 593.5,-0.5"/>
<text text-anchor="start" x="601.5" y="-18.5" font-family="Helvetica,sans-Serif" font-size="10.00">src/finite_volume/Godunov</text>
<text text-anchor="middle" x="667.5" y="-7.5" font-family="Helvetica,sans-Serif" font-size="10.00">_solver_LAG_source.c</text>
</a>
</g>
</g>
<!-- Node1&#45;&gt;Node6 -->
<g id="edge5" class="edge">
<title>Node1&#45;&gt;Node6</title>
<path fill="none" stroke="midnightblue" d="M402.38,-65.64C455.31,-55.83 535.16,-41.03 593.39,-30.24"/>
<polygon fill="midnightblue" stroke="midnightblue" points="401.69,-62.21 392.49,-67.48 402.96,-69.09 401.69,-62.21"/>
</g>
</g>
</svg>
