<?xml version="1.0" encoding="UTF-8" standalone="no"?>
<!DOCTYPE svg PUBLIC "-//W3C//DTD SVG 1.1//EN"
 "http://www.w3.org/Graphics/SVG/1.1/DTD/svg11.dtd">
<!-- Generated by graphviz version 6.0.1 (0)
 -->
<!-- Title: src~ Pages: 1 -->
<svg width="654pt" height="148pt"
 viewBox="0.00 0.00 654.00 148.00" xmlns="http://www.w3.org/2000/svg" xmlns:xlink="http://www.w3.org/1999/xlink">
<g id="graph0" class="graph" transform="scale(1 1) rotate(0) translate(4 144)">
<title>src~</title>
<polygon fill="white" stroke="none" points="-4,4 -4,-144 650,-144 650,4 -4,4"/>
<g id="clust1" class="cluster">
<title>clusterdir_6771aafbf413a5638c4e561417caddb9</title>
<g id="a_clust1"><a xlink:href="dir_6771aafbf413a5638c4e561417caddb9.html" target="_top">
<polygon fill="#edf0f7" stroke="#404040" stroke-width="2" points="8,-8 8,-132 638,-132 638,-8 8,-8"/>
</a>
</g>
</g>
<!-- dir_6771aafbf413a5638c4e561417caddb9 -->
<g id="node1" class="node">
<title>dir_6771aafbf413a5638c4e561417caddb9</title>
<text text-anchor="middle" x="603" y="-103.5" font-family="Helvetica,sans-Serif" font-size="10.00">src~</text>
</g>
<!-- dir_ab846451f6b2e1a7a2652f9756abe74c -->
<g id="node2" class="node">
<title>dir_ab846451f6b2e1a7a2652f9756abe74c</title>
<g id="a_node2"><a xlink:href="dir_ab846451f6b2e1a7a2652f9756abe74c.html" target="_top" xlink:title="file_io">
<polygon fill="#a2b4d6" stroke="#404040" points="558,-124 504,-124 504,-88 558,-88 558,-124"/>
<text text-anchor="middle" x="531" y="-103.5" font-family="Helvetica,sans-Serif" font-size="10.00">file_io</text>
</a>
</g>
</g>
<!-- dir_0aa4ecdbc965570bd87fb4da401df2c8 -->
<g id="node5" class="node">
<title>dir_0aa4ecdbc965570bd87fb4da401df2c8</title>
<g id="a_node5"><a xlink:href="dir_0aa4ecdbc965570bd87fb4da401df2c8.html" target="_top" xlink:title="include">
<polygon fill="#a2b4d6" stroke="#404040" points="368,-52 314,-52 314,-16 368,-16 368,-52"/>
<text text-anchor="middle" x="341" y="-31.5" font-family="Helvetica,sans-Serif" font-size="10.00">include</text>
</a>
</g>
</g>
<!-- dir_ab846451f6b2e1a7a2652f9756abe74c&#45;&gt;dir_0aa4ecdbc965570bd87fb4da401df2c8 -->
<g id="edge1" class="edge">
<title>dir_ab846451f6b2e1a7a2652f9756abe74c&#45;&gt;dir_0aa4ecdbc965570bd87fb4da401df2c8</title>
<path fill="none" stroke="black" d="M503.62,-91.69C500.73,-90.4 497.82,-89.15 495,-88 455.53,-71.95 409.17,-56.43 377.7,-46.38"/>
<polygon fill="black" stroke="black" points="378.63,-43 368.04,-43.31 376.51,-49.67 378.63,-43"/>
<g id="a_edge1&#45;headlabel"><a xlink:href="dir_000000_000003.html" target="_top" xlink:title="10">
<text text-anchor="middle" x="382.91" y="-38.88" font-family="Helvetica,sans-Serif" font-size="10.00">10</text>
</a>
</g>
</g>
<!-- dir_0a2ea5ca0dbc03aa7111cf7a6cf18f1e -->
<g id="node3" class="node">
<title>dir_0a2ea5ca0dbc03aa7111cf7a6cf18f1e</title>
<g id="a_node3"><a xlink:href="dir_0a2ea5ca0dbc03aa7111cf7a6cf18f1e.html" target="_top" xlink:title="finite_volume">
<polygon fill="#a2b4d6" stroke="#404040" points="486,-124 402,-124 402,-88 486,-88 486,-124"/>
<text text-anchor="middle" x="444" y="-103.5" font-family="Helvetica,sans-Serif" font-size="10.00">finite_volume</text>
</a>
</g>
</g>
<!-- dir_0a2ea5ca0dbc03aa7111cf7a6cf18f1e&#45;&gt;dir_0aa4ecdbc965570bd87fb4da401df2c8 -->
<g id="edge2" class="edge">
<title>dir_0a2ea5ca0dbc03aa7111cf7a6cf18f1e&#45;&gt;dir_0aa4ecdbc965570bd87fb4da401df2c8</title>
<path fill="none" stroke="black" d="M418.8,-87.88C405.59,-78.89 389.21,-67.76 374.89,-58.03"/>
<polygon fill="black" stroke="black" points="376.53,-54.92 366.29,-52.19 372.6,-60.71 376.53,-54.92"/>
<g id="a_edge2&#45;headlabel"><a xlink:href="dir_000001_000003.html" target="_top" xlink:title="16">
<text text-anchor="middle" x="381.1" y="-52.09" font-family="Helvetica,sans-Serif" font-size="10.00">16</text>
</a>
</g>
</g>
<!-- dir_503d4d76aeb77436c0f092550750b597 -->
<g id="node4" class="node">
<title>dir_503d4d76aeb77436c0f092550750b597</title>
<g id="a_node4"><a xlink:href="dir_503d4d76aeb77436c0f092550750b597.html" target="_top" xlink:title="hydrocode_1D">
<polygon fill="#a2b4d6" stroke="#404040" points="384,-124 298,-124 298,-88 384,-88 384,-124"/>
<text text-anchor="middle" x="341" y="-103.5" font-family="Helvetica,sans-Serif" font-size="10.00">hydrocode_1D</text>
</a>
</g>
</g>
<!-- dir_503d4d76aeb77436c0f092550750b597&#45;&gt;dir_0aa4ecdbc965570bd87fb4da401df2c8 -->
<g id="edge3" class="edge">
<title>dir_503d4d76aeb77436c0f092550750b597&#45;&gt;dir_0aa4ecdbc965570bd87fb4da401df2c8</title>
<path fill="none" stroke="black" d="M341,-87.7C341,-79.98 341,-70.71 341,-62.11"/>
<polygon fill="black" stroke="black" points="344.5,-62.1 341,-52.1 337.5,-62.1 344.5,-62.1"/>
<g id="a_edge3&#45;headlabel"><a xlink:href="dir_000002_000003.html" target="_top" xlink:title="3">
<text text-anchor="middle" x="347.34" y="-63.2" font-family="Helvetica,sans-Serif" font-size="10.00">3</text>
</a>
</g>
</g>
<!-- dir_e8ef67cf99a2ba2267792f6cc6c44256 -->
<g id="node6" class="node">
<title>dir_e8ef67cf99a2ba2267792f6cc6c44256</title>
<g id="a_node6"><a xlink:href="dir_e8ef67cf99a2ba2267792f6cc6c44256.html" target="_top" xlink:title="inter_process">
<polygon fill="#a2b4d6" stroke="#404040" points="280,-124 198,-124 198,-88 280,-88 280,-124"/>
<text text-anchor="middle" x="239" y="-103.5" font-family="Helvetica,sans-Serif" font-size="10.00">inter_process</text>
</a>
</g>
</g>
<!-- dir_e8ef67cf99a2ba2267792f6cc6c44256&#45;&gt;dir_0aa4ecdbc965570bd87fb4da401df2c8 -->
<g id="edge4" class="edge">
<title>dir_e8ef67cf99a2ba2267792f6cc6c44256&#45;&gt;dir_0aa4ecdbc965570bd87fb4da401df2c8</title>
<path fill="none" stroke="black" d="M263.95,-87.88C277.04,-78.89 293.26,-67.76 307.44,-58.03"/>
<polygon fill="black" stroke="black" points="309.69,-60.73 315.95,-52.19 305.73,-54.96 309.69,-60.73"/>
<g id="a_edge4&#45;headlabel"><a xlink:href="dir_000004_000003.html" target="_top" xlink:title="5">
<text text-anchor="middle" x="308.33" y="-62.61" font-family="Helvetica,sans-Serif" font-size="10.00">5</text>
</a>
</g>
</g>
<!-- dir_bf60a11fb9e16029752bcd5632b70b71 -->
<g id="node7" class="node">
<title>dir_bf60a11fb9e16029752bcd5632b70b71</title>
<g id="a_node7"><a xlink:href="dir_bf60a11fb9e16029752bcd5632b70b71.html" target="_top" xlink:title="riemann_solver">
<polygon fill="#a2b4d6" stroke="#404040" points="180,-124 88,-124 88,-88 180,-88 180,-124"/>
<text text-anchor="middle" x="134" y="-103.5" font-family="Helvetica,sans-Serif" font-size="10.00">riemann_solver</text>
</a>
</g>
</g>
<!-- dir_bf60a11fb9e16029752bcd5632b70b71&#45;&gt;dir_0aa4ecdbc965570bd87fb4da401df2c8 -->
<g id="edge5" class="edge">
<title>dir_bf60a11fb9e16029752bcd5632b70b71&#45;&gt;dir_0aa4ecdbc965570bd87fb4da401df2c8</title>
<path fill="none" stroke="black" d="M180.2,-89.38C217.61,-76.73 269.62,-59.14 304.24,-47.43"/>
<polygon fill="black" stroke="black" points="305.61,-50.66 313.96,-44.14 303.36,-44.03 305.61,-50.66"/>
<g id="a_edge5&#45;headlabel"><a xlink:href="dir_000005_000003.html" target="_top" xlink:title="4">
<text text-anchor="middle" x="303.11" y="-52" font-family="Helvetica,sans-Serif" font-size="10.00">4</text>
</a>
</g>
</g>
<!-- dir_f9049ab4ccfea5722647058c3f5f5939 -->
<g id="node8" class="node">
<title>dir_f9049ab4ccfea5722647058c3f5f5939</title>
<g id="a_node8"><a xlink:href="dir_f9049ab4ccfea5722647058c3f5f5939.html" target="_top" xlink:title="tools">
<polygon fill="#a2b4d6" stroke="#404040" points="70,-124 16,-124 16,-88 70,-88 70,-124"/>
<text text-anchor="middle" x="43" y="-103.5" font-family="Helvetica,sans-Serif" font-size="10.00">tools</text>
</a>
</g>
</g>
</g>
</svg>
