<?xml version="1.0" encoding="UTF-8" standalone="no"?>
<!DOCTYPE svg PUBLIC "-//W3C//DTD SVG 1.1//EN"
 "http://www.w3.org/Graphics/SVG/1.1/DTD/svg11.dtd">
<!-- Generated by graphviz version 5.0.0 (0)
 -->
<!-- Title: config_write Pages: 1 -->
<svg width="231pt" height="104pt"
 viewBox="0.00 0.00 231.00 104.00" xmlns="http://www.w3.org/2000/svg" xmlns:xlink="http://www.w3.org/1999/xlink">
<g id="graph0" class="graph" transform="scale(1 1) rotate(0) translate(4 100)">
<title>config_write</title>
<polygon fill="white" stroke="transparent" points="-4,4 -4,-100 227,-100 227,4 -4,4"/>
<!-- Node1 -->
<g id="node1" class="node">
<title>Node1</title>
<g id="a_node1"><a xlink:title=" ">
<polygon fill="#bfbfbf" stroke="black" points="146,-38.5 146,-57.5 223,-57.5 223,-38.5 146,-38.5"/>
<text text-anchor="middle" x="184.5" y="-45.5" font-family="Helvetica,sans-Serif" font-size="10.00">config_write</text>
</a>
</g>
</g>
<!-- Node2 -->
<g id="node2" class="node">
<title>Node2</title>
<g id="a_node2"><a xlink:href="../../db/db6/__1_d__file__out_8c.html#ac8a02f83676d1a92835bb46c4eb0bcbc" target="_top" xlink:title="This function write the 1&#45;D solution into output .dat files.">
<polygon fill="white" stroke="black" points="12,-76.5 12,-95.5 98,-95.5 98,-76.5 12,-76.5"/>
<text text-anchor="middle" x="55" y="-83.5" font-family="Helvetica,sans-Serif" font-size="10.00">_1D_file_write</text>
</a>
</g>
</g>
<!-- Node1&#45;&gt;Node2 -->
<g id="edge1" class="edge">
<title>Node1&#45;&gt;Node2</title>
<path fill="none" stroke="midnightblue" d="M141.44,-60.54C124.1,-65.7 104.32,-71.6 88.16,-76.41"/>
<polygon fill="midnightblue" stroke="midnightblue" points="142.74,-63.8 151.33,-57.59 140.74,-57.09 142.74,-63.8"/>
</g>
<!-- Node3 -->
<g id="node3" class="node">
<title>Node3</title>
<g id="a_node3"><a xlink:href="../../d8/d32/__2_d__file__out_8c.html#a2af47b5ca07b0ab40a1bc384565ab2a0" target="_top" xlink:title="This function write the 2&#45;D solution into output .dat files.">
<polygon fill="white" stroke="black" points="12,-38.5 12,-57.5 98,-57.5 98,-38.5 12,-38.5"/>
<text text-anchor="middle" x="55" y="-45.5" font-family="Helvetica,sans-Serif" font-size="10.00">_2D_file_write</text>
</a>
</g>
</g>
<!-- Node1&#45;&gt;Node3 -->
<g id="edge2" class="edge">
<title>Node1&#45;&gt;Node3</title>
<path fill="none" stroke="midnightblue" d="M135.81,-48C123.46,-48 110.26,-48 98.21,-48"/>
<polygon fill="midnightblue" stroke="midnightblue" points="135.94,-51.5 145.94,-48 135.94,-44.5 135.94,-51.5"/>
</g>
<!-- Node4 -->
<g id="node4" class="node">
<title>Node4</title>
<g id="a_node4"><a xlink:href="../../d8/d32/__2_d__file__out_8c.html#aec541405a9b5172445c0cd309a723c7d" target="_top" xlink:title="This function write the 2&#45;D solution into Tecplot output files.">
<polygon fill="white" stroke="black" points="0,-0.5 0,-19.5 110,-19.5 110,-0.5 0,-0.5"/>
<text text-anchor="middle" x="55" y="-7.5" font-family="Helvetica,sans-Serif" font-size="10.00">_2D_TEC_file_write</text>
</a>
</g>
</g>
<!-- Node1&#45;&gt;Node4 -->
<g id="edge3" class="edge">
<title>Node1&#45;&gt;Node4</title>
<path fill="none" stroke="midnightblue" d="M141.44,-35.46C124.1,-30.3 104.32,-24.4 88.16,-19.59"/>
<polygon fill="midnightblue" stroke="midnightblue" points="140.74,-38.91 151.33,-38.41 142.74,-32.2 140.74,-38.91"/>
</g>
</g>
</svg>
