<?xml version="1.0" encoding="UTF-8" standalone="no"?>
<!DOCTYPE svg PUBLIC "-//W3C//DTD SVG 1.1//EN"
 "http://www.w3.org/Graphics/SVG/1.1/DTD/svg11.dtd">
<!-- Generated by graphviz version 5.0.0 (0)
 -->
<!-- Title: GRP_solver_EUL_source Pages: 1 -->
<svg width="552pt" height="123pt"
 viewBox="0.00 0.00 552.00 123.00" xmlns="http://www.w3.org/2000/svg" xmlns:xlink="http://www.w3.org/1999/xlink">
<g id="graph0" class="graph" transform="scale(1 1) rotate(0) translate(4 119)">
<title>GRP_solver_EUL_source</title>
<polygon fill="white" stroke="transparent" points="-4,4 -4,-119 548,-119 548,4 -4,4"/>
<!-- Node1 -->
<g id="node1" class="node">
<title>Node1</title>
<g id="a_node1"><a xlink:title="This function use GRP scheme to solve 1&#45;D Euler equations of motion on Eulerian coordinate.">
<polygon fill="#bfbfbf" stroke="black" points="0,-38.5 0,-57.5 134,-57.5 134,-38.5 0,-38.5"/>
<text text-anchor="middle" x="67" y="-45.5" font-family="Helvetica,sans-Serif" font-size="10.00">GRP_solver_EUL_source</text>
</a>
</g>
</g>
<!-- Node2 -->
<g id="node2" class="node">
<title>Node2</title>
<g id="a_node2"><a xlink:href="../../df/d13/bound__cond__slope__limiter_8c.html#adf898c0b0966ac36a90920be44951a5c" target="_top" xlink:title="This function apply the minmod limiter to the slope in one dimension.">
<polygon fill="white" stroke="black" points="170,-76.5 170,-95.5 314,-95.5 314,-76.5 170,-76.5"/>
<text text-anchor="middle" x="242" y="-83.5" font-family="Helvetica,sans-Serif" font-size="10.00">bound_cond_slope_limiter</text>
</a>
</g>
</g>
<!-- Node1&#45;&gt;Node2 -->
<g id="edge1" class="edge">
<title>Node1&#45;&gt;Node2</title>
<path fill="none" stroke="midnightblue" d="M111.66,-57.59C134.79,-62.67 163.4,-68.96 187.83,-74.32"/>
<polygon fill="midnightblue" stroke="midnightblue" points="187.14,-77.75 197.66,-76.48 188.64,-70.92 187.14,-77.75"/>
</g>
<!-- Node6 -->
<g id="node6" class="node">
<title>Node6</title>
<g id="a_node6"><a xlink:href="../../d4/ddd/sys__pro_8c.html#aab058cac35713b52c083b9e54ffa45eb" target="_top" xlink:title="This function print a progress bar on one line of standard output.">
<polygon fill="white" stroke="black" points="215,-38.5 215,-57.5 269,-57.5 269,-38.5 215,-38.5"/>
<text text-anchor="middle" x="242" y="-45.5" font-family="Helvetica,sans-Serif" font-size="10.00">DispPro</text>
</a>
</g>
</g>
<!-- Node1&#45;&gt;Node6 -->
<g id="edge5" class="edge">
<title>Node1&#45;&gt;Node6</title>
<path fill="none" stroke="midnightblue" d="M134.39,-48C158.25,-48 184.26,-48 204.62,-48"/>
<polygon fill="midnightblue" stroke="midnightblue" points="204.71,-51.5 214.71,-48 204.71,-44.5 204.71,-51.5"/>
</g>
<!-- Node7 -->
<g id="node7" class="node">
<title>Node7</title>
<g id="a_node7"><a xlink:href="../../dc/d70/linear___g_r_p__solver___edir_8c.html#ae1ab028f093a0dcda02b4f7ae5a23ce2" target="_top" xlink:title="A direct Eulerian GRP solver for unsteady compressible inviscid flow in one space dimension.">
<polygon fill="white" stroke="black" points="177.5,-0.5 177.5,-19.5 306.5,-19.5 306.5,-0.5 177.5,-0.5"/>
<text text-anchor="middle" x="242" y="-7.5" font-family="Helvetica,sans-Serif" font-size="10.00">linear_GRP_solver_Edir</text>
</a>
</g>
</g>
<!-- Node1&#45;&gt;Node7 -->
<g id="edge6" class="edge">
<title>Node1&#45;&gt;Node7</title>
<path fill="none" stroke="midnightblue" d="M111.66,-38.41C134.79,-33.33 163.4,-27.04 187.83,-21.68"/>
<polygon fill="midnightblue" stroke="midnightblue" points="188.64,-25.08 197.66,-19.52 187.14,-18.25 188.64,-25.08"/>
</g>
<!-- Node3 -->
<g id="node3" class="node">
<title>Node3</title>
<g id="a_node3"><a xlink:href="../../d2/d49/slope__limiter_8c.html#ae6551ab705937492c059ece48a3b2793" target="_top" xlink:title="This function apply the minmod limiter to the slope in one dimension.">
<polygon fill="white" stroke="black" points="350,-76.5 350,-95.5 445,-95.5 445,-76.5 350,-76.5"/>
<text text-anchor="middle" x="397.5" y="-83.5" font-family="Helvetica,sans-Serif" font-size="10.00">minmod_limiter</text>
</a>
</g>
</g>
<!-- Node2&#45;&gt;Node3 -->
<g id="edge2" class="edge">
<title>Node2&#45;&gt;Node3</title>
<path fill="none" stroke="midnightblue" d="M314.36,-86C322.84,-86 331.4,-86 339.64,-86"/>
<polygon fill="midnightblue" stroke="midnightblue" points="339.87,-89.5 349.87,-86 339.87,-82.5 339.87,-89.5"/>
</g>
<!-- Node4 -->
<g id="node4" class="node">
<title>Node4</title>
<g id="a_node4"><a xlink:href="../../d5/da5/tools_8h.html#a56cac3298eeead8cf22c1e61eb5a5a88" target="_top" xlink:title="Minmod limiter function of two variables.">
<polygon fill="white" stroke="black" points="481,-95.5 481,-114.5 544,-114.5 544,-95.5 481,-95.5"/>
<text text-anchor="middle" x="512.5" y="-102.5" font-family="Helvetica,sans-Serif" font-size="10.00">minmod2</text>
</a>
</g>
</g>
<!-- Node3&#45;&gt;Node4 -->
<g id="edge3" class="edge">
<title>Node3&#45;&gt;Node4</title>
<path fill="none" stroke="midnightblue" d="M445.11,-93.84C453.67,-95.28 462.54,-96.77 470.91,-98.17"/>
<polygon fill="midnightblue" stroke="midnightblue" points="470.36,-101.63 480.8,-99.84 471.52,-94.73 470.36,-101.63"/>
</g>
<!-- Node5 -->
<g id="node5" class="node">
<title>Node5</title>
<g id="a_node5"><a xlink:href="../../d5/da5/tools_8h.html#a6dfba28e1af33b47f4656d3738996fe9" target="_top" xlink:title="Minmod limiter function of three variables.">
<polygon fill="white" stroke="black" points="481,-57.5 481,-76.5 544,-76.5 544,-57.5 481,-57.5"/>
<text text-anchor="middle" x="512.5" y="-64.5" font-family="Helvetica,sans-Serif" font-size="10.00">minmod3</text>
</a>
</g>
</g>
<!-- Node3&#45;&gt;Node5 -->
<g id="edge4" class="edge">
<title>Node3&#45;&gt;Node5</title>
<path fill="none" stroke="midnightblue" d="M445.11,-78.16C453.67,-76.72 462.54,-75.23 470.91,-73.83"/>
<polygon fill="midnightblue" stroke="midnightblue" points="471.52,-77.27 480.8,-72.16 470.36,-70.37 471.52,-77.27"/>
</g>
</g>
</svg>
