<?xml version="1.0" encoding="UTF-8" standalone="no"?>
<!DOCTYPE svg PUBLIC "-//W3C//DTD SVG 1.1//EN"
 "http://www.w3.org/Graphics/SVG/1.1/DTD/svg11.dtd">
<!-- Generated by graphviz version 5.0.0 (0)
 -->
<!-- Title: example_io Pages: 1 -->
<svg width="305pt" height="180pt"
 viewBox="0.00 0.00 305.00 180.00" xmlns="http://www.w3.org/2000/svg" xmlns:xlink="http://www.w3.org/1999/xlink">
<g id="graph0" class="graph" transform="scale(1 1) rotate(0) translate(4 176)">
<title>example_io</title>
<polygon fill="white" stroke="transparent" points="-4,4 -4,-176 301,-176 301,4 -4,4"/>
<!-- Node1 -->
<g id="node1" class="node">
<title>Node1</title>
<g id="a_node1"><a xlink:title="This function produces folder path for data input or output.">
<polygon fill="#bfbfbf" stroke="black" points="223,-76.5 223,-95.5 297,-95.5 297,-76.5 223,-76.5"/>
<text text-anchor="middle" x="260" y="-83.5" font-family="Helvetica,sans-Serif" font-size="10.00">example_io</text>
</a>
</g>
</g>
<!-- Node2 -->
<g id="node2" class="node">
<title>Node2</title>
<g id="a_node2"><a xlink:href="../../db/db6/__1_d__file__out_8c.html#ac8a02f83676d1a92835bb46c4eb0bcbc" target="_top" xlink:title="This function write the 1&#45;D solution into output .dat files.">
<polygon fill="white" stroke="black" points="89,-152.5 89,-171.5 175,-171.5 175,-152.5 89,-152.5"/>
<text text-anchor="middle" x="132" y="-159.5" font-family="Helvetica,sans-Serif" font-size="10.00">_1D_file_write</text>
</a>
</g>
</g>
<!-- Node1&#45;&gt;Node2 -->
<g id="edge1" class="edge">
<title>Node1&#45;&gt;Node2</title>
<path fill="none" stroke="midnightblue" d="M241.68,-102.44C227.78,-114.93 207.31,-131.8 187,-143 180.39,-146.65 172.94,-149.8 165.74,-152.44"/>
<polygon fill="midnightblue" stroke="midnightblue" points="244.05,-105.02 249.05,-95.67 239.31,-99.86 244.05,-105.02"/>
</g>
<!-- Node3 -->
<g id="node3" class="node">
<title>Node3</title>
<g id="a_node3"><a xlink:href="../../dd/d92/__1_d__file__in_8c.html#ac488f20dece96d36772ef580e4de334e" target="_top" xlink:title="This function reads the 1&#45;D initial data file of velocity/pressure/density.">
<polygon fill="white" stroke="black" points="90.5,-114.5 90.5,-133.5 173.5,-133.5 173.5,-114.5 90.5,-114.5"/>
<text text-anchor="middle" x="132" y="-121.5" font-family="Helvetica,sans-Serif" font-size="10.00">_1D_initialize</text>
</a>
</g>
</g>
<!-- Node1&#45;&gt;Node3 -->
<g id="edge2" class="edge">
<title>Node1&#45;&gt;Node3</title>
<path fill="none" stroke="midnightblue" d="M217.44,-98.54C200.29,-103.7 180.75,-109.6 164.78,-114.41"/>
<polygon fill="midnightblue" stroke="midnightblue" points="218.64,-101.83 227.2,-95.59 216.62,-95.13 218.64,-101.83"/>
</g>
<!-- Node5 -->
<g id="node5" class="node">
<title>Node5</title>
<g id="a_node5"><a xlink:href="../../d8/d32/__2_d__file__out_8c.html#a2af47b5ca07b0ab40a1bc384565ab2a0" target="_top" xlink:title="This function write the 2&#45;D solution into output .dat files.">
<polygon fill="white" stroke="black" points="89,-76.5 89,-95.5 175,-95.5 175,-76.5 89,-76.5"/>
<text text-anchor="middle" x="132" y="-83.5" font-family="Helvetica,sans-Serif" font-size="10.00">_2D_file_write</text>
</a>
</g>
</g>
<!-- Node1&#45;&gt;Node5 -->
<g id="edge4" class="edge">
<title>Node1&#45;&gt;Node5</title>
<path fill="none" stroke="midnightblue" d="M212.85,-86C200.59,-86 187.4,-86 175.35,-86"/>
<polygon fill="midnightblue" stroke="midnightblue" points="212.89,-89.5 222.89,-86 212.89,-82.5 212.89,-89.5"/>
</g>
<!-- Node6 -->
<g id="node6" class="node">
<title>Node6</title>
<g id="a_node6"><a xlink:href="../../d4/d75/__2_d__file__in_8c.html#a2888d943cf419875759b1f72a7723296" target="_top" xlink:title="This function reads the 2&#45;D initial data file of velocity/pressure/density.">
<polygon fill="white" stroke="black" points="90.5,-38.5 90.5,-57.5 173.5,-57.5 173.5,-38.5 90.5,-38.5"/>
<text text-anchor="middle" x="132" y="-45.5" font-family="Helvetica,sans-Serif" font-size="10.00">_2D_initialize</text>
</a>
</g>
</g>
<!-- Node1&#45;&gt;Node6 -->
<g id="edge5" class="edge">
<title>Node1&#45;&gt;Node6</title>
<path fill="none" stroke="midnightblue" d="M217.44,-73.46C200.29,-68.3 180.75,-62.4 164.78,-57.59"/>
<polygon fill="midnightblue" stroke="midnightblue" points="216.62,-76.87 227.2,-76.41 218.64,-70.17 216.62,-76.87"/>
</g>
<!-- Node7 -->
<g id="node7" class="node">
<title>Node7</title>
<g id="a_node7"><a xlink:href="../../d8/d32/__2_d__file__out_8c.html#aec541405a9b5172445c0cd309a723c7d" target="_top" xlink:title="This function write the 2&#45;D solution into Tecplot output files.">
<polygon fill="white" stroke="black" points="77,-0.5 77,-19.5 187,-19.5 187,-0.5 77,-0.5"/>
<text text-anchor="middle" x="132" y="-7.5" font-family="Helvetica,sans-Serif" font-size="10.00">_2D_TEC_file_write</text>
</a>
</g>
</g>
<!-- Node1&#45;&gt;Node7 -->
<g id="edge6" class="edge">
<title>Node1&#45;&gt;Node7</title>
<path fill="none" stroke="midnightblue" d="M241.68,-69.56C227.78,-57.07 207.31,-40.2 187,-29 180.39,-25.35 172.94,-22.2 165.74,-19.56"/>
<polygon fill="midnightblue" stroke="midnightblue" points="239.31,-72.14 249.05,-76.33 244.05,-66.98 239.31,-72.14"/>
</g>
<!-- Node4 -->
<g id="node4" class="node">
<title>Node4</title>
<g id="a_node4"><a xlink:href="../../d2/d24/hydrocode_8c.html#a0ddf1224851353fc92bfbff6f499fa97" target="_top" xlink:title="This is the main function which constructs the main structure of the Lagrangian/Eulerian hydrocode.">
<polygon fill="white" stroke="black" points="0,-114.5 0,-133.5 41,-133.5 41,-114.5 0,-114.5"/>
<text text-anchor="middle" x="20.5" y="-121.5" font-family="Helvetica,sans-Serif" font-size="10.00">main</text>
</a>
</g>
</g>
<!-- Node3&#45;&gt;Node4 -->
<g id="edge3" class="edge">
<title>Node3&#45;&gt;Node4</title>
<path fill="none" stroke="midnightblue" d="M79.82,-124C66.07,-124 52.01,-124 41.15,-124"/>
<polygon fill="midnightblue" stroke="midnightblue" points="80.23,-127.5 90.23,-124 80.23,-120.5 80.23,-127.5"/>
</g>
</g>
</svg>
