<?xml version="1.0" encoding="UTF-8" standalone="no"?>
<!DOCTYPE svg PUBLIC "-//W3C//DTD SVG 1.1//EN"
 "http://www.w3.org/Graphics/SVG/1.1/DTD/svg11.dtd">
<!-- Generated by graphviz version 6.0.1 (0)
 -->
<!-- Title: file_2D_write_POINT_TEC Pages: 1 -->
<svg width="413pt" height="116pt"
 viewBox="0.00 0.00 413.00 115.50" xmlns="http://www.w3.org/2000/svg" xmlns:xlink="http://www.w3.org/1999/xlink">
<g id="graph0" class="graph" transform="scale(1 1) rotate(0) translate(4 111.5)">
<title>file_2D_write_POINT_TEC</title>
<polygon fill="white" stroke="none" points="-4,4 -4,-111.5 409,-111.5 409,4 -4,4"/>
<!-- Node1 -->
<g id="node1" class="node">
<title>Node1</title>
<g id="a_node1"><a xlink:title="This function write the 2&#45;D solution into Tecplot output files with point data.">
<polygon fill="#bfbfbf" stroke="black" points="265,-50 265,-69 405,-69 405,-50 265,-50"/>
<text text-anchor="middle" x="335" y="-57" font-family="Helvetica,sans-Serif" font-size="10.00">file_2D_write_POINT_TEC</text>
</a>
</g>
</g>
<!-- Node2 -->
<g id="node2" class="node">
<title>Node2</title>
<g id="a_node2"><a xlink:href="../../d1/d4b/grp__solver__2_d___e_u_l__source_8c.html#a30950ea8ff93f97618fb87759c6aae04" target="_top" xlink:title="This function use GRP scheme to solve 2&#45;D Euler equations of motion on Eulerian coordinate without di...">
<polygon fill="white" stroke="black" points="77,-88 77,-107 229,-107 229,-88 77,-88"/>
<text text-anchor="middle" x="153" y="-95" font-family="Helvetica,sans-Serif" font-size="10.00">GRP_solver_2D_EUL_source</text>
</a>
</g>
</g>
<!-- Node1&#45;&gt;Node2 -->
<g id="edge1" class="edge">
<title>Node1&#45;&gt;Node2</title>
<path fill="none" stroke="midnightblue" d="M278.67,-71.18C253.14,-76.57 223.22,-82.89 199.09,-87.98"/>
<polygon fill="midnightblue" stroke="midnightblue" points="279.52,-74.58 288.58,-69.09 278.07,-67.73 279.52,-74.58"/>
</g>
<!-- Node3 -->
<g id="node3" class="node">
<title>Node3</title>
<g id="a_node3"><a xlink:href="../../d2/d24/hydrocode_8c.html#a0ddf1224851353fc92bfbff6f499fa97" target="_top" xlink:title="This is the main function which constructs the main structure of the 2&#45;D Eulerian hydrocode.">
<polygon fill="white" stroke="black" points="0,-50 0,-69 41,-69 41,-50 0,-50"/>
<text text-anchor="middle" x="20.5" y="-57" font-family="Helvetica,sans-Serif" font-size="10.00">main</text>
</a>
</g>
</g>
<!-- Node1&#45;&gt;Node3 -->
<g id="edge5" class="edge">
<title>Node1&#45;&gt;Node3</title>
<path fill="none" stroke="midnightblue" d="M254.33,-59.5C182.95,-59.5 83.25,-59.5 41.32,-59.5"/>
<polygon fill="midnightblue" stroke="midnightblue" points="254.65,-63 264.65,-59.5 254.65,-56 254.65,-63"/>
</g>
<!-- Node4 -->
<g id="node4" class="node">
<title>Node4</title>
<g id="a_node4"><a xlink:href="../../df/d07/grp__solver__2_d__split___e_u_l__source_8c.html#af66dc2722921b16ef5aa77be65cfc311" target="_top" xlink:title="This function use GRP scheme to solve 2&#45;D Euler equations of motion on Eulerian coordinate with dimen...">
<polygon fill="white" stroke="black" points="94.5,-0.5 94.5,-30.5 211.5,-30.5 211.5,-0.5 94.5,-0.5"/>
<text text-anchor="start" x="102.5" y="-18.5" font-family="Helvetica,sans-Serif" font-size="10.00">GRP_solver_2D_split</text>
<text text-anchor="middle" x="153" y="-7.5" font-family="Helvetica,sans-Serif" font-size="10.00">_EUL_source</text>
</a>
</g>
</g>
<!-- Node1&#45;&gt;Node4 -->
<g id="edge3" class="edge">
<title>Node1&#45;&gt;Node4</title>
<path fill="none" stroke="midnightblue" d="M285.2,-47.57C262.55,-42.03 235.46,-35.41 211.79,-29.63"/>
<polygon fill="midnightblue" stroke="midnightblue" points="284.4,-50.98 294.94,-49.95 286.06,-44.18 284.4,-50.98"/>
</g>
<!-- Node2&#45;&gt;Node3 -->
<g id="edge2" class="edge">
<title>Node2&#45;&gt;Node3</title>
<path fill="none" stroke="midnightblue" d="M109.18,-85.03C86.19,-78.34 58.97,-70.41 41.03,-65.19"/>
<polygon fill="midnightblue" stroke="midnightblue" points="108.49,-88.48 119.07,-87.91 110.45,-81.75 108.49,-88.48"/>
</g>
<!-- Node4&#45;&gt;Node3 -->
<g id="edge4" class="edge">
<title>Node4&#45;&gt;Node3</title>
<path fill="none" stroke="midnightblue" d="M97.74,-33.8C77.64,-40.57 56.11,-47.83 41.07,-52.9"/>
<polygon fill="midnightblue" stroke="midnightblue" points="99.1,-37.03 107.45,-30.52 96.86,-30.4 99.1,-37.03"/>
</g>
</g>
</svg>
