<?xml version="1.0" encoding="UTF-8" standalone="no"?>
<!DOCTYPE svg PUBLIC "-//W3C//DTD SVG 1.1//EN"
 "http://www.w3.org/Graphics/SVG/1.1/DTD/svg11.dtd">
<!-- Generated by graphviz version 5.0.0 (0)
 -->
<!-- Title: flux_generator_y Pages: 1 -->
<svg width="578pt" height="28pt"
 viewBox="0.00 0.00 578.00 28.00" xmlns="http://www.w3.org/2000/svg" xmlns:xlink="http://www.w3.org/1999/xlink">
<g id="graph0" class="graph" transform="scale(1 1) rotate(0) translate(4 24)">
<title>flux_generator_y</title>
<polygon fill="white" stroke="transparent" points="-4,4 -4,-24 574,-24 574,4 -4,4"/>
<!-- Node1 -->
<g id="node1" class="node">
<title>Node1</title>
<g id="a_node1"><a xlink:title="This function calculate Eulerian fluxes of 2&#45;D Euler equations in y&#45;direction by 2&#45;D GRP solver.">
<polygon fill="#bfbfbf" stroke="black" points="0,-0.5 0,-19.5 99,-19.5 99,-0.5 0,-0.5"/>
<text text-anchor="middle" x="49.5" y="-7.5" font-family="Helvetica,sans-Serif" font-size="10.00">flux_generator_y</text>
</a>
</g>
</g>
<!-- Node2 -->
<g id="node2" class="node">
<title>Node2</title>
<g id="a_node2"><a xlink:href="../../d5/d55/flux__solver_8c.html#a49938584f813ee4c3756f8aba45325de" target="_top" xlink:title="This function calculate Eulerian fluxes of 2&#45;D Euler equations by 2&#45;D GRP solver.">
<polygon fill="white" stroke="black" points="135,-0.5 135,-19.5 215,-19.5 215,-0.5 135,-0.5"/>
<text text-anchor="middle" x="175" y="-7.5" font-family="Helvetica,sans-Serif" font-size="10.00">GRP_2D_flux</text>
</a>
</g>
</g>
<!-- Node1&#45;&gt;Node2 -->
<g id="edge1" class="edge">
<title>Node1&#45;&gt;Node2</title>
<path fill="none" stroke="midnightblue" d="M99.31,-10C107.56,-10 116.13,-10 124.4,-10"/>
<polygon fill="midnightblue" stroke="midnightblue" points="124.66,-13.5 134.66,-10 124.66,-6.5 124.66,-13.5"/>
</g>
<!-- Node3 -->
<g id="node3" class="node">
<title>Node3</title>
<g id="a_node3"><a xlink:href="../../d5/dea/linear___g_r_p__solver___edir___q1_d_8c.html#a2d9faf2079b8b005ff0154c65f8d41f2" target="_top" xlink:title="A Quasi&#45;1D direct Eulerian GRP solver for unsteady compressible inviscid two&#45;component flow in two sp...">
<polygon fill="white" stroke="black" points="251,-0.5 251,-19.5 406,-19.5 406,-0.5 251,-0.5"/>
<text text-anchor="middle" x="328.5" y="-7.5" font-family="Helvetica,sans-Serif" font-size="10.00">linear_GRP_solver_Edir_Q1D</text>
</a>
</g>
</g>
<!-- Node2&#45;&gt;Node3 -->
<g id="edge2" class="edge">
<title>Node2&#45;&gt;Node3</title>
<path fill="none" stroke="midnightblue" d="M215.02,-10C223.04,-10 231.79,-10 240.76,-10"/>
<polygon fill="midnightblue" stroke="midnightblue" points="240.94,-13.5 250.94,-10 240.94,-6.5 240.94,-13.5"/>
</g>
<!-- Node4 -->
<g id="node4" class="node">
<title>Node4</title>
<g id="a_node4"><a xlink:href="../../d3/d54/_riemann__solver__exact___ben_8c.html#a3ad58b11c355d45ee406da49161edbd4" target="_top" xlink:title="EXACT RIEMANN SOLVER FOR Two&#45;Component γ&#45;Law Gas">
<polygon fill="white" stroke="black" points="442,-0.5 442,-19.5 570,-19.5 570,-0.5 442,-0.5"/>
<text text-anchor="middle" x="506" y="-7.5" font-family="Helvetica,sans-Serif" font-size="10.00">Riemann_solver_exact</text>
</a>
</g>
</g>
<!-- Node3&#45;&gt;Node4 -->
<g id="edge3" class="edge">
<title>Node3&#45;&gt;Node4</title>
<path fill="none" stroke="midnightblue" d="M406.22,-10C414.68,-10 423.28,-10 431.69,-10"/>
<polygon fill="midnightblue" stroke="midnightblue" points="431.85,-13.5 441.85,-10 431.85,-6.5 431.85,-13.5"/>
</g>
</g>
</svg>
