<?xml version="1.0" encoding="UTF-8" standalone="no"?>
<!DOCTYPE svg PUBLIC "-//W3C//DTD SVG 1.1//EN"
 "http://www.w3.org/Graphics/SVG/1.1/DTD/svg11.dtd">
<!-- Generated by graphviz version 5.0.0 (0)
 -->
<!-- Title: /run/media/leixin/软件盘/雷昕整理后的重要文件/程序/My&#45;CFD/HydroCODE/src/include/inter_process.h Pages: 1 -->
<svg width="2301pt" height="161pt"
 viewBox="0.00 0.00 2301.00 161.00" xmlns="http://www.w3.org/2000/svg" xmlns:xlink="http://www.w3.org/1999/xlink">
<g id="graph0" class="graph" transform="scale(1 1) rotate(0) translate(4 157)">
<title>/run/media/leixin/软件盘/雷昕整理后的重要文件/程序/My&#45;CFD/HydroCODE/src/include/inter_process.h</title>
<polygon fill="white" stroke="transparent" points="-4,4 -4,-157 2297,-157 2297,4 -4,4"/>
<!-- Node1 -->
<g id="node1" class="node">
<title>Node1</title>
<g id="a_node1"><a xlink:title="This file is the header file of intermediate processes of finite volume scheme.">
<polygon fill="#bfbfbf" stroke="black" points="1168,-100.5 1168,-152.5 1326,-152.5 1326,-100.5 1168,-100.5"/>
<text text-anchor="start" x="1176" y="-140.5" font-family="Helvetica,sans-Serif" font-size="10.00">/run/media/leixin/软件盘</text>
<text text-anchor="start" x="1176" y="-129.5" font-family="Helvetica,sans-Serif" font-size="10.00">/雷昕整理后的重要文件</text>
<text text-anchor="start" x="1176" y="-118.5" font-family="Helvetica,sans-Serif" font-size="10.00">/程序/My&#45;CFD/HydroCODE/src</text>
<text text-anchor="middle" x="1247" y="-107.5" font-family="Helvetica,sans-Serif" font-size="10.00">/include/inter_process.h</text>
</a>
</g>
</g>
<!-- Node2 -->
<g id="node2" class="node">
<title>Node2</title>
<g id="a_node2"><a xlink:href="../../d6/d0f/_g_r_p__solver__2_d___e_u_l__source_8c.html" target="_top" xlink:title="This is an Eulerian GRP scheme to solve 2&#45;D Euler equations without dimension splitting.">
<polygon fill="white" stroke="black" points="0,-6 0,-58 234,-58 234,-6 0,-6"/>
<text text-anchor="start" x="8" y="-46" font-family="Helvetica,sans-Serif" font-size="10.00">/run/media/leixin/软件盘</text>
<text text-anchor="start" x="8" y="-35" font-family="Helvetica,sans-Serif" font-size="10.00">/雷昕整理后的重要文件</text>
<text text-anchor="start" x="8" y="-24" font-family="Helvetica,sans-Serif" font-size="10.00">/程序/My&#45;CFD/HydroCODE/src</text>
<text text-anchor="middle" x="117" y="-13" font-family="Helvetica,sans-Serif" font-size="10.00">/finite_volume/GRP_solver_2D_EUL_source.c</text>
</a>
</g>
</g>
<!-- Node1&#45;&gt;Node2 -->
<g id="edge1" class="edge">
<title>Node1&#45;&gt;Node2</title>
<path fill="none" stroke="midnightblue" d="M1157.48,-125.4C981.34,-124.03 577.73,-115 243,-64 232.53,-62.41 221.66,-60.35 210.89,-58.06"/>
<polygon fill="midnightblue" stroke="midnightblue" points="1157.71,-128.9 1167.74,-125.48 1157.76,-121.9 1157.71,-128.9"/>
</g>
<!-- Node3 -->
<g id="node3" class="node">
<title>Node3</title>
<g id="a_node3"><a xlink:href="../../dc/d9e/_g_r_p__solver__2_d__split___e_u_l__source_8c.html" target="_top" xlink:title="This is an Eulerian GRP scheme to solve 2&#45;D Euler equations with dimension splitting.">
<polygon fill="white" stroke="black" points="252.5,-0.5 252.5,-63.5 443.5,-63.5 443.5,-0.5 252.5,-0.5"/>
<text text-anchor="start" x="260.5" y="-51.5" font-family="Helvetica,sans-Serif" font-size="10.00">/run/media/leixin/软件盘</text>
<text text-anchor="start" x="260.5" y="-40.5" font-family="Helvetica,sans-Serif" font-size="10.00">/雷昕整理后的重要文件</text>
<text text-anchor="start" x="260.5" y="-29.5" font-family="Helvetica,sans-Serif" font-size="10.00">/程序/My&#45;CFD/HydroCODE/src</text>
<text text-anchor="start" x="260.5" y="-18.5" font-family="Helvetica,sans-Serif" font-size="10.00">/finite_volume/GRP_solver_2D_split</text>
<text text-anchor="middle" x="348" y="-7.5" font-family="Helvetica,sans-Serif" font-size="10.00">_EUL_source.c</text>
</a>
</g>
</g>
<!-- Node1&#45;&gt;Node3 -->
<g id="edge2" class="edge">
<title>Node1&#45;&gt;Node3</title>
<path fill="none" stroke="midnightblue" d="M1157.47,-124.75C1009.44,-122.13 704.88,-110.92 452,-64 449.22,-63.48 446.41,-62.92 443.58,-62.32"/>
<polygon fill="midnightblue" stroke="midnightblue" points="1157.8,-128.25 1167.86,-124.92 1157.92,-121.25 1157.8,-128.25"/>
</g>
<!-- Node4 -->
<g id="node4" class="node">
<title>Node4</title>
<g id="a_node4"><a xlink:href="../../de/de8/_g_r_p__solver___a_l_e__source_8c.html" target="_top" xlink:title="This is an ALE GRP scheme to solve 1&#45;D Euler equations.">
<polygon fill="white" stroke="black" points="461.5,-6 461.5,-58 676.5,-58 676.5,-6 461.5,-6"/>
<text text-anchor="start" x="469.5" y="-46" font-family="Helvetica,sans-Serif" font-size="10.00">/run/media/leixin/软件盘</text>
<text text-anchor="start" x="469.5" y="-35" font-family="Helvetica,sans-Serif" font-size="10.00">/雷昕整理后的重要文件</text>
<text text-anchor="start" x="469.5" y="-24" font-family="Helvetica,sans-Serif" font-size="10.00">/程序/My&#45;CFD/HydroCODE/src</text>
<text text-anchor="middle" x="569" y="-13" font-family="Helvetica,sans-Serif" font-size="10.00">/finite_volume/GRP_solver_ALE_source.c</text>
</a>
</g>
</g>
<!-- Node1&#45;&gt;Node4 -->
<g id="edge3" class="edge">
<title>Node1&#45;&gt;Node4</title>
<path fill="none" stroke="midnightblue" d="M1157.61,-119.93C1046.22,-112.03 850.36,-94.96 685,-64 675.88,-62.29 666.43,-60.24 657.03,-58.02"/>
<polygon fill="midnightblue" stroke="midnightblue" points="1157.58,-123.44 1167.8,-120.65 1158.06,-116.46 1157.58,-123.44"/>
</g>
<!-- Node5 -->
<g id="node5" class="node">
<title>Node5</title>
<g id="a_node5"><a xlink:href="../../d5/d10/_g_r_p__solver___e_u_l__source_8c.html" target="_top" xlink:title="This is an Eulerian GRP scheme to solve 1&#45;D Euler equations.">
<polygon fill="white" stroke="black" points="694.5,-6 694.5,-58 909.5,-58 909.5,-6 694.5,-6"/>
<text text-anchor="start" x="702.5" y="-46" font-family="Helvetica,sans-Serif" font-size="10.00">/run/media/leixin/软件盘</text>
<text text-anchor="start" x="702.5" y="-35" font-family="Helvetica,sans-Serif" font-size="10.00">/雷昕整理后的重要文件</text>
<text text-anchor="start" x="702.5" y="-24" font-family="Helvetica,sans-Serif" font-size="10.00">/程序/My&#45;CFD/HydroCODE/src</text>
<text text-anchor="middle" x="802" y="-13" font-family="Helvetica,sans-Serif" font-size="10.00">/finite_volume/GRP_solver_EUL_source.c</text>
</a>
</g>
</g>
<!-- Node1&#45;&gt;Node5 -->
<g id="edge4" class="edge">
<title>Node1&#45;&gt;Node5</title>
<path fill="none" stroke="midnightblue" d="M1157.87,-110.74C1091.46,-99.28 998.72,-82.3 918,-64 909.87,-62.16 901.45,-60.13 893.02,-58.03"/>
<polygon fill="midnightblue" stroke="midnightblue" points="1157.43,-114.21 1167.88,-112.46 1158.62,-107.31 1157.43,-114.21"/>
</g>
<!-- Node6 -->
<g id="node6" class="node">
<title>Node6</title>
<g id="a_node6"><a xlink:href="../../dd/dd7/_g_r_p__solver___l_a_g__source_8c.html" target="_top" xlink:title="This is a Lagrangian GRP scheme to solve 1&#45;D Euler equations.">
<polygon fill="white" stroke="black" points="927.5,-6 927.5,-58 1144.5,-58 1144.5,-6 927.5,-6"/>
<text text-anchor="start" x="935.5" y="-46" font-family="Helvetica,sans-Serif" font-size="10.00">/run/media/leixin/软件盘</text>
<text text-anchor="start" x="935.5" y="-35" font-family="Helvetica,sans-Serif" font-size="10.00">/雷昕整理后的重要文件</text>
<text text-anchor="start" x="935.5" y="-24" font-family="Helvetica,sans-Serif" font-size="10.00">/程序/My&#45;CFD/HydroCODE/src</text>
<text text-anchor="middle" x="1036" y="-13" font-family="Helvetica,sans-Serif" font-size="10.00">/finite_volume/GRP_solver_LAG_source.c</text>
</a>
</g>
</g>
<!-- Node1&#45;&gt;Node6 -->
<g id="edge5" class="edge">
<title>Node1&#45;&gt;Node6</title>
<path fill="none" stroke="midnightblue" d="M1180.56,-96.37C1152.49,-84.07 1120.13,-69.88 1093.15,-58.05"/>
<polygon fill="midnightblue" stroke="midnightblue" points="1179.34,-99.66 1189.9,-100.47 1182.15,-93.25 1179.34,-99.66"/>
</g>
<!-- Node7 -->
<g id="node7" class="node">
<title>Node7</title>
<g id="a_node7"><a xlink:href="../../d4/da5/_godunov__solver___a_l_e__source_8c.html" target="_top" xlink:title="This is an ALE Godunov scheme to solve 1&#45;D Euler equations.">
<polygon fill="white" stroke="black" points="1162.5,-0.5 1162.5,-63.5 1331.5,-63.5 1331.5,-0.5 1162.5,-0.5"/>
<text text-anchor="start" x="1170.5" y="-51.5" font-family="Helvetica,sans-Serif" font-size="10.00">/run/media/leixin/软件盘</text>
<text text-anchor="start" x="1170.5" y="-40.5" font-family="Helvetica,sans-Serif" font-size="10.00">/雷昕整理后的重要文件</text>
<text text-anchor="start" x="1170.5" y="-29.5" font-family="Helvetica,sans-Serif" font-size="10.00">/程序/My&#45;CFD/HydroCODE/src</text>
<text text-anchor="start" x="1170.5" y="-18.5" font-family="Helvetica,sans-Serif" font-size="10.00">/finite_volume/Godunov_solver</text>
<text text-anchor="middle" x="1247" y="-7.5" font-family="Helvetica,sans-Serif" font-size="10.00">_ALE_source.c</text>
</a>
</g>
</g>
<!-- Node1&#45;&gt;Node7 -->
<g id="edge6" class="edge">
<title>Node1&#45;&gt;Node7</title>
<path fill="none" stroke="midnightblue" d="M1247,-89.94C1247,-81.23 1247,-71.97 1247,-63.51"/>
<polygon fill="midnightblue" stroke="midnightblue" points="1243.5,-90.22 1247,-100.22 1250.5,-90.22 1243.5,-90.22"/>
</g>
<!-- Node8 -->
<g id="node8" class="node">
<title>Node8</title>
<g id="a_node8"><a xlink:href="../../de/dd9/_godunov__solver___e_u_l__source_8c.html" target="_top" xlink:title="This is an Eulerian Godunov scheme to solve 1&#45;D Euler equations.">
<polygon fill="white" stroke="black" points="1349.5,-0.5 1349.5,-63.5 1518.5,-63.5 1518.5,-0.5 1349.5,-0.5"/>
<text text-anchor="start" x="1357.5" y="-51.5" font-family="Helvetica,sans-Serif" font-size="10.00">/run/media/leixin/软件盘</text>
<text text-anchor="start" x="1357.5" y="-40.5" font-family="Helvetica,sans-Serif" font-size="10.00">/雷昕整理后的重要文件</text>
<text text-anchor="start" x="1357.5" y="-29.5" font-family="Helvetica,sans-Serif" font-size="10.00">/程序/My&#45;CFD/HydroCODE/src</text>
<text text-anchor="start" x="1357.5" y="-18.5" font-family="Helvetica,sans-Serif" font-size="10.00">/finite_volume/Godunov_solver</text>
<text text-anchor="middle" x="1434" y="-7.5" font-family="Helvetica,sans-Serif" font-size="10.00">_EUL_source.c</text>
</a>
</g>
</g>
<!-- Node1&#45;&gt;Node8 -->
<g id="edge7" class="edge">
<title>Node1&#45;&gt;Node8</title>
<path fill="none" stroke="midnightblue" d="M1306.68,-95.98C1327.53,-85.67 1350.98,-74.07 1372.01,-63.66"/>
<polygon fill="midnightblue" stroke="midnightblue" points="1305.02,-92.9 1297.6,-100.47 1308.12,-99.17 1305.02,-92.9"/>
</g>
<!-- Node9 -->
<g id="node9" class="node">
<title>Node9</title>
<g id="a_node9"><a xlink:href="../../dd/d30/_godunov__solver___l_a_g__source_8c.html" target="_top" xlink:title="This is a Lagrangian Godunov scheme to solve 1&#45;D Euler equations.">
<polygon fill="white" stroke="black" points="1536.5,-0.5 1536.5,-63.5 1705.5,-63.5 1705.5,-0.5 1536.5,-0.5"/>
<text text-anchor="start" x="1544.5" y="-51.5" font-family="Helvetica,sans-Serif" font-size="10.00">/run/media/leixin/软件盘</text>
<text text-anchor="start" x="1544.5" y="-40.5" font-family="Helvetica,sans-Serif" font-size="10.00">/雷昕整理后的重要文件</text>
<text text-anchor="start" x="1544.5" y="-29.5" font-family="Helvetica,sans-Serif" font-size="10.00">/程序/My&#45;CFD/HydroCODE/src</text>
<text text-anchor="start" x="1544.5" y="-18.5" font-family="Helvetica,sans-Serif" font-size="10.00">/finite_volume/Godunov_solver</text>
<text text-anchor="middle" x="1621" y="-7.5" font-family="Helvetica,sans-Serif" font-size="10.00">_LAG_source.c</text>
</a>
</g>
</g>
<!-- Node1&#45;&gt;Node9 -->
<g id="edge8" class="edge">
<title>Node1&#45;&gt;Node9</title>
<path fill="none" stroke="midnightblue" d="M1336.09,-108.52C1391.64,-97.32 1464.41,-81.5 1528,-64 1530.79,-63.23 1533.62,-62.43 1536.47,-61.6"/>
<polygon fill="midnightblue" stroke="midnightblue" points="1335.4,-105.09 1326.28,-110.49 1336.77,-111.96 1335.4,-105.09"/>
</g>
<!-- Node10 -->
<g id="node10" class="node">
<title>Node10</title>
<g id="a_node10"><a xlink:href="../../df/d13/bound__cond__slope__limiter_8c.html" target="_top" xlink:title="This is a function to set boundary conditions and use the slope limiter in one dimension.">
<polygon fill="white" stroke="black" points="1723,-0.5 1723,-63.5 1901,-63.5 1901,-0.5 1723,-0.5"/>
<text text-anchor="start" x="1731" y="-51.5" font-family="Helvetica,sans-Serif" font-size="10.00">/run/media/leixin/软件盘</text>
<text text-anchor="start" x="1731" y="-40.5" font-family="Helvetica,sans-Serif" font-size="10.00">/雷昕整理后的重要文件</text>
<text text-anchor="start" x="1731" y="-29.5" font-family="Helvetica,sans-Serif" font-size="10.00">/程序/My&#45;CFD/HydroCODE/src</text>
<text text-anchor="start" x="1731" y="-18.5" font-family="Helvetica,sans-Serif" font-size="10.00">/inter_process/bound_cond_slope</text>
<text text-anchor="middle" x="1812" y="-7.5" font-family="Helvetica,sans-Serif" font-size="10.00">_limiter.c</text>
</a>
</g>
</g>
<!-- Node1&#45;&gt;Node10 -->
<g id="edge9" class="edge">
<title>Node1&#45;&gt;Node10</title>
<path fill="none" stroke="midnightblue" d="M1336.12,-118.56C1430.9,-110.07 1584.79,-93.12 1715,-64 1717.59,-63.42 1720.21,-62.8 1722.84,-62.15"/>
<polygon fill="midnightblue" stroke="midnightblue" points="1335.66,-115.09 1326,-119.45 1336.27,-122.06 1335.66,-115.09"/>
</g>
<!-- Node11 -->
<g id="node11" class="node">
<title>Node11</title>
<g id="a_node11"><a xlink:href="../../d8/d49/bound__cond__slope__limiter__x_8c.html" target="_top" xlink:title="This is a function to set boundary conditions and use the slope limiter in x&#45;direction of two dimensi...">
<polygon fill="white" stroke="black" points="1919,-0.5 1919,-63.5 2097,-63.5 2097,-0.5 1919,-0.5"/>
<text text-anchor="start" x="1927" y="-51.5" font-family="Helvetica,sans-Serif" font-size="10.00">/run/media/leixin/软件盘</text>
<text text-anchor="start" x="1927" y="-40.5" font-family="Helvetica,sans-Serif" font-size="10.00">/雷昕整理后的重要文件</text>
<text text-anchor="start" x="1927" y="-29.5" font-family="Helvetica,sans-Serif" font-size="10.00">/程序/My&#45;CFD/HydroCODE/src</text>
<text text-anchor="start" x="1927" y="-18.5" font-family="Helvetica,sans-Serif" font-size="10.00">/inter_process/bound_cond_slope</text>
<text text-anchor="middle" x="2008" y="-7.5" font-family="Helvetica,sans-Serif" font-size="10.00">_limiter_x.c</text>
</a>
</g>
</g>
<!-- Node1&#45;&gt;Node11 -->
<g id="edge10" class="edge">
<title>Node1&#45;&gt;Node11</title>
<path fill="none" stroke="midnightblue" d="M1336.28,-123.26C1464.44,-118.69 1707.43,-104.94 1910,-64 1912.89,-63.42 1915.81,-62.78 1918.75,-62.1"/>
<polygon fill="midnightblue" stroke="midnightblue" points="1336,-119.77 1326.12,-123.62 1336.24,-126.77 1336,-119.77"/>
</g>
<!-- Node12 -->
<g id="node12" class="node">
<title>Node12</title>
<g id="a_node12"><a xlink:href="../../d8/dbb/bound__cond__slope__limiter__y_8c.html" target="_top" xlink:title=" ">
<polygon fill="white" stroke="black" points="2115,-0.5 2115,-63.5 2293,-63.5 2293,-0.5 2115,-0.5"/>
<text text-anchor="start" x="2123" y="-51.5" font-family="Helvetica,sans-Serif" font-size="10.00">/run/media/leixin/软件盘</text>
<text text-anchor="start" x="2123" y="-40.5" font-family="Helvetica,sans-Serif" font-size="10.00">/雷昕整理后的重要文件</text>
<text text-anchor="start" x="2123" y="-29.5" font-family="Helvetica,sans-Serif" font-size="10.00">/程序/My&#45;CFD/HydroCODE/src</text>
<text text-anchor="start" x="2123" y="-18.5" font-family="Helvetica,sans-Serif" font-size="10.00">/inter_process/bound_cond_slope</text>
<text text-anchor="middle" x="2204" y="-7.5" font-family="Helvetica,sans-Serif" font-size="10.00">_limiter_y.c</text>
</a>
</g>
</g>
<!-- Node1&#45;&gt;Node12 -->
<g id="edge11" class="edge">
<title>Node1&#45;&gt;Node12</title>
<path fill="none" stroke="midnightblue" d="M1336.35,-125.97C1493.47,-125.28 1828.84,-116.99 2106,-64 2108.89,-63.45 2111.82,-62.84 2114.76,-62.18"/>
<polygon fill="midnightblue" stroke="midnightblue" points="1336.25,-122.47 1326.26,-126 1336.28,-129.47 1336.25,-122.47"/>
</g>
</g>
</svg>
