<?xml version="1.0" encoding="UTF-8" standalone="no"?>
<!DOCTYPE svg PUBLIC "-//W3C//DTD SVG 1.1//EN"
 "http://www.w3.org/Graphics/SVG/1.1/DTD/svg11.dtd">
<!-- Generated by graphviz version 5.0.0 (0)
 -->
<!-- Title: minmod3 Pages: 1 -->
<svg width="688pt" height="350pt"
 viewBox="0.00 0.00 688.00 350.00" xmlns="http://www.w3.org/2000/svg" xmlns:xlink="http://www.w3.org/1999/xlink">
<g id="graph0" class="graph" transform="scale(1 1) rotate(0) translate(4 346)">
<title>minmod3</title>
<polygon fill="white" stroke="transparent" points="-4,4 -4,-346 684,-346 684,4 -4,4"/>
<!-- Node1 -->
<g id="node1" class="node">
<title>Node1</title>
<g id="a_node1"><a xlink:title="Minmod limiter function of three variables.">
<polygon fill="#bfbfbf" stroke="black" points="617,-31 617,-50 680,-50 680,-31 617,-31"/>
<text text-anchor="middle" x="648.5" y="-38" font-family="Helvetica,sans-Serif" font-size="10.00">minmod3</text>
</a>
</g>
</g>
<!-- Node2 -->
<g id="node2" class="node">
<title>Node2</title>
<g id="a_node2"><a xlink:href="../../d2/d49/slope__limiter_8c.html#ae6551ab705937492c059ece48a3b2793" target="_top" xlink:title="This function apply the minmod limiter to the slope in one dimension.">
<polygon fill="white" stroke="black" points="471,-50 471,-69 566,-69 566,-50 471,-50"/>
<text text-anchor="middle" x="518.5" y="-57" font-family="Helvetica,sans-Serif" font-size="10.00">minmod_limiter</text>
</a>
</g>
</g>
<!-- Node1&#45;&gt;Node2 -->
<g id="edge1" class="edge">
<title>Node1&#45;&gt;Node2</title>
<path fill="none" stroke="midnightblue" d="M606.88,-46.53C594.02,-48.44 579.69,-50.57 566.42,-52.54"/>
<polygon fill="midnightblue" stroke="midnightblue" points="607.46,-49.98 616.84,-45.05 606.44,-43.06 607.46,-49.98"/>
</g>
<!-- Node14 -->
<g id="node14" class="node">
<title>Node14</title>
<g id="a_node14"><a xlink:href="../../d7/d36/slope__limiter__2_d__x_8c.html#a1305d8e7a55a4345482501a8a57ef353" target="_top" xlink:title="This function apply the minmod limiter to the slope in the x&#45;direction of two dimension.">
<polygon fill="white" stroke="black" points="456,-12 456,-31 581,-31 581,-12 456,-12"/>
<text text-anchor="middle" x="518.5" y="-19" font-family="Helvetica,sans-Serif" font-size="10.00">minmod_limiter_2D_x</text>
</a>
</g>
</g>
<!-- Node1&#45;&gt;Node14 -->
<g id="edge14" class="edge">
<title>Node1&#45;&gt;Node14</title>
<path fill="none" stroke="midnightblue" d="M606.81,-34.46C598.6,-33.24 589.8,-31.93 581.06,-30.64"/>
<polygon fill="midnightblue" stroke="midnightblue" points="606.44,-37.94 616.84,-35.95 607.46,-31.02 606.44,-37.94"/>
</g>
<!-- Node3 -->
<g id="node3" class="node">
<title>Node3</title>
<g id="a_node3"><a xlink:href="../../df/d13/bound__cond__slope__limiter_8c.html#adf898c0b0966ac36a90920be44951a5c" target="_top" xlink:title="This function apply the minmod limiter to the slope in one dimension.">
<polygon fill="white" stroke="black" points="270.5,-170 270.5,-189 414.5,-189 414.5,-170 270.5,-170"/>
<text text-anchor="middle" x="342.5" y="-177" font-family="Helvetica,sans-Serif" font-size="10.00">bound_cond_slope_limiter</text>
</a>
</g>
</g>
<!-- Node2&#45;&gt;Node3 -->
<g id="edge2" class="edge">
<title>Node2&#45;&gt;Node3</title>
<path fill="none" stroke="midnightblue" d="M495.08,-74.96C458.64,-100.09 387.61,-149.08 357.51,-169.84"/>
<polygon fill="midnightblue" stroke="midnightblue" points="497.31,-77.68 503.55,-69.12 493.34,-71.91 497.31,-77.68"/>
</g>
<!-- Node10 -->
<g id="node10" class="node">
<title>Node10</title>
<g id="a_node10"><a xlink:href="../../d8/dbb/bound__cond__slope__limiter__y_8c.html#aaf0175f075a4b153d671c163bc8275b6" target="_top" xlink:title="This function apply the minmod limiter to the slope in the y&#45;direction of two dimension.">
<polygon fill="white" stroke="black" points="265,-50 265,-69 420,-69 420,-50 265,-50"/>
<text text-anchor="middle" x="342.5" y="-57" font-family="Helvetica,sans-Serif" font-size="10.00">bound_cond_slope_limiter_y</text>
</a>
</g>
</g>
<!-- Node2&#45;&gt;Node10 -->
<g id="edge9" class="edge">
<title>Node2&#45;&gt;Node10</title>
<path fill="none" stroke="midnightblue" d="M460.73,-59.5C447.77,-59.5 433.79,-59.5 420.16,-59.5"/>
<polygon fill="midnightblue" stroke="midnightblue" points="460.87,-63 470.87,-59.5 460.87,-56 460.87,-63"/>
</g>
<!-- Node4 -->
<g id="node4" class="node">
<title>Node4</title>
<g id="a_node4"><a xlink:href="../../d4/da5/_godunov__solver___a_l_e__source_8c.html#a0c698d207c191af453f551744c64ca83" target="_top" xlink:title="This function use Godunov scheme to solve 1&#45;D Euler equations of motion on ALE coordinate.">
<polygon fill="white" stroke="black" points="93.5,-311.5 93.5,-341.5 212.5,-341.5 212.5,-311.5 93.5,-311.5"/>
<text text-anchor="start" x="101.5" y="-329.5" font-family="Helvetica,sans-Serif" font-size="10.00">Godunov_solver_ALE</text>
<text text-anchor="middle" x="153" y="-318.5" font-family="Helvetica,sans-Serif" font-size="10.00">_source_Undone</text>
</a>
</g>
</g>
<!-- Node3&#45;&gt;Node4 -->
<g id="edge3" class="edge">
<title>Node3&#45;&gt;Node4</title>
<path fill="none" stroke="midnightblue" d="M329.73,-197.45C311.33,-224.13 273.25,-274.15 229,-302.5 223.7,-305.89 217.89,-308.84 211.92,-311.4"/>
<polygon fill="midnightblue" stroke="midnightblue" points="332.7,-199.3 335.39,-189.06 326.89,-195.39 332.7,-199.3"/>
</g>
<!-- Node5 -->
<g id="node5" class="node">
<title>Node5</title>
<g id="a_node5"><a xlink:href="../../de/dd9/_godunov__solver___e_u_l__source_8c.html#a8704e7d4489848cbe30f53b305782711" target="_top" xlink:title="This function use Godunov scheme to solve 1&#45;D Euler equations of motion on Eulerian coordinate.">
<polygon fill="white" stroke="black" points="93.5,-262.5 93.5,-292.5 212.5,-292.5 212.5,-262.5 93.5,-262.5"/>
<text text-anchor="start" x="101.5" y="-280.5" font-family="Helvetica,sans-Serif" font-size="10.00">Godunov_solver_EUL</text>
<text text-anchor="middle" x="153" y="-269.5" font-family="Helvetica,sans-Serif" font-size="10.00">_source</text>
</a>
</g>
</g>
<!-- Node3&#45;&gt;Node5 -->
<g id="edge4" class="edge">
<title>Node3&#45;&gt;Node5</title>
<path fill="none" stroke="midnightblue" d="M321.2,-195.32C299.41,-211.69 263.3,-237.11 229,-253.5 222.09,-256.8 214.62,-259.81 207.16,-262.49"/>
<polygon fill="midnightblue" stroke="midnightblue" points="323.51,-197.96 329.34,-189.12 319.27,-192.39 323.51,-197.96"/>
</g>
<!-- Node6 -->
<g id="node6" class="node">
<title>Node6</title>
<g id="a_node6"><a xlink:href="../../dd/d30/_godunov__solver___l_a_g__source_8c.html#af53e1e238ac8b31268d438a76de7f7c2" target="_top" xlink:title="This function use Godunov scheme to solve 1&#45;D Euler equations of motion on Lagrangian coordinate.">
<polygon fill="white" stroke="black" points="92.5,-213.5 92.5,-243.5 213.5,-243.5 213.5,-213.5 92.5,-213.5"/>
<text text-anchor="start" x="100.5" y="-231.5" font-family="Helvetica,sans-Serif" font-size="10.00">Godunov_solver_LAG</text>
<text text-anchor="middle" x="153" y="-220.5" font-family="Helvetica,sans-Serif" font-size="10.00">_source</text>
</a>
</g>
</g>
<!-- Node3&#45;&gt;Node6 -->
<g id="edge5" class="edge">
<title>Node3&#45;&gt;Node6</title>
<path fill="none" stroke="midnightblue" d="M295.19,-191.6C269.91,-198.21 238.39,-206.45 211.54,-213.46"/>
<polygon fill="midnightblue" stroke="midnightblue" points="296.11,-194.98 304.9,-189.06 294.34,-188.21 296.11,-194.98"/>
</g>
<!-- Node7 -->
<g id="node7" class="node">
<title>Node7</title>
<g id="a_node7"><a xlink:href="../../de/de8/_g_r_p__solver___a_l_e__source_8c.html#afef6f99ec63f964c27bbee6c9d6ff2bc" target="_top" xlink:title="This function use GRP scheme to solve 1&#45;D Euler equations of motion on ALE coordinate.">
<polygon fill="white" stroke="black" points="86.5,-164.5 86.5,-194.5 219.5,-194.5 219.5,-164.5 86.5,-164.5"/>
<text text-anchor="start" x="94.5" y="-182.5" font-family="Helvetica,sans-Serif" font-size="10.00">GRP_solver_ALE_source</text>
<text text-anchor="middle" x="153" y="-171.5" font-family="Helvetica,sans-Serif" font-size="10.00">_Undone</text>
</a>
</g>
</g>
<!-- Node3&#45;&gt;Node7 -->
<g id="edge6" class="edge">
<title>Node3&#45;&gt;Node7</title>
<path fill="none" stroke="midnightblue" d="M260.08,-179.5C246.53,-179.5 232.64,-179.5 219.55,-179.5"/>
<polygon fill="midnightblue" stroke="midnightblue" points="260.35,-183 270.35,-179.5 260.35,-176 260.35,-183"/>
</g>
<!-- Node8 -->
<g id="node8" class="node">
<title>Node8</title>
<g id="a_node8"><a xlink:href="../../d5/d10/_g_r_p__solver___e_u_l__source_8c.html#ad5d51b342d61692dd1d241c7ebb42fa0" target="_top" xlink:title="This function use GRP scheme to solve 1&#45;D Euler equations of motion on Eulerian coordinate.">
<polygon fill="white" stroke="black" points="86,-126 86,-145 220,-145 220,-126 86,-126"/>
<text text-anchor="middle" x="153" y="-133" font-family="Helvetica,sans-Serif" font-size="10.00">GRP_solver_EUL_source</text>
</a>
</g>
</g>
<!-- Node3&#45;&gt;Node8 -->
<g id="edge7" class="edge">
<title>Node3&#45;&gt;Node8</title>
<path fill="none" stroke="midnightblue" d="M290.89,-167.62C260.69,-160.54 222.84,-151.66 194.61,-145.03"/>
<polygon fill="midnightblue" stroke="midnightblue" points="290.28,-171.08 300.82,-169.95 291.88,-164.26 290.28,-171.08"/>
</g>
<!-- Node9 -->
<g id="node9" class="node">
<title>Node9</title>
<g id="a_node9"><a xlink:href="../../dd/dd7/_g_r_p__solver___l_a_g__source_8c.html#a803248d0d521f8306a2850012b6d994c" target="_top" xlink:title="This function use GRP scheme to solve 1&#45;D Euler equations of motion on Lagrangian coordinate.">
<polygon fill="white" stroke="black" points="85.5,-88 85.5,-107 220.5,-107 220.5,-88 85.5,-88"/>
<text text-anchor="middle" x="153" y="-95" font-family="Helvetica,sans-Serif" font-size="10.00">GRP_solver_LAG_source</text>
</a>
</g>
</g>
<!-- Node3&#45;&gt;Node9 -->
<g id="edge8" class="edge">
<title>Node3&#45;&gt;Node9</title>
<path fill="none" stroke="midnightblue" d="M318.53,-164.26C296.4,-150.16 261.57,-129.48 229,-116.5 219.77,-112.82 209.6,-109.68 199.82,-107.07"/>
<polygon fill="midnightblue" stroke="midnightblue" points="316.89,-167.37 327.19,-169.86 320.69,-161.49 316.89,-167.37"/>
</g>
<!-- Node11 -->
<g id="node11" class="node">
<title>Node11</title>
<g id="a_node11"><a xlink:href="../../d6/d0f/_g_r_p__solver__2_d___e_u_l__source_8c.html#ad2ed8a0ffbf2c3b9eb692984e9fbc6f2" target="_top" xlink:title="This function use GRP scheme to solve 2&#45;D Euler equations of motion on Eulerian coordinate without di...">
<polygon fill="white" stroke="black" points="77,-50 77,-69 229,-69 229,-50 77,-50"/>
<text text-anchor="middle" x="153" y="-57" font-family="Helvetica,sans-Serif" font-size="10.00">GRP_solver_2D_EUL_source</text>
</a>
</g>
</g>
<!-- Node10&#45;&gt;Node11 -->
<g id="edge10" class="edge">
<title>Node10&#45;&gt;Node11</title>
<path fill="none" stroke="midnightblue" d="M254.9,-59.5C246.27,-59.5 237.57,-59.5 229.08,-59.5"/>
<polygon fill="midnightblue" stroke="midnightblue" points="254.97,-63 264.97,-59.5 254.97,-56 254.97,-63"/>
</g>
<!-- Node13 -->
<g id="node13" class="node">
<title>Node13</title>
<g id="a_node13"><a xlink:href="../../dc/d9e/_g_r_p__solver__2_d__split___e_u_l__source_8c.html#a196c7b4e4415c20bbdfc3dd294653b66" target="_top" xlink:title="This function use GRP scheme to solve 2&#45;D Euler equations of motion on Eulerian coordinate with dimen...">
<polygon fill="white" stroke="black" points="94.5,-0.5 94.5,-30.5 211.5,-30.5 211.5,-0.5 94.5,-0.5"/>
<text text-anchor="start" x="102.5" y="-18.5" font-family="Helvetica,sans-Serif" font-size="10.00">GRP_solver_2D_split</text>
<text text-anchor="middle" x="153" y="-7.5" font-family="Helvetica,sans-Serif" font-size="10.00">_EUL_source</text>
</a>
</g>
</g>
<!-- Node10&#45;&gt;Node13 -->
<g id="edge12" class="edge">
<title>Node10&#45;&gt;Node13</title>
<path fill="none" stroke="midnightblue" d="M291.01,-47.65C266.54,-41.91 237.03,-34.99 211.68,-29.04"/>
<polygon fill="midnightblue" stroke="midnightblue" points="290.28,-51.08 300.82,-49.95 291.88,-44.26 290.28,-51.08"/>
</g>
<!-- Node12 -->
<g id="node12" class="node">
<title>Node12</title>
<g id="a_node12"><a xlink:href="../../d2/d24/hydrocode_8c.html#a0ddf1224851353fc92bfbff6f499fa97" target="_top" xlink:title="This is the main function which constructs the main structure of the Eulerian hydrocode.">
<polygon fill="white" stroke="black" points="0,-28 0,-47 41,-47 41,-28 0,-28"/>
<text text-anchor="middle" x="20.5" y="-35" font-family="Helvetica,sans-Serif" font-size="10.00">main</text>
</a>
</g>
</g>
<!-- Node11&#45;&gt;Node12 -->
<g id="edge11" class="edge">
<title>Node11&#45;&gt;Node12</title>
<path fill="none" stroke="midnightblue" d="M85.45,-48.28C69.23,-45.55 53.12,-42.83 41.13,-40.81"/>
<polygon fill="midnightblue" stroke="midnightblue" points="85.08,-51.77 95.52,-49.98 86.24,-44.86 85.08,-51.77"/>
</g>
<!-- Node13&#45;&gt;Node12 -->
<g id="edge13" class="edge">
<title>Node13&#45;&gt;Node12</title>
<path fill="none" stroke="midnightblue" d="M84.48,-26.88C68.56,-29.57 52.82,-32.22 41.05,-34.2"/>
<polygon fill="midnightblue" stroke="midnightblue" points="85.1,-30.33 94.38,-25.21 83.94,-23.42 85.1,-30.33"/>
</g>
<!-- Node15 -->
<g id="node15" class="node">
<title>Node15</title>
<g id="a_node15"><a xlink:href="../../d8/d49/bound__cond__slope__limiter__x_8c.html#a93bebe7c69a9932a22ae8bfce51ab95c" target="_top" xlink:title="This function apply the minmod limiter to the slope in the x&#45;direction of two dimension.">
<polygon fill="white" stroke="black" points="265,-12 265,-31 420,-31 420,-12 265,-12"/>
<text text-anchor="middle" x="342.5" y="-19" font-family="Helvetica,sans-Serif" font-size="10.00">bound_cond_slope_limiter_x</text>
</a>
</g>
</g>
<!-- Node14&#45;&gt;Node15 -->
<g id="edge15" class="edge">
<title>Node14&#45;&gt;Node15</title>
<path fill="none" stroke="midnightblue" d="M445.53,-21.5C437.12,-21.5 428.53,-21.5 420.06,-21.5"/>
<polygon fill="midnightblue" stroke="midnightblue" points="445.66,-25 455.66,-21.5 445.66,-18 445.66,-25"/>
</g>
<!-- Node15&#45;&gt;Node11 -->
<g id="edge16" class="edge">
<title>Node15&#45;&gt;Node11</title>
<path fill="none" stroke="midnightblue" d="M284.22,-33.11C257.55,-38.51 226.22,-44.86 200.97,-49.98"/>
<polygon fill="midnightblue" stroke="midnightblue" points="285.08,-36.51 294.19,-31.09 283.69,-29.65 285.08,-36.51"/>
</g>
<!-- Node15&#45;&gt;Node13 -->
<g id="edge17" class="edge">
<title>Node15&#45;&gt;Node13</title>
<path fill="none" stroke="midnightblue" d="M254.87,-18.73C240.2,-18.26 225.3,-17.78 211.62,-17.34"/>
<polygon fill="midnightblue" stroke="midnightblue" points="254.86,-22.23 264.97,-19.05 255.08,-15.23 254.86,-22.23"/>
</g>
</g>
</svg>
