<?xml version="1.0" encoding="UTF-8" standalone="no"?>
<!DOCTYPE svg PUBLIC "-//W3C//DTD SVG 1.1//EN"
 "http://www.w3.org/Graphics/SVG/1.1/DTD/svg11.dtd">
<!-- Generated by graphviz version 5.0.0 (0)
 -->
<!-- Title: linear_GRP_solver_Edir_Q1D Pages: 1 -->
<svg width="754pt" height="88pt"
 viewBox="0.00 0.00 754.00 88.00" xmlns="http://www.w3.org/2000/svg" xmlns:xlink="http://www.w3.org/1999/xlink">
<g id="graph0" class="graph" transform="scale(1 1) rotate(0) translate(4 84)">
<title>linear_GRP_solver_Edir_Q1D</title>
<polygon fill="white" stroke="transparent" points="-4,4 -4,-84 750,-84 750,4 -4,4"/>
<!-- Node1 -->
<g id="node1" class="node">
<title>Node1</title>
<g id="a_node1"><a xlink:title="A Quasi&#45;1D direct Eulerian GRP solver for unsteady compressible inviscid two&#45;component flow in two sp...">
<polygon fill="#bfbfbf" stroke="black" points="591,-19.5 591,-38.5 746,-38.5 746,-19.5 591,-19.5"/>
<text text-anchor="middle" x="668.5" y="-26.5" font-family="Helvetica,sans-Serif" font-size="10.00">linear_GRP_solver_Edir_Q1D</text>
</a>
</g>
</g>
<!-- Node2 -->
<g id="node2" class="node">
<title>Node2</title>
<g id="a_node2"><a xlink:href="../../d5/d55/flux__solver_8c.html#a49938584f813ee4c3756f8aba45325de" target="_top" xlink:title="This function calculate Eulerian fluxes of 2&#45;D Euler equations by 2&#45;D GRP solver.">
<polygon fill="white" stroke="black" points="437.5,-38.5 437.5,-57.5 517.5,-57.5 517.5,-38.5 437.5,-38.5"/>
<text text-anchor="middle" x="477.5" y="-45.5" font-family="Helvetica,sans-Serif" font-size="10.00">GRP_2D_flux</text>
</a>
</g>
</g>
<!-- Node1&#45;&gt;Node2 -->
<g id="edge1" class="edge">
<title>Node1&#45;&gt;Node2</title>
<path fill="none" stroke="midnightblue" d="M580.79,-37.72C558.67,-39.94 535.98,-42.22 517.61,-44.07"/>
<polygon fill="midnightblue" stroke="midnightblue" points="581.3,-41.18 590.9,-36.7 580.6,-34.22 581.3,-41.18"/>
</g>
<!-- Node8 -->
<g id="node8" class="node">
<title>Node8</title>
<g id="a_node8"><a xlink:href="../../d3/da7/linear___g_r_p__solver___edir___g2_d_8c.html#aff686a52210d82c346d2537c0c704ef3" target="_top" xlink:title="A Genuinely&#45;2D direct Eulerian GRP solver for unsteady compressible inviscid two&#45;component flow in tw...">
<polygon fill="white" stroke="black" points="400,-0.5 400,-19.5 555,-19.5 555,-0.5 400,-0.5"/>
<text text-anchor="middle" x="477.5" y="-7.5" font-family="Helvetica,sans-Serif" font-size="10.00">linear_GRP_solver_Edir_G2D</text>
</a>
</g>
</g>
<!-- Node1&#45;&gt;Node8 -->
<g id="edge10" class="edge">
<title>Node1&#45;&gt;Node8</title>
<path fill="none" stroke="midnightblue" d="M580.9,-20.29C572.33,-19.43 563.67,-18.56 555.21,-17.71"/>
<polygon fill="midnightblue" stroke="midnightblue" points="580.6,-23.78 590.9,-21.3 581.3,-16.82 580.6,-23.78"/>
</g>
<!-- Node3 -->
<g id="node3" class="node">
<title>Node3</title>
<g id="a_node3"><a xlink:href="../../de/d35/flux__generator__x_8c.html#a99d3c20c9f68680b85415265ecd67b60" target="_top" xlink:title="This function calculate Eulerian fluxes of 2&#45;D Euler equations in x&#45;direction by 2&#45;D GRP solver.">
<polygon fill="white" stroke="black" points="265,-57.5 265,-76.5 364,-76.5 364,-57.5 265,-57.5"/>
<text text-anchor="middle" x="314.5" y="-64.5" font-family="Helvetica,sans-Serif" font-size="10.00">flux_generator_x</text>
</a>
</g>
</g>
<!-- Node2&#45;&gt;Node3 -->
<g id="edge2" class="edge">
<title>Node2&#45;&gt;Node3</title>
<path fill="none" stroke="midnightblue" d="M426.99,-53.84C407.06,-56.2 384.13,-58.9 364.27,-61.24"/>
<polygon fill="midnightblue" stroke="midnightblue" points="427.59,-57.3 437.11,-52.65 426.77,-50.34 427.59,-57.3"/>
</g>
<!-- Node7 -->
<g id="node7" class="node">
<title>Node7</title>
<g id="a_node7"><a xlink:href="../../de/db1/flux__generator__y_8c.html#a964701ac9bd65f6b19c3c731e983d562" target="_top" xlink:title="This function calculate Eulerian fluxes of 2&#45;D Euler equations in y&#45;direction by 2&#45;D GRP solver.">
<polygon fill="white" stroke="black" points="265,-19.5 265,-38.5 364,-38.5 364,-19.5 265,-19.5"/>
<text text-anchor="middle" x="314.5" y="-26.5" font-family="Helvetica,sans-Serif" font-size="10.00">flux_generator_y</text>
</a>
</g>
</g>
<!-- Node2&#45;&gt;Node7 -->
<g id="edge7" class="edge">
<title>Node2&#45;&gt;Node7</title>
<path fill="none" stroke="midnightblue" d="M426.99,-42.16C407.06,-39.8 384.13,-37.1 364.27,-34.76"/>
<polygon fill="midnightblue" stroke="midnightblue" points="426.77,-45.66 437.11,-43.35 427.59,-38.7 426.77,-45.66"/>
</g>
<!-- Node4 -->
<g id="node4" class="node">
<title>Node4</title>
<g id="a_node4"><a xlink:href="../../d6/d0f/_g_r_p__solver__2_d___e_u_l__source_8c.html#ad2ed8a0ffbf2c3b9eb692984e9fbc6f2" target="_top" xlink:title="This function use GRP scheme to solve 2&#45;D Euler equations of motion on Eulerian coordinate without di...">
<polygon fill="white" stroke="black" points="77,-60.5 77,-79.5 229,-79.5 229,-60.5 77,-60.5"/>
<text text-anchor="middle" x="153" y="-67.5" font-family="Helvetica,sans-Serif" font-size="10.00">GRP_solver_2D_EUL_source</text>
</a>
</g>
</g>
<!-- Node3&#45;&gt;Node4 -->
<g id="edge3" class="edge">
<title>Node3&#45;&gt;Node4</title>
<path fill="none" stroke="midnightblue" d="M254.51,-68.11C246.25,-68.26 237.67,-68.43 229.16,-68.59"/>
<polygon fill="midnightblue" stroke="midnightblue" points="254.85,-71.6 264.78,-67.92 254.71,-64.61 254.85,-71.6"/>
</g>
<!-- Node6 -->
<g id="node6" class="node">
<title>Node6</title>
<g id="a_node6"><a xlink:href="../../dc/d9e/_g_r_p__solver__2_d__split___e_u_l__source_8c.html#a196c7b4e4415c20bbdfc3dd294653b66" target="_top" xlink:title="This function use GRP scheme to solve 2&#45;D Euler equations of motion on Eulerian coordinate with dimen...">
<polygon fill="white" stroke="black" points="94.5,-11 94.5,-41 211.5,-41 211.5,-11 94.5,-11"/>
<text text-anchor="start" x="102.5" y="-29" font-family="Helvetica,sans-Serif" font-size="10.00">GRP_solver_2D_split</text>
<text text-anchor="middle" x="153" y="-18" font-family="Helvetica,sans-Serif" font-size="10.00">_EUL_source</text>
</a>
</g>
</g>
<!-- Node3&#45;&gt;Node6 -->
<g id="edge5" class="edge">
<title>Node3&#45;&gt;Node6</title>
<path fill="none" stroke="midnightblue" d="M266.69,-54.97C249.48,-50.54 229.78,-45.48 211.72,-40.84"/>
<polygon fill="midnightblue" stroke="midnightblue" points="265.95,-58.39 276.51,-57.49 267.69,-51.61 265.95,-58.39"/>
</g>
<!-- Node5 -->
<g id="node5" class="node">
<title>Node5</title>
<g id="a_node5"><a xlink:href="../../d2/d24/hydrocode_8c.html#a0ddf1224851353fc92bfbff6f499fa97" target="_top" xlink:title="This is the main function which constructs the main structure of the Eulerian hydrocode.">
<polygon fill="white" stroke="black" points="0,-38.5 0,-57.5 41,-57.5 41,-38.5 0,-38.5"/>
<text text-anchor="middle" x="20.5" y="-45.5" font-family="Helvetica,sans-Serif" font-size="10.00">main</text>
</a>
</g>
</g>
<!-- Node4&#45;&gt;Node5 -->
<g id="edge4" class="edge">
<title>Node4&#45;&gt;Node5</title>
<path fill="none" stroke="midnightblue" d="M85.45,-58.78C69.23,-56.05 53.12,-53.33 41.13,-51.31"/>
<polygon fill="midnightblue" stroke="midnightblue" points="85.08,-62.27 95.52,-60.48 86.24,-55.36 85.08,-62.27"/>
</g>
<!-- Node6&#45;&gt;Node5 -->
<g id="edge6" class="edge">
<title>Node6&#45;&gt;Node5</title>
<path fill="none" stroke="midnightblue" d="M84.48,-37.38C68.56,-40.07 52.82,-42.72 41.05,-44.7"/>
<polygon fill="midnightblue" stroke="midnightblue" points="85.1,-40.83 94.38,-35.71 83.94,-33.92 85.1,-40.83"/>
</g>
<!-- Node7&#45;&gt;Node4 -->
<g id="edge8" class="edge">
<title>Node7&#45;&gt;Node4</title>
<path fill="none" stroke="midnightblue" d="M266.52,-41.08C242.44,-47.27 213.55,-54.69 191.07,-60.47"/>
<polygon fill="midnightblue" stroke="midnightblue" points="267.69,-44.39 276.51,-38.51 265.95,-37.61 267.69,-44.39"/>
</g>
<!-- Node7&#45;&gt;Node6 -->
<g id="edge9" class="edge">
<title>Node7&#45;&gt;Node6</title>
<path fill="none" stroke="midnightblue" d="M254.73,-27.89C240.68,-27.63 225.68,-27.35 211.67,-27.08"/>
<polygon fill="midnightblue" stroke="midnightblue" points="254.71,-31.39 264.78,-28.08 254.85,-24.4 254.71,-31.39"/>
</g>
</g>
</svg>
