<?xml version="1.0" encoding="UTF-8" standalone="no"?>
<!DOCTYPE svg PUBLIC "-//W3C//DTD SVG 1.1//EN"
 "http://www.w3.org/Graphics/SVG/1.1/DTD/svg11.dtd">
<!-- Generated by graphviz version 6.0.1 (0)
 -->
<!-- Title: initialize_1D Pages: 1 -->
<svg width="345pt" height="218pt"
 viewBox="0.00 0.00 345.00 218.00" xmlns="http://www.w3.org/2000/svg" xmlns:xlink="http://www.w3.org/1999/xlink">
<g id="graph0" class="graph" transform="scale(1 1) rotate(0) translate(4 214)">
<title>initialize_1D</title>
<polygon fill="white" stroke="none" points="-4,4 -4,-214 341,-214 341,4 -4,4"/>
<!-- Node1 -->
<g id="node1" class="node">
<title>Node1</title>
<g id="a_node1"><a xlink:title="This function reads the 1&#45;D initial data file of density/velocity/pressure and performs some other in...">
<polygon fill="#bfbfbf" stroke="black" points="0,-114.5 0,-133.5 77,-133.5 77,-114.5 0,-114.5"/>
<text text-anchor="middle" x="38.5" y="-121.5" font-family="Helvetica,sans-Serif" font-size="10.00">initialize_1D</text>
</a>
</g>
</g>
<!-- Node2 -->
<g id="node2" class="node">
<title>Node2</title>
<g id="a_node2"><a xlink:href="../../d2/de0/config__handle_8c.html#a4b15e37e2922cce20bf5cc8bb6e80c9a" target="_top" xlink:title="This function controls configuration data reading and validation.">
<polygon fill="white" stroke="black" points="122,-152.5 122,-171.5 194,-171.5 194,-152.5 122,-152.5"/>
<text text-anchor="middle" x="158" y="-159.5" font-family="Helvetica,sans-Serif" font-size="10.00">configurate</text>
</a>
</g>
</g>
<!-- Node1&#45;&gt;Node2 -->
<g id="edge1" class="edge">
<title>Node1&#45;&gt;Node2</title>
<path fill="none" stroke="midnightblue" d="M69.15,-133.59C83.9,-138.36 101.93,-144.19 117.8,-149.32"/>
<polygon fill="midnightblue" stroke="midnightblue" points="116.77,-152.67 127.36,-152.41 118.92,-146.01 116.77,-152.67"/>
</g>
<!-- Node5 -->
<g id="node5" class="node">
<title>Node5</title>
<g id="a_node5"><a xlink:href="../../d4/de5/io__control_8c.html#a7e039d23ca87a439fbe9c9d336447887" target="_top" xlink:title="This function produces folder path for data input or output.">
<polygon fill="white" stroke="black" points="121,-114.5 121,-133.5 195,-133.5 195,-114.5 121,-114.5"/>
<text text-anchor="middle" x="158" y="-121.5" font-family="Helvetica,sans-Serif" font-size="10.00">example_io</text>
</a>
</g>
</g>
<!-- Node1&#45;&gt;Node5 -->
<g id="edge4" class="edge">
<title>Node1&#45;&gt;Node5</title>
<path fill="none" stroke="midnightblue" d="M77,-124C87.7,-124 99.48,-124 110.64,-124"/>
<polygon fill="midnightblue" stroke="midnightblue" points="110.66,-127.5 120.66,-124 110.66,-120.5 110.66,-127.5"/>
</g>
<!-- Node7 -->
<g id="node7" class="node">
<title>Node7</title>
<g id="a_node7"><a xlink:href="../../d4/de5/io__control_8c.html#afc5a75c19ae16af5227567eb1dde0ef1" target="_top" xlink:title="This function reads the time data file for plotting &#39;time_plot.dat&#39; and initialize tha array &#39;time_pl...">
<polygon fill="white" stroke="black" points="113,-57.5 113,-76.5 203,-76.5 203,-57.5 113,-57.5"/>
<text text-anchor="middle" x="158" y="-64.5" font-family="Helvetica,sans-Serif" font-size="10.00">time_plot_read</text>
</a>
</g>
</g>
<!-- Node1&#45;&gt;Node7 -->
<g id="edge6" class="edge">
<title>Node1&#45;&gt;Node7</title>
<path fill="none" stroke="midnightblue" d="M59.17,-114.46C77.98,-105.34 106.57,-91.47 127.99,-81.07"/>
<polygon fill="midnightblue" stroke="midnightblue" points="129.8,-84.09 137.27,-76.57 126.74,-77.79 129.8,-84.09"/>
</g>
<!-- Node3 -->
<g id="node3" class="node">
<title>Node3</title>
<g id="a_node3"><a xlink:href="../../d2/de0/config__handle_8c.html#a4b379c084f41490473f80792af24e0c7" target="_top" xlink:title="This function check whether the configuration data is reasonable and set the default....">
<polygon fill="white" stroke="black" points="248,-190.5 248,-209.5 328,-209.5 328,-190.5 248,-190.5"/>
<text text-anchor="middle" x="288" y="-197.5" font-family="Helvetica,sans-Serif" font-size="10.00">config_check</text>
</a>
</g>
</g>
<!-- Node2&#45;&gt;Node3 -->
<g id="edge2" class="edge">
<title>Node2&#45;&gt;Node3</title>
<path fill="none" stroke="midnightblue" d="M191.3,-171.59C207.52,-176.4 227.38,-182.3 244.79,-187.47"/>
<polygon fill="midnightblue" stroke="midnightblue" points="244.13,-190.92 254.71,-190.41 246.12,-184.21 244.13,-190.92"/>
</g>
<!-- Node4 -->
<g id="node4" class="node">
<title>Node4</title>
<g id="a_node4"><a xlink:href="../../d2/de0/config__handle_8c.html#a482404d20045a8a5f48b5ee425a04259" target="_top" xlink:title="This function read the configuration data file, and store the configuration data in the array &#39;config...">
<polygon fill="white" stroke="black" points="251,-152.5 251,-171.5 325,-171.5 325,-152.5 251,-152.5"/>
<text text-anchor="middle" x="288" y="-159.5" font-family="Helvetica,sans-Serif" font-size="10.00">config_read</text>
</a>
</g>
</g>
<!-- Node2&#45;&gt;Node4 -->
<g id="edge3" class="edge">
<title>Node2&#45;&gt;Node4</title>
<path fill="none" stroke="midnightblue" d="M194.32,-162C208.62,-162 225.35,-162 240.62,-162"/>
<polygon fill="midnightblue" stroke="midnightblue" points="240.91,-165.5 250.91,-162 240.91,-158.5 240.91,-165.5"/>
</g>
<!-- Node6 -->
<g id="node6" class="node">
<title>Node6</title>
<g id="a_node6"><a xlink:href="../../d4/ddd/sys__pro_8c.html#a40a5faeb19b1fd9aec2c5c10a87faeb4" target="_top" xlink:title="This is a function that recursively creates folders.">
<polygon fill="white" stroke="black" points="256.5,-114.5 256.5,-133.5 319.5,-133.5 319.5,-114.5 256.5,-114.5"/>
<text text-anchor="middle" x="288" y="-121.5" font-family="Helvetica,sans-Serif" font-size="10.00">CreateDir</text>
</a>
</g>
</g>
<!-- Node5&#45;&gt;Node6 -->
<g id="edge5" class="edge">
<title>Node5&#45;&gt;Node6</title>
<path fill="none" stroke="midnightblue" d="M195.34,-124C211.1,-124 229.64,-124 245.9,-124"/>
<polygon fill="midnightblue" stroke="midnightblue" points="246.21,-127.5 256.21,-124 246.21,-120.5 246.21,-127.5"/>
</g>
<!-- Node8 -->
<g id="node8" class="node">
<title>Node8</title>
<g id="a_node8"><a xlink:href="../../d4/de5/io__control_8c.html#a7d7ac58cf9ddeec7a4a3c73fabd297e6" target="_top" xlink:title="Compare function of double for sort function &#39;qsort()&#39;.">
<polygon fill="white" stroke="black" points="239,-76.5 239,-95.5 337,-95.5 337,-76.5 239,-76.5"/>
<text text-anchor="middle" x="288" y="-83.5" font-family="Helvetica,sans-Serif" font-size="10.00">compare_double</text>
</a>
</g>
</g>
<!-- Node7&#45;&gt;Node8 -->
<g id="edge7" class="edge">
<title>Node7&#45;&gt;Node8</title>
<path fill="none" stroke="midnightblue" d="M203.05,-73.54C211.37,-74.77 220.18,-76.08 228.85,-77.37"/>
<polygon fill="midnightblue" stroke="midnightblue" points="228.52,-80.86 238.93,-78.86 229.55,-73.93 228.52,-80.86"/>
</g>
<!-- Node9 -->
<g id="node9" class="node">
<title>Node9</title>
<g id="a_node9"><a xlink:href="../../d4/de5/io__control_8c.html#acdd9ccb7dc0ecc925cafe95a4c2f8a51" target="_top" xlink:title="This function counts how many numbers are there in the initial data file.">
<polygon fill="white" stroke="black" points="246.5,-38.5 246.5,-57.5 329.5,-57.5 329.5,-38.5 246.5,-38.5"/>
<text text-anchor="middle" x="288" y="-45.5" font-family="Helvetica,sans-Serif" font-size="10.00">flu_var_count</text>
</a>
</g>
</g>
<!-- Node7&#45;&gt;Node9 -->
<g id="edge8" class="edge">
<title>Node7&#45;&gt;Node9</title>
<path fill="none" stroke="midnightblue" d="M203.05,-60.46C213.79,-58.87 225.37,-57.15 236.39,-55.51"/>
<polygon fill="midnightblue" stroke="midnightblue" points="236.93,-58.97 246.31,-54.04 235.9,-52.05 236.93,-58.97"/>
</g>
<!-- Node10 -->
<g id="node10" class="node">
<title>Node10</title>
<g id="a_node10"><a xlink:href="../../d4/de5/io__control_8c.html#a40ca7ad20048ff97a27a8641cf31b7cb" target="_top" xlink:title="This function reads the initial data file to generate the initial data.">
<polygon fill="white" stroke="black" points="249.5,-0.5 249.5,-19.5 326.5,-19.5 326.5,-0.5 249.5,-0.5"/>
<text text-anchor="middle" x="288" y="-7.5" font-family="Helvetica,sans-Serif" font-size="10.00">flu_var_read</text>
</a>
</g>
</g>
<!-- Node7&#45;&gt;Node10 -->
<g id="edge9" class="edge">
<title>Node7&#45;&gt;Node10</title>
<path fill="none" stroke="midnightblue" d="M178.23,-57.42C194.34,-49.51 217.99,-38.14 239,-29 243.39,-27.09 248.04,-25.15 252.65,-23.27"/>
<polygon fill="midnightblue" stroke="midnightblue" points="253.97,-26.51 261.96,-19.55 251.37,-20.02 253.97,-26.51"/>
</g>
</g>
</svg>
