<?xml version="1.0" encoding="UTF-8" standalone="no"?>
<!DOCTYPE svg PUBLIC "-//W3C//DTD SVG 1.1//EN"
 "http://www.w3.org/Graphics/SVG/1.1/DTD/svg11.dtd">
<!-- Generated by graphviz version 6.0.1 (0)
 -->
<!-- Title: src~/include/var_struc.h Pages: 1 -->
<svg width="2682pt" height="173pt"
 viewBox="0.00 0.00 2681.50 173.00" xmlns="http://www.w3.org/2000/svg" xmlns:xlink="http://www.w3.org/1999/xlink">
<g id="graph0" class="graph" transform="scale(1 1) rotate(0) translate(4 169)">
<title>src~/include/var_struc.h</title>
<polygon fill="white" stroke="none" points="-4,4 -4,-169 2677.5,-169 2677.5,4 -4,4"/>
<!-- Node1 -->
<g id="node1" class="node">
<title>Node1</title>
<g id="a_node1"><a xlink:title="This file is the header file of some globally common variables and structural bodies.">
<polygon fill="#bfbfbf" stroke="black" points="1347.5,-145.5 1347.5,-164.5 1481.5,-164.5 1481.5,-145.5 1347.5,-145.5"/>
<text text-anchor="middle" x="1414.5" y="-152.5" font-family="Helvetica,sans-Serif" font-size="10.00">src~/include/var_struc.h</text>
</a>
</g>
</g>
<!-- Node2 -->
<g id="node2" class="node">
<title>Node2</title>
<g id="a_node2"><a xlink:href="../../d2/de0/config__handle_8c.html" target="_top" xlink:title="This is a set of functions which control the read&#45;in of configuration data.">
<polygon fill="white" stroke="black" points="0,-78.5 0,-108.5 105,-108.5 105,-78.5 0,-78.5"/>
<text text-anchor="start" x="8" y="-96.5" font-family="Helvetica,sans-Serif" font-size="10.00">src~/file_io/config</text>
<text text-anchor="middle" x="52.5" y="-85.5" font-family="Helvetica,sans-Serif" font-size="10.00">_handle.c</text>
</a>
</g>
</g>
<!-- Node1&#45;&gt;Node2 -->
<g id="edge1" class="edge">
<title>Node1&#45;&gt;Node2</title>
<path fill="none" stroke="midnightblue" d="M1337.19,-153.3C1095,-150.81 352.98,-140.71 114.5,-109 111.43,-108.59 108.29,-108.1 105.14,-107.55"/>
<polygon fill="midnightblue" stroke="midnightblue" points="1337.28,-156.8 1347.31,-153.41 1337.35,-149.8 1337.28,-156.8"/>
</g>
<!-- Node3 -->
<g id="node3" class="node">
<title>Node3</title>
<g id="a_node3"><a xlink:href="../../d9/d8a/file__2_d__in_8c.html" target="_top" xlink:title="This is a set of functions which control the read&#45;in of two&#45;dimensional data.">
<polygon fill="white" stroke="black" points="123.5,-84 123.5,-103 255.5,-103 255.5,-84 123.5,-84"/>
<text text-anchor="middle" x="189.5" y="-91" font-family="Helvetica,sans-Serif" font-size="10.00">src~/file_io/file_2D_in.c</text>
</a>
</g>
</g>
<!-- Node1&#45;&gt;Node3 -->
<g id="edge2" class="edge">
<title>Node1&#45;&gt;Node3</title>
<path fill="none" stroke="midnightblue" d="M1337.16,-152.51C1114.25,-147.96 473.07,-133.1 264.5,-109 252.38,-107.6 239.28,-105.33 227.48,-103"/>
<polygon fill="midnightblue" stroke="midnightblue" points="1337.39,-156.01 1347.46,-152.72 1337.53,-149.01 1337.39,-156.01"/>
</g>
<!-- Node4 -->
<g id="node4" class="node">
<title>Node4</title>
<g id="a_node4"><a xlink:href="../../d7/d20/file__2_d__out_8c.html" target="_top" xlink:title="This is a set of functions which control the readout of two&#45;dimensional data.">
<polygon fill="white" stroke="black" points="273.5,-78.5 273.5,-108.5 383.5,-108.5 383.5,-78.5 273.5,-78.5"/>
<text text-anchor="start" x="281.5" y="-96.5" font-family="Helvetica,sans-Serif" font-size="10.00">src~/file_io/file_2D</text>
<text text-anchor="middle" x="328.5" y="-85.5" font-family="Helvetica,sans-Serif" font-size="10.00">_out.c</text>
</a>
</g>
</g>
<!-- Node1&#45;&gt;Node4 -->
<g id="edge3" class="edge">
<title>Node1&#45;&gt;Node4</title>
<path fill="none" stroke="midnightblue" d="M1337.28,-152.39C1131.8,-147.82 574.91,-133.48 392.5,-109 389.56,-108.61 386.56,-108.14 383.54,-107.63"/>
<polygon fill="midnightblue" stroke="midnightblue" points="1337.31,-155.89 1347.38,-152.61 1337.46,-148.89 1337.31,-155.89"/>
</g>
<!-- Node5 -->
<g id="node5" class="node">
<title>Node5</title>
<g id="a_node5"><a xlink:href="../../d4/d39/file__out__hdf5_8c.html" target="_top" xlink:title="This is a set of functions which control the readout of 1&#45;D and 2&#45;D data in HDF5 file format.">
<polygon fill="white" stroke="black" points="401.5,-78.5 401.5,-108.5 513.5,-108.5 513.5,-78.5 401.5,-78.5"/>
<text text-anchor="start" x="409.5" y="-96.5" font-family="Helvetica,sans-Serif" font-size="10.00">src~/file_io/file_out</text>
<text text-anchor="middle" x="457.5" y="-85.5" font-family="Helvetica,sans-Serif" font-size="10.00">_hdf5.c</text>
</a>
</g>
</g>
<!-- Node1&#45;&gt;Node5 -->
<g id="edge4" class="edge">
<title>Node1&#45;&gt;Node5</title>
<path fill="none" stroke="midnightblue" d="M1336.9,-154.48C1181.55,-154.48 821.58,-149.61 522.5,-109 519.64,-108.61 516.71,-108.16 513.76,-107.66"/>
<polygon fill="midnightblue" stroke="midnightblue" points="1337.29,-157.98 1347.28,-154.47 1337.28,-150.98 1337.29,-157.98"/>
</g>
<!-- Node6 -->
<g id="node6" class="node">
<title>Node6</title>
<g id="a_node6"><a xlink:href="../../d4/de5/io__control_8c.html" target="_top" xlink:title="This is a set of common functions which control the input/output data.">
<polygon fill="white" stroke="black" points="532,-84 532,-103 663,-103 663,-84 532,-84"/>
<text text-anchor="middle" x="597.5" y="-91" font-family="Helvetica,sans-Serif" font-size="10.00">src~/file_io/io_control.c</text>
</a>
</g>
</g>
<!-- Node1&#45;&gt;Node6 -->
<g id="edge5" class="edge">
<title>Node1&#45;&gt;Node6</title>
<path fill="none" stroke="midnightblue" d="M1337.1,-152.7C1201.66,-149.66 913.09,-139.85 671.5,-109 659.81,-107.51 647.2,-105.27 635.75,-103"/>
<polygon fill="midnightblue" stroke="midnightblue" points="1337.29,-156.2 1347.37,-152.92 1337.44,-149.2 1337.29,-156.2"/>
</g>
<!-- Node7 -->
<g id="node7" class="node">
<title>Node7</title>
<g id="a_node7"><a xlink:href="../../d0/d49/terminal__io_8c.html" target="_top" xlink:title="This is a set of common functions for terminal input and output.">
<polygon fill="white" stroke="black" points="681,-84 681,-103 820,-103 820,-84 681,-84"/>
<text text-anchor="middle" x="750.5" y="-91" font-family="Helvetica,sans-Serif" font-size="10.00">src~/file_io/terminal_io.c</text>
</a>
</g>
</g>
<!-- Node1&#45;&gt;Node7 -->
<g id="edge6" class="edge">
<title>Node1&#45;&gt;Node7</title>
<path fill="none" stroke="midnightblue" d="M1337.18,-150.3C1225.78,-144.46 1013.81,-131.38 834.5,-109 821.72,-107.41 807.93,-105.22 795.29,-103.03"/>
<polygon fill="midnightblue" stroke="midnightblue" points="1337.14,-153.81 1347.31,-150.83 1337.51,-146.82 1337.14,-153.81"/>
</g>
<!-- Node8 -->
<g id="node8" class="node">
<title>Node8</title>
<g id="a_node8"><a xlink:href="../../d1/d4b/grp__solver__2_d___e_u_l__source_8c.html" target="_top" xlink:title="This is an Eulerian GRP scheme to solve 2&#45;D Euler equations without dimension splitting.">
<polygon fill="white" stroke="black" points="1077,-6 1077,-36 1236,-36 1236,-6 1077,-6"/>
<text text-anchor="start" x="1085" y="-24" font-family="Helvetica,sans-Serif" font-size="10.00">src~/finite_volume</text>
<text text-anchor="middle" x="1156.5" y="-13" font-family="Helvetica,sans-Serif" font-size="10.00">/grp_solver_2D_EUL_source.c</text>
</a>
</g>
</g>
<!-- Node1&#45;&gt;Node8 -->
<g id="edge7" class="edge">
<title>Node1&#45;&gt;Node8</title>
<path fill="none" stroke="midnightblue" d="M1352.77,-143.24C1322.25,-136.28 1285.61,-125.39 1255.5,-109 1246.05,-103.86 1197.09,-59.35 1171.75,-36.07"/>
<polygon fill="midnightblue" stroke="midnightblue" points="1352.35,-146.73 1362.87,-145.45 1353.85,-139.89 1352.35,-146.73"/>
</g>
<!-- Node9 -->
<g id="node9" class="node">
<title>Node9</title>
<g id="a_node9"><a xlink:href="../../df/d07/grp__solver__2_d__split___e_u_l__source_8c.html" target="_top" xlink:title="This is an Eulerian GRP scheme to solve 2&#45;D Euler equations with dimension splitting.">
<polygon fill="white" stroke="black" points="942.5,-0.5 942.5,-41.5 1058.5,-41.5 1058.5,-0.5 942.5,-0.5"/>
<text text-anchor="start" x="950.5" y="-29.5" font-family="Helvetica,sans-Serif" font-size="10.00">src~/finite_volume</text>
<text text-anchor="start" x="950.5" y="-18.5" font-family="Helvetica,sans-Serif" font-size="10.00">/grp_solver_2D_split</text>
<text text-anchor="middle" x="1000.5" y="-7.5" font-family="Helvetica,sans-Serif" font-size="10.00">_EUL_source.c</text>
</a>
</g>
</g>
<!-- Node1&#45;&gt;Node9 -->
<g id="edge8" class="edge">
<title>Node1&#45;&gt;Node9</title>
<path fill="none" stroke="midnightblue" d="M1337.27,-148.38C1256.91,-141.61 1137.1,-128.62 1095.5,-109 1086.7,-104.85 1045.98,-66.15 1020.79,-41.78"/>
<polygon fill="midnightblue" stroke="midnightblue" points="1337.1,-151.88 1347.35,-149.22 1337.68,-144.9 1337.1,-151.88"/>
</g>
<!-- Node10 -->
<g id="node10" class="node">
<title>Node10</title>
<g id="a_node10"><a xlink:href="../../de/d35/flux__generator__x_8c.html" target="_top" xlink:title="This file is a function which generates Eulerian fluxes in x&#45;direction of 2&#45;D Euler equations solved ...">
<polygon fill="white" stroke="black" points="692,-6 692,-36 799,-36 799,-6 692,-6"/>
<text text-anchor="start" x="700" y="-24" font-family="Helvetica,sans-Serif" font-size="10.00">src~/flux_calc/flux</text>
<text text-anchor="middle" x="745.5" y="-13" font-family="Helvetica,sans-Serif" font-size="10.00">_generator_x.c</text>
</a>
</g>
</g>
<!-- Node1&#45;&gt;Node10 -->
<g id="edge9" class="edge">
<title>Node1&#45;&gt;Node10</title>
<path fill="none" stroke="midnightblue" d="M1337.19,-152.12C1209.89,-148.25 962.03,-137.26 879.5,-109 873.28,-106.87 802.85,-60.22 766.67,-36.13"/>
<polygon fill="midnightblue" stroke="midnightblue" points="1337.16,-155.62 1347.26,-152.42 1337.37,-148.62 1337.16,-155.62"/>
</g>
<!-- Node11 -->
<g id="node11" class="node">
<title>Node11</title>
<g id="a_node11"><a xlink:href="../../de/db1/flux__generator__y_8c.html" target="_top" xlink:title="This file is a function which generates Eulerian fluxes in y&#45;direction of 2&#45;D Euler equations solved ...">
<polygon fill="white" stroke="black" points="817,-6 817,-36 924,-36 924,-6 817,-6"/>
<text text-anchor="start" x="825" y="-24" font-family="Helvetica,sans-Serif" font-size="10.00">src~/flux_calc/flux</text>
<text text-anchor="middle" x="870.5" y="-13" font-family="Helvetica,sans-Serif" font-size="10.00">_generator_y.c</text>
</a>
</g>
</g>
<!-- Node1&#45;&gt;Node11 -->
<g id="edge10" class="edge">
<title>Node1&#45;&gt;Node11</title>
<path fill="none" stroke="midnightblue" d="M1337.3,-151.58C1203.46,-146.74 939.35,-134.11 905.5,-109 882.09,-91.64 874.31,-56.02 871.74,-36.17"/>
<polygon fill="midnightblue" stroke="midnightblue" points="1337.37,-155.08 1347.49,-151.94 1337.62,-148.09 1337.37,-155.08"/>
</g>
<!-- Node12 -->
<g id="node12" class="node">
<title>Node12</title>
<g id="a_node12"><a xlink:href="../../d5/d55/flux__solver_8c.html" target="_top" xlink:title="This file is a set of functions to calculate interfacial fluxes and demanded variables according to t...">
<polygon fill="white" stroke="black" points="1254,-6 1254,-36 1361,-36 1361,-6 1254,-6"/>
<text text-anchor="start" x="1262" y="-24" font-family="Helvetica,sans-Serif" font-size="10.00">src~/flux_calc/flux</text>
<text text-anchor="middle" x="1307.5" y="-13" font-family="Helvetica,sans-Serif" font-size="10.00">_solver.c</text>
</a>
</g>
</g>
<!-- Node1&#45;&gt;Node12 -->
<g id="edge11" class="edge">
<title>Node1&#45;&gt;Node12</title>
<path fill="none" stroke="midnightblue" d="M1413.34,-135.11C1411.5,-118.66 1406.75,-94.86 1394.5,-78 1380.99,-59.4 1359.24,-45.4 1340.87,-36.05"/>
<polygon fill="midnightblue" stroke="midnightblue" points="1409.86,-135.49 1414.21,-145.15 1416.83,-134.89 1409.86,-135.49"/>
</g>
<!-- Node13 -->
<g id="node13" class="node">
<title>Node13</title>
<g id="a_node13"><a xlink:href="../../d2/d24/hydrocode_8c.html" target="_top" xlink:title="This is a C file of the main function.">
<polygon fill="white" stroke="black" points="2107.5,-11.5 2107.5,-30.5 2281.5,-30.5 2281.5,-11.5 2107.5,-11.5"/>
<text text-anchor="middle" x="2194.5" y="-18.5" font-family="Helvetica,sans-Serif" font-size="10.00">src~/hydrocode_2D/hydrocode.c</text>
</a>
</g>
</g>
<!-- Node1&#45;&gt;Node13 -->
<g id="edge12" class="edge">
<title>Node1&#45;&gt;Node13</title>
<path fill="none" stroke="midnightblue" d="M1491.66,-153.03C1553,-149.75 1639.78,-139.43 1709.5,-109 1729.79,-100.14 1728,-86.36 1748.5,-78 1893.31,-18.97 1943.97,-65.98 2098.5,-42 2118.18,-38.95 2139.93,-34.51 2157.74,-30.58"/>
<polygon fill="midnightblue" stroke="midnightblue" points="1491.47,-149.53 1481.65,-153.51 1491.81,-156.52 1491.47,-149.53"/>
</g>
<!-- Node14 -->
<g id="node14" class="node">
<title>Node14</title>
<g id="a_node14"><a xlink:href="../../d8/da8/finite__volume_8h.html" target="_top" xlink:title="This file is the header file of Lagrangian/Eulerian hydrocode in finite volume framework.">
<polygon fill="white" stroke="black" points="1594.5,-78.5 1594.5,-108.5 1700.5,-108.5 1700.5,-78.5 1594.5,-78.5"/>
<text text-anchor="start" x="1602.5" y="-96.5" font-family="Helvetica,sans-Serif" font-size="10.00">src~/include/finite</text>
<text text-anchor="middle" x="1647.5" y="-85.5" font-family="Helvetica,sans-Serif" font-size="10.00">_volume.h</text>
</a>
</g>
</g>
<!-- Node1&#45;&gt;Node14 -->
<g id="edge13" class="edge">
<title>Node1&#45;&gt;Node14</title>
<path fill="none" stroke="midnightblue" d="M1457.78,-142.95C1496.38,-133.09 1553.03,-118.62 1594.37,-108.07"/>
<polygon fill="midnightblue" stroke="midnightblue" points="1456.71,-139.61 1447.88,-145.48 1458.44,-146.39 1456.71,-139.61"/>
</g>
<!-- Node15 -->
<g id="node15" class="node">
<title>Node15</title>
<g id="a_node15"><a xlink:href="../../dd/df5/flux__calc_8h.html" target="_top" xlink:title="This file is the header file of intermediate processes of finite volume scheme.">
<polygon fill="white" stroke="black" points="915,-84 915,-103 1048,-103 1048,-84 915,-84"/>
<text text-anchor="middle" x="981.5" y="-91" font-family="Helvetica,sans-Serif" font-size="10.00">src~/include/flux_calc.h</text>
</a>
</g>
</g>
<!-- Node1&#45;&gt;Node15 -->
<g id="edge15" class="edge">
<title>Node1&#45;&gt;Node15</title>
<path fill="none" stroke="midnightblue" d="M1336.95,-145.21C1265.52,-136.85 1156.67,-123.44 1062.5,-109 1050.92,-107.22 1038.45,-105.1 1026.84,-103.03"/>
<polygon fill="midnightblue" stroke="midnightblue" points="1336.87,-148.73 1347.21,-146.41 1337.68,-141.78 1336.87,-148.73"/>
</g>
<!-- Node16 -->
<g id="node16" class="node">
<title>Node16</title>
<g id="a_node16"><a xlink:href="../../d6/d6f/inter__process_8h.html" target="_top" xlink:title="This file is the header file of intermediate processes of finite volume scheme.">
<polygon fill="white" stroke="black" points="1105,-78.5 1105,-108.5 1208,-108.5 1208,-78.5 1105,-78.5"/>
<text text-anchor="start" x="1113" y="-96.5" font-family="Helvetica,sans-Serif" font-size="10.00">src~/include/inter</text>
<text text-anchor="middle" x="1156.5" y="-85.5" font-family="Helvetica,sans-Serif" font-size="10.00">_process.h</text>
</a>
</g>
</g>
<!-- Node1&#45;&gt;Node16 -->
<g id="edge20" class="edge">
<title>Node1&#45;&gt;Node16</title>
<path fill="none" stroke="midnightblue" d="M1367.73,-143.21C1322.68,-132.82 1254.7,-117.15 1208.1,-106.4"/>
<polygon fill="midnightblue" stroke="midnightblue" points="1367,-146.64 1377.53,-145.48 1368.58,-139.82 1367,-146.64"/>
</g>
<!-- Node17 -->
<g id="node17" class="node">
<title>Node17</title>
<g id="a_node17"><a xlink:href="../../d8/d49/bound__cond__slope__limiter__x_8c.html" target="_top" xlink:title="This is a function to set boundary conditions and use the slope limiter in x&#45;direction of two dimensi...">
<polygon fill="white" stroke="black" points="1379,-6 1379,-36 1546,-36 1546,-6 1379,-6"/>
<text text-anchor="start" x="1387" y="-24" font-family="Helvetica,sans-Serif" font-size="10.00">src~/inter_process</text>
<text text-anchor="middle" x="1462.5" y="-13" font-family="Helvetica,sans-Serif" font-size="10.00">/bound_cond_slope_limiter_x.c</text>
</a>
</g>
</g>
<!-- Node1&#45;&gt;Node17 -->
<g id="edge34" class="edge">
<title>Node1&#45;&gt;Node17</title>
<path fill="none" stroke="midnightblue" d="M1421.14,-135.74C1430.8,-109.18 1448.53,-60.41 1457.31,-36.28"/>
<polygon fill="midnightblue" stroke="midnightblue" points="1417.78,-134.75 1417.65,-145.34 1424.36,-137.14 1417.78,-134.75"/>
</g>
<!-- Node18 -->
<g id="node18" class="node">
<title>Node18</title>
<g id="a_node18"><a xlink:href="../../d8/dbb/bound__cond__slope__limiter__y_8c.html" target="_top" xlink:title="This is a function to set boundary conditions and use the slope limiter in y&#45;direction of two dimensi...">
<polygon fill="white" stroke="black" points="1564,-6 1564,-36 1729,-36 1729,-6 1564,-6"/>
<text text-anchor="start" x="1572" y="-24" font-family="Helvetica,sans-Serif" font-size="10.00">src~/inter_process</text>
<text text-anchor="middle" x="1646.5" y="-13" font-family="Helvetica,sans-Serif" font-size="10.00">/bound_cond_slope_limiter_y.c</text>
</a>
</g>
</g>
<!-- Node1&#45;&gt;Node18 -->
<g id="edge35" class="edge">
<title>Node1&#45;&gt;Node18</title>
<path fill="none" stroke="midnightblue" d="M1431.75,-138.75C1450.97,-122.29 1483.44,-96.01 1514.5,-78 1543.89,-60.95 1579.47,-46.16 1606.28,-36.07"/>
<polygon fill="midnightblue" stroke="midnightblue" points="1429.4,-136.16 1424.14,-145.36 1433.99,-141.45 1429.4,-136.16"/>
</g>
<!-- Node19 -->
<g id="node19" class="node">
<title>Node19</title>
<g id="a_node19"><a xlink:href="../../df/ded/riemann__solver_8h.html" target="_top" xlink:title="This file is the header file of several Riemann solvers and GRP solvers.">
<polygon fill="white" stroke="black" points="1265,-78.5 1265,-108.5 1386,-108.5 1386,-78.5 1265,-78.5"/>
<text text-anchor="start" x="1273" y="-96.5" font-family="Helvetica,sans-Serif" font-size="10.00">src~/include/riemann</text>
<text text-anchor="middle" x="1325.5" y="-85.5" font-family="Helvetica,sans-Serif" font-size="10.00">_solver.h</text>
</a>
</g>
</g>
<!-- Node1&#45;&gt;Node19 -->
<g id="edge28" class="edge">
<title>Node1&#45;&gt;Node19</title>
<path fill="none" stroke="midnightblue" d="M1393.17,-139.74C1379.02,-130.28 1360.55,-117.93 1346.48,-108.52"/>
<polygon fill="midnightblue" stroke="midnightblue" points="1391.49,-142.83 1401.75,-145.48 1395.38,-137.01 1391.49,-142.83"/>
</g>
<!-- Node20 -->
<g id="node20" class="node">
<title>Node20</title>
<g id="a_node20"><a xlink:href="../../d9/dd5/linear__grp__solver___edir___g2_d_8c.html" target="_top" xlink:title="This is a Genuinely&#45;2D direct Eulerian GRP solver for compressible inviscid flow in Li&#39;s paper.">
<polygon fill="white" stroke="black" points="1747.5,-6 1747.5,-36 1909.5,-36 1909.5,-6 1747.5,-6"/>
<text text-anchor="start" x="1755.5" y="-24" font-family="Helvetica,sans-Serif" font-size="10.00">src~/riemann_solver</text>
<text text-anchor="middle" x="1828.5" y="-13" font-family="Helvetica,sans-Serif" font-size="10.00">/linear_grp_solver_Edir_G2D.c</text>
</a>
</g>
</g>
<!-- Node1&#45;&gt;Node20 -->
<g id="edge40" class="edge">
<title>Node1&#45;&gt;Node20</title>
<path fill="none" stroke="midnightblue" d="M1443.24,-141.19C1461.66,-132.68 1485.88,-120.91 1506.5,-109 1527.85,-96.67 1529.72,-87.42 1552.5,-78 1630.31,-45.82 1656.06,-59.13 1738.5,-42 1747.43,-40.14 1756.85,-38.12 1766.09,-36.1"/>
<polygon fill="midnightblue" stroke="midnightblue" points="1441.57,-138.1 1433.93,-145.44 1444.48,-144.47 1441.57,-138.1"/>
</g>
<!-- Node21 -->
<g id="node21" class="node">
<title>Node21</title>
<g id="a_node21"><a xlink:href="../../db/dd1/linear__grp__solver___edir___q1_d_8c.html" target="_top" xlink:title="This is a Quasi&#45;1D direct Eulerian GRP solver for compressible inviscid flow in Li&#39;s paper.">
<polygon fill="white" stroke="black" points="1927.5,-6 1927.5,-36 2089.5,-36 2089.5,-6 1927.5,-6"/>
<text text-anchor="start" x="1935.5" y="-24" font-family="Helvetica,sans-Serif" font-size="10.00">src~/riemann_solver</text>
<text text-anchor="middle" x="2008.5" y="-13" font-family="Helvetica,sans-Serif" font-size="10.00">/linear_grp_solver_Edir_Q1D.c</text>
</a>
</g>
</g>
<!-- Node1&#45;&gt;Node21 -->
<g id="edge41" class="edge">
<title>Node1&#45;&gt;Node21</title>
<path fill="none" stroke="midnightblue" d="M1457.28,-142.61C1483.06,-134.89 1516.09,-123.47 1543.5,-109 1564.02,-98.17 1563.88,-86.43 1585.5,-78 1724.19,-23.92 1771.62,-66.18 1918.5,-42 1928.61,-40.34 1939.29,-38.25 1949.62,-36.07"/>
<polygon fill="midnightblue" stroke="midnightblue" points="1456.05,-139.32 1447.43,-145.48 1458.01,-146.04 1456.05,-139.32"/>
</g>
<!-- Node22 -->
<g id="node22" class="node">
<title>Node22</title>
<g id="a_node22"><a xlink:href="../../d7/d5a/fluid__var__check_8c.html" target="_top" xlink:title="There are some functions to check whether fluid variables are within the value range.">
<polygon fill="white" stroke="black" points="1757,-78.5 1757,-108.5 1864,-108.5 1864,-78.5 1757,-78.5"/>
<text text-anchor="start" x="1765" y="-96.5" font-family="Helvetica,sans-Serif" font-size="10.00">src~/inter_process</text>
<text text-anchor="middle" x="1810.5" y="-85.5" font-family="Helvetica,sans-Serif" font-size="10.00">/fluid_var_check.c</text>
</a>
</g>
</g>
<!-- Node1&#45;&gt;Node22 -->
<g id="edge36" class="edge">
<title>Node1&#45;&gt;Node22</title>
<path fill="none" stroke="midnightblue" d="M1491.63,-145.05C1558.25,-136.93 1657.01,-123.96 1742.5,-109 1747.14,-108.19 1751.94,-107.29 1756.75,-106.34"/>
<polygon fill="midnightblue" stroke="midnightblue" points="1491.13,-141.58 1481.63,-146.26 1491.98,-148.53 1491.13,-141.58"/>
</g>
<!-- Node23 -->
<g id="node23" class="node">
<title>Node23</title>
<g id="a_node23"><a xlink:href="../../d2/d49/slope__limiter_8c.html" target="_top" xlink:title="This is a function of the minmod slope limiter in one dimension.">
<polygon fill="white" stroke="black" points="1882,-78.5 1882,-108.5 1989,-108.5 1989,-78.5 1882,-78.5"/>
<text text-anchor="start" x="1890" y="-96.5" font-family="Helvetica,sans-Serif" font-size="10.00">src~/inter_process</text>
<text text-anchor="middle" x="1935.5" y="-85.5" font-family="Helvetica,sans-Serif" font-size="10.00">/slope_limiter.c</text>
</a>
</g>
</g>
<!-- Node1&#45;&gt;Node23 -->
<g id="edge37" class="edge">
<title>Node1&#45;&gt;Node23</title>
<path fill="none" stroke="midnightblue" d="M1491.77,-149.55C1583.32,-143.56 1740.25,-131.02 1873.5,-109 1876.23,-108.55 1879.01,-108.05 1881.82,-107.51"/>
<polygon fill="midnightblue" stroke="midnightblue" points="1491.51,-146.06 1481.76,-150.2 1491.96,-153.04 1491.51,-146.06"/>
</g>
<!-- Node24 -->
<g id="node24" class="node">
<title>Node24</title>
<g id="a_node24"><a xlink:href="../../d7/d36/slope__limiter__2_d__x_8c.html" target="_top" xlink:title="This is a function of the minmod slope limiter in the x&#45;direction of two dimension.">
<polygon fill="white" stroke="black" points="2007.5,-78.5 2007.5,-108.5 2129.5,-108.5 2129.5,-78.5 2007.5,-78.5"/>
<text text-anchor="start" x="2015.5" y="-96.5" font-family="Helvetica,sans-Serif" font-size="10.00">src~/inter_process</text>
<text text-anchor="middle" x="2068.5" y="-85.5" font-family="Helvetica,sans-Serif" font-size="10.00">/slope_limiter_2D_x.c</text>
</a>
</g>
</g>
<!-- Node1&#45;&gt;Node24 -->
<g id="edge38" class="edge">
<title>Node1&#45;&gt;Node24</title>
<path fill="none" stroke="midnightblue" d="M1492.01,-151.17C1604.18,-146.36 1818.11,-134.53 1998.5,-109 2001.45,-108.58 2004.46,-108.12 2007.5,-107.61"/>
<polygon fill="midnightblue" stroke="midnightblue" points="1491.65,-147.68 1481.8,-151.6 1491.94,-154.68 1491.65,-147.68"/>
</g>
<!-- Node25 -->
<g id="node25" class="node">
<title>Node25</title>
<g id="a_node25"><a xlink:href="../../de/d7a/hll__2_d__solver_8c.html" target="_top" xlink:title="This is a two&#45;dimensional HLL solver for compressible inviscid flow.">
<polygon fill="white" stroke="black" points="2147.5,-78.5 2147.5,-108.5 2265.5,-108.5 2265.5,-78.5 2147.5,-78.5"/>
<text text-anchor="start" x="2155.5" y="-96.5" font-family="Helvetica,sans-Serif" font-size="10.00">src~/riemann_solver</text>
<text text-anchor="middle" x="2206.5" y="-85.5" font-family="Helvetica,sans-Serif" font-size="10.00">/hll_2D_solver.c</text>
</a>
</g>
</g>
<!-- Node1&#45;&gt;Node25 -->
<g id="edge39" class="edge">
<title>Node1&#45;&gt;Node25</title>
<path fill="none" stroke="midnightblue" d="M1491.78,-152.94C1624.58,-150.29 1904.41,-141.05 2138.5,-109 2141.37,-108.61 2144.3,-108.16 2147.25,-107.67"/>
<polygon fill="midnightblue" stroke="midnightblue" points="1491.63,-149.45 1481.7,-153.14 1491.77,-156.44 1491.63,-149.45"/>
</g>
<!-- Node26 -->
<g id="node26" class="node">
<title>Node26</title>
<g id="a_node26"><a xlink:href="../../d5/d41/roe__2_d__solver_8c.html" target="_top" xlink:title="This is a two&#45;dimensional Roe solver for compressible inviscid flow.">
<polygon fill="white" stroke="black" points="2283.5,-78.5 2283.5,-108.5 2401.5,-108.5 2401.5,-78.5 2283.5,-78.5"/>
<text text-anchor="start" x="2291.5" y="-96.5" font-family="Helvetica,sans-Serif" font-size="10.00">src~/riemann_solver</text>
<text text-anchor="middle" x="2342.5" y="-85.5" font-family="Helvetica,sans-Serif" font-size="10.00">/roe_2D_solver.c</text>
</a>
</g>
</g>
<!-- Node1&#45;&gt;Node26 -->
<g id="edge42" class="edge">
<title>Node1&#45;&gt;Node26</title>
<path fill="none" stroke="midnightblue" d="M1491.84,-154.03C1642.93,-153.19 1987.61,-146.85 2274.5,-109 2277.37,-108.62 2280.3,-108.19 2283.26,-107.71"/>
<polygon fill="midnightblue" stroke="midnightblue" points="1491.72,-150.53 1481.74,-154.08 1491.75,-157.53 1491.72,-150.53"/>
</g>
<!-- Node27 -->
<g id="node27" class="node">
<title>Node27</title>
<g id="a_node27"><a xlink:href="../../d9/d9f/roe__hll__solver_8c.html" target="_top" xlink:title="This is a two&#45;dimensional Roe&#45;HLL solver with for compressible inviscid flow.">
<polygon fill="white" stroke="black" points="2419.5,-78.5 2419.5,-108.5 2537.5,-108.5 2537.5,-78.5 2419.5,-78.5"/>
<text text-anchor="start" x="2427.5" y="-96.5" font-family="Helvetica,sans-Serif" font-size="10.00">src~/riemann_solver</text>
<text text-anchor="middle" x="2478.5" y="-85.5" font-family="Helvetica,sans-Serif" font-size="10.00">/roe_hll_solver.c</text>
</a>
</g>
</g>
<!-- Node1&#45;&gt;Node27 -->
<g id="edge43" class="edge">
<title>Node1&#45;&gt;Node27</title>
<path fill="none" stroke="midnightblue" d="M1491.79,-154.83C1659.72,-155.69 2070.18,-152.67 2410.5,-109 2413.37,-108.63 2416.31,-108.2 2419.26,-107.73"/>
<polygon fill="midnightblue" stroke="midnightblue" points="1491.58,-151.33 1481.56,-154.77 1491.54,-158.33 1491.58,-151.33"/>
</g>
<!-- Node28 -->
<g id="node28" class="node">
<title>Node28</title>
<g id="a_node28"><a xlink:href="../../d1/db6/roe__solver_8c.html" target="_top" xlink:title="This is a one&#45;dimensional Roe solver for compressible inviscid flow.">
<polygon fill="white" stroke="black" points="2555.5,-78.5 2555.5,-108.5 2673.5,-108.5 2673.5,-78.5 2555.5,-78.5"/>
<text text-anchor="start" x="2563.5" y="-96.5" font-family="Helvetica,sans-Serif" font-size="10.00">src~/riemann_solver</text>
<text text-anchor="middle" x="2614.5" y="-85.5" font-family="Helvetica,sans-Serif" font-size="10.00">/roe_solver.c</text>
</a>
</g>
</g>
<!-- Node1&#45;&gt;Node28 -->
<g id="edge44" class="edge">
<title>Node1&#45;&gt;Node28</title>
<path fill="none" stroke="midnightblue" d="M1491.81,-152.64C1712.36,-148.5 2341.79,-134.7 2546.5,-109 2549.37,-108.64 2552.31,-108.22 2555.26,-107.75"/>
<polygon fill="midnightblue" stroke="midnightblue" points="1491.55,-149.15 1481.62,-152.83 1491.69,-156.15 1491.55,-149.15"/>
</g>
<!-- Node14&#45;&gt;Node13 -->
<g id="edge14" class="edge">
<title>Node14&#45;&gt;Node13</title>
<path fill="none" stroke="midnightblue" d="M1710.7,-78.61C1711.97,-78.4 1713.24,-78.19 1714.5,-78 1883.9,-51.82 1929,-67.52 2098.5,-42 2118.37,-39.01 2140.31,-34.53 2158.2,-30.56"/>
<polygon fill="midnightblue" stroke="midnightblue" points="1710.02,-75.17 1700.79,-80.37 1711.24,-82.07 1710.02,-75.17"/>
</g>
<!-- Node15&#45;&gt;Node8 -->
<g id="edge16" class="edge">
<title>Node15&#45;&gt;Node8</title>
<path fill="none" stroke="midnightblue" d="M1011.93,-80.24C1042.53,-67.91 1089.67,-48.92 1121.73,-36.01"/>
<polygon fill="midnightblue" stroke="midnightblue" points="1010.58,-77.01 1002.61,-84 1013.19,-83.51 1010.58,-77.01"/>
</g>
<!-- Node15&#45;&gt;Node9 -->
<g id="edge17" class="edge">
<title>Node15&#45;&gt;Node9</title>
<path fill="none" stroke="midnightblue" d="M986.44,-74.17C989.13,-64.19 992.46,-51.84 995.2,-41.66"/>
<polygon fill="midnightblue" stroke="midnightblue" points="983.05,-73.29 983.83,-83.86 989.81,-75.11 983.05,-73.29"/>
</g>
<!-- Node15&#45;&gt;Node10 -->
<g id="edge18" class="edge">
<title>Node15&#45;&gt;Node10</title>
<path fill="none" stroke="midnightblue" d="M941,-81.11C905.67,-71.09 853.08,-55.96 807.5,-42 801.34,-40.11 794.84,-38.07 788.47,-36.04"/>
<polygon fill="midnightblue" stroke="midnightblue" points="940.35,-84.57 950.93,-83.92 942.26,-77.83 940.35,-84.57"/>
</g>
<!-- Node15&#45;&gt;Node11 -->
<g id="edge19" class="edge">
<title>Node15&#45;&gt;Node11</title>
<path fill="none" stroke="midnightblue" d="M959.41,-78.47C940.05,-66.17 912.05,-48.39 892.66,-36.08"/>
<polygon fill="midnightblue" stroke="midnightblue" points="957.57,-81.45 967.89,-83.86 961.32,-75.54 957.57,-81.45"/>
</g>
<!-- Node16&#45;&gt;Node8 -->
<g id="edge21" class="edge">
<title>Node16&#45;&gt;Node8</title>
<path fill="none" stroke="midnightblue" d="M1156.5,-68.23C1156.5,-57.57 1156.5,-45.41 1156.5,-36.25"/>
<polygon fill="midnightblue" stroke="midnightblue" points="1153,-68.23 1156.5,-78.23 1160,-68.23 1153,-68.23"/>
</g>
<!-- Node16&#45;&gt;Node9 -->
<g id="edge22" class="edge">
<title>Node16&#45;&gt;Node9</title>
<path fill="none" stroke="midnightblue" d="M1116.15,-74.26C1093.95,-64.23 1066.39,-51.78 1043.75,-41.55"/>
<polygon fill="midnightblue" stroke="midnightblue" points="1114.75,-77.47 1125.31,-78.4 1117.63,-71.1 1114.75,-77.47"/>
</g>
<!-- Node16&#45;&gt;Node10 -->
<g id="edge23" class="edge">
<title>Node16&#45;&gt;Node10</title>
<path fill="none" stroke="midnightblue" d="M1094.84,-83.56C1082.16,-81.72 1068.9,-79.8 1056.5,-78 945.84,-61.98 916.43,-67.25 807.5,-42 800.34,-40.34 792.82,-38.23 785.58,-36.01"/>
<polygon fill="midnightblue" stroke="midnightblue" points="1094.46,-87.04 1104.86,-85.01 1095.46,-80.11 1094.46,-87.04"/>
</g>
<!-- Node16&#45;&gt;Node11 -->
<g id="edge24" class="edge">
<title>Node16&#45;&gt;Node11</title>
<path fill="none" stroke="midnightblue" d="M1094.93,-80.02C1049.96,-70.55 987.64,-56.69 933.5,-42 926.86,-40.2 919.86,-38.14 913.05,-36.05"/>
<polygon fill="midnightblue" stroke="midnightblue" points="1094.32,-83.47 1104.82,-82.09 1095.75,-76.62 1094.32,-83.47"/>
</g>
<!-- Node16&#45;&gt;Node12 -->
<g id="edge25" class="edge">
<title>Node16&#45;&gt;Node12</title>
<path fill="none" stroke="midnightblue" d="M1196.06,-74.03C1221.49,-62.16 1254.02,-46.97 1277.36,-36.07"/>
<polygon fill="midnightblue" stroke="midnightblue" points="1194.27,-71 1186.69,-78.4 1197.24,-77.34 1194.27,-71"/>
</g>
<!-- Node16&#45;&gt;Node17 -->
<g id="edge26" class="edge">
<title>Node16&#45;&gt;Node17</title>
<path fill="none" stroke="midnightblue" d="M1218.08,-78.31C1271.46,-66.01 1348.29,-48.31 1401.5,-36.05"/>
<polygon fill="midnightblue" stroke="midnightblue" points="1217.02,-74.96 1208.06,-80.62 1218.59,-81.79 1217.02,-74.96"/>
</g>
<!-- Node16&#45;&gt;Node18 -->
<g id="edge27" class="edge">
<title>Node16&#45;&gt;Node18</title>
<path fill="none" stroke="midnightblue" d="M1218.3,-83.2C1230.61,-81.42 1243.46,-79.61 1255.5,-78 1388.17,-60.3 1422.51,-64.24 1554.5,-42 1564.65,-40.29 1575.38,-38.21 1585.79,-36.04"/>
<polygon fill="midnightblue" stroke="midnightblue" points="1217.49,-79.78 1208.1,-84.69 1218.5,-86.71 1217.49,-79.78"/>
</g>
<!-- Node19&#45;&gt;Node8 -->
<g id="edge29" class="edge">
<title>Node19&#45;&gt;Node8</title>
<path fill="none" stroke="midnightblue" d="M1282.35,-74.5C1253.73,-62.56 1216.7,-47.11 1190.23,-36.07"/>
<polygon fill="midnightblue" stroke="midnightblue" points="1281.13,-77.78 1291.71,-78.4 1283.82,-71.32 1281.13,-77.78"/>
</g>
<!-- Node19&#45;&gt;Node9 -->
<g id="edge30" class="edge">
<title>Node19&#45;&gt;Node9</title>
<path fill="none" stroke="midnightblue" d="M1254.79,-80.56C1202.72,-71.31 1130.34,-57.49 1067.5,-42 1064.55,-41.27 1061.54,-40.5 1058.51,-39.69"/>
<polygon fill="midnightblue" stroke="midnightblue" points="1254.47,-84.06 1264.93,-82.35 1255.69,-77.17 1254.47,-84.06"/>
</g>
<!-- Node19&#45;&gt;Node12 -->
<g id="edge31" class="edge">
<title>Node19&#45;&gt;Node12</title>
<path fill="none" stroke="midnightblue" d="M1319.3,-68.23C1316.58,-57.57 1313.48,-45.41 1311.14,-36.25"/>
<polygon fill="midnightblue" stroke="midnightblue" points="1315.99,-69.41 1321.86,-78.23 1322.77,-67.68 1315.99,-69.41"/>
</g>
<!-- Node19&#45;&gt;Node20 -->
<g id="edge32" class="edge">
<title>Node19&#45;&gt;Node20</title>
<path fill="none" stroke="midnightblue" d="M1396.32,-85.95C1478.82,-77.83 1619.07,-62.52 1738.5,-42 1748.44,-40.29 1758.94,-38.21 1769.11,-36.05"/>
<polygon fill="midnightblue" stroke="midnightblue" points="1395.92,-82.47 1386.3,-86.93 1396.6,-89.44 1395.92,-82.47"/>
</g>
<!-- Node19&#45;&gt;Node21 -->
<g id="edge33" class="edge">
<title>Node19&#45;&gt;Node21</title>
<path fill="none" stroke="midnightblue" d="M1396.69,-87.64C1531.57,-78.22 1819.7,-57.11 1918.5,-42 1928.94,-40.4 1939.98,-38.3 1950.62,-36.06"/>
<polygon fill="midnightblue" stroke="midnightblue" points="1396.2,-84.16 1386.47,-88.35 1396.69,-91.15 1396.2,-84.16"/>
</g>
</g>
</svg>
