<?xml version="1.0" encoding="UTF-8" standalone="no"?>
<!DOCTYPE svg PUBLIC "-//W3C//DTD SVG 1.1//EN"
 "http://www.w3.org/Graphics/SVG/1.1/DTD/svg11.dtd">
<!-- Generated by graphviz version 6.0.1 (0)
 -->
<!-- Title: AcousticRLagTangent Pages: 1 -->
<svg width="386pt" height="66pt"
 viewBox="0.00 0.00 386.00 66.00" xmlns="http://www.w3.org/2000/svg" xmlns:xlink="http://www.w3.org/1999/xlink">
<g id="graph0" class="graph" transform="scale(1 1) rotate(0) translate(4 62)">
<title>AcousticRLagTangent</title>
<polygon fill="white" stroke="none" points="-4,4 -4,-62 382,-62 382,4 -4,4"/>
<!-- Node1 -->
<g id="node1" class="node">
<title>Node1</title>
<g id="a_node1"><a xlink:title="A GRP solver for unsteady compressible inviscid two&#45;component flow in tangential case....">
<polygon fill="#bfbfbf" stroke="black" points="0,-19.5 0,-38.5 120,-38.5 120,-19.5 0,-19.5"/>
<text text-anchor="middle" x="60" y="-26.5" font-family="Helvetica,sans-Serif" font-size="10.00">AcousticRLagTangent</text>
</a>
</g>
</g>
<!-- Node2 -->
<g id="node2" class="node">
<title>Node2</title>
<g id="a_node2"><a xlink:href="../../d2/d49/riemann__solver__star_p_u_8c.html#a9874cf3a84e2f4ba605b078faeb4b62a" target="_top" xlink:title="EXACT RIEMANN SOLVER FOR Two&#45;Component γ&#45;Law Gas">
<polygon fill="white" stroke="black" points="156,-19.5 156,-38.5 289,-38.5 289,-19.5 156,-19.5"/>
<text text-anchor="middle" x="222.5" y="-26.5" font-family="Helvetica,sans-Serif" font-size="10.00">Riemann_solver_starPU</text>
</a>
</g>
</g>
<!-- Node1&#45;&gt;Node2 -->
<g id="edge1" class="edge">
<title>Node1&#45;&gt;Node2</title>
<path fill="none" stroke="midnightblue" d="M120.31,-29C128.65,-29 137.32,-29 145.92,-29"/>
<polygon fill="midnightblue" stroke="midnightblue" points="145.95,-32.5 155.95,-29 145.95,-25.5 145.95,-32.5"/>
</g>
<!-- Node3 -->
<g id="node3" class="node">
<title>Node3</title>
<g id="a_node3"><a xlink:href="../../d2/d49/riemann__solver__star_p_u_8c.html#a9e810193004adbabfe0e143efb93ff04" target="_top" xlink:title="Provide a guess value for pressure PM in the Star Region.">
<polygon fill="white" stroke="black" points="325,-38.5 325,-57.5 378,-57.5 378,-38.5 325,-38.5"/>
<text text-anchor="middle" x="351.5" y="-45.5" font-family="Helvetica,sans-Serif" font-size="10.00">GuessP</text>
</a>
</g>
</g>
<!-- Node2&#45;&gt;Node3 -->
<g id="edge2" class="edge">
<title>Node2&#45;&gt;Node3</title>
<path fill="none" stroke="midnightblue" d="M287.37,-38.56C296.86,-39.97 306.33,-41.39 314.95,-42.68"/>
<polygon fill="midnightblue" stroke="midnightblue" points="314.57,-46.16 324.98,-44.18 315.6,-39.24 314.57,-46.16"/>
</g>
<!-- Node4 -->
<g id="node4" class="node">
<title>Node4</title>
<g id="a_node4"><a xlink:href="../../d2/d49/riemann__solver__star_p_u_8c.html#a751e4af4442c32ecdfb4e82e2c50dbd3" target="_top" xlink:title="Evaluate the pressure functions FL and FR in exact Riemann solver.">
<polygon fill="white" stroke="black" points="326.5,-0.5 326.5,-19.5 376.5,-19.5 376.5,-0.5 326.5,-0.5"/>
<text text-anchor="middle" x="351.5" y="-7.5" font-family="Helvetica,sans-Serif" font-size="10.00">PreFun</text>
</a>
</g>
</g>
<!-- Node2&#45;&gt;Node4 -->
<g id="edge3" class="edge">
<title>Node2&#45;&gt;Node4</title>
<path fill="none" stroke="midnightblue" d="M287.37,-19.44C297.41,-17.94 307.43,-16.44 316.43,-15.1"/>
<polygon fill="midnightblue" stroke="midnightblue" points="317.11,-18.53 326.48,-13.59 316.07,-11.61 317.11,-18.53"/>
</g>
</g>
</svg>
