<?xml version="1.0" encoding="UTF-8" standalone="no"?>
<!DOCTYPE svg PUBLIC "-//W3C//DTD SVG 1.1//EN"
 "http://www.w3.org/Graphics/SVG/1.1/DTD/svg11.dtd">
<!-- Generated by graphviz version 6.0.1 (0)
 -->
<!-- Title: GRPsolverRLag Pages: 1 -->
<svg width="357pt" height="66pt"
 viewBox="0.00 0.00 357.00 66.00" xmlns="http://www.w3.org/2000/svg" xmlns:xlink="http://www.w3.org/1999/xlink">
<g id="graph0" class="graph" transform="scale(1 1) rotate(0) translate(4 62)">
<title>GRPsolverRLag</title>
<polygon fill="white" stroke="none" points="-4,4 -4,-62 353,-62 353,4 -4,4"/>
<!-- Node1 -->
<g id="node1" class="node">
<title>Node1</title>
<g id="a_node1"><a xlink:title="A GRP solver for unsteady compressible inviscid two&#45;component flow. Lagrangian version (moving mesh) ...">
<polygon fill="#bfbfbf" stroke="black" points="0,-19.5 0,-38.5 91,-38.5 91,-19.5 0,-19.5"/>
<text text-anchor="middle" x="45.5" y="-26.5" font-family="Helvetica,sans-Serif" font-size="10.00">GRPsolverRLag</text>
</a>
</g>
</g>
<!-- Node2 -->
<g id="node2" class="node">
<title>Node2</title>
<g id="a_node2"><a xlink:href="../../d2/d49/riemann__solver__star_p_u_8c.html#a9874cf3a84e2f4ba605b078faeb4b62a" target="_top" xlink:title="EXACT RIEMANN SOLVER FOR Two&#45;Component γ&#45;Law Gas">
<polygon fill="white" stroke="black" points="127,-19.5 127,-38.5 260,-38.5 260,-19.5 127,-19.5"/>
<text text-anchor="middle" x="193.5" y="-26.5" font-family="Helvetica,sans-Serif" font-size="10.00">Riemann_solver_starPU</text>
</a>
</g>
</g>
<!-- Node1&#45;&gt;Node2 -->
<g id="edge1" class="edge">
<title>Node1&#45;&gt;Node2</title>
<path fill="none" stroke="midnightblue" d="M91.1,-29C99.24,-29 107.93,-29 116.68,-29"/>
<polygon fill="midnightblue" stroke="midnightblue" points="116.94,-32.5 126.94,-29 116.94,-25.5 116.94,-32.5"/>
</g>
<!-- Node3 -->
<g id="node3" class="node">
<title>Node3</title>
<g id="a_node3"><a xlink:href="../../d2/d49/riemann__solver__star_p_u_8c.html#a9e810193004adbabfe0e143efb93ff04" target="_top" xlink:title="Provide a guess value for pressure PM in the Star Region.">
<polygon fill="white" stroke="black" points="296,-38.5 296,-57.5 349,-57.5 349,-38.5 296,-38.5"/>
<text text-anchor="middle" x="322.5" y="-45.5" font-family="Helvetica,sans-Serif" font-size="10.00">GuessP</text>
</a>
</g>
</g>
<!-- Node2&#45;&gt;Node3 -->
<g id="edge2" class="edge">
<title>Node2&#45;&gt;Node3</title>
<path fill="none" stroke="midnightblue" d="M258.37,-38.56C267.86,-39.97 277.33,-41.39 285.95,-42.68"/>
<polygon fill="midnightblue" stroke="midnightblue" points="285.57,-46.16 295.98,-44.18 286.6,-39.24 285.57,-46.16"/>
</g>
<!-- Node4 -->
<g id="node4" class="node">
<title>Node4</title>
<g id="a_node4"><a xlink:href="../../d2/d49/riemann__solver__star_p_u_8c.html#a751e4af4442c32ecdfb4e82e2c50dbd3" target="_top" xlink:title="Evaluate the pressure functions FL and FR in exact Riemann solver.">
<polygon fill="white" stroke="black" points="297.5,-0.5 297.5,-19.5 347.5,-19.5 347.5,-0.5 297.5,-0.5"/>
<text text-anchor="middle" x="322.5" y="-7.5" font-family="Helvetica,sans-Serif" font-size="10.00">PreFun</text>
</a>
</g>
</g>
<!-- Node2&#45;&gt;Node4 -->
<g id="edge3" class="edge">
<title>Node2&#45;&gt;Node4</title>
<path fill="none" stroke="midnightblue" d="M258.37,-19.44C268.41,-17.94 278.43,-16.44 287.43,-15.1"/>
<polygon fill="midnightblue" stroke="midnightblue" points="288.11,-18.53 297.48,-13.59 287.07,-11.61 288.11,-18.53"/>
</g>
</g>
</svg>
