<?xml version="1.0" encoding="UTF-8" standalone="no"?>
<!DOCTYPE svg PUBLIC "-//W3C//DTD SVG 1.1//EN"
 "http://www.w3.org/Graphics/SVG/1.1/DTD/svg11.dtd">
<!-- Generated by graphviz version 5.0.0 (0)
 -->
<!-- Title: /home/leixin/Programs/HydroCODE/src/include/inter_process.h Pages: 1 -->
<svg width="1761pt" height="139pt"
 viewBox="0.00 0.00 1761.00 139.00" xmlns="http://www.w3.org/2000/svg" xmlns:xlink="http://www.w3.org/1999/xlink">
<g id="graph0" class="graph" transform="scale(1 1) rotate(0) translate(4 135)">
<title>/home/leixin/Programs/HydroCODE/src/include/inter_process.h</title>
<polygon fill="white" stroke="transparent" points="-4,4 -4,-135 1757,-135 1757,4 -4,4"/>
<!-- Node1 -->
<g id="node1" class="node">
<title>Node1</title>
<g id="a_node1"><a xlink:title="This file is the header file of intermediate processes of finite volume scheme.">
<polygon fill="#bfbfbf" stroke="black" points="791,-89.5 791,-130.5 923,-130.5 923,-89.5 791,-89.5"/>
<text text-anchor="start" x="799" y="-118.5" font-family="Helvetica,sans-Serif" font-size="10.00">/home/leixin/Programs</text>
<text text-anchor="start" x="799" y="-107.5" font-family="Helvetica,sans-Serif" font-size="10.00">/HydroCODE/src/include</text>
<text text-anchor="middle" x="857" y="-96.5" font-family="Helvetica,sans-Serif" font-size="10.00">/inter_process.h</text>
</a>
</g>
</g>
<!-- Node2 -->
<g id="node2" class="node">
<title>Node2</title>
<g id="a_node2"><a xlink:href="../../d6/d0f/_g_r_p__solver__2_d___e_u_l__source_8c.html" target="_top" xlink:title="This is an Eulerian GRP scheme to solve 2&#45;D Euler equations without dimension splitting.">
<polygon fill="white" stroke="black" points="0,-0.5 0,-52.5 136,-52.5 136,-0.5 0,-0.5"/>
<text text-anchor="start" x="8" y="-40.5" font-family="Helvetica,sans-Serif" font-size="10.00">/home/leixin/Programs</text>
<text text-anchor="start" x="8" y="-29.5" font-family="Helvetica,sans-Serif" font-size="10.00">/HydroCODE/src/finite</text>
<text text-anchor="start" x="8" y="-18.5" font-family="Helvetica,sans-Serif" font-size="10.00">_volume/GRP_solver_2D</text>
<text text-anchor="middle" x="68" y="-7.5" font-family="Helvetica,sans-Serif" font-size="10.00">_EUL_source.c</text>
</a>
</g>
</g>
<!-- Node1&#45;&gt;Node2 -->
<g id="edge1" class="edge">
<title>Node1&#45;&gt;Node2</title>
<path fill="none" stroke="midnightblue" d="M780.65,-109C649.4,-107.67 373.1,-99.03 145,-53 142.1,-52.41 139.16,-51.75 136.2,-51.03"/>
<polygon fill="midnightblue" stroke="midnightblue" points="780.96,-112.5 790.99,-109.09 781.02,-105.5 780.96,-112.5"/>
</g>
<!-- Node3 -->
<g id="node3" class="node">
<title>Node3</title>
<g id="a_node3"><a xlink:href="../../dc/d9e/_g_r_p__solver__2_d__split___e_u_l__source_8c.html" target="_top" xlink:title="This is an Eulerian GRP scheme to solve 2&#45;D Euler equations with dimension splitting.">
<polygon fill="white" stroke="black" points="154,-0.5 154,-52.5 290,-52.5 290,-0.5 154,-0.5"/>
<text text-anchor="start" x="162" y="-40.5" font-family="Helvetica,sans-Serif" font-size="10.00">/home/leixin/Programs</text>
<text text-anchor="start" x="162" y="-29.5" font-family="Helvetica,sans-Serif" font-size="10.00">/HydroCODE/src/finite</text>
<text text-anchor="start" x="162" y="-18.5" font-family="Helvetica,sans-Serif" font-size="10.00">_volume/GRP_solver_2D</text>
<text text-anchor="middle" x="222" y="-7.5" font-family="Helvetica,sans-Serif" font-size="10.00">_split_EUL_source.c</text>
</a>
</g>
</g>
<!-- Node1&#45;&gt;Node3 -->
<g id="edge2" class="edge">
<title>Node1&#45;&gt;Node3</title>
<path fill="none" stroke="midnightblue" d="M780.82,-106.65C672.63,-102.12 468.74,-89.16 299,-53 296.11,-52.38 293.17,-51.7 290.22,-50.96"/>
<polygon fill="midnightblue" stroke="midnightblue" points="780.86,-110.15 790.99,-107.06 781.14,-103.16 780.86,-110.15"/>
</g>
<!-- Node4 -->
<g id="node4" class="node">
<title>Node4</title>
<g id="a_node4"><a xlink:href="../../de/de8/_g_r_p__solver___a_l_e__source_8c.html" target="_top" xlink:title="This is an ALE GRP scheme to solve 1&#45;D Euler equations.">
<polygon fill="white" stroke="black" points="308,-0.5 308,-52.5 448,-52.5 448,-0.5 308,-0.5"/>
<text text-anchor="start" x="316" y="-40.5" font-family="Helvetica,sans-Serif" font-size="10.00">/home/leixin/Programs</text>
<text text-anchor="start" x="316" y="-29.5" font-family="Helvetica,sans-Serif" font-size="10.00">/HydroCODE/src/finite</text>
<text text-anchor="start" x="316" y="-18.5" font-family="Helvetica,sans-Serif" font-size="10.00">_volume/GRP_solver_ALE</text>
<text text-anchor="middle" x="378" y="-7.5" font-family="Helvetica,sans-Serif" font-size="10.00">_source.c</text>
</a>
</g>
</g>
<!-- Node1&#45;&gt;Node4 -->
<g id="edge3" class="edge">
<title>Node1&#45;&gt;Node4</title>
<path fill="none" stroke="midnightblue" d="M780.78,-102.29C699.76,-94.24 568.26,-78.54 457,-53 454.05,-52.32 451.05,-51.59 448.04,-50.8"/>
<polygon fill="midnightblue" stroke="midnightblue" points="780.59,-105.79 790.89,-103.28 781.28,-98.82 780.59,-105.79"/>
</g>
<!-- Node5 -->
<g id="node5" class="node">
<title>Node5</title>
<g id="a_node5"><a xlink:href="../../d5/d10/_g_r_p__solver___e_u_l__source_8c.html" target="_top" xlink:title="This is an Eulerian GRP scheme to solve 1&#45;D Euler equations.">
<polygon fill="white" stroke="black" points="466.5,-0.5 466.5,-52.5 607.5,-52.5 607.5,-0.5 466.5,-0.5"/>
<text text-anchor="start" x="474.5" y="-40.5" font-family="Helvetica,sans-Serif" font-size="10.00">/home/leixin/Programs</text>
<text text-anchor="start" x="474.5" y="-29.5" font-family="Helvetica,sans-Serif" font-size="10.00">/HydroCODE/src/finite</text>
<text text-anchor="start" x="474.5" y="-18.5" font-family="Helvetica,sans-Serif" font-size="10.00">_volume/GRP_solver_EUL</text>
<text text-anchor="middle" x="537" y="-7.5" font-family="Helvetica,sans-Serif" font-size="10.00">_source.c</text>
</a>
</g>
</g>
<!-- Node1&#45;&gt;Node5 -->
<g id="edge4" class="edge">
<title>Node1&#45;&gt;Node5</title>
<path fill="none" stroke="midnightblue" d="M780.97,-93.05C733.33,-82.63 670.78,-68.18 616,-53 613.22,-52.23 610.4,-51.43 607.55,-50.6"/>
<polygon fill="midnightblue" stroke="midnightblue" points="780.39,-96.5 790.9,-95.21 781.88,-89.66 780.39,-96.5"/>
</g>
<!-- Node6 -->
<g id="node6" class="node">
<title>Node6</title>
<g id="a_node6"><a xlink:href="../../dd/dd7/_g_r_p__solver___l_a_g__source_8c.html" target="_top" xlink:title="This is a Lagrangian GRP scheme to solve 1&#45;D Euler equations.">
<polygon fill="white" stroke="black" points="625.5,-0.5 625.5,-52.5 768.5,-52.5 768.5,-0.5 625.5,-0.5"/>
<text text-anchor="start" x="633.5" y="-40.5" font-family="Helvetica,sans-Serif" font-size="10.00">/home/leixin/Programs</text>
<text text-anchor="start" x="633.5" y="-29.5" font-family="Helvetica,sans-Serif" font-size="10.00">/HydroCODE/src/finite</text>
<text text-anchor="start" x="633.5" y="-18.5" font-family="Helvetica,sans-Serif" font-size="10.00">_volume/GRP_solver_LAG</text>
<text text-anchor="middle" x="697" y="-7.5" font-family="Helvetica,sans-Serif" font-size="10.00">_source.c</text>
</a>
</g>
</g>
<!-- Node1&#45;&gt;Node6 -->
<g id="edge5" class="edge">
<title>Node1&#45;&gt;Node6</title>
<path fill="none" stroke="midnightblue" d="M809.74,-84.93C789.74,-74.74 766.44,-62.87 746.23,-52.58"/>
<polygon fill="midnightblue" stroke="midnightblue" points="808.18,-88.06 818.68,-89.48 811.35,-81.82 808.18,-88.06"/>
</g>
<!-- Node7 -->
<g id="node7" class="node">
<title>Node7</title>
<g id="a_node7"><a xlink:href="../../d4/da5/_godunov__solver___a_l_e__source_8c.html" target="_top" xlink:title="This is an ALE Godunov scheme to solve 1&#45;D Euler equations.">
<polygon fill="white" stroke="black" points="787,-0.5 787,-52.5 927,-52.5 927,-0.5 787,-0.5"/>
<text text-anchor="start" x="795" y="-40.5" font-family="Helvetica,sans-Serif" font-size="10.00">/home/leixin/Programs</text>
<text text-anchor="start" x="795" y="-29.5" font-family="Helvetica,sans-Serif" font-size="10.00">/HydroCODE/src/finite</text>
<text text-anchor="start" x="795" y="-18.5" font-family="Helvetica,sans-Serif" font-size="10.00">_volume/Godunov_solver</text>
<text text-anchor="middle" x="857" y="-7.5" font-family="Helvetica,sans-Serif" font-size="10.00">_ALE_source.c</text>
</a>
</g>
</g>
<!-- Node1&#45;&gt;Node7 -->
<g id="edge6" class="edge">
<title>Node1&#45;&gt;Node7</title>
<path fill="none" stroke="midnightblue" d="M857,-79.12C857,-70.41 857,-60.99 857,-52.61"/>
<polygon fill="midnightblue" stroke="midnightblue" points="853.5,-79.27 857,-89.27 860.5,-79.27 853.5,-79.27"/>
</g>
<!-- Node8 -->
<g id="node8" class="node">
<title>Node8</title>
<g id="a_node8"><a xlink:href="../../de/dd9/_godunov__solver___e_u_l__source_8c.html" target="_top" xlink:title="This is an Eulerian Godunov scheme to solve 1&#45;D Euler equations.">
<polygon fill="white" stroke="black" points="945,-0.5 945,-52.5 1085,-52.5 1085,-0.5 945,-0.5"/>
<text text-anchor="start" x="953" y="-40.5" font-family="Helvetica,sans-Serif" font-size="10.00">/home/leixin/Programs</text>
<text text-anchor="start" x="953" y="-29.5" font-family="Helvetica,sans-Serif" font-size="10.00">/HydroCODE/src/finite</text>
<text text-anchor="start" x="953" y="-18.5" font-family="Helvetica,sans-Serif" font-size="10.00">_volume/Godunov_solver</text>
<text text-anchor="middle" x="1015" y="-7.5" font-family="Helvetica,sans-Serif" font-size="10.00">_EUL_source.c</text>
</a>
</g>
</g>
<!-- Node1&#45;&gt;Node8 -->
<g id="edge7" class="edge">
<title>Node1&#45;&gt;Node8</title>
<path fill="none" stroke="midnightblue" d="M903.93,-84.79C923.63,-74.63 946.52,-62.82 966.39,-52.58"/>
<polygon fill="midnightblue" stroke="midnightblue" points="902.13,-81.78 894.84,-89.48 905.34,-88 902.13,-81.78"/>
</g>
<!-- Node9 -->
<g id="node9" class="node">
<title>Node9</title>
<g id="a_node9"><a xlink:href="../../dd/d30/_godunov__solver___l_a_g__source_8c.html" target="_top" xlink:title="This is a Lagrangian Godunov scheme to solve 1&#45;D Euler equations.">
<polygon fill="white" stroke="black" points="1103,-0.5 1103,-52.5 1243,-52.5 1243,-0.5 1103,-0.5"/>
<text text-anchor="start" x="1111" y="-40.5" font-family="Helvetica,sans-Serif" font-size="10.00">/home/leixin/Programs</text>
<text text-anchor="start" x="1111" y="-29.5" font-family="Helvetica,sans-Serif" font-size="10.00">/HydroCODE/src/finite</text>
<text text-anchor="start" x="1111" y="-18.5" font-family="Helvetica,sans-Serif" font-size="10.00">_volume/Godunov_solver</text>
<text text-anchor="middle" x="1173" y="-7.5" font-family="Helvetica,sans-Serif" font-size="10.00">_LAG_source.c</text>
</a>
</g>
</g>
<!-- Node1&#45;&gt;Node9 -->
<g id="edge8" class="edge">
<title>Node1&#45;&gt;Node9</title>
<path fill="none" stroke="midnightblue" d="M933.04,-92.66C979.72,-82.23 1040.6,-67.9 1094,-53 1096.92,-52.19 1099.88,-51.33 1102.88,-50.46"/>
<polygon fill="midnightblue" stroke="midnightblue" points="932,-89.31 923,-94.89 933.52,-96.14 932,-89.31"/>
</g>
<!-- Node10 -->
<g id="node10" class="node">
<title>Node10</title>
<g id="a_node10"><a xlink:href="../../df/d13/bound__cond__slope__limiter_8c.html" target="_top" xlink:title="This is a function to set boundary conditions and use the slope limiter in one dimension.">
<polygon fill="white" stroke="black" points="1261,-0.5 1261,-52.5 1413,-52.5 1413,-0.5 1261,-0.5"/>
<text text-anchor="start" x="1269" y="-40.5" font-family="Helvetica,sans-Serif" font-size="10.00">/home/leixin/Programs</text>
<text text-anchor="start" x="1269" y="-29.5" font-family="Helvetica,sans-Serif" font-size="10.00">/HydroCODE/src/inter</text>
<text text-anchor="start" x="1269" y="-18.5" font-family="Helvetica,sans-Serif" font-size="10.00">_process/bound_cond_slope</text>
<text text-anchor="middle" x="1337" y="-7.5" font-family="Helvetica,sans-Serif" font-size="10.00">_limiter.c</text>
</a>
</g>
</g>
<!-- Node1&#45;&gt;Node10 -->
<g id="edge9" class="edge">
<title>Node1&#45;&gt;Node10</title>
<path fill="none" stroke="midnightblue" d="M933.23,-101.64C1013.23,-93.11 1142.36,-77.07 1252,-53 1254.86,-52.37 1257.76,-51.7 1260.69,-50.99"/>
<polygon fill="midnightblue" stroke="midnightblue" points="932.82,-98.16 923.24,-102.69 933.55,-105.12 932.82,-98.16"/>
</g>
<!-- Node11 -->
<g id="node11" class="node">
<title>Node11</title>
<g id="a_node11"><a xlink:href="../../d8/d49/bound__cond__slope__limiter__x_8c.html" target="_top" xlink:title="This is a function to set boundary conditions and use the slope limiter in x&#45;direction of two dimensi...">
<polygon fill="white" stroke="black" points="1431,-0.5 1431,-52.5 1583,-52.5 1583,-0.5 1431,-0.5"/>
<text text-anchor="start" x="1439" y="-40.5" font-family="Helvetica,sans-Serif" font-size="10.00">/home/leixin/Programs</text>
<text text-anchor="start" x="1439" y="-29.5" font-family="Helvetica,sans-Serif" font-size="10.00">/HydroCODE/src/inter</text>
<text text-anchor="start" x="1439" y="-18.5" font-family="Helvetica,sans-Serif" font-size="10.00">_process/bound_cond_slope</text>
<text text-anchor="middle" x="1507" y="-7.5" font-family="Helvetica,sans-Serif" font-size="10.00">_limiter_x.c</text>
</a>
</g>
</g>
<!-- Node1&#45;&gt;Node11 -->
<g id="edge10" class="edge">
<title>Node1&#45;&gt;Node11</title>
<path fill="none" stroke="midnightblue" d="M933.55,-106.09C1042.82,-100.88 1249.4,-87.11 1422,-53 1424.87,-52.43 1427.79,-51.81 1430.72,-51.14"/>
<polygon fill="midnightblue" stroke="midnightblue" points="933.11,-102.61 923.28,-106.57 933.43,-109.6 933.11,-102.61"/>
</g>
<!-- Node12 -->
<g id="node12" class="node">
<title>Node12</title>
<g id="a_node12"><a xlink:href="../../d8/dbb/bound__cond__slope__limiter__y_8c.html" target="_top" xlink:title=" ">
<polygon fill="white" stroke="black" points="1601,-0.5 1601,-52.5 1753,-52.5 1753,-0.5 1601,-0.5"/>
<text text-anchor="start" x="1609" y="-40.5" font-family="Helvetica,sans-Serif" font-size="10.00">/home/leixin/Programs</text>
<text text-anchor="start" x="1609" y="-29.5" font-family="Helvetica,sans-Serif" font-size="10.00">/HydroCODE/src/inter</text>
<text text-anchor="start" x="1609" y="-18.5" font-family="Helvetica,sans-Serif" font-size="10.00">_process/bound_cond_slope</text>
<text text-anchor="middle" x="1677" y="-7.5" font-family="Helvetica,sans-Serif" font-size="10.00">_limiter_y.c</text>
</a>
</g>
</g>
<!-- Node1&#45;&gt;Node12 -->
<g id="edge11" class="edge">
<title>Node1&#45;&gt;Node12</title>
<path fill="none" stroke="midnightblue" d="M933.18,-108.58C1067.42,-106.64 1354.41,-97.15 1592,-53 1594.88,-52.47 1597.8,-51.87 1600.74,-51.22"/>
<polygon fill="midnightblue" stroke="midnightblue" points="932.95,-105.08 923,-108.71 933.05,-112.08 932.95,-105.08"/>
</g>
</g>
</svg>
