<?xml version="1.0" encoding="UTF-8" standalone="no"?>
<!DOCTYPE svg PUBLIC "-//W3C//DTD SVG 1.1//EN"
 "http://www.w3.org/Graphics/SVG/1.1/DTD/svg11.dtd">
<!-- Generated by graphviz version 6.0.1 (0)
 -->
<!-- Title: src~/include/riemann_solver.h Pages: 1 -->
<svg width="897pt" height="117pt"
 viewBox="0.00 0.00 897.00 117.00" xmlns="http://www.w3.org/2000/svg" xmlns:xlink="http://www.w3.org/1999/xlink">
<g id="graph0" class="graph" transform="scale(1 1) rotate(0) translate(4 113)">
<title>src~/include/riemann_solver.h</title>
<polygon fill="white" stroke="none" points="-4,4 -4,-113 893,-113 893,4 -4,4"/>
<!-- Node1 -->
<g id="node1" class="node">
<title>Node1</title>
<g id="a_node1"><a xlink:title="This file is the header file of several Riemann solvers and GRP solvers.">
<polygon fill="#bfbfbf" stroke="black" points="368,-78.5 368,-108.5 489,-108.5 489,-78.5 368,-78.5"/>
<text text-anchor="start" x="376" y="-96.5" font-family="Helvetica,sans-Serif" font-size="10.00">src~/include/riemann</text>
<text text-anchor="middle" x="428.5" y="-85.5" font-family="Helvetica,sans-Serif" font-size="10.00">_solver.h</text>
</a>
</g>
</g>
<!-- Node2 -->
<g id="node2" class="node">
<title>Node2</title>
<g id="a_node2"><a xlink:href="../../d2/d7d/godunov__solver___e_u_l__source_8c.html" target="_top" xlink:title="This is an Eulerian Godunov scheme to solve 1&#45;D Euler equations.">
<polygon fill="white" stroke="black" points="0,-0.5 0,-41.5 121,-41.5 121,-0.5 0,-0.5"/>
<text text-anchor="start" x="8" y="-29.5" font-family="Helvetica,sans-Serif" font-size="10.00">src~/finite_volume</text>
<text text-anchor="start" x="8" y="-18.5" font-family="Helvetica,sans-Serif" font-size="10.00">/godunov_solver_EUL</text>
<text text-anchor="middle" x="60.5" y="-7.5" font-family="Helvetica,sans-Serif" font-size="10.00">_source.c</text>
</a>
</g>
</g>
<!-- Node1&#45;&gt;Node2 -->
<g id="edge1" class="edge">
<title>Node1&#45;&gt;Node2</title>
<path fill="none" stroke="midnightblue" d="M357.67,-82.75C297.02,-73.86 207.54,-59.48 130.5,-42 127.42,-41.3 124.27,-40.55 121.1,-39.76"/>
<polygon fill="midnightblue" stroke="midnightblue" points="357.5,-86.26 367.9,-84.23 358.51,-79.33 357.5,-86.26"/>
</g>
<!-- Node3 -->
<g id="node3" class="node">
<title>Node3</title>
<g id="a_node3"><a xlink:href="../../d2/d2f/godunov__solver___l_a_g__source_8c.html" target="_top" xlink:title="This is a Lagrangian Godunov scheme to solve 1&#45;D Euler equations.">
<polygon fill="white" stroke="black" points="139.5,-0.5 139.5,-41.5 261.5,-41.5 261.5,-0.5 139.5,-0.5"/>
<text text-anchor="start" x="147.5" y="-29.5" font-family="Helvetica,sans-Serif" font-size="10.00">src~/finite_volume</text>
<text text-anchor="start" x="147.5" y="-18.5" font-family="Helvetica,sans-Serif" font-size="10.00">/godunov_solver_LAG</text>
<text text-anchor="middle" x="200.5" y="-7.5" font-family="Helvetica,sans-Serif" font-size="10.00">_source.c</text>
</a>
</g>
</g>
<!-- Node1&#45;&gt;Node3 -->
<g id="edge2" class="edge">
<title>Node1&#45;&gt;Node3</title>
<path fill="none" stroke="midnightblue" d="M373.49,-75.49C339.76,-65.06 296.52,-51.69 261.71,-40.93"/>
<polygon fill="midnightblue" stroke="midnightblue" points="372.59,-78.88 383.18,-78.49 374.66,-72.19 372.59,-78.88"/>
</g>
<!-- Node4 -->
<g id="node4" class="node">
<title>Node4</title>
<g id="a_node4"><a xlink:href="../../d6/d0b/grp__solver___e_u_l__source_8c.html" target="_top" xlink:title="This is an Eulerian GRP scheme to solve 1&#45;D Euler equations.">
<polygon fill="white" stroke="black" points="279.5,-6 279.5,-36 419.5,-36 419.5,-6 279.5,-6"/>
<text text-anchor="start" x="287.5" y="-24" font-family="Helvetica,sans-Serif" font-size="10.00">src~/finite_volume</text>
<text text-anchor="middle" x="349.5" y="-13" font-family="Helvetica,sans-Serif" font-size="10.00">/grp_solver_EUL_source.c</text>
</a>
</g>
</g>
<!-- Node1&#45;&gt;Node4 -->
<g id="edge3" class="edge">
<title>Node1&#45;&gt;Node4</title>
<path fill="none" stroke="midnightblue" d="M404.93,-71.46C392.09,-60 376.55,-46.14 365.19,-36"/>
<polygon fill="midnightblue" stroke="midnightblue" points="402.72,-74.19 412.51,-78.23 407.38,-68.96 402.72,-74.19"/>
</g>
<!-- Node5 -->
<g id="node5" class="node">
<title>Node5</title>
<g id="a_node5"><a xlink:href="../../d6/d4f/grp__solver___l_a_g__source_8c.html" target="_top" xlink:title="This is a Lagrangian GRP scheme to solve 1&#45;D Euler equations.">
<polygon fill="white" stroke="black" points="437.5,-6 437.5,-36 579.5,-36 579.5,-6 437.5,-6"/>
<text text-anchor="start" x="445.5" y="-24" font-family="Helvetica,sans-Serif" font-size="10.00">src~/finite_volume</text>
<text text-anchor="middle" x="508.5" y="-13" font-family="Helvetica,sans-Serif" font-size="10.00">/grp_solver_LAG_source.c</text>
</a>
</g>
</g>
<!-- Node1&#45;&gt;Node5 -->
<g id="edge4" class="edge">
<title>Node1&#45;&gt;Node5</title>
<path fill="none" stroke="midnightblue" d="M452.37,-71.46C465.37,-60 481.11,-46.14 492.61,-36"/>
<polygon fill="midnightblue" stroke="midnightblue" points="449.88,-69 444.69,-78.23 454.51,-74.25 449.88,-69"/>
</g>
<!-- Node6 -->
<g id="node6" class="node">
<title>Node6</title>
<g id="a_node6"><a xlink:href="../../d0/d07/linear__grp__solver___edir_8c.html" target="_top" xlink:title="This is a direct Eulerian GRP solver for compressible inviscid flow in Li&#39;s paper.">
<polygon fill="white" stroke="black" points="597.5,-6 597.5,-36 733.5,-36 733.5,-6 597.5,-6"/>
<text text-anchor="start" x="605.5" y="-24" font-family="Helvetica,sans-Serif" font-size="10.00">src~/riemann_solver</text>
<text text-anchor="middle" x="665.5" y="-13" font-family="Helvetica,sans-Serif" font-size="10.00">/linear_grp_solver_Edir.c</text>
</a>
</g>
</g>
<!-- Node1&#45;&gt;Node6 -->
<g id="edge5" class="edge">
<title>Node1&#45;&gt;Node6</title>
<path fill="none" stroke="midnightblue" d="M485.35,-75.59C525.91,-63.52 579.83,-47.48 618.08,-36.11"/>
<polygon fill="midnightblue" stroke="midnightblue" points="484.19,-72.28 475.61,-78.49 486.19,-78.99 484.19,-72.28"/>
</g>
<!-- Node7 -->
<g id="node7" class="node">
<title>Node7</title>
<g id="a_node7"><a xlink:href="../../d4/d01/linear__grp__solver___l_a_g_8c.html" target="_top" xlink:title="This is a Lagrangian GRP solver for compressible inviscid flow in Ben&#45;Artzi&#39;s paper.">
<polygon fill="white" stroke="black" points="752,-6 752,-36 889,-36 889,-6 752,-6"/>
<text text-anchor="start" x="760" y="-24" font-family="Helvetica,sans-Serif" font-size="10.00">src~/riemann_solver</text>
<text text-anchor="middle" x="820.5" y="-13" font-family="Helvetica,sans-Serif" font-size="10.00">/linear_grp_solver_LAG.c</text>
</a>
</g>
</g>
<!-- Node1&#45;&gt;Node7 -->
<g id="edge6" class="edge">
<title>Node1&#45;&gt;Node7</title>
<path fill="none" stroke="midnightblue" d="M499.25,-83.01C563.12,-73.99 659.51,-59.28 742.5,-42 750.99,-40.23 759.94,-38.15 768.63,-36.01"/>
<polygon fill="midnightblue" stroke="midnightblue" points="498.71,-79.55 489.29,-84.41 499.68,-86.48 498.71,-79.55"/>
</g>
</g>
</svg>
