<?xml version="1.0" encoding="UTF-8" standalone="no"?>
<!DOCTYPE svg PUBLIC "-//W3C//DTD SVG 1.1//EN"
 "http://www.w3.org/Graphics/SVG/1.1/DTD/svg11.dtd">
<!-- Generated by graphviz version 5.0.0 (0)
 -->
<!-- Title: src/tools/sys_pro.c Pages: 1 -->
<svg width="341pt" height="84pt"
 viewBox="0.00 0.00 340.50 84.00" xmlns="http://www.w3.org/2000/svg" xmlns:xlink="http://www.w3.org/1999/xlink">
<g id="graph0" class="graph" transform="scale(1 1) rotate(0) translate(4 80)">
<title>src/tools/sys_pro.c</title>
<polygon fill="white" stroke="transparent" points="-4,4 -4,-80 336.5,-80 336.5,4 -4,4"/>
<!-- Node1 -->
<g id="node1" class="node">
<title>Node1</title>
<g id="a_node1"><a xlink:title="There are some system processing programs.">
<polygon fill="#bfbfbf" stroke="black" points="112.5,-56.5 112.5,-75.5 219.5,-75.5 219.5,-56.5 112.5,-56.5"/>
<text text-anchor="middle" x="166" y="-63.5" font-family="Helvetica,sans-Serif" font-size="10.00">src/tools/sys_pro.c</text>
</a>
</g>
</g>
<!-- Node2 -->
<g id="node2" class="node">
<title>Node2</title>
<g id="a_node2"><a xlink:title=" ">
<polygon fill="white" stroke="#bfbfbf" points="0,-0.5 0,-19.5 50,-19.5 50,-0.5 0,-0.5"/>
<text text-anchor="middle" x="25" y="-7.5" font-family="Helvetica,sans-Serif" font-size="10.00">stdio.h</text>
</a>
</g>
</g>
<!-- Node1&#45;&gt;Node2 -->
<g id="edge1" class="edge">
<title>Node1&#45;&gt;Node2</title>
<path fill="none" stroke="midnightblue" d="M143.66,-56.44C120.25,-47.48 83.26,-33.31 56.81,-23.18"/>
<polygon fill="midnightblue" stroke="midnightblue" points="57.83,-19.82 47.24,-19.52 55.32,-26.36 57.83,-19.82"/>
</g>
<!-- Node3 -->
<g id="node3" class="node">
<title>Node3</title>
<g id="a_node3"><a xlink:title=" ">
<polygon fill="white" stroke="#bfbfbf" points="68.5,-0.5 68.5,-19.5 121.5,-19.5 121.5,-0.5 68.5,-0.5"/>
<text text-anchor="middle" x="95" y="-7.5" font-family="Helvetica,sans-Serif" font-size="10.00">stdlib.h</text>
</a>
</g>
</g>
<!-- Node1&#45;&gt;Node3 -->
<g id="edge2" class="edge">
<title>Node1&#45;&gt;Node3</title>
<path fill="none" stroke="midnightblue" d="M154.59,-56.32C143.89,-48.18 127.66,-35.84 114.84,-26.09"/>
<polygon fill="midnightblue" stroke="midnightblue" points="116.69,-23.1 106.61,-19.83 112.46,-28.67 116.69,-23.1"/>
</g>
<!-- Node4 -->
<g id="node4" class="node">
<title>Node4</title>
<g id="a_node4"><a xlink:title=" ">
<polygon fill="white" stroke="#bfbfbf" points="139.5,-0.5 139.5,-19.5 192.5,-19.5 192.5,-0.5 139.5,-0.5"/>
<text text-anchor="middle" x="166" y="-7.5" font-family="Helvetica,sans-Serif" font-size="10.00">string.h</text>
</a>
</g>
</g>
<!-- Node1&#45;&gt;Node4 -->
<g id="edge3" class="edge">
<title>Node1&#45;&gt;Node4</title>
<path fill="none" stroke="midnightblue" d="M166,-56.08C166,-49.01 166,-38.86 166,-29.99"/>
<polygon fill="midnightblue" stroke="midnightblue" points="169.5,-29.75 166,-19.75 162.5,-29.75 169.5,-29.75"/>
</g>
<!-- Node5 -->
<g id="node5" class="node">
<title>Node5</title>
<g id="a_node5"><a xlink:title=" ">
<polygon fill="white" stroke="#bfbfbf" points="210.5,-0.5 210.5,-19.5 261.5,-19.5 261.5,-0.5 210.5,-0.5"/>
<text text-anchor="middle" x="236" y="-7.5" font-family="Helvetica,sans-Serif" font-size="10.00">math.h</text>
</a>
</g>
</g>
<!-- Node1&#45;&gt;Node5 -->
<g id="edge4" class="edge">
<title>Node1&#45;&gt;Node5</title>
<path fill="none" stroke="midnightblue" d="M177.25,-56.32C187.8,-48.18 203.8,-35.84 216.44,-26.09"/>
<polygon fill="midnightblue" stroke="midnightblue" points="218.77,-28.71 224.55,-19.83 214.49,-23.17 218.77,-28.71"/>
</g>
<!-- Node6 -->
<g id="node6" class="node">
<title>Node6</title>
<g id="a_node6"><a xlink:title=" ">
<polygon fill="white" stroke="#bfbfbf" points="279.5,-0.5 279.5,-19.5 332.5,-19.5 332.5,-0.5 279.5,-0.5"/>
<text text-anchor="middle" x="306" y="-7.5" font-family="Helvetica,sans-Serif" font-size="10.00">limits.h</text>
</a>
</g>
</g>
<!-- Node1&#45;&gt;Node6 -->
<g id="edge5" class="edge">
<title>Node1&#45;&gt;Node6</title>
<path fill="none" stroke="midnightblue" d="M188.18,-56.44C211.43,-47.48 248.15,-33.31 274.42,-23.18"/>
<polygon fill="midnightblue" stroke="midnightblue" points="275.85,-26.38 283.92,-19.52 273.33,-19.85 275.85,-26.38"/>
</g>
</g>
</svg>
