<?xml version="1.0" encoding="UTF-8" standalone="no"?>
<!DOCTYPE svg PUBLIC "-//W3C//DTD SVG 1.1//EN"
 "http://www.w3.org/Graphics/SVG/1.1/DTD/svg11.dtd">
<!-- Generated by graphviz version 6.0.1 (0)
 -->
<!-- Title: src~/include/var_struc.h Pages: 1 -->
<svg width="1870pt" height="173pt"
 viewBox="0.00 0.00 1869.50 173.00" xmlns="http://www.w3.org/2000/svg" xmlns:xlink="http://www.w3.org/1999/xlink">
<g id="graph0" class="graph" transform="scale(1 1) rotate(0) translate(4 169)">
<title>src~/include/var_struc.h</title>
<polygon fill="white" stroke="none" points="-4,4 -4,-169 1865.5,-169 1865.5,4 -4,4"/>
<!-- Node1 -->
<g id="node1" class="node">
<title>Node1</title>
<g id="a_node1"><a xlink:title="This file is the header file of some globally common variables and structural bodies.">
<polygon fill="#bfbfbf" stroke="black" points="937.5,-145.5 937.5,-164.5 1071.5,-164.5 1071.5,-145.5 937.5,-145.5"/>
<text text-anchor="middle" x="1004.5" y="-152.5" font-family="Helvetica,sans-Serif" font-size="10.00">src~/include/var_struc.h</text>
</a>
</g>
</g>
<!-- Node2 -->
<g id="node2" class="node">
<title>Node2</title>
<g id="a_node2"><a xlink:href="../../d2/de0/config__handle_8c.html" target="_top" xlink:title="This is a set of functions which control the read&#45;in of configuration data.">
<polygon fill="white" stroke="black" points="0,-78.5 0,-108.5 105,-108.5 105,-78.5 0,-78.5"/>
<text text-anchor="start" x="8" y="-96.5" font-family="Helvetica,sans-Serif" font-size="10.00">src~/file_io/config</text>
<text text-anchor="middle" x="52.5" y="-85.5" font-family="Helvetica,sans-Serif" font-size="10.00">_handle.c</text>
</a>
</g>
</g>
<!-- Node1&#45;&gt;Node2 -->
<g id="edge1" class="edge">
<title>Node1&#45;&gt;Node2</title>
<path fill="none" stroke="midnightblue" d="M927.04,-154.73C771.97,-155.18 412.7,-151.06 114.5,-109 111.44,-108.57 108.3,-108.06 105.14,-107.49"/>
<polygon fill="midnightblue" stroke="midnightblue" points="927.41,-158.23 937.4,-154.7 927.39,-151.23 927.41,-158.23"/>
</g>
<!-- Node3 -->
<g id="node3" class="node">
<title>Node3</title>
<g id="a_node3"><a xlink:href="../../d9/d89/file__1_d__in_8c.html" target="_top" xlink:title="This is a set of functions which control the read&#45;in of one&#45;dimensional data.">
<polygon fill="white" stroke="black" points="123.5,-84 123.5,-103 255.5,-103 255.5,-84 123.5,-84"/>
<text text-anchor="middle" x="189.5" y="-91" font-family="Helvetica,sans-Serif" font-size="10.00">src~/file_io/file_1D_in.c</text>
</a>
</g>
</g>
<!-- Node1&#45;&gt;Node3 -->
<g id="edge2" class="edge">
<title>Node1&#45;&gt;Node3</title>
<path fill="none" stroke="midnightblue" d="M927.15,-152.61C792.17,-149.44 505,-139.43 264.5,-109 252.79,-107.52 240.16,-105.31 228.66,-103.07"/>
<polygon fill="midnightblue" stroke="midnightblue" points="927.31,-156.11 937.39,-152.84 927.47,-149.11 927.31,-156.11"/>
</g>
<!-- Node4 -->
<g id="node4" class="node">
<title>Node4</title>
<g id="a_node4"><a xlink:href="../../df/d38/file__1_d__out_8c.html" target="_top" xlink:title="This is a set of functions which control the readout of one&#45;dimensional data.">
<polygon fill="white" stroke="black" points="273.5,-78.5 273.5,-108.5 383.5,-108.5 383.5,-78.5 273.5,-78.5"/>
<text text-anchor="start" x="281.5" y="-96.5" font-family="Helvetica,sans-Serif" font-size="10.00">src~/file_io/file_1D</text>
<text text-anchor="middle" x="328.5" y="-85.5" font-family="Helvetica,sans-Serif" font-size="10.00">_out.c</text>
</a>
</g>
</g>
<!-- Node1&#45;&gt;Node4 -->
<g id="edge3" class="edge">
<title>Node1&#45;&gt;Node4</title>
<path fill="none" stroke="midnightblue" d="M926.87,-152C810.28,-148.17 583.26,-137.46 392.5,-109 389.57,-108.56 386.58,-108.07 383.56,-107.52"/>
<polygon fill="midnightblue" stroke="midnightblue" points="927.02,-155.51 937.12,-152.33 927.24,-148.51 927.02,-155.51"/>
</g>
<!-- Node5 -->
<g id="node5" class="node">
<title>Node5</title>
<g id="a_node5"><a xlink:href="../../d4/d39/file__out__hdf5_8c.html" target="_top" xlink:title="This is a set of functions which control the readout of 1&#45;D and 2&#45;D data in HDF5 file format.">
<polygon fill="white" stroke="black" points="401.5,-78.5 401.5,-108.5 513.5,-108.5 513.5,-78.5 401.5,-78.5"/>
<text text-anchor="start" x="409.5" y="-96.5" font-family="Helvetica,sans-Serif" font-size="10.00">src~/file_io/file_out</text>
<text text-anchor="middle" x="457.5" y="-85.5" font-family="Helvetica,sans-Serif" font-size="10.00">_hdf5.c</text>
</a>
</g>
</g>
<!-- Node1&#45;&gt;Node5 -->
<g id="edge4" class="edge">
<title>Node1&#45;&gt;Node5</title>
<path fill="none" stroke="midnightblue" d="M926.95,-149.79C831.4,-143.9 664.28,-131.34 522.5,-109 519.64,-108.55 516.73,-108.05 513.79,-107.51"/>
<polygon fill="midnightblue" stroke="midnightblue" points="926.91,-153.29 937.11,-150.4 927.34,-146.3 926.91,-153.29"/>
</g>
<!-- Node6 -->
<g id="node6" class="node">
<title>Node6</title>
<g id="a_node6"><a xlink:href="../../d4/de5/io__control_8c.html" target="_top" xlink:title="This is a set of common functions which control the input/output data.">
<polygon fill="white" stroke="black" points="532,-84 532,-103 663,-103 663,-84 532,-84"/>
<text text-anchor="middle" x="597.5" y="-91" font-family="Helvetica,sans-Serif" font-size="10.00">src~/file_io/io_control.c</text>
</a>
</g>
</g>
<!-- Node1&#45;&gt;Node6 -->
<g id="edge5" class="edge">
<title>Node1&#45;&gt;Node6</title>
<path fill="none" stroke="midnightblue" d="M927.21,-144.87C859.59,-136.57 758.82,-123.44 671.5,-109 660.91,-107.25 649.51,-105.13 638.91,-103.06"/>
<polygon fill="midnightblue" stroke="midnightblue" points="927,-148.37 937.35,-146.11 927.85,-141.42 927,-148.37"/>
</g>
<!-- Node7 -->
<g id="node7" class="node">
<title>Node7</title>
<g id="a_node7"><a xlink:href="../../d0/d49/terminal__io_8c.html" target="_top" xlink:title="This is a set of common functions for terminal input and output.">
<polygon fill="white" stroke="black" points="681,-84 681,-103 820,-103 820,-84 681,-84"/>
<text text-anchor="middle" x="750.5" y="-91" font-family="Helvetica,sans-Serif" font-size="10.00">src~/file_io/terminal_io.c</text>
</a>
</g>
</g>
<!-- Node1&#45;&gt;Node7 -->
<g id="edge6" class="edge">
<title>Node1&#45;&gt;Node7</title>
<path fill="none" stroke="midnightblue" d="M958.34,-143.19C909.05,-131.64 831.97,-113.58 786.82,-103.01"/>
<polygon fill="midnightblue" stroke="midnightblue" points="957.57,-146.6 968.11,-145.48 959.17,-139.79 957.57,-146.6"/>
</g>
<!-- Node8 -->
<g id="node8" class="node">
<title>Node8</title>
<g id="a_node8"><a xlink:href="../../d2/d7d/godunov__solver___e_u_l__source_8c.html" target="_top" xlink:title="This is an Eulerian Godunov scheme to solve 1&#45;D Euler equations.">
<polygon fill="white" stroke="black" points="606,-0.5 606,-41.5 727,-41.5 727,-0.5 606,-0.5"/>
<text text-anchor="start" x="614" y="-29.5" font-family="Helvetica,sans-Serif" font-size="10.00">src~/finite_volume</text>
<text text-anchor="start" x="614" y="-18.5" font-family="Helvetica,sans-Serif" font-size="10.00">/godunov_solver_EUL</text>
<text text-anchor="middle" x="666.5" y="-7.5" font-family="Helvetica,sans-Serif" font-size="10.00">_source.c</text>
</a>
</g>
</g>
<!-- Node1&#45;&gt;Node8 -->
<g id="edge7" class="edge">
<title>Node1&#45;&gt;Node8</title>
<path fill="none" stroke="midnightblue" d="M970.73,-141.99C947.38,-133.41 915.73,-121.27 888.5,-109 861.14,-96.67 856.09,-89.82 828.5,-78 795.68,-63.93 758.03,-50.75 727.29,-40.71"/>
<polygon fill="midnightblue" stroke="midnightblue" points="969.6,-145.3 980.2,-145.43 972,-138.72 969.6,-145.3"/>
</g>
<!-- Node9 -->
<g id="node9" class="node">
<title>Node9</title>
<g id="a_node9"><a xlink:href="../../d2/d2f/godunov__solver___l_a_g__source_8c.html" target="_top" xlink:title="This is a Lagrangian Godunov scheme to solve 1&#45;D Euler equations.">
<polygon fill="white" stroke="black" points="903.5,-0.5 903.5,-41.5 1025.5,-41.5 1025.5,-0.5 903.5,-0.5"/>
<text text-anchor="start" x="911.5" y="-29.5" font-family="Helvetica,sans-Serif" font-size="10.00">src~/finite_volume</text>
<text text-anchor="start" x="911.5" y="-18.5" font-family="Helvetica,sans-Serif" font-size="10.00">/godunov_solver_LAG</text>
<text text-anchor="middle" x="964.5" y="-7.5" font-family="Helvetica,sans-Serif" font-size="10.00">_source.c</text>
</a>
</g>
</g>
<!-- Node1&#45;&gt;Node9 -->
<g id="edge8" class="edge">
<title>Node1&#45;&gt;Node9</title>
<path fill="none" stroke="midnightblue" d="M975.5,-140.33C963.27,-132.92 950.31,-122.48 943.5,-109 932.57,-87.36 942.76,-59.79 952.39,-41.55"/>
<polygon fill="midnightblue" stroke="midnightblue" points="974.16,-143.59 984.59,-145.41 977.57,-137.48 974.16,-143.59"/>
</g>
<!-- Node10 -->
<g id="node10" class="node">
<title>Node10</title>
<g id="a_node10"><a xlink:href="../../d6/d0b/grp__solver___e_u_l__source_8c.html" target="_top" xlink:title="This is an Eulerian GRP scheme to solve 1&#45;D Euler equations.">
<polygon fill="white" stroke="black" points="745.5,-6 745.5,-36 885.5,-36 885.5,-6 745.5,-6"/>
<text text-anchor="start" x="753.5" y="-24" font-family="Helvetica,sans-Serif" font-size="10.00">src~/finite_volume</text>
<text text-anchor="middle" x="815.5" y="-13" font-family="Helvetica,sans-Serif" font-size="10.00">/grp_solver_EUL_source.c</text>
</a>
</g>
</g>
<!-- Node1&#45;&gt;Node10 -->
<g id="edge9" class="edge">
<title>Node1&#45;&gt;Node10</title>
<path fill="none" stroke="midnightblue" d="M982.19,-139.85C968.59,-131.12 950.91,-119.6 935.5,-109 899.25,-84.06 857.88,-53.62 834.41,-36.16"/>
<polygon fill="midnightblue" stroke="midnightblue" points="980.57,-142.97 990.88,-145.4 984.34,-137.07 980.57,-142.97"/>
</g>
<!-- Node11 -->
<g id="node11" class="node">
<title>Node11</title>
<g id="a_node11"><a xlink:href="../../d6/d4f/grp__solver___l_a_g__source_8c.html" target="_top" xlink:title="This is a Lagrangian GRP scheme to solve 1&#45;D Euler equations.">
<polygon fill="white" stroke="black" points="1043.5,-6 1043.5,-36 1185.5,-36 1185.5,-6 1043.5,-6"/>
<text text-anchor="start" x="1051.5" y="-24" font-family="Helvetica,sans-Serif" font-size="10.00">src~/finite_volume</text>
<text text-anchor="middle" x="1114.5" y="-13" font-family="Helvetica,sans-Serif" font-size="10.00">/grp_solver_LAG_source.c</text>
</a>
</g>
</g>
<!-- Node1&#45;&gt;Node11 -->
<g id="edge10" class="edge">
<title>Node1&#45;&gt;Node11</title>
<path fill="none" stroke="midnightblue" d="M1081.65,-146.43C1130.84,-139.83 1188.14,-128.22 1203.5,-109 1226.03,-80.81 1181.29,-52.38 1147.46,-36.01"/>
<polygon fill="midnightblue" stroke="midnightblue" points="1081.09,-142.98 1071.62,-147.73 1081.98,-149.92 1081.09,-142.98"/>
</g>
<!-- Node12 -->
<g id="node12" class="node">
<title>Node12</title>
<g id="a_node12"><a xlink:href="../../d2/d24/hydrocode_8c.html" target="_top" xlink:title="This is a C file of the main function.">
<polygon fill="white" stroke="black" points="1687.5,-11.5 1687.5,-30.5 1861.5,-30.5 1861.5,-11.5 1687.5,-11.5"/>
<text text-anchor="middle" x="1774.5" y="-18.5" font-family="Helvetica,sans-Serif" font-size="10.00">src~/hydrocode_1D/hydrocode.c</text>
</a>
</g>
</g>
<!-- Node1&#45;&gt;Node12 -->
<g id="edge11" class="edge">
<title>Node1&#45;&gt;Node12</title>
<path fill="none" stroke="midnightblue" d="M1081.86,-152.02C1197.7,-148.15 1410.15,-137.34 1480.5,-109 1501.04,-100.73 1499.5,-87.51 1519.5,-78 1529.17,-73.4 1663.55,-45.07 1733.23,-30.55"/>
<polygon fill="midnightblue" stroke="midnightblue" points="1081.52,-148.52 1071.64,-152.35 1081.75,-155.52 1081.52,-148.52"/>
</g>
<!-- Node13 -->
<g id="node13" class="node">
<title>Node13</title>
<g id="a_node13"><a xlink:href="../../d8/da8/finite__volume_8h.html" target="_top" xlink:title="This file is the header file of Lagrangian/Eulerian hydrocode in finite volume framework.">
<polygon fill="white" stroke="black" points="1365.5,-78.5 1365.5,-108.5 1471.5,-108.5 1471.5,-78.5 1365.5,-78.5"/>
<text text-anchor="start" x="1373.5" y="-96.5" font-family="Helvetica,sans-Serif" font-size="10.00">src~/include/finite</text>
<text text-anchor="middle" x="1418.5" y="-85.5" font-family="Helvetica,sans-Serif" font-size="10.00">_volume.h</text>
</a>
</g>
</g>
<!-- Node1&#45;&gt;Node13 -->
<g id="edge12" class="edge">
<title>Node1&#45;&gt;Node13</title>
<path fill="none" stroke="midnightblue" d="M1081.73,-145.87C1152.23,-138 1259.21,-124.94 1351.5,-109 1355.96,-108.23 1360.57,-107.37 1365.19,-106.46"/>
<polygon fill="midnightblue" stroke="midnightblue" points="1081.15,-142.41 1071.6,-146.99 1081.92,-149.37 1081.15,-142.41"/>
</g>
<!-- Node14 -->
<g id="node14" class="node">
<title>Node14</title>
<g id="a_node14"><a xlink:href="../../d6/d6f/inter__process_8h.html" target="_top" xlink:title="This file is the header file of intermediate processes of finite volume scheme.">
<polygon fill="white" stroke="black" points="953,-78.5 953,-108.5 1056,-108.5 1056,-78.5 953,-78.5"/>
<text text-anchor="start" x="961" y="-96.5" font-family="Helvetica,sans-Serif" font-size="10.00">src~/include/inter</text>
<text text-anchor="middle" x="1004.5" y="-85.5" font-family="Helvetica,sans-Serif" font-size="10.00">_process.h</text>
</a>
</g>
</g>
<!-- Node1&#45;&gt;Node14 -->
<g id="edge14" class="edge">
<title>Node1&#45;&gt;Node14</title>
<path fill="none" stroke="midnightblue" d="M1004.5,-135.23C1004.5,-126.59 1004.5,-116.5 1004.5,-108.52"/>
<polygon fill="midnightblue" stroke="midnightblue" points="1001,-135.48 1004.5,-145.48 1008,-135.48 1001,-135.48"/>
</g>
<!-- Node15 -->
<g id="node15" class="node">
<title>Node15</title>
<g id="a_node15"><a xlink:href="../../df/d13/bound__cond__slope__limiter_8c.html" target="_top" xlink:title="This is a function to set boundary conditions and use the slope limiter in one dimension.">
<polygon fill="white" stroke="black" points="1204,-6 1204,-36 1359,-36 1359,-6 1204,-6"/>
<text text-anchor="start" x="1212" y="-24" font-family="Helvetica,sans-Serif" font-size="10.00">src~/inter_process</text>
<text text-anchor="middle" x="1281.5" y="-13" font-family="Helvetica,sans-Serif" font-size="10.00">/bound_cond_slope_limiter.c</text>
</a>
</g>
</g>
<!-- Node1&#45;&gt;Node15 -->
<g id="edge27" class="edge">
<title>Node1&#45;&gt;Node15</title>
<path fill="none" stroke="midnightblue" d="M1081.72,-151.97C1125.8,-147.56 1180.3,-136.33 1221.5,-109 1248.71,-90.94 1267.09,-55.94 1275.76,-36.28"/>
<polygon fill="midnightblue" stroke="midnightblue" points="1081.26,-148.5 1071.62,-152.88 1081.89,-155.47 1081.26,-148.5"/>
</g>
<!-- Node16 -->
<g id="node16" class="node">
<title>Node16</title>
<g id="a_node16"><a xlink:href="../../df/ded/riemann__solver_8h.html" target="_top" xlink:title="This file is the header file of several Riemann solvers and GRP solvers.">
<polygon fill="white" stroke="black" points="1074,-78.5 1074,-108.5 1195,-108.5 1195,-78.5 1074,-78.5"/>
<text text-anchor="start" x="1082" y="-96.5" font-family="Helvetica,sans-Serif" font-size="10.00">src~/include/riemann</text>
<text text-anchor="middle" x="1134.5" y="-85.5" font-family="Helvetica,sans-Serif" font-size="10.00">_solver.h</text>
</a>
</g>
</g>
<!-- Node1&#45;&gt;Node16 -->
<g id="edge20" class="edge">
<title>Node1&#45;&gt;Node16</title>
<path fill="none" stroke="midnightblue" d="M1032.47,-141.2C1053.47,-131.58 1082.23,-118.42 1103.86,-108.52"/>
<polygon fill="midnightblue" stroke="midnightblue" points="1030.76,-138.13 1023.13,-145.48 1033.68,-144.5 1030.76,-138.13"/>
</g>
<!-- Node17 -->
<g id="node17" class="node">
<title>Node17</title>
<g id="a_node17"><a xlink:href="../../d0/d07/linear__grp__solver___edir_8c.html" target="_top" xlink:title="This is a direct Eulerian GRP solver for compressible inviscid flow in Li&#39;s paper.">
<polygon fill="white" stroke="black" points="1377.5,-6 1377.5,-36 1513.5,-36 1513.5,-6 1377.5,-6"/>
<text text-anchor="start" x="1385.5" y="-24" font-family="Helvetica,sans-Serif" font-size="10.00">src~/riemann_solver</text>
<text text-anchor="middle" x="1445.5" y="-13" font-family="Helvetica,sans-Serif" font-size="10.00">/linear_grp_solver_Edir.c</text>
</a>
</g>
</g>
<!-- Node1&#45;&gt;Node17 -->
<g id="edge30" class="edge">
<title>Node1&#45;&gt;Node17</title>
<path fill="none" stroke="midnightblue" d="M1081.56,-144.84C1130.87,-137.79 1195.81,-126.28 1251.5,-109 1259.85,-106.41 1362.14,-59.98 1414.72,-36.04"/>
<polygon fill="midnightblue" stroke="midnightblue" points="1081.01,-141.38 1071.59,-146.23 1081.98,-148.31 1081.01,-141.38"/>
</g>
<!-- Node18 -->
<g id="node18" class="node">
<title>Node18</title>
<g id="a_node18"><a xlink:href="../../d4/d01/linear__grp__solver___l_a_g_8c.html" target="_top" xlink:title="This is a Lagrangian GRP solver for compressible inviscid flow in Ben&#45;Artzi&#39;s paper.">
<polygon fill="white" stroke="black" points="1532,-6 1532,-36 1669,-36 1669,-6 1532,-6"/>
<text text-anchor="start" x="1540" y="-24" font-family="Helvetica,sans-Serif" font-size="10.00">src~/riemann_solver</text>
<text text-anchor="middle" x="1600.5" y="-13" font-family="Helvetica,sans-Serif" font-size="10.00">/linear_grp_solver_LAG.c</text>
</a>
</g>
</g>
<!-- Node1&#45;&gt;Node18 -->
<g id="edge31" class="edge">
<title>Node1&#45;&gt;Node18</title>
<path fill="none" stroke="midnightblue" d="M1081.91,-149.54C1142.44,-144.31 1228.02,-133.06 1299.5,-109 1326.83,-99.8 1329.47,-88.05 1356.5,-78 1427.26,-51.7 1449.03,-59.38 1522.5,-42 1530.39,-40.13 1538.71,-38.09 1546.86,-36.04"/>
<polygon fill="midnightblue" stroke="midnightblue" points="1081.34,-146.07 1071.67,-150.39 1081.92,-153.05 1081.34,-146.07"/>
</g>
<!-- Node19 -->
<g id="node19" class="node">
<title>Node19</title>
<g id="a_node19"><a xlink:href="../../d7/d5a/fluid__var__check_8c.html" target="_top" xlink:title="There are some functions to check whether fluid variables are within the value range.">
<polygon fill="white" stroke="black" points="1528,-78.5 1528,-108.5 1635,-108.5 1635,-78.5 1528,-78.5"/>
<text text-anchor="start" x="1536" y="-96.5" font-family="Helvetica,sans-Serif" font-size="10.00">src~/inter_process</text>
<text text-anchor="middle" x="1581.5" y="-85.5" font-family="Helvetica,sans-Serif" font-size="10.00">/fluid_var_check.c</text>
</a>
</g>
</g>
<!-- Node1&#45;&gt;Node19 -->
<g id="edge28" class="edge">
<title>Node1&#45;&gt;Node19</title>
<path fill="none" stroke="midnightblue" d="M1081.52,-150.12C1181.52,-144.42 1361.26,-131.87 1513.5,-109 1518.16,-108.3 1522.97,-107.48 1527.79,-106.59"/>
<polygon fill="midnightblue" stroke="midnightblue" points="1081.29,-146.63 1071.51,-150.68 1081.69,-153.62 1081.29,-146.63"/>
</g>
<!-- Node20 -->
<g id="node20" class="node">
<title>Node20</title>
<g id="a_node20"><a xlink:href="../../d2/d49/slope__limiter_8c.html" target="_top" xlink:title="This is a function of the minmod slope limiter in one dimension.">
<polygon fill="white" stroke="black" points="1653,-78.5 1653,-108.5 1760,-108.5 1760,-78.5 1653,-78.5"/>
<text text-anchor="start" x="1661" y="-96.5" font-family="Helvetica,sans-Serif" font-size="10.00">src~/inter_process</text>
<text text-anchor="middle" x="1706.5" y="-85.5" font-family="Helvetica,sans-Serif" font-size="10.00">/slope_limiter.c</text>
</a>
</g>
</g>
<!-- Node1&#45;&gt;Node20 -->
<g id="edge29" class="edge">
<title>Node1&#45;&gt;Node20</title>
<path fill="none" stroke="midnightblue" d="M1081.94,-152.53C1202.73,-149.35 1443.04,-139.44 1644.5,-109 1647.23,-108.59 1650.02,-108.12 1652.83,-107.6"/>
<polygon fill="midnightblue" stroke="midnightblue" points="1081.59,-149.04 1071.69,-152.8 1081.77,-156.04 1081.59,-149.04"/>
</g>
<!-- Node13&#45;&gt;Node12 -->
<g id="edge13" class="edge">
<title>Node13&#45;&gt;Node12</title>
<path fill="none" stroke="midnightblue" d="M1481.62,-78.79C1482.93,-78.52 1484.22,-78.26 1485.5,-78 1571.04,-60.77 1592.89,-58.9 1678.5,-42 1696.87,-38.37 1717.18,-34.17 1734.37,-30.56"/>
<polygon fill="midnightblue" stroke="midnightblue" points="1480.58,-75.43 1471.5,-80.88 1482,-82.28 1480.58,-75.43"/>
</g>
<!-- Node14&#45;&gt;Node8 -->
<g id="edge15" class="edge">
<title>Node14&#45;&gt;Node8</title>
<path fill="none" stroke="midnightblue" d="M942.63,-82.51C888.09,-73.3 806.62,-58.59 736.5,-42 733.43,-41.27 730.28,-40.5 727.12,-39.69"/>
<polygon fill="midnightblue" stroke="midnightblue" points="942.38,-86.01 952.83,-84.22 943.54,-79.11 942.38,-86.01"/>
</g>
<!-- Node14&#45;&gt;Node9 -->
<g id="edge16" class="edge">
<title>Node14&#45;&gt;Node9</title>
<path fill="none" stroke="midnightblue" d="M991.4,-69.41C986.3,-60.42 980.51,-50.22 975.61,-41.59"/>
<polygon fill="midnightblue" stroke="midnightblue" points="988.43,-71.26 996.41,-78.23 994.51,-67.81 988.43,-71.26"/>
</g>
<!-- Node14&#45;&gt;Node10 -->
<g id="edge17" class="edge">
<title>Node14&#45;&gt;Node10</title>
<path fill="none" stroke="midnightblue" d="M957.08,-74.81C924.95,-62.83 883.08,-47.21 853.23,-36.07"/>
<polygon fill="midnightblue" stroke="midnightblue" points="956.11,-78.19 966.71,-78.4 958.56,-71.63 956.11,-78.19"/>
</g>
<!-- Node14&#45;&gt;Node11 -->
<g id="edge18" class="edge">
<title>Node14&#45;&gt;Node11</title>
<path fill="none" stroke="midnightblue" d="M1035.05,-72.92C1053.3,-61.22 1076.06,-46.63 1092.54,-36.07"/>
<polygon fill="midnightblue" stroke="midnightblue" points="1033.03,-70.06 1026.5,-78.4 1036.8,-75.95 1033.03,-70.06"/>
</g>
<!-- Node14&#45;&gt;Node15 -->
<g id="edge19" class="edge">
<title>Node14&#45;&gt;Node15</title>
<path fill="none" stroke="midnightblue" d="M1066.22,-76.79C1114.13,-64.6 1179.97,-47.84 1226.18,-36.08"/>
<polygon fill="midnightblue" stroke="midnightblue" points="1065.1,-73.46 1056.28,-79.32 1066.83,-80.25 1065.1,-73.46"/>
</g>
<!-- Node16&#45;&gt;Node8 -->
<g id="edge21" class="edge">
<title>Node16&#45;&gt;Node8</title>
<path fill="none" stroke="midnightblue" d="M1063.64,-77.98C917.83,-55.76 877.18,-69.61 736.5,-42 733.4,-41.39 730.24,-40.71 727.05,-39.98"/>
<polygon fill="midnightblue" stroke="midnightblue" points="1063.44,-81.49 1073.86,-79.57 1064.52,-74.58 1063.44,-81.49"/>
</g>
<!-- Node16&#45;&gt;Node9 -->
<g id="edge22" class="edge">
<title>Node16&#45;&gt;Node9</title>
<path fill="none" stroke="midnightblue" d="M1091.17,-74.53C1066.87,-64.45 1036.53,-51.87 1011.63,-41.55"/>
<polygon fill="midnightblue" stroke="midnightblue" points="1089.93,-77.8 1100.51,-78.4 1092.61,-71.34 1089.93,-77.8"/>
</g>
<!-- Node16&#45;&gt;Node10 -->
<g id="edge23" class="edge">
<title>Node16&#45;&gt;Node10</title>
<path fill="none" stroke="midnightblue" d="M1063.76,-77.77C999.04,-64.26 910.94,-45.81 894.5,-42 886.51,-40.15 878.08,-38.11 869.83,-36.06"/>
<polygon fill="midnightblue" stroke="midnightblue" points="1063.42,-81.27 1073.93,-79.89 1064.85,-74.42 1063.42,-81.27"/>
</g>
<!-- Node16&#45;&gt;Node11 -->
<g id="edge24" class="edge">
<title>Node16&#45;&gt;Node11</title>
<path fill="none" stroke="midnightblue" d="M1127.71,-68.56C1124.66,-57.82 1121.17,-45.51 1118.54,-36.25"/>
<polygon fill="midnightblue" stroke="midnightblue" points="1124.36,-69.57 1130.45,-78.23 1131.09,-67.66 1124.36,-69.57"/>
</g>
<!-- Node16&#45;&gt;Node17 -->
<g id="edge25" class="edge">
<title>Node16&#45;&gt;Node17</title>
<path fill="none" stroke="midnightblue" d="M1205.4,-77.86C1251.65,-68.13 1313.27,-54.82 1367.5,-42 1375.39,-40.13 1383.71,-38.09 1391.86,-36.04"/>
<polygon fill="midnightblue" stroke="midnightblue" points="1204.54,-74.46 1195.47,-79.94 1205.98,-81.31 1204.54,-74.46"/>
</g>
<!-- Node16&#45;&gt;Node18 -->
<g id="edge26" class="edge">
<title>Node16&#45;&gt;Node18</title>
<path fill="none" stroke="midnightblue" d="M1205.22,-85.9C1283.31,-78.02 1412.54,-63.17 1522.5,-42 1531.29,-40.31 1540.55,-38.21 1549.51,-36.02"/>
<polygon fill="midnightblue" stroke="midnightblue" points="1204.62,-82.45 1195.02,-86.93 1205.32,-89.41 1204.62,-82.45"/>
</g>
</g>
</svg>
