<?xml version="1.0" encoding="UTF-8" standalone="no"?>
<!DOCTYPE svg PUBLIC "-//W3C//DTD SVG 1.1//EN"
 "http://www.w3.org/Graphics/SVG/1.1/DTD/svg11.dtd">
<!-- Generated by graphviz version 5.0.0 (0)
 -->
<!-- Title: main Pages: 1 -->
<svg width="394pt" height="104pt"
 viewBox="0.00 0.00 394.00 104.00" xmlns="http://www.w3.org/2000/svg" xmlns:xlink="http://www.w3.org/1999/xlink">
<g id="graph0" class="graph" transform="scale(1 1) rotate(0) translate(4 100)">
<title>main</title>
<polygon fill="white" stroke="transparent" points="-4,4 -4,-100 390,-100 390,4 -4,4"/>
<!-- Node1 -->
<g id="node1" class="node">
<title>Node1</title>
<g id="a_node1"><a xlink:title="This is the main function which constructs the main structure of the Lagrangian/Eulerian hydrocode.">
<polygon fill="#bfbfbf" stroke="black" points="0,-19.5 0,-38.5 41,-38.5 41,-19.5 0,-19.5"/>
<text text-anchor="middle" x="20.5" y="-26.5" font-family="Helvetica,sans-Serif" font-size="10.00">main</text>
</a>
</g>
</g>
<!-- Node2 -->
<g id="node2" class="node">
<title>Node2</title>
<g id="a_node2"><a xlink:href="../../dd/d92/__1_d__file__in_8c.html#ac488f20dece96d36772ef580e4de334e" target="_top" xlink:title="This function reads the 1&#45;D initial data file of velocity/pressure/density.">
<polygon fill="white" stroke="black" points="77,-19.5 77,-38.5 160,-38.5 160,-19.5 77,-19.5"/>
<text text-anchor="middle" x="118.5" y="-26.5" font-family="Helvetica,sans-Serif" font-size="10.00">_1D_initialize</text>
</a>
</g>
</g>
<!-- Node1&#45;&gt;Node2 -->
<g id="edge1" class="edge">
<title>Node1&#45;&gt;Node2</title>
<path fill="none" stroke="midnightblue" d="M41.39,-29C48.81,-29 57.62,-29 66.56,-29"/>
<polygon fill="midnightblue" stroke="midnightblue" points="66.65,-32.5 76.65,-29 66.65,-25.5 66.65,-32.5"/>
</g>
<!-- Node3 -->
<g id="node3" class="node">
<title>Node3</title>
<g id="a_node3"><a xlink:href="../../d2/de0/config__handle_8c.html#a4b15e37e2922cce20bf5cc8bb6e80c9a" target="_top" xlink:title="This function controls configuration data reading and validation.">
<polygon fill="white" stroke="black" points="197,-38.5 197,-57.5 269,-57.5 269,-38.5 197,-38.5"/>
<text text-anchor="middle" x="233" y="-45.5" font-family="Helvetica,sans-Serif" font-size="10.00">configurate</text>
</a>
</g>
</g>
<!-- Node2&#45;&gt;Node3 -->
<g id="edge2" class="edge">
<title>Node2&#45;&gt;Node3</title>
<path fill="none" stroke="midnightblue" d="M160.12,-35.86C168.71,-37.31 177.83,-38.85 186.59,-40.33"/>
<polygon fill="midnightblue" stroke="midnightblue" points="186.21,-43.82 196.66,-42.03 187.38,-36.91 186.21,-43.82"/>
</g>
<!-- Node6 -->
<g id="node6" class="node">
<title>Node6</title>
<g id="a_node6"><a xlink:href="../../d4/de5/io__control_8c.html#a7e039d23ca87a439fbe9c9d336447887" target="_top" xlink:title="This function produces folder path for data input or output.">
<polygon fill="white" stroke="black" points="196,-0.5 196,-19.5 270,-19.5 270,-0.5 196,-0.5"/>
<text text-anchor="middle" x="233" y="-7.5" font-family="Helvetica,sans-Serif" font-size="10.00">example_io</text>
</a>
</g>
</g>
<!-- Node2&#45;&gt;Node6 -->
<g id="edge5" class="edge">
<title>Node2&#45;&gt;Node6</title>
<path fill="none" stroke="midnightblue" d="M160.12,-22.14C168.53,-20.72 177.45,-19.21 186.04,-17.76"/>
<polygon fill="midnightblue" stroke="midnightblue" points="186.64,-21.21 195.92,-16.09 185.48,-14.31 186.64,-21.21"/>
</g>
<!-- Node4 -->
<g id="node4" class="node">
<title>Node4</title>
<g id="a_node4"><a xlink:href="../../d2/de0/config__handle_8c.html#a4b379c084f41490473f80792af24e0c7" target="_top" xlink:title="This function check whether the configuration data is reasonable and set the default.">
<polygon fill="white" stroke="black" points="306,-76.5 306,-95.5 386,-95.5 386,-76.5 306,-76.5"/>
<text text-anchor="middle" x="346" y="-83.5" font-family="Helvetica,sans-Serif" font-size="10.00">config_check</text>
</a>
</g>
</g>
<!-- Node3&#45;&gt;Node4 -->
<g id="edge3" class="edge">
<title>Node3&#45;&gt;Node4</title>
<path fill="none" stroke="midnightblue" d="M262.01,-57.59C275.68,-62.27 292.33,-67.97 307.12,-73.03"/>
<polygon fill="midnightblue" stroke="midnightblue" points="306.4,-76.49 317,-76.41 308.67,-69.86 306.4,-76.49"/>
</g>
<!-- Node5 -->
<g id="node5" class="node">
<title>Node5</title>
<g id="a_node5"><a xlink:href="../../d2/de0/config__handle_8c.html#a482404d20045a8a5f48b5ee425a04259" target="_top" xlink:title="This function read the configuration data file, and store the configuration data in the array &quot;config...">
<polygon fill="white" stroke="black" points="309,-38.5 309,-57.5 383,-57.5 383,-38.5 309,-38.5"/>
<text text-anchor="middle" x="346" y="-45.5" font-family="Helvetica,sans-Serif" font-size="10.00">config_read</text>
</a>
</g>
</g>
<!-- Node3&#45;&gt;Node5 -->
<g id="edge4" class="edge">
<title>Node3&#45;&gt;Node5</title>
<path fill="none" stroke="midnightblue" d="M269.12,-48C278.55,-48 288.89,-48 298.82,-48"/>
<polygon fill="midnightblue" stroke="midnightblue" points="298.96,-51.5 308.96,-48 298.96,-44.5 298.96,-51.5"/>
</g>
<!-- Node7 -->
<g id="node7" class="node">
<title>Node7</title>
<g id="a_node7"><a xlink:href="../../d4/ddd/sys__pro_8c.html#a40a5faeb19b1fd9aec2c5c10a87faeb4" target="_top" xlink:title="This is a function that recursively creates folders.">
<polygon fill="white" stroke="black" points="314.5,-0.5 314.5,-19.5 377.5,-19.5 377.5,-0.5 314.5,-0.5"/>
<text text-anchor="middle" x="346" y="-7.5" font-family="Helvetica,sans-Serif" font-size="10.00">CreateDir</text>
</a>
</g>
</g>
<!-- Node6&#45;&gt;Node7 -->
<g id="edge6" class="edge">
<title>Node6&#45;&gt;Node7</title>
<path fill="none" stroke="midnightblue" d="M270.04,-10C280.99,-10 293.1,-10 304.34,-10"/>
<polygon fill="midnightblue" stroke="midnightblue" points="304.35,-13.5 314.35,-10 304.35,-6.5 304.35,-13.5"/>
</g>
</g>
</svg>
