<?xml version="1.0" encoding="UTF-8" standalone="no"?>
<!DOCTYPE svg PUBLIC "-//W3C//DTD SVG 1.1//EN"
 "http://www.w3.org/Graphics/SVG/1.1/DTD/svg11.dtd">
<!-- Generated by graphviz version 6.0.1 (0)
 -->
<!-- Title: src~/file_io/file_1D_out.c Pages: 1 -->
<svg width="594pt" height="95pt"
 viewBox="0.00 0.00 594.00 95.00" xmlns="http://www.w3.org/2000/svg" xmlns:xlink="http://www.w3.org/1999/xlink">
<g id="graph0" class="graph" transform="scale(1 1) rotate(0) translate(4 91)">
<title>src~/file_io/file_1D_out.c</title>
<polygon fill="white" stroke="none" points="-4,4 -4,-91 590,-91 590,4 -4,4"/>
<!-- Node1 -->
<g id="node1" class="node">
<title>Node1</title>
<g id="a_node1"><a xlink:title="This is a set of functions which control the readout of one&#45;dimensional data.">
<polygon fill="#bfbfbf" stroke="black" points="180.5,-56.5 180.5,-86.5 290.5,-86.5 290.5,-56.5 180.5,-56.5"/>
<text text-anchor="start" x="188.5" y="-74.5" font-family="Helvetica,sans-Serif" font-size="10.00">src~/file_io/file_1D</text>
<text text-anchor="middle" x="235.5" y="-63.5" font-family="Helvetica,sans-Serif" font-size="10.00">_out.c</text>
</a>
</g>
</g>
<!-- Node2 -->
<g id="node2" class="node">
<title>Node2</title>
<g id="a_node2"><a xlink:title=" ">
<polygon fill="white" stroke="#bfbfbf" points="0,-0.5 0,-19.5 51,-19.5 51,-0.5 0,-0.5"/>
<text text-anchor="middle" x="25.5" y="-7.5" font-family="Helvetica,sans-Serif" font-size="10.00">math.h</text>
</a>
</g>
</g>
<!-- Node1&#45;&gt;Node2 -->
<g id="edge1" class="edge">
<title>Node1&#45;&gt;Node2</title>
<path fill="none" stroke="midnightblue" d="M186,-56.47C147.65,-45.61 95.43,-30.81 61.12,-21.09"/>
<polygon fill="midnightblue" stroke="midnightblue" points="61.65,-17.61 51.08,-18.25 59.74,-24.34 61.65,-17.61"/>
</g>
<!-- Node3 -->
<g id="node3" class="node">
<title>Node3</title>
<g id="a_node3"><a xlink:title=" ">
<polygon fill="white" stroke="#bfbfbf" points="69,-0.5 69,-19.5 122,-19.5 122,-0.5 69,-0.5"/>
<text text-anchor="middle" x="95.5" y="-7.5" font-family="Helvetica,sans-Serif" font-size="10.00">string.h</text>
</a>
</g>
</g>
<!-- Node1&#45;&gt;Node3 -->
<g id="edge2" class="edge">
<title>Node1&#45;&gt;Node3</title>
<path fill="none" stroke="midnightblue" d="M202.32,-56.4C178.94,-46.46 147.89,-33.26 125.29,-23.66"/>
<polygon fill="midnightblue" stroke="midnightblue" points="126.44,-20.35 115.87,-19.66 123.71,-26.79 126.44,-20.35"/>
</g>
<!-- Node4 -->
<g id="node4" class="node">
<title>Node4</title>
<g id="a_node4"><a xlink:title=" ">
<polygon fill="white" stroke="#bfbfbf" points="140.5,-0.5 140.5,-19.5 190.5,-19.5 190.5,-0.5 140.5,-0.5"/>
<text text-anchor="middle" x="165.5" y="-7.5" font-family="Helvetica,sans-Serif" font-size="10.00">stdio.h</text>
</a>
</g>
</g>
<!-- Node1&#45;&gt;Node4 -->
<g id="edge3" class="edge">
<title>Node1&#45;&gt;Node4</title>
<path fill="none" stroke="midnightblue" d="M218.91,-56.4C208.21,-47.31 194.31,-35.49 183.37,-26.19"/>
<polygon fill="midnightblue" stroke="midnightblue" points="185.57,-23.47 175.69,-19.66 181.04,-28.8 185.57,-23.47"/>
</g>
<!-- Node5 -->
<g id="node5" class="node">
<title>Node5</title>
<g id="a_node5"><a xlink:title=" ">
<polygon fill="white" stroke="#bfbfbf" points="209,-0.5 209,-19.5 262,-19.5 262,-0.5 209,-0.5"/>
<text text-anchor="middle" x="235.5" y="-7.5" font-family="Helvetica,sans-Serif" font-size="10.00">stdlib.h</text>
</a>
</g>
</g>
<!-- Node1&#45;&gt;Node5 -->
<g id="edge4" class="edge">
<title>Node1&#45;&gt;Node5</title>
<path fill="none" stroke="midnightblue" d="M235.5,-56.4C235.5,-48.47 235.5,-38.46 235.5,-29.86"/>
<polygon fill="midnightblue" stroke="midnightblue" points="239,-29.66 235.5,-19.66 232,-29.66 239,-29.66"/>
</g>
<!-- Node6 -->
<g id="node6" class="node">
<title>Node6</title>
<g id="a_node6"><a xlink:title=" ">
<polygon fill="white" stroke="#bfbfbf" points="280.5,-0.5 280.5,-19.5 328.5,-19.5 328.5,-0.5 280.5,-0.5"/>
<text text-anchor="middle" x="304.5" y="-7.5" font-family="Helvetica,sans-Serif" font-size="10.00">time.h</text>
</a>
</g>
</g>
<!-- Node1&#45;&gt;Node6 -->
<g id="edge5" class="edge">
<title>Node1&#45;&gt;Node6</title>
<path fill="none" stroke="midnightblue" d="M251.85,-56.4C262.4,-47.31 276.1,-35.49 286.88,-26.19"/>
<polygon fill="midnightblue" stroke="midnightblue" points="289.17,-28.84 294.46,-19.66 284.6,-23.54 289.17,-28.84"/>
</g>
<!-- Node7 -->
<g id="node7" class="node">
<title>Node7</title>
<g id="a_node7"><a xlink:href="../../da/d1e/var__struc_8h.html" target="_top" xlink:title="This file is the header file of some globally common variables and structural bodies.">
<polygon fill="white" stroke="black" points="346.5,-0.5 346.5,-19.5 464.5,-19.5 464.5,-0.5 346.5,-0.5"/>
<text text-anchor="middle" x="405.5" y="-7.5" font-family="Helvetica,sans-Serif" font-size="10.00">../include/var_struc.h</text>
</a>
</g>
</g>
<!-- Node1&#45;&gt;Node7 -->
<g id="edge6" class="edge">
<title>Node1&#45;&gt;Node7</title>
<path fill="none" stroke="midnightblue" d="M275.79,-56.4C304.82,-46.24 343.58,-32.67 371.15,-23.02"/>
<polygon fill="midnightblue" stroke="midnightblue" points="372.48,-26.26 380.76,-19.66 370.17,-19.66 372.48,-26.26"/>
</g>
<!-- Node8 -->
<g id="node8" class="node">
<title>Node8</title>
<g id="a_node8"><a xlink:href="../../db/db8/file__io_8h.html" target="_top" xlink:title="This file is the header file that controls data input and output.">
<polygon fill="white" stroke="black" points="483,-0.5 483,-19.5 586,-19.5 586,-0.5 483,-0.5"/>
<text text-anchor="middle" x="534.5" y="-7.5" font-family="Helvetica,sans-Serif" font-size="10.00">../include/file_io.h</text>
</a>
</g>
</g>
<!-- Node1&#45;&gt;Node8 -->
<g id="edge7" class="edge">
<title>Node1&#45;&gt;Node8</title>
<path fill="none" stroke="midnightblue" d="M290.69,-59.52C345.22,-48.67 428.05,-32.18 481.73,-21.5"/>
<polygon fill="midnightblue" stroke="midnightblue" points="482.6,-24.9 491.73,-19.51 481.23,-18.03 482.6,-24.9"/>
</g>
</g>
</svg>
