<?xml version="1.0" encoding="UTF-8" standalone="no"?>
<!DOCTYPE svg PUBLIC "-//W3C//DTD SVG 1.1//EN"
 "http://www.w3.org/Graphics/SVG/1.1/DTD/svg11.dtd">
<!-- Generated by graphviz version 5.0.0 (0)
 -->
<!-- Title: main Pages: 1 -->
<svg width="503pt" height="279pt"
 viewBox="0.00 0.00 503.00 279.00" xmlns="http://www.w3.org/2000/svg" xmlns:xlink="http://www.w3.org/1999/xlink">
<g id="graph0" class="graph" transform="scale(1 1) rotate(0) translate(4 275)">
<title>main</title>
<polygon fill="white" stroke="transparent" points="-4,4 -4,-275 499,-275 499,4 -4,4"/>
<!-- Node1 -->
<g id="node1" class="node">
<title>Node1</title>
<g id="a_node1"><a xlink:title="This is the main function which constructs the main structure of the Lagrangian/Eulerian hydrocode.">
<polygon fill="#bfbfbf" stroke="black" points="0,-144.5 0,-163.5 41,-163.5 41,-144.5 0,-144.5"/>
<text text-anchor="middle" x="20.5" y="-151.5" font-family="Helvetica,sans-Serif" font-size="10.00">main</text>
</a>
</g>
</g>
<!-- Node2 -->
<g id="node2" class="node">
<title>Node2</title>
<g id="a_node2"><a xlink:href="../../db/db6/__1_d__file__out_8c.html#a7659fc899bf51ebd9d29facdc992bad6" target="_top" xlink:title="This function write the solution into output files.">
<polygon fill="white" stroke="black" points="101.5,-251.5 101.5,-270.5 187.5,-270.5 187.5,-251.5 101.5,-251.5"/>
<text text-anchor="middle" x="144.5" y="-258.5" font-family="Helvetica,sans-Serif" font-size="10.00">_1D_file_write</text>
</a>
</g>
</g>
<!-- Node1&#45;&gt;Node2 -->
<g id="edge1" class="edge">
<title>Node1&#45;&gt;Node2</title>
<path fill="none" stroke="midnightblue" d="M24.86,-163.57C31.73,-181.69 49.11,-221.09 77,-242 81.44,-245.33 86.45,-248.08 91.68,-250.34"/>
<polygon fill="midnightblue" stroke="midnightblue" points="90.65,-253.7 101.24,-253.93 93.1,-247.14 90.65,-253.7"/>
</g>
<!-- Node5 -->
<g id="node5" class="node">
<title>Node5</title>
<g id="a_node5"><a xlink:href="../../dd/d92/__1_d__file__in_8c.html#a1f8819303b1d8d11879aed890bc0f29e" target="_top" xlink:title="This function reads the 1D initial data file of velocity/pressure/density.">
<polygon fill="white" stroke="black" points="103,-213.5 103,-232.5 186,-232.5 186,-213.5 103,-213.5"/>
<text text-anchor="middle" x="144.5" y="-220.5" font-family="Helvetica,sans-Serif" font-size="10.00">_1D_initialize</text>
</a>
</g>
</g>
<!-- Node1&#45;&gt;Node5 -->
<g id="edge4" class="edge">
<title>Node1&#45;&gt;Node5</title>
<path fill="none" stroke="midnightblue" d="M29.55,-163.52C39.57,-174.77 57.71,-193.32 77,-204 82.11,-206.83 87.69,-209.27 93.36,-211.37"/>
<polygon fill="midnightblue" stroke="midnightblue" points="92.35,-214.72 102.94,-214.59 94.58,-208.09 92.35,-214.72"/>
</g>
<!-- Node9 -->
<g id="node9" class="node">
<title>Node9</title>
<g id="a_node9"><a xlink:href="../../de/dd9/_godunov__solver___e_u_l__source_8c.html#a7a5600b4b1867dfab2806557068047ae" target="_top" xlink:title="This function use Godunov scheme to solve 1&#45;D Euler equations of motion on Eulerian coordinate.">
<polygon fill="white" stroke="black" points="85,-164 85,-194 204,-194 204,-164 85,-164"/>
<text text-anchor="start" x="93" y="-182" font-family="Helvetica,sans-Serif" font-size="10.00">Godunov_solver_EUL</text>
<text text-anchor="middle" x="144.5" y="-171" font-family="Helvetica,sans-Serif" font-size="10.00">_source</text>
</a>
</g>
</g>
<!-- Node1&#45;&gt;Node9 -->
<g id="edge9" class="edge">
<title>Node1&#45;&gt;Node9</title>
<path fill="none" stroke="midnightblue" d="M41.1,-158.02C50.56,-159.96 62.54,-162.41 74.94,-164.95"/>
<polygon fill="midnightblue" stroke="midnightblue" points="74.43,-168.42 84.93,-167 75.84,-161.56 74.43,-168.42"/>
</g>
<!-- Node12 -->
<g id="node12" class="node">
<title>Node12</title>
<g id="a_node12"><a xlink:href="../../dd/d30/_godunov__solver___l_a_g__source_8c.html#a7f2cba6118dbc52caf44008c6b61335a" target="_top" xlink:title="This function use Godunov scheme to solve 1&#45;D Euler equations of motion on Lagrangian coordinate.">
<polygon fill="white" stroke="black" points="84,-115 84,-145 205,-145 205,-115 84,-115"/>
<text text-anchor="start" x="92" y="-133" font-family="Helvetica,sans-Serif" font-size="10.00">Godunov_solver_LAG</text>
<text text-anchor="middle" x="144.5" y="-122" font-family="Helvetica,sans-Serif" font-size="10.00">_source</text>
</a>
</g>
</g>
<!-- Node1&#45;&gt;Node12 -->
<g id="edge12" class="edge">
<title>Node1&#45;&gt;Node12</title>
<path fill="none" stroke="midnightblue" d="M41.1,-150.14C50.26,-148.34 61.77,-146.08 73.74,-143.72"/>
<polygon fill="midnightblue" stroke="midnightblue" points="74.73,-147.1 83.87,-141.73 73.38,-140.23 74.73,-147.1"/>
</g>
<!-- Node13 -->
<g id="node13" class="node">
<title>Node13</title>
<g id="a_node13"><a xlink:href="../../d5/d10/_g_r_p__solver___e_u_l__source_8c.html#a9f209350a079455d88d4b7a5fc841b6a" target="_top" xlink:title="This function use GRP scheme to solve 1&#45;D Euler equations of motion on Eulerian coordinate.">
<polygon fill="white" stroke="black" points="77.5,-76.5 77.5,-95.5 211.5,-95.5 211.5,-76.5 77.5,-76.5"/>
<text text-anchor="middle" x="144.5" y="-83.5" font-family="Helvetica,sans-Serif" font-size="10.00">GRP_solver_EUL_source</text>
</a>
</g>
</g>
<!-- Node1&#45;&gt;Node13 -->
<g id="edge14" class="edge">
<title>Node1&#45;&gt;Node13</title>
<path fill="none" stroke="midnightblue" d="M30.38,-144.15C40.63,-133.35 58.47,-116.19 77,-106 81.82,-103.35 87.03,-101.01 92.35,-98.95"/>
<polygon fill="midnightblue" stroke="midnightblue" points="93.7,-102.19 101.96,-95.55 91.37,-95.59 93.7,-102.19"/>
</g>
<!-- Node16 -->
<g id="node16" class="node">
<title>Node16</title>
<g id="a_node16"><a xlink:href="../../dd/dd7/_g_r_p__solver___l_a_g__source_8c.html#aa79b723d4064c233bc0519d6eb7206ae" target="_top" xlink:title="This function use GRP scheme to solve 1&#45;D Euler equations of motion on Lagrangian coordinate.">
<polygon fill="white" stroke="black" points="77,-38.5 77,-57.5 212,-57.5 212,-38.5 77,-38.5"/>
<text text-anchor="middle" x="144.5" y="-45.5" font-family="Helvetica,sans-Serif" font-size="10.00">GRP_solver_LAG_source</text>
</a>
</g>
</g>
<!-- Node1&#45;&gt;Node16 -->
<g id="edge19" class="edge">
<title>Node1&#45;&gt;Node16</title>
<path fill="none" stroke="midnightblue" d="M25,-144.26C31.99,-126.22 49.42,-87.56 77,-67 79.52,-65.12 82.22,-63.43 85.03,-61.91"/>
<polygon fill="midnightblue" stroke="midnightblue" points="86.74,-64.97 94.34,-57.58 83.79,-58.62 86.74,-64.97"/>
</g>
<!-- Node3 -->
<g id="node3" class="node">
<title>Node3</title>
<g id="a_node3"><a xlink:href="../../d4/de5/io__control_8c.html#a7e039d23ca87a439fbe9c9d336447887" target="_top" xlink:title="This function produces folder path for data input or output.">
<polygon fill="white" stroke="black" points="276.5,-251.5 276.5,-270.5 350.5,-270.5 350.5,-251.5 276.5,-251.5"/>
<text text-anchor="middle" x="313.5" y="-258.5" font-family="Helvetica,sans-Serif" font-size="10.00">example_io</text>
</a>
</g>
</g>
<!-- Node2&#45;&gt;Node3 -->
<g id="edge2" class="edge">
<title>Node2&#45;&gt;Node3</title>
<path fill="none" stroke="midnightblue" d="M187.64,-261C211.57,-261 241.56,-261 266.15,-261"/>
<polygon fill="midnightblue" stroke="midnightblue" points="266.32,-264.5 276.32,-261 266.32,-257.5 266.32,-264.5"/>
</g>
<!-- Node4 -->
<g id="node4" class="node">
<title>Node4</title>
<g id="a_node4"><a xlink:href="../../d4/ddd/sys__pro_8c.html#a40a5faeb19b1fd9aec2c5c10a87faeb4" target="_top" xlink:title="This is a function that recursively creates folders.">
<polygon fill="white" stroke="black" points="423.5,-251.5 423.5,-270.5 486.5,-270.5 486.5,-251.5 423.5,-251.5"/>
<text text-anchor="middle" x="455" y="-258.5" font-family="Helvetica,sans-Serif" font-size="10.00">CreateDir</text>
</a>
</g>
</g>
<!-- Node3&#45;&gt;Node4 -->
<g id="edge3" class="edge">
<title>Node3&#45;&gt;Node4</title>
<path fill="none" stroke="midnightblue" d="M350.79,-261C369.81,-261 393.19,-261 412.88,-261"/>
<polygon fill="midnightblue" stroke="midnightblue" points="413.09,-264.5 423.09,-261 413.09,-257.5 413.09,-264.5"/>
</g>
<!-- Node5&#45;&gt;Node3 -->
<g id="edge8" class="edge">
<title>Node5&#45;&gt;Node3</title>
<path fill="none" stroke="midnightblue" d="M186.35,-232.3C210.54,-237.8 241.25,-244.79 266.32,-250.49"/>
<polygon fill="midnightblue" stroke="midnightblue" points="265.8,-253.96 276.33,-252.77 267.35,-247.14 265.8,-253.96"/>
</g>
<!-- Node6 -->
<g id="node6" class="node">
<title>Node6</title>
<g id="a_node6"><a xlink:href="../../da/d8c/config__in_8c.html#a4b15e37e2922cce20bf5cc8bb6e80c9a" target="_top" xlink:title="This function controls configuration data reading and validation.">
<polygon fill="white" stroke="black" points="277.5,-213.5 277.5,-232.5 349.5,-232.5 349.5,-213.5 277.5,-213.5"/>
<text text-anchor="middle" x="313.5" y="-220.5" font-family="Helvetica,sans-Serif" font-size="10.00">configurate</text>
</a>
</g>
</g>
<!-- Node5&#45;&gt;Node6 -->
<g id="edge5" class="edge">
<title>Node5&#45;&gt;Node6</title>
<path fill="none" stroke="midnightblue" d="M186.35,-223C210.88,-223 242.12,-223 267.37,-223"/>
<polygon fill="midnightblue" stroke="midnightblue" points="267.44,-226.5 277.44,-223 267.44,-219.5 267.44,-226.5"/>
</g>
<!-- Node7 -->
<g id="node7" class="node">
<title>Node7</title>
<g id="a_node7"><a xlink:href="../../da/d8c/config__in_8c.html#a4b379c084f41490473f80792af24e0c7" target="_top" xlink:title="This function check whether the configuration data is reasonable and set the default.">
<polygon fill="white" stroke="black" points="415,-175.5 415,-194.5 495,-194.5 495,-175.5 415,-175.5"/>
<text text-anchor="middle" x="455" y="-182.5" font-family="Helvetica,sans-Serif" font-size="10.00">config_check</text>
</a>
</g>
</g>
<!-- Node6&#45;&gt;Node7 -->
<g id="edge6" class="edge">
<title>Node6&#45;&gt;Node7</title>
<path fill="none" stroke="midnightblue" d="M349.7,-213.41C367.71,-208.51 389.83,-202.48 409.06,-197.24"/>
<polygon fill="midnightblue" stroke="midnightblue" points="410.08,-200.59 418.81,-194.59 408.24,-193.84 410.08,-200.59"/>
</g>
<!-- Node8 -->
<g id="node8" class="node">
<title>Node8</title>
<g id="a_node8"><a xlink:href="../../da/d8c/config__in_8c.html#a482404d20045a8a5f48b5ee425a04259" target="_top" xlink:title="This function read the configuration data file, and store the configuration data in the array &quot;config...">
<polygon fill="white" stroke="black" points="418,-213.5 418,-232.5 492,-232.5 492,-213.5 418,-213.5"/>
<text text-anchor="middle" x="455" y="-220.5" font-family="Helvetica,sans-Serif" font-size="10.00">config_read</text>
</a>
</g>
</g>
<!-- Node6&#45;&gt;Node8 -->
<g id="edge7" class="edge">
<title>Node6&#45;&gt;Node8</title>
<path fill="none" stroke="midnightblue" d="M349.7,-223C367.27,-223 388.76,-223 407.65,-223"/>
<polygon fill="midnightblue" stroke="midnightblue" points="407.84,-226.5 417.84,-223 407.84,-219.5 407.84,-226.5"/>
</g>
<!-- Node10 -->
<g id="node10" class="node">
<title>Node10</title>
<g id="a_node10"><a xlink:href="../../d4/ddd/sys__pro_8c.html#aab058cac35713b52c083b9e54ffa45eb" target="_top" xlink:title="This function print a progress bar on one line of standard output.">
<polygon fill="white" stroke="black" points="286.5,-117.5 286.5,-136.5 340.5,-136.5 340.5,-117.5 286.5,-117.5"/>
<text text-anchor="middle" x="313.5" y="-124.5" font-family="Helvetica,sans-Serif" font-size="10.00">DispPro</text>
</a>
</g>
</g>
<!-- Node9&#45;&gt;Node10 -->
<g id="edge10" class="edge">
<title>Node9&#45;&gt;Node10</title>
<path fill="none" stroke="midnightblue" d="M193.8,-163.96C220.1,-155.77 252.1,-145.81 276.25,-138.29"/>
<polygon fill="midnightblue" stroke="midnightblue" points="277.57,-141.54 286.07,-135.23 275.48,-134.86 277.57,-141.54"/>
</g>
<!-- Node11 -->
<g id="node11" class="node">
<title>Node11</title>
<g id="a_node11"><a xlink:href="../../dc/d70/linear___g_r_p__solver___edir_8c.html#a61337737d3b13e3821fef580847feaac" target="_top" xlink:title="A direct Eulerian GRP solver for unsteady compressible inviscid flow in one space dimension.">
<polygon fill="white" stroke="black" points="249,-164.5 249,-183.5 378,-183.5 378,-164.5 249,-164.5"/>
<text text-anchor="middle" x="313.5" y="-171.5" font-family="Helvetica,sans-Serif" font-size="10.00">linear_GRP_solver_Edir</text>
</a>
</g>
</g>
<!-- Node9&#45;&gt;Node11 -->
<g id="edge11" class="edge">
<title>Node9&#45;&gt;Node11</title>
<path fill="none" stroke="midnightblue" d="M204.38,-177.24C215.49,-176.9 227.24,-176.55 238.74,-176.21"/>
<polygon fill="midnightblue" stroke="midnightblue" points="238.87,-179.71 248.76,-175.91 238.66,-172.71 238.87,-179.71"/>
</g>
<!-- Node12&#45;&gt;Node10 -->
<g id="edge13" class="edge">
<title>Node12&#45;&gt;Node10</title>
<path fill="none" stroke="midnightblue" d="M205.32,-128.93C228.91,-128.5 255.25,-128.03 275.91,-127.66"/>
<polygon fill="midnightblue" stroke="midnightblue" points="276.22,-131.15 286.16,-127.47 276.1,-124.15 276.22,-131.15"/>
</g>
<!-- Node13&#45;&gt;Node10 -->
<g id="edge15" class="edge">
<title>Node13&#45;&gt;Node10</title>
<path fill="none" stroke="midnightblue" d="M184.23,-95.51C212.09,-102.35 249.37,-111.5 276.57,-118.18"/>
<polygon fill="midnightblue" stroke="midnightblue" points="275.91,-121.62 286.45,-120.61 277.58,-114.82 275.91,-121.62"/>
</g>
<!-- Node13&#45;&gt;Node11 -->
<g id="edge16" class="edge">
<title>Node13&#45;&gt;Node11</title>
<path fill="none" stroke="midnightblue" d="M189.56,-95.53C197.37,-98.24 205.18,-101.67 212,-106 232.2,-118.81 228.59,-132.03 248,-146 255.94,-151.72 265.23,-156.6 274.25,-160.61"/>
<polygon fill="midnightblue" stroke="midnightblue" points="272.91,-163.84 283.48,-164.47 275.61,-157.38 272.91,-163.84"/>
</g>
<!-- Node14 -->
<g id="node14" class="node">
<title>Node14</title>
<g id="a_node14"><a xlink:href="../../d5/da5/tools_8h.html#a4c39aa75a9e5ae0470128caf0b14cd4a" target="_top" xlink:title="Minmod limiter function of two variables.">
<polygon fill="white" stroke="black" points="282,-38.5 282,-57.5 345,-57.5 345,-38.5 282,-38.5"/>
<text text-anchor="middle" x="313.5" y="-45.5" font-family="Helvetica,sans-Serif" font-size="10.00">minmod2</text>
</a>
</g>
</g>
<!-- Node13&#45;&gt;Node14 -->
<g id="edge17" class="edge">
<title>Node13&#45;&gt;Node14</title>
<path fill="none" stroke="midnightblue" d="M187.64,-76.41C213.57,-70.51 246.63,-62.99 272.21,-57.17"/>
<polygon fill="midnightblue" stroke="midnightblue" points="272.99,-60.58 281.97,-54.95 271.44,-53.75 272.99,-60.58"/>
</g>
<!-- Node15 -->
<g id="node15" class="node">
<title>Node15</title>
<g id="a_node15"><a xlink:href="../../d5/da5/tools_8h.html#a80be373c5a956ec0cc7944b199b68ca7" target="_top" xlink:title="Minmod limiter function of three variables.">
<polygon fill="white" stroke="black" points="282,-76.5 282,-95.5 345,-95.5 345,-76.5 282,-76.5"/>
<text text-anchor="middle" x="313.5" y="-83.5" font-family="Helvetica,sans-Serif" font-size="10.00">minmod3</text>
</a>
</g>
</g>
<!-- Node13&#45;&gt;Node15 -->
<g id="edge18" class="edge">
<title>Node13&#45;&gt;Node15</title>
<path fill="none" stroke="midnightblue" d="M211.5,-86C231.78,-86 253.49,-86 271.57,-86"/>
<polygon fill="midnightblue" stroke="midnightblue" points="271.75,-89.5 281.75,-86 271.75,-82.5 271.75,-89.5"/>
</g>
<!-- Node16&#45;&gt;Node10 -->
<g id="edge20" class="edge">
<title>Node16&#45;&gt;Node10</title>
<path fill="none" stroke="midnightblue" d="M191.22,-57.54C198.45,-60.03 205.64,-63.14 212,-67 231.89,-79.07 228.42,-92.43 248,-105 256.65,-110.55 266.85,-114.86 276.56,-118.15"/>
<polygon fill="midnightblue" stroke="midnightblue" points="275.82,-121.58 286.41,-121.2 277.89,-114.9 275.82,-121.58"/>
</g>
<!-- Node16&#45;&gt;Node14 -->
<g id="edge22" class="edge">
<title>Node16&#45;&gt;Node14</title>
<path fill="none" stroke="midnightblue" d="M212.46,-48C232.49,-48 253.84,-48 271.65,-48"/>
<polygon fill="midnightblue" stroke="midnightblue" points="271.69,-51.5 281.69,-48 271.69,-44.5 271.69,-51.5"/>
</g>
<!-- Node16&#45;&gt;Node15 -->
<g id="edge23" class="edge">
<title>Node16&#45;&gt;Node15</title>
<path fill="none" stroke="midnightblue" d="M187.64,-57.59C213.57,-63.49 246.63,-71.01 272.21,-76.83"/>
<polygon fill="midnightblue" stroke="midnightblue" points="271.44,-80.25 281.97,-79.05 272.99,-73.42 271.44,-80.25"/>
</g>
<!-- Node17 -->
<g id="node17" class="node">
<title>Node17</title>
<g id="a_node17"><a xlink:href="../../de/d81/linear___g_r_p__solver___l_a_g_8c.html#a43e97783406949990da0cebf5d55c703" target="_top" xlink:title="A Lagrangian GRP solver for unsteady compressible inviscid flow in one space dimension.">
<polygon fill="white" stroke="black" points="248,-0.5 248,-19.5 379,-19.5 379,-0.5 248,-0.5"/>
<text text-anchor="middle" x="313.5" y="-7.5" font-family="Helvetica,sans-Serif" font-size="10.00">linear_GRP_solver_LAG</text>
</a>
</g>
</g>
<!-- Node16&#45;&gt;Node17 -->
<g id="edge21" class="edge">
<title>Node16&#45;&gt;Node17</title>
<path fill="none" stroke="midnightblue" d="M187.64,-38.41C209.88,-33.35 237.35,-27.1 260.86,-21.75"/>
<polygon fill="midnightblue" stroke="midnightblue" points="261.69,-25.15 270.66,-19.52 260.13,-18.33 261.69,-25.15"/>
</g>
</g>
</svg>
