<?xml version="1.0" encoding="UTF-8" standalone="no"?>
<!DOCTYPE svg PUBLIC "-//W3C//DTD SVG 1.1//EN"
 "http://www.w3.org/Graphics/SVG/1.1/DTD/svg11.dtd">
<!-- Generated by graphviz version 6.0.1 (0)
 -->
<!-- Title: src~/inter_process/slope_limiter_2D_x.c Pages: 1 -->
<svg width="384pt" height="95pt"
 viewBox="0.00 0.00 383.50 95.00" xmlns="http://www.w3.org/2000/svg" xmlns:xlink="http://www.w3.org/1999/xlink">
<g id="graph0" class="graph" transform="scale(1 1) rotate(0) translate(4 91)">
<title>src~/inter_process/slope_limiter_2D_x.c</title>
<polygon fill="white" stroke="none" points="-4,4 -4,-91 379.5,-91 379.5,4 -4,4"/>
<!-- Node1 -->
<g id="node1" class="node">
<title>Node1</title>
<g id="a_node1"><a xlink:title="This is a function of the minmod slope limiter in the x&#45;direction of two dimension.">
<polygon fill="#bfbfbf" stroke="black" points="87,-56.5 87,-86.5 209,-86.5 209,-56.5 87,-56.5"/>
<text text-anchor="start" x="95" y="-74.5" font-family="Helvetica,sans-Serif" font-size="10.00">src~/inter_process</text>
<text text-anchor="middle" x="148" y="-63.5" font-family="Helvetica,sans-Serif" font-size="10.00">/slope_limiter_2D_x.c</text>
</a>
</g>
</g>
<!-- Node2 -->
<g id="node2" class="node">
<title>Node2</title>
<g id="a_node2"><a xlink:title=" ">
<polygon fill="white" stroke="#bfbfbf" points="0,-0.5 0,-19.5 50,-19.5 50,-0.5 0,-0.5"/>
<text text-anchor="middle" x="25" y="-7.5" font-family="Helvetica,sans-Serif" font-size="10.00">stdio.h</text>
</a>
</g>
</g>
<!-- Node1&#45;&gt;Node2 -->
<g id="edge1" class="edge">
<title>Node1&#45;&gt;Node2</title>
<path fill="none" stroke="midnightblue" d="M118.85,-56.4C98.58,-46.59 71.76,-33.62 51.98,-24.05"/>
<polygon fill="midnightblue" stroke="midnightblue" points="53.42,-20.86 42.9,-19.66 50.38,-27.16 53.42,-20.86"/>
</g>
<!-- Node3 -->
<g id="node3" class="node">
<title>Node3</title>
<g id="a_node3"><a xlink:title=" ">
<polygon fill="white" stroke="#bfbfbf" points="68,-0.5 68,-19.5 124,-19.5 124,-0.5 68,-0.5"/>
<text text-anchor="middle" x="96" y="-7.5" font-family="Helvetica,sans-Serif" font-size="10.00">stdarg.h</text>
</a>
</g>
</g>
<!-- Node1&#45;&gt;Node3 -->
<g id="edge2" class="edge">
<title>Node1&#45;&gt;Node3</title>
<path fill="none" stroke="midnightblue" d="M135.68,-56.4C128.04,-47.66 118.21,-36.41 110.24,-27.3"/>
<polygon fill="midnightblue" stroke="midnightblue" points="112.78,-24.88 103.57,-19.66 107.51,-29.49 112.78,-24.88"/>
</g>
<!-- Node4 -->
<g id="node4" class="node">
<title>Node4</title>
<g id="a_node4"><a xlink:href="../../da/d1e/var__struc_8h.html" target="_top" xlink:title="This file is the header file of some globally common variables and structural bodies.">
<polygon fill="white" stroke="black" points="142,-0.5 142,-19.5 260,-19.5 260,-0.5 142,-0.5"/>
<text text-anchor="middle" x="201" y="-7.5" font-family="Helvetica,sans-Serif" font-size="10.00">../include/var_struc.h</text>
</a>
</g>
</g>
<!-- Node1&#45;&gt;Node4 -->
<g id="edge3" class="edge">
<title>Node1&#45;&gt;Node4</title>
<path fill="none" stroke="midnightblue" d="M160.56,-56.4C168.34,-47.66 178.36,-36.41 186.48,-27.3"/>
<polygon fill="midnightblue" stroke="midnightblue" points="189.25,-29.45 193.29,-19.66 184.02,-24.8 189.25,-29.45"/>
</g>
<!-- Node5 -->
<g id="node5" class="node">
<title>Node5</title>
<g id="a_node5"><a xlink:href="../../d5/da5/tools_8h.html" target="_top" xlink:title="This file is the header file of several independent tool functions.">
<polygon fill="white" stroke="black" points="278.5,-0.5 278.5,-19.5 375.5,-19.5 375.5,-0.5 278.5,-0.5"/>
<text text-anchor="middle" x="327" y="-7.5" font-family="Helvetica,sans-Serif" font-size="10.00">../include/tools.h</text>
</a>
</g>
</g>
<!-- Node1&#45;&gt;Node5 -->
<g id="edge4" class="edge">
<title>Node1&#45;&gt;Node5</title>
<path fill="none" stroke="midnightblue" d="M190.42,-56.4C221.22,-46.16 262.41,-32.47 291.48,-22.81"/>
<polygon fill="midnightblue" stroke="midnightblue" points="292.83,-26.05 301.22,-19.57 290.62,-19.4 292.83,-26.05"/>
</g>
</g>
</svg>
