<?xml version="1.0" encoding="UTF-8" standalone="no"?>
<!DOCTYPE svg PUBLIC "-//W3C//DTD SVG 1.1//EN"
 "http://www.w3.org/Graphics/SVG/1.1/DTD/svg11.dtd">
<!-- Generated by graphviz version 6.0.1 (0)
 -->
<!-- Title: linear_GRP_solver_Edir_Q1D Pages: 1 -->
<svg width="754pt" height="126pt"
 viewBox="0.00 0.00 754.00 126.00" xmlns="http://www.w3.org/2000/svg" xmlns:xlink="http://www.w3.org/1999/xlink">
<g id="graph0" class="graph" transform="scale(1 1) rotate(0) translate(4 122)">
<title>linear_GRP_solver_Edir_Q1D</title>
<polygon fill="white" stroke="none" points="-4,4 -4,-122 750,-122 750,4 -4,4"/>
<!-- Node1 -->
<g id="node1" class="node">
<title>Node1</title>
<g id="a_node1"><a xlink:title="A Quasi&#45;1D direct Eulerian GRP solver for unsteady compressible inviscid two&#45;component flow in two sp...">
<polygon fill="#bfbfbf" stroke="black" points="591,-38.5 591,-57.5 746,-57.5 746,-38.5 591,-38.5"/>
<text text-anchor="middle" x="668.5" y="-45.5" font-family="Helvetica,sans-Serif" font-size="10.00">linear_GRP_solver_Edir_Q1D</text>
</a>
</g>
</g>
<!-- Node2 -->
<g id="node2" class="node">
<title>Node2</title>
<g id="a_node2"><a xlink:href="../../d5/d55/flux__solver_8c.html#a49938584f813ee4c3756f8aba45325de" target="_top" xlink:title="This function calculate Eulerian fluxes of 2&#45;D Euler equations by 2&#45;D GRP solver.">
<polygon fill="white" stroke="black" points="437.5,-76.5 437.5,-95.5 517.5,-95.5 517.5,-76.5 437.5,-76.5"/>
<text text-anchor="middle" x="477.5" y="-83.5" font-family="Helvetica,sans-Serif" font-size="10.00">GRP_2D_flux</text>
</a>
</g>
</g>
<!-- Node1&#45;&gt;Node2 -->
<g id="edge1" class="edge">
<title>Node1&#45;&gt;Node2</title>
<path fill="none" stroke="midnightblue" d="M609.91,-59.58C580,-65.59 544.24,-72.78 517.58,-78.14"/>
<polygon fill="midnightblue" stroke="midnightblue" points="610.69,-62.99 619.81,-57.59 609.31,-56.13 610.69,-62.99"/>
</g>
<!-- Node8 -->
<g id="node8" class="node">
<title>Node8</title>
<g id="a_node8"><a xlink:href="../../d9/dd5/linear__grp__solver___edir___g2_d_8c.html#acb16fb4ec6efd52b51f908f52934b384" target="_top" xlink:title="A Genuinely&#45;2D direct Eulerian GRP solver for unsteady compressible inviscid two&#45;component flow in tw...">
<polygon fill="white" stroke="black" points="400,-38.5 400,-57.5 555,-57.5 555,-38.5 400,-38.5"/>
<text text-anchor="middle" x="477.5" y="-45.5" font-family="Helvetica,sans-Serif" font-size="10.00">linear_GRP_solver_Edir_G2D</text>
</a>
</g>
</g>
<!-- Node1&#45;&gt;Node8 -->
<g id="edge10" class="edge">
<title>Node1&#45;&gt;Node8</title>
<path fill="none" stroke="midnightblue" d="M580.9,-48C572.33,-48 563.67,-48 555.21,-48"/>
<polygon fill="midnightblue" stroke="midnightblue" points="580.9,-51.5 590.9,-48 580.9,-44.5 580.9,-51.5"/>
</g>
<!-- Node9 -->
<g id="node9" class="node">
<title>Node9</title>
<g id="a_node9"><a xlink:href="../../d5/d55/flux__solver_8c.html#a8741ed2c6d1a4b403640ac46174039d7" target="_top" xlink:title="This function calculate Eulerian fluxes of 2&#45;D Euler equations by Riemann solver.">
<polygon fill="white" stroke="black" points="419.5,-0.5 419.5,-19.5 535.5,-19.5 535.5,-0.5 419.5,-0.5"/>
<text text-anchor="middle" x="477.5" y="-7.5" font-family="Helvetica,sans-Serif" font-size="10.00">Riemann_exact_flux</text>
</a>
</g>
</g>
<!-- Node1&#45;&gt;Node9 -->
<g id="edge11" class="edge">
<title>Node1&#45;&gt;Node9</title>
<path fill="none" stroke="midnightblue" d="M609.76,-36.39C582.88,-30.99 551.3,-24.64 525.85,-19.52"/>
<polygon fill="midnightblue" stroke="midnightblue" points="609.31,-39.87 619.81,-38.41 610.69,-33.01 609.31,-39.87"/>
</g>
<!-- Node3 -->
<g id="node3" class="node">
<title>Node3</title>
<g id="a_node3"><a xlink:href="../../de/d35/flux__generator__x_8c.html#a99d3c20c9f68680b85415265ecd67b60" target="_top" xlink:title="This function calculate Eulerian fluxes of 2&#45;D Euler equations in x&#45;direction by 2&#45;D GRP solver.">
<polygon fill="white" stroke="black" points="265,-95.5 265,-114.5 364,-114.5 364,-95.5 265,-95.5"/>
<text text-anchor="middle" x="314.5" y="-102.5" font-family="Helvetica,sans-Serif" font-size="10.00">flux_generator_x</text>
</a>
</g>
</g>
<!-- Node2&#45;&gt;Node3 -->
<g id="edge2" class="edge">
<title>Node2&#45;&gt;Node3</title>
<path fill="none" stroke="midnightblue" d="M426.99,-91.84C407.06,-94.2 384.13,-96.9 364.27,-99.24"/>
<polygon fill="midnightblue" stroke="midnightblue" points="427.59,-95.3 437.11,-90.65 426.77,-88.34 427.59,-95.3"/>
</g>
<!-- Node7 -->
<g id="node7" class="node">
<title>Node7</title>
<g id="a_node7"><a xlink:href="../../de/db1/flux__generator__y_8c.html#a964701ac9bd65f6b19c3c731e983d562" target="_top" xlink:title="This function calculate Eulerian fluxes of 2&#45;D Euler equations in y&#45;direction by 2&#45;D GRP solver.">
<polygon fill="white" stroke="black" points="265,-57.5 265,-76.5 364,-76.5 364,-57.5 265,-57.5"/>
<text text-anchor="middle" x="314.5" y="-64.5" font-family="Helvetica,sans-Serif" font-size="10.00">flux_generator_y</text>
</a>
</g>
</g>
<!-- Node2&#45;&gt;Node7 -->
<g id="edge7" class="edge">
<title>Node2&#45;&gt;Node7</title>
<path fill="none" stroke="midnightblue" d="M426.99,-80.16C407.06,-77.8 384.13,-75.1 364.27,-72.76"/>
<polygon fill="midnightblue" stroke="midnightblue" points="426.77,-83.66 437.11,-81.35 427.59,-76.7 426.77,-83.66"/>
</g>
<!-- Node4 -->
<g id="node4" class="node">
<title>Node4</title>
<g id="a_node4"><a xlink:href="../../d1/d4b/grp__solver__2_d___e_u_l__source_8c.html#a30950ea8ff93f97618fb87759c6aae04" target="_top" xlink:title="This function use GRP scheme to solve 2&#45;D Euler equations of motion on Eulerian coordinate without di...">
<polygon fill="white" stroke="black" points="77,-98.5 77,-117.5 229,-117.5 229,-98.5 77,-98.5"/>
<text text-anchor="middle" x="153" y="-105.5" font-family="Helvetica,sans-Serif" font-size="10.00">GRP_solver_2D_EUL_source</text>
</a>
</g>
</g>
<!-- Node3&#45;&gt;Node4 -->
<g id="edge3" class="edge">
<title>Node3&#45;&gt;Node4</title>
<path fill="none" stroke="midnightblue" d="M254.51,-106.11C246.25,-106.26 237.67,-106.43 229.16,-106.59"/>
<polygon fill="midnightblue" stroke="midnightblue" points="254.85,-109.6 264.78,-105.92 254.71,-102.61 254.85,-109.6"/>
</g>
<!-- Node6 -->
<g id="node6" class="node">
<title>Node6</title>
<g id="a_node6"><a xlink:href="../../df/d07/grp__solver__2_d__split___e_u_l__source_8c.html#af66dc2722921b16ef5aa77be65cfc311" target="_top" xlink:title="This function use GRP scheme to solve 2&#45;D Euler equations of motion on Eulerian coordinate with dimen...">
<polygon fill="white" stroke="black" points="94.5,-49 94.5,-79 211.5,-79 211.5,-49 94.5,-49"/>
<text text-anchor="start" x="102.5" y="-67" font-family="Helvetica,sans-Serif" font-size="10.00">GRP_solver_2D_split</text>
<text text-anchor="middle" x="153" y="-56" font-family="Helvetica,sans-Serif" font-size="10.00">_EUL_source</text>
</a>
</g>
</g>
<!-- Node3&#45;&gt;Node6 -->
<g id="edge5" class="edge">
<title>Node3&#45;&gt;Node6</title>
<path fill="none" stroke="midnightblue" d="M266.69,-92.97C249.48,-88.54 229.78,-83.48 211.72,-78.84"/>
<polygon fill="midnightblue" stroke="midnightblue" points="265.95,-96.39 276.51,-95.49 267.69,-89.61 265.95,-96.39"/>
</g>
<!-- Node5 -->
<g id="node5" class="node">
<title>Node5</title>
<g id="a_node5"><a xlink:href="../../d2/d24/hydrocode_8c.html#a0ddf1224851353fc92bfbff6f499fa97" target="_top" xlink:title="This is the main function which constructs the main structure of the 2&#45;D Eulerian hydrocode.">
<polygon fill="white" stroke="black" points="0,-76.5 0,-95.5 41,-95.5 41,-76.5 0,-76.5"/>
<text text-anchor="middle" x="20.5" y="-83.5" font-family="Helvetica,sans-Serif" font-size="10.00">main</text>
</a>
</g>
</g>
<!-- Node4&#45;&gt;Node5 -->
<g id="edge4" class="edge">
<title>Node4&#45;&gt;Node5</title>
<path fill="none" stroke="midnightblue" d="M85.45,-96.78C69.23,-94.05 53.12,-91.33 41.13,-89.31"/>
<polygon fill="midnightblue" stroke="midnightblue" points="85.08,-100.27 95.52,-98.48 86.24,-93.36 85.08,-100.27"/>
</g>
<!-- Node6&#45;&gt;Node5 -->
<g id="edge6" class="edge">
<title>Node6&#45;&gt;Node5</title>
<path fill="none" stroke="midnightblue" d="M84.48,-75.38C68.56,-78.07 52.82,-80.72 41.05,-82.7"/>
<polygon fill="midnightblue" stroke="midnightblue" points="85.1,-78.83 94.38,-73.71 83.94,-71.92 85.1,-78.83"/>
</g>
<!-- Node7&#45;&gt;Node4 -->
<g id="edge8" class="edge">
<title>Node7&#45;&gt;Node4</title>
<path fill="none" stroke="midnightblue" d="M266.52,-79.08C242.44,-85.27 213.55,-92.69 191.07,-98.47"/>
<polygon fill="midnightblue" stroke="midnightblue" points="267.69,-82.39 276.51,-76.51 265.95,-75.61 267.69,-82.39"/>
</g>
<!-- Node7&#45;&gt;Node6 -->
<g id="edge9" class="edge">
<title>Node7&#45;&gt;Node6</title>
<path fill="none" stroke="midnightblue" d="M254.73,-65.89C240.68,-65.63 225.68,-65.35 211.67,-65.08"/>
<polygon fill="midnightblue" stroke="midnightblue" points="254.71,-69.39 264.78,-66.08 254.85,-62.4 254.71,-69.39"/>
</g>
</g>
</svg>
