<?xml version="1.0" encoding="UTF-8" standalone="no"?>
<!DOCTYPE svg PUBLIC "-//W3C//DTD SVG 1.1//EN"
 "http://www.w3.org/Graphics/SVG/1.1/DTD/svg11.dtd">
<!-- Generated by graphviz version 6.0.1 (0)
 -->
<!-- Title: GRP_solver_2D_EUL_source Pages: 1 -->
<svg width="867pt" height="218pt"
 viewBox="0.00 0.00 867.00 218.00" xmlns="http://www.w3.org/2000/svg" xmlns:xlink="http://www.w3.org/1999/xlink">
<g id="graph0" class="graph" transform="scale(1 1) rotate(0) translate(4 214)">
<title>GRP_solver_2D_EUL_source</title>
<polygon fill="white" stroke="none" points="-4,4 -4,-214 863,-214 863,4 -4,4"/>
<!-- Node1 -->
<g id="node1" class="node">
<title>Node1</title>
<g id="a_node1"><a xlink:title="This function use GRP scheme to solve 2&#45;D Euler equations of motion on Eulerian coordinate without di...">
<polygon fill="#bfbfbf" stroke="black" points="0,-95.5 0,-114.5 152,-114.5 152,-95.5 0,-95.5"/>
<text text-anchor="middle" x="76" y="-102.5" font-family="Helvetica,sans-Serif" font-size="10.00">GRP_solver_2D_EUL_source</text>
</a>
</g>
</g>
<!-- Node2 -->
<g id="node2" class="node">
<title>Node2</title>
<g id="a_node2"><a xlink:href="../../d8/d49/bound__cond__slope__limiter__x_8c.html#a93bebe7c69a9932a22ae8bfce51ab95c" target="_top" xlink:title="This function apply the minmod limiter to the slope in the x&#45;direction of two dimension.">
<polygon fill="white" stroke="black" points="188,-152.5 188,-171.5 343,-171.5 343,-152.5 188,-152.5"/>
<text text-anchor="middle" x="265.5" y="-159.5" font-family="Helvetica,sans-Serif" font-size="10.00">bound_cond_slope_limiter_x</text>
</a>
</g>
</g>
<!-- Node1&#45;&gt;Node2 -->
<g id="edge1" class="edge">
<title>Node1&#45;&gt;Node2</title>
<path fill="none" stroke="midnightblue" d="M102.81,-114.55C125.18,-122.65 158.5,-134.3 188,-143 196.21,-145.42 204.97,-147.79 213.53,-149.99"/>
<polygon fill="midnightblue" stroke="midnightblue" points="212.88,-153.44 223.43,-152.49 214.59,-146.65 212.88,-153.44"/>
</g>
<!-- Node6 -->
<g id="node6" class="node">
<title>Node6</title>
<g id="a_node6"><a xlink:href="../../d8/dbb/bound__cond__slope__limiter__y_8c.html#aaf0175f075a4b153d671c163bc8275b6" target="_top" xlink:title="This function apply the minmod limiter to the slope in the y&#45;direction of two dimension.">
<polygon fill="white" stroke="black" points="188,-190.5 188,-209.5 343,-209.5 343,-190.5 188,-190.5"/>
<text text-anchor="middle" x="265.5" y="-197.5" font-family="Helvetica,sans-Serif" font-size="10.00">bound_cond_slope_limiter_y</text>
</a>
</g>
</g>
<!-- Node1&#45;&gt;Node6 -->
<g id="edge5" class="edge">
<title>Node1&#45;&gt;Node6</title>
<path fill="none" stroke="midnightblue" d="M88.16,-114.69C107.29,-130.81 148.16,-163.12 188,-181 193.44,-183.44 199.24,-185.6 205.13,-187.51"/>
<polygon fill="midnightblue" stroke="midnightblue" points="204.48,-190.97 215.06,-190.47 206.48,-184.26 204.48,-190.97"/>
</g>
<!-- Node8 -->
<g id="node8" class="node">
<title>Node8</title>
<g id="a_node8"><a xlink:href="../../d4/ddd/sys__pro_8c.html#aab058cac35713b52c083b9e54ffa45eb" target="_top" xlink:title="This function print a progress bar on one line of standard output.">
<polygon fill="white" stroke="black" points="238.5,-114.5 238.5,-133.5 292.5,-133.5 292.5,-114.5 238.5,-114.5"/>
<text text-anchor="middle" x="265.5" y="-121.5" font-family="Helvetica,sans-Serif" font-size="10.00">DispPro</text>
</a>
</g>
</g>
<!-- Node1&#45;&gt;Node8 -->
<g id="edge9" class="edge">
<title>Node1&#45;&gt;Node8</title>
<path fill="none" stroke="midnightblue" d="M152.18,-112.62C178.45,-115.28 206.74,-118.15 228.36,-120.34"/>
<polygon fill="midnightblue" stroke="midnightblue" points="228.1,-123.83 238.4,-121.36 228.8,-116.86 228.1,-123.83"/>
</g>
<!-- Node9 -->
<g id="node9" class="node">
<title>Node9</title>
<g id="a_node9"><a xlink:href="../../d7/d20/file__2_d__out_8c.html#ad420018a322081934dd8f2853f5a535d" target="_top" xlink:title="This function write the 2&#45;D solution into Tecplot output files with point data.">
<polygon fill="white" stroke="black" points="195.5,-76.5 195.5,-95.5 335.5,-95.5 335.5,-76.5 195.5,-76.5"/>
<text text-anchor="middle" x="265.5" y="-83.5" font-family="Helvetica,sans-Serif" font-size="10.00">file_2D_write_POINT_TEC</text>
</a>
</g>
</g>
<!-- Node1&#45;&gt;Node9 -->
<g id="edge10" class="edge">
<title>Node1&#45;&gt;Node9</title>
<path fill="none" stroke="midnightblue" d="M152.18,-97.38C163.1,-96.27 174.37,-95.13 185.37,-94.02"/>
<polygon fill="midnightblue" stroke="midnightblue" points="185.78,-97.5 195.37,-93 185.07,-90.53 185.78,-97.5"/>
</g>
<!-- Node12 -->
<g id="node12" class="node">
<title>Node12</title>
<g id="a_node12"><a xlink:href="../../de/d35/flux__generator__x_8c.html#a99d3c20c9f68680b85415265ecd67b60" target="_top" xlink:title="This function calculate Eulerian fluxes of 2&#45;D Euler equations in x&#45;direction by 2&#45;D GRP solver.">
<polygon fill="white" stroke="black" points="216,-38.5 216,-57.5 315,-57.5 315,-38.5 216,-38.5"/>
<text text-anchor="middle" x="265.5" y="-45.5" font-family="Helvetica,sans-Serif" font-size="10.00">flux_generator_x</text>
</a>
</g>
</g>
<!-- Node1&#45;&gt;Node12 -->
<g id="edge13" class="edge">
<title>Node1&#45;&gt;Node12</title>
<path fill="none" stroke="midnightblue" d="M102.81,-95.45C125.18,-87.35 158.5,-75.7 188,-67 196.21,-64.58 204.97,-62.21 213.53,-60.01"/>
<polygon fill="midnightblue" stroke="midnightblue" points="214.59,-63.35 223.43,-57.51 212.88,-56.56 214.59,-63.35"/>
</g>
<!-- Node18 -->
<g id="node18" class="node">
<title>Node18</title>
<g id="a_node18"><a xlink:href="../../de/db1/flux__generator__y_8c.html#a964701ac9bd65f6b19c3c731e983d562" target="_top" xlink:title="This function calculate Eulerian fluxes of 2&#45;D Euler equations in y&#45;direction by 2&#45;D GRP solver.">
<polygon fill="white" stroke="black" points="216,-0.5 216,-19.5 315,-19.5 315,-0.5 216,-0.5"/>
<text text-anchor="middle" x="265.5" y="-7.5" font-family="Helvetica,sans-Serif" font-size="10.00">flux_generator_y</text>
</a>
</g>
</g>
<!-- Node1&#45;&gt;Node18 -->
<g id="edge19" class="edge">
<title>Node1&#45;&gt;Node18</title>
<path fill="none" stroke="midnightblue" d="M88.16,-95.31C107.29,-79.19 148.16,-46.88 188,-29 193.74,-26.43 199.88,-24.16 206.09,-22.18"/>
<polygon fill="midnightblue" stroke="midnightblue" points="207.27,-25.49 215.87,-19.3 205.29,-18.77 207.27,-25.49"/>
</g>
<!-- Node3 -->
<g id="node3" class="node">
<title>Node3</title>
<g id="a_node3"><a xlink:href="../../d7/d36/slope__limiter__2_d__x_8c.html#a28623a6705c28efd5d34c57409c54678" target="_top" xlink:title="This function apply the minmod limiter to the slope in the x&#45;direction of two dimension.">
<polygon fill="white" stroke="black" points="379,-152.5 379,-171.5 504,-171.5 504,-152.5 379,-152.5"/>
<text text-anchor="middle" x="441.5" y="-159.5" font-family="Helvetica,sans-Serif" font-size="10.00">minmod_limiter_2D_x</text>
</a>
</g>
</g>
<!-- Node2&#45;&gt;Node3 -->
<g id="edge2" class="edge">
<title>Node2&#45;&gt;Node3</title>
<path fill="none" stroke="midnightblue" d="M343.07,-162C351.56,-162 360.19,-162 368.62,-162"/>
<polygon fill="midnightblue" stroke="midnightblue" points="368.78,-165.5 378.78,-162 368.78,-158.5 368.78,-165.5"/>
</g>
<!-- Node4 -->
<g id="node4" class="node">
<title>Node4</title>
<g id="a_node4"><a xlink:href="../../d5/da5/tools_8h.html#a56cac3298eeead8cf22c1e61eb5a5a88" target="_top" xlink:title="Minmod limiter function of two variables.">
<polygon fill="white" stroke="black" points="586,-152.5 586,-171.5 649,-171.5 649,-152.5 586,-152.5"/>
<text text-anchor="middle" x="617.5" y="-159.5" font-family="Helvetica,sans-Serif" font-size="10.00">minmod2</text>
</a>
</g>
</g>
<!-- Node3&#45;&gt;Node4 -->
<g id="edge3" class="edge">
<title>Node3&#45;&gt;Node4</title>
<path fill="none" stroke="midnightblue" d="M504.34,-162C527.9,-162 554.16,-162 575.34,-162"/>
<polygon fill="midnightblue" stroke="midnightblue" points="575.61,-165.5 585.61,-162 575.61,-158.5 575.61,-165.5"/>
</g>
<!-- Node5 -->
<g id="node5" class="node">
<title>Node5</title>
<g id="a_node5"><a xlink:href="../../d5/da5/tools_8h.html#a6dfba28e1af33b47f4656d3738996fe9" target="_top" xlink:title="Minmod limiter function of three variables.">
<polygon fill="white" stroke="black" points="586,-190.5 586,-209.5 649,-209.5 649,-190.5 586,-190.5"/>
<text text-anchor="middle" x="617.5" y="-197.5" font-family="Helvetica,sans-Serif" font-size="10.00">minmod3</text>
</a>
</g>
</g>
<!-- Node3&#45;&gt;Node5 -->
<g id="edge4" class="edge">
<title>Node3&#45;&gt;Node5</title>
<path fill="none" stroke="midnightblue" d="M486.41,-171.59C513.9,-177.59 549.08,-185.28 575.92,-191.14"/>
<polygon fill="midnightblue" stroke="midnightblue" points="575.25,-194.57 585.77,-193.29 576.74,-187.74 575.25,-194.57"/>
</g>
<!-- Node7 -->
<g id="node7" class="node">
<title>Node7</title>
<g id="a_node7"><a xlink:href="../../d2/d49/slope__limiter_8c.html#aa63cbccebc0f88cf7397d2e594a861ae" target="_top" xlink:title="This function apply the minmod limiter to the slope in one dimension.">
<polygon fill="white" stroke="black" points="394,-190.5 394,-209.5 489,-209.5 489,-190.5 394,-190.5"/>
<text text-anchor="middle" x="441.5" y="-197.5" font-family="Helvetica,sans-Serif" font-size="10.00">minmod_limiter</text>
</a>
</g>
</g>
<!-- Node6&#45;&gt;Node7 -->
<g id="edge6" class="edge">
<title>Node6&#45;&gt;Node7</title>
<path fill="none" stroke="midnightblue" d="M343.07,-200C356.74,-200 370.76,-200 383.75,-200"/>
<polygon fill="midnightblue" stroke="midnightblue" points="383.92,-203.5 393.92,-200 383.92,-196.5 383.92,-203.5"/>
</g>
<!-- Node7&#45;&gt;Node4 -->
<g id="edge7" class="edge">
<title>Node7&#45;&gt;Node4</title>
<path fill="none" stroke="midnightblue" d="M486.41,-190.41C513.9,-184.41 549.08,-176.72 575.92,-170.86"/>
<polygon fill="midnightblue" stroke="midnightblue" points="576.74,-174.26 585.77,-168.71 575.25,-167.43 576.74,-174.26"/>
</g>
<!-- Node7&#45;&gt;Node5 -->
<g id="edge8" class="edge">
<title>Node7&#45;&gt;Node5</title>
<path fill="none" stroke="midnightblue" d="M489.13,-200C516.11,-200 549.76,-200 575.69,-200"/>
<polygon fill="midnightblue" stroke="midnightblue" points="575.93,-203.5 585.93,-200 575.93,-196.5 575.93,-203.5"/>
</g>
<!-- Node10 -->
<g id="node10" class="node">
<title>Node10</title>
<g id="a_node10"><a xlink:href="../../d4/de5/io__control_8c.html#a7e039d23ca87a439fbe9c9d336447887" target="_top" xlink:title="This function produces folder path for data input or output.">
<polygon fill="white" stroke="black" points="404.5,-76.5 404.5,-95.5 478.5,-95.5 478.5,-76.5 404.5,-76.5"/>
<text text-anchor="middle" x="441.5" y="-83.5" font-family="Helvetica,sans-Serif" font-size="10.00">example_io</text>
</a>
</g>
</g>
<!-- Node9&#45;&gt;Node10 -->
<g id="edge11" class="edge">
<title>Node9&#45;&gt;Node10</title>
<path fill="none" stroke="midnightblue" d="M335.52,-86C355.19,-86 376.14,-86 394.11,-86"/>
<polygon fill="midnightblue" stroke="midnightblue" points="394.32,-89.5 404.32,-86 394.32,-82.5 394.32,-89.5"/>
</g>
<!-- Node11 -->
<g id="node11" class="node">
<title>Node11</title>
<g id="a_node11"><a xlink:href="../../d4/ddd/sys__pro_8c.html#a40a5faeb19b1fd9aec2c5c10a87faeb4" target="_top" xlink:title="This is a function that recursively creates folders.">
<polygon fill="white" stroke="black" points="586,-76.5 586,-95.5 649,-95.5 649,-76.5 586,-76.5"/>
<text text-anchor="middle" x="617.5" y="-83.5" font-family="Helvetica,sans-Serif" font-size="10.00">CreateDir</text>
</a>
</g>
</g>
<!-- Node10&#45;&gt;Node11 -->
<g id="edge12" class="edge">
<title>Node10&#45;&gt;Node11</title>
<path fill="none" stroke="midnightblue" d="M478.55,-86C506.75,-86 545.96,-86 575.37,-86"/>
<polygon fill="midnightblue" stroke="midnightblue" points="575.73,-89.5 585.73,-86 575.73,-82.5 575.73,-89.5"/>
</g>
<!-- Node13 -->
<g id="node13" class="node">
<title>Node13</title>
<g id="a_node13"><a xlink:href="../../d5/d55/flux__solver_8c.html#a49938584f813ee4c3756f8aba45325de" target="_top" xlink:title="This function calculate Eulerian fluxes of 2&#45;D Euler equations by 2&#45;D GRP solver.">
<polygon fill="white" stroke="black" points="401.5,-0.5 401.5,-19.5 481.5,-19.5 481.5,-0.5 401.5,-0.5"/>
<text text-anchor="middle" x="441.5" y="-7.5" font-family="Helvetica,sans-Serif" font-size="10.00">GRP_2D_flux</text>
</a>
</g>
</g>
<!-- Node12&#45;&gt;Node13 -->
<g id="edge14" class="edge">
<title>Node12&#45;&gt;Node13</title>
<path fill="none" stroke="midnightblue" d="M310.41,-38.41C335.12,-33.01 366.03,-26.26 391.52,-20.7"/>
<polygon fill="midnightblue" stroke="midnightblue" points="392.33,-24.1 401.36,-18.55 390.84,-17.26 392.33,-24.1"/>
</g>
<!-- Node17 -->
<g id="node17" class="node">
<title>Node17</title>
<g id="a_node17"><a xlink:href="../../d7/d5a/fluid__var__check_8c.html#a29ead600b8eb62cb272068d83dadcc46" target="_top" xlink:title="This function checks whether interfacial fluid variables are within the value range.">
<polygon fill="white" stroke="black" points="405,-38.5 405,-57.5 478,-57.5 478,-38.5 405,-38.5"/>
<text text-anchor="middle" x="441.5" y="-45.5" font-family="Helvetica,sans-Serif" font-size="10.00">ifvar_check</text>
</a>
</g>
</g>
<!-- Node12&#45;&gt;Node17 -->
<g id="edge18" class="edge">
<title>Node12&#45;&gt;Node17</title>
<path fill="none" stroke="midnightblue" d="M315.43,-48C340.32,-48 370.39,-48 394.81,-48"/>
<polygon fill="midnightblue" stroke="midnightblue" points="394.89,-51.5 404.89,-48 394.89,-44.5 394.89,-51.5"/>
</g>
<!-- Node14 -->
<g id="node14" class="node">
<title>Node14</title>
<g id="a_node14"><a xlink:href="../../db/dd1/linear__grp__solver___edir___q1_d_8c.html#accd0c08406f5ddb935beb15b9cf87865" target="_top" xlink:title="A Quasi&#45;1D direct Eulerian GRP solver for unsteady compressible inviscid two&#45;component flow in two sp...">
<polygon fill="white" stroke="black" points="540,-0.5 540,-19.5 695,-19.5 695,-0.5 540,-0.5"/>
<text text-anchor="middle" x="617.5" y="-7.5" font-family="Helvetica,sans-Serif" font-size="10.00">linear_GRP_solver_Edir_Q1D</text>
</a>
</g>
</g>
<!-- Node13&#45;&gt;Node14 -->
<g id="edge15" class="edge">
<title>Node13&#45;&gt;Node14</title>
<path fill="none" stroke="midnightblue" d="M481.55,-10C495.82,-10 512.6,-10 529.38,-10"/>
<polygon fill="midnightblue" stroke="midnightblue" points="529.81,-13.5 539.81,-10 529.81,-6.5 529.81,-13.5"/>
</g>
<!-- Node16 -->
<g id="node16" class="node">
<title>Node16</title>
<g id="a_node16"><a xlink:href="../../d7/d5a/fluid__var__check_8c.html#a0177056576942ce464bb53db4dcb5138" target="_top" xlink:title="This function checks whether fluid variables of mid[] and dire[] are within the value range.">
<polygon fill="white" stroke="black" points="571,-38.5 571,-57.5 664,-57.5 664,-38.5 571,-38.5"/>
<text text-anchor="middle" x="617.5" y="-45.5" font-family="Helvetica,sans-Serif" font-size="10.00">star_dire_check</text>
</a>
</g>
</g>
<!-- Node13&#45;&gt;Node16 -->
<g id="edge17" class="edge">
<title>Node13&#45;&gt;Node16</title>
<path fill="none" stroke="midnightblue" d="M481.55,-18.53C505.63,-23.79 536.83,-30.6 563.17,-36.35"/>
<polygon fill="midnightblue" stroke="midnightblue" points="562.48,-39.78 573,-38.5 563.97,-32.95 562.48,-39.78"/>
</g>
<!-- Node15 -->
<g id="node15" class="node">
<title>Node15</title>
<g id="a_node15"><a xlink:href="../../d0/d08/riemann__solver__exact___ben_8c.html#a3ad58b11c355d45ee406da49161edbd4" target="_top" xlink:title="EXACT RIEMANN SOLVER FOR Two&#45;Component γ&#45;Law Gas">
<polygon fill="white" stroke="black" points="731,-0.5 731,-19.5 859,-19.5 859,-0.5 731,-0.5"/>
<text text-anchor="middle" x="795" y="-7.5" font-family="Helvetica,sans-Serif" font-size="10.00">Riemann_solver_exact</text>
</a>
</g>
</g>
<!-- Node14&#45;&gt;Node15 -->
<g id="edge16" class="edge">
<title>Node14&#45;&gt;Node15</title>
<path fill="none" stroke="midnightblue" d="M695.22,-10C703.68,-10 712.28,-10 720.69,-10"/>
<polygon fill="midnightblue" stroke="midnightblue" points="720.85,-13.5 730.85,-10 720.85,-6.5 720.85,-13.5"/>
</g>
<!-- Node18&#45;&gt;Node13 -->
<g id="edge20" class="edge">
<title>Node18&#45;&gt;Node13</title>
<path fill="none" stroke="midnightblue" d="M315.43,-10C339.07,-10 367.39,-10 391.09,-10"/>
<polygon fill="midnightblue" stroke="midnightblue" points="391.28,-13.5 401.28,-10 391.28,-6.5 391.28,-13.5"/>
</g>
<!-- Node18&#45;&gt;Node17 -->
<g id="edge21" class="edge">
<title>Node18&#45;&gt;Node17</title>
<path fill="none" stroke="midnightblue" d="M310.41,-19.59C336.18,-25.22 368.71,-32.32 394.79,-38.02"/>
<polygon fill="midnightblue" stroke="midnightblue" points="394.29,-41.49 404.8,-40.2 395.78,-34.65 394.29,-41.49"/>
</g>
</g>
</svg>
