<?xml version="1.0" encoding="UTF-8" standalone="no"?>
<!DOCTYPE svg PUBLIC "-//W3C//DTD SVG 1.1//EN"
 "http://www.w3.org/Graphics/SVG/1.1/DTD/svg11.dtd">
<!-- Generated by graphviz version 6.0.1 (0)
 -->
<!-- Title: flux_generator_x Pages: 1 -->
<svg width="578pt" height="85pt"
 viewBox="0.00 0.00 578.00 85.00" xmlns="http://www.w3.org/2000/svg" xmlns:xlink="http://www.w3.org/1999/xlink">
<g id="graph0" class="graph" transform="scale(1 1) rotate(0) translate(4 81)">
<title>flux_generator_x</title>
<polygon fill="white" stroke="none" points="-4,4 -4,-81 574,-81 574,4 -4,4"/>
<!-- Node1 -->
<g id="node1" class="node">
<title>Node1</title>
<g id="a_node1"><a xlink:title="This function calculate Eulerian fluxes of 2&#45;D Euler equations in x&#45;direction by 2&#45;D GRP solver.">
<polygon fill="#bfbfbf" stroke="black" points="0,-19.5 0,-38.5 99,-38.5 99,-19.5 0,-19.5"/>
<text text-anchor="middle" x="49.5" y="-26.5" font-family="Helvetica,sans-Serif" font-size="10.00">flux_generator_x</text>
</a>
</g>
</g>
<!-- Node2 -->
<g id="node2" class="node">
<title>Node2</title>
<g id="a_node2"><a xlink:href="../../d5/d55/flux__solver_8c.html#a49938584f813ee4c3756f8aba45325de" target="_top" xlink:title="This function calculate Eulerian fluxes of 2&#45;D Euler equations by 2&#45;D GRP solver.">
<polygon fill="white" stroke="black" points="135,-38.5 135,-57.5 215,-57.5 215,-38.5 135,-38.5"/>
<text text-anchor="middle" x="175" y="-45.5" font-family="Helvetica,sans-Serif" font-size="10.00">GRP_2D_flux</text>
</a>
</g>
</g>
<!-- Node1&#45;&gt;Node2 -->
<g id="edge1" class="edge">
<title>Node1&#45;&gt;Node2</title>
<path fill="none" stroke="midnightblue" d="M99.31,-36.51C107.65,-37.79 116.32,-39.13 124.67,-40.41"/>
<polygon fill="midnightblue" stroke="midnightblue" points="124.25,-43.89 134.66,-41.95 125.31,-36.97 124.25,-43.89"/>
</g>
<!-- Node6 -->
<g id="node6" class="node">
<title>Node6</title>
<g id="a_node6"><a xlink:href="../../d7/d5a/fluid__var__check_8c.html#a29ead600b8eb62cb272068d83dadcc46" target="_top" xlink:title="This function checks whether interfacial fluid variables are within the value range.">
<polygon fill="white" stroke="black" points="138.5,-0.5 138.5,-19.5 211.5,-19.5 211.5,-0.5 138.5,-0.5"/>
<text text-anchor="middle" x="175" y="-7.5" font-family="Helvetica,sans-Serif" font-size="10.00">ifvar_check</text>
</a>
</g>
</g>
<!-- Node1&#45;&gt;Node6 -->
<g id="edge5" class="edge">
<title>Node1&#45;&gt;Node6</title>
<path fill="none" stroke="midnightblue" d="M99.31,-21.49C108.92,-20.01 118.96,-18.47 128.45,-17.01"/>
<polygon fill="midnightblue" stroke="midnightblue" points="129.14,-20.44 138.49,-15.46 128.07,-13.52 129.14,-20.44"/>
</g>
<!-- Node3 -->
<g id="node3" class="node">
<title>Node3</title>
<g id="a_node3"><a xlink:href="../../db/dd1/linear__grp__solver___edir___q1_d_8c.html#accd0c08406f5ddb935beb15b9cf87865" target="_top" xlink:title="A Quasi&#45;1D direct Eulerian GRP solver for unsteady compressible inviscid two&#45;component flow in two sp...">
<polygon fill="white" stroke="black" points="251,-57.5 251,-76.5 406,-76.5 406,-57.5 251,-57.5"/>
<text text-anchor="middle" x="328.5" y="-64.5" font-family="Helvetica,sans-Serif" font-size="10.00">linear_GRP_solver_Edir_Q1D</text>
</a>
</g>
</g>
<!-- Node2&#45;&gt;Node3 -->
<g id="edge2" class="edge">
<title>Node2&#45;&gt;Node3</title>
<path fill="none" stroke="midnightblue" d="M215.02,-52.89C223.26,-53.93 232.26,-55.06 241.48,-56.21"/>
<polygon fill="midnightblue" stroke="midnightblue" points="241.17,-59.7 251.53,-57.47 242.04,-52.75 241.17,-59.7"/>
</g>
<!-- Node5 -->
<g id="node5" class="node">
<title>Node5</title>
<g id="a_node5"><a xlink:href="../../d7/d5a/fluid__var__check_8c.html#a0177056576942ce464bb53db4dcb5138" target="_top" xlink:title="This function checks whether fluid variables of mid[] and dire[] are within the value range.">
<polygon fill="white" stroke="black" points="282,-19.5 282,-38.5 375,-38.5 375,-19.5 282,-19.5"/>
<text text-anchor="middle" x="328.5" y="-26.5" font-family="Helvetica,sans-Serif" font-size="10.00">star_dire_check</text>
</a>
</g>
</g>
<!-- Node2&#45;&gt;Node5 -->
<g id="edge4" class="edge">
<title>Node2&#45;&gt;Node5</title>
<path fill="none" stroke="midnightblue" d="M215.02,-43.11C232.33,-40.94 253.03,-38.34 271.92,-35.97"/>
<polygon fill="midnightblue" stroke="midnightblue" points="272.41,-39.44 281.9,-34.72 271.54,-32.49 272.41,-39.44"/>
</g>
<!-- Node4 -->
<g id="node4" class="node">
<title>Node4</title>
<g id="a_node4"><a xlink:href="../../d0/d08/riemann__solver__exact___ben_8c.html#a3ad58b11c355d45ee406da49161edbd4" target="_top" xlink:title="EXACT RIEMANN SOLVER FOR Two&#45;Component γ&#45;Law Gas">
<polygon fill="white" stroke="black" points="442,-57.5 442,-76.5 570,-76.5 570,-57.5 442,-57.5"/>
<text text-anchor="middle" x="506" y="-64.5" font-family="Helvetica,sans-Serif" font-size="10.00">Riemann_solver_exact</text>
</a>
</g>
</g>
<!-- Node3&#45;&gt;Node4 -->
<g id="edge3" class="edge">
<title>Node3&#45;&gt;Node4</title>
<path fill="none" stroke="midnightblue" d="M406.22,-67C414.68,-67 423.28,-67 431.69,-67"/>
<polygon fill="midnightblue" stroke="midnightblue" points="431.85,-70.5 441.85,-67 431.85,-63.5 431.85,-70.5"/>
</g>
</g>
</svg>
