<?xml version="1.0" encoding="UTF-8" standalone="no"?>
<!DOCTYPE svg PUBLIC "-//W3C//DTD SVG 1.1//EN"
 "http://www.w3.org/Graphics/SVG/1.1/DTD/svg11.dtd">
<!-- Generated by graphviz version 6.0.1 (0)
 -->
<!-- Title: Roe_flux Pages: 1 -->
<svg width="192pt" height="66pt"
 viewBox="0.00 0.00 192.00 66.00" xmlns="http://www.w3.org/2000/svg" xmlns:xlink="http://www.w3.org/1999/xlink">
<g id="graph0" class="graph" transform="scale(1 1) rotate(0) translate(4 62)">
<title>Roe_flux</title>
<polygon fill="white" stroke="none" points="-4,4 -4,-62 188,-62 188,4 -4,4"/>
<!-- Node1 -->
<g id="node1" class="node">
<title>Node1</title>
<g id="a_node1"><a xlink:title="This function calculate Eulerian fluxes of Euler equations by Roe solver.">
<polygon fill="#bfbfbf" stroke="black" points="0,-19.5 0,-38.5 59,-38.5 59,-19.5 0,-19.5"/>
<text text-anchor="middle" x="29.5" y="-26.5" font-family="Helvetica,sans-Serif" font-size="10.00">Roe_flux</text>
</a>
</g>
</g>
<!-- Node2 -->
<g id="node2" class="node">
<title>Node2</title>
<g id="a_node2"><a xlink:href="../../d5/d41/roe__2_d__solver_8c.html#a7edfa5c07eddfed6870e924bd59e7255" target="_top" xlink:title="An approxiamate Riemann solver of Roe for unsteady compressible inviscid single&#45;component flow in two...">
<polygon fill="white" stroke="black" points="95,-38.5 95,-57.5 184,-57.5 184,-38.5 95,-38.5"/>
<text text-anchor="middle" x="139.5" y="-45.5" font-family="Helvetica,sans-Serif" font-size="10.00">Roe_2D_solver</text>
</a>
</g>
</g>
<!-- Node1&#45;&gt;Node2 -->
<g id="edge1" class="edge">
<title>Node1&#45;&gt;Node2</title>
<path fill="none" stroke="midnightblue" d="M59.16,-34.04C67.06,-35.43 75.89,-36.99 84.72,-38.54"/>
<polygon fill="midnightblue" stroke="midnightblue" points="84.18,-42 94.64,-40.28 85.39,-35.1 84.18,-42"/>
</g>
<!-- Node3 -->
<g id="node3" class="node">
<title>Node3</title>
<g id="a_node3"><a xlink:href="../../d1/db6/roe__solver_8c.html#abc3703f91bd238eda2a65f785ac7849a" target="_top" xlink:title="An approxiamate Riemann solver of Roe for unsteady compressible inviscid single&#45;component flow in one...">
<polygon fill="white" stroke="black" points="104,-0.5 104,-19.5 175,-19.5 175,-0.5 104,-0.5"/>
<text text-anchor="middle" x="139.5" y="-7.5" font-family="Helvetica,sans-Serif" font-size="10.00">Roe_solver</text>
</a>
</g>
</g>
<!-- Node1&#45;&gt;Node3 -->
<g id="edge2" class="edge">
<title>Node1&#45;&gt;Node3</title>
<path fill="none" stroke="midnightblue" d="M59.16,-23.96C69.79,-22.09 82.12,-19.92 93.84,-17.86"/>
<polygon fill="midnightblue" stroke="midnightblue" points="94.69,-21.26 103.93,-16.08 93.48,-14.37 94.69,-21.26"/>
</g>
</g>
</svg>
