<?xml version="1.0" encoding="UTF-8" standalone="no"?>
<!DOCTYPE svg PUBLIC "-//W3C//DTD SVG 1.1//EN"
 "http://www.w3.org/Graphics/SVG/1.1/DTD/svg11.dtd">
<!-- Generated by graphviz version 5.0.0 (0)
 -->
<!-- Title: /home/leixin/Programs/HydroCODE/src/file_io/config_handle.c Pages: 1 -->
<svg width="698pt" height="106pt"
 viewBox="0.00 0.00 698.00 106.00" xmlns="http://www.w3.org/2000/svg" xmlns:xlink="http://www.w3.org/1999/xlink">
<g id="graph0" class="graph" transform="scale(1 1) rotate(0) translate(4 102)">
<title>/home/leixin/Programs/HydroCODE/src/file_io/config_handle.c</title>
<polygon fill="white" stroke="transparent" points="-4,4 -4,-102 694,-102 694,4 -4,4"/>
<!-- Node1 -->
<g id="node1" class="node">
<title>Node1</title>
<g id="a_node1"><a xlink:title="This is a set of functions which control the read&#45;in of configuration data.">
<polygon fill="#bfbfbf" stroke="black" points="247.5,-56.5 247.5,-97.5 374.5,-97.5 374.5,-56.5 247.5,-56.5"/>
<text text-anchor="start" x="255.5" y="-85.5" font-family="Helvetica,sans-Serif" font-size="10.00">/home/leixin/Programs</text>
<text text-anchor="start" x="255.5" y="-74.5" font-family="Helvetica,sans-Serif" font-size="10.00">/HydroCODE/src/file_io</text>
<text text-anchor="middle" x="311" y="-63.5" font-family="Helvetica,sans-Serif" font-size="10.00">/config_handle.c</text>
</a>
</g>
</g>
<!-- Node2 -->
<g id="node2" class="node">
<title>Node2</title>
<g id="a_node2"><a xlink:title=" ">
<polygon fill="white" stroke="#bfbfbf" points="0,-0.5 0,-19.5 50,-19.5 50,-0.5 0,-0.5"/>
<text text-anchor="middle" x="25" y="-7.5" font-family="Helvetica,sans-Serif" font-size="10.00">stdio.h</text>
</a>
</g>
</g>
<!-- Node1&#45;&gt;Node2 -->
<g id="edge1" class="edge">
<title>Node1&#45;&gt;Node2</title>
<path fill="none" stroke="midnightblue" d="M247.4,-62.61C198.65,-52.17 129.46,-36.99 60.02,-20.18"/>
<polygon fill="midnightblue" stroke="midnightblue" points="60.77,-16.76 50.22,-17.8 59.11,-23.56 60.77,-16.76"/>
</g>
<!-- Node3 -->
<g id="node3" class="node">
<title>Node3</title>
<g id="a_node3"><a xlink:title=" ">
<polygon fill="white" stroke="#bfbfbf" points="68.5,-0.5 68.5,-19.5 121.5,-19.5 121.5,-0.5 68.5,-0.5"/>
<text text-anchor="middle" x="95" y="-7.5" font-family="Helvetica,sans-Serif" font-size="10.00">string.h</text>
</a>
</g>
</g>
<!-- Node1&#45;&gt;Node3 -->
<g id="edge2" class="edge">
<title>Node1&#45;&gt;Node3</title>
<path fill="none" stroke="midnightblue" d="M247.36,-56.85C209.52,-45.46 162.88,-31.43 131.25,-21.91"/>
<polygon fill="midnightblue" stroke="midnightblue" points="132.12,-18.51 121.53,-18.98 130.1,-25.22 132.12,-18.51"/>
</g>
<!-- Node4 -->
<g id="node4" class="node">
<title>Node4</title>
<g id="a_node4"><a xlink:title=" ">
<polygon fill="white" stroke="#bfbfbf" points="139.5,-0.5 139.5,-19.5 192.5,-19.5 192.5,-0.5 139.5,-0.5"/>
<text text-anchor="middle" x="166" y="-7.5" font-family="Helvetica,sans-Serif" font-size="10.00">stdlib.h</text>
</a>
</g>
</g>
<!-- Node1&#45;&gt;Node4 -->
<g id="edge3" class="edge">
<title>Node1&#45;&gt;Node4</title>
<path fill="none" stroke="midnightblue" d="M267.5,-56.5C243.87,-45.91 215.34,-33.12 194.55,-23.8"/>
<polygon fill="midnightblue" stroke="midnightblue" points="195.86,-20.55 185.3,-19.65 193,-26.94 195.86,-20.55"/>
</g>
<!-- Node5 -->
<g id="node5" class="node">
<title>Node5</title>
<g id="a_node5"><a xlink:title=" ">
<polygon fill="white" stroke="#bfbfbf" points="210.5,-0.5 210.5,-19.5 261.5,-19.5 261.5,-0.5 210.5,-0.5"/>
<text text-anchor="middle" x="236" y="-7.5" font-family="Helvetica,sans-Serif" font-size="10.00">math.h</text>
</a>
</g>
</g>
<!-- Node1&#45;&gt;Node5 -->
<g id="edge4" class="edge">
<title>Node1&#45;&gt;Node5</title>
<path fill="none" stroke="midnightblue" d="M288.5,-56.5C277.33,-46.82 264.04,-35.3 253.62,-26.27"/>
<polygon fill="midnightblue" stroke="midnightblue" points="255.83,-23.56 245.98,-19.65 251.25,-28.85 255.83,-23.56"/>
</g>
<!-- Node6 -->
<g id="node6" class="node">
<title>Node6</title>
<g id="a_node6"><a xlink:title=" ">
<polygon fill="white" stroke="#bfbfbf" points="280,-0.5 280,-19.5 342,-19.5 342,-0.5 280,-0.5"/>
<text text-anchor="middle" x="311" y="-7.5" font-family="Helvetica,sans-Serif" font-size="10.00">stdbool.h</text>
</a>
</g>
</g>
<!-- Node1&#45;&gt;Node6 -->
<g id="edge5" class="edge">
<title>Node1&#45;&gt;Node6</title>
<path fill="none" stroke="midnightblue" d="M311,-56.5C311,-48.07 311,-38.24 311,-29.87"/>
<polygon fill="midnightblue" stroke="midnightblue" points="314.5,-29.65 311,-19.65 307.5,-29.65 314.5,-29.65"/>
</g>
<!-- Node7 -->
<g id="node7" class="node">
<title>Node7</title>
<g id="a_node7"><a xlink:title=" ">
<polygon fill="white" stroke="#bfbfbf" points="360.5,-0.5 360.5,-19.5 411.5,-19.5 411.5,-0.5 360.5,-0.5"/>
<text text-anchor="middle" x="386" y="-7.5" font-family="Helvetica,sans-Serif" font-size="10.00">errno.h</text>
</a>
</g>
</g>
<!-- Node1&#45;&gt;Node7 -->
<g id="edge6" class="edge">
<title>Node1&#45;&gt;Node7</title>
<path fill="none" stroke="midnightblue" d="M333.5,-56.5C344.67,-46.82 357.96,-35.3 368.38,-26.27"/>
<polygon fill="midnightblue" stroke="midnightblue" points="370.75,-28.85 376.02,-19.65 366.17,-23.56 370.75,-28.85"/>
</g>
<!-- Node8 -->
<g id="node8" class="node">
<title>Node8</title>
<g id="a_node8"><a xlink:title=" ">
<polygon fill="white" stroke="#bfbfbf" points="429.5,-0.5 429.5,-19.5 482.5,-19.5 482.5,-0.5 429.5,-0.5"/>
<text text-anchor="middle" x="456" y="-7.5" font-family="Helvetica,sans-Serif" font-size="10.00">ctype.h</text>
</a>
</g>
</g>
<!-- Node1&#45;&gt;Node8 -->
<g id="edge7" class="edge">
<title>Node1&#45;&gt;Node8</title>
<path fill="none" stroke="midnightblue" d="M354.5,-56.5C378.13,-45.91 406.66,-33.12 427.45,-23.8"/>
<polygon fill="midnightblue" stroke="midnightblue" points="429,-26.94 436.7,-19.65 426.14,-20.55 429,-26.94"/>
</g>
<!-- Node9 -->
<g id="node9" class="node">
<title>Node9</title>
<g id="a_node9"><a xlink:title=" ">
<polygon fill="white" stroke="#bfbfbf" points="500.5,-0.5 500.5,-19.5 553.5,-19.5 553.5,-0.5 500.5,-0.5"/>
<text text-anchor="middle" x="527" y="-7.5" font-family="Helvetica,sans-Serif" font-size="10.00">limits.h</text>
</a>
</g>
</g>
<!-- Node1&#45;&gt;Node9 -->
<g id="edge8" class="edge">
<title>Node1&#45;&gt;Node9</title>
<path fill="none" stroke="midnightblue" d="M374.64,-56.85C412.48,-45.46 459.12,-31.43 490.75,-21.91"/>
<polygon fill="midnightblue" stroke="midnightblue" points="491.9,-25.22 500.47,-18.98 489.88,-18.51 491.9,-25.22"/>
</g>
<!-- Node10 -->
<g id="node10" class="node">
<title>Node10</title>
<g id="a_node10"><a xlink:href="../../da/d1e/var__struc_8h.html" target="_top" xlink:title="This file is the header file of some globally common variables and structural bodies.">
<polygon fill="white" stroke="black" points="572,-0.5 572,-19.5 690,-19.5 690,-0.5 572,-0.5"/>
<text text-anchor="middle" x="631" y="-7.5" font-family="Helvetica,sans-Serif" font-size="10.00">../include/var_struc.h</text>
</a>
</g>
</g>
<!-- Node1&#45;&gt;Node10 -->
<g id="edge9" class="edge">
<title>Node1&#45;&gt;Node10</title>
<path fill="none" stroke="midnightblue" d="M374.6,-63.08C434.49,-50.92 523.1,-32.92 578.9,-21.58"/>
<polygon fill="midnightblue" stroke="midnightblue" points="579.83,-24.97 588.93,-19.55 578.43,-18.11 579.83,-24.97"/>
</g>
</g>
</svg>
