<?xml version="1.0" encoding="UTF-8" standalone="no"?>
<!DOCTYPE svg PUBLIC "-//W3C//DTD SVG 1.1//EN"
 "http://www.w3.org/Graphics/SVG/1.1/DTD/svg11.dtd">
<!-- Generated by graphviz version 6.0.1 (0)
 -->
<!-- Title: CreateDir Pages: 1 -->
<svg width="407pt" height="142pt"
 viewBox="0.00 0.00 407.00 142.00" xmlns="http://www.w3.org/2000/svg" xmlns:xlink="http://www.w3.org/1999/xlink">
<g id="graph0" class="graph" transform="scale(1 1) rotate(0) translate(4 138)">
<title>CreateDir</title>
<polygon fill="white" stroke="none" points="-4,4 -4,-138 403,-138 403,4 -4,4"/>
<!-- Node1 -->
<g id="node1" class="node">
<title>Node1</title>
<g id="a_node1"><a xlink:title="This is a function that recursively creates folders.">
<polygon fill="#bfbfbf" stroke="black" points="336,-57.5 336,-76.5 399,-76.5 399,-57.5 336,-57.5"/>
<text text-anchor="middle" x="367.5" y="-64.5" font-family="Helvetica,sans-Serif" font-size="10.00">CreateDir</text>
</a>
</g>
</g>
<!-- Node2 -->
<g id="node2" class="node">
<title>Node2</title>
<g id="a_node2"><a xlink:href="../../d4/de5/io__control_8c.html#a7e039d23ca87a439fbe9c9d336447887" target="_top" xlink:title="This function produces folder path for data input or output.">
<polygon fill="white" stroke="black" points="226,-57.5 226,-76.5 300,-76.5 300,-57.5 226,-57.5"/>
<text text-anchor="middle" x="263" y="-64.5" font-family="Helvetica,sans-Serif" font-size="10.00">example_io</text>
</a>
</g>
</g>
<!-- Node1&#45;&gt;Node2 -->
<g id="edge1" class="edge">
<title>Node1&#45;&gt;Node2</title>
<path fill="none" stroke="midnightblue" d="M325.7,-67C317.26,-67 308.41,-67 300.14,-67"/>
<polygon fill="midnightblue" stroke="midnightblue" points="325.75,-70.5 335.75,-67 325.75,-63.5 325.75,-70.5"/>
</g>
<!-- Node3 -->
<g id="node3" class="node">
<title>Node3</title>
<g id="a_node3"><a xlink:href="../../df/d38/file__1_d__out_8c.html#a5edc2b6fa84841a6fb96918b065603cb" target="_top" xlink:title="This function write the 1&#45;D solution into output &#39;.dat&#39; files.">
<polygon fill="white" stroke="black" points="93,-114.5 93,-133.5 174,-133.5 174,-114.5 93,-114.5"/>
<text text-anchor="middle" x="133.5" y="-121.5" font-family="Helvetica,sans-Serif" font-size="10.00">file_1D_write</text>
</a>
</g>
</g>
<!-- Node2&#45;&gt;Node3 -->
<g id="edge2" class="edge">
<title>Node2&#45;&gt;Node3</title>
<path fill="none" stroke="midnightblue" d="M236.98,-81.44C223.34,-88.99 206.02,-98.08 190,-105 182.05,-108.43 173.26,-111.68 165.07,-114.49"/>
<polygon fill="midnightblue" stroke="midnightblue" points="238.77,-84.45 245.77,-76.5 235.34,-78.35 238.77,-84.45"/>
</g>
<!-- Node5 -->
<g id="node5" class="node">
<title>Node5</title>
<g id="a_node5"><a xlink:href="../../d4/d39/file__out__hdf5_8c.html#a183247d78d231c5a6fc920674e92d857" target="_top" xlink:title="This function write the 1&#45;D solution into HDF5 output &#39;.h5&#39; files.">
<polygon fill="white" stroke="black" points="77,-76.5 77,-95.5 190,-95.5 190,-76.5 77,-76.5"/>
<text text-anchor="middle" x="133.5" y="-83.5" font-family="Helvetica,sans-Serif" font-size="10.00">file_1D_write_HDF5</text>
</a>
</g>
</g>
<!-- Node2&#45;&gt;Node5 -->
<g id="edge4" class="edge">
<title>Node2&#45;&gt;Node5</title>
<path fill="none" stroke="midnightblue" d="M215.65,-73.91C207.43,-75.13 198.78,-76.42 190.32,-77.68"/>
<polygon fill="midnightblue" stroke="midnightblue" points="216.43,-77.33 225.8,-72.39 215.4,-70.41 216.43,-77.33"/>
</g>
<!-- Node6 -->
<g id="node6" class="node">
<title>Node6</title>
<g id="a_node6"><a xlink:href="../../d4/d39/file__out__hdf5_8c.html#a23e6202deeb430def9c660b183591c22" target="_top" xlink:title="This function write the 2&#45;D solution into HDF5 output &#39;.h5&#39; files.">
<polygon fill="white" stroke="black" points="77,-38.5 77,-57.5 190,-57.5 190,-38.5 77,-38.5"/>
<text text-anchor="middle" x="133.5" y="-45.5" font-family="Helvetica,sans-Serif" font-size="10.00">file_2D_write_HDF5</text>
</a>
</g>
</g>
<!-- Node2&#45;&gt;Node6 -->
<g id="edge6" class="edge">
<title>Node2&#45;&gt;Node6</title>
<path fill="none" stroke="midnightblue" d="M215.65,-60.09C207.43,-58.87 198.78,-57.58 190.32,-56.32"/>
<polygon fill="midnightblue" stroke="midnightblue" points="215.4,-63.59 225.8,-61.61 216.43,-56.67 215.4,-63.59"/>
</g>
<!-- Node7 -->
<g id="node7" class="node">
<title>Node7</title>
<g id="a_node7"><a xlink:href="../../d9/d89/file__1_d__in_8c.html#afa89583d6583e954878dee9bab9cf7d9" target="_top" xlink:title="This function reads the 1&#45;D initial data file of density/velocity/pressure and performs some other in...">
<polygon fill="white" stroke="black" points="95,-0.5 95,-19.5 172,-19.5 172,-0.5 95,-0.5"/>
<text text-anchor="middle" x="133.5" y="-7.5" font-family="Helvetica,sans-Serif" font-size="10.00">initialize_1D</text>
</a>
</g>
</g>
<!-- Node2&#45;&gt;Node7 -->
<g id="edge7" class="edge">
<title>Node2&#45;&gt;Node7</title>
<path fill="none" stroke="midnightblue" d="M236.98,-52.56C223.34,-45.01 206.02,-35.92 190,-29 182.05,-25.57 173.26,-22.32 165.07,-19.51"/>
<polygon fill="midnightblue" stroke="midnightblue" points="235.34,-55.65 245.77,-57.5 238.77,-49.55 235.34,-55.65"/>
</g>
<!-- Node4 -->
<g id="node4" class="node">
<title>Node4</title>
<g id="a_node4"><a xlink:href="../../d2/d24/hydrocode_8c.html#a0ddf1224851353fc92bfbff6f499fa97" target="_top" xlink:title="This is the main function which constructs the main structure of the 1&#45;D Lagrangian/Eulerian hydrocod...">
<polygon fill="white" stroke="black" points="0,-76.5 0,-95.5 41,-95.5 41,-76.5 0,-76.5"/>
<text text-anchor="middle" x="20.5" y="-83.5" font-family="Helvetica,sans-Serif" font-size="10.00">main</text>
</a>
</g>
</g>
<!-- Node3&#45;&gt;Node4 -->
<g id="edge3" class="edge">
<title>Node3&#45;&gt;Node4</title>
<path fill="none" stroke="midnightblue" d="M94.82,-111.1C76.79,-104.93 55.95,-97.79 41.1,-92.71"/>
<polygon fill="midnightblue" stroke="midnightblue" points="93.9,-114.48 104.49,-114.41 96.16,-107.86 93.9,-114.48"/>
</g>
<!-- Node5&#45;&gt;Node4 -->
<g id="edge5" class="edge">
<title>Node5&#45;&gt;Node4</title>
<path fill="none" stroke="midnightblue" d="M66.58,-86C57.37,-86 48.56,-86 41.21,-86"/>
<polygon fill="midnightblue" stroke="midnightblue" points="66.67,-89.5 76.67,-86 66.67,-82.5 66.67,-89.5"/>
</g>
<!-- Node7&#45;&gt;Node4 -->
<g id="edge8" class="edge">
<title>Node7&#45;&gt;Node4</title>
<path fill="none" stroke="midnightblue" d="M87.04,-23.55C83.54,-25.19 80.15,-27 77,-29 56.69,-41.85 38.35,-63.57 28.68,-76.16"/>
<polygon fill="midnightblue" stroke="midnightblue" points="88.57,-26.7 96.43,-19.59 85.85,-20.25 88.57,-26.7"/>
</g>
</g>
</svg>
