<?xml version="1.0" encoding="UTF-8" standalone="no"?>
<!DOCTYPE svg PUBLIC "-//W3C//DTD SVG 1.1//EN"
 "http://www.w3.org/Graphics/SVG/1.1/DTD/svg11.dtd">
<!-- Generated by graphviz version 6.0.1 (0)
 -->
<!-- Title: useVIPLimiter Pages: 1 -->
<svg width="346pt" height="159pt"
 viewBox="0.00 0.00 346.00 158.61" xmlns="http://www.w3.org/2000/svg" xmlns:xlink="http://www.w3.org/1999/xlink">
<g id="graph0" class="graph" transform="scale(1 1) rotate(0) translate(4 154.61)">
<title>useVIPLimiter</title>
<polygon fill="white" stroke="none" points="-4,4 -4,-154.61 342,-154.61 342,4 -4,4"/>
<!-- Node1 -->
<g id="node1" class="node">
<title>Node1</title>
<g id="a_node1"><a xlink:title="Subroutine of using VIP limiter for 2D velocity vector.">
<polygon fill="#bfbfbf" stroke="black" points="0,-55.11 0,-74.11 84,-74.11 84,-55.11 0,-55.11"/>
<text text-anchor="middle" x="42" y="-62.11" font-family="Helvetica,sans-Serif" font-size="10.00">useVIPLimiter</text>
</a>
</g>
</g>
<!-- Node2 -->
<g id="node2" class="node">
<title>Node2</title>
<g id="a_node2"><a xlink:href="../../d6/d7d/_v_i_p_limiter_8cpp.html#aa2e364f2941c012203e62b27d509a605" target="_top" xlink:title=" ">
<polygon fill="white" stroke="black" points="258,-112.11 258,-131.11 325,-131.11 325,-112.11 258,-112.11"/>
<text text-anchor="middle" x="291.5" y="-119.11" font-family="Helvetica,sans-Serif" font-size="10.00">getTriArea</text>
</a>
</g>
</g>
<!-- Node1&#45;&gt;Node2 -->
<g id="edge1" class="edge">
<title>Node1&#45;&gt;Node2</title>
<path fill="none" stroke="midnightblue" d="M80.95,-74.15C93.38,-77.23 107.27,-80.62 120,-83.61 163.35,-93.78 213.05,-104.78 247.56,-112.32"/>
<polygon fill="midnightblue" stroke="midnightblue" points="247.25,-115.83 257.76,-114.54 248.74,-108.99 247.25,-115.83"/>
</g>
<!-- Node3 -->
<g id="node3" class="node">
<title>Node3</title>
<g id="a_node3"><a xlink:href="../../d6/d7d/_v_i_p_limiter_8cpp.html#a9d0226d29242b8bcd92a632ad1fcbb9b" target="_top" xlink:title=" ">
<polygon fill="white" stroke="black" points="121.5,-17.11 121.5,-36.11 207.5,-36.11 207.5,-17.11 121.5,-17.11"/>
<text text-anchor="middle" x="164.5" y="-24.11" font-family="Helvetica,sans-Serif" font-size="10.00">insideQuadCH</text>
</a>
</g>
</g>
<!-- Node1&#45;&gt;Node3 -->
<g id="edge2" class="edge">
<title>Node1&#45;&gt;Node3</title>
<path fill="none" stroke="midnightblue" d="M73.41,-55.02C88.53,-50.25 107.02,-44.42 123.3,-39.28"/>
<polygon fill="midnightblue" stroke="midnightblue" points="124.62,-42.54 133.1,-36.19 122.51,-35.86 124.62,-42.54"/>
</g>
<!-- Node5 -->
<g id="node5" class="node">
<title>Node5</title>
<g id="a_node5"><a xlink:href="../../d6/d7d/_v_i_p_limiter_8cpp.html#ac879daee268a950b8be834e47c9d37b2" target="_top" xlink:title=" ">
<polygon fill="white" stroke="black" points="253,-17.11 253,-36.11 330,-36.11 330,-17.11 253,-17.11"/>
<text text-anchor="middle" x="291.5" y="-24.11" font-family="Helvetica,sans-Serif" font-size="10.00">obtuseAngle</text>
</a>
</g>
</g>
<!-- Node1&#45;&gt;Node5 -->
<g id="edge10" class="edge">
<title>Node1&#45;&gt;Node5</title>
<path fill="none" stroke="midnightblue" d="M51.81,-55C65.05,-41.35 91.57,-16.98 120,-7.61 164.92,7.21 219.73,-3.67 254.87,-14.06"/>
<polygon fill="midnightblue" stroke="midnightblue" points="254.08,-17.49 264.67,-17.1 256.15,-10.8 254.08,-17.49"/>
</g>
<!-- Node6 -->
<g id="node6" class="node">
<title>Node6</title>
<g id="a_node6"><a xlink:href="../../d6/d7d/_v_i_p_limiter_8cpp.html#a904665fb564a0750ebc460f9f31366eb" target="_top" xlink:title=" ">
<polygon fill="white" stroke="black" points="120,-131.11 120,-150.11 209,-150.11 209,-131.11 120,-131.11"/>
<text text-anchor="middle" x="164.5" y="-138.11" font-family="Helvetica,sans-Serif" font-size="10.00">insideSegment</text>
</a>
</g>
</g>
<!-- Node1&#45;&gt;Node6 -->
<g id="edge5" class="edge">
<title>Node1&#45;&gt;Node6</title>
<path fill="none" stroke="midnightblue" d="M56.39,-74.19C71.56,-84.91 97.16,-102.63 120,-116.61 125.18,-119.78 130.81,-123.02 136.24,-126.06"/>
<polygon fill="midnightblue" stroke="midnightblue" points="134.64,-129.17 145.09,-130.92 138.01,-123.04 134.64,-129.17"/>
</g>
<!-- Node7 -->
<g id="node7" class="node">
<title>Node7</title>
<g id="a_node7"><a xlink:href="../../d6/d7d/_v_i_p_limiter_8cpp.html#a4926d1cbff5b2f8531a0d136f4cf05ae" target="_top" xlink:title=" ">
<polygon fill="white" stroke="black" points="128.5,-55.11 128.5,-74.11 200.5,-74.11 200.5,-55.11 128.5,-55.11"/>
<text text-anchor="middle" x="164.5" y="-62.11" font-family="Helvetica,sans-Serif" font-size="10.00">insideTriCH</text>
</a>
</g>
</g>
<!-- Node1&#45;&gt;Node7 -->
<g id="edge7" class="edge">
<title>Node1&#45;&gt;Node7</title>
<path fill="none" stroke="midnightblue" d="M84.13,-64.61C95.09,-64.61 107,-64.61 118.17,-64.61"/>
<polygon fill="midnightblue" stroke="midnightblue" points="118.18,-68.11 128.18,-64.61 118.18,-61.11 118.18,-68.11"/>
</g>
<!-- Node4 -->
<g id="node4" class="node">
<title>Node4</title>
<g id="a_node4"><a xlink:href="../../d6/d7d/_v_i_p_limiter_8cpp.html#ae4c30e0ecabf2aec36a073f3a8123696" target="_top" xlink:title=" ">
<polygon fill="white" stroke="black" points="245,-55.11 245,-74.11 338,-74.11 338,-55.11 245,-55.11"/>
<text text-anchor="middle" x="291.5" y="-62.11" font-family="Helvetica,sans-Serif" font-size="10.00">getPerpendFoot</text>
</a>
</g>
</g>
<!-- Node3&#45;&gt;Node4 -->
<g id="edge3" class="edge">
<title>Node3&#45;&gt;Node4</title>
<path fill="none" stroke="midnightblue" d="M197.04,-36.19C212.88,-41.01 232.27,-46.9 249.28,-52.07"/>
<polygon fill="midnightblue" stroke="midnightblue" points="248.38,-55.46 258.97,-55.02 250.42,-48.76 248.38,-55.46"/>
</g>
<!-- Node3&#45;&gt;Node5 -->
<g id="edge4" class="edge">
<title>Node3&#45;&gt;Node5</title>
<path fill="none" stroke="midnightblue" d="M207.82,-26.61C218.99,-26.61 231.12,-26.61 242.57,-26.61"/>
<polygon fill="midnightblue" stroke="midnightblue" points="242.84,-30.11 252.84,-26.61 242.84,-23.11 242.84,-30.11"/>
</g>
<!-- Node6&#45;&gt;Node2 -->
<g id="edge6" class="edge">
<title>Node6&#45;&gt;Node2</title>
<path fill="none" stroke="midnightblue" d="M209.22,-133.96C221.65,-132.07 235.17,-130.02 247.56,-128.13"/>
<polygon fill="midnightblue" stroke="midnightblue" points="248.28,-131.56 257.64,-126.6 247.23,-124.64 248.28,-131.56"/>
</g>
<!-- Node7&#45;&gt;Node4 -->
<g id="edge8" class="edge">
<title>Node7&#45;&gt;Node4</title>
<path fill="none" stroke="midnightblue" d="M200.65,-64.61C211.26,-64.61 223.19,-64.61 234.79,-64.61"/>
<polygon fill="midnightblue" stroke="midnightblue" points="234.87,-68.11 244.87,-64.61 234.87,-61.11 234.87,-68.11"/>
</g>
<!-- Node7&#45;&gt;Node5 -->
<g id="edge9" class="edge">
<title>Node7&#45;&gt;Node5</title>
<path fill="none" stroke="midnightblue" d="M197.04,-55.02C212.88,-50.2 232.27,-44.31 249.28,-39.14"/>
<polygon fill="midnightblue" stroke="midnightblue" points="250.42,-42.45 258.97,-36.19 248.38,-35.75 250.42,-42.45"/>
</g>
</g>
</svg>
