<?xml version="1.0" encoding="UTF-8" standalone="no"?>
<!DOCTYPE svg PUBLIC "-//W3C//DTD SVG 1.1//EN"
 "http://www.w3.org/Graphics/SVG/1.1/DTD/svg11.dtd">
<!-- Generated by graphviz version 5.0.0 (0)
 -->
<!-- Title: Riemann_solver_exact Pages: 1 -->
<svg width="918pt" height="104pt"
 viewBox="0.00 0.00 918.00 104.00" xmlns="http://www.w3.org/2000/svg" xmlns:xlink="http://www.w3.org/1999/xlink">
<g id="graph0" class="graph" transform="scale(1 1) rotate(0) translate(4 100)">
<title>Riemann_solver_exact</title>
<polygon fill="white" stroke="transparent" points="-4,4 -4,-100 914,-100 914,4 -4,4"/>
<!-- Node1 -->
<g id="node1" class="node">
<title>Node1</title>
<g id="a_node1"><a xlink:title="EXACT RIEMANN SOLVER FOR Two&#45;Component γ&#45;Law Gas">
<polygon fill="#bfbfbf" stroke="black" points="782,-38.5 782,-57.5 910,-57.5 910,-38.5 782,-38.5"/>
<text text-anchor="middle" x="846" y="-45.5" font-family="Helvetica,sans-Serif" font-size="10.00">Riemann_solver_exact</text>
</a>
</g>
</g>
<!-- Node2 -->
<g id="node2" class="node">
<title>Node2</title>
<g id="a_node2"><a xlink:href="../../d3/da7/linear___g_r_p__solver___edir___g2_d_8c.html#aff686a52210d82c346d2537c0c704ef3" target="_top" xlink:title="A Genuinely&#45;2D direct Eulerian GRP solver for unsteady compressible inviscid two&#45;component flow in tw...">
<polygon fill="white" stroke="black" points="400,-76.5 400,-95.5 555,-95.5 555,-76.5 400,-76.5"/>
<text text-anchor="middle" x="477.5" y="-83.5" font-family="Helvetica,sans-Serif" font-size="10.00">linear_GRP_solver_Edir_G2D</text>
</a>
</g>
</g>
<!-- Node1&#45;&gt;Node2 -->
<g id="edge1" class="edge">
<title>Node1&#45;&gt;Node2</title>
<path fill="none" stroke="midnightblue" d="M791.4,-59.49C776.74,-62.3 760.8,-65.06 746,-67 681.95,-75.39 608.75,-80.27 555.13,-82.97"/>
<polygon fill="midnightblue" stroke="midnightblue" points="792.18,-62.9 801.32,-57.54 790.83,-56.03 792.18,-62.9"/>
</g>
<!-- Node3 -->
<g id="node3" class="node">
<title>Node3</title>
<g id="a_node3"><a xlink:href="../../d5/dea/linear___g_r_p__solver___edir___q1_d_8c.html#a2d9faf2079b8b005ff0154c65f8d41f2" target="_top" xlink:title="A Quasi&#45;1D direct Eulerian GRP solver for unsteady compressible inviscid two&#45;component flow in two sp...">
<polygon fill="white" stroke="black" points="591,-38.5 591,-57.5 746,-57.5 746,-38.5 591,-38.5"/>
<text text-anchor="middle" x="668.5" y="-45.5" font-family="Helvetica,sans-Serif" font-size="10.00">linear_GRP_solver_Edir_Q1D</text>
</a>
</g>
</g>
<!-- Node1&#45;&gt;Node3 -->
<g id="edge2" class="edge">
<title>Node1&#45;&gt;Node3</title>
<path fill="none" stroke="midnightblue" d="M771.55,-48C763.18,-48 754.64,-48 746.24,-48"/>
<polygon fill="midnightblue" stroke="midnightblue" points="771.64,-51.5 781.64,-48 771.64,-44.5 771.64,-51.5"/>
</g>
<!-- Node10 -->
<g id="node10" class="node">
<title>Node10</title>
<g id="a_node10"><a xlink:href="../../de/d81/linear___g_r_p__solver___l_a_g_8c.html#a6567802e291121380cc9765c6f46a1fb" target="_top" xlink:title="A Lagrangian GRP solver for unsteady compressible inviscid two&#45;component flow in one space dimension.">
<polygon fill="white" stroke="black" points="603,-0.5 603,-19.5 734,-19.5 734,-0.5 603,-0.5"/>
<text text-anchor="middle" x="668.5" y="-7.5" font-family="Helvetica,sans-Serif" font-size="10.00">linear_GRP_solver_LAG</text>
</a>
</g>
</g>
<!-- Node1&#45;&gt;Node10 -->
<g id="edge13" class="edge">
<title>Node1&#45;&gt;Node10</title>
<path fill="none" stroke="midnightblue" d="M790.72,-36.25C765.91,-30.87 736.89,-24.59 713.47,-19.52"/>
<polygon fill="midnightblue" stroke="midnightblue" points="790.2,-39.72 800.71,-38.41 791.68,-32.87 790.2,-39.72"/>
</g>
<!-- Node3&#45;&gt;Node2 -->
<g id="edge12" class="edge">
<title>Node3&#45;&gt;Node2</title>
<path fill="none" stroke="midnightblue" d="M609.76,-59.61C582.88,-65.01 551.3,-71.36 525.85,-76.48"/>
<polygon fill="midnightblue" stroke="midnightblue" points="610.69,-62.99 619.81,-57.59 609.31,-56.13 610.69,-62.99"/>
</g>
<!-- Node4 -->
<g id="node4" class="node">
<title>Node4</title>
<g id="a_node4"><a xlink:href="../../d5/d55/flux__solver_8c.html#a49938584f813ee4c3756f8aba45325de" target="_top" xlink:title="This function calculate Eulerian fluxes of 2&#45;D Euler equations by 2&#45;D GRP solver.">
<polygon fill="white" stroke="black" points="437.5,-38.5 437.5,-57.5 517.5,-57.5 517.5,-38.5 437.5,-38.5"/>
<text text-anchor="middle" x="477.5" y="-45.5" font-family="Helvetica,sans-Serif" font-size="10.00">GRP_2D_flux</text>
</a>
</g>
</g>
<!-- Node3&#45;&gt;Node4 -->
<g id="edge3" class="edge">
<title>Node3&#45;&gt;Node4</title>
<path fill="none" stroke="midnightblue" d="M580.79,-48C558.67,-48 535.98,-48 517.61,-48"/>
<polygon fill="midnightblue" stroke="midnightblue" points="580.9,-51.5 590.9,-48 580.9,-44.5 580.9,-51.5"/>
</g>
<!-- Node5 -->
<g id="node5" class="node">
<title>Node5</title>
<g id="a_node5"><a xlink:href="../../de/d35/flux__generator__x_8c.html#a99d3c20c9f68680b85415265ecd67b60" target="_top" xlink:title="This function calculate Eulerian fluxes of 2&#45;D Euler equations in x&#45;direction by 2&#45;D GRP solver.">
<polygon fill="white" stroke="black" points="265,-57.5 265,-76.5 364,-76.5 364,-57.5 265,-57.5"/>
<text text-anchor="middle" x="314.5" y="-64.5" font-family="Helvetica,sans-Serif" font-size="10.00">flux_generator_x</text>
</a>
</g>
</g>
<!-- Node4&#45;&gt;Node5 -->
<g id="edge4" class="edge">
<title>Node4&#45;&gt;Node5</title>
<path fill="none" stroke="midnightblue" d="M426.99,-53.84C407.06,-56.2 384.13,-58.9 364.27,-61.24"/>
<polygon fill="midnightblue" stroke="midnightblue" points="427.59,-57.3 437.11,-52.65 426.77,-50.34 427.59,-57.3"/>
</g>
<!-- Node9 -->
<g id="node9" class="node">
<title>Node9</title>
<g id="a_node9"><a xlink:href="../../de/db1/flux__generator__y_8c.html#a964701ac9bd65f6b19c3c731e983d562" target="_top" xlink:title="This function calculate Eulerian fluxes of 2&#45;D Euler equations in y&#45;direction by 2&#45;D GRP solver.">
<polygon fill="white" stroke="black" points="265,-19.5 265,-38.5 364,-38.5 364,-19.5 265,-19.5"/>
<text text-anchor="middle" x="314.5" y="-26.5" font-family="Helvetica,sans-Serif" font-size="10.00">flux_generator_y</text>
</a>
</g>
</g>
<!-- Node4&#45;&gt;Node9 -->
<g id="edge9" class="edge">
<title>Node4&#45;&gt;Node9</title>
<path fill="none" stroke="midnightblue" d="M426.99,-42.16C407.06,-39.8 384.13,-37.1 364.27,-34.76"/>
<polygon fill="midnightblue" stroke="midnightblue" points="426.77,-45.66 437.11,-43.35 427.59,-38.7 426.77,-45.66"/>
</g>
<!-- Node6 -->
<g id="node6" class="node">
<title>Node6</title>
<g id="a_node6"><a xlink:href="../../d6/d0f/_g_r_p__solver__2_d___e_u_l__source_8c.html#ad2ed8a0ffbf2c3b9eb692984e9fbc6f2" target="_top" xlink:title="This function use GRP scheme to solve 2&#45;D Euler equations of motion on Eulerian coordinate without di...">
<polygon fill="white" stroke="black" points="77,-60.5 77,-79.5 229,-79.5 229,-60.5 77,-60.5"/>
<text text-anchor="middle" x="153" y="-67.5" font-family="Helvetica,sans-Serif" font-size="10.00">GRP_solver_2D_EUL_source</text>
</a>
</g>
</g>
<!-- Node5&#45;&gt;Node6 -->
<g id="edge5" class="edge">
<title>Node5&#45;&gt;Node6</title>
<path fill="none" stroke="midnightblue" d="M254.51,-68.11C246.25,-68.26 237.67,-68.43 229.16,-68.59"/>
<polygon fill="midnightblue" stroke="midnightblue" points="254.85,-71.6 264.78,-67.92 254.71,-64.61 254.85,-71.6"/>
</g>
<!-- Node8 -->
<g id="node8" class="node">
<title>Node8</title>
<g id="a_node8"><a xlink:href="../../dc/d9e/_g_r_p__solver__2_d__split___e_u_l__source_8c.html#a196c7b4e4415c20bbdfc3dd294653b66" target="_top" xlink:title="This function use GRP scheme to solve 2&#45;D Euler equations of motion on Eulerian coordinate with dimen...">
<polygon fill="white" stroke="black" points="94.5,-11 94.5,-41 211.5,-41 211.5,-11 94.5,-11"/>
<text text-anchor="start" x="102.5" y="-29" font-family="Helvetica,sans-Serif" font-size="10.00">GRP_solver_2D_split</text>
<text text-anchor="middle" x="153" y="-18" font-family="Helvetica,sans-Serif" font-size="10.00">_EUL_source</text>
</a>
</g>
</g>
<!-- Node5&#45;&gt;Node8 -->
<g id="edge7" class="edge">
<title>Node5&#45;&gt;Node8</title>
<path fill="none" stroke="midnightblue" d="M266.69,-54.97C249.48,-50.54 229.78,-45.48 211.72,-40.84"/>
<polygon fill="midnightblue" stroke="midnightblue" points="265.95,-58.39 276.51,-57.49 267.69,-51.61 265.95,-58.39"/>
</g>
<!-- Node7 -->
<g id="node7" class="node">
<title>Node7</title>
<g id="a_node7"><a xlink:href="../../d2/d24/hydrocode_8c.html#a0ddf1224851353fc92bfbff6f499fa97" target="_top" xlink:title="This is the main function which constructs the main structure of the Eulerian hydrocode.">
<polygon fill="white" stroke="black" points="0,-38.5 0,-57.5 41,-57.5 41,-38.5 0,-38.5"/>
<text text-anchor="middle" x="20.5" y="-45.5" font-family="Helvetica,sans-Serif" font-size="10.00">main</text>
</a>
</g>
</g>
<!-- Node6&#45;&gt;Node7 -->
<g id="edge6" class="edge">
<title>Node6&#45;&gt;Node7</title>
<path fill="none" stroke="midnightblue" d="M85.45,-58.78C69.23,-56.05 53.12,-53.33 41.13,-51.31"/>
<polygon fill="midnightblue" stroke="midnightblue" points="85.08,-62.27 95.52,-60.48 86.24,-55.36 85.08,-62.27"/>
</g>
<!-- Node8&#45;&gt;Node7 -->
<g id="edge8" class="edge">
<title>Node8&#45;&gt;Node7</title>
<path fill="none" stroke="midnightblue" d="M84.48,-37.38C68.56,-40.07 52.82,-42.72 41.05,-44.7"/>
<polygon fill="midnightblue" stroke="midnightblue" points="85.1,-40.83 94.38,-35.71 83.94,-33.92 85.1,-40.83"/>
</g>
<!-- Node9&#45;&gt;Node6 -->
<g id="edge10" class="edge">
<title>Node9&#45;&gt;Node6</title>
<path fill="none" stroke="midnightblue" d="M267.21,-41.11C254.81,-44.34 241.4,-47.82 229,-51 216.9,-54.11 203.69,-57.46 191.78,-60.48"/>
<polygon fill="midnightblue" stroke="midnightblue" points="268.12,-44.49 276.91,-38.58 266.35,-37.72 268.12,-44.49"/>
</g>
<!-- Node9&#45;&gt;Node8 -->
<g id="edge11" class="edge">
<title>Node9&#45;&gt;Node8</title>
<path fill="none" stroke="midnightblue" d="M254.73,-27.89C240.68,-27.63 225.68,-27.35 211.67,-27.08"/>
<polygon fill="midnightblue" stroke="midnightblue" points="254.71,-31.39 264.78,-28.08 254.85,-24.4 254.71,-31.39"/>
</g>
<!-- Node11 -->
<g id="node11" class="node">
<title>Node11</title>
<g id="a_node11"><a xlink:href="../../dd/dd7/_g_r_p__solver___l_a_g__source_8c.html#a803248d0d521f8306a2850012b6d994c" target="_top" xlink:title="This function use GRP scheme to solve 1&#45;D Euler equations of motion on Lagrangian coordinate.">
<polygon fill="white" stroke="black" points="410,-0.5 410,-19.5 545,-19.5 545,-0.5 410,-0.5"/>
<text text-anchor="middle" x="477.5" y="-7.5" font-family="Helvetica,sans-Serif" font-size="10.00">GRP_solver_LAG_source</text>
</a>
</g>
</g>
<!-- Node10&#45;&gt;Node11 -->
<g id="edge14" class="edge">
<title>Node10&#45;&gt;Node11</title>
<path fill="none" stroke="midnightblue" d="M592.81,-10C577.12,-10 560.67,-10 545.3,-10"/>
<polygon fill="midnightblue" stroke="midnightblue" points="592.99,-13.5 602.99,-10 592.99,-6.5 592.99,-13.5"/>
</g>
</g>
</svg>
