<?xml version="1.0" encoding="UTF-8" standalone="no"?>
<!DOCTYPE svg PUBLIC "-//W3C//DTD SVG 1.1//EN"
 "http://www.w3.org/Graphics/SVG/1.1/DTD/svg11.dtd">
<!-- Generated by graphviz version 5.0.0 (0)
 -->
<!-- Title: GRP_solver_2D_EUL_source Pages: 1 -->
<svg width="867pt" height="180pt"
 viewBox="0.00 0.00 867.00 180.00" xmlns="http://www.w3.org/2000/svg" xmlns:xlink="http://www.w3.org/1999/xlink">
<g id="graph0" class="graph" transform="scale(1 1) rotate(0) translate(4 176)">
<title>GRP_solver_2D_EUL_source</title>
<polygon fill="white" stroke="transparent" points="-4,4 -4,-176 863,-176 863,4 -4,4"/>
<!-- Node1 -->
<g id="node1" class="node">
<title>Node1</title>
<g id="a_node1"><a xlink:title="This function use GRP scheme to solve 2&#45;D Euler equations of motion on Eulerian coordinate without di...">
<polygon fill="#bfbfbf" stroke="black" points="0,-76.5 0,-95.5 152,-95.5 152,-76.5 0,-76.5"/>
<text text-anchor="middle" x="76" y="-83.5" font-family="Helvetica,sans-Serif" font-size="10.00">GRP_solver_2D_EUL_source</text>
</a>
</g>
</g>
<!-- Node2 -->
<g id="node2" class="node">
<title>Node2</title>
<g id="a_node2"><a xlink:href="../../d8/d49/bound__cond__slope__limiter__x_8c.html#a93bebe7c69a9932a22ae8bfce51ab95c" target="_top" xlink:title="This function apply the minmod limiter to the slope in the x&#45;direction of two dimension.">
<polygon fill="white" stroke="black" points="188,-114.5 188,-133.5 343,-133.5 343,-114.5 188,-114.5"/>
<text text-anchor="middle" x="265.5" y="-121.5" font-family="Helvetica,sans-Serif" font-size="10.00">bound_cond_slope_limiter_x</text>
</a>
</g>
</g>
<!-- Node1&#45;&gt;Node2 -->
<g id="edge1" class="edge">
<title>Node1&#45;&gt;Node2</title>
<path fill="none" stroke="midnightblue" d="M124.31,-95.59C149.61,-100.72 180.95,-107.07 207.57,-112.46"/>
<polygon fill="midnightblue" stroke="midnightblue" points="207.03,-115.92 217.53,-114.48 208.42,-109.06 207.03,-115.92"/>
</g>
<!-- Node6 -->
<g id="node6" class="node">
<title>Node6</title>
<g id="a_node6"><a xlink:href="../../d8/dbb/bound__cond__slope__limiter__y_8c.html#aaf0175f075a4b153d671c163bc8275b6" target="_top" xlink:title="This function apply the minmod limiter to the slope in the y&#45;direction of two dimension.">
<polygon fill="white" stroke="black" points="188,-152.5 188,-171.5 343,-171.5 343,-152.5 188,-152.5"/>
<text text-anchor="middle" x="265.5" y="-159.5" font-family="Helvetica,sans-Serif" font-size="10.00">bound_cond_slope_limiter_y</text>
</a>
</g>
</g>
<!-- Node1&#45;&gt;Node6 -->
<g id="edge5" class="edge">
<title>Node1&#45;&gt;Node6</title>
<path fill="none" stroke="midnightblue" d="M92.65,-95.51C113.67,-107.94 152.51,-129.68 188,-143 194.69,-145.51 201.84,-147.79 208.98,-149.82"/>
<polygon fill="midnightblue" stroke="midnightblue" points="208.1,-153.21 218.67,-152.45 209.93,-146.45 208.1,-153.21"/>
</g>
<!-- Node8 -->
<g id="node8" class="node">
<title>Node8</title>
<g id="a_node8"><a xlink:href="../../d4/ddd/sys__pro_8c.html#aab058cac35713b52c083b9e54ffa45eb" target="_top" xlink:title="This function print a progress bar on one line of standard output.">
<polygon fill="white" stroke="black" points="238.5,-76.5 238.5,-95.5 292.5,-95.5 292.5,-76.5 238.5,-76.5"/>
<text text-anchor="middle" x="265.5" y="-83.5" font-family="Helvetica,sans-Serif" font-size="10.00">DispPro</text>
</a>
</g>
</g>
<!-- Node1&#45;&gt;Node8 -->
<g id="edge9" class="edge">
<title>Node1&#45;&gt;Node8</title>
<path fill="none" stroke="midnightblue" d="M152.18,-86C178.45,-86 206.74,-86 228.36,-86"/>
<polygon fill="midnightblue" stroke="midnightblue" points="228.4,-89.5 238.4,-86 228.4,-82.5 228.4,-89.5"/>
</g>
<!-- Node9 -->
<g id="node9" class="node">
<title>Node9</title>
<g id="a_node9"><a xlink:href="../../de/d35/flux__generator__x_8c.html#a99d3c20c9f68680b85415265ecd67b60" target="_top" xlink:title="This function calculate Eulerian fluxes of 2&#45;D Euler equations in x&#45;direction by 2&#45;D GRP solver.">
<polygon fill="white" stroke="black" points="216,-0.5 216,-19.5 315,-19.5 315,-0.5 216,-0.5"/>
<text text-anchor="middle" x="265.5" y="-7.5" font-family="Helvetica,sans-Serif" font-size="10.00">flux_generator_x</text>
</a>
</g>
</g>
<!-- Node1&#45;&gt;Node9 -->
<g id="edge10" class="edge">
<title>Node1&#45;&gt;Node9</title>
<path fill="none" stroke="midnightblue" d="M92.65,-76.49C113.67,-64.06 152.51,-42.32 188,-29 194.69,-26.49 201.84,-24.21 208.98,-22.18"/>
<polygon fill="midnightblue" stroke="midnightblue" points="209.93,-25.55 218.67,-19.55 208.1,-18.79 209.93,-25.55"/>
</g>
<!-- Node13 -->
<g id="node13" class="node">
<title>Node13</title>
<g id="a_node13"><a xlink:href="../../de/db1/flux__generator__y_8c.html#a964701ac9bd65f6b19c3c731e983d562" target="_top" xlink:title="This function calculate Eulerian fluxes of 2&#45;D Euler equations in y&#45;direction by 2&#45;D GRP solver.">
<polygon fill="white" stroke="black" points="216,-38.5 216,-57.5 315,-57.5 315,-38.5 216,-38.5"/>
<text text-anchor="middle" x="265.5" y="-45.5" font-family="Helvetica,sans-Serif" font-size="10.00">flux_generator_y</text>
</a>
</g>
</g>
<!-- Node1&#45;&gt;Node13 -->
<g id="edge14" class="edge">
<title>Node1&#45;&gt;Node13</title>
<path fill="none" stroke="midnightblue" d="M124.31,-76.41C149.61,-71.28 180.95,-64.93 207.57,-59.54"/>
<polygon fill="midnightblue" stroke="midnightblue" points="208.42,-62.94 217.53,-57.52 207.03,-56.08 208.42,-62.94"/>
</g>
<!-- Node3 -->
<g id="node3" class="node">
<title>Node3</title>
<g id="a_node3"><a xlink:href="../../d7/d36/slope__limiter__2_d__x_8c.html#a1305d8e7a55a4345482501a8a57ef353" target="_top" xlink:title="This function apply the minmod limiter to the slope in the x&#45;direction of two dimension.">
<polygon fill="white" stroke="black" points="379,-114.5 379,-133.5 504,-133.5 504,-114.5 379,-114.5"/>
<text text-anchor="middle" x="441.5" y="-121.5" font-family="Helvetica,sans-Serif" font-size="10.00">minmod_limiter_2D_x</text>
</a>
</g>
</g>
<!-- Node2&#45;&gt;Node3 -->
<g id="edge2" class="edge">
<title>Node2&#45;&gt;Node3</title>
<path fill="none" stroke="midnightblue" d="M343.07,-124C351.56,-124 360.19,-124 368.62,-124"/>
<polygon fill="midnightblue" stroke="midnightblue" points="368.78,-127.5 378.78,-124 368.78,-120.5 368.78,-127.5"/>
</g>
<!-- Node4 -->
<g id="node4" class="node">
<title>Node4</title>
<g id="a_node4"><a xlink:href="../../d5/da5/tools_8h.html#a56cac3298eeead8cf22c1e61eb5a5a88" target="_top" xlink:title="Minmod limiter function of two variables.">
<polygon fill="white" stroke="black" points="586,-114.5 586,-133.5 649,-133.5 649,-114.5 586,-114.5"/>
<text text-anchor="middle" x="617.5" y="-121.5" font-family="Helvetica,sans-Serif" font-size="10.00">minmod2</text>
</a>
</g>
</g>
<!-- Node3&#45;&gt;Node4 -->
<g id="edge3" class="edge">
<title>Node3&#45;&gt;Node4</title>
<path fill="none" stroke="midnightblue" d="M504.34,-124C527.9,-124 554.16,-124 575.34,-124"/>
<polygon fill="midnightblue" stroke="midnightblue" points="575.61,-127.5 585.61,-124 575.61,-120.5 575.61,-127.5"/>
</g>
<!-- Node5 -->
<g id="node5" class="node">
<title>Node5</title>
<g id="a_node5"><a xlink:href="../../d5/da5/tools_8h.html#a6dfba28e1af33b47f4656d3738996fe9" target="_top" xlink:title="Minmod limiter function of three variables.">
<polygon fill="white" stroke="black" points="586,-152.5 586,-171.5 649,-171.5 649,-152.5 586,-152.5"/>
<text text-anchor="middle" x="617.5" y="-159.5" font-family="Helvetica,sans-Serif" font-size="10.00">minmod3</text>
</a>
</g>
</g>
<!-- Node3&#45;&gt;Node5 -->
<g id="edge4" class="edge">
<title>Node3&#45;&gt;Node5</title>
<path fill="none" stroke="midnightblue" d="M486.41,-133.59C513.9,-139.59 549.08,-147.28 575.92,-153.14"/>
<polygon fill="midnightblue" stroke="midnightblue" points="575.25,-156.57 585.77,-155.29 576.74,-149.74 575.25,-156.57"/>
</g>
<!-- Node7 -->
<g id="node7" class="node">
<title>Node7</title>
<g id="a_node7"><a xlink:href="../../d2/d49/slope__limiter_8c.html#ae6551ab705937492c059ece48a3b2793" target="_top" xlink:title="This function apply the minmod limiter to the slope in one dimension.">
<polygon fill="white" stroke="black" points="394,-152.5 394,-171.5 489,-171.5 489,-152.5 394,-152.5"/>
<text text-anchor="middle" x="441.5" y="-159.5" font-family="Helvetica,sans-Serif" font-size="10.00">minmod_limiter</text>
</a>
</g>
</g>
<!-- Node6&#45;&gt;Node7 -->
<g id="edge6" class="edge">
<title>Node6&#45;&gt;Node7</title>
<path fill="none" stroke="midnightblue" d="M343.07,-162C356.74,-162 370.76,-162 383.75,-162"/>
<polygon fill="midnightblue" stroke="midnightblue" points="383.92,-165.5 393.92,-162 383.92,-158.5 383.92,-165.5"/>
</g>
<!-- Node7&#45;&gt;Node4 -->
<g id="edge7" class="edge">
<title>Node7&#45;&gt;Node4</title>
<path fill="none" stroke="midnightblue" d="M486.41,-152.41C513.9,-146.41 549.08,-138.72 575.92,-132.86"/>
<polygon fill="midnightblue" stroke="midnightblue" points="576.74,-136.26 585.77,-130.71 575.25,-129.43 576.74,-136.26"/>
</g>
<!-- Node7&#45;&gt;Node5 -->
<g id="edge8" class="edge">
<title>Node7&#45;&gt;Node5</title>
<path fill="none" stroke="midnightblue" d="M489.13,-162C516.11,-162 549.76,-162 575.69,-162"/>
<polygon fill="midnightblue" stroke="midnightblue" points="575.93,-165.5 585.93,-162 575.93,-158.5 575.93,-165.5"/>
</g>
<!-- Node10 -->
<g id="node10" class="node">
<title>Node10</title>
<g id="a_node10"><a xlink:href="../../d5/d55/flux__solver_8c.html#a49938584f813ee4c3756f8aba45325de" target="_top" xlink:title="This function calculate Eulerian fluxes of 2&#45;D Euler equations by 2&#45;D GRP solver.">
<polygon fill="white" stroke="black" points="401.5,-19.5 401.5,-38.5 481.5,-38.5 481.5,-19.5 401.5,-19.5"/>
<text text-anchor="middle" x="441.5" y="-26.5" font-family="Helvetica,sans-Serif" font-size="10.00">GRP_2D_flux</text>
</a>
</g>
</g>
<!-- Node9&#45;&gt;Node10 -->
<g id="edge11" class="edge">
<title>Node9&#45;&gt;Node10</title>
<path fill="none" stroke="midnightblue" d="M315.43,-15.34C339.07,-17.92 367.39,-21.02 391.09,-23.6"/>
<polygon fill="midnightblue" stroke="midnightblue" points="390.96,-27.11 401.28,-24.72 391.72,-20.15 390.96,-27.11"/>
</g>
<!-- Node11 -->
<g id="node11" class="node">
<title>Node11</title>
<g id="a_node11"><a xlink:href="../../d5/dea/linear___g_r_p__solver___edir___q1_d_8c.html#a2d9faf2079b8b005ff0154c65f8d41f2" target="_top" xlink:title="A Quasi&#45;1D direct Eulerian GRP solver for unsteady compressible inviscid two&#45;component flow in two sp...">
<polygon fill="white" stroke="black" points="540,-19.5 540,-38.5 695,-38.5 695,-19.5 540,-19.5"/>
<text text-anchor="middle" x="617.5" y="-26.5" font-family="Helvetica,sans-Serif" font-size="10.00">linear_GRP_solver_Edir_Q1D</text>
</a>
</g>
</g>
<!-- Node10&#45;&gt;Node11 -->
<g id="edge12" class="edge">
<title>Node10&#45;&gt;Node11</title>
<path fill="none" stroke="midnightblue" d="M481.55,-29C495.82,-29 512.6,-29 529.38,-29"/>
<polygon fill="midnightblue" stroke="midnightblue" points="529.81,-32.5 539.81,-29 529.81,-25.5 529.81,-32.5"/>
</g>
<!-- Node12 -->
<g id="node12" class="node">
<title>Node12</title>
<g id="a_node12"><a xlink:href="../../d3/d54/_riemann__solver__exact___ben_8c.html#a3ad58b11c355d45ee406da49161edbd4" target="_top" xlink:title="EXACT RIEMANN SOLVER FOR Two&#45;Component γ&#45;Law Gas">
<polygon fill="white" stroke="black" points="731,-19.5 731,-38.5 859,-38.5 859,-19.5 731,-19.5"/>
<text text-anchor="middle" x="795" y="-26.5" font-family="Helvetica,sans-Serif" font-size="10.00">Riemann_solver_exact</text>
</a>
</g>
</g>
<!-- Node11&#45;&gt;Node12 -->
<g id="edge13" class="edge">
<title>Node11&#45;&gt;Node12</title>
<path fill="none" stroke="midnightblue" d="M695.22,-29C703.68,-29 712.28,-29 720.69,-29"/>
<polygon fill="midnightblue" stroke="midnightblue" points="720.85,-32.5 730.85,-29 720.85,-25.5 720.85,-32.5"/>
</g>
<!-- Node13&#45;&gt;Node10 -->
<g id="edge15" class="edge">
<title>Node13&#45;&gt;Node10</title>
<path fill="none" stroke="midnightblue" d="M315.43,-42.66C339.07,-40.08 367.39,-36.98 391.09,-34.4"/>
<polygon fill="midnightblue" stroke="midnightblue" points="391.72,-37.85 401.28,-33.28 390.96,-30.89 391.72,-37.85"/>
</g>
</g>
</svg>
