<?xml version="1.0" encoding="UTF-8" standalone="no"?>
<!DOCTYPE svg PUBLIC "-//W3C//DTD SVG 1.1//EN"
 "http://www.w3.org/Graphics/SVG/1.1/DTD/svg11.dtd">
<!-- Generated by graphviz version 6.0.1 (0)
 -->
<!-- Title: radial_mesh_update Pages: 1 -->
<svg width="368pt" height="56pt"
 viewBox="0.00 0.00 368.00 55.50" xmlns="http://www.w3.org/2000/svg" xmlns:xlink="http://www.w3.org/1999/xlink">
<g id="graph0" class="graph" transform="scale(1 1) rotate(0) translate(4 51.5)">
<title>radial_mesh_update</title>
<polygon fill="white" stroke="none" points="-4,4 -4,-51.5 364,-51.5 364,4 -4,4"/>
<!-- Node1 -->
<g id="node1" class="node">
<title>Node1</title>
<g id="a_node1"><a xlink:title="This function updates radially symmetric meshing variables after each time step update.">
<polygon fill="#bfbfbf" stroke="black" points="244,-0.5 244,-19.5 360,-19.5 360,-0.5 244,-0.5"/>
<text text-anchor="middle" x="302" y="-7.5" font-family="Helvetica,sans-Serif" font-size="10.00">radial_mesh_update</text>
</a>
</g>
</g>
<!-- Node2 -->
<g id="node2" class="node">
<title>Node2</title>
<g id="a_node2"><a xlink:href="../../d5/d63/grp__solver__radial___l_a_g__source_8c.html#a30b48b52a21ad448fd96c27727760837" target="_top" xlink:title="This function use GRP scheme to solve radially(cylindrically) symmetric compressible flows of motion ...">
<polygon fill="white" stroke="black" points="77,-17 77,-47 208,-47 208,-17 77,-17"/>
<text text-anchor="start" x="85" y="-35" font-family="Helvetica,sans-Serif" font-size="10.00">GRP_solver_radial_LAG</text>
<text text-anchor="middle" x="142.5" y="-24" font-family="Helvetica,sans-Serif" font-size="10.00">_source</text>
</a>
</g>
</g>
<!-- Node1&#45;&gt;Node2 -->
<g id="edge1" class="edge">
<title>Node1&#45;&gt;Node2</title>
<path fill="none" stroke="midnightblue" d="M233.56,-19.42C225.16,-20.59 216.59,-21.79 208.23,-22.96"/>
<polygon fill="midnightblue" stroke="midnightblue" points="234.27,-22.85 243.69,-18 233.31,-15.92 234.27,-22.85"/>
</g>
<!-- Node3 -->
<g id="node3" class="node">
<title>Node3</title>
<g id="a_node3"><a xlink:href="../../d2/d24/hydrocode_8c.html#a0ddf1224851353fc92bfbff6f499fa97" target="_top" xlink:title="This is the main function which constructs the main structure of the radially symmetric Lagrangian hy...">
<polygon fill="white" stroke="black" points="0,-0.5 0,-19.5 41,-19.5 41,-0.5 0,-0.5"/>
<text text-anchor="middle" x="20.5" y="-7.5" font-family="Helvetica,sans-Serif" font-size="10.00">main</text>
</a>
</g>
</g>
<!-- Node1&#45;&gt;Node3 -->
<g id="edge3" class="edge">
<title>Node1&#45;&gt;Node3</title>
<path fill="none" stroke="midnightblue" d="M233.82,-8.38C225.14,-8.23 216.36,-8.09 208,-8 149.78,-7.37 135.21,-6.95 77,-8 65.05,-8.22 51.65,-8.69 41.02,-9.12"/>
<polygon fill="midnightblue" stroke="midnightblue" points="233.89,-11.89 243.95,-8.58 234.02,-4.89 233.89,-11.89"/>
</g>
<!-- Node2&#45;&gt;Node3 -->
<g id="edge2" class="edge">
<title>Node2&#45;&gt;Node3</title>
<path fill="none" stroke="midnightblue" d="M66.91,-18.32C57.43,-16.59 48.46,-14.94 41.05,-13.58"/>
<polygon fill="midnightblue" stroke="midnightblue" points="66.47,-21.8 76.93,-20.16 67.73,-14.92 66.47,-21.8"/>
</g>
</g>
</svg>
