<?xml version="1.0" encoding="UTF-8" standalone="no"?>
<!DOCTYPE svg PUBLIC "-//W3C//DTD SVG 1.1//EN"
 "http://www.w3.org/Graphics/SVG/1.1/DTD/svg11.dtd">
<!-- Generated by graphviz version 6.0.1 (0)
 -->
<!-- Title: src~/hydrocode_2D/hydrocode.c Pages: 1 -->
<svg width="658pt" height="140pt"
 viewBox="0.00 0.00 657.50 140.00" xmlns="http://www.w3.org/2000/svg" xmlns:xlink="http://www.w3.org/1999/xlink">
<g id="graph0" class="graph" transform="scale(1 1) rotate(0) translate(4 136)">
<title>src~/hydrocode_2D/hydrocode.c</title>
<polygon fill="white" stroke="none" points="-4,4 -4,-136 653.5,-136 653.5,4 -4,4"/>
<!-- Node1 -->
<g id="node1" class="node">
<title>Node1</title>
<g id="a_node1"><a xlink:title="This is a C file of the main function.">
<polygon fill="#bfbfbf" stroke="black" points="183.5,-112.5 183.5,-131.5 357.5,-131.5 357.5,-112.5 183.5,-112.5"/>
<text text-anchor="middle" x="270.5" y="-119.5" font-family="Helvetica,sans-Serif" font-size="10.00">src~/hydrocode_2D/hydrocode.c</text>
</a>
</g>
</g>
<!-- Node2 -->
<g id="node2" class="node">
<title>Node2</title>
<g id="a_node2"><a xlink:title=" ">
<polygon fill="white" stroke="#bfbfbf" points="0,-56.5 0,-75.5 51,-75.5 51,-56.5 0,-56.5"/>
<text text-anchor="middle" x="25.5" y="-63.5" font-family="Helvetica,sans-Serif" font-size="10.00">errno.h</text>
</a>
</g>
</g>
<!-- Node1&#45;&gt;Node2 -->
<g id="edge1" class="edge">
<title>Node1&#45;&gt;Node2</title>
<path fill="none" stroke="midnightblue" d="M228.15,-112.45C187.73,-104.18 124.9,-91 60.94,-76.03"/>
<polygon fill="midnightblue" stroke="midnightblue" points="61.62,-72.59 51.08,-73.71 60.02,-79.41 61.62,-72.59"/>
</g>
<!-- Node3 -->
<g id="node3" class="node">
<title>Node3</title>
<g id="a_node3"><a xlink:title=" ">
<polygon fill="white" stroke="#bfbfbf" points="69.5,-56.5 69.5,-75.5 119.5,-75.5 119.5,-56.5 69.5,-56.5"/>
<text text-anchor="middle" x="94.5" y="-63.5" font-family="Helvetica,sans-Serif" font-size="10.00">stdio.h</text>
</a>
</g>
</g>
<!-- Node1&#45;&gt;Node3 -->
<g id="edge2" class="edge">
<title>Node1&#45;&gt;Node3</title>
<path fill="none" stroke="midnightblue" d="M242.61,-112.44C211.96,-103.04 162.66,-87.91 129.44,-77.72"/>
<polygon fill="midnightblue" stroke="midnightblue" points="130.28,-74.32 119.69,-74.73 128.22,-81.01 130.28,-74.32"/>
</g>
<!-- Node4 -->
<g id="node4" class="node">
<title>Node4</title>
<g id="a_node4"><a xlink:title=" ">
<polygon fill="white" stroke="#bfbfbf" points="138,-56.5 138,-75.5 191,-75.5 191,-56.5 138,-56.5"/>
<text text-anchor="middle" x="164.5" y="-63.5" font-family="Helvetica,sans-Serif" font-size="10.00">stdlib.h</text>
</a>
</g>
</g>
<!-- Node1&#45;&gt;Node4 -->
<g id="edge3" class="edge">
<title>Node1&#45;&gt;Node4</title>
<path fill="none" stroke="midnightblue" d="M253.47,-112.32C236.47,-103.66 210.12,-90.24 190.51,-80.25"/>
<polygon fill="midnightblue" stroke="midnightblue" points="191.99,-77.08 181.49,-75.65 188.81,-83.31 191.99,-77.08"/>
</g>
<!-- Node5 -->
<g id="node5" class="node">
<title>Node5</title>
<g id="a_node5"><a xlink:title=" ">
<polygon fill="white" stroke="#bfbfbf" points="209,-56.5 209,-75.5 262,-75.5 262,-56.5 209,-56.5"/>
<text text-anchor="middle" x="235.5" y="-63.5" font-family="Helvetica,sans-Serif" font-size="10.00">string.h</text>
</a>
</g>
</g>
<!-- Node1&#45;&gt;Node5 -->
<g id="edge4" class="edge">
<title>Node1&#45;&gt;Node5</title>
<path fill="none" stroke="midnightblue" d="M264.72,-112.08C259.83,-104.53 252.67,-93.49 246.67,-84.23"/>
<polygon fill="midnightblue" stroke="midnightblue" points="249.55,-82.24 241.17,-75.75 243.67,-86.05 249.55,-82.24"/>
</g>
<!-- Node6 -->
<g id="node6" class="node">
<title>Node6</title>
<g id="a_node6"><a xlink:title=" ">
<polygon fill="white" stroke="#bfbfbf" points="280,-56.5 280,-75.5 331,-75.5 331,-56.5 280,-56.5"/>
<text text-anchor="middle" x="305.5" y="-63.5" font-family="Helvetica,sans-Serif" font-size="10.00">math.h</text>
</a>
</g>
</g>
<!-- Node1&#45;&gt;Node6 -->
<g id="edge5" class="edge">
<title>Node1&#45;&gt;Node6</title>
<path fill="none" stroke="midnightblue" d="M276.28,-112.08C281.17,-104.53 288.33,-93.49 294.33,-84.23"/>
<polygon fill="midnightblue" stroke="midnightblue" points="297.33,-86.05 299.83,-75.75 291.45,-82.24 297.33,-86.05"/>
</g>
<!-- Node7 -->
<g id="node7" class="node">
<title>Node7</title>
<g id="a_node7"><a xlink:href="../../da/d1e/var__struc_8h.html" target="_top" xlink:title="This file is the header file of some globally common variables and structural bodies.">
<polygon fill="white" stroke="black" points="410.5,-0.5 410.5,-19.5 528.5,-19.5 528.5,-0.5 410.5,-0.5"/>
<text text-anchor="middle" x="469.5" y="-7.5" font-family="Helvetica,sans-Serif" font-size="10.00">../include/var_struc.h</text>
</a>
</g>
</g>
<!-- Node1&#45;&gt;Node7 -->
<g id="edge6" class="edge">
<title>Node1&#45;&gt;Node7</title>
<path fill="none" stroke="midnightblue" d="M284.08,-112.46C304.51,-99.71 344.52,-75.14 379.5,-56 400.19,-44.68 424.09,-32.78 442.05,-24.07"/>
<polygon fill="midnightblue" stroke="midnightblue" points="443.88,-27.07 451.37,-19.58 440.84,-20.77 443.88,-27.07"/>
</g>
<!-- Node8 -->
<g id="node8" class="node">
<title>Node8</title>
<g id="a_node8"><a xlink:href="../../db/db8/file__io_8h.html" target="_top" xlink:title="This file is the header file that controls data input and output.">
<polygon fill="white" stroke="black" points="388,-56.5 388,-75.5 491,-75.5 491,-56.5 388,-56.5"/>
<text text-anchor="middle" x="439.5" y="-63.5" font-family="Helvetica,sans-Serif" font-size="10.00">../include/file_io.h</text>
</a>
</g>
</g>
<!-- Node1&#45;&gt;Node8 -->
<g id="edge7" class="edge">
<title>Node1&#45;&gt;Node8</title>
<path fill="none" stroke="midnightblue" d="M297.28,-112.44C325.83,-103.32 371.23,-88.81 403.04,-78.65"/>
<polygon fill="midnightblue" stroke="midnightblue" points="404.39,-81.89 412.85,-75.52 402.26,-75.23 404.39,-81.89"/>
</g>
<!-- Node9 -->
<g id="node9" class="node">
<title>Node9</title>
<g id="a_node9"><a xlink:href="../../d8/da8/finite__volume_8h.html" target="_top" xlink:title="This file is the header file of Lagrangian/Eulerian hydrocode in finite volume framework.">
<polygon fill="white" stroke="black" points="509.5,-56.5 509.5,-75.5 649.5,-75.5 649.5,-56.5 509.5,-56.5"/>
<text text-anchor="middle" x="579.5" y="-63.5" font-family="Helvetica,sans-Serif" font-size="10.00">../include/finite_volume.h</text>
</a>
</g>
</g>
<!-- Node1&#45;&gt;Node9 -->
<g id="edge8" class="edge">
<title>Node1&#45;&gt;Node9</title>
<path fill="none" stroke="midnightblue" d="M319.46,-112.44C374.04,-102.9 462.29,-87.48 520.6,-77.29"/>
<polygon fill="midnightblue" stroke="midnightblue" points="521.52,-80.69 530.77,-75.52 520.31,-73.79 521.52,-80.69"/>
</g>
<!-- Node9&#45;&gt;Node7 -->
<g id="edge9" class="edge">
<title>Node9&#45;&gt;Node7</title>
<path fill="none" stroke="midnightblue" d="M561.83,-56.32C544.11,-47.62 516.6,-34.12 496.21,-24.11"/>
<polygon fill="midnightblue" stroke="midnightblue" points="497.65,-20.92 487.13,-19.65 494.56,-27.2 497.65,-20.92"/>
</g>
</g>
</svg>
