<?xml version="1.0" encoding="UTF-8" standalone="no"?>
<!DOCTYPE svg PUBLIC "-//W3C//DTD SVG 1.1//EN"
 "http://www.w3.org/Graphics/SVG/1.1/DTD/svg11.dtd">
<!-- Generated by graphviz version 5.0.0 (0)
 -->
<!-- Title: linear_GRP_solver_Edir Pages: 1 -->
<svg width="384pt" height="78pt"
 viewBox="0.00 0.00 384.00 77.50" xmlns="http://www.w3.org/2000/svg" xmlns:xlink="http://www.w3.org/1999/xlink">
<g id="graph0" class="graph" transform="scale(1 1) rotate(0) translate(4 73.5)">
<title>linear_GRP_solver_Edir</title>
<polygon fill="white" stroke="transparent" points="-4,4 -4,-73.5 380,-73.5 380,4 -4,4"/>
<!-- Node1 -->
<g id="node1" class="node">
<title>Node1</title>
<g id="a_node1"><a xlink:title="A direct Eulerian GRP solver for unsteady compressible inviscid flow in one space dimension.">
<polygon fill="#bfbfbf" stroke="black" points="247,-22.5 247,-41.5 376,-41.5 376,-22.5 247,-22.5"/>
<text text-anchor="middle" x="311.5" y="-29.5" font-family="Helvetica,sans-Serif" font-size="10.00">linear_GRP_solver_Edir</text>
</a>
</g>
</g>
<!-- Node2 -->
<g id="node2" class="node">
<title>Node2</title>
<g id="a_node2"><a xlink:href="../../de/dd9/_godunov__solver___e_u_l__source_8c.html#a7a5600b4b1867dfab2806557068047ae" target="_top" xlink:title="This function use Godunov scheme to solve 1&#45;D Euler equations of motion on Eulerian coordinate.">
<polygon fill="white" stroke="black" points="84.5,-39 84.5,-69 203.5,-69 203.5,-39 84.5,-39"/>
<text text-anchor="start" x="92.5" y="-57" font-family="Helvetica,sans-Serif" font-size="10.00">Godunov_solver_EUL</text>
<text text-anchor="middle" x="144" y="-46" font-family="Helvetica,sans-Serif" font-size="10.00">_source</text>
</a>
</g>
</g>
<!-- Node1&#45;&gt;Node2 -->
<g id="edge1" class="edge">
<title>Node1&#45;&gt;Node2</title>
<path fill="none" stroke="midnightblue" d="M236.88,-41.79C225.78,-43.26 214.46,-44.77 203.73,-46.19"/>
<polygon fill="midnightblue" stroke="midnightblue" points="237.54,-45.23 246.99,-40.44 236.61,-38.29 237.54,-45.23"/>
</g>
<!-- Node4 -->
<g id="node4" class="node">
<title>Node4</title>
<g id="a_node4"><a xlink:href="../../d5/d10/_g_r_p__solver___e_u_l__source_8c.html#a9f209350a079455d88d4b7a5fc841b6a" target="_top" xlink:title="This function use GRP scheme to solve 1&#45;D Euler equations of motion on Eulerian coordinate.">
<polygon fill="white" stroke="black" points="77,-0.5 77,-19.5 211,-19.5 211,-0.5 77,-0.5"/>
<text text-anchor="middle" x="144" y="-7.5" font-family="Helvetica,sans-Serif" font-size="10.00">GRP_solver_EUL_source</text>
</a>
</g>
</g>
<!-- Node1&#45;&gt;Node4 -->
<g id="edge3" class="edge">
<title>Node1&#45;&gt;Node4</title>
<path fill="none" stroke="midnightblue" d="M236.96,-22.22C228.34,-21.08 219.59,-19.92 211.09,-18.78"/>
<polygon fill="midnightblue" stroke="midnightblue" points="236.61,-25.71 246.99,-23.56 237.54,-18.77 236.61,-25.71"/>
</g>
<!-- Node3 -->
<g id="node3" class="node">
<title>Node3</title>
<g id="a_node3"><a xlink:href="../../d2/d24/hydrocode_8c.html#a0ddf1224851353fc92bfbff6f499fa97" target="_top" xlink:title="This is the main function which constructs the main structure of the Lagrangian/Eulerian hydrocode.">
<polygon fill="white" stroke="black" points="0,-22.5 0,-41.5 41,-41.5 41,-22.5 0,-22.5"/>
<text text-anchor="middle" x="20.5" y="-29.5" font-family="Helvetica,sans-Serif" font-size="10.00">main</text>
</a>
</g>
</g>
<!-- Node2&#45;&gt;Node3 -->
<g id="edge2" class="edge">
<title>Node2&#45;&gt;Node3</title>
<path fill="none" stroke="midnightblue" d="M74.49,-41.6C62.22,-39.37 50.38,-37.23 41.01,-35.53"/>
<polygon fill="midnightblue" stroke="midnightblue" points="73.92,-45.05 84.39,-43.39 75.17,-38.16 73.92,-45.05"/>
</g>
<!-- Node4&#45;&gt;Node3 -->
<g id="edge4" class="edge">
<title>Node4&#45;&gt;Node3</title>
<path fill="none" stroke="midnightblue" d="M80.54,-21.31C66.26,-23.9 52.1,-26.46 41.23,-28.43"/>
<polygon fill="midnightblue" stroke="midnightblue" points="81.2,-24.75 90.41,-19.52 79.95,-17.86 81.2,-24.75"/>
</g>
</g>
</svg>
