<?xml version="1.0" encoding="UTF-8" standalone="no"?>
<!DOCTYPE svg PUBLIC "-//W3C//DTD SVG 1.1//EN"
 "http://www.w3.org/Graphics/SVG/1.1/DTD/svg11.dtd">
<!-- Generated by graphviz version 5.0.0 (0)
 -->
<!-- Title: DispPro Pages: 1 -->
<svg width="250pt" height="351pt"
 viewBox="0.00 0.00 250.00 350.50" xmlns="http://www.w3.org/2000/svg" xmlns:xlink="http://www.w3.org/1999/xlink">
<g id="graph0" class="graph" transform="scale(1 1) rotate(0) translate(4 346.5)">
<title>DispPro</title>
<polygon fill="white" stroke="transparent" points="-4,4 -4,-346.5 246,-346.5 246,4 -4,4"/>
<!-- Node1 -->
<g id="node1" class="node">
<title>Node1</title>
<g id="a_node1"><a xlink:title="This function print a progress bar on one line of standard output.">
<polygon fill="#bfbfbf" stroke="black" points="188,-153.5 188,-172.5 242,-172.5 242,-153.5 188,-153.5"/>
<text text-anchor="middle" x="215" y="-160.5" font-family="Helvetica,sans-Serif" font-size="10.00">DispPro</text>
</a>
</g>
</g>
<!-- Node2 -->
<g id="node2" class="node">
<title>Node2</title>
<g id="a_node2"><a xlink:href="../../d4/da5/_godunov__solver___a_l_e__source_8c.html#a0c698d207c191af453f551744c64ca83" target="_top" xlink:title="This function use Godunov scheme to solve 1&#45;D Euler equations of motion on ALE coordinate.">
<polygon fill="white" stroke="black" points="16.5,-312 16.5,-342 135.5,-342 135.5,-312 16.5,-312"/>
<text text-anchor="start" x="24.5" y="-330" font-family="Helvetica,sans-Serif" font-size="10.00">Godunov_solver_ALE</text>
<text text-anchor="middle" x="76" y="-319" font-family="Helvetica,sans-Serif" font-size="10.00">_source_Undone</text>
</a>
</g>
</g>
<!-- Node1&#45;&gt;Node2 -->
<g id="edge1" class="edge">
<title>Node1&#45;&gt;Node2</title>
<path fill="none" stroke="midnightblue" d="M210.54,-182.9C204.26,-213.13 188.12,-270.55 152,-303 147.22,-307.29 141.67,-310.82 135.79,-313.72"/>
<polygon fill="midnightblue" stroke="midnightblue" points="214.04,-183.23 212.49,-172.75 207.17,-181.91 214.04,-183.23"/>
</g>
<!-- Node3 -->
<g id="node3" class="node">
<title>Node3</title>
<g id="a_node3"><a xlink:href="../../de/dd9/_godunov__solver___e_u_l__source_8c.html#a8704e7d4489848cbe30f53b305782711" target="_top" xlink:title="This function use Godunov scheme to solve 1&#45;D Euler equations of motion on Eulerian coordinate.">
<polygon fill="white" stroke="black" points="16.5,-263 16.5,-293 135.5,-293 135.5,-263 16.5,-263"/>
<text text-anchor="start" x="24.5" y="-281" font-family="Helvetica,sans-Serif" font-size="10.00">Godunov_solver_EUL</text>
<text text-anchor="middle" x="76" y="-270" font-family="Helvetica,sans-Serif" font-size="10.00">_source</text>
</a>
</g>
</g>
<!-- Node1&#45;&gt;Node3 -->
<g id="edge2" class="edge">
<title>Node1&#45;&gt;Node3</title>
<path fill="none" stroke="midnightblue" d="M205.82,-181.81C195.94,-202.41 177.42,-235.02 152,-254 147.07,-257.68 141.56,-260.81 135.81,-263.46"/>
<polygon fill="midnightblue" stroke="midnightblue" points="209.09,-183.07 210.08,-172.52 202.73,-180.15 209.09,-183.07"/>
</g>
<!-- Node4 -->
<g id="node4" class="node">
<title>Node4</title>
<g id="a_node4"><a xlink:href="../../dd/d30/_godunov__solver___l_a_g__source_8c.html#af53e1e238ac8b31268d438a76de7f7c2" target="_top" xlink:title="This function use Godunov scheme to solve 1&#45;D Euler equations of motion on Lagrangian coordinate.">
<polygon fill="white" stroke="black" points="15.5,-214 15.5,-244 136.5,-244 136.5,-214 15.5,-214"/>
<text text-anchor="start" x="23.5" y="-232" font-family="Helvetica,sans-Serif" font-size="10.00">Godunov_solver_LAG</text>
<text text-anchor="middle" x="76" y="-221" font-family="Helvetica,sans-Serif" font-size="10.00">_source</text>
</a>
</g>
</g>
<!-- Node1&#45;&gt;Node4 -->
<g id="edge3" class="edge">
<title>Node1&#45;&gt;Node4</title>
<path fill="none" stroke="midnightblue" d="M193.56,-178.49C181.84,-186.86 166.61,-196.89 152,-204 144.47,-207.66 136.27,-211 128.15,-213.96"/>
<polygon fill="midnightblue" stroke="midnightblue" points="195.75,-181.23 201.76,-172.5 191.62,-175.58 195.75,-181.23"/>
</g>
<!-- Node5 -->
<g id="node5" class="node">
<title>Node5</title>
<g id="a_node5"><a xlink:href="../../d6/d0f/_g_r_p__solver__2_d___e_u_l__source_8c.html#ad2ed8a0ffbf2c3b9eb692984e9fbc6f2" target="_top" xlink:title="This function use GRP scheme to solve 2&#45;D Euler equations of motion on Eulerian coordinate without di...">
<polygon fill="white" stroke="black" points="0,-175.5 0,-194.5 152,-194.5 152,-175.5 0,-175.5"/>
<text text-anchor="middle" x="76" y="-182.5" font-family="Helvetica,sans-Serif" font-size="10.00">GRP_solver_2D_EUL_source</text>
</a>
</g>
</g>
<!-- Node1&#45;&gt;Node5 -->
<g id="edge4" class="edge">
<title>Node1&#45;&gt;Node5</title>
<path fill="none" stroke="midnightblue" d="M177.72,-168.83C164.99,-170.87 150.33,-173.22 136.21,-175.49"/>
<polygon fill="midnightblue" stroke="midnightblue" points="178.59,-172.23 187.91,-167.19 177.48,-165.32 178.59,-172.23"/>
</g>
<!-- Node6 -->
<g id="node6" class="node">
<title>Node6</title>
<g id="a_node6"><a xlink:href="../../dc/d9e/_g_r_p__solver__2_d__split___e_u_l__source_8c.html#a196c7b4e4415c20bbdfc3dd294653b66" target="_top" xlink:title="This function use GRP scheme to solve 2&#45;D Euler equations of motion on Eulerian coordinate with dimen...">
<polygon fill="white" stroke="black" points="17.5,-126 17.5,-156 134.5,-156 134.5,-126 17.5,-126"/>
<text text-anchor="start" x="25.5" y="-144" font-family="Helvetica,sans-Serif" font-size="10.00">GRP_solver_2D_split</text>
<text text-anchor="middle" x="76" y="-133" font-family="Helvetica,sans-Serif" font-size="10.00">_EUL_source</text>
</a>
</g>
</g>
<!-- Node1&#45;&gt;Node6 -->
<g id="edge5" class="edge">
<title>Node1&#45;&gt;Node6</title>
<path fill="none" stroke="midnightblue" d="M177.83,-157.19C164.64,-155.07 149.37,-152.62 134.78,-150.28"/>
<polygon fill="midnightblue" stroke="midnightblue" points="177.48,-160.68 187.91,-158.81 178.59,-153.77 177.48,-160.68"/>
</g>
<!-- Node7 -->
<g id="node7" class="node">
<title>Node7</title>
<g id="a_node7"><a xlink:href="../../de/de8/_g_r_p__solver___a_l_e__source_8c.html#afef6f99ec63f964c27bbee6c9d6ff2bc" target="_top" xlink:title="This function use GRP scheme to solve 1&#45;D Euler equations of motion on ALE coordinate.">
<polygon fill="white" stroke="black" points="9.5,-77 9.5,-107 142.5,-107 142.5,-77 9.5,-77"/>
<text text-anchor="start" x="17.5" y="-95" font-family="Helvetica,sans-Serif" font-size="10.00">GRP_solver_ALE_source</text>
<text text-anchor="middle" x="76" y="-84" font-family="Helvetica,sans-Serif" font-size="10.00">_Undone</text>
</a>
</g>
</g>
<!-- Node1&#45;&gt;Node7 -->
<g id="edge6" class="edge">
<title>Node1&#45;&gt;Node7</title>
<path fill="none" stroke="midnightblue" d="M195.49,-146.82C183.68,-137.14 167.69,-125.17 152,-117 144.94,-113.32 137.23,-110.03 129.52,-107.13"/>
<polygon fill="midnightblue" stroke="midnightblue" points="193.38,-149.62 203.29,-153.38 197.89,-144.26 193.38,-149.62"/>
</g>
<!-- Node8 -->
<g id="node8" class="node">
<title>Node8</title>
<g id="a_node8"><a xlink:href="../../d5/d10/_g_r_p__solver___e_u_l__source_8c.html#ad5d51b342d61692dd1d241c7ebb42fa0" target="_top" xlink:title="This function use GRP scheme to solve 1&#45;D Euler equations of motion on Eulerian coordinate.">
<polygon fill="white" stroke="black" points="9,-38.5 9,-57.5 143,-57.5 143,-38.5 9,-38.5"/>
<text text-anchor="middle" x="76" y="-45.5" font-family="Helvetica,sans-Serif" font-size="10.00">GRP_solver_EUL_source</text>
</a>
</g>
</g>
<!-- Node1&#45;&gt;Node8 -->
<g id="edge7" class="edge">
<title>Node1&#45;&gt;Node8</title>
<path fill="none" stroke="midnightblue" d="M206.49,-143.76C197.04,-122.08 178.73,-87.35 152,-68 146,-63.65 139.11,-60.25 132,-57.59"/>
<polygon fill="midnightblue" stroke="midnightblue" points="203.35,-145.33 210.42,-153.22 209.82,-142.65 203.35,-145.33"/>
</g>
<!-- Node9 -->
<g id="node9" class="node">
<title>Node9</title>
<g id="a_node9"><a xlink:href="../../dd/dd7/_g_r_p__solver___l_a_g__source_8c.html#a803248d0d521f8306a2850012b6d994c" target="_top" xlink:title="This function use GRP scheme to solve 1&#45;D Euler equations of motion on Lagrangian coordinate.">
<polygon fill="white" stroke="black" points="8.5,-0.5 8.5,-19.5 143.5,-19.5 143.5,-0.5 8.5,-0.5"/>
<text text-anchor="middle" x="76" y="-7.5" font-family="Helvetica,sans-Serif" font-size="10.00">GRP_solver_LAG_source</text>
</a>
</g>
</g>
<!-- Node1&#45;&gt;Node9 -->
<g id="edge8" class="edge">
<title>Node1&#45;&gt;Node9</title>
<path fill="none" stroke="midnightblue" d="M210.43,-143.24C204.05,-113.82 187.85,-58.76 152,-29 147.35,-25.14 142.02,-22.05 136.38,-19.58"/>
<polygon fill="midnightblue" stroke="midnightblue" points="207.02,-144.04 212.41,-153.16 213.88,-142.67 207.02,-144.04"/>
</g>
</g>
</svg>
