<?xml version="1.0" encoding="UTF-8" standalone="no"?>
<!DOCTYPE svg PUBLIC "-//W3C//DTD SVG 1.1//EN"
 "http://www.w3.org/Graphics/SVG/1.1/DTD/svg11.dtd">
<!-- Generated by graphviz version 6.0.1 (0)
 -->
<!-- Title: GRP_2D_flux Pages: 1 -->
<svg width="443pt" height="66pt"
 viewBox="0.00 0.00 443.00 66.00" xmlns="http://www.w3.org/2000/svg" xmlns:xlink="http://www.w3.org/1999/xlink">
<g id="graph0" class="graph" transform="scale(1 1) rotate(0) translate(4 62)">
<title>GRP_2D_flux</title>
<polygon fill="white" stroke="none" points="-4,4 -4,-62 439,-62 439,4 -4,4"/>
<!-- Node1 -->
<g id="node1" class="node">
<title>Node1</title>
<g id="a_node1"><a xlink:title="This function calculate Eulerian fluxes of 2&#45;D Euler equations by 2&#45;D GRP solver.">
<polygon fill="#bfbfbf" stroke="black" points="0,-19.5 0,-38.5 80,-38.5 80,-19.5 0,-19.5"/>
<text text-anchor="middle" x="40" y="-26.5" font-family="Helvetica,sans-Serif" font-size="10.00">GRP_2D_flux</text>
</a>
</g>
</g>
<!-- Node2 -->
<g id="node2" class="node">
<title>Node2</title>
<g id="a_node2"><a xlink:href="../../db/dd1/linear__grp__solver___edir___q1_d_8c.html#accd0c08406f5ddb935beb15b9cf87865" target="_top" xlink:title="A Quasi&#45;1D direct Eulerian GRP solver for unsteady compressible inviscid two&#45;component flow in two sp...">
<polygon fill="white" stroke="black" points="116,-38.5 116,-57.5 271,-57.5 271,-38.5 116,-38.5"/>
<text text-anchor="middle" x="193.5" y="-45.5" font-family="Helvetica,sans-Serif" font-size="10.00">linear_GRP_solver_Edir_Q1D</text>
</a>
</g>
</g>
<!-- Node1&#45;&gt;Node2 -->
<g id="edge1" class="edge">
<title>Node1&#45;&gt;Node2</title>
<path fill="none" stroke="midnightblue" d="M80.02,-33.89C88.26,-34.93 97.26,-36.06 106.48,-37.21"/>
<polygon fill="midnightblue" stroke="midnightblue" points="106.17,-40.7 116.53,-38.47 107.04,-33.75 106.17,-40.7"/>
</g>
<!-- Node4 -->
<g id="node4" class="node">
<title>Node4</title>
<g id="a_node4"><a xlink:href="../../d7/d5a/fluid__var__check_8c.html#a0177056576942ce464bb53db4dcb5138" target="_top" xlink:title="This function checks whether fluid variables of mid[] and dire[] are within the value range.">
<polygon fill="white" stroke="black" points="147,-0.5 147,-19.5 240,-19.5 240,-0.5 147,-0.5"/>
<text text-anchor="middle" x="193.5" y="-7.5" font-family="Helvetica,sans-Serif" font-size="10.00">star_dire_check</text>
</a>
</g>
</g>
<!-- Node1&#45;&gt;Node4 -->
<g id="edge3" class="edge">
<title>Node1&#45;&gt;Node4</title>
<path fill="none" stroke="midnightblue" d="M80.02,-24.11C97.33,-21.94 118.03,-19.34 136.92,-16.97"/>
<polygon fill="midnightblue" stroke="midnightblue" points="137.41,-20.44 146.9,-15.72 136.54,-13.49 137.41,-20.44"/>
</g>
<!-- Node3 -->
<g id="node3" class="node">
<title>Node3</title>
<g id="a_node3"><a xlink:href="../../d0/d08/riemann__solver__exact___ben_8c.html#a3ad58b11c355d45ee406da49161edbd4" target="_top" xlink:title="EXACT RIEMANN SOLVER FOR Two&#45;Component γ&#45;Law Gas">
<polygon fill="white" stroke="black" points="307,-38.5 307,-57.5 435,-57.5 435,-38.5 307,-38.5"/>
<text text-anchor="middle" x="371" y="-45.5" font-family="Helvetica,sans-Serif" font-size="10.00">Riemann_solver_exact</text>
</a>
</g>
</g>
<!-- Node2&#45;&gt;Node3 -->
<g id="edge2" class="edge">
<title>Node2&#45;&gt;Node3</title>
<path fill="none" stroke="midnightblue" d="M271.22,-48C279.68,-48 288.28,-48 296.69,-48"/>
<polygon fill="midnightblue" stroke="midnightblue" points="296.85,-51.5 306.85,-48 296.85,-44.5 296.85,-51.5"/>
</g>
</g>
</svg>
