<?xml version="1.0" encoding="UTF-8" standalone="no"?>
<!DOCTYPE svg PUBLIC "-//W3C//DTD SVG 1.1//EN"
 "http://www.w3.org/Graphics/SVG/1.1/DTD/svg11.dtd">
<!-- Generated by graphviz version 6.0.1 (0)
 -->
<!-- Title: src~/flux_calc/flux_solver.c Pages: 1 -->
<svg width="444pt" height="162pt"
 viewBox="0.00 0.00 444.00 162.00" xmlns="http://www.w3.org/2000/svg" xmlns:xlink="http://www.w3.org/1999/xlink">
<g id="graph0" class="graph" transform="scale(1 1) rotate(0) translate(4 158)">
<title>src~/flux_calc/flux_solver.c</title>
<polygon fill="white" stroke="none" points="-4,4 -4,-158 440,-158 440,4 -4,4"/>
<!-- Node1 -->
<g id="node1" class="node">
<title>Node1</title>
<g id="a_node1"><a xlink:title="This file is a set of functions to calculate interfacial fluxes and demanded variables according to t...">
<polygon fill="#bfbfbf" stroke="black" points="94.5,-123.5 94.5,-153.5 201.5,-153.5 201.5,-123.5 94.5,-123.5"/>
<text text-anchor="start" x="102.5" y="-141.5" font-family="Helvetica,sans-Serif" font-size="10.00">src~/flux_calc/flux</text>
<text text-anchor="middle" x="148" y="-130.5" font-family="Helvetica,sans-Serif" font-size="10.00">_solver.c</text>
</a>
</g>
</g>
<!-- Node2 -->
<g id="node2" class="node">
<title>Node2</title>
<g id="a_node2"><a xlink:title=" ">
<polygon fill="white" stroke="#bfbfbf" points="0,-62 0,-81 50,-81 50,-62 0,-62"/>
<text text-anchor="middle" x="25" y="-69" font-family="Helvetica,sans-Serif" font-size="10.00">stdio.h</text>
</a>
</g>
</g>
<!-- Node1&#45;&gt;Node2 -->
<g id="edge1" class="edge">
<title>Node1&#45;&gt;Node2</title>
<path fill="none" stroke="midnightblue" d="M121.31,-123.4C100.11,-112.19 70.68,-96.64 49.95,-85.69"/>
<polygon fill="midnightblue" stroke="midnightblue" points="51.57,-82.58 41.1,-81.01 48.3,-88.77 51.57,-82.58"/>
</g>
<!-- Node3 -->
<g id="node3" class="node">
<title>Node3</title>
<g id="a_node3"><a xlink:title=" ">
<polygon fill="white" stroke="#bfbfbf" points="68.5,-62 68.5,-81 119.5,-81 119.5,-62 68.5,-62"/>
<text text-anchor="middle" x="94" y="-69" font-family="Helvetica,sans-Serif" font-size="10.00">math.h</text>
</a>
</g>
</g>
<!-- Node1&#45;&gt;Node3 -->
<g id="edge2" class="edge">
<title>Node1&#45;&gt;Node3</title>
<path fill="none" stroke="midnightblue" d="M136.28,-123.4C127.86,-113.26 116.49,-99.57 107.66,-88.94"/>
<polygon fill="midnightblue" stroke="midnightblue" points="110.31,-86.65 101.22,-81.19 104.92,-91.12 110.31,-86.65"/>
</g>
<!-- Node4 -->
<g id="node4" class="node">
<title>Node4</title>
<g id="a_node4"><a xlink:href="../../da/d1e/var__struc_8h.html" target="_top" xlink:title="This file is the header file of some globally common variables and structural bodies.">
<polygon fill="white" stroke="black" points="186,-0.5 186,-19.5 304,-19.5 304,-0.5 186,-0.5"/>
<text text-anchor="middle" x="245" y="-7.5" font-family="Helvetica,sans-Serif" font-size="10.00">../include/var_struc.h</text>
</a>
</g>
</g>
<!-- Node1&#45;&gt;Node4 -->
<g id="edge3" class="edge">
<title>Node1&#45;&gt;Node4</title>
<path fill="none" stroke="midnightblue" d="M147.99,-123.42C148.65,-105.96 152.11,-76.07 167,-56 177.8,-41.44 194.81,-30.84 210.2,-23.6"/>
<polygon fill="midnightblue" stroke="midnightblue" points="211.75,-26.74 219.5,-19.52 208.94,-20.33 211.75,-26.74"/>
</g>
<!-- Node5 -->
<g id="node5" class="node">
<title>Node5</title>
<g id="a_node5"><a xlink:href="../../d6/d6f/inter__process_8h.html" target="_top" xlink:title="This file is the header file of intermediate processes of finite volume scheme.">
<polygon fill="white" stroke="black" points="176,-62 176,-81 314,-81 314,-62 176,-62"/>
<text text-anchor="middle" x="245" y="-69" font-family="Helvetica,sans-Serif" font-size="10.00">../include/inter_process.h</text>
</a>
</g>
</g>
<!-- Node1&#45;&gt;Node5 -->
<g id="edge4" class="edge">
<title>Node1&#45;&gt;Node5</title>
<path fill="none" stroke="midnightblue" d="M169.05,-123.4C185.31,-112.5 207.72,-97.48 223.98,-86.58"/>
<polygon fill="midnightblue" stroke="midnightblue" points="225.95,-89.48 232.3,-81.01 222.05,-83.67 225.95,-89.48"/>
</g>
<!-- Node6 -->
<g id="node6" class="node">
<title>Node6</title>
<g id="a_node6"><a xlink:href="../../df/ded/riemann__solver_8h.html" target="_top" xlink:title="This file is the header file of several Riemann solvers and GRP solvers.">
<polygon fill="white" stroke="black" points="332,-56.5 332,-86.5 436,-86.5 436,-56.5 332,-56.5"/>
<text text-anchor="start" x="340" y="-74.5" font-family="Helvetica,sans-Serif" font-size="10.00">../include/riemann</text>
<text text-anchor="middle" x="384" y="-63.5" font-family="Helvetica,sans-Serif" font-size="10.00">_solver.h</text>
</a>
</g>
</g>
<!-- Node1&#45;&gt;Node6 -->
<g id="edge6" class="edge">
<title>Node1&#45;&gt;Node6</title>
<path fill="none" stroke="midnightblue" d="M198.92,-123.48C235.24,-113.47 284.26,-99.97 322.72,-89.38"/>
<polygon fill="midnightblue" stroke="midnightblue" points="324.05,-92.64 332.77,-86.61 322.2,-85.89 324.05,-92.64"/>
</g>
<!-- Node5&#45;&gt;Node4 -->
<g id="edge5" class="edge">
<title>Node5&#45;&gt;Node4</title>
<path fill="none" stroke="midnightblue" d="M245,-61.98C245,-53.58 245,-40.48 245,-29.66"/>
<polygon fill="midnightblue" stroke="midnightblue" points="248.5,-29.51 245,-19.51 241.5,-29.51 248.5,-29.51"/>
</g>
<!-- Node6&#45;&gt;Node4 -->
<g id="edge7" class="edge">
<title>Node6&#45;&gt;Node4</title>
<path fill="none" stroke="midnightblue" d="M351.06,-56.4C327.84,-46.46 297.01,-33.26 274.58,-23.66"/>
<polygon fill="midnightblue" stroke="midnightblue" points="275.8,-20.38 265.23,-19.66 273.04,-26.81 275.8,-20.38"/>
</g>
</g>
</svg>
