<?xml version="1.0" encoding="UTF-8" standalone="no"?>
<!DOCTYPE svg PUBLIC "-//W3C//DTD SVG 1.1//EN"
 "http://www.w3.org/Graphics/SVG/1.1/DTD/svg11.dtd">
<!-- Generated by graphviz version 6.0.1 (0)
 -->
<!-- Title: Except_raise Pages: 1 -->
<svg width="199pt" height="104pt"
 viewBox="0.00 0.00 199.00 104.00" xmlns="http://www.w3.org/2000/svg" xmlns:xlink="http://www.w3.org/1999/xlink">
<g id="graph0" class="graph" transform="scale(1 1) rotate(0) translate(4 100)">
<title>Except_raise</title>
<polygon fill="white" stroke="none" points="-4,4 -4,-100 195,-100 195,4 -4,4"/>
<!-- Node1 -->
<g id="node1" class="node">
<title>Node1</title>
<g id="a_node1"><a xlink:title=" ">
<polygon fill="#bfbfbf" stroke="black" points="112,-38.5 112,-57.5 191,-57.5 191,-38.5 112,-38.5"/>
<text text-anchor="middle" x="151.5" y="-45.5" font-family="Helvetica,sans-Serif" font-size="10.00">Except_raise</text>
</a>
</g>
</g>
<!-- Node2 -->
<g id="node2" class="node">
<title>Node2</title>
<g id="a_node2"><a xlink:href="../../d3/d8f/mem_8c.html#aa04ebeaa62195c6b73e0c76241fa1724" target="_top" xlink:title=" ">
<polygon fill="white" stroke="black" points="3,-76.5 3,-95.5 73,-95.5 73,-76.5 3,-76.5"/>
<text text-anchor="middle" x="38" y="-83.5" font-family="Helvetica,sans-Serif" font-size="10.00">Mem_alloc</text>
</a>
</g>
</g>
<!-- Node1&#45;&gt;Node2 -->
<g id="edge1" class="edge">
<title>Node1&#45;&gt;Node2</title>
<path fill="none" stroke="midnightblue" d="M112.87,-60.83C97.91,-65.92 80.99,-71.69 67.13,-76.41"/>
<polygon fill="midnightblue" stroke="midnightblue" points="114.03,-64.13 122.36,-57.59 111.77,-57.5 114.03,-64.13"/>
</g>
<!-- Node3 -->
<g id="node3" class="node">
<title>Node3</title>
<g id="a_node3"><a xlink:href="../../d3/d8f/mem_8c.html#a066438ae83266724642e266da8cb2309" target="_top" xlink:title=" ">
<polygon fill="white" stroke="black" points="0.5,-38.5 0.5,-57.5 75.5,-57.5 75.5,-38.5 0.5,-38.5"/>
<text text-anchor="middle" x="38" y="-45.5" font-family="Helvetica,sans-Serif" font-size="10.00">Mem_calloc</text>
</a>
</g>
</g>
<!-- Node1&#45;&gt;Node3 -->
<g id="edge2" class="edge">
<title>Node1&#45;&gt;Node3</title>
<path fill="none" stroke="midnightblue" d="M101.73,-48C93.01,-48 84.05,-48 75.74,-48"/>
<polygon fill="midnightblue" stroke="midnightblue" points="101.82,-51.5 111.82,-48 101.82,-44.5 101.82,-51.5"/>
</g>
<!-- Node4 -->
<g id="node4" class="node">
<title>Node4</title>
<g id="a_node4"><a xlink:href="../../d3/d8f/mem_8c.html#af2fab9dd5fb95a2346e9a636cb79cc4b" target="_top" xlink:title=" ">
<polygon fill="white" stroke="black" points="0,-0.5 0,-19.5 76,-19.5 76,-0.5 0,-0.5"/>
<text text-anchor="middle" x="38" y="-7.5" font-family="Helvetica,sans-Serif" font-size="10.00">Mem_resize</text>
</a>
</g>
</g>
<!-- Node1&#45;&gt;Node4 -->
<g id="edge3" class="edge">
<title>Node1&#45;&gt;Node4</title>
<path fill="none" stroke="midnightblue" d="M112.87,-35.17C97.91,-30.08 80.99,-24.31 67.13,-19.59"/>
<polygon fill="midnightblue" stroke="midnightblue" points="111.77,-38.5 122.36,-38.41 114.03,-31.87 111.77,-38.5"/>
</g>
</g>
</svg>
