<?xml version="1.0" encoding="UTF-8" standalone="no"?>
<!DOCTYPE svg PUBLIC "-//W3C//DTD SVG 1.1//EN"
 "http://www.w3.org/Graphics/SVG/1.1/DTD/svg11.dtd">
<!-- Generated by graphviz version 6.0.1 (0)
 -->
<!-- Title: src~/include_cii/mem.h Pages: 1 -->
<svg width="399pt" height="106pt"
 viewBox="0.00 0.00 398.50 106.00" xmlns="http://www.w3.org/2000/svg" xmlns:xlink="http://www.w3.org/1999/xlink">
<g id="graph0" class="graph" transform="scale(1 1) rotate(0) translate(4 102)">
<title>src~/include_cii/mem.h</title>
<polygon fill="white" stroke="none" points="-4,4 -4,-102 394.5,-102 394.5,4 -4,4"/>
<!-- Node1 -->
<g id="node1" class="node">
<title>Node1</title>
<g id="a_node1"><a xlink:title="This file is a header file of source codes in the book &#39;C Interfaces and Implementations&#39;.">
<polygon fill="#bfbfbf" stroke="black" points="139,-78.5 139,-97.5 270,-97.5 270,-78.5 139,-78.5"/>
<text text-anchor="middle" x="204.5" y="-85.5" font-family="Helvetica,sans-Serif" font-size="10.00">src~/include_cii/mem.h</text>
</a>
</g>
</g>
<!-- Node2 -->
<g id="node2" class="node">
<title>Node2</title>
<g id="a_node2"><a xlink:href="../../d5/d63/grp__solver__radial___l_a_g__source_8c.html" target="_top" xlink:title="This is a Lagrangian GRP scheme to solve radial(cylindrically) symmetric compressible fluid flows.">
<polygon fill="white" stroke="black" points="0,-0.5 0,-41.5 129,-41.5 129,-0.5 0,-0.5"/>
<text text-anchor="start" x="8" y="-29.5" font-family="Helvetica,sans-Serif" font-size="10.00">src~/finite_volume</text>
<text text-anchor="start" x="8" y="-18.5" font-family="Helvetica,sans-Serif" font-size="10.00">/grp_solver_radial_LAG</text>
<text text-anchor="middle" x="64.5" y="-7.5" font-family="Helvetica,sans-Serif" font-size="10.00">_source.c</text>
</a>
</g>
</g>
<!-- Node1&#45;&gt;Node2 -->
<g id="edge1" class="edge">
<title>Node1&#45;&gt;Node2</title>
<path fill="none" stroke="midnightblue" d="M176.74,-74.11C156.76,-64.84 129.45,-52.16 106.77,-41.63"/>
<polygon fill="midnightblue" stroke="midnightblue" points="175.37,-77.33 185.91,-78.37 178.31,-70.98 175.37,-77.33"/>
</g>
<!-- Node3 -->
<g id="node3" class="node">
<title>Node3</title>
<g id="a_node3"><a xlink:href="../../dc/d3e/radial__mesh_8c.html" target="_top" xlink:title="There are some handler functions of radially symmetric mesh.">
<polygon fill="white" stroke="black" points="147,-6 147,-36 262,-36 262,-6 147,-6"/>
<text text-anchor="start" x="155" y="-24" font-family="Helvetica,sans-Serif" font-size="10.00">src~/meshing/radial</text>
<text text-anchor="middle" x="204.5" y="-13" font-family="Helvetica,sans-Serif" font-size="10.00">_mesh.c</text>
</a>
</g>
</g>
<!-- Node1&#45;&gt;Node3 -->
<g id="edge2" class="edge">
<title>Node1&#45;&gt;Node3</title>
<path fill="none" stroke="midnightblue" d="M204.5,-67.91C204.5,-57.72 204.5,-45.4 204.5,-36.09"/>
<polygon fill="midnightblue" stroke="midnightblue" points="201,-68.23 204.5,-78.23 208,-68.23 201,-68.23"/>
</g>
<!-- Node4 -->
<g id="node4" class="node">
<title>Node4</title>
<g id="a_node4"><a xlink:href="../../d3/d8f/mem_8c.html" target="_top" xlink:title="This file is the source codes in the book &#39;C Interfaces and Implementations&#39;.">
<polygon fill="white" stroke="black" points="280.5,-11.5 280.5,-30.5 390.5,-30.5 390.5,-11.5 280.5,-11.5"/>
<text text-anchor="middle" x="335.5" y="-18.5" font-family="Helvetica,sans-Serif" font-size="10.00">src~/src_cii/mem.c</text>
</a>
</g>
</g>
<!-- Node1&#45;&gt;Node4 -->
<g id="edge3" class="edge">
<title>Node1&#45;&gt;Node4</title>
<path fill="none" stroke="midnightblue" d="M231.16,-73.77C257.1,-60.9 295.78,-41.71 318.03,-30.67"/>
<polygon fill="midnightblue" stroke="midnightblue" points="229.3,-70.79 221.9,-78.37 232.41,-77.06 229.3,-70.79"/>
</g>
</g>
</svg>
