<?xml version="1.0" encoding="UTF-8" standalone="no"?>
<!DOCTYPE svg PUBLIC "-//W3C//DTD SVG 1.1//EN"
 "http://www.w3.org/Graphics/SVG/1.1/DTD/svg11.dtd">
<!-- Generated by graphviz version 6.0.1 (0)
 -->
<!-- Title: src~/include/tools.h Pages: 1 -->
<svg width="716pt" height="106pt"
 viewBox="0.00 0.00 715.50 106.00" xmlns="http://www.w3.org/2000/svg" xmlns:xlink="http://www.w3.org/1999/xlink">
<g id="graph0" class="graph" transform="scale(1 1) rotate(0) translate(4 102)">
<title>src~/include/tools.h</title>
<polygon fill="white" stroke="none" points="-4,4 -4,-102 711.5,-102 711.5,4 -4,4"/>
<!-- Node1 -->
<g id="node1" class="node">
<title>Node1</title>
<g id="a_node1"><a xlink:title="This file is the header file of several independent tool functions.">
<polygon fill="#bfbfbf" stroke="black" points="327,-78.5 327,-97.5 440,-97.5 440,-78.5 327,-78.5"/>
<text text-anchor="middle" x="383.5" y="-85.5" font-family="Helvetica,sans-Serif" font-size="10.00">src~/include/tools.h</text>
</a>
</g>
</g>
<!-- Node2 -->
<g id="node2" class="node">
<title>Node2</title>
<g id="a_node2"><a xlink:href="../../d4/de5/io__control_8c.html" target="_top" xlink:title="This is a set of common functions which control the input/output data.">
<polygon fill="white" stroke="black" points="0,-11.5 0,-30.5 131,-30.5 131,-11.5 0,-11.5"/>
<text text-anchor="middle" x="65.5" y="-18.5" font-family="Helvetica,sans-Serif" font-size="10.00">src~/file_io/io_control.c</text>
</a>
</g>
</g>
<!-- Node1&#45;&gt;Node2 -->
<g id="edge1" class="edge">
<title>Node1&#45;&gt;Node2</title>
<path fill="none" stroke="midnightblue" d="M320.5,-76.83C271.06,-68.51 200.61,-55.87 139.5,-42 124.7,-38.64 108.41,-34.31 94.89,-30.53"/>
<polygon fill="midnightblue" stroke="midnightblue" points="319.97,-80.29 330.41,-78.49 321.13,-73.39 319.97,-80.29"/>
</g>
<!-- Node3 -->
<g id="node3" class="node">
<title>Node3</title>
<g id="a_node3"><a xlink:href="../../d1/d4b/grp__solver__2_d___e_u_l__source_8c.html" target="_top" xlink:title="This is an Eulerian GRP scheme to solve 2&#45;D Euler equations without dimension splitting.">
<polygon fill="white" stroke="black" points="149,-6 149,-36 308,-36 308,-6 149,-6"/>
<text text-anchor="start" x="157" y="-24" font-family="Helvetica,sans-Serif" font-size="10.00">src~/finite_volume</text>
<text text-anchor="middle" x="228.5" y="-13" font-family="Helvetica,sans-Serif" font-size="10.00">/grp_solver_2D_EUL_source.c</text>
</a>
</g>
</g>
<!-- Node1&#45;&gt;Node3 -->
<g id="edge2" class="edge">
<title>Node1&#45;&gt;Node3</title>
<path fill="none" stroke="midnightblue" d="M353.48,-74.41C327.24,-63.41 289.17,-47.44 261.95,-36.03"/>
<polygon fill="midnightblue" stroke="midnightblue" points="352.34,-77.73 362.92,-78.37 355.05,-71.27 352.34,-77.73"/>
</g>
<!-- Node4 -->
<g id="node4" class="node">
<title>Node4</title>
<g id="a_node4"><a xlink:href="../../df/d07/grp__solver__2_d__split___e_u_l__source_8c.html" target="_top" xlink:title="This is an Eulerian GRP scheme to solve 2&#45;D Euler equations with dimension splitting.">
<polygon fill="white" stroke="black" points="325.5,-0.5 325.5,-41.5 441.5,-41.5 441.5,-0.5 325.5,-0.5"/>
<text text-anchor="start" x="333.5" y="-29.5" font-family="Helvetica,sans-Serif" font-size="10.00">src~/finite_volume</text>
<text text-anchor="start" x="333.5" y="-18.5" font-family="Helvetica,sans-Serif" font-size="10.00">/grp_solver_2D_split</text>
<text text-anchor="middle" x="383.5" y="-7.5" font-family="Helvetica,sans-Serif" font-size="10.00">_EUL_source.c</text>
</a>
</g>
</g>
<!-- Node1&#45;&gt;Node4 -->
<g id="edge3" class="edge">
<title>Node1&#45;&gt;Node4</title>
<path fill="none" stroke="midnightblue" d="M383.5,-68.04C383.5,-59.71 383.5,-49.94 383.5,-41.54"/>
<polygon fill="midnightblue" stroke="midnightblue" points="380,-68.23 383.5,-78.23 387,-68.23 380,-68.23"/>
</g>
<!-- Node5 -->
<g id="node5" class="node">
<title>Node5</title>
<g id="a_node5"><a xlink:href="../../d2/d49/slope__limiter_8c.html" target="_top" xlink:title="This is a function of the minmod slope limiter in one dimension.">
<polygon fill="white" stroke="black" points="460,-6 460,-36 567,-36 567,-6 460,-6"/>
<text text-anchor="start" x="468" y="-24" font-family="Helvetica,sans-Serif" font-size="10.00">src~/inter_process</text>
<text text-anchor="middle" x="513.5" y="-13" font-family="Helvetica,sans-Serif" font-size="10.00">/slope_limiter.c</text>
</a>
</g>
</g>
<!-- Node1&#45;&gt;Node5 -->
<g id="edge4" class="edge">
<title>Node1&#45;&gt;Node5</title>
<path fill="none" stroke="midnightblue" d="M409.82,-73.84C431.7,-62.9 462.78,-47.36 485.2,-36.15"/>
<polygon fill="midnightblue" stroke="midnightblue" points="408.14,-70.77 400.76,-78.37 411.27,-77.03 408.14,-70.77"/>
</g>
<!-- Node6 -->
<g id="node6" class="node">
<title>Node6</title>
<g id="a_node6"><a xlink:href="../../d7/d36/slope__limiter__2_d__x_8c.html" target="_top" xlink:title="This is a function of the minmod slope limiter in the x&#45;direction of two dimension.">
<polygon fill="white" stroke="black" points="585.5,-6 585.5,-36 707.5,-36 707.5,-6 585.5,-6"/>
<text text-anchor="start" x="593.5" y="-24" font-family="Helvetica,sans-Serif" font-size="10.00">src~/inter_process</text>
<text text-anchor="middle" x="646.5" y="-13" font-family="Helvetica,sans-Serif" font-size="10.00">/slope_limiter_2D_x.c</text>
</a>
</g>
</g>
<!-- Node1&#45;&gt;Node6 -->
<g id="edge5" class="edge">
<title>Node1&#45;&gt;Node6</title>
<path fill="none" stroke="midnightblue" d="M432.88,-76.19C471.97,-67.46 527.89,-54.6 576.5,-42 583.6,-40.16 591.07,-38.13 598.39,-36.08"/>
<polygon fill="midnightblue" stroke="midnightblue" points="431.82,-72.84 422.82,-78.43 433.34,-79.67 431.82,-72.84"/>
</g>
</g>
</svg>
