<?xml version="1.0" encoding="UTF-8" standalone="no"?>
<!DOCTYPE svg PUBLIC "-//W3C//DTD SVG 1.1//EN"
 "http://www.w3.org/Graphics/SVG/1.1/DTD/svg11.dtd">
<!-- Generated by graphviz version 5.0.0 (0)
 -->
<!-- Title: /run/media/leixin/软件盘/雷昕整理后的重要文件/程序/My&#45;CFD/HydroCODE/src/finite_volume/Godunov_solver_EUL_source.c Pages: 1 -->
<svg width="781pt" height="195pt"
 viewBox="0.00 0.00 780.50 195.00" xmlns="http://www.w3.org/2000/svg" xmlns:xlink="http://www.w3.org/1999/xlink">
<g id="graph0" class="graph" transform="scale(1 1) rotate(0) translate(4 191)">
<title>/run/media/leixin/软件盘/雷昕整理后的重要文件/程序/My&#45;CFD/HydroCODE/src/finite_volume/Godunov_solver_EUL_source.c</title>
<polygon fill="white" stroke="transparent" points="-4,4 -4,-191 776.5,-191 776.5,4 -4,4"/>
<!-- Node1 -->
<g id="node1" class="node">
<title>Node1</title>
<g id="a_node1"><a xlink:title="This is an Eulerian Godunov scheme to solve 1&#45;D Euler equations.">
<polygon fill="#bfbfbf" stroke="black" points="221.5,-123.5 221.5,-186.5 390.5,-186.5 390.5,-123.5 221.5,-123.5"/>
<text text-anchor="start" x="229.5" y="-174.5" font-family="Helvetica,sans-Serif" font-size="10.00">/run/media/leixin/软件盘</text>
<text text-anchor="start" x="229.5" y="-163.5" font-family="Helvetica,sans-Serif" font-size="10.00">/雷昕整理后的重要文件</text>
<text text-anchor="start" x="229.5" y="-152.5" font-family="Helvetica,sans-Serif" font-size="10.00">/程序/My&#45;CFD/HydroCODE/src</text>
<text text-anchor="start" x="229.5" y="-141.5" font-family="Helvetica,sans-Serif" font-size="10.00">/finite_volume/Godunov_solver</text>
<text text-anchor="middle" x="306" y="-130.5" font-family="Helvetica,sans-Serif" font-size="10.00">_EUL_source.c</text>
</a>
</g>
</g>
<!-- Node2 -->
<g id="node2" class="node">
<title>Node2</title>
<g id="a_node2"><a xlink:title=" ">
<polygon fill="white" stroke="#bfbfbf" points="0,-62 0,-81 50,-81 50,-62 0,-62"/>
<text text-anchor="middle" x="25" y="-69" font-family="Helvetica,sans-Serif" font-size="10.00">stdio.h</text>
</a>
</g>
</g>
<!-- Node1&#45;&gt;Node2 -->
<g id="edge1" class="edge">
<title>Node1&#45;&gt;Node2</title>
<path fill="none" stroke="midnightblue" d="M221.38,-134.13C173.27,-122.07 112.2,-105.46 59,-87 57.14,-86.35 55.23,-85.65 53.32,-84.92"/>
<polygon fill="midnightblue" stroke="midnightblue" points="54.46,-81.61 43.88,-81.1 51.84,-88.1 54.46,-81.61"/>
</g>
<!-- Node3 -->
<g id="node3" class="node">
<title>Node3</title>
<g id="a_node3"><a xlink:title=" ">
<polygon fill="white" stroke="#bfbfbf" points="68.5,-62 68.5,-81 119.5,-81 119.5,-62 68.5,-62"/>
<text text-anchor="middle" x="94" y="-69" font-family="Helvetica,sans-Serif" font-size="10.00">math.h</text>
</a>
</g>
</g>
<!-- Node1&#45;&gt;Node3 -->
<g id="edge2" class="edge">
<title>Node1&#45;&gt;Node3</title>
<path fill="none" stroke="midnightblue" d="M223.4,-123.34C193.57,-112.11 159.7,-99.17 129,-87 127.36,-86.35 125.68,-85.68 123.99,-84.99"/>
<polygon fill="midnightblue" stroke="midnightblue" points="124.9,-81.58 114.32,-81.04 122.25,-88.06 124.9,-81.58"/>
</g>
<!-- Node4 -->
<g id="node4" class="node">
<title>Node4</title>
<g id="a_node4"><a xlink:title=" ">
<polygon fill="white" stroke="#bfbfbf" points="137.5,-62 137.5,-81 190.5,-81 190.5,-62 137.5,-62"/>
<text text-anchor="middle" x="164" y="-69" font-family="Helvetica,sans-Serif" font-size="10.00">stdlib.h</text>
</a>
</g>
</g>
<!-- Node1&#45;&gt;Node4 -->
<g id="edge3" class="edge">
<title>Node1&#45;&gt;Node4</title>
<path fill="none" stroke="midnightblue" d="M252.72,-123.42C230.41,-110.62 205.61,-96.38 187.91,-86.22"/>
<polygon fill="midnightblue" stroke="midnightblue" points="189.28,-82.98 178.87,-81.03 185.8,-89.05 189.28,-82.98"/>
</g>
<!-- Node5 -->
<g id="node5" class="node">
<title>Node5</title>
<g id="a_node5"><a xlink:title=" ">
<polygon fill="white" stroke="#bfbfbf" points="209,-62 209,-81 257,-81 257,-62 209,-62"/>
<text text-anchor="middle" x="233" y="-69" font-family="Helvetica,sans-Serif" font-size="10.00">time.h</text>
</a>
</g>
</g>
<!-- Node1&#45;&gt;Node5 -->
<g id="edge4" class="edge">
<title>Node1&#45;&gt;Node5</title>
<path fill="none" stroke="midnightblue" d="M278.4,-123.19C267.93,-111.5 256.42,-98.64 247.6,-88.8"/>
<polygon fill="midnightblue" stroke="midnightblue" points="250.2,-86.45 240.92,-81.34 244.98,-91.12 250.2,-86.45"/>
</g>
<!-- Node6 -->
<g id="node6" class="node">
<title>Node6</title>
<g id="a_node6"><a xlink:title=" ">
<polygon fill="white" stroke="#bfbfbf" points="275,-62 275,-81 337,-81 337,-62 275,-62"/>
<text text-anchor="middle" x="306" y="-69" font-family="Helvetica,sans-Serif" font-size="10.00">stdbool.h</text>
</a>
</g>
</g>
<!-- Node1&#45;&gt;Node6 -->
<g id="edge5" class="edge">
<title>Node1&#45;&gt;Node6</title>
<path fill="none" stroke="midnightblue" d="M306,-123.19C306,-112.55 306,-100.95 306,-91.53"/>
<polygon fill="midnightblue" stroke="midnightblue" points="309.5,-91.34 306,-81.34 302.5,-91.34 309.5,-91.34"/>
</g>
<!-- Node7 -->
<g id="node7" class="node">
<title>Node7</title>
<g id="a_node7"><a xlink:href="../../da/d1e/var__struc_8h.html" target="_top" xlink:title="This file is the header file of some globally common variables and structural bodies.">
<polygon fill="white" stroke="black" points="388,-0.5 388,-19.5 506,-19.5 506,-0.5 388,-0.5"/>
<text text-anchor="middle" x="447" y="-7.5" font-family="Helvetica,sans-Serif" font-size="10.00">../include/var_struc.h</text>
</a>
</g>
</g>
<!-- Node1&#45;&gt;Node7 -->
<g id="edge6" class="edge">
<title>Node1&#45;&gt;Node7</title>
<path fill="none" stroke="midnightblue" d="M327.6,-123.09C342.51,-102.86 363.46,-76.48 385,-56 397.18,-44.42 412.44,-33.31 424.77,-25.03"/>
<polygon fill="midnightblue" stroke="midnightblue" points="426.71,-27.94 433.14,-19.53 422.86,-22.09 426.71,-27.94"/>
</g>
<!-- Node8 -->
<g id="node8" class="node">
<title>Node8</title>
<g id="a_node8"><a xlink:href="../../d8/d09/_riemann__solver_8h.html" target="_top" xlink:title="This file is the header file of several Riemann solvers and GRP solvers.">
<polygon fill="white" stroke="black" points="393.5,-56.5 393.5,-86.5 500.5,-86.5 500.5,-56.5 393.5,-56.5"/>
<text text-anchor="start" x="401.5" y="-74.5" font-family="Helvetica,sans-Serif" font-size="10.00">../include/Riemann</text>
<text text-anchor="middle" x="447" y="-63.5" font-family="Helvetica,sans-Serif" font-size="10.00">_solver.h</text>
</a>
</g>
</g>
<!-- Node1&#45;&gt;Node8 -->
<g id="edge7" class="edge">
<title>Node1&#45;&gt;Node8</title>
<path fill="none" stroke="midnightblue" d="M358.9,-123.42C377.37,-112.75 397.55,-101.08 413.93,-91.62"/>
<polygon fill="midnightblue" stroke="midnightblue" points="415.7,-94.63 422.61,-86.6 412.2,-88.57 415.7,-94.63"/>
</g>
<!-- Node9 -->
<g id="node9" class="node">
<title>Node9</title>
<g id="a_node9"><a xlink:href="../../d6/d6f/inter__process_8h.html" target="_top" xlink:title="This file is the header file of intermediate processes of finite volume scheme.">
<polygon fill="white" stroke="black" points="519,-62 519,-81 657,-81 657,-62 519,-62"/>
<text text-anchor="middle" x="588" y="-69" font-family="Helvetica,sans-Serif" font-size="10.00">../include/inter_process.h</text>
</a>
</g>
</g>
<!-- Node1&#45;&gt;Node9 -->
<g id="edge9" class="edge">
<title>Node1&#45;&gt;Node9</title>
<path fill="none" stroke="midnightblue" d="M390.61,-129.55C442.96,-114.42 507.72,-95.7 548.46,-83.93"/>
<polygon fill="midnightblue" stroke="midnightblue" points="549.64,-87.23 558.28,-81.09 547.7,-80.5 549.64,-87.23"/>
</g>
<!-- Node10 -->
<g id="node10" class="node">
<title>Node10</title>
<g id="a_node10"><a xlink:href="../../d5/da5/tools_8h.html" target="_top" xlink:title="This file is the header file of several independent tool functions.">
<polygon fill="white" stroke="black" points="675.5,-62 675.5,-81 772.5,-81 772.5,-62 675.5,-62"/>
<text text-anchor="middle" x="724" y="-69" font-family="Helvetica,sans-Serif" font-size="10.00">../include/tools.h</text>
</a>
</g>
</g>
<!-- Node1&#45;&gt;Node10 -->
<g id="edge11" class="edge">
<title>Node1&#45;&gt;Node10</title>
<path fill="none" stroke="midnightblue" d="M390.67,-139.74C463.81,-127.07 572.2,-107.43 666,-87 671.01,-85.91 676.24,-84.7 681.42,-83.46"/>
<polygon fill="midnightblue" stroke="midnightblue" points="682.38,-86.83 691.26,-81.06 680.72,-80.03 682.38,-86.83"/>
</g>
<!-- Node8&#45;&gt;Node7 -->
<g id="edge8" class="edge">
<title>Node8&#45;&gt;Node7</title>
<path fill="none" stroke="midnightblue" d="M447,-56.4C447,-48.47 447,-38.46 447,-29.86"/>
<polygon fill="midnightblue" stroke="midnightblue" points="450.5,-29.66 447,-19.66 443.5,-29.66 450.5,-29.66"/>
</g>
<!-- Node9&#45;&gt;Node7 -->
<g id="edge10" class="edge">
<title>Node9&#45;&gt;Node7</title>
<path fill="none" stroke="midnightblue" d="M567.8,-61.98C543.93,-51.9 504,-35.05 476.63,-23.5"/>
<polygon fill="midnightblue" stroke="midnightblue" points="477.74,-20.17 467.16,-19.51 475.02,-26.62 477.74,-20.17"/>
</g>
</g>
</svg>
