<?xml version="1.0" encoding="UTF-8" standalone="no"?>
<!DOCTYPE svg PUBLIC "-//W3C//DTD SVG 1.1//EN"
 "http://www.w3.org/Graphics/SVG/1.1/DTD/svg11.dtd">
<!-- Generated by graphviz version 5.0.0 (0)
 -->
<!-- Title: src Pages: 1 -->
<svg width="540pt" height="148pt"
 viewBox="0.00 0.00 540.00 148.00" xmlns="http://www.w3.org/2000/svg" xmlns:xlink="http://www.w3.org/1999/xlink">
<g id="graph0" class="graph" transform="scale(1 1) rotate(0) translate(4 144)">
<title>src</title>
<polygon fill="white" stroke="transparent" points="-4,4 -4,-144 536,-144 536,4 -4,4"/>
<g id="clust1" class="cluster">
<title>clusterdir_68267d1309a1af8e8297ef4c3efbcdba</title>
<g id="a_clust1"><a xlink:href="dir_68267d1309a1af8e8297ef4c3efbcdba.html" target="_top">
<polygon fill="#edf0f7" stroke="#404040" stroke-width="2" points="8,-8 8,-132 524,-132 524,-8 8,-8"/>
</a>
</g>
</g>
<!-- dir_68267d1309a1af8e8297ef4c3efbcdba -->
<g id="node1" class="node">
<title>dir_68267d1309a1af8e8297ef4c3efbcdba</title>
<text text-anchor="middle" x="489" y="-103.5" font-family="Helvetica,sans-Serif" font-size="10.00">src</text>
</g>
<!-- dir_1713ed442518b1bd95160cecd0687e4d -->
<g id="node2" class="node">
<title>dir_1713ed442518b1bd95160cecd0687e4d</title>
<g id="a_node2"><a xlink:href="dir_1713ed442518b1bd95160cecd0687e4d.html" target="_top" xlink:title="file_io">
<polygon fill="#a2b4d6" stroke="#404040" points="444,-124 390,-124 390,-88 444,-88 444,-124"/>
<text text-anchor="middle" x="417" y="-103.5" font-family="Helvetica,sans-Serif" font-size="10.00">file_io</text>
</a>
</g>
</g>
<!-- dir_b0856f6b0d80ccb263b2f415c91f9e17 -->
<g id="node5" class="node">
<title>dir_b0856f6b0d80ccb263b2f415c91f9e17</title>
<g id="a_node5"><a xlink:href="dir_b0856f6b0d80ccb263b2f415c91f9e17.html" target="_top" xlink:title="include">
<polygon fill="#a2b4d6" stroke="#404040" points="310,-52 256,-52 256,-16 310,-16 310,-52"/>
<text text-anchor="middle" x="283" y="-31.5" font-family="Helvetica,sans-Serif" font-size="10.00">include</text>
</a>
</g>
</g>
<!-- dir_1713ed442518b1bd95160cecd0687e4d&#45;&gt;dir_b0856f6b0d80ccb263b2f415c91f9e17 -->
<g id="edge1" class="edge">
<title>dir_1713ed442518b1bd95160cecd0687e4d&#45;&gt;dir_b0856f6b0d80ccb263b2f415c91f9e17</title>
<path fill="none" stroke="black" d="M389.88,-90.83C369.54,-80.21 341.49,-65.55 319.22,-53.92"/>
<polygon fill="black" stroke="black" points="320.56,-50.67 310.08,-49.14 317.32,-56.88 320.56,-50.67"/>
<g id="a_edge1&#45;headlabel"><a xlink:href="dir_000000_000003.html" target="_top" xlink:title="7">
<text text-anchor="middle" x="325.06" y="-47.32" font-family="Helvetica,sans-Serif" font-size="10.00">7</text>
</a>
</g>
</g>
<!-- dir_717bbcc51d62aeb96c34451485e5c810 -->
<g id="node3" class="node">
<title>dir_717bbcc51d62aeb96c34451485e5c810</title>
<g id="a_node3"><a xlink:href="dir_717bbcc51d62aeb96c34451485e5c810.html" target="_top" xlink:title="finite_volume">
<polygon fill="#a2b4d6" stroke="#404040" points="372,-124 288,-124 288,-88 372,-88 372,-124"/>
<text text-anchor="middle" x="330" y="-103.5" font-family="Helvetica,sans-Serif" font-size="10.00">finite_volume</text>
</a>
</g>
</g>
<!-- dir_717bbcc51d62aeb96c34451485e5c810&#45;&gt;dir_b0856f6b0d80ccb263b2f415c91f9e17 -->
<g id="edge2" class="edge">
<title>dir_717bbcc51d62aeb96c34451485e5c810&#45;&gt;dir_b0856f6b0d80ccb263b2f415c91f9e17</title>
<path fill="none" stroke="black" d="M318.38,-87.7C312.86,-79.47 306.15,-69.48 300.07,-60.42"/>
<polygon fill="black" stroke="black" points="302.96,-58.46 294.48,-52.1 297.15,-62.36 302.96,-58.46"/>
<g id="a_edge2&#45;headlabel"><a xlink:href="dir_000001_000003.html" target="_top" xlink:title="12">
<text text-anchor="middle" x="307.33" y="-57.36" font-family="Helvetica,sans-Serif" font-size="10.00">12</text>
</a>
</g>
</g>
<!-- dir_83817c88d4d9f89648c09d88d6702353 -->
<g id="node4" class="node">
<title>dir_83817c88d4d9f89648c09d88d6702353</title>
<g id="a_node4"><a xlink:href="dir_83817c88d4d9f89648c09d88d6702353.html" target="_top" xlink:title="hydrocode">
<polygon fill="#a2b4d6" stroke="#404040" points="270,-124 202,-124 202,-88 270,-88 270,-124"/>
<text text-anchor="middle" x="236" y="-103.5" font-family="Helvetica,sans-Serif" font-size="10.00">hydrocode</text>
</a>
</g>
</g>
<!-- dir_83817c88d4d9f89648c09d88d6702353&#45;&gt;dir_b0856f6b0d80ccb263b2f415c91f9e17 -->
<g id="edge3" class="edge">
<title>dir_83817c88d4d9f89648c09d88d6702353&#45;&gt;dir_b0856f6b0d80ccb263b2f415c91f9e17</title>
<path fill="none" stroke="black" d="M247.62,-87.7C253.14,-79.47 259.85,-69.48 265.93,-60.42"/>
<polygon fill="black" stroke="black" points="268.85,-62.36 271.52,-52.1 263.04,-58.46 268.85,-62.36"/>
<g id="a_edge3&#45;headlabel"><a xlink:href="dir_000002_000003.html" target="_top" xlink:title="3">
<text text-anchor="middle" x="269.2" y="-64.42" font-family="Helvetica,sans-Serif" font-size="10.00">3</text>
</a>
</g>
</g>
<!-- dir_fde9523966d544456845f81d8b3caa29 -->
<g id="node6" class="node">
<title>dir_fde9523966d544456845f81d8b3caa29</title>
<g id="a_node6"><a xlink:href="dir_fde9523966d544456845f81d8b3caa29.html" target="_top" xlink:title="Riemann_solver">
<polygon fill="#a2b4d6" stroke="#404040" points="183.5,-124 88.5,-124 88.5,-88 183.5,-88 183.5,-124"/>
<text text-anchor="middle" x="136" y="-103.5" font-family="Helvetica,sans-Serif" font-size="10.00">Riemann_solver</text>
</a>
</g>
</g>
<!-- dir_fde9523966d544456845f81d8b3caa29&#45;&gt;dir_b0856f6b0d80ccb263b2f415c91f9e17 -->
<g id="edge4" class="edge">
<title>dir_fde9523966d544456845f81d8b3caa29&#45;&gt;dir_b0856f6b0d80ccb263b2f415c91f9e17</title>
<path fill="none" stroke="black" d="M171.96,-87.88C194.57,-77.11 223.66,-63.26 246.39,-52.43"/>
<polygon fill="black" stroke="black" points="248.18,-55.46 255.71,-48 245.17,-49.14 248.18,-55.46"/>
<g id="a_edge4&#45;headlabel"><a xlink:href="dir_000004_000003.html" target="_top" xlink:title="2">
<text text-anchor="middle" x="246.16" y="-57.07" font-family="Helvetica,sans-Serif" font-size="10.00">2</text>
</a>
</g>
</g>
<!-- dir_1563a38af0d3a5e4a6330d6d45e9792a -->
<g id="node7" class="node">
<title>dir_1563a38af0d3a5e4a6330d6d45e9792a</title>
<g id="a_node7"><a xlink:href="dir_1563a38af0d3a5e4a6330d6d45e9792a.html" target="_top" xlink:title="tools">
<polygon fill="#a2b4d6" stroke="#404040" points="70,-124 16,-124 16,-88 70,-88 70,-124"/>
<text text-anchor="middle" x="43" y="-103.5" font-family="Helvetica,sans-Serif" font-size="10.00">tools</text>
</a>
</g>
</g>
</g>
</svg>
