<?xml version="1.0" encoding="UTF-8" standalone="no"?>
<!DOCTYPE svg PUBLIC "-//W3C//DTD SVG 1.1//EN"
 "http://www.w3.org/Graphics/SVG/1.1/DTD/svg11.dtd">
<!-- Generated by graphviz version 5.0.0 (0)
 -->
<!-- Title: /run/media/leixin/软件盘/雷昕整理后的重要文件/程序/My&#45;CFD/HydroCODE/src/include/file_io.h Pages: 1 -->
<svg width="788pt" height="150pt"
 viewBox="0.00 0.00 788.00 150.00" xmlns="http://www.w3.org/2000/svg" xmlns:xlink="http://www.w3.org/1999/xlink">
<g id="graph0" class="graph" transform="scale(1 1) rotate(0) translate(4 146)">
<title>/run/media/leixin/软件盘/雷昕整理后的重要文件/程序/My&#45;CFD/HydroCODE/src/include/file_io.h</title>
<polygon fill="white" stroke="transparent" points="-4,4 -4,-146 784,-146 784,4 -4,4"/>
<!-- Node1 -->
<g id="node1" class="node">
<title>Node1</title>
<g id="a_node1"><a xlink:title="This file is the header file that controls data input and output.">
<polygon fill="#bfbfbf" stroke="black" points="352,-89.5 352,-141.5 510,-141.5 510,-89.5 352,-89.5"/>
<text text-anchor="start" x="360" y="-129.5" font-family="Helvetica,sans-Serif" font-size="10.00">/run/media/leixin/软件盘</text>
<text text-anchor="start" x="360" y="-118.5" font-family="Helvetica,sans-Serif" font-size="10.00">/雷昕整理后的重要文件</text>
<text text-anchor="start" x="360" y="-107.5" font-family="Helvetica,sans-Serif" font-size="10.00">/程序/My&#45;CFD/HydroCODE/src</text>
<text text-anchor="middle" x="431" y="-96.5" font-family="Helvetica,sans-Serif" font-size="10.00">/include/file_io.h</text>
</a>
</g>
</g>
<!-- Node2 -->
<g id="node2" class="node">
<title>Node2</title>
<g id="a_node2"><a xlink:href="../../dd/d92/__1_d__file__in_8c.html" target="_top" xlink:title="This is a set of functions which control the read&#45;in of one&#45;dimensional data.">
<polygon fill="white" stroke="black" points="0,-0.5 0,-52.5 158,-52.5 158,-0.5 0,-0.5"/>
<text text-anchor="start" x="8" y="-40.5" font-family="Helvetica,sans-Serif" font-size="10.00">/run/media/leixin/软件盘</text>
<text text-anchor="start" x="8" y="-29.5" font-family="Helvetica,sans-Serif" font-size="10.00">/雷昕整理后的重要文件</text>
<text text-anchor="start" x="8" y="-18.5" font-family="Helvetica,sans-Serif" font-size="10.00">/程序/My&#45;CFD/HydroCODE/src</text>
<text text-anchor="middle" x="79" y="-7.5" font-family="Helvetica,sans-Serif" font-size="10.00">/file_io/_1D_file_in.c</text>
</a>
</g>
</g>
<!-- Node1&#45;&gt;Node2 -->
<g id="edge1" class="edge">
<title>Node1&#45;&gt;Node2</title>
<path fill="none" stroke="midnightblue" d="M341.83,-94.97C290.53,-83.42 224.95,-68.13 167,-53 164.08,-52.24 161.1,-51.45 158.1,-50.64"/>
<polygon fill="midnightblue" stroke="midnightblue" points="341.36,-98.45 351.89,-97.22 342.9,-91.62 341.36,-98.45"/>
</g>
<!-- Node3 -->
<g id="node3" class="node">
<title>Node3</title>
<g id="a_node3"><a xlink:href="../../db/db6/__1_d__file__out_8c.html" target="_top" xlink:title="This is a set of functions which control the readout of one&#45;dimensional data.">
<polygon fill="white" stroke="black" points="176,-0.5 176,-52.5 334,-52.5 334,-0.5 176,-0.5"/>
<text text-anchor="start" x="184" y="-40.5" font-family="Helvetica,sans-Serif" font-size="10.00">/run/media/leixin/软件盘</text>
<text text-anchor="start" x="184" y="-29.5" font-family="Helvetica,sans-Serif" font-size="10.00">/雷昕整理后的重要文件</text>
<text text-anchor="start" x="184" y="-18.5" font-family="Helvetica,sans-Serif" font-size="10.00">/程序/My&#45;CFD/HydroCODE/src</text>
<text text-anchor="middle" x="255" y="-7.5" font-family="Helvetica,sans-Serif" font-size="10.00">/file_io/_1D_file_out.c</text>
</a>
</g>
</g>
<!-- Node1&#45;&gt;Node3 -->
<g id="edge2" class="edge">
<title>Node1&#45;&gt;Node3</title>
<path fill="none" stroke="midnightblue" d="M370.87,-84.78C349.69,-74.31 326.12,-62.66 305.79,-52.61"/>
<polygon fill="midnightblue" stroke="midnightblue" points="369.58,-88.04 380.09,-89.34 372.68,-81.77 369.58,-88.04"/>
</g>
<!-- Node4 -->
<g id="node4" class="node">
<title>Node4</title>
<g id="a_node4"><a xlink:href="../../d4/d75/__2_d__file__in_8c.html" target="_top" xlink:title="This is a set of functions which control the read&#45;in of two&#45;dimensional data.">
<polygon fill="white" stroke="black" points="352,-0.5 352,-52.5 510,-52.5 510,-0.5 352,-0.5"/>
<text text-anchor="start" x="360" y="-40.5" font-family="Helvetica,sans-Serif" font-size="10.00">/run/media/leixin/软件盘</text>
<text text-anchor="start" x="360" y="-29.5" font-family="Helvetica,sans-Serif" font-size="10.00">/雷昕整理后的重要文件</text>
<text text-anchor="start" x="360" y="-18.5" font-family="Helvetica,sans-Serif" font-size="10.00">/程序/My&#45;CFD/HydroCODE/src</text>
<text text-anchor="middle" x="431" y="-7.5" font-family="Helvetica,sans-Serif" font-size="10.00">/file_io/_2D_file_in.c</text>
</a>
</g>
</g>
<!-- Node1&#45;&gt;Node4 -->
<g id="edge3" class="edge">
<title>Node1&#45;&gt;Node4</title>
<path fill="none" stroke="midnightblue" d="M431,-79.19C431,-70.28 431,-60.9 431,-52.61"/>
<polygon fill="midnightblue" stroke="midnightblue" points="427.5,-79.34 431,-89.34 434.5,-79.34 427.5,-79.34"/>
</g>
<!-- Node5 -->
<g id="node5" class="node">
<title>Node5</title>
<g id="a_node5"><a xlink:href="../../d8/d32/__2_d__file__out_8c.html" target="_top" xlink:title="This is a set of functions which control the readout of two&#45;dimensional data.">
<polygon fill="white" stroke="black" points="528,-0.5 528,-52.5 686,-52.5 686,-0.5 528,-0.5"/>
<text text-anchor="start" x="536" y="-40.5" font-family="Helvetica,sans-Serif" font-size="10.00">/run/media/leixin/软件盘</text>
<text text-anchor="start" x="536" y="-29.5" font-family="Helvetica,sans-Serif" font-size="10.00">/雷昕整理后的重要文件</text>
<text text-anchor="start" x="536" y="-18.5" font-family="Helvetica,sans-Serif" font-size="10.00">/程序/My&#45;CFD/HydroCODE/src</text>
<text text-anchor="middle" x="607" y="-7.5" font-family="Helvetica,sans-Serif" font-size="10.00">/file_io/_2D_file_out.c</text>
</a>
</g>
</g>
<!-- Node1&#45;&gt;Node5 -->
<g id="edge4" class="edge">
<title>Node1&#45;&gt;Node5</title>
<path fill="none" stroke="midnightblue" d="M491.13,-84.78C512.31,-74.31 535.88,-62.66 556.21,-52.61"/>
<polygon fill="midnightblue" stroke="midnightblue" points="489.32,-81.77 481.91,-89.34 492.42,-88.04 489.32,-81.77"/>
</g>
<!-- Node6 -->
<g id="node6" class="node">
<title>Node6</title>
<g id="a_node6"><a xlink:href="../../d2/d24/hydrocode_8c.html" target="_top" xlink:title="This is a C file of the main function.">
<polygon fill="white" stroke="black" points="704,-17 704,-36 780,-36 780,-17 704,-17"/>
<text text-anchor="middle" x="742" y="-24" font-family="Helvetica,sans-Serif" font-size="10.00">hydrocode.c</text>
</a>
</g>
</g>
<!-- Node1&#45;&gt;Node6 -->
<g id="edge5" class="edge">
<title>Node1&#45;&gt;Node6</title>
<path fill="none" stroke="midnightblue" d="M519.91,-99.96C571.96,-89.93 638.38,-74.51 695,-53 706.8,-48.52 719.33,-41.6 728.48,-36.1"/>
<polygon fill="midnightblue" stroke="midnightblue" points="519.2,-96.53 510.03,-101.83 520.51,-103.41 519.2,-96.53"/>
</g>
</g>
</svg>
