<?xml version="1.0" encoding="UTF-8" standalone="no"?>
<!DOCTYPE svg PUBLIC "-//W3C//DTD SVG 1.1//EN"
 "http://www.w3.org/Graphics/SVG/1.1/DTD/svg11.dtd">
<!-- Generated by graphviz version 6.0.1 (0)
 -->
<!-- Title: main Pages: 1 -->
<svg width="663pt" height="390pt"
 viewBox="0.00 0.00 663.00 390.00" xmlns="http://www.w3.org/2000/svg" xmlns:xlink="http://www.w3.org/1999/xlink">
<g id="graph0" class="graph" transform="scale(1 1) rotate(0) translate(4 386)">
<title>main</title>
<polygon fill="white" stroke="none" points="-4,4 -4,-386 659,-386 659,4 -4,4"/>
<!-- Node1 -->
<g id="node1" class="node">
<title>Node1</title>
<g id="a_node1"><a xlink:title="This is the main function which constructs the main structure of the 1&#45;D Lagrangian/Eulerian hydrocod...">
<polygon fill="#bfbfbf" stroke="black" points="0,-226.5 0,-245.5 41,-245.5 41,-226.5 0,-226.5"/>
<text text-anchor="middle" x="20.5" y="-233.5" font-family="Helvetica,sans-Serif" font-size="10.00">main</text>
</a>
</g>
</g>
<!-- Node2 -->
<g id="node2" class="node">
<title>Node2</title>
<g id="a_node2"><a xlink:href="../../d0/d49/terminal__io_8c.html#a6f9b51d91c38d3ce58786dfd84973994" target="_top" xlink:title="This is a functions preprocesses ARGuments.">
<polygon fill="white" stroke="black" points="99,-362.5 99,-381.5 190,-381.5 190,-362.5 99,-362.5"/>
<text text-anchor="middle" x="144.5" y="-369.5" font-family="Helvetica,sans-Serif" font-size="10.00">arg_preprocess</text>
</a>
</g>
</g>
<!-- Node1&#45;&gt;Node2 -->
<g id="edge1" class="edge">
<title>Node1&#45;&gt;Node2</title>
<path fill="none" stroke="midnightblue" d="M23.24,-245.5C27.83,-267.77 42.36,-323.64 77,-353 80.7,-356.13 84.88,-358.75 89.31,-360.94"/>
<polygon fill="midnightblue" stroke="midnightblue" points="88.08,-364.22 98.66,-364.85 90.79,-357.76 88.08,-364.22"/>
</g>
<!-- Node3 -->
<g id="node3" class="node">
<title>Node3</title>
<g id="a_node3"><a xlink:href="../../df/d38/file__1_d__out_8c.html#a5edc2b6fa84841a6fb96918b065603cb" target="_top" xlink:title="This function write the 1&#45;D solution into output &#39;.dat&#39; files.">
<polygon fill="white" stroke="black" points="104,-324.5 104,-343.5 185,-343.5 185,-324.5 104,-324.5"/>
<text text-anchor="middle" x="144.5" y="-331.5" font-family="Helvetica,sans-Serif" font-size="10.00">file_1D_write</text>
</a>
</g>
</g>
<!-- Node1&#45;&gt;Node3 -->
<g id="edge2" class="edge">
<title>Node1&#45;&gt;Node3</title>
<path fill="none" stroke="midnightblue" d="M25.61,-245.63C33.24,-262.33 51.19,-296.64 77,-315 82.2,-318.7 88.11,-321.68 94.21,-324.09"/>
<polygon fill="midnightblue" stroke="midnightblue" points="93.27,-327.47 103.87,-327.41 95.55,-320.85 93.27,-327.47"/>
</g>
<!-- Node7 -->
<g id="node7" class="node">
<title>Node7</title>
<g id="a_node7"><a xlink:href="../../d4/d39/file__out__hdf5_8c.html#a183247d78d231c5a6fc920674e92d857" target="_top" xlink:title="This function write the 1&#45;D solution into HDF5 output &#39;.h5&#39; files.">
<polygon fill="white" stroke="black" points="88,-286.5 88,-305.5 201,-305.5 201,-286.5 88,-286.5"/>
<text text-anchor="middle" x="144.5" y="-293.5" font-family="Helvetica,sans-Serif" font-size="10.00">file_1D_write_HDF5</text>
</a>
</g>
</g>
<!-- Node1&#45;&gt;Node7 -->
<g id="edge6" class="edge">
<title>Node1&#45;&gt;Node7</title>
<path fill="none" stroke="midnightblue" d="M32.21,-245.75C42.86,-254.98 60.02,-268.64 77,-277 81.66,-279.29 86.65,-281.35 91.71,-283.2"/>
<polygon fill="midnightblue" stroke="midnightblue" points="90.9,-286.61 101.49,-286.47 93.12,-279.98 90.9,-286.61"/>
</g>
<!-- Node8 -->
<g id="node8" class="node">
<title>Node8</title>
<g id="a_node8"><a xlink:href="../../d2/d7d/godunov__solver___e_u_l__source_8c.html#a73d1b94c809db33f336af9374200d7e1" target="_top" xlink:title="This function use Godunov scheme to solve 1&#45;D Euler equations of motion on Eulerian coordinate.">
<polygon fill="white" stroke="black" points="85,-150 85,-180 204,-180 204,-150 85,-150"/>
<text text-anchor="start" x="93" y="-168" font-family="Helvetica,sans-Serif" font-size="10.00">Godunov_solver_EUL</text>
<text text-anchor="middle" x="144.5" y="-157" font-family="Helvetica,sans-Serif" font-size="10.00">_source</text>
</a>
</g>
</g>
<!-- Node1&#45;&gt;Node8 -->
<g id="edge8" class="edge">
<title>Node1&#45;&gt;Node8</title>
<path fill="none" stroke="midnightblue" d="M30.97,-226.44C41.46,-216.28 59.25,-200.3 77,-190 80.44,-188 84.07,-186.11 87.79,-184.33"/>
<polygon fill="midnightblue" stroke="midnightblue" points="89.45,-187.42 97.15,-180.14 86.59,-181.03 89.45,-187.42"/>
</g>
<!-- Node16 -->
<g id="node16" class="node">
<title>Node16</title>
<g id="a_node16"><a xlink:href="../../d2/d2f/godunov__solver___l_a_g__source_8c.html#a79def475ebe768563ab00cd2fa839f92" target="_top" xlink:title="This function use Godunov scheme to solve 1&#45;D Euler equations of motion on Lagrangian coordinate.">
<polygon fill="white" stroke="black" points="84,-199 84,-229 205,-229 205,-199 84,-199"/>
<text text-anchor="start" x="92" y="-217" font-family="Helvetica,sans-Serif" font-size="10.00">Godunov_solver_LAG</text>
<text text-anchor="middle" x="144.5" y="-206" font-family="Helvetica,sans-Serif" font-size="10.00">_source</text>
</a>
</g>
</g>
<!-- Node1&#45;&gt;Node16 -->
<g id="edge16" class="edge">
<title>Node1&#45;&gt;Node16</title>
<path fill="none" stroke="midnightblue" d="M41.1,-232.47C50.26,-230.81 61.77,-228.74 73.74,-226.58"/>
<polygon fill="midnightblue" stroke="midnightblue" points="74.65,-229.97 83.87,-224.75 73.4,-223.08 74.65,-229.97"/>
</g>
<!-- Node17 -->
<g id="node17" class="node">
<title>Node17</title>
<g id="a_node17"><a xlink:href="../../d6/d0b/grp__solver___e_u_l__source_8c.html#a17cb2f4df1a273ffe997d9ac064451cb" target="_top" xlink:title="This function use GRP scheme to solve 1&#45;D Euler equations of motion on Eulerian coordinate.">
<polygon fill="white" stroke="black" points="77.5,-111.5 77.5,-130.5 211.5,-130.5 211.5,-111.5 77.5,-111.5"/>
<text text-anchor="middle" x="144.5" y="-118.5" font-family="Helvetica,sans-Serif" font-size="10.00">GRP_solver_EUL_source</text>
</a>
</g>
</g>
<!-- Node1&#45;&gt;Node17 -->
<g id="edge19" class="edge">
<title>Node1&#45;&gt;Node17</title>
<path fill="none" stroke="midnightblue" d="M24.47,-226.31C30.85,-207.1 47.74,-164.05 77,-141 79.92,-138.7 83.1,-136.67 86.43,-134.87"/>
<polygon fill="midnightblue" stroke="midnightblue" points="87.96,-138.01 95.55,-130.62 85.01,-131.67 87.96,-138.01"/>
</g>
<!-- Node19 -->
<g id="node19" class="node">
<title>Node19</title>
<g id="a_node19"><a xlink:href="../../d6/d4f/grp__solver___l_a_g__source_8c.html#a4c8dd56a6ed077100100c1bf9d789425" target="_top" xlink:title="This function use GRP scheme to solve 1&#45;D Euler equations of motion on Lagrangian coordinate.">
<polygon fill="white" stroke="black" points="77,-73.5 77,-92.5 212,-92.5 212,-73.5 77,-73.5"/>
<text text-anchor="middle" x="144.5" y="-80.5" font-family="Helvetica,sans-Serif" font-size="10.00">GRP_solver_LAG_source</text>
</a>
</g>
</g>
<!-- Node1&#45;&gt;Node19 -->
<g id="edge25" class="edge">
<title>Node1&#45;&gt;Node19</title>
<path fill="none" stroke="midnightblue" d="M22.64,-226.25C26.06,-201.62 38.47,-136.35 77,-102 78.75,-100.44 80.61,-99.01 82.57,-97.7"/>
<polygon fill="midnightblue" stroke="midnightblue" points="84.61,-100.57 91.66,-92.65 81.21,-94.45 84.61,-100.57"/>
</g>
<!-- Node22 -->
<g id="node22" class="node">
<title>Node22</title>
<g id="a_node22"><a xlink:href="../../d9/d89/file__1_d__in_8c.html#afa89583d6583e954878dee9bab9cf7d9" target="_top" xlink:title="This function reads the 1&#45;D initial data file of density/velocity/pressure and performs some other in...">
<polygon fill="white" stroke="black" points="106,-248.5 106,-267.5 183,-267.5 183,-248.5 106,-248.5"/>
<text text-anchor="middle" x="144.5" y="-255.5" font-family="Helvetica,sans-Serif" font-size="10.00">initialize_1D</text>
</a>
</g>
</g>
<!-- Node1&#45;&gt;Node22 -->
<g id="edge32" class="edge">
<title>Node1&#45;&gt;Node22</title>
<path fill="none" stroke="midnightblue" d="M41.1,-239.53C55.83,-242.19 76.66,-245.95 95.69,-249.38"/>
<polygon fill="midnightblue" stroke="midnightblue" points="95.27,-252.86 105.73,-251.19 96.51,-245.97 95.27,-252.86"/>
</g>
<!-- Node4 -->
<g id="node4" class="node">
<title>Node4</title>
<g id="a_node4"><a xlink:href="../../d2/de0/config__handle_8c.html#a639a61ad0229b057258f8bc6edc4d050" target="_top" xlink:title="This function write configuration data and program record into the file &#39;log.dat&#39;.">
<polygon fill="white" stroke="black" points="281.5,-342.5 281.5,-361.5 358.5,-361.5 358.5,-342.5 281.5,-342.5"/>
<text text-anchor="middle" x="320" y="-349.5" font-family="Helvetica,sans-Serif" font-size="10.00">config_write</text>
</a>
</g>
</g>
<!-- Node3&#45;&gt;Node4 -->
<g id="edge3" class="edge">
<title>Node3&#45;&gt;Node4</title>
<path fill="none" stroke="midnightblue" d="M185.3,-338.13C210.94,-340.79 244.41,-344.26 271.44,-347.07"/>
<polygon fill="midnightblue" stroke="midnightblue" points="271.15,-350.55 281.46,-348.11 271.88,-343.59 271.15,-350.55"/>
</g>
<!-- Node5 -->
<g id="node5" class="node">
<title>Node5</title>
<g id="a_node5"><a xlink:href="../../d4/de5/io__control_8c.html#a7e039d23ca87a439fbe9c9d336447887" target="_top" xlink:title="This function produces folder path for data input or output.">
<polygon fill="white" stroke="black" points="283,-304.5 283,-323.5 357,-323.5 357,-304.5 283,-304.5"/>
<text text-anchor="middle" x="320" y="-311.5" font-family="Helvetica,sans-Serif" font-size="10.00">example_io</text>
</a>
</g>
</g>
<!-- Node3&#45;&gt;Node5 -->
<g id="edge4" class="edge">
<title>Node3&#45;&gt;Node5</title>
<path fill="none" stroke="midnightblue" d="M185.3,-329.41C211.39,-326.41 245.57,-322.46 272.84,-319.32"/>
<polygon fill="midnightblue" stroke="midnightblue" points="273.39,-322.78 282.92,-318.16 272.59,-315.83 273.39,-322.78"/>
</g>
<!-- Node6 -->
<g id="node6" class="node">
<title>Node6</title>
<g id="a_node6"><a xlink:href="../../d4/ddd/sys__pro_8c.html#a40a5faeb19b1fd9aec2c5c10a87faeb4" target="_top" xlink:title="This is a function that recursively creates folders.">
<polygon fill="white" stroke="black" points="460.5,-342.5 460.5,-361.5 523.5,-361.5 523.5,-342.5 460.5,-342.5"/>
<text text-anchor="middle" x="492" y="-349.5" font-family="Helvetica,sans-Serif" font-size="10.00">CreateDir</text>
</a>
</g>
</g>
<!-- Node5&#45;&gt;Node6 -->
<g id="edge5" class="edge">
<title>Node5&#45;&gt;Node6</title>
<path fill="none" stroke="midnightblue" d="M357.05,-322.06C384.4,-328.17 421.99,-336.57 450.39,-342.92"/>
<polygon fill="midnightblue" stroke="midnightblue" points="449.88,-346.4 460.4,-345.16 451.41,-339.56 449.88,-346.4"/>
</g>
<!-- Node7&#45;&gt;Node5 -->
<g id="edge7" class="edge">
<title>Node7&#45;&gt;Node5</title>
<path fill="none" stroke="midnightblue" d="M201.35,-301.79C224.44,-304.19 250.89,-306.93 272.86,-309.21"/>
<polygon fill="midnightblue" stroke="midnightblue" points="272.61,-312.71 282.92,-310.26 273.34,-305.74 272.61,-312.71"/>
</g>
<!-- Node9 -->
<g id="node9" class="node">
<title>Node9</title>
<g id="a_node9"><a xlink:href="../../df/d13/bound__cond__slope__limiter_8c.html#a64546388aefaa98c2cb33c8607c54c67" target="_top" xlink:title="This function apply the minmod limiter to the slope in one dimension.">
<polygon fill="white" stroke="black" points="248,-190.5 248,-209.5 392,-209.5 392,-190.5 248,-190.5"/>
<text text-anchor="middle" x="320" y="-197.5" font-family="Helvetica,sans-Serif" font-size="10.00">bound_cond_slope_limiter</text>
</a>
</g>
</g>
<!-- Node8&#45;&gt;Node9 -->
<g id="edge9" class="edge">
<title>Node8&#45;&gt;Node9</title>
<path fill="none" stroke="midnightblue" d="M204.24,-176.85C222.82,-180.6 243.32,-184.73 261.79,-188.46"/>
<polygon fill="midnightblue" stroke="midnightblue" points="261.32,-191.94 271.82,-190.48 262.71,-185.07 261.32,-191.94"/>
</g>
<!-- Node13 -->
<g id="node13" class="node">
<title>Node13</title>
<g id="a_node13"><a xlink:href="../../d4/ddd/sys__pro_8c.html#aab058cac35713b52c083b9e54ffa45eb" target="_top" xlink:title="This function print a progress bar on one line of standard output.">
<polygon fill="white" stroke="black" points="293,-152.5 293,-171.5 347,-171.5 347,-152.5 293,-152.5"/>
<text text-anchor="middle" x="320" y="-159.5" font-family="Helvetica,sans-Serif" font-size="10.00">DispPro</text>
</a>
</g>
</g>
<!-- Node8&#45;&gt;Node13 -->
<g id="edge13" class="edge">
<title>Node8&#45;&gt;Node13</title>
<path fill="none" stroke="midnightblue" d="M204.24,-163.98C230.21,-163.54 259.93,-163.02 282.62,-162.63"/>
<polygon fill="midnightblue" stroke="midnightblue" points="282.89,-166.13 292.83,-162.45 282.77,-159.13 282.89,-166.13"/>
</g>
<!-- Node14 -->
<g id="node14" class="node">
<title>Node14</title>
<g id="a_node14"><a xlink:href="../../d0/d07/linear__grp__solver___edir_8c.html#a2ad668bcecaaced69331652aa76193e2" target="_top" xlink:title="A direct Eulerian GRP solver for unsteady compressible inviscid flow in one space dimension.">
<polygon fill="white" stroke="black" points="255.5,-114.5 255.5,-133.5 384.5,-133.5 384.5,-114.5 255.5,-114.5"/>
<text text-anchor="middle" x="320" y="-121.5" font-family="Helvetica,sans-Serif" font-size="10.00">linear_GRP_solver_Edir</text>
</a>
</g>
</g>
<!-- Node8&#45;&gt;Node14 -->
<g id="edge14" class="edge">
<title>Node8&#45;&gt;Node14</title>
<path fill="none" stroke="midnightblue" d="M204.24,-151.12C225.18,-146.17 248.56,-140.65 268.73,-135.88"/>
<polygon fill="midnightblue" stroke="midnightblue" points="269.72,-139.24 278.64,-133.54 268.11,-132.43 269.72,-139.24"/>
</g>
<!-- Node15 -->
<g id="node15" class="node">
<title>Node15</title>
<g id="a_node15"><a xlink:href="../../d7/d5a/fluid__var__check_8c.html#a0177056576942ce464bb53db4dcb5138" target="_top" xlink:title="This function checks whether fluid variables of mid[] and dire[] are within the value range.">
<polygon fill="white" stroke="black" points="273.5,-76.5 273.5,-95.5 366.5,-95.5 366.5,-76.5 273.5,-76.5"/>
<text text-anchor="middle" x="320" y="-83.5" font-family="Helvetica,sans-Serif" font-size="10.00">star_dire_check</text>
</a>
</g>
</g>
<!-- Node8&#45;&gt;Node15 -->
<g id="edge15" class="edge">
<title>Node8&#45;&gt;Node15</title>
<path fill="none" stroke="midnightblue" d="M192.82,-149.99C199.47,-147.1 206.06,-143.77 212,-140 230.84,-128.04 228.59,-116.02 248,-105 252.85,-102.24 258.12,-99.87 263.52,-97.84"/>
<polygon fill="midnightblue" stroke="midnightblue" points="264.97,-101.05 273.32,-94.53 262.73,-94.41 264.97,-101.05"/>
</g>
<!-- Node10 -->
<g id="node10" class="node">
<title>Node10</title>
<g id="a_node10"><a xlink:href="../../d2/d49/slope__limiter_8c.html#aa63cbccebc0f88cf7397d2e594a861ae" target="_top" xlink:title="This function apply the minmod limiter to the slope in one dimension.">
<polygon fill="white" stroke="black" points="444.5,-114.5 444.5,-133.5 539.5,-133.5 539.5,-114.5 444.5,-114.5"/>
<text text-anchor="middle" x="492" y="-121.5" font-family="Helvetica,sans-Serif" font-size="10.00">minmod_limiter</text>
</a>
</g>
</g>
<!-- Node9&#45;&gt;Node10 -->
<g id="edge10" class="edge">
<title>Node9&#45;&gt;Node10</title>
<path fill="none" stroke="midnightblue" d="M370.93,-190.4C378.27,-187.94 385.53,-184.85 392,-181 411.99,-169.1 408.2,-155.21 428,-143 431.4,-140.9 435.05,-139.02 438.82,-137.34"/>
<polygon fill="midnightblue" stroke="midnightblue" points="440.34,-140.5 448.34,-133.55 437.76,-133.99 440.34,-140.5"/>
</g>
<!-- Node11 -->
<g id="node11" class="node">
<title>Node11</title>
<g id="a_node11"><a xlink:href="../../d5/da5/tools_8h.html#a56cac3298eeead8cf22c1e61eb5a5a88" target="_top" xlink:title="Minmod limiter function of two variables.">
<polygon fill="white" stroke="black" points="592,-133.5 592,-152.5 655,-152.5 655,-133.5 592,-133.5"/>
<text text-anchor="middle" x="623.5" y="-140.5" font-family="Helvetica,sans-Serif" font-size="10.00">minmod2</text>
</a>
</g>
</g>
<!-- Node10&#45;&gt;Node11 -->
<g id="edge11" class="edge">
<title>Node10&#45;&gt;Node11</title>
<path fill="none" stroke="midnightblue" d="M539.75,-130.86C553.61,-132.89 568.66,-135.1 582.08,-137.07"/>
<polygon fill="midnightblue" stroke="midnightblue" points="581.57,-140.53 591.97,-138.52 582.59,-133.61 581.57,-140.53"/>
</g>
<!-- Node12 -->
<g id="node12" class="node">
<title>Node12</title>
<g id="a_node12"><a xlink:href="../../d5/da5/tools_8h.html#a6dfba28e1af33b47f4656d3738996fe9" target="_top" xlink:title="Minmod limiter function of three variables.">
<polygon fill="white" stroke="black" points="592,-95.5 592,-114.5 655,-114.5 655,-95.5 592,-95.5"/>
<text text-anchor="middle" x="623.5" y="-102.5" font-family="Helvetica,sans-Serif" font-size="10.00">minmod3</text>
</a>
</g>
</g>
<!-- Node10&#45;&gt;Node12 -->
<g id="edge12" class="edge">
<title>Node10&#45;&gt;Node12</title>
<path fill="none" stroke="midnightblue" d="M539.75,-117.14C553.61,-115.11 568.66,-112.9 582.08,-110.93"/>
<polygon fill="midnightblue" stroke="midnightblue" points="582.59,-114.39 591.97,-109.48 581.57,-107.47 582.59,-114.39"/>
</g>
<!-- Node16&#45;&gt;Node9 -->
<g id="edge17" class="edge">
<title>Node16&#45;&gt;Node9</title>
<path fill="none" stroke="midnightblue" d="M205.21,-209.18C215.72,-208.33 226.81,-207.44 237.79,-206.55"/>
<polygon fill="midnightblue" stroke="midnightblue" points="238.13,-210.04 247.81,-205.74 237.56,-203.06 238.13,-210.04"/>
</g>
<!-- Node16&#45;&gt;Node13 -->
<g id="edge18" class="edge">
<title>Node16&#45;&gt;Node13</title>
<path fill="none" stroke="midnightblue" d="M190.51,-198.97C208.35,-193.16 229.08,-186.57 248,-181 259.34,-177.66 271.77,-174.25 283.02,-171.26"/>
<polygon fill="midnightblue" stroke="midnightblue" points="284.17,-174.57 292.95,-168.64 282.39,-167.8 284.17,-174.57"/>
</g>
<!-- Node17&#45;&gt;Node9 -->
<g id="edge20" class="edge">
<title>Node17&#45;&gt;Node9</title>
<path fill="none" stroke="midnightblue" d="M189.56,-130.53C197.37,-133.24 205.18,-136.67 212,-141 232.2,-153.81 227.61,-168.5 248,-181 251.55,-183.17 255.35,-185.1 259.27,-186.81"/>
<polygon fill="midnightblue" stroke="midnightblue" points="258.02,-190.08 268.61,-190.42 260.54,-183.55 258.02,-190.08"/>
</g>
<!-- Node17&#45;&gt;Node13 -->
<g id="edge21" class="edge">
<title>Node17&#45;&gt;Node13</title>
<path fill="none" stroke="midnightblue" d="M185.74,-130.51C215.16,-137.46 254.72,-146.81 283.08,-153.51"/>
<polygon fill="midnightblue" stroke="midnightblue" points="282.44,-156.96 292.98,-155.85 284.05,-150.14 282.44,-156.96"/>
</g>
<!-- Node17&#45;&gt;Node14 -->
<g id="edge23" class="edge">
<title>Node17&#45;&gt;Node14</title>
<path fill="none" stroke="midnightblue" d="M211.59,-122.14C222.59,-122.33 234.05,-122.53 245.23,-122.72"/>
<polygon fill="midnightblue" stroke="midnightblue" points="245.33,-126.23 255.39,-122.9 245.45,-119.23 245.33,-126.23"/>
</g>
<!-- Node17&#45;&gt;Node15 -->
<g id="edge24" class="edge">
<title>Node17&#45;&gt;Node15</title>
<path fill="none" stroke="midnightblue" d="M192.91,-111.44C214.76,-107.03 240.83,-101.77 263.59,-97.18"/>
<polygon fill="midnightblue" stroke="midnightblue" points="264.33,-100.6 273.44,-95.19 262.95,-93.74 264.33,-100.6"/>
</g>
<!-- Node18 -->
<g id="node18" class="node">
<title>Node18</title>
<g id="a_node18"><a xlink:href="../../d7/d5a/fluid__var__check_8c.html#a29ead600b8eb62cb272068d83dadcc46" target="_top" xlink:title="This function checks whether interfacial fluid variables are within the value range.">
<polygon fill="white" stroke="black" points="283.5,-38.5 283.5,-57.5 356.5,-57.5 356.5,-38.5 283.5,-38.5"/>
<text text-anchor="middle" x="320" y="-45.5" font-family="Helvetica,sans-Serif" font-size="10.00">ifvar_check</text>
</a>
</g>
</g>
<!-- Node17&#45;&gt;Node18 -->
<g id="edge22" class="edge">
<title>Node17&#45;&gt;Node18</title>
<path fill="none" stroke="midnightblue" d="M190.39,-111.47C197.87,-108.96 205.35,-105.85 212,-102 231.31,-90.82 228.59,-78.02 248,-67 255.82,-62.56 264.72,-59.12 273.5,-56.48"/>
<polygon fill="midnightblue" stroke="midnightblue" points="274.58,-59.81 283.31,-53.81 272.74,-53.06 274.58,-59.81"/>
</g>
<!-- Node19&#45;&gt;Node9 -->
<g id="edge26" class="edge">
<title>Node19&#45;&gt;Node9</title>
<path fill="none" stroke="midnightblue" d="M196.54,-92.5C202.14,-94.97 207.45,-98.08 212,-102 241.24,-127.17 218.55,-156.07 248,-181 250,-182.7 252.14,-184.24 254.38,-185.65"/>
<polygon fill="midnightblue" stroke="midnightblue" points="252.98,-188.86 263.45,-190.43 256.24,-182.67 252.98,-188.86"/>
</g>
<!-- Node19&#45;&gt;Node13 -->
<g id="edge27" class="edge">
<title>Node19&#45;&gt;Node13</title>
<path fill="none" stroke="midnightblue" d="M192.05,-92.58C199.03,-95.06 205.91,-98.15 212,-102 232.49,-114.97 227.4,-130.2 248,-143 258.48,-149.51 271.17,-153.81 282.91,-156.65"/>
<polygon fill="midnightblue" stroke="midnightblue" points="282.39,-160.11 292.9,-158.78 283.85,-153.27 282.39,-160.11"/>
</g>
<!-- Node19&#45;&gt;Node15 -->
<g id="edge31" class="edge">
<title>Node19&#45;&gt;Node15</title>
<path fill="none" stroke="midnightblue" d="M212.08,-84.15C228.86,-84.44 246.7,-84.75 262.9,-85.03"/>
<polygon fill="midnightblue" stroke="midnightblue" points="263.23,-88.54 273.29,-85.21 263.35,-81.54 263.23,-88.54"/>
</g>
<!-- Node19&#45;&gt;Node18 -->
<g id="edge28" class="edge">
<title>Node19&#45;&gt;Node18</title>
<path fill="none" stroke="midnightblue" d="M192.91,-73.44C218.04,-68.37 248.76,-62.17 273.59,-57.16"/>
<polygon fill="midnightblue" stroke="midnightblue" points="274.37,-60.57 283.48,-55.16 272.99,-53.71 274.37,-60.57"/>
</g>
<!-- Node20 -->
<g id="node20" class="node">
<title>Node20</title>
<g id="a_node20"><a xlink:href="../../d4/d01/linear__grp__solver___l_a_g_8c.html#ab4ec31d8b36eb208891be00b7f247b4a" target="_top" xlink:title="A Lagrangian GRP solver for unsteady compressible inviscid two&#45;component flow in one space dimension.">
<polygon fill="white" stroke="black" points="254.5,-0.5 254.5,-19.5 385.5,-19.5 385.5,-0.5 254.5,-0.5"/>
<text text-anchor="middle" x="320" y="-7.5" font-family="Helvetica,sans-Serif" font-size="10.00">linear_GRP_solver_LAG</text>
</a>
</g>
</g>
<!-- Node19&#45;&gt;Node20 -->
<g id="edge29" class="edge">
<title>Node19&#45;&gt;Node20</title>
<path fill="none" stroke="midnightblue" d="M160.96,-73.45C180.59,-61.65 215.79,-41.61 248,-29 254.23,-26.56 260.88,-24.33 267.52,-22.31"/>
<polygon fill="midnightblue" stroke="midnightblue" points="268.56,-25.65 277.2,-19.52 266.62,-18.93 268.56,-25.65"/>
</g>
<!-- Node21 -->
<g id="node21" class="node">
<title>Node21</title>
<g id="a_node21"><a xlink:href="../../d0/d08/riemann__solver__exact___ben_8c.html#a3ad58b11c355d45ee406da49161edbd4" target="_top" xlink:title="EXACT RIEMANN SOLVER FOR Two&#45;Component γ&#45;Law Gas">
<polygon fill="white" stroke="black" points="428,-0.5 428,-19.5 556,-19.5 556,-0.5 428,-0.5"/>
<text text-anchor="middle" x="492" y="-7.5" font-family="Helvetica,sans-Serif" font-size="10.00">Riemann_solver_exact</text>
</a>
</g>
</g>
<!-- Node20&#45;&gt;Node21 -->
<g id="edge30" class="edge">
<title>Node20&#45;&gt;Node21</title>
<path fill="none" stroke="midnightblue" d="M385.75,-10C396.21,-10 407.09,-10 417.73,-10"/>
<polygon fill="midnightblue" stroke="midnightblue" points="417.83,-13.5 427.83,-10 417.83,-6.5 417.83,-13.5"/>
</g>
<!-- Node22&#45;&gt;Node5 -->
<g id="edge36" class="edge">
<title>Node22&#45;&gt;Node5</title>
<path fill="none" stroke="midnightblue" d="M183.18,-267.45C192.7,-270.2 202.82,-273.43 212,-277 228.67,-283.49 231.27,-288.66 248,-295 255.97,-298.03 264.63,-300.77 273.06,-303.16"/>
<polygon fill="midnightblue" stroke="midnightblue" points="272.23,-306.57 282.8,-305.82 274.07,-299.81 272.23,-306.57"/>
</g>
<!-- Node23 -->
<g id="node23" class="node">
<title>Node23</title>
<g id="a_node23"><a xlink:href="../../d2/de0/config__handle_8c.html#a4b15e37e2922cce20bf5cc8bb6e80c9a" target="_top" xlink:title="This function controls configuration data reading and validation.">
<polygon fill="white" stroke="black" points="284,-266.5 284,-285.5 356,-285.5 356,-266.5 284,-266.5"/>
<text text-anchor="middle" x="320" y="-273.5" font-family="Helvetica,sans-Serif" font-size="10.00">configurate</text>
</a>
</g>
</g>
<!-- Node22&#45;&gt;Node23 -->
<g id="edge33" class="edge">
<title>Node22&#45;&gt;Node23</title>
<path fill="none" stroke="midnightblue" d="M183.15,-261.91C209.78,-264.67 245.61,-268.39 273.79,-271.31"/>
<polygon fill="midnightblue" stroke="midnightblue" points="273.48,-274.8 283.79,-272.35 274.21,-267.83 273.48,-274.8"/>
</g>
<!-- Node26 -->
<g id="node26" class="node">
<title>Node26</title>
<g id="a_node26"><a xlink:href="../../d4/de5/io__control_8c.html#afc5a75c19ae16af5227567eb1dde0ef1" target="_top" xlink:title="This function reads the time data file for plotting &#39;time_plot.dat&#39; and initialize tha array &#39;time_pl...">
<polygon fill="white" stroke="black" points="275,-228.5 275,-247.5 365,-247.5 365,-228.5 275,-228.5"/>
<text text-anchor="middle" x="320" y="-235.5" font-family="Helvetica,sans-Serif" font-size="10.00">time_plot_read</text>
</a>
</g>
</g>
<!-- Node22&#45;&gt;Node26 -->
<g id="edge37" class="edge">
<title>Node22&#45;&gt;Node26</title>
<path fill="none" stroke="midnightblue" d="M183.15,-253.66C206.99,-250.91 238.21,-247.31 264.71,-244.26"/>
<polygon fill="midnightblue" stroke="midnightblue" points="265.46,-247.7 274.99,-243.07 264.65,-240.74 265.46,-247.7"/>
</g>
<!-- Node24 -->
<g id="node24" class="node">
<title>Node24</title>
<g id="a_node24"><a xlink:href="../../d2/de0/config__handle_8c.html#a4b379c084f41490473f80792af24e0c7" target="_top" xlink:title="This function check whether the configuration data is reasonable and set the default....">
<polygon fill="white" stroke="black" points="452,-304.5 452,-323.5 532,-323.5 532,-304.5 452,-304.5"/>
<text text-anchor="middle" x="492" y="-311.5" font-family="Helvetica,sans-Serif" font-size="10.00">config_check</text>
</a>
</g>
</g>
<!-- Node23&#45;&gt;Node24 -->
<g id="edge34" class="edge">
<title>Node23&#45;&gt;Node24</title>
<path fill="none" stroke="midnightblue" d="M356.22,-283.87C381.08,-289.43 414.71,-296.95 442.16,-303.08"/>
<polygon fill="midnightblue" stroke="midnightblue" points="441.44,-306.51 451.96,-305.27 442.97,-299.68 441.44,-306.51"/>
</g>
<!-- Node25 -->
<g id="node25" class="node">
<title>Node25</title>
<g id="a_node25"><a xlink:href="../../d2/de0/config__handle_8c.html#a482404d20045a8a5f48b5ee425a04259" target="_top" xlink:title="This function read the configuration data file, and store the configuration data in the array &#39;config...">
<polygon fill="white" stroke="black" points="455,-266.5 455,-285.5 529,-285.5 529,-266.5 455,-266.5"/>
<text text-anchor="middle" x="492" y="-273.5" font-family="Helvetica,sans-Serif" font-size="10.00">config_read</text>
</a>
</g>
</g>
<!-- Node23&#45;&gt;Node25 -->
<g id="edge35" class="edge">
<title>Node23&#45;&gt;Node25</title>
<path fill="none" stroke="midnightblue" d="M356.22,-276C381.84,-276 416.76,-276 444.64,-276"/>
<polygon fill="midnightblue" stroke="midnightblue" points="444.94,-279.5 454.94,-276 444.94,-272.5 444.94,-279.5"/>
</g>
<!-- Node27 -->
<g id="node27" class="node">
<title>Node27</title>
<g id="a_node27"><a xlink:href="../../d4/de5/io__control_8c.html#a7d7ac58cf9ddeec7a4a3c73fabd297e6" target="_top" xlink:title="Compare function of double for sort function &#39;qsort()&#39;.">
<polygon fill="white" stroke="black" points="443,-228.5 443,-247.5 541,-247.5 541,-228.5 443,-228.5"/>
<text text-anchor="middle" x="492" y="-235.5" font-family="Helvetica,sans-Serif" font-size="10.00">compare_double</text>
</a>
</g>
</g>
<!-- Node26&#45;&gt;Node27 -->
<g id="edge38" class="edge">
<title>Node26&#45;&gt;Node27</title>
<path fill="none" stroke="midnightblue" d="M365.22,-238C385.77,-238 410.5,-238 432.56,-238"/>
<polygon fill="midnightblue" stroke="midnightblue" points="432.82,-241.5 442.82,-238 432.82,-234.5 432.82,-241.5"/>
</g>
<!-- Node28 -->
<g id="node28" class="node">
<title>Node28</title>
<g id="a_node28"><a xlink:href="../../d4/de5/io__control_8c.html#acdd9ccb7dc0ecc925cafe95a4c2f8a51" target="_top" xlink:title="This function counts how many numbers are there in the initial data file.">
<polygon fill="white" stroke="black" points="450.5,-190.5 450.5,-209.5 533.5,-209.5 533.5,-190.5 450.5,-190.5"/>
<text text-anchor="middle" x="492" y="-197.5" font-family="Helvetica,sans-Serif" font-size="10.00">flu_var_count</text>
</a>
</g>
</g>
<!-- Node26&#45;&gt;Node28 -->
<g id="edge39" class="edge">
<title>Node26&#45;&gt;Node28</title>
<path fill="none" stroke="midnightblue" d="M363.9,-228.41C387.24,-223.19 416.25,-216.71 440.66,-211.25"/>
<polygon fill="midnightblue" stroke="midnightblue" points="441.46,-214.66 450.46,-209.06 439.93,-207.83 441.46,-214.66"/>
</g>
<!-- Node29 -->
<g id="node29" class="node">
<title>Node29</title>
<g id="a_node29"><a xlink:href="../../d4/de5/io__control_8c.html#a40ca7ad20048ff97a27a8641cf31b7cb" target="_top" xlink:title="This function reads the initial data file to generate the initial data.">
<polygon fill="white" stroke="black" points="453.5,-152.5 453.5,-171.5 530.5,-171.5 530.5,-152.5 453.5,-152.5"/>
<text text-anchor="middle" x="492" y="-159.5" font-family="Helvetica,sans-Serif" font-size="10.00">flu_var_read</text>
</a>
</g>
</g>
<!-- Node26&#45;&gt;Node29 -->
<g id="edge40" class="edge">
<title>Node26&#45;&gt;Node29</title>
<path fill="none" stroke="midnightblue" d="M365.33,-230.17C374.53,-227.46 383.89,-223.83 392,-219 411.99,-207.1 408.2,-193.21 428,-181 432.8,-178.04 438.09,-175.51 443.51,-173.37"/>
<polygon fill="midnightblue" stroke="midnightblue" points="445.05,-176.53 453.31,-169.89 442.72,-169.93 445.05,-176.53"/>
</g>
</g>
</svg>
