<?xml version="1.0" encoding="UTF-8" standalone="no"?>
<!DOCTYPE svg PUBLIC "-//W3C//DTD SVG 1.1//EN"
 "http://www.w3.org/Graphics/SVG/1.1/DTD/svg11.dtd">
<!-- Generated by graphviz version 6.0.1 (0)
 -->
<!-- Title: main Pages: 1 -->
<svg width="944pt" height="517pt"
 viewBox="0.00 0.00 944.00 517.00" xmlns="http://www.w3.org/2000/svg" xmlns:xlink="http://www.w3.org/1999/xlink">
<g id="graph0" class="graph" transform="scale(1 1) rotate(0) translate(4 513)">
<title>main</title>
<polygon fill="white" stroke="none" points="-4,4 -4,-513 940,-513 940,4 -4,4"/>
<!-- Node1 -->
<g id="node1" class="node">
<title>Node1</title>
<g id="a_node1"><a xlink:title="This is the main function which constructs the main structure of the 2&#45;D Eulerian hydrocode.">
<polygon fill="#bfbfbf" stroke="black" points="0,-375.5 0,-394.5 41,-394.5 41,-375.5 0,-375.5"/>
<text text-anchor="middle" x="20.5" y="-382.5" font-family="Helvetica,sans-Serif" font-size="10.00">main</text>
</a>
</g>
</g>
<!-- Node2 -->
<g id="node2" class="node">
<title>Node2</title>
<g id="a_node2"><a xlink:href="../../d0/d49/terminal__io_8c.html#a6f9b51d91c38d3ce58786dfd84973994" target="_top" xlink:title="This is a functions preprocesses ARGuments.">
<polygon fill="white" stroke="black" points="107.5,-489.5 107.5,-508.5 198.5,-508.5 198.5,-489.5 107.5,-489.5"/>
<text text-anchor="middle" x="153" y="-496.5" font-family="Helvetica,sans-Serif" font-size="10.00">arg_preprocess</text>
</a>
</g>
</g>
<!-- Node1&#45;&gt;Node2 -->
<g id="edge1" class="edge">
<title>Node1&#45;&gt;Node2</title>
<path fill="none" stroke="midnightblue" d="M24.38,-394.8C30.61,-414.21 47.24,-457.6 77,-480 83.05,-484.55 90.07,-488.02 97.35,-490.66"/>
<polygon fill="midnightblue" stroke="midnightblue" points="96.76,-494.15 107.35,-493.78 98.84,-487.46 96.76,-494.15"/>
</g>
<!-- Node3 -->
<g id="node3" class="node">
<title>Node3</title>
<g id="a_node3"><a xlink:href="../../d7/d20/file__2_d__out_8c.html#a2cfae0698a650473dfa73b2c8042e291" target="_top" xlink:title="This function write the 2&#45;D solution into output &#39;.dat&#39; files.">
<polygon fill="white" stroke="black" points="112.5,-451.5 112.5,-470.5 193.5,-470.5 193.5,-451.5 112.5,-451.5"/>
<text text-anchor="middle" x="153" y="-458.5" font-family="Helvetica,sans-Serif" font-size="10.00">file_2D_write</text>
</a>
</g>
</g>
<!-- Node1&#45;&gt;Node3 -->
<g id="edge2" class="edge">
<title>Node1&#45;&gt;Node3</title>
<path fill="none" stroke="midnightblue" d="M28.2,-394.66C37.61,-407.46 55.95,-429.85 77,-442 84.78,-446.49 93.61,-449.93 102.41,-452.56"/>
<polygon fill="midnightblue" stroke="midnightblue" points="101.71,-456 112.27,-455.2 103.52,-449.24 101.71,-456"/>
</g>
<!-- Node7 -->
<g id="node7" class="node">
<title>Node7</title>
<g id="a_node7"><a xlink:href="../../d4/d39/file__out__hdf5_8c.html#a23e6202deeb430def9c660b183591c22" target="_top" xlink:title="This function write the 2&#45;D solution into HDF5 output &#39;.h5&#39; files.">
<polygon fill="white" stroke="black" points="96.5,-413.5 96.5,-432.5 209.5,-432.5 209.5,-413.5 96.5,-413.5"/>
<text text-anchor="middle" x="153" y="-420.5" font-family="Helvetica,sans-Serif" font-size="10.00">file_2D_write_HDF5</text>
</a>
</g>
</g>
<!-- Node1&#45;&gt;Node7 -->
<g id="edge6" class="edge">
<title>Node1&#45;&gt;Node7</title>
<path fill="none" stroke="midnightblue" d="M41.04,-390.69C59,-395.92 86.25,-403.85 109.25,-410.55"/>
<polygon fill="midnightblue" stroke="midnightblue" points="108.56,-414 119.14,-413.43 110.51,-407.27 108.56,-414"/>
</g>
<!-- Node8 -->
<g id="node8" class="node">
<title>Node8</title>
<g id="a_node8"><a xlink:href="../../d7/d20/file__2_d__out_8c.html#ad420018a322081934dd8f2853f5a535d" target="_top" xlink:title="This function write the 2&#45;D solution into Tecplot output files with point data.">
<polygon fill="white" stroke="black" points="272.5,-375.5 272.5,-394.5 412.5,-394.5 412.5,-375.5 272.5,-375.5"/>
<text text-anchor="middle" x="342.5" y="-382.5" font-family="Helvetica,sans-Serif" font-size="10.00">file_2D_write_POINT_TEC</text>
</a>
</g>
</g>
<!-- Node1&#45;&gt;Node8 -->
<g id="edge8" class="edge">
<title>Node1&#45;&gt;Node8</title>
<path fill="none" stroke="midnightblue" d="M41.04,-385C83.93,-385 188.41,-385 262.06,-385"/>
<polygon fill="midnightblue" stroke="midnightblue" points="262.24,-388.5 272.24,-385 262.24,-381.5 262.24,-388.5"/>
</g>
<!-- Node9 -->
<g id="node9" class="node">
<title>Node9</title>
<g id="a_node9"><a xlink:href="../../d1/d4b/grp__solver__2_d___e_u_l__source_8c.html#a30950ea8ff93f97618fb87759c6aae04" target="_top" xlink:title="This function use GRP scheme to solve 2&#45;D Euler equations of motion on Eulerian coordinate without di...">
<polygon fill="white" stroke="black" points="77,-321.5 77,-340.5 229,-340.5 229,-321.5 77,-321.5"/>
<text text-anchor="middle" x="153" y="-328.5" font-family="Helvetica,sans-Serif" font-size="10.00">GRP_solver_2D_EUL_source</text>
</a>
</g>
</g>
<!-- Node1&#45;&gt;Node9 -->
<g id="edge10" class="edge">
<title>Node1&#45;&gt;Node9</title>
<path fill="none" stroke="midnightblue" d="M41.04,-376.92C61.75,-368.34 94.82,-354.66 119.47,-344.46"/>
<polygon fill="midnightblue" stroke="midnightblue" points="120.9,-347.66 128.8,-340.6 118.22,-341.19 120.9,-347.66"/>
</g>
<!-- Node24 -->
<g id="node24" class="node">
<title>Node24</title>
<g id="a_node24"><a xlink:href="../../df/d07/grp__solver__2_d__split___e_u_l__source_8c.html#af66dc2722921b16ef5aa77be65cfc311" target="_top" xlink:title="This function use GRP scheme to solve 2&#45;D Euler equations of motion on Eulerian coordinate with dimen...">
<polygon fill="white" stroke="black" points="94.5,-272 94.5,-302 211.5,-302 211.5,-272 94.5,-272"/>
<text text-anchor="start" x="102.5" y="-290" font-family="Helvetica,sans-Serif" font-size="10.00">GRP_solver_2D_split</text>
<text text-anchor="middle" x="153" y="-279" font-family="Helvetica,sans-Serif" font-size="10.00">_EUL_source</text>
</a>
</g>
</g>
<!-- Node1&#45;&gt;Node24 -->
<g id="edge30" class="edge">
<title>Node1&#45;&gt;Node24</title>
<path fill="none" stroke="midnightblue" d="M26.28,-375.48C34.53,-359.96 52.92,-329.24 77,-312 79.68,-310.08 82.51,-308.31 85.45,-306.66"/>
<polygon fill="midnightblue" stroke="midnightblue" points="87.17,-309.71 94.53,-302.1 84.02,-303.46 87.17,-309.71"/>
</g>
<!-- Node25 -->
<g id="node25" class="node">
<title>Node25</title>
<g id="a_node25"><a xlink:href="../../d9/d8a/file__2_d__in_8c.html#a13555e5f4f916ffa5975ed5f22be2697" target="_top" xlink:title="This function reads the 2&#45;D initial data file of density/velocity/pressure.">
<polygon fill="white" stroke="black" points="114.5,-147.5 114.5,-166.5 191.5,-166.5 191.5,-147.5 114.5,-147.5"/>
<text text-anchor="middle" x="153" y="-154.5" font-family="Helvetica,sans-Serif" font-size="10.00">initialize_2D</text>
</a>
</g>
</g>
<!-- Node1&#45;&gt;Node25 -->
<g id="edge37" class="edge">
<title>Node1&#45;&gt;Node25</title>
<path fill="none" stroke="midnightblue" d="M25.22,-375.2C33.4,-354.08 54.05,-302.95 77,-263 95.78,-230.31 122.03,-195.09 137.98,-174.6"/>
<polygon fill="midnightblue" stroke="midnightblue" points="140.9,-176.55 144.32,-166.53 135.39,-172.22 140.9,-176.55"/>
</g>
<!-- Node4 -->
<g id="node4" class="node">
<title>Node4</title>
<g id="a_node4"><a xlink:href="../../d2/de0/config__handle_8c.html#a639a61ad0229b057258f8bc6edc4d050" target="_top" xlink:title="This function write configuration data and program record into the file &#39;log.dat&#39;.">
<polygon fill="white" stroke="black" points="304,-489.5 304,-508.5 381,-508.5 381,-489.5 304,-489.5"/>
<text text-anchor="middle" x="342.5" y="-496.5" font-family="Helvetica,sans-Serif" font-size="10.00">config_write</text>
</a>
</g>
</g>
<!-- Node3&#45;&gt;Node4 -->
<g id="edge3" class="edge">
<title>Node3&#45;&gt;Node4</title>
<path fill="none" stroke="midnightblue" d="M193.76,-469.06C222.93,-474.97 262.67,-483.02 293.59,-489.29"/>
<polygon fill="midnightblue" stroke="midnightblue" points="293.22,-492.79 303.71,-491.34 294.61,-485.92 293.22,-492.79"/>
</g>
<!-- Node5 -->
<g id="node5" class="node">
<title>Node5</title>
<g id="a_node5"><a xlink:href="../../d4/de5/io__control_8c.html#a7e039d23ca87a439fbe9c9d336447887" target="_top" xlink:title="This function produces folder path for data input or output.">
<polygon fill="white" stroke="black" points="481.5,-375.5 481.5,-394.5 555.5,-394.5 555.5,-375.5 481.5,-375.5"/>
<text text-anchor="middle" x="518.5" y="-382.5" font-family="Helvetica,sans-Serif" font-size="10.00">example_io</text>
</a>
</g>
</g>
<!-- Node3&#45;&gt;Node5 -->
<g id="edge4" class="edge">
<title>Node3&#45;&gt;Node5</title>
<path fill="none" stroke="midnightblue" d="M193.8,-458.48C246.34,-454.48 341.36,-444.87 420,-424 443.71,-417.71 469.43,-407.26 488.5,-398.76"/>
<polygon fill="midnightblue" stroke="midnightblue" points="490.16,-401.85 497.82,-394.52 487.26,-395.47 490.16,-401.85"/>
</g>
<!-- Node6 -->
<g id="node6" class="node">
<title>Node6</title>
<g id="a_node6"><a xlink:href="../../d4/ddd/sys__pro_8c.html#a40a5faeb19b1fd9aec2c5c10a87faeb4" target="_top" xlink:title="This is a function that recursively creates folders.">
<polygon fill="white" stroke="black" points="663,-375.5 663,-394.5 726,-394.5 726,-375.5 663,-375.5"/>
<text text-anchor="middle" x="694.5" y="-382.5" font-family="Helvetica,sans-Serif" font-size="10.00">CreateDir</text>
</a>
</g>
</g>
<!-- Node5&#45;&gt;Node6 -->
<g id="edge5" class="edge">
<title>Node5&#45;&gt;Node6</title>
<path fill="none" stroke="midnightblue" d="M555.55,-385C583.75,-385 622.96,-385 652.37,-385"/>
<polygon fill="midnightblue" stroke="midnightblue" points="652.73,-388.5 662.73,-385 652.73,-381.5 652.73,-388.5"/>
</g>
<!-- Node7&#45;&gt;Node5 -->
<g id="edge7" class="edge">
<title>Node7&#45;&gt;Node5</title>
<path fill="none" stroke="midnightblue" d="M209.73,-420.98C263.69,-418.57 347.71,-413.59 420,-404 436.69,-401.79 454.83,-398.5 470.88,-395.28"/>
<polygon fill="midnightblue" stroke="midnightblue" points="472,-398.62 481.1,-393.18 470.6,-391.76 472,-398.62"/>
</g>
<!-- Node8&#45;&gt;Node5 -->
<g id="edge9" class="edge">
<title>Node8&#45;&gt;Node5</title>
<path fill="none" stroke="midnightblue" d="M412.52,-385C432.19,-385 453.14,-385 471.11,-385"/>
<polygon fill="midnightblue" stroke="midnightblue" points="471.32,-388.5 481.32,-385 471.32,-381.5 471.32,-388.5"/>
</g>
<!-- Node9&#45;&gt;Node8 -->
<g id="edge20" class="edge">
<title>Node9&#45;&gt;Node8</title>
<path fill="none" stroke="midnightblue" d="M182.6,-340.56C204.93,-347.89 236.8,-358.06 265,-366 273.42,-368.37 282.41,-370.74 291.15,-372.97"/>
<polygon fill="midnightblue" stroke="midnightblue" points="290.33,-376.37 300.88,-375.41 292.03,-369.58 290.33,-376.37"/>
</g>
<!-- Node10 -->
<g id="node10" class="node">
<title>Node10</title>
<g id="a_node10"><a xlink:href="../../d8/d49/bound__cond__slope__limiter__x_8c.html#a93bebe7c69a9932a22ae8bfce51ab95c" target="_top" xlink:title="This function apply the minmod limiter to the slope in the x&#45;direction of two dimension.">
<polygon fill="white" stroke="black" points="265,-299.5 265,-318.5 420,-318.5 420,-299.5 265,-299.5"/>
<text text-anchor="middle" x="342.5" y="-306.5" font-family="Helvetica,sans-Serif" font-size="10.00">bound_cond_slope_limiter_x</text>
</a>
</g>
</g>
<!-- Node9&#45;&gt;Node10 -->
<g id="edge11" class="edge">
<title>Node9&#45;&gt;Node10</title>
<path fill="none" stroke="midnightblue" d="M229.18,-322.18C237.6,-321.19 246.23,-320.18 254.78,-319.17"/>
<polygon fill="midnightblue" stroke="midnightblue" points="255.25,-322.64 264.77,-318 254.43,-315.69 255.25,-322.64"/>
</g>
<!-- Node14 -->
<g id="node14" class="node">
<title>Node14</title>
<g id="a_node14"><a xlink:href="../../d8/dbb/bound__cond__slope__limiter__y_8c.html#aaf0175f075a4b153d671c163bc8275b6" target="_top" xlink:title="This function apply the minmod limiter to the slope in the y&#45;direction of two dimension.">
<polygon fill="white" stroke="black" points="265,-337.5 265,-356.5 420,-356.5 420,-337.5 265,-337.5"/>
<text text-anchor="middle" x="342.5" y="-344.5" font-family="Helvetica,sans-Serif" font-size="10.00">bound_cond_slope_limiter_y</text>
</a>
</g>
</g>
<!-- Node9&#45;&gt;Node14 -->
<g id="edge15" class="edge">
<title>Node9&#45;&gt;Node14</title>
<path fill="none" stroke="midnightblue" d="M229.18,-337.42C237.6,-338.13 246.23,-338.87 254.78,-339.6"/>
<polygon fill="midnightblue" stroke="midnightblue" points="254.51,-343.09 264.77,-340.45 255.1,-336.11 254.51,-343.09"/>
</g>
<!-- Node16 -->
<g id="node16" class="node">
<title>Node16</title>
<g id="a_node16"><a xlink:href="../../d4/ddd/sys__pro_8c.html#aab058cac35713b52c083b9e54ffa45eb" target="_top" xlink:title="This function print a progress bar on one line of standard output.">
<polygon fill="white" stroke="black" points="315.5,-223.5 315.5,-242.5 369.5,-242.5 369.5,-223.5 315.5,-223.5"/>
<text text-anchor="middle" x="342.5" y="-230.5" font-family="Helvetica,sans-Serif" font-size="10.00">DispPro</text>
</a>
</g>
</g>
<!-- Node9&#45;&gt;Node16 -->
<g id="edge19" class="edge">
<title>Node9&#45;&gt;Node16</title>
<path fill="none" stroke="midnightblue" d="M211.83,-321.37C217.95,-318.92 223.83,-315.85 229,-312 253.96,-293.45 240,-270.49 265,-252 276.57,-243.44 291.55,-238.71 305.18,-236.1"/>
<polygon fill="midnightblue" stroke="midnightblue" points="305.94,-239.52 315.26,-234.49 304.84,-232.61 305.94,-239.52"/>
</g>
<!-- Node17 -->
<g id="node17" class="node">
<title>Node17</title>
<g id="a_node17"><a xlink:href="../../de/d35/flux__generator__x_8c.html#a99d3c20c9f68680b85415265ecd67b60" target="_top" xlink:title="This function calculate Eulerian fluxes of 2&#45;D Euler equations in x&#45;direction by 2&#45;D GRP solver.">
<polygon fill="white" stroke="black" points="293,-261.5 293,-280.5 392,-280.5 392,-261.5 293,-261.5"/>
<text text-anchor="middle" x="342.5" y="-268.5" font-family="Helvetica,sans-Serif" font-size="10.00">flux_generator_x</text>
</a>
</g>
</g>
<!-- Node9&#45;&gt;Node17 -->
<g id="edge21" class="edge">
<title>Node9&#45;&gt;Node17</title>
<path fill="none" stroke="midnightblue" d="M200.72,-321.48C210.25,-318.9 220.09,-315.75 229,-312 246.28,-304.73 247.7,-297.23 265,-290 270.88,-287.54 277.16,-285.35 283.49,-283.4"/>
<polygon fill="midnightblue" stroke="midnightblue" points="284.78,-286.67 293.43,-280.55 282.86,-279.94 284.78,-286.67"/>
</g>
<!-- Node23 -->
<g id="node23" class="node">
<title>Node23</title>
<g id="a_node23"><a xlink:href="../../de/db1/flux__generator__y_8c.html#a964701ac9bd65f6b19c3c731e983d562" target="_top" xlink:title="This function calculate Eulerian fluxes of 2&#45;D Euler equations in y&#45;direction by 2&#45;D GRP solver.">
<polygon fill="white" stroke="black" points="293,-147.5 293,-166.5 392,-166.5 392,-147.5 293,-147.5"/>
<text text-anchor="middle" x="342.5" y="-154.5" font-family="Helvetica,sans-Serif" font-size="10.00">flux_generator_y</text>
</a>
</g>
</g>
<!-- Node9&#45;&gt;Node23 -->
<g id="edge27" class="edge">
<title>Node9&#45;&gt;Node23</title>
<path fill="none" stroke="midnightblue" d="M214.45,-321.46C219.74,-318.97 224.71,-315.87 229,-312 263.47,-280.94 237.24,-251.18 265,-214 278,-196.58 297.78,-182.04 313.97,-172.01"/>
<polygon fill="midnightblue" stroke="midnightblue" points="316.2,-174.75 323.01,-166.63 312.62,-168.73 316.2,-174.75"/>
</g>
<!-- Node11 -->
<g id="node11" class="node">
<title>Node11</title>
<g id="a_node11"><a xlink:href="../../d7/d36/slope__limiter__2_d__x_8c.html#a28623a6705c28efd5d34c57409c54678" target="_top" xlink:title="This function apply the minmod limiter to the slope in the x&#45;direction of two dimension.">
<polygon fill="white" stroke="black" points="456,-299.5 456,-318.5 581,-318.5 581,-299.5 456,-299.5"/>
<text text-anchor="middle" x="518.5" y="-306.5" font-family="Helvetica,sans-Serif" font-size="10.00">minmod_limiter_2D_x</text>
</a>
</g>
</g>
<!-- Node10&#45;&gt;Node11 -->
<g id="edge12" class="edge">
<title>Node10&#45;&gt;Node11</title>
<path fill="none" stroke="midnightblue" d="M420.07,-309C428.56,-309 437.19,-309 445.62,-309"/>
<polygon fill="midnightblue" stroke="midnightblue" points="445.78,-312.5 455.78,-309 445.78,-305.5 445.78,-312.5"/>
</g>
<!-- Node12 -->
<g id="node12" class="node">
<title>Node12</title>
<g id="a_node12"><a xlink:href="../../d5/da5/tools_8h.html#a56cac3298eeead8cf22c1e61eb5a5a88" target="_top" xlink:title="Minmod limiter function of two variables.">
<polygon fill="white" stroke="black" points="663,-337.5 663,-356.5 726,-356.5 726,-337.5 663,-337.5"/>
<text text-anchor="middle" x="694.5" y="-344.5" font-family="Helvetica,sans-Serif" font-size="10.00">minmod2</text>
</a>
</g>
</g>
<!-- Node11&#45;&gt;Node12 -->
<g id="edge13" class="edge">
<title>Node11&#45;&gt;Node12</title>
<path fill="none" stroke="midnightblue" d="M563.41,-318.59C590.9,-324.59 626.08,-332.28 652.92,-338.14"/>
<polygon fill="midnightblue" stroke="midnightblue" points="652.25,-341.57 662.77,-340.29 653.74,-334.74 652.25,-341.57"/>
</g>
<!-- Node13 -->
<g id="node13" class="node">
<title>Node13</title>
<g id="a_node13"><a xlink:href="../../d5/da5/tools_8h.html#a6dfba28e1af33b47f4656d3738996fe9" target="_top" xlink:title="Minmod limiter function of three variables.">
<polygon fill="white" stroke="black" points="663,-299.5 663,-318.5 726,-318.5 726,-299.5 663,-299.5"/>
<text text-anchor="middle" x="694.5" y="-306.5" font-family="Helvetica,sans-Serif" font-size="10.00">minmod3</text>
</a>
</g>
</g>
<!-- Node11&#45;&gt;Node13 -->
<g id="edge14" class="edge">
<title>Node11&#45;&gt;Node13</title>
<path fill="none" stroke="midnightblue" d="M581.34,-309C604.9,-309 631.16,-309 652.34,-309"/>
<polygon fill="midnightblue" stroke="midnightblue" points="652.61,-312.5 662.61,-309 652.61,-305.5 652.61,-312.5"/>
</g>
<!-- Node15 -->
<g id="node15" class="node">
<title>Node15</title>
<g id="a_node15"><a xlink:href="../../d2/d49/slope__limiter_8c.html#aa63cbccebc0f88cf7397d2e594a861ae" target="_top" xlink:title="This function apply the minmod limiter to the slope in one dimension.">
<polygon fill="white" stroke="black" points="471,-337.5 471,-356.5 566,-356.5 566,-337.5 471,-337.5"/>
<text text-anchor="middle" x="518.5" y="-344.5" font-family="Helvetica,sans-Serif" font-size="10.00">minmod_limiter</text>
</a>
</g>
</g>
<!-- Node14&#45;&gt;Node15 -->
<g id="edge16" class="edge">
<title>Node14&#45;&gt;Node15</title>
<path fill="none" stroke="midnightblue" d="M420.07,-347C433.74,-347 447.76,-347 460.75,-347"/>
<polygon fill="midnightblue" stroke="midnightblue" points="460.92,-350.5 470.92,-347 460.92,-343.5 460.92,-350.5"/>
</g>
<!-- Node15&#45;&gt;Node12 -->
<g id="edge17" class="edge">
<title>Node15&#45;&gt;Node12</title>
<path fill="none" stroke="midnightblue" d="M566.13,-347C593.11,-347 626.76,-347 652.69,-347"/>
<polygon fill="midnightblue" stroke="midnightblue" points="652.93,-350.5 662.93,-347 652.93,-343.5 652.93,-350.5"/>
</g>
<!-- Node15&#45;&gt;Node13 -->
<g id="edge18" class="edge">
<title>Node15&#45;&gt;Node13</title>
<path fill="none" stroke="midnightblue" d="M563.41,-337.41C590.9,-331.41 626.08,-323.72 652.92,-317.86"/>
<polygon fill="midnightblue" stroke="midnightblue" points="653.74,-321.26 662.77,-315.71 652.25,-314.43 653.74,-321.26"/>
</g>
<!-- Node18 -->
<g id="node18" class="node">
<title>Node18</title>
<g id="a_node18"><a xlink:href="../../d5/d55/flux__solver_8c.html#a49938584f813ee4c3756f8aba45325de" target="_top" xlink:title="This function calculate Eulerian fluxes of 2&#45;D Euler equations by 2&#45;D GRP solver.">
<polygon fill="white" stroke="black" points="478.5,-256.5 478.5,-275.5 558.5,-275.5 558.5,-256.5 478.5,-256.5"/>
<text text-anchor="middle" x="518.5" y="-263.5" font-family="Helvetica,sans-Serif" font-size="10.00">GRP_2D_flux</text>
</a>
</g>
</g>
<!-- Node17&#45;&gt;Node18 -->
<g id="edge22" class="edge">
<title>Node17&#45;&gt;Node18</title>
<path fill="none" stroke="midnightblue" d="M392.43,-269.59C416.07,-268.91 444.39,-268.1 468.09,-267.42"/>
<polygon fill="midnightblue" stroke="midnightblue" points="468.38,-270.91 478.28,-267.13 468.18,-263.92 468.38,-270.91"/>
</g>
<!-- Node22 -->
<g id="node22" class="node">
<title>Node22</title>
<g id="a_node22"><a xlink:href="../../d7/d5a/fluid__var__check_8c.html#a29ead600b8eb62cb272068d83dadcc46" target="_top" xlink:title="This function checks whether interfacial fluid variables are within the value range.">
<polygon fill="white" stroke="black" points="482,-209.5 482,-228.5 555,-228.5 555,-209.5 482,-209.5"/>
<text text-anchor="middle" x="518.5" y="-216.5" font-family="Helvetica,sans-Serif" font-size="10.00">ifvar_check</text>
</a>
</g>
</g>
<!-- Node17&#45;&gt;Node22 -->
<g id="edge26" class="edge">
<title>Node17&#45;&gt;Node22</title>
<path fill="none" stroke="midnightblue" d="M384.56,-261.47C396.08,-258.61 408.57,-255.35 420,-252 440.55,-245.98 463.22,-238.37 481.52,-231.97"/>
<polygon fill="midnightblue" stroke="midnightblue" points="482.94,-235.19 491.2,-228.56 480.61,-228.58 482.94,-235.19"/>
</g>
<!-- Node19 -->
<g id="node19" class="node">
<title>Node19</title>
<g id="a_node19"><a xlink:href="../../db/dd1/linear__grp__solver___edir___q1_d_8c.html#accd0c08406f5ddb935beb15b9cf87865" target="_top" xlink:title="A Quasi&#45;1D direct Eulerian GRP solver for unsteady compressible inviscid two&#45;component flow in two sp...">
<polygon fill="white" stroke="black" points="617,-220.5 617,-239.5 772,-239.5 772,-220.5 617,-220.5"/>
<text text-anchor="middle" x="694.5" y="-227.5" font-family="Helvetica,sans-Serif" font-size="10.00">linear_GRP_solver_Edir_Q1D</text>
</a>
</g>
</g>
<!-- Node18&#45;&gt;Node19 -->
<g id="edge23" class="edge">
<title>Node18&#45;&gt;Node19</title>
<path fill="none" stroke="midnightblue" d="M558.55,-257.92C581.81,-253.11 611.73,-246.92 637.48,-241.59"/>
<polygon fill="midnightblue" stroke="midnightblue" points="638.41,-244.97 647.49,-239.52 636.99,-238.12 638.41,-244.97"/>
</g>
<!-- Node21 -->
<g id="node21" class="node">
<title>Node21</title>
<g id="a_node21"><a xlink:href="../../d7/d5a/fluid__var__check_8c.html#a0177056576942ce464bb53db4dcb5138" target="_top" xlink:title="This function checks whether fluid variables of mid[] and dire[] are within the value range.">
<polygon fill="white" stroke="black" points="648,-258.5 648,-277.5 741,-277.5 741,-258.5 648,-258.5"/>
<text text-anchor="middle" x="694.5" y="-265.5" font-family="Helvetica,sans-Serif" font-size="10.00">star_dire_check</text>
</a>
</g>
</g>
<!-- Node18&#45;&gt;Node21 -->
<g id="edge25" class="edge">
<title>Node18&#45;&gt;Node21</title>
<path fill="none" stroke="midnightblue" d="M558.55,-266.45C581.9,-266.72 611.96,-267.06 637.77,-267.36"/>
<polygon fill="midnightblue" stroke="midnightblue" points="637.77,-270.86 647.8,-267.47 637.85,-263.86 637.77,-270.86"/>
</g>
<!-- Node20 -->
<g id="node20" class="node">
<title>Node20</title>
<g id="a_node20"><a xlink:href="../../d0/d08/riemann__solver__exact___ben_8c.html#a3ad58b11c355d45ee406da49161edbd4" target="_top" xlink:title="EXACT RIEMANN SOLVER FOR Two&#45;Component γ&#45;Law Gas">
<polygon fill="white" stroke="black" points="808,-220.5 808,-239.5 936,-239.5 936,-220.5 808,-220.5"/>
<text text-anchor="middle" x="872" y="-227.5" font-family="Helvetica,sans-Serif" font-size="10.00">Riemann_solver_exact</text>
</a>
</g>
</g>
<!-- Node19&#45;&gt;Node20 -->
<g id="edge24" class="edge">
<title>Node19&#45;&gt;Node20</title>
<path fill="none" stroke="midnightblue" d="M772.22,-230C780.68,-230 789.28,-230 797.69,-230"/>
<polygon fill="midnightblue" stroke="midnightblue" points="797.85,-233.5 807.85,-230 797.85,-226.5 797.85,-233.5"/>
</g>
<!-- Node23&#45;&gt;Node18 -->
<g id="edge28" class="edge">
<title>Node23&#45;&gt;Node18</title>
<path fill="none" stroke="midnightblue" d="M392.14,-166.62C402,-170.06 411.84,-174.72 420,-181 443.75,-199.27 433.42,-218.3 456,-238 462.54,-243.71 470.45,-248.46 478.37,-252.32"/>
<polygon fill="midnightblue" stroke="midnightblue" points="477.06,-255.57 487.61,-256.46 479.92,-249.18 477.06,-255.57"/>
</g>
<!-- Node23&#45;&gt;Node22 -->
<g id="edge29" class="edge">
<title>Node23&#45;&gt;Node22</title>
<path fill="none" stroke="midnightblue" d="M375.67,-166.56C389.4,-170.78 405.55,-175.93 420,-181 441.89,-188.69 466.21,-198.17 485.09,-205.73"/>
<polygon fill="midnightblue" stroke="midnightblue" points="483.84,-209 494.42,-209.5 486.45,-202.51 483.84,-209"/>
</g>
<!-- Node24&#45;&gt;Node8 -->
<g id="edge34" class="edge">
<title>Node24&#45;&gt;Node8</title>
<path fill="none" stroke="midnightblue" d="M211.71,-301.77C217.86,-304.62 223.76,-308 229,-312 251.92,-329.51 241.41,-349.4 265,-366 267.74,-367.93 270.66,-369.66 273.69,-371.22"/>
<polygon fill="midnightblue" stroke="midnightblue" points="272.53,-374.53 283.09,-375.39 275.37,-368.14 272.53,-374.53"/>
</g>
<!-- Node24&#45;&gt;Node10 -->
<g id="edge31" class="edge">
<title>Node24&#45;&gt;Node10</title>
<path fill="none" stroke="midnightblue" d="M211.53,-293.75C225.17,-295.35 240.03,-297.09 254.66,-298.81"/>
<polygon fill="midnightblue" stroke="midnightblue" points="254.39,-302.3 264.73,-299.99 255.21,-295.35 254.39,-302.3"/>
</g>
<!-- Node24&#45;&gt;Node14 -->
<g id="edge32" class="edge">
<title>Node24&#45;&gt;Node14</title>
<path fill="none" stroke="midnightblue" d="M201.46,-302.05C210.65,-305.18 220.17,-308.58 229,-312 245.32,-318.33 248.44,-322.31 265,-328 272.2,-330.47 279.88,-332.77 287.5,-334.85"/>
<polygon fill="midnightblue" stroke="midnightblue" points="286.86,-338.3 297.42,-337.45 288.64,-331.53 286.86,-338.3"/>
</g>
<!-- Node24&#45;&gt;Node16 -->
<g id="edge33" class="edge">
<title>Node24&#45;&gt;Node16</title>
<path fill="none" stroke="midnightblue" d="M199.44,-271.97C219.46,-265.53 243.31,-258.11 265,-252 278.1,-248.31 292.56,-244.62 305.35,-241.49"/>
<polygon fill="midnightblue" stroke="midnightblue" points="306.3,-244.86 315.19,-239.11 304.65,-238.06 306.3,-244.86"/>
</g>
<!-- Node24&#45;&gt;Node17 -->
<g id="edge35" class="edge">
<title>Node24&#45;&gt;Node17</title>
<path fill="none" stroke="midnightblue" d="M211.53,-282.09C234.12,-280.16 260.03,-277.95 282.74,-276.01"/>
<polygon fill="midnightblue" stroke="midnightblue" points="283.26,-279.48 292.92,-275.15 282.66,-272.51 283.26,-279.48"/>
</g>
<!-- Node24&#45;&gt;Node23 -->
<g id="edge36" class="edge">
<title>Node24&#45;&gt;Node23</title>
<path fill="none" stroke="midnightblue" d="M175.88,-271.83C211.85,-246.89 283.13,-197.47 319.31,-172.38"/>
<polygon fill="midnightblue" stroke="midnightblue" points="321.49,-175.13 327.71,-166.56 317.5,-169.38 321.49,-175.13"/>
</g>
<!-- Node25&#45;&gt;Node5 -->
<g id="edge41" class="edge">
<title>Node25&#45;&gt;Node5</title>
<path fill="none" stroke="midnightblue" d="M191.53,-163.95C262.89,-177.31 411.8,-205.98 420,-214 469.61,-262.56 408.58,-315.29 456,-366 460.41,-370.71 465.96,-374.27 471.91,-376.95"/>
<polygon fill="midnightblue" stroke="midnightblue" points="470.89,-380.3 481.48,-380.47 473.31,-373.73 470.89,-380.3"/>
</g>
<!-- Node26 -->
<g id="node26" class="node">
<title>Node26</title>
<g id="a_node26"><a xlink:href="../../d2/de0/config__handle_8c.html#a4b15e37e2922cce20bf5cc8bb6e80c9a" target="_top" xlink:title="This function controls configuration data reading and validation.">
<polygon fill="white" stroke="black" points="306.5,-38.5 306.5,-57.5 378.5,-57.5 378.5,-38.5 306.5,-38.5"/>
<text text-anchor="middle" x="342.5" y="-45.5" font-family="Helvetica,sans-Serif" font-size="10.00">configurate</text>
</a>
</g>
</g>
<!-- Node25&#45;&gt;Node26 -->
<g id="edge38" class="edge">
<title>Node25&#45;&gt;Node26</title>
<path fill="none" stroke="midnightblue" d="M170.64,-147.33C203.58,-128.18 277.27,-85.34 316.24,-62.69"/>
<polygon fill="midnightblue" stroke="midnightblue" points="318.01,-65.7 324.9,-57.65 314.49,-59.65 318.01,-65.7"/>
</g>
<!-- Node29 -->
<g id="node29" class="node">
<title>Node29</title>
<g id="a_node29"><a xlink:href="../../d4/de5/io__control_8c.html#afc5a75c19ae16af5227567eb1dde0ef1" target="_top" xlink:title="This function reads the time data file for plotting &#39;time_plot.dat&#39; and initialize tha array &#39;time_pl...">
<polygon fill="white" stroke="black" points="297.5,-109.5 297.5,-128.5 387.5,-128.5 387.5,-109.5 297.5,-109.5"/>
<text text-anchor="middle" x="342.5" y="-116.5" font-family="Helvetica,sans-Serif" font-size="10.00">time_plot_read</text>
</a>
</g>
</g>
<!-- Node25&#45;&gt;Node29 -->
<g id="edge42" class="edge">
<title>Node25&#45;&gt;Node29</title>
<path fill="none" stroke="midnightblue" d="M191.94,-149.31C219.34,-143.76 256.74,-136.18 287.29,-129.99"/>
<polygon fill="midnightblue" stroke="midnightblue" points="288.25,-133.36 297.36,-127.95 286.86,-126.5 288.25,-133.36"/>
</g>
<!-- Node27 -->
<g id="node27" class="node">
<title>Node27</title>
<g id="a_node27"><a xlink:href="../../d2/de0/config__handle_8c.html#a4b379c084f41490473f80792af24e0c7" target="_top" xlink:title="This function check whether the configuration data is reasonable and set the default....">
<polygon fill="white" stroke="black" points="478.5,-0.5 478.5,-19.5 558.5,-19.5 558.5,-0.5 478.5,-0.5"/>
<text text-anchor="middle" x="518.5" y="-7.5" font-family="Helvetica,sans-Serif" font-size="10.00">config_check</text>
</a>
</g>
</g>
<!-- Node26&#45;&gt;Node27 -->
<g id="edge39" class="edge">
<title>Node26&#45;&gt;Node27</title>
<path fill="none" stroke="midnightblue" d="M378.71,-40.31C404.56,-34.66 440,-26.93 468.6,-20.68"/>
<polygon fill="midnightblue" stroke="midnightblue" points="469.38,-24.09 478.4,-18.54 467.88,-17.25 469.38,-24.09"/>
</g>
<!-- Node28 -->
<g id="node28" class="node">
<title>Node28</title>
<g id="a_node28"><a xlink:href="../../d2/de0/config__handle_8c.html#a482404d20045a8a5f48b5ee425a04259" target="_top" xlink:title="This function read the configuration data file, and store the configuration data in the array &#39;config...">
<polygon fill="white" stroke="black" points="481.5,-38.5 481.5,-57.5 555.5,-57.5 555.5,-38.5 481.5,-38.5"/>
<text text-anchor="middle" x="518.5" y="-45.5" font-family="Helvetica,sans-Serif" font-size="10.00">config_read</text>
</a>
</g>
</g>
<!-- Node26&#45;&gt;Node28 -->
<g id="edge40" class="edge">
<title>Node26&#45;&gt;Node28</title>
<path fill="none" stroke="midnightblue" d="M378.71,-48C405.33,-48 442.12,-48 471.14,-48"/>
<polygon fill="midnightblue" stroke="midnightblue" points="471.44,-51.5 481.44,-48 471.44,-44.5 471.44,-51.5"/>
</g>
<!-- Node30 -->
<g id="node30" class="node">
<title>Node30</title>
<g id="a_node30"><a xlink:href="../../d4/de5/io__control_8c.html#a7d7ac58cf9ddeec7a4a3c73fabd297e6" target="_top" xlink:title="Compare function of double for sort function &#39;qsort()&#39;.">
<polygon fill="white" stroke="black" points="469.5,-152.5 469.5,-171.5 567.5,-171.5 567.5,-152.5 469.5,-152.5"/>
<text text-anchor="middle" x="518.5" y="-159.5" font-family="Helvetica,sans-Serif" font-size="10.00">compare_double</text>
</a>
</g>
</g>
<!-- Node29&#45;&gt;Node30 -->
<g id="edge43" class="edge">
<title>Node29&#45;&gt;Node30</title>
<path fill="none" stroke="midnightblue" d="M382.12,-128.54C407.8,-134.89 441.73,-143.27 469.19,-150.06"/>
<polygon fill="midnightblue" stroke="midnightblue" points="468.44,-153.48 478.99,-152.48 470.12,-146.69 468.44,-153.48"/>
</g>
<!-- Node31 -->
<g id="node31" class="node">
<title>Node31</title>
<g id="a_node31"><a xlink:href="../../d4/de5/io__control_8c.html#acdd9ccb7dc0ecc925cafe95a4c2f8a51" target="_top" xlink:title="This function counts how many numbers are there in the initial data file.">
<polygon fill="white" stroke="black" points="477,-114.5 477,-133.5 560,-133.5 560,-114.5 477,-114.5"/>
<text text-anchor="middle" x="518.5" y="-121.5" font-family="Helvetica,sans-Serif" font-size="10.00">flu_var_count</text>
</a>
</g>
</g>
<!-- Node29&#45;&gt;Node31 -->
<g id="edge44" class="edge">
<title>Node29&#45;&gt;Node31</title>
<path fill="none" stroke="midnightblue" d="M387.86,-120.27C411.93,-120.97 441.78,-121.82 466.78,-122.54"/>
<polygon fill="midnightblue" stroke="midnightblue" points="466.7,-126.04 476.8,-122.83 466.91,-119.04 466.7,-126.04"/>
</g>
<!-- Node32 -->
<g id="node32" class="node">
<title>Node32</title>
<g id="a_node32"><a xlink:href="../../d4/de5/io__control_8c.html#a40ca7ad20048ff97a27a8641cf31b7cb" target="_top" xlink:title="This function reads the initial data file to generate the initial data.">
<polygon fill="white" stroke="black" points="480,-76.5 480,-95.5 557,-95.5 557,-76.5 480,-76.5"/>
<text text-anchor="middle" x="518.5" y="-83.5" font-family="Helvetica,sans-Serif" font-size="10.00">flu_var_read</text>
</a>
</g>
</g>
<!-- Node29&#45;&gt;Node32 -->
<g id="edge45" class="edge">
<title>Node29&#45;&gt;Node32</title>
<path fill="none" stroke="midnightblue" d="M387.86,-110.59C413.01,-105.82 444.49,-99.85 470.12,-94.99"/>
<polygon fill="midnightblue" stroke="midnightblue" points="470.82,-98.41 480,-93.11 469.52,-91.54 470.82,-98.41"/>
</g>
</g>
</svg>
