<?xml version="1.0" encoding="UTF-8" standalone="no"?>
<!DOCTYPE svg PUBLIC "-//W3C//DTD SVG 1.1//EN"
 "http://www.w3.org/Graphics/SVG/1.1/DTD/svg11.dtd">
<!-- Generated by graphviz version 6.0.1 (0)
 -->
<!-- Title: src~/src_cii/mem.c Pages: 1 -->
<svg width="381pt" height="196pt"
 viewBox="0.00 0.00 381.00 196.00" xmlns="http://www.w3.org/2000/svg" xmlns:xlink="http://www.w3.org/1999/xlink">
<g id="graph0" class="graph" transform="scale(1 1) rotate(0) translate(4 192)">
<title>src~/src_cii/mem.c</title>
<polygon fill="white" stroke="none" points="-4,4 -4,-192 377,-192 377,4 -4,4"/>
<!-- Node1 -->
<g id="node1" class="node">
<title>Node1</title>
<g id="a_node1"><a xlink:title="This file is the source codes in the book &#39;C Interfaces and Implementations&#39;.">
<polygon fill="#bfbfbf" stroke="black" points="118.5,-168.5 118.5,-187.5 228.5,-187.5 228.5,-168.5 118.5,-168.5"/>
<text text-anchor="middle" x="173.5" y="-175.5" font-family="Helvetica,sans-Serif" font-size="10.00">src~/src_cii/mem.c</text>
</a>
</g>
</g>
<!-- Node2 -->
<g id="node2" class="node">
<title>Node2</title>
<g id="a_node2"><a xlink:title=" ">
<polygon fill="white" stroke="#bfbfbf" points="0,-112.5 0,-131.5 53,-131.5 53,-112.5 0,-112.5"/>
<text text-anchor="middle" x="26.5" y="-119.5" font-family="Helvetica,sans-Serif" font-size="10.00">stdlib.h</text>
</a>
</g>
</g>
<!-- Node1&#45;&gt;Node2 -->
<g id="edge1" class="edge">
<title>Node1&#45;&gt;Node2</title>
<path fill="none" stroke="midnightblue" d="M150.21,-168.44C125.69,-159.44 86.9,-145.19 59.3,-135.05"/>
<polygon fill="midnightblue" stroke="midnightblue" points="60.28,-131.68 49.68,-131.52 57.86,-138.25 60.28,-131.68"/>
</g>
<!-- Node3 -->
<g id="node3" class="node">
<title>Node3</title>
<g id="a_node3"><a xlink:title=" ">
<polygon fill="white" stroke="#bfbfbf" points="71.5,-112.5 71.5,-131.5 127.5,-131.5 127.5,-112.5 71.5,-112.5"/>
<text text-anchor="middle" x="99.5" y="-119.5" font-family="Helvetica,sans-Serif" font-size="10.00">stddef.h</text>
</a>
</g>
</g>
<!-- Node1&#45;&gt;Node3 -->
<g id="edge2" class="edge">
<title>Node1&#45;&gt;Node3</title>
<path fill="none" stroke="midnightblue" d="M161.61,-168.32C150.35,-160.11 133.21,-147.6 119.79,-137.81"/>
<polygon fill="midnightblue" stroke="midnightblue" points="121.75,-134.9 111.61,-131.83 117.62,-140.56 121.75,-134.9"/>
</g>
<!-- Node4 -->
<g id="node4" class="node">
<title>Node4</title>
<g id="a_node4"><a xlink:title=" ">
<polygon fill="white" stroke="#bfbfbf" points="145.5,-112.5 145.5,-131.5 201.5,-131.5 201.5,-112.5 145.5,-112.5"/>
<text text-anchor="middle" x="173.5" y="-119.5" font-family="Helvetica,sans-Serif" font-size="10.00">assert.h</text>
</a>
</g>
</g>
<!-- Node1&#45;&gt;Node4 -->
<g id="edge3" class="edge">
<title>Node1&#45;&gt;Node4</title>
<path fill="none" stroke="midnightblue" d="M173.5,-168.08C173.5,-161.01 173.5,-150.86 173.5,-141.99"/>
<polygon fill="midnightblue" stroke="midnightblue" points="177,-141.75 173.5,-131.75 170,-141.75 177,-141.75"/>
</g>
<!-- Node5 -->
<g id="node5" class="node">
<title>Node5</title>
<g id="a_node5"><a xlink:href="../../dc/d65/except_8h.html" target="_top" xlink:title="This file is a header file of source codes in the book &#39;C Interfaces and Implementations&#39;.">
<polygon fill="white" stroke="black" points="211.5,-56.5 211.5,-75.5 333.5,-75.5 333.5,-56.5 211.5,-56.5"/>
<text text-anchor="middle" x="272.5" y="-63.5" font-family="Helvetica,sans-Serif" font-size="10.00">../include_cii/except.h</text>
</a>
</g>
</g>
<!-- Node1&#45;&gt;Node5 -->
<g id="edge4" class="edge">
<title>Node1&#45;&gt;Node5</title>
<path fill="none" stroke="midnightblue" d="M181.27,-168.37C197.82,-149.97 236.8,-106.67 258.05,-83.05"/>
<polygon fill="midnightblue" stroke="midnightblue" points="260.68,-85.37 264.77,-75.59 255.48,-80.68 260.68,-85.37"/>
</g>
<!-- Node7 -->
<g id="node7" class="node">
<title>Node7</title>
<g id="a_node7"><a xlink:href="../../d9/d9a/mem_8h.html" target="_top" xlink:title="This file is a header file of source codes in the book &#39;C Interfaces and Implementations&#39;.">
<polygon fill="white" stroke="black" points="258,-112.5 258,-131.5 373,-131.5 373,-112.5 258,-112.5"/>
<text text-anchor="middle" x="315.5" y="-119.5" font-family="Helvetica,sans-Serif" font-size="10.00">../include_cii/mem.h</text>
</a>
</g>
</g>
<!-- Node1&#45;&gt;Node7 -->
<g id="edge6" class="edge">
<title>Node1&#45;&gt;Node7</title>
<path fill="none" stroke="midnightblue" d="M196,-168.44C219.58,-159.48 256.82,-145.31 283.46,-135.18"/>
<polygon fill="midnightblue" stroke="midnightblue" points="285,-138.34 293.1,-131.52 282.51,-131.8 285,-138.34"/>
</g>
<!-- Node6 -->
<g id="node6" class="node">
<title>Node6</title>
<g id="a_node6"><a xlink:title=" ">
<polygon fill="white" stroke="#bfbfbf" points="243,-0.5 243,-19.5 302,-19.5 302,-0.5 243,-0.5"/>
<text text-anchor="middle" x="272.5" y="-7.5" font-family="Helvetica,sans-Serif" font-size="10.00">setjmp.h</text>
</a>
</g>
</g>
<!-- Node5&#45;&gt;Node6 -->
<g id="edge5" class="edge">
<title>Node5&#45;&gt;Node6</title>
<path fill="none" stroke="midnightblue" d="M272.5,-56.08C272.5,-49.01 272.5,-38.86 272.5,-29.99"/>
<polygon fill="midnightblue" stroke="midnightblue" points="276,-29.75 272.5,-19.75 269,-29.75 276,-29.75"/>
</g>
<!-- Node7&#45;&gt;Node5 -->
<g id="edge7" class="edge">
<title>Node7&#45;&gt;Node5</title>
<path fill="none" stroke="midnightblue" d="M308.4,-112.08C302.26,-104.38 293.23,-93.03 285.76,-83.65"/>
<polygon fill="midnightblue" stroke="midnightblue" points="288.44,-81.39 279.47,-75.75 282.96,-85.75 288.44,-81.39"/>
</g>
</g>
</svg>
