<?xml version="1.0" encoding="UTF-8" standalone="no"?>
<!DOCTYPE svg PUBLIC "-//W3C//DTD SVG 1.1//EN"
 "http://www.w3.org/Graphics/SVG/1.1/DTD/svg11.dtd">
<!-- Generated by graphviz version 6.0.1 (0)
 -->
<!-- Title: configurate Pages: 1 -->
<svg width="196pt" height="66pt"
 viewBox="0.00 0.00 196.00 66.00" xmlns="http://www.w3.org/2000/svg" xmlns:xlink="http://www.w3.org/1999/xlink">
<g id="graph0" class="graph" transform="scale(1 1) rotate(0) translate(4 62)">
<title>configurate</title>
<polygon fill="white" stroke="none" points="-4,4 -4,-62 192,-62 192,4 -4,4"/>
<!-- Node1 -->
<g id="node1" class="node">
<title>Node1</title>
<g id="a_node1"><a xlink:title="This function controls configuration data reading and validation.">
<polygon fill="#bfbfbf" stroke="black" points="0,-19.5 0,-38.5 72,-38.5 72,-19.5 0,-19.5"/>
<text text-anchor="middle" x="36" y="-26.5" font-family="Helvetica,sans-Serif" font-size="10.00">configurate</text>
</a>
</g>
</g>
<!-- Node2 -->
<g id="node2" class="node">
<title>Node2</title>
<g id="a_node2"><a xlink:href="../../d2/de0/config__handle_8c.html#a4b379c084f41490473f80792af24e0c7" target="_top" xlink:title="This function check whether the configuration data is reasonable and set the default....">
<polygon fill="white" stroke="black" points="108,-38.5 108,-57.5 188,-57.5 188,-38.5 108,-38.5"/>
<text text-anchor="middle" x="148" y="-45.5" font-family="Helvetica,sans-Serif" font-size="10.00">config_check</text>
</a>
</g>
</g>
<!-- Node1&#45;&gt;Node2 -->
<g id="edge1" class="edge">
<title>Node1&#45;&gt;Node2</title>
<path fill="none" stroke="midnightblue" d="M72.11,-35.06C80.24,-36.47 89.05,-37.99 97.67,-39.48"/>
<polygon fill="midnightblue" stroke="midnightblue" points="97.19,-42.95 107.64,-41.2 98.39,-36.05 97.19,-42.95"/>
</g>
<!-- Node3 -->
<g id="node3" class="node">
<title>Node3</title>
<g id="a_node3"><a xlink:href="../../d2/de0/config__handle_8c.html#a482404d20045a8a5f48b5ee425a04259" target="_top" xlink:title="This function read the configuration data file, and store the configuration data in the array &#39;config...">
<polygon fill="white" stroke="black" points="111,-0.5 111,-19.5 185,-19.5 185,-0.5 111,-0.5"/>
<text text-anchor="middle" x="148" y="-7.5" font-family="Helvetica,sans-Serif" font-size="10.00">config_read</text>
</a>
</g>
</g>
<!-- Node1&#45;&gt;Node3 -->
<g id="edge2" class="edge">
<title>Node1&#45;&gt;Node3</title>
<path fill="none" stroke="midnightblue" d="M72.11,-22.94C81.16,-21.37 91.04,-19.67 100.57,-18.02"/>
<polygon fill="midnightblue" stroke="midnightblue" points="101.45,-21.42 110.71,-16.27 100.26,-14.52 101.45,-21.42"/>
</g>
</g>
</svg>
