<?xml version="1.0" encoding="UTF-8" standalone="no"?>
<!DOCTYPE svg PUBLIC "-//W3C//DTD SVG 1.1//EN"
 "http://www.w3.org/Graphics/SVG/1.1/DTD/svg11.dtd">
<!-- Generated by graphviz version 5.0.0 (0)
 -->
<!-- Title: config_read Pages: 1 -->
<svg width="386pt" height="66pt"
 viewBox="0.00 0.00 386.00 66.00" xmlns="http://www.w3.org/2000/svg" xmlns:xlink="http://www.w3.org/1999/xlink">
<g id="graph0" class="graph" transform="scale(1 1) rotate(0) translate(4 62)">
<title>config_read</title>
<polygon fill="white" stroke="transparent" points="-4,4 -4,-62 382,-62 382,4 -4,4"/>
<!-- Node1 -->
<g id="node1" class="node">
<title>Node1</title>
<g id="a_node1"><a xlink:title="This function read the configuration data file, and store the configuration data in the array &quot;config...">
<polygon fill="#bfbfbf" stroke="black" points="304,-19.5 304,-38.5 378,-38.5 378,-19.5 304,-19.5"/>
<text text-anchor="middle" x="341" y="-26.5" font-family="Helvetica,sans-Serif" font-size="10.00">config_read</text>
</a>
</g>
</g>
<!-- Node2 -->
<g id="node2" class="node">
<title>Node2</title>
<g id="a_node2"><a xlink:href="../../d2/de0/config__handle_8c.html#a4b15e37e2922cce20bf5cc8bb6e80c9a" target="_top" xlink:title="This function controls configuration data reading and validation.">
<polygon fill="white" stroke="black" points="196,-19.5 196,-38.5 268,-38.5 268,-19.5 196,-19.5"/>
<text text-anchor="middle" x="232" y="-26.5" font-family="Helvetica,sans-Serif" font-size="10.00">configurate</text>
</a>
</g>
</g>
<!-- Node1&#45;&gt;Node2 -->
<g id="edge1" class="edge">
<title>Node1&#45;&gt;Node2</title>
<path fill="none" stroke="midnightblue" d="M293.55,-29C285.01,-29 276.23,-29 268.1,-29"/>
<polygon fill="midnightblue" stroke="midnightblue" points="293.77,-32.5 303.77,-29 293.77,-25.5 293.77,-32.5"/>
</g>
<!-- Node3 -->
<g id="node3" class="node">
<title>Node3</title>
<g id="a_node3"><a xlink:href="../../dd/d92/__1_d__file__in_8c.html#ac488f20dece96d36772ef580e4de334e" target="_top" xlink:title="This function reads the 1&#45;D initial data file of velocity/pressure/density.">
<polygon fill="white" stroke="black" points="77,-38.5 77,-57.5 160,-57.5 160,-38.5 77,-38.5"/>
<text text-anchor="middle" x="118.5" y="-45.5" font-family="Helvetica,sans-Serif" font-size="10.00">_1D_initialize</text>
</a>
</g>
</g>
<!-- Node2&#45;&gt;Node3 -->
<g id="edge2" class="edge">
<title>Node2&#45;&gt;Node3</title>
<path fill="none" stroke="midnightblue" d="M185.71,-36.72C177.33,-38.14 168.63,-39.63 160.39,-41.03"/>
<polygon fill="midnightblue" stroke="midnightblue" points="186.45,-40.14 195.72,-35.01 185.27,-33.24 186.45,-40.14"/>
</g>
<!-- Node4 -->
<g id="node4" class="node">
<title>Node4</title>
<g id="a_node4"><a xlink:href="../../d4/d75/__2_d__file__in_8c.html#a2888d943cf419875759b1f72a7723296" target="_top" xlink:title="This function reads the 2&#45;D initial data file of velocity/pressure/density.">
<polygon fill="white" stroke="black" points="77,-0.5 77,-19.5 160,-19.5 160,-0.5 77,-0.5"/>
<text text-anchor="middle" x="118.5" y="-7.5" font-family="Helvetica,sans-Serif" font-size="10.00">_2D_initialize</text>
</a>
</g>
</g>
<!-- Node2&#45;&gt;Node4 -->
<g id="edge3" class="edge">
<title>Node2&#45;&gt;Node4</title>
<path fill="none" stroke="midnightblue" d="M185.71,-21.28C177.33,-19.86 168.63,-18.37 160.39,-16.97"/>
<polygon fill="midnightblue" stroke="midnightblue" points="185.27,-24.76 195.72,-22.99 186.45,-17.86 185.27,-24.76"/>
</g>
<!-- Node5 -->
<g id="node5" class="node">
<title>Node5</title>
<g id="a_node5"><a xlink:href="../../d2/d24/hydrocode_8c.html#a0ddf1224851353fc92bfbff6f499fa97" target="_top" xlink:title="This is the main function which constructs the main structure of the Eulerian hydrocode.">
<polygon fill="white" stroke="black" points="0,-0.5 0,-19.5 41,-19.5 41,-0.5 0,-0.5"/>
<text text-anchor="middle" x="20.5" y="-7.5" font-family="Helvetica,sans-Serif" font-size="10.00">main</text>
</a>
</g>
</g>
<!-- Node4&#45;&gt;Node5 -->
<g id="edge4" class="edge">
<title>Node4&#45;&gt;Node5</title>
<path fill="none" stroke="midnightblue" d="M66.56,-10C57.5,-10 48.58,-10 41.09,-10"/>
<polygon fill="midnightblue" stroke="midnightblue" points="66.79,-13.5 76.79,-10 66.79,-6.5 66.79,-13.5"/>
</g>
</g>
</svg>
