<?xml version="1.0" encoding="UTF-8" standalone="no"?>
<!DOCTYPE svg PUBLIC "-//W3C//DTD SVG 1.1//EN"
 "http://www.w3.org/Graphics/SVG/1.1/DTD/svg11.dtd">
<!-- Generated by graphviz version 6.0.1 (0)
 -->
<!-- Title: getPerpendFoot Pages: 1 -->
<svg width="726pt" height="66pt"
 viewBox="0.00 0.00 726.00 66.00" xmlns="http://www.w3.org/2000/svg" xmlns:xlink="http://www.w3.org/1999/xlink">
<g id="graph0" class="graph" transform="scale(1 1) rotate(0) translate(4 62)">
<title>getPerpendFoot</title>
<polygon fill="white" stroke="none" points="-4,4 -4,-62 722,-62 722,4 -4,4"/>
<!-- Node1 -->
<g id="node1" class="node">
<title>Node1</title>
<g id="a_node1"><a xlink:title=" ">
<polygon fill="#bfbfbf" stroke="black" points="625,-19.5 625,-38.5 718,-38.5 718,-19.5 625,-19.5"/>
<text text-anchor="middle" x="671.5" y="-26.5" font-family="Helvetica,sans-Serif" font-size="10.00">getPerpendFoot</text>
</a>
</g>
</g>
<!-- Node2 -->
<g id="node2" class="node">
<title>Node2</title>
<g id="a_node2"><a xlink:href="../../d6/d7d/_v_i_p_limiter_8cpp.html#a9d0226d29242b8bcd92a632ad1fcbb9b" target="_top" xlink:title=" ">
<polygon fill="white" stroke="black" points="503,-38.5 503,-57.5 589,-57.5 589,-38.5 503,-38.5"/>
<text text-anchor="middle" x="546" y="-45.5" font-family="Helvetica,sans-Serif" font-size="10.00">insideQuadCH</text>
</a>
</g>
</g>
<!-- Node1&#45;&gt;Node2 -->
<g id="edge1" class="edge">
<title>Node1&#45;&gt;Node2</title>
<path fill="none" stroke="midnightblue" d="M614.85,-37.56C606.23,-38.89 597.44,-40.24 589.18,-41.51"/>
<polygon fill="midnightblue" stroke="midnightblue" points="615.51,-41 624.86,-36.02 614.45,-34.08 615.51,-41"/>
</g>
<!-- Node7 -->
<g id="node7" class="node">
<title>Node7</title>
<g id="a_node7"><a xlink:href="../../d6/d7d/_v_i_p_limiter_8cpp.html#a4926d1cbff5b2f8531a0d136f4cf05ae" target="_top" xlink:title=" ">
<polygon fill="white" stroke="black" points="510,-0.5 510,-19.5 582,-19.5 582,-0.5 510,-0.5"/>
<text text-anchor="middle" x="546" y="-7.5" font-family="Helvetica,sans-Serif" font-size="10.00">insideTriCH</text>
</a>
</g>
</g>
<!-- Node1&#45;&gt;Node7 -->
<g id="edge6" class="edge">
<title>Node1&#45;&gt;Node7</title>
<path fill="none" stroke="midnightblue" d="M614.75,-20.42C603.62,-18.71 592.22,-16.96 582.03,-15.39"/>
<polygon fill="midnightblue" stroke="midnightblue" points="614.45,-23.92 624.86,-21.98 615.51,-17 614.45,-23.92"/>
</g>
<!-- Node3 -->
<g id="node3" class="node">
<title>Node3</title>
<g id="a_node3"><a xlink:href="../../d6/d7d/_v_i_p_limiter_8cpp.html#a797681bc7e6c787bc98d26f2fc508973" target="_top" xlink:title="Subroutine of using VIP limiter for 2D velocity vector.">
<polygon fill="white" stroke="black" points="383,-19.5 383,-38.5 467,-38.5 467,-19.5 383,-19.5"/>
<text text-anchor="middle" x="425" y="-26.5" font-family="Helvetica,sans-Serif" font-size="10.00">useVIPLimiter</text>
</a>
</g>
</g>
<!-- Node2&#45;&gt;Node3 -->
<g id="edge2" class="edge">
<title>Node2&#45;&gt;Node3</title>
<path fill="none" stroke="midnightblue" d="M492.56,-39.63C484.12,-38.28 475.49,-36.9 467.35,-35.6"/>
<polygon fill="midnightblue" stroke="midnightblue" points="492.28,-43.13 502.71,-41.25 493.39,-36.21 492.28,-43.13"/>
</g>
<!-- Node4 -->
<g id="node4" class="node">
<title>Node4</title>
<g id="a_node4"><a xlink:href="../../d6/df2/slope___v_i_p__limiter__radial_8c.html#aaaa06c143daec504594545993241e747" target="_top" xlink:title="This function apply the VIP/minmod limiter to the slope of the fluid velocity in radially symmetric c...">
<polygon fill="white" stroke="black" points="244,-19.5 244,-38.5 347,-38.5 347,-19.5 244,-19.5"/>
<text text-anchor="middle" x="295.5" y="-26.5" font-family="Helvetica,sans-Serif" font-size="10.00">VIP_limiter_radial</text>
</a>
</g>
</g>
<!-- Node3&#45;&gt;Node4 -->
<g id="edge3" class="edge">
<title>Node3&#45;&gt;Node4</title>
<path fill="none" stroke="midnightblue" d="M372.87,-29C364.45,-29 355.72,-29 347.3,-29"/>
<polygon fill="midnightblue" stroke="midnightblue" points="372.96,-32.5 382.96,-29 372.96,-25.5 372.96,-32.5"/>
</g>
<!-- Node5 -->
<g id="node5" class="node">
<title>Node5</title>
<g id="a_node5"><a xlink:href="../../d5/d63/grp__solver__radial___l_a_g__source_8c.html#a30b48b52a21ad448fd96c27727760837" target="_top" xlink:title="This function use GRP scheme to solve radially(cylindrically) symmetric compressible flows of motion ...">
<polygon fill="white" stroke="black" points="77,-14 77,-44 208,-44 208,-14 77,-14"/>
<text text-anchor="start" x="85" y="-32" font-family="Helvetica,sans-Serif" font-size="10.00">GRP_solver_radial_LAG</text>
<text text-anchor="middle" x="142.5" y="-21" font-family="Helvetica,sans-Serif" font-size="10.00">_source</text>
</a>
</g>
</g>
<!-- Node4&#45;&gt;Node5 -->
<g id="edge4" class="edge">
<title>Node4&#45;&gt;Node5</title>
<path fill="none" stroke="midnightblue" d="M233.66,-29C225.21,-29 216.52,-29 208.01,-29"/>
<polygon fill="midnightblue" stroke="midnightblue" points="233.8,-32.5 243.8,-29 233.8,-25.5 233.8,-32.5"/>
</g>
<!-- Node6 -->
<g id="node6" class="node">
<title>Node6</title>
<g id="a_node6"><a xlink:href="../../d2/d24/hydrocode_8c.html#a0ddf1224851353fc92bfbff6f499fa97" target="_top" xlink:title="This is the main function which constructs the main structure of the radially symmetric Lagrangian hy...">
<polygon fill="white" stroke="black" points="0,-19.5 0,-38.5 41,-38.5 41,-19.5 0,-19.5"/>
<text text-anchor="middle" x="20.5" y="-26.5" font-family="Helvetica,sans-Serif" font-size="10.00">main</text>
</a>
</g>
</g>
<!-- Node5&#45;&gt;Node6 -->
<g id="edge5" class="edge">
<title>Node5&#45;&gt;Node6</title>
<path fill="none" stroke="midnightblue" d="M66.91,-29C57.43,-29 48.46,-29 41.05,-29"/>
<polygon fill="midnightblue" stroke="midnightblue" points="66.93,-32.5 76.93,-29 66.93,-25.5 66.93,-32.5"/>
</g>
<!-- Node7&#45;&gt;Node3 -->
<g id="edge7" class="edge">
<title>Node7&#45;&gt;Node3</title>
<path fill="none" stroke="midnightblue" d="M499.87,-17.21C489.11,-18.92 477.67,-20.75 467.1,-22.44"/>
<polygon fill="midnightblue" stroke="midnightblue" points="500.62,-20.63 509.94,-15.6 499.51,-13.72 500.62,-20.63"/>
</g>
</g>
</svg>
