<?xml version="1.0" encoding="UTF-8" standalone="no"?>
<!DOCTYPE svg PUBLIC "-//W3C//DTD SVG 1.1//EN"
 "http://www.w3.org/Graphics/SVG/1.1/DTD/svg11.dtd">
<!-- Generated by graphviz version 6.0.1 (0)
 -->
<!-- Title: getTriArea Pages: 1 -->
<svg width="703pt" height="142pt"
 viewBox="0.00 0.00 703.00 142.00" xmlns="http://www.w3.org/2000/svg" xmlns:xlink="http://www.w3.org/1999/xlink">
<g id="graph0" class="graph" transform="scale(1 1) rotate(0) translate(4 138)">
<title>getTriArea</title>
<polygon fill="white" stroke="none" points="-4,4 -4,-138 699,-138 699,4 -4,4"/>
<!-- Node1 -->
<g id="node1" class="node">
<title>Node1</title>
<g id="a_node1"><a xlink:title=" ">
<polygon fill="#bfbfbf" stroke="black" points="628,-57.5 628,-76.5 695,-76.5 695,-57.5 628,-57.5"/>
<text text-anchor="middle" x="661.5" y="-64.5" font-family="Helvetica,sans-Serif" font-size="10.00">getTriArea</text>
</a>
</g>
</g>
<!-- Node2 -->
<g id="node2" class="node">
<title>Node2</title>
<g id="a_node2"><a xlink:href="../../d6/d7d/_v_i_p_limiter_8cpp.html#ad96d890fada871a7247f5c952bc49c36" target="_top" xlink:title=" ">
<polygon fill="white" stroke="black" points="504.5,-114.5 504.5,-133.5 590.5,-133.5 590.5,-114.5 504.5,-114.5"/>
<text text-anchor="middle" x="547.5" y="-121.5" font-family="Helvetica,sans-Serif" font-size="10.00">insideQuadCH</text>
</a>
</g>
</g>
<!-- Node1&#45;&gt;Node2 -->
<g id="edge1" class="edge">
<title>Node1&#45;&gt;Node2</title>
<path fill="none" stroke="midnightblue" d="M635.4,-81.67C622.57,-88.98 606.62,-97.77 592,-105 585.5,-108.21 578.33,-111.46 571.71,-114.34"/>
<polygon fill="midnightblue" stroke="midnightblue" points="637.2,-84.68 644.12,-76.66 633.71,-78.61 637.2,-84.68"/>
</g>
<!-- Node3 -->
<g id="node3" class="node">
<title>Node3</title>
<g id="a_node3"><a xlink:href="../../d6/d7d/_v_i_p_limiter_8cpp.html#a904665fb564a0750ebc460f9f31366eb" target="_top" xlink:title=" ">
<polygon fill="white" stroke="black" points="503,-76.5 503,-95.5 592,-95.5 592,-76.5 503,-76.5"/>
<text text-anchor="middle" x="547.5" y="-83.5" font-family="Helvetica,sans-Serif" font-size="10.00">insideSegment</text>
</a>
</g>
</g>
<!-- Node1&#45;&gt;Node3 -->
<g id="edge2" class="edge">
<title>Node1&#45;&gt;Node3</title>
<path fill="none" stroke="midnightblue" d="M617.85,-74.23C609.48,-75.65 600.69,-77.15 592.28,-78.57"/>
<polygon fill="midnightblue" stroke="midnightblue" points="618.53,-77.67 627.8,-72.55 617.36,-70.77 618.53,-77.67"/>
</g>
<!-- Node4 -->
<g id="node4" class="node">
<title>Node4</title>
<g id="a_node4"><a xlink:href="../../d6/d7d/_v_i_p_limiter_8cpp.html#a797681bc7e6c787bc98d26f2fc508973" target="_top" xlink:title="Subroutine of using VIP limiter for 2D velocity vector.">
<polygon fill="white" stroke="black" points="383,-57.5 383,-76.5 467,-76.5 467,-57.5 383,-57.5"/>
<text text-anchor="middle" x="425" y="-64.5" font-family="Helvetica,sans-Serif" font-size="10.00">useVIPLimiter</text>
</a>
</g>
</g>
<!-- Node1&#45;&gt;Node4 -->
<g id="edge8" class="edge">
<title>Node1&#45;&gt;Node4</title>
<path fill="none" stroke="midnightblue" d="M617.81,-67C575.05,-67 509.7,-67 467.41,-67"/>
<polygon fill="midnightblue" stroke="midnightblue" points="617.89,-70.5 627.89,-67 617.89,-63.5 617.89,-70.5"/>
</g>
<!-- Node8 -->
<g id="node8" class="node">
<title>Node8</title>
<g id="a_node8"><a xlink:href="../../d6/d7d/_v_i_p_limiter_8cpp.html#a52338d7b49b098cfb090b002e5de7054" target="_top" xlink:title=" ">
<polygon fill="white" stroke="black" points="511.5,-0.5 511.5,-19.5 583.5,-19.5 583.5,-0.5 511.5,-0.5"/>
<text text-anchor="middle" x="547.5" y="-7.5" font-family="Helvetica,sans-Serif" font-size="10.00">insideTriCH</text>
</a>
</g>
</g>
<!-- Node1&#45;&gt;Node8 -->
<g id="edge7" class="edge">
<title>Node1&#45;&gt;Node8</title>
<path fill="none" stroke="midnightblue" d="M632.64,-52.82C612.27,-42.45 585.18,-28.67 567.31,-19.57"/>
<polygon fill="midnightblue" stroke="midnightblue" points="631.25,-56.04 641.75,-57.46 634.43,-49.8 631.25,-56.04"/>
</g>
<!-- Node3&#45;&gt;Node4 -->
<g id="edge3" class="edge">
<title>Node3&#45;&gt;Node4</title>
<path fill="none" stroke="midnightblue" d="M492.93,-77.55C484.24,-76.18 475.36,-74.78 467.03,-73.47"/>
<polygon fill="midnightblue" stroke="midnightblue" points="492.57,-81.04 503,-79.14 493.66,-74.13 492.57,-81.04"/>
</g>
<!-- Node5 -->
<g id="node5" class="node">
<title>Node5</title>
<g id="a_node5"><a xlink:href="../../d6/df2/slope___v_i_p__limiter__radial_8c.html#aaaa06c143daec504594545993241e747" target="_top" xlink:title="This function apply the VIP/minmod limiter to the slope of the fluid velocity in radially symmetric c...">
<polygon fill="white" stroke="black" points="244,-57.5 244,-76.5 347,-76.5 347,-57.5 244,-57.5"/>
<text text-anchor="middle" x="295.5" y="-64.5" font-family="Helvetica,sans-Serif" font-size="10.00">VIP_limiter_radial</text>
</a>
</g>
</g>
<!-- Node4&#45;&gt;Node5 -->
<g id="edge4" class="edge">
<title>Node4&#45;&gt;Node5</title>
<path fill="none" stroke="midnightblue" d="M372.87,-67C364.45,-67 355.72,-67 347.3,-67"/>
<polygon fill="midnightblue" stroke="midnightblue" points="372.96,-70.5 382.96,-67 372.96,-63.5 372.96,-70.5"/>
</g>
<!-- Node6 -->
<g id="node6" class="node">
<title>Node6</title>
<g id="a_node6"><a xlink:href="../../d5/d63/grp__solver__radial___l_a_g__source_8c.html#a30b48b52a21ad448fd96c27727760837" target="_top" xlink:title="This function use GRP scheme to solve radially(cylindrically) symmetric compressible flows of motion ...">
<polygon fill="white" stroke="black" points="77,-52 77,-82 208,-82 208,-52 77,-52"/>
<text text-anchor="start" x="85" y="-70" font-family="Helvetica,sans-Serif" font-size="10.00">GRP_solver_radial_LAG</text>
<text text-anchor="middle" x="142.5" y="-59" font-family="Helvetica,sans-Serif" font-size="10.00">_source</text>
</a>
</g>
</g>
<!-- Node5&#45;&gt;Node6 -->
<g id="edge5" class="edge">
<title>Node5&#45;&gt;Node6</title>
<path fill="none" stroke="midnightblue" d="M233.66,-67C225.21,-67 216.52,-67 208.01,-67"/>
<polygon fill="midnightblue" stroke="midnightblue" points="233.8,-70.5 243.8,-67 233.8,-63.5 233.8,-70.5"/>
</g>
<!-- Node7 -->
<g id="node7" class="node">
<title>Node7</title>
<g id="a_node7"><a xlink:href="../../d2/d24/hydrocode_8c.html#a0ddf1224851353fc92bfbff6f499fa97" target="_top" xlink:title="This is the main function which constructs the main structure of the radially symmetric Lagrangian hy...">
<polygon fill="white" stroke="black" points="0,-57.5 0,-76.5 41,-76.5 41,-57.5 0,-57.5"/>
<text text-anchor="middle" x="20.5" y="-64.5" font-family="Helvetica,sans-Serif" font-size="10.00">main</text>
</a>
</g>
</g>
<!-- Node6&#45;&gt;Node7 -->
<g id="edge6" class="edge">
<title>Node6&#45;&gt;Node7</title>
<path fill="none" stroke="midnightblue" d="M66.91,-67C57.43,-67 48.46,-67 41.05,-67"/>
<polygon fill="midnightblue" stroke="midnightblue" points="66.93,-70.5 76.93,-67 66.93,-63.5 66.93,-70.5"/>
</g>
</g>
</svg>
