<?xml version="1.0" encoding="UTF-8" standalone="no"?>
<!DOCTYPE svg PUBLIC "-//W3C//DTD SVG 1.1//EN"
 "http://www.w3.org/Graphics/SVG/1.1/DTD/svg11.dtd">
<!-- Generated by graphviz version 6.0.1 (0)
 -->
<!-- Title: insideTriCH Pages: 1 -->
<svg width="583pt" height="39pt"
 viewBox="0.00 0.00 583.00 39.00" xmlns="http://www.w3.org/2000/svg" xmlns:xlink="http://www.w3.org/1999/xlink">
<g id="graph0" class="graph" transform="scale(1 1) rotate(0) translate(4 35)">
<title>insideTriCH</title>
<polygon fill="white" stroke="none" points="-4,4 -4,-35 579,-35 579,4 -4,4"/>
<!-- Node1 -->
<g id="node1" class="node">
<title>Node1</title>
<g id="a_node1"><a xlink:title=" ">
<polygon fill="#bfbfbf" stroke="black" points="503,-6 503,-25 575,-25 575,-6 503,-6"/>
<text text-anchor="middle" x="539" y="-13" font-family="Helvetica,sans-Serif" font-size="10.00">insideTriCH</text>
</a>
</g>
</g>
<!-- Node2 -->
<g id="node2" class="node">
<title>Node2</title>
<g id="a_node2"><a xlink:href="../../d6/d7d/_v_i_p_limiter_8cpp.html#a797681bc7e6c787bc98d26f2fc508973" target="_top" xlink:title="Subroutine of using VIP limiter for 2D velocity vector.">
<polygon fill="white" stroke="black" points="383,-6 383,-25 467,-25 467,-6 383,-6"/>
<text text-anchor="middle" x="425" y="-13" font-family="Helvetica,sans-Serif" font-size="10.00">useVIPLimiter</text>
</a>
</g>
</g>
<!-- Node1&#45;&gt;Node2 -->
<g id="edge1" class="edge">
<title>Node1&#45;&gt;Node2</title>
<path fill="none" stroke="midnightblue" d="M492.8,-15.5C484.36,-15.5 475.59,-15.5 467.28,-15.5"/>
<polygon fill="midnightblue" stroke="midnightblue" points="492.87,-19 502.87,-15.5 492.87,-12 492.87,-19"/>
</g>
<!-- Node3 -->
<g id="node3" class="node">
<title>Node3</title>
<g id="a_node3"><a xlink:href="../../d6/df2/slope___v_i_p__limiter__radial_8c.html#aaaa06c143daec504594545993241e747" target="_top" xlink:title="This function apply the VIP/minmod limiter to the slope of the fluid velocity in radially symmetric c...">
<polygon fill="white" stroke="black" points="244,-6 244,-25 347,-25 347,-6 244,-6"/>
<text text-anchor="middle" x="295.5" y="-13" font-family="Helvetica,sans-Serif" font-size="10.00">VIP_limiter_radial</text>
</a>
</g>
</g>
<!-- Node2&#45;&gt;Node3 -->
<g id="edge2" class="edge">
<title>Node2&#45;&gt;Node3</title>
<path fill="none" stroke="midnightblue" d="M372.87,-15.5C364.45,-15.5 355.72,-15.5 347.3,-15.5"/>
<polygon fill="midnightblue" stroke="midnightblue" points="372.96,-19 382.96,-15.5 372.96,-12 372.96,-19"/>
</g>
<!-- Node4 -->
<g id="node4" class="node">
<title>Node4</title>
<g id="a_node4"><a xlink:href="../../d5/d63/grp__solver__radial___l_a_g__source_8c.html#a30b48b52a21ad448fd96c27727760837" target="_top" xlink:title="This function use GRP scheme to solve radially(cylindrically) symmetric compressible flows of motion ...">
<polygon fill="white" stroke="black" points="77,-0.5 77,-30.5 208,-30.5 208,-0.5 77,-0.5"/>
<text text-anchor="start" x="85" y="-18.5" font-family="Helvetica,sans-Serif" font-size="10.00">GRP_solver_radial_LAG</text>
<text text-anchor="middle" x="142.5" y="-7.5" font-family="Helvetica,sans-Serif" font-size="10.00">_source</text>
</a>
</g>
</g>
<!-- Node3&#45;&gt;Node4 -->
<g id="edge3" class="edge">
<title>Node3&#45;&gt;Node4</title>
<path fill="none" stroke="midnightblue" d="M233.66,-15.5C225.21,-15.5 216.52,-15.5 208.01,-15.5"/>
<polygon fill="midnightblue" stroke="midnightblue" points="233.8,-19 243.8,-15.5 233.8,-12 233.8,-19"/>
</g>
<!-- Node5 -->
<g id="node5" class="node">
<title>Node5</title>
<g id="a_node5"><a xlink:href="../../d2/d24/hydrocode_8c.html#a0ddf1224851353fc92bfbff6f499fa97" target="_top" xlink:title="This is the main function which constructs the main structure of the radially symmetric Lagrangian hy...">
<polygon fill="white" stroke="black" points="0,-6 0,-25 41,-25 41,-6 0,-6"/>
<text text-anchor="middle" x="20.5" y="-13" font-family="Helvetica,sans-Serif" font-size="10.00">main</text>
</a>
</g>
</g>
<!-- Node4&#45;&gt;Node5 -->
<g id="edge4" class="edge">
<title>Node4&#45;&gt;Node5</title>
<path fill="none" stroke="midnightblue" d="M66.91,-15.5C57.43,-15.5 48.46,-15.5 41.05,-15.5"/>
<polygon fill="midnightblue" stroke="midnightblue" points="66.93,-19 76.93,-15.5 66.93,-12 66.93,-19"/>
</g>
</g>
</svg>
