<?xml version="1.0" encoding="UTF-8" standalone="no"?>
<!DOCTYPE svg PUBLIC "-//W3C//DTD SVG 1.1//EN"
 "http://www.w3.org/Graphics/SVG/1.1/DTD/svg11.dtd">
<!-- Generated by graphviz version 6.0.1 (0)
 -->
<!-- Title: obtuseAngle Pages: 1 -->
<svg width="710pt" height="104pt"
 viewBox="0.00 0.00 710.00 104.00" xmlns="http://www.w3.org/2000/svg" xmlns:xlink="http://www.w3.org/1999/xlink">
<g id="graph0" class="graph" transform="scale(1 1) rotate(0) translate(4 100)">
<title>obtuseAngle</title>
<polygon fill="white" stroke="none" points="-4,4 -4,-100 706,-100 706,4 -4,4"/>
<!-- Node1 -->
<g id="node1" class="node">
<title>Node1</title>
<g id="a_node1"><a xlink:title=" ">
<polygon fill="#bfbfbf" stroke="black" points="625,-38.5 625,-57.5 702,-57.5 702,-38.5 625,-38.5"/>
<text text-anchor="middle" x="663.5" y="-45.5" font-family="Helvetica,sans-Serif" font-size="10.00">obtuseAngle</text>
</a>
</g>
</g>
<!-- Node2 -->
<g id="node2" class="node">
<title>Node2</title>
<g id="a_node2"><a xlink:href="../../d6/d7d/_v_i_p_limiter_8cpp.html#a9d0226d29242b8bcd92a632ad1fcbb9b" target="_top" xlink:title=" ">
<polygon fill="white" stroke="black" points="503,-76.5 503,-95.5 589,-95.5 589,-76.5 503,-76.5"/>
<text text-anchor="middle" x="546" y="-83.5" font-family="Helvetica,sans-Serif" font-size="10.00">insideQuadCH</text>
</a>
</g>
</g>
<!-- Node1&#45;&gt;Node2 -->
<g id="edge1" class="edge">
<title>Node1&#45;&gt;Node2</title>
<path fill="none" stroke="midnightblue" d="M623.52,-60.83C608.02,-65.92 590.5,-71.69 576.14,-76.41"/>
<polygon fill="midnightblue" stroke="midnightblue" points="624.95,-64.04 633.35,-57.59 622.76,-57.39 624.95,-64.04"/>
</g>
<!-- Node3 -->
<g id="node3" class="node">
<title>Node3</title>
<g id="a_node3"><a xlink:href="../../d6/d7d/_v_i_p_limiter_8cpp.html#a797681bc7e6c787bc98d26f2fc508973" target="_top" xlink:title="Subroutine of using VIP limiter for 2D velocity vector.">
<polygon fill="white" stroke="black" points="383,-38.5 383,-57.5 467,-57.5 467,-38.5 383,-38.5"/>
<text text-anchor="middle" x="425" y="-45.5" font-family="Helvetica,sans-Serif" font-size="10.00">useVIPLimiter</text>
</a>
</g>
</g>
<!-- Node1&#45;&gt;Node3 -->
<g id="edge8" class="edge">
<title>Node1&#45;&gt;Node3</title>
<path fill="none" stroke="midnightblue" d="M614.76,-48C571.46,-48 508.3,-48 467.18,-48"/>
<polygon fill="midnightblue" stroke="midnightblue" points="614.76,-51.5 624.76,-48 614.76,-44.5 614.76,-51.5"/>
</g>
<!-- Node7 -->
<g id="node7" class="node">
<title>Node7</title>
<g id="a_node7"><a xlink:href="../../d6/d7d/_v_i_p_limiter_8cpp.html#a4926d1cbff5b2f8531a0d136f4cf05ae" target="_top" xlink:title=" ">
<polygon fill="white" stroke="black" points="510,-0.5 510,-19.5 582,-19.5 582,-0.5 510,-0.5"/>
<text text-anchor="middle" x="546" y="-7.5" font-family="Helvetica,sans-Serif" font-size="10.00">insideTriCH</text>
</a>
</g>
</g>
<!-- Node1&#45;&gt;Node7 -->
<g id="edge6" class="edge">
<title>Node1&#45;&gt;Node7</title>
<path fill="none" stroke="midnightblue" d="M623.52,-35.17C608.02,-30.08 590.5,-24.31 576.14,-19.59"/>
<polygon fill="midnightblue" stroke="midnightblue" points="622.76,-38.61 633.35,-38.41 624.95,-31.96 622.76,-38.61"/>
</g>
<!-- Node2&#45;&gt;Node3 -->
<g id="edge2" class="edge">
<title>Node2&#45;&gt;Node3</title>
<path fill="none" stroke="midnightblue" d="M505.29,-73.32C489.21,-68.19 470.96,-62.36 456.02,-57.59"/>
<polygon fill="midnightblue" stroke="midnightblue" points="504.38,-76.7 514.97,-76.41 506.51,-70.03 504.38,-76.7"/>
</g>
<!-- Node4 -->
<g id="node4" class="node">
<title>Node4</title>
<g id="a_node4"><a xlink:href="../../d6/df2/slope___v_i_p__limiter__radial_8c.html#aaaa06c143daec504594545993241e747" target="_top" xlink:title="This function apply the VIP/minmod limiter to the slope of the fluid velocity in radially symmetric c...">
<polygon fill="white" stroke="black" points="244,-38.5 244,-57.5 347,-57.5 347,-38.5 244,-38.5"/>
<text text-anchor="middle" x="295.5" y="-45.5" font-family="Helvetica,sans-Serif" font-size="10.00">VIP_limiter_radial</text>
</a>
</g>
</g>
<!-- Node3&#45;&gt;Node4 -->
<g id="edge3" class="edge">
<title>Node3&#45;&gt;Node4</title>
<path fill="none" stroke="midnightblue" d="M372.87,-48C364.45,-48 355.72,-48 347.3,-48"/>
<polygon fill="midnightblue" stroke="midnightblue" points="372.96,-51.5 382.96,-48 372.96,-44.5 372.96,-51.5"/>
</g>
<!-- Node5 -->
<g id="node5" class="node">
<title>Node5</title>
<g id="a_node5"><a xlink:href="../../d5/d63/grp__solver__radial___l_a_g__source_8c.html#a30b48b52a21ad448fd96c27727760837" target="_top" xlink:title="This function use GRP scheme to solve radially(cylindrically) symmetric compressible flows of motion ...">
<polygon fill="white" stroke="black" points="77,-33 77,-63 208,-63 208,-33 77,-33"/>
<text text-anchor="start" x="85" y="-51" font-family="Helvetica,sans-Serif" font-size="10.00">GRP_solver_radial_LAG</text>
<text text-anchor="middle" x="142.5" y="-40" font-family="Helvetica,sans-Serif" font-size="10.00">_source</text>
</a>
</g>
</g>
<!-- Node4&#45;&gt;Node5 -->
<g id="edge4" class="edge">
<title>Node4&#45;&gt;Node5</title>
<path fill="none" stroke="midnightblue" d="M233.66,-48C225.21,-48 216.52,-48 208.01,-48"/>
<polygon fill="midnightblue" stroke="midnightblue" points="233.8,-51.5 243.8,-48 233.8,-44.5 233.8,-51.5"/>
</g>
<!-- Node6 -->
<g id="node6" class="node">
<title>Node6</title>
<g id="a_node6"><a xlink:href="../../d2/d24/hydrocode_8c.html#a0ddf1224851353fc92bfbff6f499fa97" target="_top" xlink:title="This is the main function which constructs the main structure of the radially symmetric Lagrangian hy...">
<polygon fill="white" stroke="black" points="0,-38.5 0,-57.5 41,-57.5 41,-38.5 0,-38.5"/>
<text text-anchor="middle" x="20.5" y="-45.5" font-family="Helvetica,sans-Serif" font-size="10.00">main</text>
</a>
</g>
</g>
<!-- Node5&#45;&gt;Node6 -->
<g id="edge5" class="edge">
<title>Node5&#45;&gt;Node6</title>
<path fill="none" stroke="midnightblue" d="M66.91,-48C57.43,-48 48.46,-48 41.05,-48"/>
<polygon fill="midnightblue" stroke="midnightblue" points="66.93,-51.5 76.93,-48 66.93,-44.5 66.93,-51.5"/>
</g>
<!-- Node7&#45;&gt;Node3 -->
<g id="edge7" class="edge">
<title>Node7&#45;&gt;Node3</title>
<path fill="none" stroke="midnightblue" d="M505.29,-22.68C489.21,-27.81 470.96,-33.64 456.02,-38.41"/>
<polygon fill="midnightblue" stroke="midnightblue" points="506.51,-25.97 514.97,-19.59 504.38,-19.3 506.51,-25.97"/>
</g>
</g>
</svg>
