<?xml version="1.0" encoding="UTF-8" standalone="no"?>
<!DOCTYPE svg PUBLIC "-//W3C//DTD SVG 1.1//EN"
 "http://www.w3.org/Graphics/SVG/1.1/DTD/svg11.dtd">
<!-- Generated by graphviz version 5.0.0 (0)
 -->
<!-- Title: /run/media/leixin/软件盘/雷昕整理后的重要文件/程序/My&#45;CFD/HydroCODE/src/finite_volume/GRP_solver_2D_split_EUL_source.c Pages: 1 -->
<svg width="915pt" height="195pt"
 viewBox="0.00 0.00 914.50 195.00" xmlns="http://www.w3.org/2000/svg" xmlns:xlink="http://www.w3.org/1999/xlink">
<g id="graph0" class="graph" transform="scale(1 1) rotate(0) translate(4 191)">
<title>/run/media/leixin/软件盘/雷昕整理后的重要文件/程序/My&#45;CFD/HydroCODE/src/finite_volume/GRP_solver_2D_split_EUL_source.c</title>
<polygon fill="white" stroke="transparent" points="-4,4 -4,-191 910.5,-191 910.5,4 -4,4"/>
<!-- Node1 -->
<g id="node1" class="node">
<title>Node1</title>
<g id="a_node1"><a xlink:title="This is an Eulerian GRP scheme to solve 2&#45;D Euler equations with dimension splitting.">
<polygon fill="#bfbfbf" stroke="black" points="239.5,-123.5 239.5,-186.5 430.5,-186.5 430.5,-123.5 239.5,-123.5"/>
<text text-anchor="start" x="247.5" y="-174.5" font-family="Helvetica,sans-Serif" font-size="10.00">/run/media/leixin/软件盘</text>
<text text-anchor="start" x="247.5" y="-163.5" font-family="Helvetica,sans-Serif" font-size="10.00">/雷昕整理后的重要文件</text>
<text text-anchor="start" x="247.5" y="-152.5" font-family="Helvetica,sans-Serif" font-size="10.00">/程序/My&#45;CFD/HydroCODE/src</text>
<text text-anchor="start" x="247.5" y="-141.5" font-family="Helvetica,sans-Serif" font-size="10.00">/finite_volume/GRP_solver_2D_split</text>
<text text-anchor="middle" x="335" y="-130.5" font-family="Helvetica,sans-Serif" font-size="10.00">_EUL_source.c</text>
</a>
</g>
</g>
<!-- Node2 -->
<g id="node2" class="node">
<title>Node2</title>
<g id="a_node2"><a xlink:title=" ">
<polygon fill="white" stroke="#bfbfbf" points="0,-62 0,-81 50,-81 50,-62 0,-62"/>
<text text-anchor="middle" x="25" y="-69" font-family="Helvetica,sans-Serif" font-size="10.00">stdio.h</text>
</a>
</g>
</g>
<!-- Node1&#45;&gt;Node2 -->
<g id="edge1" class="edge">
<title>Node1&#45;&gt;Node2</title>
<path fill="none" stroke="midnightblue" d="M239.38,-134.86C185.74,-123.12 117.96,-106.58 59,-87 57.08,-86.36 55.12,-85.66 53.16,-84.93"/>
<polygon fill="midnightblue" stroke="midnightblue" points="54.08,-81.52 43.49,-81.04 51.47,-88.02 54.08,-81.52"/>
</g>
<!-- Node3 -->
<g id="node3" class="node">
<title>Node3</title>
<g id="a_node3"><a xlink:title=" ">
<polygon fill="white" stroke="#bfbfbf" points="68.5,-62 68.5,-81 119.5,-81 119.5,-62 68.5,-62"/>
<text text-anchor="middle" x="94" y="-69" font-family="Helvetica,sans-Serif" font-size="10.00">math.h</text>
</a>
</g>
</g>
<!-- Node1&#45;&gt;Node3 -->
<g id="edge2" class="edge">
<title>Node1&#45;&gt;Node3</title>
<path fill="none" stroke="midnightblue" d="M239.31,-125.01C204.08,-113.82 164,-100.47 128,-87 126.35,-86.38 124.66,-85.73 122.96,-85.06"/>
<polygon fill="midnightblue" stroke="midnightblue" points="123.88,-81.65 113.3,-81.09 121.22,-88.12 123.88,-81.65"/>
</g>
<!-- Node4 -->
<g id="node4" class="node">
<title>Node4</title>
<g id="a_node4"><a xlink:title=" ">
<polygon fill="white" stroke="#bfbfbf" points="137.5,-62 137.5,-81 190.5,-81 190.5,-62 137.5,-62"/>
<text text-anchor="middle" x="164" y="-69" font-family="Helvetica,sans-Serif" font-size="10.00">stdlib.h</text>
</a>
</g>
</g>
<!-- Node1&#45;&gt;Node4 -->
<g id="edge3" class="edge">
<title>Node1&#45;&gt;Node4</title>
<path fill="none" stroke="midnightblue" d="M270.84,-123.42C243.23,-110.26 212.44,-95.59 191.04,-85.39"/>
<polygon fill="midnightblue" stroke="midnightblue" points="192.44,-82.18 181.91,-81.03 189.43,-88.5 192.44,-82.18"/>
</g>
<!-- Node5 -->
<g id="node5" class="node">
<title>Node5</title>
<g id="a_node5"><a xlink:title=" ">
<polygon fill="white" stroke="#bfbfbf" points="209,-62 209,-81 257,-81 257,-62 209,-62"/>
<text text-anchor="middle" x="233" y="-69" font-family="Helvetica,sans-Serif" font-size="10.00">time.h</text>
</a>
</g>
</g>
<!-- Node1&#45;&gt;Node5 -->
<g id="edge4" class="edge">
<title>Node1&#45;&gt;Node5</title>
<path fill="none" stroke="midnightblue" d="M296.73,-123.42C281.3,-111.09 264.2,-97.43 251.61,-87.37"/>
<polygon fill="midnightblue" stroke="midnightblue" points="253.68,-84.54 243.68,-81.03 249.31,-90.01 253.68,-84.54"/>
</g>
<!-- Node6 -->
<g id="node6" class="node">
<title>Node6</title>
<g id="a_node6"><a xlink:title=" ">
<polygon fill="white" stroke="#bfbfbf" points="275,-62 275,-81 337,-81 337,-62 275,-62"/>
<text text-anchor="middle" x="306" y="-69" font-family="Helvetica,sans-Serif" font-size="10.00">stdbool.h</text>
</a>
</g>
</g>
<!-- Node1&#45;&gt;Node6 -->
<g id="edge5" class="edge">
<title>Node1&#45;&gt;Node6</title>
<path fill="none" stroke="midnightblue" d="M324.04,-123.19C320.17,-112.31 315.94,-100.44 312.55,-90.91"/>
<polygon fill="midnightblue" stroke="midnightblue" points="315.8,-89.59 309.15,-81.34 309.2,-91.94 315.8,-89.59"/>
</g>
<!-- Node7 -->
<g id="node7" class="node">
<title>Node7</title>
<g id="a_node7"><a xlink:href="../../da/d1e/var__struc_8h.html" target="_top" xlink:title="This file is the header file of some globally common variables and structural bodies.">
<polygon fill="white" stroke="black" points="453,-0.5 453,-19.5 571,-19.5 571,-0.5 453,-0.5"/>
<text text-anchor="middle" x="512" y="-7.5" font-family="Helvetica,sans-Serif" font-size="10.00">../include/var_struc.h</text>
</a>
</g>
</g>
<!-- Node1&#45;&gt;Node7 -->
<g id="edge6" class="edge">
<title>Node1&#45;&gt;Node7</title>
<path fill="none" stroke="midnightblue" d="M343.94,-123.19C351.64,-101.68 364.75,-73.75 385,-56 403.85,-39.47 429.18,-28.89 452.26,-22.18"/>
<polygon fill="midnightblue" stroke="midnightblue" points="453.26,-25.54 461.99,-19.54 451.42,-18.79 453.26,-25.54"/>
</g>
<!-- Node8 -->
<g id="node8" class="node">
<title>Node8</title>
<g id="a_node8"><a xlink:href="../../d8/d09/_riemann__solver_8h.html" target="_top" xlink:title="This file is the header file of several Riemann solvers and GRP solvers.">
<polygon fill="white" stroke="black" points="393.5,-56.5 393.5,-86.5 500.5,-86.5 500.5,-56.5 393.5,-56.5"/>
<text text-anchor="start" x="401.5" y="-74.5" font-family="Helvetica,sans-Serif" font-size="10.00">../include/Riemann</text>
<text text-anchor="middle" x="447" y="-63.5" font-family="Helvetica,sans-Serif" font-size="10.00">_solver.h</text>
</a>
</g>
</g>
<!-- Node1&#45;&gt;Node8 -->
<g id="edge7" class="edge">
<title>Node1&#45;&gt;Node8</title>
<path fill="none" stroke="midnightblue" d="M377.02,-123.42C391.14,-113.14 406.53,-101.95 419.27,-92.68"/>
<polygon fill="midnightblue" stroke="midnightblue" points="421.6,-95.31 427.62,-86.6 417.48,-89.65 421.6,-95.31"/>
</g>
<!-- Node9 -->
<g id="node9" class="node">
<title>Node9</title>
<g id="a_node9"><a xlink:href="../../dd/df5/flux__calc_8h.html" target="_top" xlink:title="This file is the header file of intermediate processes of finite volume scheme.">
<polygon fill="white" stroke="black" points="519,-62 519,-81 635,-81 635,-62 519,-62"/>
<text text-anchor="middle" x="577" y="-69" font-family="Helvetica,sans-Serif" font-size="10.00">../include/flux_calc.h</text>
</a>
</g>
</g>
<!-- Node1&#45;&gt;Node9 -->
<g id="edge9" class="edge">
<title>Node1&#45;&gt;Node9</title>
<path fill="none" stroke="midnightblue" d="M425.8,-123.42C466.29,-109.79 511.59,-94.53 541.96,-84.3"/>
<polygon fill="midnightblue" stroke="midnightblue" points="543.3,-87.54 551.66,-81.03 541.06,-80.91 543.3,-87.54"/>
</g>
<!-- Node10 -->
<g id="node10" class="node">
<title>Node10</title>
<g id="a_node10"><a xlink:href="../../d6/d6f/inter__process_8h.html" target="_top" xlink:title="This file is the header file of intermediate processes of finite volume scheme.">
<polygon fill="white" stroke="black" points="653,-62 653,-81 791,-81 791,-62 653,-62"/>
<text text-anchor="middle" x="722" y="-69" font-family="Helvetica,sans-Serif" font-size="10.00">../include/inter_process.h</text>
</a>
</g>
</g>
<!-- Node1&#45;&gt;Node10 -->
<g id="edge11" class="edge">
<title>Node1&#45;&gt;Node10</title>
<path fill="none" stroke="midnightblue" d="M430.66,-133.85C506.84,-117.81 610.46,-95.99 671.39,-83.16"/>
<polygon fill="midnightblue" stroke="midnightblue" points="672.46,-86.51 681.52,-81.02 671.01,-79.66 672.46,-86.51"/>
</g>
<!-- Node11 -->
<g id="node11" class="node">
<title>Node11</title>
<g id="a_node11"><a xlink:href="../../d5/da5/tools_8h.html" target="_top" xlink:title="This file is the header file of several independent tool functions.">
<polygon fill="white" stroke="black" points="809.5,-62 809.5,-81 906.5,-81 906.5,-62 809.5,-62"/>
<text text-anchor="middle" x="858" y="-69" font-family="Helvetica,sans-Serif" font-size="10.00">../include/tools.h</text>
</a>
</g>
</g>
<!-- Node1&#45;&gt;Node11 -->
<g id="edge13" class="edge">
<title>Node1&#45;&gt;Node11</title>
<path fill="none" stroke="midnightblue" d="M430.77,-143.09C525.12,-131.67 673.15,-111.93 800,-87 805.35,-85.95 810.94,-84.72 816.45,-83.43"/>
<polygon fill="midnightblue" stroke="midnightblue" points="817.33,-86.82 826.22,-81.06 815.68,-80.02 817.33,-86.82"/>
</g>
<!-- Node8&#45;&gt;Node7 -->
<g id="edge8" class="edge">
<title>Node8&#45;&gt;Node7</title>
<path fill="none" stroke="midnightblue" d="M462.4,-56.4C472.24,-47.4 484.99,-35.72 495.11,-26.47"/>
<polygon fill="midnightblue" stroke="midnightblue" points="497.53,-28.99 502.54,-19.66 492.8,-23.83 497.53,-28.99"/>
</g>
<!-- Node9&#45;&gt;Node7 -->
<g id="edge10" class="edge">
<title>Node9&#45;&gt;Node7</title>
<path fill="none" stroke="midnightblue" d="M567.69,-61.98C557.55,-52.7 541.14,-37.67 528.75,-26.33"/>
<polygon fill="midnightblue" stroke="midnightblue" points="531.04,-23.68 521.3,-19.51 526.31,-28.84 531.04,-23.68"/>
</g>
<!-- Node10&#45;&gt;Node7 -->
<g id="edge12" class="edge">
<title>Node10&#45;&gt;Node7</title>
<path fill="none" stroke="midnightblue" d="M691.91,-61.98C655.11,-51.55 592.69,-33.86 551.91,-22.31"/>
<polygon fill="midnightblue" stroke="midnightblue" points="552.61,-18.87 542.03,-19.51 550.7,-25.6 552.61,-18.87"/>
</g>
</g>
</svg>
