<?xml version="1.0" encoding="UTF-8" standalone="no"?>
<!DOCTYPE svg PUBLIC "-//W3C//DTD SVG 1.1//EN"
 "http://www.w3.org/Graphics/SVG/1.1/DTD/svg11.dtd">
<!-- Generated by graphviz version 5.0.0 (0)
 -->
<!-- Title: src/file_io/_1D_file_in.c Pages: 1 -->
<svg width="668pt" height="84pt"
 viewBox="0.00 0.00 668.00 84.00" xmlns="http://www.w3.org/2000/svg" xmlns:xlink="http://www.w3.org/1999/xlink">
<g id="graph0" class="graph" transform="scale(1 1) rotate(0) translate(4 80)">
<title>src/file_io/_1D_file_in.c</title>
<polygon fill="white" stroke="transparent" points="-4,4 -4,-80 664,-80 664,4 -4,4"/>
<!-- Node1 -->
<g id="node1" class="node">
<title>Node1</title>
<g id="a_node1"><a xlink:title="This is a set of functions which control the read&#45;in of one&#45;dimensional data.">
<polygon fill="#bfbfbf" stroke="black" points="205,-56.5 205,-75.5 334,-75.5 334,-56.5 205,-56.5"/>
<text text-anchor="middle" x="269.5" y="-63.5" font-family="Helvetica,sans-Serif" font-size="10.00">src/file_io/_1D_file_in.c</text>
</a>
</g>
</g>
<!-- Node2 -->
<g id="node2" class="node">
<title>Node2</title>
<g id="a_node2"><a xlink:title=" ">
<polygon fill="white" stroke="#bfbfbf" points="0,-0.5 0,-19.5 51,-19.5 51,-0.5 0,-0.5"/>
<text text-anchor="middle" x="25.5" y="-7.5" font-family="Helvetica,sans-Serif" font-size="10.00">errno.h</text>
</a>
</g>
</g>
<!-- Node1&#45;&gt;Node2 -->
<g id="edge1" class="edge">
<title>Node1&#45;&gt;Node2</title>
<path fill="none" stroke="midnightblue" d="M226.73,-56.46C186.36,-48.26 123.9,-35.21 61.16,-20.32"/>
<polygon fill="midnightblue" stroke="midnightblue" points="61.63,-16.83 51.09,-17.91 60,-23.64 61.63,-16.83"/>
</g>
<!-- Node3 -->
<g id="node3" class="node">
<title>Node3</title>
<g id="a_node3"><a xlink:title=" ">
<polygon fill="white" stroke="#bfbfbf" points="69,-0.5 69,-19.5 120,-19.5 120,-0.5 69,-0.5"/>
<text text-anchor="middle" x="94.5" y="-7.5" font-family="Helvetica,sans-Serif" font-size="10.00">math.h</text>
</a>
</g>
</g>
<!-- Node1&#45;&gt;Node3 -->
<g id="edge2" class="edge">
<title>Node1&#45;&gt;Node3</title>
<path fill="none" stroke="midnightblue" d="M241.77,-56.44C211.46,-47.09 162.83,-32.08 129.81,-21.9"/>
<polygon fill="midnightblue" stroke="midnightblue" points="130.69,-18.51 120.11,-18.9 128.63,-25.19 130.69,-18.51"/>
</g>
<!-- Node4 -->
<g id="node4" class="node">
<title>Node4</title>
<g id="a_node4"><a xlink:title=" ">
<polygon fill="white" stroke="#bfbfbf" points="138,-0.5 138,-19.5 191,-19.5 191,-0.5 138,-0.5"/>
<text text-anchor="middle" x="164.5" y="-7.5" font-family="Helvetica,sans-Serif" font-size="10.00">string.h</text>
</a>
</g>
</g>
<!-- Node1&#45;&gt;Node4 -->
<g id="edge3" class="edge">
<title>Node1&#45;&gt;Node4</title>
<path fill="none" stroke="midnightblue" d="M252.63,-56.32C235.79,-47.66 209.69,-34.24 190.26,-24.25"/>
<polygon fill="midnightblue" stroke="midnightblue" points="191.82,-21.12 181.33,-19.65 188.62,-27.34 191.82,-21.12"/>
</g>
<!-- Node5 -->
<g id="node5" class="node">
<title>Node5</title>
<g id="a_node5"><a xlink:title=" ">
<polygon fill="white" stroke="#bfbfbf" points="209.5,-0.5 209.5,-19.5 259.5,-19.5 259.5,-0.5 209.5,-0.5"/>
<text text-anchor="middle" x="234.5" y="-7.5" font-family="Helvetica,sans-Serif" font-size="10.00">stdio.h</text>
</a>
</g>
</g>
<!-- Node1&#45;&gt;Node5 -->
<g id="edge4" class="edge">
<title>Node1&#45;&gt;Node5</title>
<path fill="none" stroke="midnightblue" d="M263.72,-56.08C258.83,-48.53 251.67,-37.49 245.67,-28.23"/>
<polygon fill="midnightblue" stroke="midnightblue" points="248.55,-26.24 240.17,-19.75 242.67,-30.05 248.55,-26.24"/>
</g>
<!-- Node6 -->
<g id="node6" class="node">
<title>Node6</title>
<g id="a_node6"><a xlink:title=" ">
<polygon fill="white" stroke="#bfbfbf" points="278,-0.5 278,-19.5 331,-19.5 331,-0.5 278,-0.5"/>
<text text-anchor="middle" x="304.5" y="-7.5" font-family="Helvetica,sans-Serif" font-size="10.00">stdlib.h</text>
</a>
</g>
</g>
<!-- Node1&#45;&gt;Node6 -->
<g id="edge5" class="edge">
<title>Node1&#45;&gt;Node6</title>
<path fill="none" stroke="midnightblue" d="M275.28,-56.08C280.17,-48.53 287.33,-37.49 293.33,-28.23"/>
<polygon fill="midnightblue" stroke="midnightblue" points="296.33,-30.05 298.83,-19.75 290.45,-26.24 296.33,-30.05"/>
</g>
<!-- Node7 -->
<g id="node7" class="node">
<title>Node7</title>
<g id="a_node7"><a xlink:title=" ">
<polygon fill="white" stroke="#bfbfbf" points="349,-0.5 349,-19.5 402,-19.5 402,-0.5 349,-0.5"/>
<text text-anchor="middle" x="375.5" y="-7.5" font-family="Helvetica,sans-Serif" font-size="10.00">ctype.h</text>
</a>
</g>
</g>
<!-- Node1&#45;&gt;Node7 -->
<g id="edge6" class="edge">
<title>Node1&#45;&gt;Node7</title>
<path fill="none" stroke="midnightblue" d="M286.53,-56.32C303.53,-47.66 329.88,-34.24 349.49,-24.25"/>
<polygon fill="midnightblue" stroke="midnightblue" points="351.19,-27.31 358.51,-19.65 348.01,-21.08 351.19,-27.31"/>
</g>
<!-- Node8 -->
<g id="node8" class="node">
<title>Node8</title>
<g id="a_node8"><a xlink:href="../../da/d1e/var__struc_8h.html" target="_top" xlink:title=" ">
<polygon fill="white" stroke="black" points="420.5,-0.5 420.5,-19.5 538.5,-19.5 538.5,-0.5 420.5,-0.5"/>
<text text-anchor="middle" x="479.5" y="-7.5" font-family="Helvetica,sans-Serif" font-size="10.00">../include/var_struc.h</text>
</a>
</g>
</g>
<!-- Node1&#45;&gt;Node8 -->
<g id="edge7" class="edge">
<title>Node1&#45;&gt;Node8</title>
<path fill="none" stroke="midnightblue" d="M302.78,-56.44C338.95,-47.14 396.88,-32.25 436.48,-22.06"/>
<polygon fill="midnightblue" stroke="midnightblue" points="437.57,-25.4 446.38,-19.52 435.82,-18.62 437.57,-25.4"/>
</g>
<!-- Node9 -->
<g id="node9" class="node">
<title>Node9</title>
<g id="a_node9"><a xlink:href="../../db/db8/file__io_8h.html" target="_top" xlink:title="This file is the header file that controls data input and output.">
<polygon fill="white" stroke="black" points="557,-0.5 557,-19.5 660,-19.5 660,-0.5 557,-0.5"/>
<text text-anchor="middle" x="608.5" y="-7.5" font-family="Helvetica,sans-Serif" font-size="10.00">../include/file_io.h</text>
</a>
</g>
</g>
<!-- Node1&#45;&gt;Node9 -->
<g id="edge8" class="edge">
<title>Node1&#45;&gt;Node9</title>
<path fill="none" stroke="midnightblue" d="M323.22,-56.44C384.09,-46.75 483.13,-30.97 547.04,-20.79"/>
<polygon fill="midnightblue" stroke="midnightblue" points="547.65,-24.24 556.98,-19.21 546.55,-17.32 547.65,-24.24"/>
</g>
</g>
</svg>
