<?xml version="1.0" encoding="UTF-8" standalone="no"?>
<!DOCTYPE svg PUBLIC "-//W3C//DTD SVG 1.1//EN"
 "http://www.w3.org/Graphics/SVG/1.1/DTD/svg11.dtd">
<!-- Generated by graphviz version 5.0.0 (0)
 -->
<!-- Title: GRP_solver_ALE_source_Undone Pages: 1 -->
<svg width="551pt" height="123pt"
 viewBox="0.00 0.00 551.00 123.00" xmlns="http://www.w3.org/2000/svg" xmlns:xlink="http://www.w3.org/1999/xlink">
<g id="graph0" class="graph" transform="scale(1 1) rotate(0) translate(4 119)">
<title>GRP_solver_ALE_source_Undone</title>
<polygon fill="white" stroke="transparent" points="-4,4 -4,-119 547,-119 547,4 -4,4"/>
<!-- Node1 -->
<g id="node1" class="node">
<title>Node1</title>
<g id="a_node1"><a xlink:title="This function use GRP scheme to solve 1&#45;D Euler equations of motion on ALE coordinate.">
<polygon fill="#bfbfbf" stroke="black" points="0,-33 0,-63 133,-63 133,-33 0,-33"/>
<text text-anchor="start" x="8" y="-51" font-family="Helvetica,sans-Serif" font-size="10.00">GRP_solver_ALE_source</text>
<text text-anchor="middle" x="66.5" y="-40" font-family="Helvetica,sans-Serif" font-size="10.00">_Undone</text>
</a>
</g>
</g>
<!-- Node2 -->
<g id="node2" class="node">
<title>Node2</title>
<g id="a_node2"><a xlink:href="../../df/d13/bound__cond__slope__limiter_8c.html#adf898c0b0966ac36a90920be44951a5c" target="_top" xlink:title="This function apply the minmod limiter to the slope in one dimension.">
<polygon fill="white" stroke="black" points="169,-76.5 169,-95.5 313,-95.5 313,-76.5 169,-76.5"/>
<text text-anchor="middle" x="241" y="-83.5" font-family="Helvetica,sans-Serif" font-size="10.00">bound_cond_slope_limiter</text>
</a>
</g>
</g>
<!-- Node1&#45;&gt;Node2 -->
<g id="edge1" class="edge">
<title>Node1&#45;&gt;Node2</title>
<path fill="none" stroke="midnightblue" d="M133.21,-62.47C150.79,-66.35 169.58,-70.49 186.42,-74.2"/>
<polygon fill="midnightblue" stroke="midnightblue" points="186.11,-77.71 196.63,-76.45 187.62,-70.88 186.11,-77.71"/>
</g>
<!-- Node6 -->
<g id="node6" class="node">
<title>Node6</title>
<g id="a_node6"><a xlink:href="../../d4/ddd/sys__pro_8c.html#aab058cac35713b52c083b9e54ffa45eb" target="_top" xlink:title="This function print a progress bar on one line of standard output.">
<polygon fill="white" stroke="black" points="214,-38.5 214,-57.5 268,-57.5 268,-38.5 214,-38.5"/>
<text text-anchor="middle" x="241" y="-45.5" font-family="Helvetica,sans-Serif" font-size="10.00">DispPro</text>
</a>
</g>
</g>
<!-- Node1&#45;&gt;Node6 -->
<g id="edge5" class="edge">
<title>Node1&#45;&gt;Node6</title>
<path fill="none" stroke="midnightblue" d="M133.21,-48C157.04,-48 183.1,-48 203.51,-48"/>
<polygon fill="midnightblue" stroke="midnightblue" points="203.63,-51.5 213.63,-48 203.63,-44.5 203.63,-51.5"/>
</g>
<!-- Node7 -->
<g id="node7" class="node">
<title>Node7</title>
<g id="a_node7"><a xlink:href="../../dc/d70/linear___g_r_p__solver___edir_8c.html#ae1ab028f093a0dcda02b4f7ae5a23ce2" target="_top" xlink:title="A direct Eulerian GRP solver for unsteady compressible inviscid flow in one space dimension.">
<polygon fill="white" stroke="black" points="176.5,-0.5 176.5,-19.5 305.5,-19.5 305.5,-0.5 176.5,-0.5"/>
<text text-anchor="middle" x="241" y="-7.5" font-family="Helvetica,sans-Serif" font-size="10.00">linear_GRP_solver_Edir</text>
</a>
</g>
</g>
<!-- Node1&#45;&gt;Node7 -->
<g id="edge6" class="edge">
<title>Node1&#45;&gt;Node7</title>
<path fill="none" stroke="midnightblue" d="M133.21,-33.53C150.79,-29.65 169.58,-25.51 186.42,-21.8"/>
<polygon fill="midnightblue" stroke="midnightblue" points="187.62,-25.12 196.63,-19.55 186.11,-18.29 187.62,-25.12"/>
</g>
<!-- Node3 -->
<g id="node3" class="node">
<title>Node3</title>
<g id="a_node3"><a xlink:href="../../d2/d49/slope__limiter_8c.html#ae6551ab705937492c059ece48a3b2793" target="_top" xlink:title="This function apply the minmod limiter to the slope in one dimension.">
<polygon fill="white" stroke="black" points="349,-76.5 349,-95.5 444,-95.5 444,-76.5 349,-76.5"/>
<text text-anchor="middle" x="396.5" y="-83.5" font-family="Helvetica,sans-Serif" font-size="10.00">minmod_limiter</text>
</a>
</g>
</g>
<!-- Node2&#45;&gt;Node3 -->
<g id="edge2" class="edge">
<title>Node2&#45;&gt;Node3</title>
<path fill="none" stroke="midnightblue" d="M313.36,-86C321.84,-86 330.4,-86 338.64,-86"/>
<polygon fill="midnightblue" stroke="midnightblue" points="338.87,-89.5 348.87,-86 338.87,-82.5 338.87,-89.5"/>
</g>
<!-- Node4 -->
<g id="node4" class="node">
<title>Node4</title>
<g id="a_node4"><a xlink:href="../../d5/da5/tools_8h.html#a56cac3298eeead8cf22c1e61eb5a5a88" target="_top" xlink:title="Minmod limiter function of two variables.">
<polygon fill="white" stroke="black" points="480,-95.5 480,-114.5 543,-114.5 543,-95.5 480,-95.5"/>
<text text-anchor="middle" x="511.5" y="-102.5" font-family="Helvetica,sans-Serif" font-size="10.00">minmod2</text>
</a>
</g>
</g>
<!-- Node3&#45;&gt;Node4 -->
<g id="edge3" class="edge">
<title>Node3&#45;&gt;Node4</title>
<path fill="none" stroke="midnightblue" d="M444.11,-93.84C452.67,-95.28 461.54,-96.77 469.91,-98.17"/>
<polygon fill="midnightblue" stroke="midnightblue" points="469.36,-101.63 479.8,-99.84 470.52,-94.73 469.36,-101.63"/>
</g>
<!-- Node5 -->
<g id="node5" class="node">
<title>Node5</title>
<g id="a_node5"><a xlink:href="../../d5/da5/tools_8h.html#a6dfba28e1af33b47f4656d3738996fe9" target="_top" xlink:title="Minmod limiter function of three variables.">
<polygon fill="white" stroke="black" points="480,-57.5 480,-76.5 543,-76.5 543,-57.5 480,-57.5"/>
<text text-anchor="middle" x="511.5" y="-64.5" font-family="Helvetica,sans-Serif" font-size="10.00">minmod3</text>
</a>
</g>
</g>
<!-- Node3&#45;&gt;Node5 -->
<g id="edge4" class="edge">
<title>Node3&#45;&gt;Node5</title>
<path fill="none" stroke="midnightblue" d="M444.11,-78.16C452.67,-76.72 461.54,-75.23 469.91,-73.83"/>
<polygon fill="midnightblue" stroke="midnightblue" points="470.52,-77.27 479.8,-72.16 469.36,-70.37 470.52,-77.27"/>
</g>
</g>
</svg>
