<?xml version="1.0" encoding="UTF-8" standalone="no"?>
<!DOCTYPE svg PUBLIC "-//W3C//DTD SVG 1.1//EN"
 "http://www.w3.org/Graphics/SVG/1.1/DTD/svg11.dtd">
<!-- Generated by graphviz version 5.0.0 (0)
 -->
<!-- Title: src/finite_volume/Godunov_solver_EUL_source.c Pages: 1 -->
<svg width="722pt" height="106pt"
 viewBox="0.00 0.00 721.50 106.00" xmlns="http://www.w3.org/2000/svg" xmlns:xlink="http://www.w3.org/1999/xlink">
<g id="graph0" class="graph" transform="scale(1 1) rotate(0) translate(4 102)">
<title>src/finite_volume/Godunov_solver_EUL_source.c</title>
<polygon fill="white" stroke="transparent" points="-4,4 -4,-102 717.5,-102 717.5,4 -4,4"/>
<!-- Node1 -->
<g id="node1" class="node">
<title>Node1</title>
<g id="a_node1"><a xlink:title="This is an Eulerian Godunov scheme to solve 1&#45;D Euler equations.">
<polygon fill="#bfbfbf" stroke="black" points="195,-67.5 195,-97.5 343,-97.5 343,-67.5 195,-67.5"/>
<text text-anchor="start" x="203" y="-85.5" font-family="Helvetica,sans-Serif" font-size="10.00">src/finite_volume/Godunov</text>
<text text-anchor="middle" x="269" y="-74.5" font-family="Helvetica,sans-Serif" font-size="10.00">_solver_EUL_source.c</text>
</a>
</g>
</g>
<!-- Node2 -->
<g id="node2" class="node">
<title>Node2</title>
<g id="a_node2"><a xlink:title=" ">
<polygon fill="white" stroke="#bfbfbf" points="0,-6 0,-25 50,-25 50,-6 0,-6"/>
<text text-anchor="middle" x="25" y="-13" font-family="Helvetica,sans-Serif" font-size="10.00">stdio.h</text>
</a>
</g>
</g>
<!-- Node1&#45;&gt;Node2 -->
<g id="edge1" class="edge">
<title>Node1&#45;&gt;Node2</title>
<path fill="none" stroke="midnightblue" d="M197.69,-67.45C156.66,-58.6 104.39,-46.02 59,-31 57.08,-30.36 55.12,-29.67 53.15,-28.93"/>
<polygon fill="midnightblue" stroke="midnightblue" points="54.07,-25.53 43.49,-25.05 51.46,-32.02 54.07,-25.53"/>
</g>
<!-- Node3 -->
<g id="node3" class="node">
<title>Node3</title>
<g id="a_node3"><a xlink:title=" ">
<polygon fill="white" stroke="#bfbfbf" points="68.5,-6 68.5,-25 119.5,-25 119.5,-6 68.5,-6"/>
<text text-anchor="middle" x="94" y="-13" font-family="Helvetica,sans-Serif" font-size="10.00">math.h</text>
</a>
</g>
</g>
<!-- Node1&#45;&gt;Node3 -->
<g id="edge2" class="edge">
<title>Node1&#45;&gt;Node3</title>
<path fill="none" stroke="midnightblue" d="M227.73,-67.44C199.49,-57.65 161.29,-44.05 128,-31 126.4,-30.37 124.76,-29.72 123.11,-29.05"/>
<polygon fill="midnightblue" stroke="midnightblue" points="124.27,-25.74 113.7,-25.13 121.59,-32.2 124.27,-25.74"/>
</g>
<!-- Node4 -->
<g id="node4" class="node">
<title>Node4</title>
<g id="a_node4"><a xlink:title=" ">
<polygon fill="white" stroke="#bfbfbf" points="137.5,-6 137.5,-25 190.5,-25 190.5,-6 137.5,-6"/>
<text text-anchor="middle" x="164" y="-13" font-family="Helvetica,sans-Serif" font-size="10.00">stdlib.h</text>
</a>
</g>
</g>
<!-- Node1&#45;&gt;Node4 -->
<g id="edge3" class="edge">
<title>Node1&#45;&gt;Node4</title>
<path fill="none" stroke="midnightblue" d="M246.22,-67.4C228.45,-56.39 203.9,-41.2 186.26,-30.28"/>
<polygon fill="midnightblue" stroke="midnightblue" points="188.09,-27.29 177.74,-25.01 184.4,-33.25 188.09,-27.29"/>
</g>
<!-- Node5 -->
<g id="node5" class="node">
<title>Node5</title>
<g id="a_node5"><a xlink:title=" ">
<polygon fill="white" stroke="#bfbfbf" points="209,-6 209,-25 257,-25 257,-6 209,-6"/>
<text text-anchor="middle" x="233" y="-13" font-family="Helvetica,sans-Serif" font-size="10.00">time.h</text>
</a>
</g>
</g>
<!-- Node1&#45;&gt;Node5 -->
<g id="edge4" class="edge">
<title>Node1&#45;&gt;Node5</title>
<path fill="none" stroke="midnightblue" d="M261.19,-67.4C255.8,-57.66 248.59,-44.65 242.81,-34.21"/>
<polygon fill="midnightblue" stroke="midnightblue" points="245.72,-32.25 237.82,-25.19 239.6,-35.64 245.72,-32.25"/>
</g>
<!-- Node6 -->
<g id="node6" class="node">
<title>Node6</title>
<g id="a_node6"><a xlink:title=" ">
<polygon fill="white" stroke="#bfbfbf" points="275,-6 275,-25 337,-25 337,-6 275,-6"/>
<text text-anchor="middle" x="306" y="-13" font-family="Helvetica,sans-Serif" font-size="10.00">stdbool.h</text>
</a>
</g>
</g>
<!-- Node1&#45;&gt;Node6 -->
<g id="edge5" class="edge">
<title>Node1&#45;&gt;Node6</title>
<path fill="none" stroke="midnightblue" d="M277.03,-67.4C282.63,-57.56 290.13,-44.38 296.1,-33.89"/>
<polygon fill="midnightblue" stroke="midnightblue" points="299.15,-35.62 301.05,-25.19 293.06,-32.15 299.15,-35.62"/>
</g>
<!-- Node7 -->
<g id="node7" class="node">
<title>Node7</title>
<g id="a_node7"><a xlink:href="../../da/d1e/var__struc_8h.html" target="_top" xlink:title=" ">
<polygon fill="white" stroke="black" points="355,-6 355,-25 473,-25 473,-6 355,-6"/>
<text text-anchor="middle" x="414" y="-13" font-family="Helvetica,sans-Serif" font-size="10.00">../include/var_struc.h</text>
</a>
</g>
</g>
<!-- Node1&#45;&gt;Node7 -->
<g id="edge6" class="edge">
<title>Node1&#45;&gt;Node7</title>
<path fill="none" stroke="midnightblue" d="M300.46,-67.4C325.9,-55.99 361.4,-40.08 385.9,-29.1"/>
<polygon fill="midnightblue" stroke="midnightblue" points="387.33,-32.29 395.02,-25.01 384.47,-25.9 387.33,-32.29"/>
</g>
<!-- Node8 -->
<g id="node8" class="node">
<title>Node8</title>
<g id="a_node8"><a xlink:href="../../d8/d09/_riemann__solver_8h.html" target="_top" xlink:title="This file is the header file of several Riemann solvers and GRP solvers.">
<polygon fill="white" stroke="black" points="491.5,-0.5 491.5,-30.5 598.5,-30.5 598.5,-0.5 491.5,-0.5"/>
<text text-anchor="start" x="499.5" y="-18.5" font-family="Helvetica,sans-Serif" font-size="10.00">../include/Riemann</text>
<text text-anchor="middle" x="545" y="-7.5" font-family="Helvetica,sans-Serif" font-size="10.00">_solver.h</text>
</a>
</g>
</g>
<!-- Node1&#45;&gt;Node8 -->
<g id="edge7" class="edge">
<title>Node1&#45;&gt;Node8</title>
<path fill="none" stroke="midnightblue" d="M328.55,-67.48C373.58,-56.87 435.29,-42.34 481.31,-31.5"/>
<polygon fill="midnightblue" stroke="midnightblue" points="482.24,-34.88 491.17,-29.18 480.63,-28.06 482.24,-34.88"/>
</g>
<!-- Node9 -->
<g id="node9" class="node">
<title>Node9</title>
<g id="a_node9"><a xlink:href="../../d5/da5/tools_8h.html" target="_top" xlink:title="This file is the header file of several independent tool functions.">
<polygon fill="white" stroke="black" points="616.5,-6 616.5,-25 713.5,-25 713.5,-6 616.5,-6"/>
<text text-anchor="middle" x="665" y="-13" font-family="Helvetica,sans-Serif" font-size="10.00">../include/tools.h</text>
</a>
</g>
</g>
<!-- Node1&#45;&gt;Node9 -->
<g id="edge8" class="edge">
<title>Node1&#45;&gt;Node9</title>
<path fill="none" stroke="midnightblue" d="M343.11,-72.66C412.04,-63.91 517.43,-49.22 608,-31 613.12,-29.97 618.48,-28.77 623.76,-27.51"/>
<polygon fill="midnightblue" stroke="midnightblue" points="624.9,-30.84 633.77,-25.05 623.22,-24.04 624.9,-30.84"/>
</g>
</g>
</svg>
