<?xml version="1.0" encoding="UTF-8" standalone="no"?>
<!DOCTYPE svg PUBLIC "-//W3C//DTD SVG 1.1//EN"
 "http://www.w3.org/Graphics/SVG/1.1/DTD/svg11.dtd">
<!-- Generated by graphviz version 5.0.0 (0)
 -->
<!-- Title: Riemann_solver_exact Pages: 1 -->
<svg width="518pt" height="85pt"
 viewBox="0.00 0.00 518.00 85.00" xmlns="http://www.w3.org/2000/svg" xmlns:xlink="http://www.w3.org/1999/xlink">
<g id="graph0" class="graph" transform="scale(1 1) rotate(0) translate(4 81)">
<title>Riemann_solver_exact</title>
<polygon fill="white" stroke="transparent" points="-4,4 -4,-81 514,-81 514,4 -4,4"/>
<!-- Node1 -->
<g id="node1" class="node">
<title>Node1</title>
<g id="a_node1"><a xlink:title="EXACT RIEMANN SOLVER FOR Two&#45;Component γ&#45;Law Gas">
<polygon fill="#bfbfbf" stroke="black" points="382,-38.5 382,-57.5 510,-57.5 510,-38.5 382,-38.5"/>
<text text-anchor="middle" x="446" y="-45.5" font-family="Helvetica,sans-Serif" font-size="10.00">Riemann_solver_exact</text>
</a>
</g>
</g>
<!-- Node2 -->
<g id="node2" class="node">
<title>Node2</title>
<g id="a_node2"><a xlink:href="../../d3/da7/linear___g_r_p__solver___edir___g2_d_8c.html#aff686a52210d82c346d2537c0c704ef3" target="_top" xlink:title="A Genuinely&#45;2D direct Eulerian GRP solver for unsteady compressible inviscid two&#45;component flow in tw...">
<polygon fill="white" stroke="black" points="0,-57.5 0,-76.5 155,-76.5 155,-57.5 0,-57.5"/>
<text text-anchor="middle" x="77.5" y="-64.5" font-family="Helvetica,sans-Serif" font-size="10.00">linear_GRP_solver_Edir_G2D</text>
</a>
</g>
</g>
<!-- Node1&#45;&gt;Node2 -->
<g id="edge1" class="edge">
<title>Node1&#45;&gt;Node2</title>
<path fill="none" stroke="midnightblue" d="M394.84,-59.54C379.28,-62.6 362.01,-65.48 346,-67 281.85,-73.1 208.66,-72.59 155.07,-70.84"/>
<polygon fill="midnightblue" stroke="midnightblue" points="395.69,-62.94 404.79,-57.51 394.29,-56.08 395.69,-62.94"/>
</g>
<!-- Node3 -->
<g id="node3" class="node">
<title>Node3</title>
<g id="a_node3"><a xlink:href="../../d5/dea/linear___g_r_p__solver___edir___q1_d_8c.html#a2d9faf2079b8b005ff0154c65f8d41f2" target="_top" xlink:title="A Quasi&#45;1D direct Eulerian GRP solver for unsteady compressible inviscid two&#45;component flow in two sp...">
<polygon fill="white" stroke="black" points="191,-38.5 191,-57.5 346,-57.5 346,-38.5 191,-38.5"/>
<text text-anchor="middle" x="268.5" y="-45.5" font-family="Helvetica,sans-Serif" font-size="10.00">linear_GRP_solver_Edir_Q1D</text>
</a>
</g>
</g>
<!-- Node1&#45;&gt;Node3 -->
<g id="edge2" class="edge">
<title>Node1&#45;&gt;Node3</title>
<path fill="none" stroke="midnightblue" d="M371.55,-48C363.18,-48 354.64,-48 346.24,-48"/>
<polygon fill="midnightblue" stroke="midnightblue" points="371.64,-51.5 381.64,-48 371.64,-44.5 371.64,-51.5"/>
</g>
<!-- Node4 -->
<g id="node4" class="node">
<title>Node4</title>
<g id="a_node4"><a xlink:href="../../de/d81/linear___g_r_p__solver___l_a_g_8c.html#a6567802e291121380cc9765c6f46a1fb" target="_top" xlink:title="A Lagrangian GRP solver for unsteady compressible inviscid two&#45;component flow in one space dimension.">
<polygon fill="white" stroke="black" points="203,-0.5 203,-19.5 334,-19.5 334,-0.5 203,-0.5"/>
<text text-anchor="middle" x="268.5" y="-7.5" font-family="Helvetica,sans-Serif" font-size="10.00">linear_GRP_solver_LAG</text>
</a>
</g>
</g>
<!-- Node1&#45;&gt;Node4 -->
<g id="edge4" class="edge">
<title>Node1&#45;&gt;Node4</title>
<path fill="none" stroke="midnightblue" d="M390.72,-36.25C365.91,-30.87 336.89,-24.59 313.47,-19.52"/>
<polygon fill="midnightblue" stroke="midnightblue" points="390.2,-39.72 400.71,-38.41 391.68,-32.87 390.2,-39.72"/>
</g>
<!-- Node3&#45;&gt;Node2 -->
<g id="edge3" class="edge">
<title>Node3&#45;&gt;Node2</title>
<path fill="none" stroke="midnightblue" d="M180.9,-56.71C172.33,-57.57 163.67,-58.44 155.21,-59.29"/>
<polygon fill="midnightblue" stroke="midnightblue" points="181.3,-60.18 190.9,-55.7 180.6,-53.22 181.3,-60.18"/>
</g>
<!-- Node5 -->
<g id="node5" class="node">
<title>Node5</title>
<g id="a_node5"><a xlink:href="../../dd/dd7/_g_r_p__solver___l_a_g__source_8c.html#a803248d0d521f8306a2850012b6d994c" target="_top" xlink:title="This function use GRP scheme to solve 1&#45;D Euler equations of motion on Lagrangian coordinate.">
<polygon fill="white" stroke="black" points="10,-0.5 10,-19.5 145,-19.5 145,-0.5 10,-0.5"/>
<text text-anchor="middle" x="77.5" y="-7.5" font-family="Helvetica,sans-Serif" font-size="10.00">GRP_solver_LAG_source</text>
</a>
</g>
</g>
<!-- Node4&#45;&gt;Node5 -->
<g id="edge5" class="edge">
<title>Node4&#45;&gt;Node5</title>
<path fill="none" stroke="midnightblue" d="M192.81,-10C177.12,-10 160.67,-10 145.3,-10"/>
<polygon fill="midnightblue" stroke="midnightblue" points="192.99,-13.5 202.99,-10 192.99,-6.5 192.99,-13.5"/>
</g>
</g>
</svg>
