<?xml version="1.0" encoding="UTF-8" standalone="no"?>
<!DOCTYPE svg PUBLIC "-//W3C//DTD SVG 1.1//EN"
 "http://www.w3.org/Graphics/SVG/1.1/DTD/svg11.dtd">
<!-- Generated by graphviz version 5.0.0 (0)
 -->
<!-- Title: /run/media/leixin/软件盘/雷昕整理后的重要文件/程序/My&#45;CFD/HydroCODE/src/Riemann_solver/linear_GRP_solver_Edir_G2D.c Pages: 1 -->
<svg width="291pt" height="195pt"
 viewBox="0.00 0.00 291.00 195.00" xmlns="http://www.w3.org/2000/svg" xmlns:xlink="http://www.w3.org/1999/xlink">
<g id="graph0" class="graph" transform="scale(1 1) rotate(0) translate(4 191)">
<title>/run/media/leixin/软件盘/雷昕整理后的重要文件/程序/My&#45;CFD/HydroCODE/src/Riemann_solver/linear_GRP_solver_Edir_G2D.c</title>
<polygon fill="white" stroke="transparent" points="-4,4 -4,-191 287,-191 287,4 -4,4"/>
<!-- Node1 -->
<g id="node1" class="node">
<title>Node1</title>
<g id="a_node1"><a xlink:title="This is a Genuinely&#45;2D direct Eulerian GRP solver for compressible inviscid flow in Li&#39;s paper.">
<polygon fill="#bfbfbf" stroke="black" points="25.5,-123.5 25.5,-186.5 215.5,-186.5 215.5,-123.5 25.5,-123.5"/>
<text text-anchor="start" x="33.5" y="-174.5" font-family="Helvetica,sans-Serif" font-size="10.00">/run/media/leixin/软件盘</text>
<text text-anchor="start" x="33.5" y="-163.5" font-family="Helvetica,sans-Serif" font-size="10.00">/雷昕整理后的重要文件</text>
<text text-anchor="start" x="33.5" y="-152.5" font-family="Helvetica,sans-Serif" font-size="10.00">/程序/My&#45;CFD/HydroCODE/src</text>
<text text-anchor="start" x="33.5" y="-141.5" font-family="Helvetica,sans-Serif" font-size="10.00">/Riemann_solver/linear_GRP_solver</text>
<text text-anchor="middle" x="120.5" y="-130.5" font-family="Helvetica,sans-Serif" font-size="10.00">_Edir_G2D.c</text>
</a>
</g>
</g>
<!-- Node2 -->
<g id="node2" class="node">
<title>Node2</title>
<g id="a_node2"><a xlink:title=" ">
<polygon fill="white" stroke="#bfbfbf" points="0,-62 0,-81 51,-81 51,-62 0,-62"/>
<text text-anchor="middle" x="25.5" y="-69" font-family="Helvetica,sans-Serif" font-size="10.00">math.h</text>
</a>
</g>
</g>
<!-- Node1&#45;&gt;Node2 -->
<g id="edge1" class="edge">
<title>Node1&#45;&gt;Node2</title>
<path fill="none" stroke="midnightblue" d="M84.86,-123.42C70.62,-111.21 54.87,-97.69 43.17,-87.66"/>
<polygon fill="midnightblue" stroke="midnightblue" points="45.32,-84.89 35.45,-81.03 40.76,-90.2 45.32,-84.89"/>
</g>
<!-- Node3 -->
<g id="node3" class="node">
<title>Node3</title>
<g id="a_node3"><a xlink:title=" ">
<polygon fill="white" stroke="#bfbfbf" points="69.5,-62 69.5,-81 119.5,-81 119.5,-62 69.5,-62"/>
<text text-anchor="middle" x="94.5" y="-69" font-family="Helvetica,sans-Serif" font-size="10.00">stdio.h</text>
</a>
</g>
</g>
<!-- Node1&#45;&gt;Node3 -->
<g id="edge2" class="edge">
<title>Node1&#45;&gt;Node3</title>
<path fill="none" stroke="midnightblue" d="M110.67,-123.19C107.2,-112.31 103.41,-100.44 100.37,-90.91"/>
<polygon fill="midnightblue" stroke="midnightblue" points="103.69,-89.8 97.32,-81.34 97.03,-91.93 103.69,-89.8"/>
</g>
<!-- Node4 -->
<g id="node4" class="node">
<title>Node4</title>
<g id="a_node4"><a xlink:href="../../da/d1e/var__struc_8h.html" target="_top" xlink:title="This file is the header file of some globally common variables and structural bodies.">
<polygon fill="white" stroke="black" points="129.5,-0.5 129.5,-19.5 247.5,-19.5 247.5,-0.5 129.5,-0.5"/>
<text text-anchor="middle" x="188.5" y="-7.5" font-family="Helvetica,sans-Serif" font-size="10.00">../include/var_struc.h</text>
</a>
</g>
</g>
<!-- Node1&#45;&gt;Node4 -->
<g id="edge3" class="edge">
<title>Node1&#45;&gt;Node4</title>
<path fill="none" stroke="midnightblue" d="M135.09,-123.32C148.75,-94.58 168.71,-52.61 179.96,-28.96"/>
<polygon fill="midnightblue" stroke="midnightblue" points="183.2,-30.29 184.34,-19.76 176.88,-27.29 183.2,-30.29"/>
</g>
<!-- Node5 -->
<g id="node5" class="node">
<title>Node5</title>
<g id="a_node5"><a xlink:href="../../d8/d09/_riemann__solver_8h.html" target="_top" xlink:title="This file is the header file of several Riemann solvers and GRP solvers.">
<polygon fill="white" stroke="black" points="176,-56.5 176,-86.5 283,-86.5 283,-56.5 176,-56.5"/>
<text text-anchor="start" x="184" y="-74.5" font-family="Helvetica,sans-Serif" font-size="10.00">../include/Riemann</text>
<text text-anchor="middle" x="229.5" y="-63.5" font-family="Helvetica,sans-Serif" font-size="10.00">_solver.h</text>
</a>
</g>
</g>
<!-- Node1&#45;&gt;Node5 -->
<g id="edge4" class="edge">
<title>Node1&#45;&gt;Node5</title>
<path fill="none" stroke="midnightblue" d="M161.4,-123.42C175.14,-113.14 190.12,-101.95 202.52,-92.68"/>
<polygon fill="midnightblue" stroke="midnightblue" points="204.73,-95.39 210.64,-86.6 200.54,-89.79 204.73,-95.39"/>
</g>
<!-- Node5&#45;&gt;Node4 -->
<g id="edge5" class="edge">
<title>Node5&#45;&gt;Node4</title>
<path fill="none" stroke="midnightblue" d="M219.78,-56.4C213.95,-47.93 206.48,-37.1 200.31,-28.14"/>
<polygon fill="midnightblue" stroke="midnightblue" points="203.02,-25.91 194.47,-19.66 197.26,-29.88 203.02,-25.91"/>
</g>
</g>
</svg>
