<?xml version="1.0" encoding="UTF-8" standalone="no"?>
<!DOCTYPE svg PUBLIC "-//W3C//DTD SVG 1.1//EN"
 "http://www.w3.org/Graphics/SVG/1.1/DTD/svg11.dtd">
<!-- Generated by graphviz version 6.0.1 (0)
 -->
<!-- Title: Except_Frame Pages: 1 -->
<svg width="137pt" height="95pt"
 viewBox="0.00 0.00 137.00 95.00" xmlns="http://www.w3.org/2000/svg" xmlns:xlink="http://www.w3.org/1999/xlink">
<g id="graph0" class="graph" transform="scale(1 1) rotate(0) translate(4 91)">
<title>Except_Frame</title>
<polygon fill="white" stroke="none" points="-4,4 -4,-91 133,-91 133,4 -4,4"/>
<!-- Node1 -->
<g id="node1" class="node">
<title>Node1</title>
<g id="a_node1"><a xlink:title=" ">
<polygon fill="#bfbfbf" stroke="black" points="0,-0.5 0,-19.5 86,-19.5 86,-0.5 0,-0.5"/>
<text text-anchor="middle" x="43" y="-7.5" font-family="Helvetica,sans-Serif" font-size="10.00">Except_Frame</text>
</a>
</g>
</g>
<!-- Node1&#45;&gt;Node1 -->
<g id="edge1" class="edge">
<title>Node1&#45;&gt;Node1</title>
<path fill="none" stroke="#9a32cd" stroke-dasharray="5,2" d="M96.25,-14.96C101.01,-13.92 104,-12.27 104,-10 104,-6.37 96.35,-4.31 86.04,-3.83"/>
<polygon fill="#9a32cd" stroke="#9a32cd" points="95.56,-11.52 86.04,-16.17 96.38,-18.47 95.56,-11.52"/>
<text text-anchor="middle" x="116.5" y="-7.5" font-family="Helvetica,sans-Serif" font-size="10.00"> prev</text>
</g>
<!-- Node2 -->
<g id="node2" class="node">
<title>Node2</title>
<g id="a_node2"><a xlink:href="../../d5/d7e/struct_t.html" target="_top" xlink:title=" ">
<polygon fill="white" stroke="black" points="28.5,-67.5 28.5,-86.5 57.5,-86.5 57.5,-67.5 28.5,-67.5"/>
<text text-anchor="middle" x="43" y="-74.5" font-family="Helvetica,sans-Serif" font-size="10.00">T</text>
</a>
</g>
</g>
<!-- Node2&#45;&gt;Node1 -->
<g id="edge2" class="edge">
<title>Node2&#45;&gt;Node1</title>
<path fill="none" stroke="#9a32cd" stroke-dasharray="5,2" d="M43,-57.04C43,-44.67 43,-29.12 43,-19.63"/>
<polygon fill="#9a32cd" stroke="#9a32cd" points="39.5,-57.23 43,-67.23 46.5,-57.23 39.5,-57.23"/>
<text text-anchor="middle" x="69" y="-41" font-family="Helvetica,sans-Serif" font-size="10.00"> exception</text>
</g>
</g>
</svg>
