<?xml version="1.0" encoding="UTF-8" standalone="no"?>
<!DOCTYPE svg PUBLIC "-//W3C//DTD SVG 1.1//EN"
 "http://www.w3.org/Graphics/SVG/1.1/DTD/svg11.dtd">
<!-- Generated by graphviz version 5.0.0 (0)
 -->
<!-- Title: /home/leixin/Programs/HydroCODE/src/include/var_struc.h Pages: 1 -->
<svg width="3042pt" height="228pt"
 viewBox="0.00 0.00 3042.00 228.00" xmlns="http://www.w3.org/2000/svg" xmlns:xlink="http://www.w3.org/1999/xlink">
<g id="graph0" class="graph" transform="scale(1 1) rotate(0) translate(4 224)">
<title>/home/leixin/Programs/HydroCODE/src/include/var_struc.h</title>
<polygon fill="white" stroke="transparent" points="-4,4 -4,-224 3038,-224 3038,4 -4,4"/>
<!-- Node1 -->
<g id="node1" class="node">
<title>Node1</title>
<g id="a_node1"><a xlink:title="This file is the header file of some globally common variables and structural bodies.">
<polygon fill="#bfbfbf" stroke="black" points="1543,-178.5 1543,-219.5 1675,-219.5 1675,-178.5 1543,-178.5"/>
<text text-anchor="start" x="1551" y="-207.5" font-family="Helvetica,sans-Serif" font-size="10.00">/home/leixin/Programs</text>
<text text-anchor="start" x="1551" y="-196.5" font-family="Helvetica,sans-Serif" font-size="10.00">/HydroCODE/src/include</text>
<text text-anchor="middle" x="1609" y="-185.5" font-family="Helvetica,sans-Serif" font-size="10.00">/var_struc.h</text>
</a>
</g>
</g>
<!-- Node2 -->
<g id="node2" class="node">
<title>Node2</title>
<g id="a_node2"><a xlink:href="../../dc/d70/linear___g_r_p__solver___edir_8c.html" target="_top" xlink:title="This is a direct Eulerian GRP solver for compressible inviscid flow in Li&#39;s paper.">
<polygon fill="white" stroke="black" points="0,-6 0,-47 176,-47 176,-6 0,-6"/>
<text text-anchor="start" x="8" y="-35" font-family="Helvetica,sans-Serif" font-size="10.00">/home/leixin/Programs</text>
<text text-anchor="start" x="8" y="-24" font-family="Helvetica,sans-Serif" font-size="10.00">/HydroCODE/src/Riemann</text>
<text text-anchor="middle" x="88" y="-13" font-family="Helvetica,sans-Serif" font-size="10.00">_solver/linear_GRP_solver_Edir.c</text>
</a>
</g>
</g>
<!-- Node1&#45;&gt;Node2 -->
<g id="edge1" class="edge">
<title>Node1&#45;&gt;Node2</title>
<path fill="none" stroke="midnightblue" d="M1532.87,-196.62C1272.74,-191.63 428.81,-173.18 311,-142 235.9,-122.12 157.11,-74.3 116.29,-47.16"/>
<polygon fill="midnightblue" stroke="midnightblue" points="1532.91,-200.12 1542.98,-196.81 1533.04,-193.12 1532.91,-200.12"/>
</g>
<!-- Node3 -->
<g id="node3" class="node">
<title>Node3</title>
<g id="a_node3"><a xlink:href="../../d3/da7/linear___g_r_p__solver___edir___g2_d_8c.html" target="_top" xlink:title="This is a Genuinely&#45;2D direct Eulerian GRP solver for compressible inviscid flow in Li&#39;s paper.">
<polygon fill="white" stroke="black" points="194.5,-0.5 194.5,-52.5 337.5,-52.5 337.5,-0.5 194.5,-0.5"/>
<text text-anchor="start" x="202.5" y="-40.5" font-family="Helvetica,sans-Serif" font-size="10.00">/home/leixin/Programs</text>
<text text-anchor="start" x="202.5" y="-29.5" font-family="Helvetica,sans-Serif" font-size="10.00">/HydroCODE/src/Riemann</text>
<text text-anchor="start" x="202.5" y="-18.5" font-family="Helvetica,sans-Serif" font-size="10.00">_solver/linear_GRP_solver</text>
<text text-anchor="middle" x="266" y="-7.5" font-family="Helvetica,sans-Serif" font-size="10.00">_Edir_G2D.c</text>
</a>
</g>
</g>
<!-- Node1&#45;&gt;Node3 -->
<g id="edge2" class="edge">
<title>Node1&#45;&gt;Node3</title>
<path fill="none" stroke="midnightblue" d="M1532.73,-197.58C1281.81,-195.79 492.01,-186.62 387,-142 342.55,-123.11 304.6,-80.14 283.59,-52.55"/>
<polygon fill="midnightblue" stroke="midnightblue" points="1532.82,-201.08 1542.85,-197.65 1532.87,-194.08 1532.82,-201.08"/>
</g>
<!-- Node4 -->
<g id="node4" class="node">
<title>Node4</title>
<g id="a_node4"><a xlink:href="../../d5/dea/linear___g_r_p__solver___edir___q1_d_8c.html" target="_top" xlink:title="This is a Quasi&#45;1D direct Eulerian GRP solver for compressible inviscid flow in Li&#39;s paper.">
<polygon fill="white" stroke="black" points="355.5,-0.5 355.5,-52.5 498.5,-52.5 498.5,-0.5 355.5,-0.5"/>
<text text-anchor="start" x="363.5" y="-40.5" font-family="Helvetica,sans-Serif" font-size="10.00">/home/leixin/Programs</text>
<text text-anchor="start" x="363.5" y="-29.5" font-family="Helvetica,sans-Serif" font-size="10.00">/HydroCODE/src/Riemann</text>
<text text-anchor="start" x="363.5" y="-18.5" font-family="Helvetica,sans-Serif" font-size="10.00">_solver/linear_GRP_solver</text>
<text text-anchor="middle" x="427" y="-7.5" font-family="Helvetica,sans-Serif" font-size="10.00">_Edir_Q1D.c</text>
</a>
</g>
</g>
<!-- Node1&#45;&gt;Node4 -->
<g id="edge3" class="edge">
<title>Node1&#45;&gt;Node4</title>
<path fill="none" stroke="midnightblue" d="M1532.63,-197.33C1273.42,-194.67 441.11,-182.97 402,-142 379.24,-118.16 395.3,-78.64 410.16,-52.83"/>
<polygon fill="midnightblue" stroke="midnightblue" points="1532.68,-200.83 1542.71,-197.43 1532.75,-193.83 1532.68,-200.83"/>
</g>
<!-- Node5 -->
<g id="node5" class="node">
<title>Node5</title>
<g id="a_node5"><a xlink:href="../../de/d81/linear___g_r_p__solver___l_a_g_8c.html" target="_top" xlink:title="This is a Lagrangian GRP solver for compressible inviscid flow in Ben&#45;Artzi&#39;s paper.">
<polygon fill="white" stroke="black" points="516.5,-6 516.5,-47 693.5,-47 693.5,-6 516.5,-6"/>
<text text-anchor="start" x="524.5" y="-35" font-family="Helvetica,sans-Serif" font-size="10.00">/home/leixin/Programs</text>
<text text-anchor="start" x="524.5" y="-24" font-family="Helvetica,sans-Serif" font-size="10.00">/HydroCODE/src/Riemann</text>
<text text-anchor="middle" x="605" y="-13" font-family="Helvetica,sans-Serif" font-size="10.00">_solver/linear_GRP_solver_LAG.c</text>
</a>
</g>
</g>
<!-- Node1&#45;&gt;Node5 -->
<g id="edge4" class="edge">
<title>Node1&#45;&gt;Node5</title>
<path fill="none" stroke="midnightblue" d="M1532.32,-197.28C1274.9,-194.47 455.55,-182.4 417,-142 400.74,-124.96 403.17,-108.07 417,-89 424.21,-79.06 482.02,-61.04 531.66,-47.06"/>
<polygon fill="midnightblue" stroke="midnightblue" points="1532.66,-200.78 1542.7,-197.39 1532.73,-193.78 1532.66,-200.78"/>
</g>
<!-- Node6 -->
<g id="node6" class="node">
<title>Node6</title>
<g id="a_node6"><a xlink:href="../../dd/d92/__1_d__file__in_8c.html" target="_top" xlink:title="This is a set of functions which control the read&#45;in of one&#45;dimensional data.">
<polygon fill="white" stroke="black" points="426.5,-95 426.5,-136 553.5,-136 553.5,-95 426.5,-95"/>
<text text-anchor="start" x="434.5" y="-124" font-family="Helvetica,sans-Serif" font-size="10.00">/home/leixin/Programs</text>
<text text-anchor="start" x="434.5" y="-113" font-family="Helvetica,sans-Serif" font-size="10.00">/HydroCODE/src/file_io</text>
<text text-anchor="middle" x="490" y="-102" font-family="Helvetica,sans-Serif" font-size="10.00">/_1D_file_in.c</text>
</a>
</g>
</g>
<!-- Node1&#45;&gt;Node6 -->
<g id="edge5" class="edge">
<title>Node1&#45;&gt;Node6</title>
<path fill="none" stroke="midnightblue" d="M1532.66,-196.75C1324.1,-192.89 747.86,-179.08 562,-142 554.59,-140.52 546.91,-138.44 539.44,-136.09"/>
<polygon fill="midnightblue" stroke="midnightblue" points="1532.85,-200.26 1542.91,-196.94 1532.97,-193.26 1532.85,-200.26"/>
</g>
<!-- Node7 -->
<g id="node7" class="node">
<title>Node7</title>
<g id="a_node7"><a xlink:href="../../db/db6/__1_d__file__out_8c.html" target="_top" xlink:title="This is a set of functions which control the readout of one&#45;dimensional data.">
<polygon fill="white" stroke="black" points="571.5,-95 571.5,-136 698.5,-136 698.5,-95 571.5,-95"/>
<text text-anchor="start" x="579.5" y="-124" font-family="Helvetica,sans-Serif" font-size="10.00">/home/leixin/Programs</text>
<text text-anchor="start" x="579.5" y="-113" font-family="Helvetica,sans-Serif" font-size="10.00">/HydroCODE/src/file_io</text>
<text text-anchor="middle" x="635" y="-102" font-family="Helvetica,sans-Serif" font-size="10.00">/_1D_file_out.c</text>
</a>
</g>
</g>
<!-- Node1&#45;&gt;Node7 -->
<g id="edge6" class="edge">
<title>Node1&#45;&gt;Node7</title>
<path fill="none" stroke="midnightblue" d="M1532.89,-195.99C1345.2,-190.61 864.09,-174.04 707,-142 699.59,-140.49 691.92,-138.39 684.46,-136.03"/>
<polygon fill="midnightblue" stroke="midnightblue" points="1532.85,-199.49 1542.95,-196.28 1533.05,-192.5 1532.85,-199.49"/>
</g>
<!-- Node8 -->
<g id="node8" class="node">
<title>Node8</title>
<g id="a_node8"><a xlink:href="../../d4/d75/__2_d__file__in_8c.html" target="_top" xlink:title="This is a set of functions which control the read&#45;in of two&#45;dimensional data.">
<polygon fill="white" stroke="black" points="716.5,-95 716.5,-136 843.5,-136 843.5,-95 716.5,-95"/>
<text text-anchor="start" x="724.5" y="-124" font-family="Helvetica,sans-Serif" font-size="10.00">/home/leixin/Programs</text>
<text text-anchor="start" x="724.5" y="-113" font-family="Helvetica,sans-Serif" font-size="10.00">/HydroCODE/src/file_io</text>
<text text-anchor="middle" x="780" y="-102" font-family="Helvetica,sans-Serif" font-size="10.00">/_2D_file_in.c</text>
</a>
</g>
</g>
<!-- Node1&#45;&gt;Node8 -->
<g id="edge7" class="edge">
<title>Node1&#45;&gt;Node8</title>
<path fill="none" stroke="midnightblue" d="M1532.72,-194.94C1367.36,-187.88 980.45,-168.99 852,-142 844.73,-140.47 837.2,-138.39 829.86,-136.08"/>
<polygon fill="midnightblue" stroke="midnightblue" points="1532.67,-198.44 1542.81,-195.37 1532.97,-191.45 1532.67,-198.44"/>
</g>
<!-- Node9 -->
<g id="node9" class="node">
<title>Node9</title>
<g id="a_node9"><a xlink:href="../../d8/d32/__2_d__file__out_8c.html" target="_top" xlink:title="This is a set of functions which control the readout of two&#45;dimensional data.">
<polygon fill="white" stroke="black" points="861.5,-95 861.5,-136 988.5,-136 988.5,-95 861.5,-95"/>
<text text-anchor="start" x="869.5" y="-124" font-family="Helvetica,sans-Serif" font-size="10.00">/home/leixin/Programs</text>
<text text-anchor="start" x="869.5" y="-113" font-family="Helvetica,sans-Serif" font-size="10.00">/HydroCODE/src/file_io</text>
<text text-anchor="middle" x="925" y="-102" font-family="Helvetica,sans-Serif" font-size="10.00">/_2D_file_out.c</text>
</a>
</g>
</g>
<!-- Node1&#45;&gt;Node9 -->
<g id="edge8" class="edge">
<title>Node1&#45;&gt;Node9</title>
<path fill="none" stroke="midnightblue" d="M1532.71,-197.09C1416,-194.35 1186.69,-183.58 997,-142 989.88,-140.44 982.49,-138.37 975.28,-136.09"/>
<polygon fill="midnightblue" stroke="midnightblue" points="1532.89,-200.6 1542.97,-197.32 1533.05,-193.6 1532.89,-200.6"/>
</g>
<!-- Node10 -->
<g id="node10" class="node">
<title>Node10</title>
<g id="a_node10"><a xlink:href="../../d2/de0/config__handle_8c.html" target="_top" xlink:title="This is a set of functions which control the read&#45;in of configuration data.">
<polygon fill="white" stroke="black" points="1006.5,-95 1006.5,-136 1133.5,-136 1133.5,-95 1006.5,-95"/>
<text text-anchor="start" x="1014.5" y="-124" font-family="Helvetica,sans-Serif" font-size="10.00">/home/leixin/Programs</text>
<text text-anchor="start" x="1014.5" y="-113" font-family="Helvetica,sans-Serif" font-size="10.00">/HydroCODE/src/file_io</text>
<text text-anchor="middle" x="1070" y="-102" font-family="Helvetica,sans-Serif" font-size="10.00">/config_handle.c</text>
</a>
</g>
</g>
<!-- Node1&#45;&gt;Node10 -->
<g id="edge9" class="edge">
<title>Node1&#45;&gt;Node10</title>
<path fill="none" stroke="midnightblue" d="M1532.66,-194.03C1439.44,-188.01 1277.46,-173.7 1142,-142 1135.03,-140.37 1127.79,-138.29 1120.72,-136.03"/>
<polygon fill="midnightblue" stroke="midnightblue" points="1532.65,-197.54 1542.85,-194.68 1533.09,-190.55 1532.65,-197.54"/>
</g>
<!-- Node11 -->
<g id="node11" class="node">
<title>Node11</title>
<g id="a_node11"><a xlink:href="../../d4/de5/io__control_8c.html" target="_top" xlink:title="This is a set of common functions which control the input/output data.">
<polygon fill="white" stroke="black" points="1151.5,-95 1151.5,-136 1278.5,-136 1278.5,-95 1151.5,-95"/>
<text text-anchor="start" x="1159.5" y="-124" font-family="Helvetica,sans-Serif" font-size="10.00">/home/leixin/Programs</text>
<text text-anchor="start" x="1159.5" y="-113" font-family="Helvetica,sans-Serif" font-size="10.00">/HydroCODE/src/file_io</text>
<text text-anchor="middle" x="1215" y="-102" font-family="Helvetica,sans-Serif" font-size="10.00">/io_control.c</text>
</a>
</g>
</g>
<!-- Node1&#45;&gt;Node11 -->
<g id="edge10" class="edge">
<title>Node1&#45;&gt;Node11</title>
<path fill="none" stroke="midnightblue" d="M1532.69,-187.55C1468.29,-178 1373.92,-162.29 1293,-142 1286.09,-140.27 1278.9,-138.24 1271.81,-136.1"/>
<polygon fill="midnightblue" stroke="midnightblue" points="1532.36,-191.04 1542.76,-189.03 1533.38,-184.12 1532.36,-191.04"/>
</g>
<!-- Node12 -->
<g id="node12" class="node">
<title>Node12</title>
<g id="a_node12"><a xlink:href="../../d6/d0f/_g_r_p__solver__2_d___e_u_l__source_8c.html" target="_top" xlink:title="This is an Eulerian GRP scheme to solve 2&#45;D Euler equations without dimension splitting.">
<polygon fill="white" stroke="black" points="1978,-0.5 1978,-52.5 2114,-52.5 2114,-0.5 1978,-0.5"/>
<text text-anchor="start" x="1986" y="-40.5" font-family="Helvetica,sans-Serif" font-size="10.00">/home/leixin/Programs</text>
<text text-anchor="start" x="1986" y="-29.5" font-family="Helvetica,sans-Serif" font-size="10.00">/HydroCODE/src/finite</text>
<text text-anchor="start" x="1986" y="-18.5" font-family="Helvetica,sans-Serif" font-size="10.00">_volume/GRP_solver_2D</text>
<text text-anchor="middle" x="2046" y="-7.5" font-family="Helvetica,sans-Serif" font-size="10.00">_EUL_source.c</text>
</a>
</g>
</g>
<!-- Node1&#45;&gt;Node12 -->
<g id="edge11" class="edge">
<title>Node1&#45;&gt;Node12</title>
<path fill="none" stroke="midnightblue" d="M1685.27,-195.33C1742.95,-190.36 1822.31,-177.03 1883,-142 1910.27,-126.26 1905.25,-108.46 1930,-89 1947.83,-74.98 1969.32,-62.57 1988.94,-52.63"/>
<polygon fill="midnightblue" stroke="midnightblue" points="1684.82,-191.85 1675.13,-196.13 1685.37,-198.83 1684.82,-191.85"/>
</g>
<!-- Node13 -->
<g id="node13" class="node">
<title>Node13</title>
<g id="a_node13"><a xlink:href="../../dc/d9e/_g_r_p__solver__2_d__split___e_u_l__source_8c.html" target="_top" xlink:title="This is an Eulerian GRP scheme to solve 2&#45;D Euler equations with dimension splitting.">
<polygon fill="white" stroke="black" points="1824,-0.5 1824,-52.5 1960,-52.5 1960,-0.5 1824,-0.5"/>
<text text-anchor="start" x="1832" y="-40.5" font-family="Helvetica,sans-Serif" font-size="10.00">/home/leixin/Programs</text>
<text text-anchor="start" x="1832" y="-29.5" font-family="Helvetica,sans-Serif" font-size="10.00">/HydroCODE/src/finite</text>
<text text-anchor="start" x="1832" y="-18.5" font-family="Helvetica,sans-Serif" font-size="10.00">_volume/GRP_solver_2D</text>
<text text-anchor="middle" x="1892" y="-7.5" font-family="Helvetica,sans-Serif" font-size="10.00">_split_EUL_source.c</text>
</a>
</g>
</g>
<!-- Node1&#45;&gt;Node13 -->
<g id="edge12" class="edge">
<title>Node1&#45;&gt;Node13</title>
<path fill="none" stroke="midnightblue" d="M1685.25,-188.83C1747.65,-179.87 1829.45,-164.3 1854,-142 1879.27,-119.04 1887.76,-78.9 1890.6,-52.76"/>
<polygon fill="midnightblue" stroke="midnightblue" points="1684.44,-185.41 1675.03,-190.27 1685.42,-192.34 1684.44,-185.41"/>
</g>
<!-- Node14 -->
<g id="node14" class="node">
<title>Node14</title>
<g id="a_node14"><a xlink:href="../../de/de8/_g_r_p__solver___a_l_e__source_8c.html" target="_top" xlink:title="This is an ALE GRP scheme to solve 1&#45;D Euler equations.">
<polygon fill="white" stroke="black" points="1030,-0.5 1030,-52.5 1170,-52.5 1170,-0.5 1030,-0.5"/>
<text text-anchor="start" x="1038" y="-40.5" font-family="Helvetica,sans-Serif" font-size="10.00">/home/leixin/Programs</text>
<text text-anchor="start" x="1038" y="-29.5" font-family="Helvetica,sans-Serif" font-size="10.00">/HydroCODE/src/finite</text>
<text text-anchor="start" x="1038" y="-18.5" font-family="Helvetica,sans-Serif" font-size="10.00">_volume/GRP_solver_ALE</text>
<text text-anchor="middle" x="1100" y="-7.5" font-family="Helvetica,sans-Serif" font-size="10.00">_source.c</text>
</a>
</g>
</g>
<!-- Node1&#45;&gt;Node14 -->
<g id="edge13" class="edge">
<title>Node1&#45;&gt;Node14</title>
<path fill="none" stroke="midnightblue" d="M1576.42,-171.64C1566.41,-162.76 1555.74,-152.45 1547,-142 1529.2,-120.72 1537.5,-103.75 1514,-89 1450.58,-49.2 1252.23,-68.58 1179,-53 1176.04,-52.37 1173.03,-51.67 1170.01,-50.92"/>
<polygon fill="midnightblue" stroke="midnightblue" points="1574.4,-174.53 1584.25,-178.43 1578.98,-169.23 1574.4,-174.53"/>
</g>
<!-- Node15 -->
<g id="node15" class="node">
<title>Node15</title>
<g id="a_node15"><a xlink:href="../../d5/d10/_g_r_p__solver___e_u_l__source_8c.html" target="_top" xlink:title="This is an Eulerian GRP scheme to solve 1&#45;D Euler equations.">
<polygon fill="white" stroke="black" points="870.5,-0.5 870.5,-52.5 1011.5,-52.5 1011.5,-0.5 870.5,-0.5"/>
<text text-anchor="start" x="878.5" y="-40.5" font-family="Helvetica,sans-Serif" font-size="10.00">/home/leixin/Programs</text>
<text text-anchor="start" x="878.5" y="-29.5" font-family="Helvetica,sans-Serif" font-size="10.00">/HydroCODE/src/finite</text>
<text text-anchor="start" x="878.5" y="-18.5" font-family="Helvetica,sans-Serif" font-size="10.00">_volume/GRP_solver_EUL</text>
<text text-anchor="middle" x="941" y="-7.5" font-family="Helvetica,sans-Serif" font-size="10.00">_source.c</text>
</a>
</g>
</g>
<!-- Node1&#45;&gt;Node15 -->
<g id="edge14" class="edge">
<title>Node1&#45;&gt;Node15</title>
<path fill="none" stroke="midnightblue" d="M1532.94,-193.51C1481.9,-187.53 1414.96,-173.73 1364,-142 1338.25,-125.97 1347.56,-103.66 1321,-89 1203.43,-24.11 1152.23,-81.52 1021,-53 1018.01,-52.35 1014.97,-51.63 1011.91,-50.87"/>
<polygon fill="midnightblue" stroke="midnightblue" points="1532.6,-196.99 1542.92,-194.6 1533.36,-190.03 1532.6,-196.99"/>
</g>
<!-- Node16 -->
<g id="node16" class="node">
<title>Node16</title>
<g id="a_node16"><a xlink:href="../../dd/dd7/_g_r_p__solver___l_a_g__source_8c.html" target="_top" xlink:title="This is a Lagrangian GRP scheme to solve 1&#45;D Euler equations.">
<polygon fill="white" stroke="black" points="1188.5,-0.5 1188.5,-52.5 1331.5,-52.5 1331.5,-0.5 1188.5,-0.5"/>
<text text-anchor="start" x="1196.5" y="-40.5" font-family="Helvetica,sans-Serif" font-size="10.00">/home/leixin/Programs</text>
<text text-anchor="start" x="1196.5" y="-29.5" font-family="Helvetica,sans-Serif" font-size="10.00">/HydroCODE/src/finite</text>
<text text-anchor="start" x="1196.5" y="-18.5" font-family="Helvetica,sans-Serif" font-size="10.00">_volume/GRP_solver_LAG</text>
<text text-anchor="middle" x="1260" y="-7.5" font-family="Helvetica,sans-Serif" font-size="10.00">_source.c</text>
</a>
</g>
</g>
<!-- Node1&#45;&gt;Node16 -->
<g id="edge15" class="edge">
<title>Node1&#45;&gt;Node16</title>
<path fill="none" stroke="midnightblue" d="M1596.05,-169.14C1582.58,-140.42 1561.48,-99.19 1547,-89 1471,-35.5 1431.3,-75 1341,-53 1337.99,-52.27 1334.93,-51.48 1331.85,-50.66"/>
<polygon fill="midnightblue" stroke="midnightblue" points="1592.93,-170.73 1600.3,-178.34 1599.28,-167.79 1592.93,-170.73"/>
</g>
<!-- Node17 -->
<g id="node17" class="node">
<title>Node17</title>
<g id="a_node17"><a xlink:href="../../d4/da5/_godunov__solver___a_l_e__source_8c.html" target="_top" xlink:title="This is an ALE Godunov scheme to solve 1&#45;D Euler equations.">
<polygon fill="white" stroke="black" points="1350,-0.5 1350,-52.5 1490,-52.5 1490,-0.5 1350,-0.5"/>
<text text-anchor="start" x="1358" y="-40.5" font-family="Helvetica,sans-Serif" font-size="10.00">/home/leixin/Programs</text>
<text text-anchor="start" x="1358" y="-29.5" font-family="Helvetica,sans-Serif" font-size="10.00">/HydroCODE/src/finite</text>
<text text-anchor="start" x="1358" y="-18.5" font-family="Helvetica,sans-Serif" font-size="10.00">_volume/Godunov_solver</text>
<text text-anchor="middle" x="1420" y="-7.5" font-family="Helvetica,sans-Serif" font-size="10.00">_ALE_source.c</text>
</a>
</g>
</g>
<!-- Node1&#45;&gt;Node17 -->
<g id="edge16" class="edge">
<title>Node1&#45;&gt;Node17</title>
<path fill="none" stroke="midnightblue" d="M1609.85,-168.19C1608.96,-144.12 1603.93,-110.79 1585,-89 1578.18,-81.15 1532.04,-64.29 1490.28,-50.2"/>
<polygon fill="midnightblue" stroke="midnightblue" points="1606.35,-168.26 1610.01,-178.2 1613.35,-168.15 1606.35,-168.26"/>
</g>
<!-- Node18 -->
<g id="node18" class="node">
<title>Node18</title>
<g id="a_node18"><a xlink:href="../../de/dd9/_godunov__solver___e_u_l__source_8c.html" target="_top" xlink:title="This is an Eulerian Godunov scheme to solve 1&#45;D Euler equations.">
<polygon fill="white" stroke="black" points="1508,-0.5 1508,-52.5 1648,-52.5 1648,-0.5 1508,-0.5"/>
<text text-anchor="start" x="1516" y="-40.5" font-family="Helvetica,sans-Serif" font-size="10.00">/home/leixin/Programs</text>
<text text-anchor="start" x="1516" y="-29.5" font-family="Helvetica,sans-Serif" font-size="10.00">/HydroCODE/src/finite</text>
<text text-anchor="start" x="1516" y="-18.5" font-family="Helvetica,sans-Serif" font-size="10.00">_volume/Godunov_solver</text>
<text text-anchor="middle" x="1578" y="-7.5" font-family="Helvetica,sans-Serif" font-size="10.00">_EUL_source.c</text>
</a>
</g>
</g>
<!-- Node1&#45;&gt;Node18 -->
<g id="edge17" class="edge">
<title>Node1&#45;&gt;Node18</title>
<path fill="none" stroke="midnightblue" d="M1619.6,-168.64C1626.04,-146.32 1631.53,-115.11 1623,-89 1618.68,-75.8 1610.34,-63.08 1602,-52.67"/>
<polygon fill="midnightblue" stroke="midnightblue" points="1616.25,-167.63 1616.62,-178.22 1622.93,-169.71 1616.25,-167.63"/>
</g>
<!-- Node19 -->
<g id="node19" class="node">
<title>Node19</title>
<g id="a_node19"><a xlink:href="../../dd/d30/_godunov__solver___l_a_g__source_8c.html" target="_top" xlink:title="This is a Lagrangian Godunov scheme to solve 1&#45;D Euler equations.">
<polygon fill="white" stroke="black" points="1666,-0.5 1666,-52.5 1806,-52.5 1806,-0.5 1666,-0.5"/>
<text text-anchor="start" x="1674" y="-40.5" font-family="Helvetica,sans-Serif" font-size="10.00">/home/leixin/Programs</text>
<text text-anchor="start" x="1674" y="-29.5" font-family="Helvetica,sans-Serif" font-size="10.00">/HydroCODE/src/finite</text>
<text text-anchor="start" x="1674" y="-18.5" font-family="Helvetica,sans-Serif" font-size="10.00">_volume/Godunov_solver</text>
<text text-anchor="middle" x="1736" y="-7.5" font-family="Helvetica,sans-Serif" font-size="10.00">_LAG_source.c</text>
</a>
</g>
</g>
<!-- Node1&#45;&gt;Node19 -->
<g id="edge18" class="edge">
<title>Node1&#45;&gt;Node19</title>
<path fill="none" stroke="midnightblue" d="M1629.68,-170.23C1653.97,-137.63 1693.9,-84.03 1717.29,-52.61"/>
<polygon fill="midnightblue" stroke="midnightblue" points="1626.74,-168.33 1623.57,-178.44 1632.35,-172.51 1626.74,-168.33"/>
</g>
<!-- Node20 -->
<g id="node20" class="node">
<title>Node20</title>
<g id="a_node20"><a xlink:href="../../de/d35/flux__generator__x_8c.html" target="_top" xlink:title="This file is a function which generates Eulerian fluxes in x&#45;direction of 2&#45;D Euler equations solved ...">
<polygon fill="white" stroke="black" points="2642,-6 2642,-47 2782,-47 2782,-6 2642,-6"/>
<text text-anchor="start" x="2650" y="-35" font-family="Helvetica,sans-Serif" font-size="10.00">/home/leixin/Programs</text>
<text text-anchor="start" x="2650" y="-24" font-family="Helvetica,sans-Serif" font-size="10.00">/HydroCODE/src/flux_calc</text>
<text text-anchor="middle" x="2712" y="-13" font-family="Helvetica,sans-Serif" font-size="10.00">/flux_generator_x.c</text>
</a>
</g>
</g>
<!-- Node1&#45;&gt;Node20 -->
<g id="edge19" class="edge">
<title>Node1&#45;&gt;Node20</title>
<path fill="none" stroke="midnightblue" d="M1685.2,-197.5C1822.15,-195.48 2103.65,-185.94 2190,-142 2218.06,-127.72 2208.9,-103.2 2237,-89 2315.86,-49.14 2546.42,-70.68 2633,-53 2640.77,-51.41 2648.84,-49.33 2656.74,-47.04"/>
<polygon fill="midnightblue" stroke="midnightblue" points="1685.15,-194 1675.2,-197.64 1685.25,-201 1685.15,-194"/>
</g>
<!-- Node21 -->
<g id="node21" class="node">
<title>Node21</title>
<g id="a_node21"><a xlink:href="../../de/db1/flux__generator__y_8c.html" target="_top" xlink:title="This file is a function which generates Eulerian fluxes in y&#45;direction of 2&#45;D Euler equations solved ...">
<polygon fill="white" stroke="black" points="2800,-6 2800,-47 2940,-47 2940,-6 2800,-6"/>
<text text-anchor="start" x="2808" y="-35" font-family="Helvetica,sans-Serif" font-size="10.00">/home/leixin/Programs</text>
<text text-anchor="start" x="2808" y="-24" font-family="Helvetica,sans-Serif" font-size="10.00">/HydroCODE/src/flux_calc</text>
<text text-anchor="middle" x="2870" y="-13" font-family="Helvetica,sans-Serif" font-size="10.00">/flux_generator_y.c</text>
</a>
</g>
</g>
<!-- Node1&#45;&gt;Node21 -->
<g id="edge20" class="edge">
<title>Node1&#45;&gt;Node21</title>
<path fill="none" stroke="midnightblue" d="M1685.32,-198.03C1829.3,-196.97 2134.89,-189.04 2228,-142 2256.1,-127.8 2246.75,-102.91 2275,-89 2378.12,-38.23 2678.14,-74.81 2791,-53 2798.92,-51.47 2807.16,-49.39 2815.2,-47.07"/>
<polygon fill="midnightblue" stroke="midnightblue" points="1685.22,-194.53 1675.24,-198.1 1685.26,-201.53 1685.22,-194.53"/>
</g>
<!-- Node22 -->
<g id="node22" class="node">
<title>Node22</title>
<g id="a_node22"><a xlink:href="../../d5/d55/flux__solver_8c.html" target="_top" xlink:title="This file is a set of functions to calculate interfacial fluxes and demanded variables according to t...">
<polygon fill="white" stroke="black" points="712,-6 712,-47 852,-47 852,-6 712,-6"/>
<text text-anchor="start" x="720" y="-35" font-family="Helvetica,sans-Serif" font-size="10.00">/home/leixin/Programs</text>
<text text-anchor="start" x="720" y="-24" font-family="Helvetica,sans-Serif" font-size="10.00">/HydroCODE/src/flux_calc</text>
<text text-anchor="middle" x="782" y="-13" font-family="Helvetica,sans-Serif" font-size="10.00">/flux_solver.c</text>
</a>
</g>
</g>
<!-- Node1&#45;&gt;Node22 -->
<g id="edge21" class="edge">
<title>Node1&#45;&gt;Node22</title>
<path fill="none" stroke="midnightblue" d="M1532.72,-190.01C1459.38,-181.13 1354.81,-164.95 1321,-142 1297.84,-126.29 1310.97,-103.45 1287,-89 1205.63,-39.96 954.14,-71.71 861,-53 853.23,-51.44 845.15,-49.37 837.26,-47.09"/>
<polygon fill="midnightblue" stroke="midnightblue" points="1532.51,-193.51 1542.85,-191.21 1533.34,-186.56 1532.51,-193.51"/>
</g>
<!-- Node23 -->
<g id="node23" class="node">
<title>Node23</title>
<g id="a_node23"><a xlink:href="../../d8/d09/_riemann__solver_8h.html" target="_top" xlink:title="This file is the header file of several Riemann solvers and GRP solvers.">
<polygon fill="white" stroke="black" points="1373,-95 1373,-136 1505,-136 1505,-95 1373,-95"/>
<text text-anchor="start" x="1381" y="-124" font-family="Helvetica,sans-Serif" font-size="10.00">/home/leixin/Programs</text>
<text text-anchor="start" x="1381" y="-113" font-family="Helvetica,sans-Serif" font-size="10.00">/HydroCODE/src/include</text>
<text text-anchor="middle" x="1439" y="-102" font-family="Helvetica,sans-Serif" font-size="10.00">/Riemann_solver.h</text>
</a>
</g>
</g>
<!-- Node1&#45;&gt;Node23 -->
<g id="edge22" class="edge">
<title>Node1&#45;&gt;Node23</title>
<path fill="none" stroke="midnightblue" d="M1559.21,-174.13C1533.91,-162 1503.56,-147.45 1479.68,-136"/>
<polygon fill="midnightblue" stroke="midnightblue" points="1557.75,-177.31 1568.28,-178.48 1560.78,-171 1557.75,-177.31"/>
</g>
<!-- Node24 -->
<g id="node24" class="node">
<title>Node24</title>
<g id="a_node24"><a xlink:href="../../d8/da8/finite__volume_8h.html" target="_top" xlink:title="This file is the header file of Lagrangian/Eulerian hydrocode in finite volume framework.">
<polygon fill="white" stroke="black" points="2317,-95 2317,-136 2449,-136 2449,-95 2317,-95"/>
<text text-anchor="start" x="2325" y="-124" font-family="Helvetica,sans-Serif" font-size="10.00">/home/leixin/Programs</text>
<text text-anchor="start" x="2325" y="-113" font-family="Helvetica,sans-Serif" font-size="10.00">/HydroCODE/src/include</text>
<text text-anchor="middle" x="2383" y="-102" font-family="Helvetica,sans-Serif" font-size="10.00">/finite_volume.h</text>
</a>
</g>
</g>
<!-- Node1&#45;&gt;Node24 -->
<g id="edge36" class="edge">
<title>Node1&#45;&gt;Node24</title>
<path fill="none" stroke="midnightblue" d="M1685.37,-197.5C1814.02,-195.4 2081.59,-185.63 2303,-142 2310.87,-140.45 2319.05,-138.39 2327.04,-136.11"/>
<polygon fill="midnightblue" stroke="midnightblue" points="1685.17,-194 1675.23,-197.66 1685.28,-201 1685.17,-194"/>
</g>
<!-- Node25 -->
<g id="node25" class="node">
<title>Node25</title>
<g id="a_node25"><a xlink:href="../../d2/d24/hydrocode_8c.html" target="_top" xlink:title="This is a C file of the main function.">
<polygon fill="white" stroke="black" points="2958,-17 2958,-36 3034,-36 3034,-17 2958,-17"/>
<text text-anchor="middle" x="2996" y="-24" font-family="Helvetica,sans-Serif" font-size="10.00">hydrocode.c</text>
</a>
</g>
</g>
<!-- Node1&#45;&gt;Node25 -->
<g id="edge60" class="edge">
<title>Node1&#45;&gt;Node25</title>
<path fill="none" stroke="midnightblue" d="M1685.63,-194.88C1848,-187.77 2215.92,-168.9 2266,-142 2292.48,-127.78 2281.32,-102.84 2308,-89 2434.65,-23.32 2811.75,-91.96 2949,-53 2961.68,-49.4 2974.76,-41.95 2983.88,-36.02"/>
<polygon fill="midnightblue" stroke="midnightblue" points="1685.08,-191.4 1675.24,-195.33 1685.38,-198.39 1685.08,-191.4"/>
</g>
<!-- Node26 -->
<g id="node26" class="node">
<title>Node26</title>
<g id="a_node26"><a xlink:href="../../dd/df5/flux__calc_8h.html" target="_top" xlink:title="This file is the header file of intermediate processes of finite volume scheme.">
<polygon fill="white" stroke="black" points="1939,-95 1939,-136 2071,-136 2071,-95 1939,-95"/>
<text text-anchor="start" x="1947" y="-124" font-family="Helvetica,sans-Serif" font-size="10.00">/home/leixin/Programs</text>
<text text-anchor="start" x="1947" y="-113" font-family="Helvetica,sans-Serif" font-size="10.00">/HydroCODE/src/include</text>
<text text-anchor="middle" x="2005" y="-102" font-family="Helvetica,sans-Serif" font-size="10.00">/flux_calc.h</text>
</a>
</g>
</g>
<!-- Node1&#45;&gt;Node26 -->
<g id="edge38" class="edge">
<title>Node1&#45;&gt;Node26</title>
<path fill="none" stroke="midnightblue" d="M1685.27,-187.4C1749.65,-177.76 1844,-161.99 1925,-142 1932.08,-140.25 1939.44,-138.22 1946.71,-136.07"/>
<polygon fill="midnightblue" stroke="midnightblue" points="1684.58,-183.96 1675.2,-188.89 1685.61,-190.89 1684.58,-183.96"/>
</g>
<!-- Node27 -->
<g id="node27" class="node">
<title>Node27</title>
<g id="a_node27"><a xlink:href="../../d6/d6f/inter__process_8h.html" target="_top" xlink:title="This file is the header file of intermediate processes of finite volume scheme.">
<polygon fill="white" stroke="black" points="1713,-95 1713,-136 1845,-136 1845,-95 1713,-95"/>
<text text-anchor="start" x="1721" y="-124" font-family="Helvetica,sans-Serif" font-size="10.00">/home/leixin/Programs</text>
<text text-anchor="start" x="1721" y="-113" font-family="Helvetica,sans-Serif" font-size="10.00">/HydroCODE/src/include</text>
<text text-anchor="middle" x="1779" y="-102" font-family="Helvetica,sans-Serif" font-size="10.00">/inter_process.h</text>
</a>
</g>
</g>
<!-- Node1&#45;&gt;Node27 -->
<g id="edge43" class="edge">
<title>Node1&#45;&gt;Node27</title>
<path fill="none" stroke="midnightblue" d="M1658.79,-174.13C1684.09,-162 1714.44,-147.45 1738.32,-136"/>
<polygon fill="midnightblue" stroke="midnightblue" points="1657.22,-171 1649.72,-178.48 1660.25,-177.31 1657.22,-171"/>
</g>
<!-- Node28 -->
<g id="node28" class="node">
<title>Node28</title>
<g id="a_node28"><a xlink:href="../../df/d13/bound__cond__slope__limiter_8c.html" target="_top" xlink:title="This is a function to set boundary conditions and use the slope limiter in one dimension.">
<polygon fill="white" stroke="black" points="2132,-0.5 2132,-52.5 2284,-52.5 2284,-0.5 2132,-0.5"/>
<text text-anchor="start" x="2140" y="-40.5" font-family="Helvetica,sans-Serif" font-size="10.00">/home/leixin/Programs</text>
<text text-anchor="start" x="2140" y="-29.5" font-family="Helvetica,sans-Serif" font-size="10.00">/HydroCODE/src/inter</text>
<text text-anchor="start" x="2140" y="-18.5" font-family="Helvetica,sans-Serif" font-size="10.00">_process/bound_cond_slope</text>
<text text-anchor="middle" x="2208" y="-7.5" font-family="Helvetica,sans-Serif" font-size="10.00">_limiter.c</text>
</a>
</g>
</g>
<!-- Node1&#45;&gt;Node28 -->
<g id="edge55" class="edge">
<title>Node1&#45;&gt;Node28</title>
<path fill="none" stroke="midnightblue" d="M1685.54,-195.82C1801.17,-191.39 2013.93,-178.42 2080,-142 2106.56,-127.36 2100.97,-109.85 2123,-89 2136.89,-75.86 2153.69,-63.15 2168.67,-52.73"/>
<polygon fill="midnightblue" stroke="midnightblue" points="1685.21,-192.33 1675.34,-196.2 1685.47,-199.33 1685.21,-192.33"/>
</g>
<!-- Node29 -->
<g id="node29" class="node">
<title>Node29</title>
<g id="a_node29"><a xlink:href="../../d8/d49/bound__cond__slope__limiter__x_8c.html" target="_top" xlink:title="This is a function to set boundary conditions and use the slope limiter in x&#45;direction of two dimensi...">
<polygon fill="white" stroke="black" points="2302,-0.5 2302,-52.5 2454,-52.5 2454,-0.5 2302,-0.5"/>
<text text-anchor="start" x="2310" y="-40.5" font-family="Helvetica,sans-Serif" font-size="10.00">/home/leixin/Programs</text>
<text text-anchor="start" x="2310" y="-29.5" font-family="Helvetica,sans-Serif" font-size="10.00">/HydroCODE/src/inter</text>
<text text-anchor="start" x="2310" y="-18.5" font-family="Helvetica,sans-Serif" font-size="10.00">_process/bound_cond_slope</text>
<text text-anchor="middle" x="2378" y="-7.5" font-family="Helvetica,sans-Serif" font-size="10.00">_limiter_x.c</text>
</a>
</g>
</g>
<!-- Node1&#45;&gt;Node29 -->
<g id="edge56" class="edge">
<title>Node1&#45;&gt;Node29</title>
<path fill="none" stroke="midnightblue" d="M1685.16,-196.41C1807.92,-192.73 2043.17,-180.7 2116,-142 2143.29,-127.5 2134.93,-105.59 2161,-89 2212.31,-56.36 2234.54,-69.74 2293,-53 2295.81,-52.19 2298.68,-51.37 2301.57,-50.53"/>
<polygon fill="midnightblue" stroke="midnightblue" points="1684.97,-192.92 1675.08,-196.7 1685.17,-199.91 1684.97,-192.92"/>
</g>
<!-- Node30 -->
<g id="node30" class="node">
<title>Node30</title>
<g id="a_node30"><a xlink:href="../../d8/dbb/bound__cond__slope__limiter__y_8c.html" target="_top" xlink:title=" ">
<polygon fill="white" stroke="black" points="2472,-0.5 2472,-52.5 2624,-52.5 2624,-0.5 2472,-0.5"/>
<text text-anchor="start" x="2480" y="-40.5" font-family="Helvetica,sans-Serif" font-size="10.00">/home/leixin/Programs</text>
<text text-anchor="start" x="2480" y="-29.5" font-family="Helvetica,sans-Serif" font-size="10.00">/HydroCODE/src/inter</text>
<text text-anchor="start" x="2480" y="-18.5" font-family="Helvetica,sans-Serif" font-size="10.00">_process/bound_cond_slope</text>
<text text-anchor="middle" x="2548" y="-7.5" font-family="Helvetica,sans-Serif" font-size="10.00">_limiter_y.c</text>
</a>
</g>
</g>
<!-- Node1&#45;&gt;Node30 -->
<g id="edge57" class="edge">
<title>Node1&#45;&gt;Node30</title>
<path fill="none" stroke="midnightblue" d="M1685.66,-196.99C1815.8,-194.14 2073.54,-183.3 2153,-142 2180.68,-127.62 2171.56,-103.84 2199,-89 2303.16,-32.67 2347.27,-78.09 2463,-53 2465.86,-52.38 2468.77,-51.71 2471.69,-51"/>
<polygon fill="midnightblue" stroke="midnightblue" points="1685.3,-193.49 1675.38,-197.2 1685.45,-200.49 1685.3,-193.49"/>
</g>
<!-- Node31 -->
<g id="node31" class="node">
<title>Node31</title>
<g id="a_node31"><a xlink:href="../../d2/d49/slope__limiter_8c.html" target="_top" xlink:title="This is a function of the minmod slope limiter in one dimension.">
<polygon fill="white" stroke="black" points="2467,-95 2467,-136 2601,-136 2601,-95 2467,-95"/>
<text text-anchor="start" x="2475" y="-124" font-family="Helvetica,sans-Serif" font-size="10.00">/home/leixin/Programs</text>
<text text-anchor="start" x="2475" y="-113" font-family="Helvetica,sans-Serif" font-size="10.00">/HydroCODE/src/inter</text>
<text text-anchor="middle" x="2534" y="-102" font-family="Helvetica,sans-Serif" font-size="10.00">_process/slope_limiter.c</text>
</a>
</g>
</g>
<!-- Node1&#45;&gt;Node31 -->
<g id="edge58" class="edge">
<title>Node1&#45;&gt;Node31</title>
<path fill="none" stroke="midnightblue" d="M1685.33,-195.48C1865.15,-189.15 2311.22,-170.96 2458,-142 2465.65,-140.49 2473.58,-138.42 2481.32,-136.11"/>
<polygon fill="midnightblue" stroke="midnightblue" points="1685.04,-191.99 1675.17,-195.84 1685.28,-198.99 1685.04,-191.99"/>
</g>
<!-- Node32 -->
<g id="node32" class="node">
<title>Node32</title>
<g id="a_node32"><a xlink:href="../../d7/d36/slope__limiter__2_d__x_8c.html" target="_top" xlink:title="This is a function of the minmod slope limiter in the x&#45;direction of two dimension.">
<polygon fill="white" stroke="black" points="2619.5,-89.5 2619.5,-141.5 2746.5,-141.5 2746.5,-89.5 2619.5,-89.5"/>
<text text-anchor="start" x="2627.5" y="-129.5" font-family="Helvetica,sans-Serif" font-size="10.00">/home/leixin/Programs</text>
<text text-anchor="start" x="2627.5" y="-118.5" font-family="Helvetica,sans-Serif" font-size="10.00">/HydroCODE/src/inter</text>
<text text-anchor="start" x="2627.5" y="-107.5" font-family="Helvetica,sans-Serif" font-size="10.00">_process/slope_limiter</text>
<text text-anchor="middle" x="2683" y="-96.5" font-family="Helvetica,sans-Serif" font-size="10.00">_2D_x.c</text>
</a>
</g>
</g>
<!-- Node1&#45;&gt;Node32 -->
<g id="edge59" class="edge">
<title>Node1&#45;&gt;Node32</title>
<path fill="none" stroke="midnightblue" d="M1685.48,-196.49C1887.75,-192.05 2433.28,-177.08 2610,-142 2613.03,-141.4 2616.1,-140.7 2619.19,-139.93"/>
<polygon fill="midnightblue" stroke="midnightblue" points="1685.17,-192.99 1675.25,-196.71 1685.32,-199.99 1685.17,-192.99"/>
</g>
<!-- Node23&#45;&gt;Node2 -->
<g id="edge23" class="edge">
<title>Node23&#45;&gt;Node2</title>
<path fill="none" stroke="midnightblue" d="M1362.53,-99.62C1338.45,-95.49 1311.7,-91.46 1287,-89 799.38,-40.35 669.91,-123.74 185,-53 175.01,-51.54 164.56,-49.44 154.38,-47.05"/>
<polygon fill="midnightblue" stroke="midnightblue" points="1362.21,-103.12 1372.67,-101.4 1363.42,-96.23 1362.21,-103.12"/>
</g>
<!-- Node23&#45;&gt;Node3 -->
<g id="edge24" class="edge">
<title>Node23&#45;&gt;Node3</title>
<path fill="none" stroke="midnightblue" d="M1362.52,-99.71C1338.44,-95.58 1311.69,-91.53 1287,-89 870.66,-46.29 758.25,-125.21 346,-53 343.27,-52.52 340.51,-51.97 337.73,-51.37"/>
<polygon fill="midnightblue" stroke="midnightblue" points="1362.21,-103.2 1372.66,-101.48 1363.41,-96.31 1362.21,-103.2"/>
</g>
<!-- Node23&#45;&gt;Node4 -->
<g id="edge25" class="edge">
<title>Node23&#45;&gt;Node4</title>
<path fill="none" stroke="midnightblue" d="M1362.51,-99.82C1338.43,-95.7 1311.68,-91.63 1287,-89 941.92,-52.23 848.59,-114.22 507,-53 504.27,-52.51 501.51,-51.95 498.73,-51.34"/>
<polygon fill="midnightblue" stroke="midnightblue" points="1362.2,-103.32 1372.65,-101.59 1363.4,-96.43 1362.2,-103.32"/>
</g>
<!-- Node23&#45;&gt;Node5 -->
<g id="edge26" class="edge">
<title>Node23&#45;&gt;Node5</title>
<path fill="none" stroke="midnightblue" d="M1363.14,-100.17C1338.89,-96.02 1311.88,-91.85 1287,-89 1028.64,-59.45 959.81,-93.93 703,-53 693.28,-51.45 683.12,-49.36 673.18,-47.04"/>
<polygon fill="midnightblue" stroke="midnightblue" points="1362.55,-103.62 1373,-101.88 1363.74,-96.72 1362.55,-103.62"/>
</g>
<!-- Node23&#45;&gt;Node12 -->
<g id="edge27" class="edge">
<title>Node23&#45;&gt;Node12</title>
<path fill="none" stroke="midnightblue" d="M1515.34,-107.58C1640.63,-95.9 1884.44,-71.7 1969,-53 1971.89,-52.36 1974.82,-51.66 1977.77,-50.9"/>
<polygon fill="midnightblue" stroke="midnightblue" points="1514.69,-104.12 1505.06,-108.54 1515.34,-111.09 1514.69,-104.12"/>
</g>
<!-- Node23&#45;&gt;Node13 -->
<g id="edge28" class="edge">
<title>Node23&#45;&gt;Node13</title>
<path fill="none" stroke="midnightblue" d="M1515.21,-105.62C1591.67,-95.87 1712.49,-78.19 1815,-53 1817.87,-52.29 1820.79,-51.53 1823.73,-50.73"/>
<polygon fill="midnightblue" stroke="midnightblue" points="1514.66,-102.16 1505.18,-106.88 1515.54,-109.11 1514.66,-102.16"/>
</g>
<!-- Node23&#45;&gt;Node14 -->
<g id="edge29" class="edge">
<title>Node23&#45;&gt;Node14</title>
<path fill="none" stroke="midnightblue" d="M1370.54,-92.13C1366.65,-91.03 1362.78,-89.98 1359,-89 1280.01,-68.58 1257.95,-73.56 1179,-53 1176.07,-52.24 1173.09,-51.43 1170.09,-50.58"/>
<polygon fill="midnightblue" stroke="midnightblue" points="1369.66,-95.52 1380.24,-94.95 1371.61,-88.8 1369.66,-95.52"/>
</g>
<!-- Node23&#45;&gt;Node15 -->
<g id="edge30" class="edge">
<title>Node23&#45;&gt;Node15</title>
<path fill="none" stroke="midnightblue" d="M1372.58,-92.21C1368.01,-91.02 1363.45,-89.94 1359,-89 1211.16,-57.9 1168.84,-84.1 1021,-53 1018,-52.37 1014.96,-51.67 1011.9,-50.92"/>
<polygon fill="midnightblue" stroke="midnightblue" points="1372,-95.68 1382.57,-94.95 1373.85,-88.93 1372,-95.68"/>
</g>
<!-- Node23&#45;&gt;Node16 -->
<g id="edge31" class="edge">
<title>Node23&#45;&gt;Node16</title>
<path fill="none" stroke="midnightblue" d="M1389.79,-90.58C1365.5,-78.78 1336.21,-64.54 1311.61,-52.58"/>
<polygon fill="midnightblue" stroke="midnightblue" points="1388.3,-93.75 1398.83,-94.98 1391.36,-87.46 1388.3,-93.75"/>
</g>
<!-- Node23&#45;&gt;Node17 -->
<g id="edge32" class="edge">
<title>Node23&#45;&gt;Node17</title>
<path fill="none" stroke="midnightblue" d="M1432.52,-84.84C1430.25,-74.42 1427.71,-62.81 1425.52,-52.79"/>
<polygon fill="midnightblue" stroke="midnightblue" points="1429.14,-85.74 1434.69,-94.76 1435.97,-84.24 1429.14,-85.74"/>
</g>
<!-- Node23&#45;&gt;Node18 -->
<g id="edge33" class="edge">
<title>Node23&#45;&gt;Node18</title>
<path fill="none" stroke="midnightblue" d="M1478.72,-89.64C1497.27,-78.03 1519.32,-64.23 1537.92,-52.58"/>
<polygon fill="midnightblue" stroke="midnightblue" points="1476.81,-86.7 1470.19,-94.98 1480.53,-92.64 1476.81,-86.7"/>
</g>
<!-- Node23&#45;&gt;Node19 -->
<g id="edge34" class="edge">
<title>Node23&#45;&gt;Node19</title>
<path fill="none" stroke="midnightblue" d="M1514.89,-93.84C1556.89,-82.22 1609.96,-67.22 1657,-53 1659.9,-52.12 1662.85,-51.22 1665.83,-50.3"/>
<polygon fill="midnightblue" stroke="midnightblue" points="1513.72,-90.53 1505.01,-96.57 1515.58,-97.28 1513.72,-90.53"/>
</g>
<!-- Node23&#45;&gt;Node22 -->
<g id="edge35" class="edge">
<title>Node23&#45;&gt;Node22</title>
<path fill="none" stroke="midnightblue" d="M1362.84,-96.47C1348.98,-93.64 1334.6,-90.99 1321,-89 1118.1,-59.27 1062.18,-92.77 861,-53 853.08,-51.43 844.85,-49.33 836.82,-47.01"/>
<polygon fill="midnightblue" stroke="midnightblue" points="1362.32,-99.94 1372.82,-98.56 1363.75,-93.09 1362.32,-99.94"/>
</g>
<!-- Node24&#45;&gt;Node25 -->
<g id="edge37" class="edge">
<title>Node24&#45;&gt;Node25</title>
<path fill="none" stroke="midnightblue" d="M2444.72,-92.15C2449.18,-90.96 2453.64,-89.89 2458,-89 2672.43,-45.43 2739.03,-114.55 2949,-53 2961.47,-49.34 2974.36,-42.06 2983.48,-36.21"/>
<polygon fill="midnightblue" stroke="midnightblue" points="2443.64,-88.82 2434.98,-94.93 2445.56,-95.55 2443.64,-88.82"/>
</g>
<!-- Node26&#45;&gt;Node12 -->
<g id="edge39" class="edge">
<title>Node26&#45;&gt;Node12</title>
<path fill="none" stroke="midnightblue" d="M2018.67,-85.48C2023.66,-74.9 2029.26,-63.02 2034.08,-52.79"/>
<polygon fill="midnightblue" stroke="midnightblue" points="2015.4,-84.22 2014.3,-94.76 2021.73,-87.2 2015.4,-84.22"/>
</g>
<!-- Node26&#45;&gt;Node13 -->
<g id="edge40" class="edge">
<title>Node26&#45;&gt;Node13</title>
<path fill="none" stroke="midnightblue" d="M1971.68,-88.85C1956.82,-77.4 1939.36,-63.96 1924.58,-52.58"/>
<polygon fill="midnightblue" stroke="midnightblue" points="1969.58,-91.65 1979.64,-94.98 1973.85,-86.1 1969.58,-91.65"/>
</g>
<!-- Node26&#45;&gt;Node20 -->
<g id="edge41" class="edge">
<title>Node26&#45;&gt;Node20</title>
<path fill="none" stroke="midnightblue" d="M2081.67,-103.56C2117.3,-98.7 2160.26,-93.15 2199,-89 2391.45,-68.38 2443.21,-90.98 2633,-53 2640.77,-51.44 2648.85,-49.38 2656.75,-47.1"/>
<polygon fill="midnightblue" stroke="midnightblue" points="2080.78,-100.15 2071.35,-104.98 2081.73,-107.09 2080.78,-100.15"/>
</g>
<!-- Node26&#45;&gt;Node21 -->
<g id="edge42" class="edge">
<title>Node26&#45;&gt;Node21</title>
<path fill="none" stroke="midnightblue" d="M2081.2,-105.26C2126.43,-99.99 2184.93,-93.55 2237,-89 2482.8,-67.52 2548.63,-99.25 2791,-53 2798.93,-51.49 2807.17,-49.42 2815.2,-47.1"/>
<polygon fill="midnightblue" stroke="midnightblue" points="2080.7,-101.79 2071.17,-106.43 2081.51,-108.75 2080.7,-101.79"/>
</g>
<!-- Node27&#45;&gt;Node12 -->
<g id="edge44" class="edge">
<title>Node27&#45;&gt;Node12</title>
<path fill="none" stroke="midnightblue" d="M1849.65,-91.76C1885.43,-80.21 1929.55,-65.92 1969,-53 1971.94,-52.04 1974.95,-51.05 1977.99,-50.05"/>
<polygon fill="midnightblue" stroke="midnightblue" points="1848.23,-88.54 1839.79,-94.94 1850.38,-95.2 1848.23,-88.54"/>
</g>
<!-- Node27&#45;&gt;Node13 -->
<g id="edge45" class="edge">
<title>Node27&#45;&gt;Node13</title>
<path fill="none" stroke="midnightblue" d="M1812.32,-88.85C1827.18,-77.4 1844.64,-63.96 1859.42,-52.58"/>
<polygon fill="midnightblue" stroke="midnightblue" points="1810.15,-86.1 1804.36,-94.98 1814.42,-91.65 1810.15,-86.1"/>
</g>
<!-- Node27&#45;&gt;Node14 -->
<g id="edge46" class="edge">
<title>Node27&#45;&gt;Node14</title>
<path fill="none" stroke="midnightblue" d="M1702.74,-105.89C1657.49,-100.83 1598.99,-94.4 1547,-89 1383.54,-72.02 1339.9,-86.43 1179,-53 1176.04,-52.38 1173.03,-51.7 1170,-50.96"/>
<polygon fill="midnightblue" stroke="midnightblue" points="1702.44,-109.37 1712.77,-107.01 1703.22,-102.42 1702.44,-109.37"/>
</g>
<!-- Node27&#45;&gt;Node15 -->
<g id="edge47" class="edge">
<title>Node27&#45;&gt;Node15</title>
<path fill="none" stroke="midnightblue" d="M1702.89,-106.71C1649.95,-101.4 1577.71,-94.39 1514,-89 1295.09,-70.48 1236.71,-94.65 1021,-53 1017.99,-52.42 1014.94,-51.76 1011.87,-51.05"/>
<polygon fill="midnightblue" stroke="midnightblue" points="1702.58,-110.19 1712.88,-107.71 1703.28,-103.23 1702.58,-110.19"/>
</g>
<!-- Node27&#45;&gt;Node16 -->
<g id="edge48" class="edge">
<title>Node27&#45;&gt;Node16</title>
<path fill="none" stroke="midnightblue" d="M1702.63,-104.48C1586.53,-89.13 1375.44,-60.78 1341,-53 1337.98,-52.32 1334.91,-51.58 1331.82,-50.79"/>
<polygon fill="midnightblue" stroke="midnightblue" points="1702.5,-107.99 1712.87,-105.83 1703.42,-101.05 1702.5,-107.99"/>
</g>
<!-- Node27&#45;&gt;Node17 -->
<g id="edge49" class="edge">
<title>Node27&#45;&gt;Node17</title>
<path fill="none" stroke="midnightblue" d="M1703,-99.86C1646.4,-88.47 1567.44,-71.51 1499,-53 1496.08,-52.21 1493.1,-51.38 1490.11,-50.52"/>
<polygon fill="midnightblue" stroke="midnightblue" points="1702.45,-103.32 1712.94,-101.85 1703.82,-96.46 1702.45,-103.32"/>
</g>
<!-- Node27&#45;&gt;Node18 -->
<g id="edge50" class="edge">
<title>Node27&#45;&gt;Node18</title>
<path fill="none" stroke="midnightblue" d="M1724.46,-90.89C1697.05,-79.03 1663.82,-64.65 1635.95,-52.58"/>
<polygon fill="midnightblue" stroke="midnightblue" points="1723.32,-94.22 1733.89,-94.98 1726.1,-87.79 1723.32,-94.22"/>
</g>
<!-- Node27&#45;&gt;Node19 -->
<g id="edge51" class="edge">
<title>Node27&#45;&gt;Node19</title>
<path fill="none" stroke="midnightblue" d="M1764.66,-85.48C1759.43,-74.9 1753.56,-63.02 1748.5,-52.79"/>
<polygon fill="midnightblue" stroke="midnightblue" points="1761.67,-87.34 1769.24,-94.76 1767.95,-84.24 1761.67,-87.34"/>
</g>
<!-- Node27&#45;&gt;Node28 -->
<g id="edge52" class="edge">
<title>Node27&#45;&gt;Node28</title>
<path fill="none" stroke="midnightblue" d="M1855.29,-101.34C1948.61,-85.16 2097.41,-59.1 2123,-53 2125.85,-52.32 2128.74,-51.6 2131.66,-50.85"/>
<polygon fill="midnightblue" stroke="midnightblue" points="1854.57,-97.91 1845.32,-103.07 1855.77,-104.81 1854.57,-97.91"/>
</g>
<!-- Node27&#45;&gt;Node29 -->
<g id="edge53" class="edge">
<title>Node27&#45;&gt;Node29</title>
<path fill="none" stroke="midnightblue" d="M1855.08,-100.61C1879.01,-96.52 1905.56,-92.27 1930,-89 2090.69,-67.49 2133.95,-84.44 2293,-53 2295.87,-52.43 2298.79,-51.81 2301.72,-51.14"/>
<polygon fill="midnightblue" stroke="midnightblue" points="1854.26,-97.2 1845,-102.35 1855.45,-104.1 1854.26,-97.2"/>
</g>
<!-- Node27&#45;&gt;Node30 -->
<g id="edge54" class="edge">
<title>Node27&#45;&gt;Node30</title>
<path fill="none" stroke="midnightblue" d="M1855.36,-100.08C1879.2,-95.99 1905.63,-91.87 1930,-89 2165.8,-61.2 2229.38,-95.38 2463,-53 2465.88,-52.48 2468.8,-51.89 2471.74,-51.26"/>
<polygon fill="midnightblue" stroke="midnightblue" points="1854.57,-96.67 1845.32,-101.83 1855.77,-103.56 1854.57,-96.67"/>
</g>
</g>
</svg>
